<svg xmlns="http://www.w3.org/2000/svg" width="1120" height="760" viewBox="0 0 1120 760">
<rect width="100%" height="100%" fill="#fbfbf8"/>
<text x="560.0" y="34" text-anchor="middle" font-family="sans-serif" font-size="24" fill="#222">Goodput vs. payload</text>
<rect x="96" y="106" width="988" height="562" fill="#ffffff" stroke="#c9c9c1"/>
<line x1="96" y1="106.00" x2="1084" y2="106.00" stroke="#a9aba3" stroke-width="1.35"/>
<text x="86" y="110.00" text-anchor="end" font-family="sans-serif" font-size="13" font-weight="400" fill="#292925">1.03K</text>
<line x1="96" y1="199.67" x2="1084" y2="199.67" stroke="#a9aba3" stroke-width="1.35"/>
<text x="86" y="203.67" text-anchor="end" font-family="sans-serif" font-size="13" font-weight="400" fill="#292925">862</text>
<line x1="96" y1="293.33" x2="1084" y2="293.33" stroke="#a9aba3" stroke-width="1.35"/>
<text x="86" y="297.33" text-anchor="end" font-family="sans-serif" font-size="13" font-weight="400" fill="#292925">690</text>
<line x1="96" y1="387.00" x2="1084" y2="387.00" stroke="#a9aba3" stroke-width="1.35"/>
<text x="86" y="391.00" text-anchor="end" font-family="sans-serif" font-size="13" font-weight="400" fill="#292925">517</text>
<line x1="96" y1="480.67" x2="1084" y2="480.67" stroke="#a9aba3" stroke-width="1.35"/>
<text x="86" y="484.67" text-anchor="end" font-family="sans-serif" font-size="13" font-weight="400" fill="#292925">345</text>
<line x1="96" y1="574.33" x2="1084" y2="574.33" stroke="#a9aba3" stroke-width="1.35"/>
<text x="86" y="578.33" text-anchor="end" font-family="sans-serif" font-size="13" font-weight="400" fill="#292925">172</text>
<line x1="96" y1="668.00" x2="1084" y2="668.00" stroke="#4f504b" stroke-width="2.2"/>
<text x="86" y="672.00" text-anchor="end" font-family="sans-serif" font-size="13" font-weight="600" fill="#292925">0</text>
<line x1="113.55" y1="106" x2="113.55" y2="668" stroke="#b4b6ae" stroke-width="1.25"/>
<text transform="translate(113.55 688) rotate(-45)" text-anchor="end" font-family="sans-serif" font-size="11" font-weight="500" fill="#292925">256</text>
<line x1="163.71" y1="106" x2="163.71" y2="668" stroke="#b4b6ae" stroke-width="1.25"/>
<text transform="translate(163.71 688) rotate(-45)" text-anchor="end" font-family="sans-serif" font-size="11" font-weight="500" fill="#292925">320</text>
<line x1="213.86" y1="106" x2="213.86" y2="668" stroke="#b4b6ae" stroke-width="1.25"/>
<text transform="translate(213.86 688) rotate(-45)" text-anchor="end" font-family="sans-serif" font-size="11" font-weight="500" fill="#292925">384</text>
<line x1="264.01" y1="106" x2="264.01" y2="668" stroke="#b4b6ae" stroke-width="1.25"/>
<text transform="translate(264.01 688) rotate(-45)" text-anchor="end" font-family="sans-serif" font-size="11" font-weight="500" fill="#292925">448</text>
<line x1="314.16" y1="106" x2="314.16" y2="668" stroke="#b4b6ae" stroke-width="1.25"/>
<text transform="translate(314.16 688) rotate(-45)" text-anchor="end" font-family="sans-serif" font-size="11" font-weight="500" fill="#292925">512</text>
<line x1="364.31" y1="106" x2="364.31" y2="668" stroke="#b4b6ae" stroke-width="1.25"/>
<text transform="translate(364.31 688) rotate(-45)" text-anchor="end" font-family="sans-serif" font-size="11" font-weight="500" fill="#292925">576</text>
<line x1="414.47" y1="106" x2="414.47" y2="668" stroke="#b4b6ae" stroke-width="1.25"/>
<text transform="translate(414.47 688) rotate(-45)" text-anchor="end" font-family="sans-serif" font-size="11" font-weight="500" fill="#292925">640</text>
<line x1="464.62" y1="106" x2="464.62" y2="668" stroke="#b4b6ae" stroke-width="1.25"/>
<text transform="translate(464.62 688) rotate(-45)" text-anchor="end" font-family="sans-serif" font-size="11" font-weight="500" fill="#292925">704</text>
<line x1="514.77" y1="106" x2="514.77" y2="668" stroke="#b4b6ae" stroke-width="1.25"/>
<text transform="translate(514.77 688) rotate(-45)" text-anchor="end" font-family="sans-serif" font-size="11" font-weight="500" fill="#292925">768</text>
<line x1="564.92" y1="106" x2="564.92" y2="668" stroke="#b4b6ae" stroke-width="1.25"/>
<text transform="translate(564.92 688) rotate(-45)" text-anchor="end" font-family="sans-serif" font-size="11" font-weight="500" fill="#292925">832</text>
<line x1="615.08" y1="106" x2="615.08" y2="668" stroke="#b4b6ae" stroke-width="1.25"/>
<text transform="translate(615.08 688) rotate(-45)" text-anchor="end" font-family="sans-serif" font-size="11" font-weight="500" fill="#292925">896</text>
<line x1="665.23" y1="106" x2="665.23" y2="668" stroke="#b4b6ae" stroke-width="1.25"/>
<text transform="translate(665.23 688) rotate(-45)" text-anchor="end" font-family="sans-serif" font-size="11" font-weight="500" fill="#292925">960</text>
<line x1="715.38" y1="106" x2="715.38" y2="668" stroke="#b4b6ae" stroke-width="1.25"/>
<text transform="translate(715.38 688) rotate(-45)" text-anchor="end" font-family="sans-serif" font-size="11" font-weight="500" fill="#292925">1024</text>
<line x1="765.53" y1="106" x2="765.53" y2="668" stroke="#b4b6ae" stroke-width="1.25"/>
<text transform="translate(765.53 688) rotate(-45)" text-anchor="end" font-family="sans-serif" font-size="11" font-weight="500" fill="#292925">1088</text>
<line x1="815.69" y1="106" x2="815.69" y2="668" stroke="#b4b6ae" stroke-width="1.25"/>
<text transform="translate(815.69 688) rotate(-45)" text-anchor="end" font-family="sans-serif" font-size="11" font-weight="500" fill="#292925">1152</text>
<line x1="865.84" y1="106" x2="865.84" y2="668" stroke="#b4b6ae" stroke-width="1.25"/>
<text transform="translate(865.84 688) rotate(-45)" text-anchor="end" font-family="sans-serif" font-size="11" font-weight="500" fill="#292925">1216</text>
<line x1="915.99" y1="106" x2="915.99" y2="668" stroke="#b4b6ae" stroke-width="1.25"/>
<text transform="translate(915.99 688) rotate(-45)" text-anchor="end" font-family="sans-serif" font-size="11" font-weight="500" fill="#292925">1280</text>
<line x1="966.14" y1="106" x2="966.14" y2="668" stroke="#b4b6ae" stroke-width="1.25"/>
<text transform="translate(966.14 688) rotate(-45)" text-anchor="end" font-family="sans-serif" font-size="11" font-weight="500" fill="#292925">1344</text>
<line x1="1016.29" y1="106" x2="1016.29" y2="668" stroke="#b4b6ae" stroke-width="1.25"/>
<text transform="translate(1016.29 688) rotate(-45)" text-anchor="end" font-family="sans-serif" font-size="11" font-weight="500" fill="#292925">1408</text>
<line x1="1066.45" y1="106" x2="1066.45" y2="668" stroke="#b4b6ae" stroke-width="1.25"/>
<text transform="translate(1066.45 688) rotate(-45)" text-anchor="end" font-family="sans-serif" font-size="11" font-weight="500" fill="#292925">1472</text>
<text x="590.0" y="736" text-anchor="middle" font-family="sans-serif" font-size="17" font-weight="600" fill="#171715">Tamaño del payload (bytes)</text>
<text transform="translate(24 387.0) rotate(-90)" text-anchor="middle" font-family="sans-serif" font-size="17" font-weight="600" fill="#171715">Goodput payload (Mbps)</text>
<line x1="96.0" y1="64" x2="122.0" y2="64" stroke="#2ca02c" stroke-width="3"/>
<text x="130.0" y="68" font-family="sans-serif" font-size="13" fill="#222">Interfaz a FPGA</text>
<line x1="425.3333333333333" y1="64" x2="451.3333333333333" y2="64" stroke="#9467bd" stroke-width="3" stroke-dasharray="8 6"/>
<text x="459.3333333333333" y="68" font-family="sans-serif" font-size="13" fill="#222">FPGA a interfaz</text>
<line x1="754.6666666666666" y1="64" x2="780.6666666666666" y2="64" stroke="#111111" stroke-width="3" stroke-dasharray="8 6"/>
<text x="788.6666666666666" y="68" font-family="sans-serif" font-size="13" fill="#222">Límite teórico</text>
<polyline points="113.55,236.02 163.71,217.56 213.86,204.34 264.01,194.42 314.16,186.70 364.31,180.51 414.47,175.45 464.62,171.23 514.77,167.65 564.92,164.59 615.08,161.93 665.23,159.61 715.38,157.55 765.53,155.73 815.69,154.10 865.84,152.63 915.99,151.30 966.14,150.09 1016.29,148.98 1066.45,147.97" fill="none" stroke="#2ca02c" stroke-width="2.5"/>
<line x1="113.55" y1="236.02" x2="113.55" y2="236.02" stroke="#2ca02c" stroke-width="1.3"/>
<line x1="108.55" y1="236.02" x2="118.55" y2="236.02" stroke="#2ca02c" stroke-width="1.3"/>
<line x1="108.55" y1="236.02" x2="118.55" y2="236.02" stroke="#2ca02c" stroke-width="1.3"/>
<circle cx="113.55" cy="236.02" r="4" fill="#2ca02c" stroke="#ffffff" stroke-width="1"/>
<line x1="163.71" y1="217.56" x2="163.71" y2="217.56" stroke="#2ca02c" stroke-width="1.3"/>
<line x1="158.71" y1="217.56" x2="168.71" y2="217.56" stroke="#2ca02c" stroke-width="1.3"/>
<line x1="158.71" y1="217.56" x2="168.71" y2="217.56" stroke="#2ca02c" stroke-width="1.3"/>
<circle cx="163.71" cy="217.56" r="4" fill="#2ca02c" stroke="#ffffff" stroke-width="1"/>
<line x1="213.86" y1="204.34" x2="213.86" y2="204.34" stroke="#2ca02c" stroke-width="1.3"/>
<line x1="208.86" y1="204.34" x2="218.86" y2="204.34" stroke="#2ca02c" stroke-width="1.3"/>
<line x1="208.86" y1="204.34" x2="218.86" y2="204.34" stroke="#2ca02c" stroke-width="1.3"/>
<circle cx="213.86" cy="204.34" r="4" fill="#2ca02c" stroke="#ffffff" stroke-width="1"/>
<line x1="264.01" y1="194.42" x2="264.01" y2="194.42" stroke="#2ca02c" stroke-width="1.3"/>
<line x1="259.01" y1="194.42" x2="269.01" y2="194.42" stroke="#2ca02c" stroke-width="1.3"/>
<line x1="259.01" y1="194.42" x2="269.01" y2="194.42" stroke="#2ca02c" stroke-width="1.3"/>
<circle cx="264.01" cy="194.42" r="4" fill="#2ca02c" stroke="#ffffff" stroke-width="1"/>
<line x1="314.16" y1="186.70" x2="314.16" y2="186.70" stroke="#2ca02c" stroke-width="1.3"/>
<line x1="309.16" y1="186.70" x2="319.16" y2="186.70" stroke="#2ca02c" stroke-width="1.3"/>
<line x1="309.16" y1="186.70" x2="319.16" y2="186.70" stroke="#2ca02c" stroke-width="1.3"/>
<circle cx="314.16" cy="186.70" r="4" fill="#2ca02c" stroke="#ffffff" stroke-width="1"/>
<line x1="364.31" y1="180.51" x2="364.31" y2="180.51" stroke="#2ca02c" stroke-width="1.3"/>
<line x1="359.31" y1="180.51" x2="369.31" y2="180.51" stroke="#2ca02c" stroke-width="1.3"/>
<line x1="359.31" y1="180.51" x2="369.31" y2="180.51" stroke="#2ca02c" stroke-width="1.3"/>
<circle cx="364.31" cy="180.51" r="4" fill="#2ca02c" stroke="#ffffff" stroke-width="1"/>
<line x1="414.47" y1="175.45" x2="414.47" y2="175.45" stroke="#2ca02c" stroke-width="1.3"/>
<line x1="409.47" y1="175.45" x2="419.47" y2="175.45" stroke="#2ca02c" stroke-width="1.3"/>
<line x1="409.47" y1="175.45" x2="419.47" y2="175.45" stroke="#2ca02c" stroke-width="1.3"/>
<circle cx="414.47" cy="175.45" r="4" fill="#2ca02c" stroke="#ffffff" stroke-width="1"/>
<line x1="464.62" y1="171.23" x2="464.62" y2="171.23" stroke="#2ca02c" stroke-width="1.3"/>
<line x1="459.62" y1="171.23" x2="469.62" y2="171.23" stroke="#2ca02c" stroke-width="1.3"/>
<line x1="459.62" y1="171.23" x2="469.62" y2="171.23" stroke="#2ca02c" stroke-width="1.3"/>
<circle cx="464.62" cy="171.23" r="4" fill="#2ca02c" stroke="#ffffff" stroke-width="1"/>
<line x1="514.77" y1="167.65" x2="514.77" y2="167.65" stroke="#2ca02c" stroke-width="1.3"/>
<line x1="509.77" y1="167.65" x2="519.77" y2="167.65" stroke="#2ca02c" stroke-width="1.3"/>
<line x1="509.77" y1="167.65" x2="519.77" y2="167.65" stroke="#2ca02c" stroke-width="1.3"/>
<circle cx="514.77" cy="167.65" r="4" fill="#2ca02c" stroke="#ffffff" stroke-width="1"/>
<line x1="564.92" y1="164.59" x2="564.92" y2="164.59" stroke="#2ca02c" stroke-width="1.3"/>
<line x1="559.92" y1="164.59" x2="569.92" y2="164.59" stroke="#2ca02c" stroke-width="1.3"/>
<line x1="559.92" y1="164.59" x2="569.92" y2="164.59" stroke="#2ca02c" stroke-width="1.3"/>
<circle cx="564.92" cy="164.59" r="4" fill="#2ca02c" stroke="#ffffff" stroke-width="1"/>
<line x1="615.08" y1="161.93" x2="615.08" y2="161.93" stroke="#2ca02c" stroke-width="1.3"/>
<line x1="610.08" y1="161.93" x2="620.08" y2="161.93" stroke="#2ca02c" stroke-width="1.3"/>
<line x1="610.08" y1="161.93" x2="620.08" y2="161.93" stroke="#2ca02c" stroke-width="1.3"/>
<circle cx="615.08" cy="161.93" r="4" fill="#2ca02c" stroke="#ffffff" stroke-width="1"/>
<line x1="665.23" y1="159.61" x2="665.23" y2="159.61" stroke="#2ca02c" stroke-width="1.3"/>
<line x1="660.23" y1="159.61" x2="670.23" y2="159.61" stroke="#2ca02c" stroke-width="1.3"/>
<line x1="660.23" y1="159.61" x2="670.23" y2="159.61" stroke="#2ca02c" stroke-width="1.3"/>
<circle cx="665.23" cy="159.61" r="4" fill="#2ca02c" stroke="#ffffff" stroke-width="1"/>
<line x1="715.38" y1="157.55" x2="715.38" y2="157.55" stroke="#2ca02c" stroke-width="1.3"/>
<line x1="710.38" y1="157.55" x2="720.38" y2="157.55" stroke="#2ca02c" stroke-width="1.3"/>
<line x1="710.38" y1="157.55" x2="720.38" y2="157.55" stroke="#2ca02c" stroke-width="1.3"/>
<circle cx="715.38" cy="157.55" r="4" fill="#2ca02c" stroke="#ffffff" stroke-width="1"/>
<line x1="765.53" y1="155.73" x2="765.53" y2="155.73" stroke="#2ca02c" stroke-width="1.3"/>
<line x1="760.53" y1="155.73" x2="770.53" y2="155.73" stroke="#2ca02c" stroke-width="1.3"/>
<line x1="760.53" y1="155.73" x2="770.53" y2="155.73" stroke="#2ca02c" stroke-width="1.3"/>
<circle cx="765.53" cy="155.73" r="4" fill="#2ca02c" stroke="#ffffff" stroke-width="1"/>
<line x1="815.69" y1="154.10" x2="815.69" y2="154.10" stroke="#2ca02c" stroke-width="1.3"/>
<line x1="810.69" y1="154.10" x2="820.69" y2="154.10" stroke="#2ca02c" stroke-width="1.3"/>
<line x1="810.69" y1="154.10" x2="820.69" y2="154.10" stroke="#2ca02c" stroke-width="1.3"/>
<circle cx="815.69" cy="154.10" r="4" fill="#2ca02c" stroke="#ffffff" stroke-width="1"/>
<line x1="865.84" y1="152.63" x2="865.84" y2="152.63" stroke="#2ca02c" stroke-width="1.3"/>
<line x1="860.84" y1="152.63" x2="870.84" y2="152.63" stroke="#2ca02c" stroke-width="1.3"/>
<line x1="860.84" y1="152.63" x2="870.84" y2="152.63" stroke="#2ca02c" stroke-width="1.3"/>
<circle cx="865.84" cy="152.63" r="4" fill="#2ca02c" stroke="#ffffff" stroke-width="1"/>
<line x1="915.99" y1="151.30" x2="915.99" y2="151.30" stroke="#2ca02c" stroke-width="1.3"/>
<line x1="910.99" y1="151.30" x2="920.99" y2="151.30" stroke="#2ca02c" stroke-width="1.3"/>
<line x1="910.99" y1="151.30" x2="920.99" y2="151.30" stroke="#2ca02c" stroke-width="1.3"/>
<circle cx="915.99" cy="151.30" r="4" fill="#2ca02c" stroke="#ffffff" stroke-width="1"/>
<line x1="966.14" y1="150.09" x2="966.14" y2="150.09" stroke="#2ca02c" stroke-width="1.3"/>
<line x1="961.14" y1="150.09" x2="971.14" y2="150.09" stroke="#2ca02c" stroke-width="1.3"/>
<line x1="961.14" y1="150.09" x2="971.14" y2="150.09" stroke="#2ca02c" stroke-width="1.3"/>
<circle cx="966.14" cy="150.09" r="4" fill="#2ca02c" stroke="#ffffff" stroke-width="1"/>
<line x1="1016.29" y1="148.98" x2="1016.29" y2="148.98" stroke="#2ca02c" stroke-width="1.3"/>
<line x1="1011.29" y1="148.98" x2="1021.29" y2="148.98" stroke="#2ca02c" stroke-width="1.3"/>
<line x1="1011.29" y1="148.98" x2="1021.29" y2="148.98" stroke="#2ca02c" stroke-width="1.3"/>
<circle cx="1016.29" cy="148.98" r="4" fill="#2ca02c" stroke="#ffffff" stroke-width="1"/>
<line x1="1066.45" y1="147.97" x2="1066.45" y2="147.97" stroke="#2ca02c" stroke-width="1.3"/>
<line x1="1061.45" y1="147.97" x2="1071.45" y2="147.97" stroke="#2ca02c" stroke-width="1.3"/>
<line x1="1061.45" y1="147.97" x2="1071.45" y2="147.97" stroke="#2ca02c" stroke-width="1.3"/>
<circle cx="1066.45" cy="147.97" r="4" fill="#2ca02c" stroke="#ffffff" stroke-width="1"/>
<polyline points="113.55,235.05 163.71,216.81 213.86,203.82 264.01,193.63 314.16,186.16 364.31,180.30 414.47,175.09 464.62,170.86 514.77,167.25 564.92,164.14 615.08,161.69 665.23,159.49 715.38,157.36 765.53,155.43 815.69,153.89 865.84,152.45 915.99,151.08 966.14,149.83 1016.29,148.81 1066.45,147.74" fill="none" stroke="#9467bd" stroke-width="2.5" stroke-dasharray="8 6"/>
<line x1="113.55" y1="235.67" x2="113.55" y2="234.42" stroke="#9467bd" stroke-width="1.3"/>
<line x1="108.55" y1="235.67" x2="118.55" y2="235.67" stroke="#9467bd" stroke-width="1.3"/>
<line x1="108.55" y1="234.42" x2="118.55" y2="234.42" stroke="#9467bd" stroke-width="1.3"/>
<circle cx="113.55" cy="235.05" r="4" fill="#9467bd" stroke="#ffffff" stroke-width="1"/>
<line x1="163.71" y1="217.28" x2="163.71" y2="216.33" stroke="#9467bd" stroke-width="1.3"/>
<line x1="158.71" y1="217.28" x2="168.71" y2="217.28" stroke="#9467bd" stroke-width="1.3"/>
<line x1="158.71" y1="216.33" x2="168.71" y2="216.33" stroke="#9467bd" stroke-width="1.3"/>
<circle cx="163.71" cy="216.81" r="4" fill="#9467bd" stroke="#ffffff" stroke-width="1"/>
<line x1="213.86" y1="204.19" x2="213.86" y2="203.46" stroke="#9467bd" stroke-width="1.3"/>
<line x1="208.86" y1="204.19" x2="218.86" y2="204.19" stroke="#9467bd" stroke-width="1.3"/>
<line x1="208.86" y1="203.46" x2="218.86" y2="203.46" stroke="#9467bd" stroke-width="1.3"/>
<circle cx="213.86" cy="203.82" r="4" fill="#9467bd" stroke="#ffffff" stroke-width="1"/>
<line x1="264.01" y1="194.06" x2="264.01" y2="193.20" stroke="#9467bd" stroke-width="1.3"/>
<line x1="259.01" y1="194.06" x2="269.01" y2="194.06" stroke="#9467bd" stroke-width="1.3"/>
<line x1="259.01" y1="193.20" x2="269.01" y2="193.20" stroke="#9467bd" stroke-width="1.3"/>
<circle cx="264.01" cy="193.63" r="4" fill="#9467bd" stroke="#ffffff" stroke-width="1"/>
<line x1="314.16" y1="186.48" x2="314.16" y2="185.85" stroke="#9467bd" stroke-width="1.3"/>
<line x1="309.16" y1="186.48" x2="319.16" y2="186.48" stroke="#9467bd" stroke-width="1.3"/>
<line x1="309.16" y1="185.85" x2="319.16" y2="185.85" stroke="#9467bd" stroke-width="1.3"/>
<circle cx="314.16" cy="186.16" r="4" fill="#9467bd" stroke="#ffffff" stroke-width="1"/>
<line x1="364.31" y1="180.63" x2="364.31" y2="179.97" stroke="#9467bd" stroke-width="1.3"/>
<line x1="359.31" y1="180.63" x2="369.31" y2="180.63" stroke="#9467bd" stroke-width="1.3"/>
<line x1="359.31" y1="179.97" x2="369.31" y2="179.97" stroke="#9467bd" stroke-width="1.3"/>
<circle cx="364.31" cy="180.30" r="4" fill="#9467bd" stroke="#ffffff" stroke-width="1"/>
<line x1="414.47" y1="175.35" x2="414.47" y2="174.83" stroke="#9467bd" stroke-width="1.3"/>
<line x1="409.47" y1="175.35" x2="419.47" y2="175.35" stroke="#9467bd" stroke-width="1.3"/>
<line x1="409.47" y1="174.83" x2="419.47" y2="174.83" stroke="#9467bd" stroke-width="1.3"/>
<circle cx="414.47" cy="175.09" r="4" fill="#9467bd" stroke="#ffffff" stroke-width="1"/>
<line x1="464.62" y1="171.13" x2="464.62" y2="170.60" stroke="#9467bd" stroke-width="1.3"/>
<line x1="459.62" y1="171.13" x2="469.62" y2="171.13" stroke="#9467bd" stroke-width="1.3"/>
<line x1="459.62" y1="170.60" x2="469.62" y2="170.60" stroke="#9467bd" stroke-width="1.3"/>
<circle cx="464.62" cy="170.86" r="4" fill="#9467bd" stroke="#ffffff" stroke-width="1"/>
<line x1="514.77" y1="167.41" x2="514.77" y2="167.09" stroke="#9467bd" stroke-width="1.3"/>
<line x1="509.77" y1="167.41" x2="519.77" y2="167.41" stroke="#9467bd" stroke-width="1.3"/>
<line x1="509.77" y1="167.09" x2="519.77" y2="167.09" stroke="#9467bd" stroke-width="1.3"/>
<circle cx="514.77" cy="167.25" r="4" fill="#9467bd" stroke="#ffffff" stroke-width="1"/>
<line x1="564.92" y1="164.31" x2="564.92" y2="163.97" stroke="#9467bd" stroke-width="1.3"/>
<line x1="559.92" y1="164.31" x2="569.92" y2="164.31" stroke="#9467bd" stroke-width="1.3"/>
<line x1="559.92" y1="163.97" x2="569.92" y2="163.97" stroke="#9467bd" stroke-width="1.3"/>
<circle cx="564.92" cy="164.14" r="4" fill="#9467bd" stroke="#ffffff" stroke-width="1"/>
<line x1="615.08" y1="161.90" x2="615.08" y2="161.47" stroke="#9467bd" stroke-width="1.3"/>
<line x1="610.08" y1="161.90" x2="620.08" y2="161.90" stroke="#9467bd" stroke-width="1.3"/>
<line x1="610.08" y1="161.47" x2="620.08" y2="161.47" stroke="#9467bd" stroke-width="1.3"/>
<circle cx="615.08" cy="161.69" r="4" fill="#9467bd" stroke="#ffffff" stroke-width="1"/>
<line x1="665.23" y1="159.66" x2="665.23" y2="159.33" stroke="#9467bd" stroke-width="1.3"/>
<line x1="660.23" y1="159.66" x2="670.23" y2="159.66" stroke="#9467bd" stroke-width="1.3"/>
<line x1="660.23" y1="159.33" x2="670.23" y2="159.33" stroke="#9467bd" stroke-width="1.3"/>
<circle cx="665.23" cy="159.49" r="4" fill="#9467bd" stroke="#ffffff" stroke-width="1"/>
<line x1="715.38" y1="157.51" x2="715.38" y2="157.22" stroke="#9467bd" stroke-width="1.3"/>
<line x1="710.38" y1="157.51" x2="720.38" y2="157.51" stroke="#9467bd" stroke-width="1.3"/>
<line x1="710.38" y1="157.22" x2="720.38" y2="157.22" stroke="#9467bd" stroke-width="1.3"/>
<circle cx="715.38" cy="157.36" r="4" fill="#9467bd" stroke="#ffffff" stroke-width="1"/>
<line x1="765.53" y1="155.63" x2="765.53" y2="155.22" stroke="#9467bd" stroke-width="1.3"/>
<line x1="760.53" y1="155.63" x2="770.53" y2="155.63" stroke="#9467bd" stroke-width="1.3"/>
<line x1="760.53" y1="155.22" x2="770.53" y2="155.22" stroke="#9467bd" stroke-width="1.3"/>
<circle cx="765.53" cy="155.43" r="4" fill="#9467bd" stroke="#ffffff" stroke-width="1"/>
<line x1="815.69" y1="154.06" x2="815.69" y2="153.72" stroke="#9467bd" stroke-width="1.3"/>
<line x1="810.69" y1="154.06" x2="820.69" y2="154.06" stroke="#9467bd" stroke-width="1.3"/>
<line x1="810.69" y1="153.72" x2="820.69" y2="153.72" stroke="#9467bd" stroke-width="1.3"/>
<circle cx="815.69" cy="153.89" r="4" fill="#9467bd" stroke="#ffffff" stroke-width="1"/>
<line x1="865.84" y1="152.53" x2="865.84" y2="152.36" stroke="#9467bd" stroke-width="1.3"/>
<line x1="860.84" y1="152.53" x2="870.84" y2="152.53" stroke="#9467bd" stroke-width="1.3"/>
<line x1="860.84" y1="152.36" x2="870.84" y2="152.36" stroke="#9467bd" stroke-width="1.3"/>
<circle cx="865.84" cy="152.45" r="4" fill="#9467bd" stroke="#ffffff" stroke-width="1"/>
<line x1="915.99" y1="151.20" x2="915.99" y2="150.96" stroke="#9467bd" stroke-width="1.3"/>
<line x1="910.99" y1="151.20" x2="920.99" y2="151.20" stroke="#9467bd" stroke-width="1.3"/>
<line x1="910.99" y1="150.96" x2="920.99" y2="150.96" stroke="#9467bd" stroke-width="1.3"/>
<circle cx="915.99" cy="151.08" r="4" fill="#9467bd" stroke="#ffffff" stroke-width="1"/>
<line x1="966.14" y1="149.94" x2="966.14" y2="149.72" stroke="#9467bd" stroke-width="1.3"/>
<line x1="961.14" y1="149.94" x2="971.14" y2="149.94" stroke="#9467bd" stroke-width="1.3"/>
<line x1="961.14" y1="149.72" x2="971.14" y2="149.72" stroke="#9467bd" stroke-width="1.3"/>
<circle cx="966.14" cy="149.83" r="4" fill="#9467bd" stroke="#ffffff" stroke-width="1"/>
<line x1="1016.29" y1="148.94" x2="1016.29" y2="148.68" stroke="#9467bd" stroke-width="1.3"/>
<line x1="1011.29" y1="148.94" x2="1021.29" y2="148.94" stroke="#9467bd" stroke-width="1.3"/>
<line x1="1011.29" y1="148.68" x2="1021.29" y2="148.68" stroke="#9467bd" stroke-width="1.3"/>
<circle cx="1016.29" cy="148.81" r="4" fill="#9467bd" stroke="#ffffff" stroke-width="1"/>
<line x1="1066.45" y1="147.85" x2="1066.45" y2="147.63" stroke="#9467bd" stroke-width="1.3"/>
<line x1="1061.45" y1="147.85" x2="1071.45" y2="147.85" stroke="#9467bd" stroke-width="1.3"/>
<line x1="1061.45" y1="147.63" x2="1071.45" y2="147.63" stroke="#9467bd" stroke-width="1.3"/>
<circle cx="1066.45" cy="147.74" r="4" fill="#9467bd" stroke="#ffffff" stroke-width="1"/>
<polyline points="113.55,236.02 163.71,217.56 213.86,204.34 264.01,194.42 314.16,186.70 364.31,180.51 414.47,175.45 464.62,171.23 514.77,167.65 564.92,164.59 615.08,161.93 665.23,159.61 715.38,157.55 765.53,155.73 815.69,154.10 865.84,152.63 915.99,151.30 966.14,150.09 1016.29,148.98 1066.45,147.97" fill="none" stroke="#111111" stroke-width="2.5" stroke-dasharray="8 6"/>
<circle cx="113.55" cy="236.02" r="4" fill="#111111" stroke="#ffffff" stroke-width="1"/>
<circle cx="163.71" cy="217.56" r="4" fill="#111111" stroke="#ffffff" stroke-width="1"/>
<circle cx="213.86" cy="204.34" r="4" fill="#111111" stroke="#ffffff" stroke-width="1"/>
<circle cx="264.01" cy="194.42" r="4" fill="#111111" stroke="#ffffff" stroke-width="1"/>
<circle cx="314.16" cy="186.70" r="4" fill="#111111" stroke="#ffffff" stroke-width="1"/>
<circle cx="364.31" cy="180.51" r="4" fill="#111111" stroke="#ffffff" stroke-width="1"/>
<circle cx="414.47" cy="175.45" r="4" fill="#111111" stroke="#ffffff" stroke-width="1"/>
<circle cx="464.62" cy="171.23" r="4" fill="#111111" stroke="#ffffff" stroke-width="1"/>
<circle cx="514.77" cy="167.65" r="4" fill="#111111" stroke="#ffffff" stroke-width="1"/>
<circle cx="564.92" cy="164.59" r="4" fill="#111111" stroke="#ffffff" stroke-width="1"/>
<circle cx="615.08" cy="161.93" r="4" fill="#111111" stroke="#ffffff" stroke-width="1"/>
<circle cx="665.23" cy="159.61" r="4" fill="#111111" stroke="#ffffff" stroke-width="1"/>
<circle cx="715.38" cy="157.55" r="4" fill="#111111" stroke="#ffffff" stroke-width="1"/>
<circle cx="765.53" cy="155.73" r="4" fill="#111111" stroke="#ffffff" stroke-width="1"/>
<circle cx="815.69" cy="154.10" r="4" fill="#111111" stroke="#ffffff" stroke-width="1"/>
<circle cx="865.84" cy="152.63" r="4" fill="#111111" stroke="#ffffff" stroke-width="1"/>
<circle cx="915.99" cy="151.30" r="4" fill="#111111" stroke="#ffffff" stroke-width="1"/>
<circle cx="966.14" cy="150.09" r="4" fill="#111111" stroke="#ffffff" stroke-width="1"/>
<circle cx="1016.29" cy="148.98" r="4" fill="#111111" stroke="#ffffff" stroke-width="1"/>
<circle cx="1066.45" cy="147.97" r="4" fill="#111111" stroke="#ffffff" stroke-width="1"/>
</svg>
