<svg xmlns="http://www.w3.org/2000/svg" width="1120" height="760" viewBox="0 0 1120 760">
<rect width="100%" height="100%" fill="#fbfbf8"/>
<text x="560.0" y="34" text-anchor="middle" font-family="sans-serif" font-size="24" fill="#222">Pérdida vs. payload</text>
<rect x="96" y="106" width="988" height="562" fill="#ffffff" stroke="#c9c9c1"/>
<line x1="96" y1="106.00" x2="1084" y2="106.00" stroke="#a9aba3" stroke-width="1.35"/>
<text x="86" y="110.00" text-anchor="end" font-family="sans-serif" font-size="13" font-weight="400" fill="#292925">0.0017</text>
<line x1="96" y1="199.67" x2="1084" y2="199.67" stroke="#a9aba3" stroke-width="1.35"/>
<text x="86" y="203.67" text-anchor="end" font-family="sans-serif" font-size="13" font-weight="400" fill="#292925">0.0013</text>
<line x1="96" y1="293.33" x2="1084" y2="293.33" stroke="#a9aba3" stroke-width="1.35"/>
<text x="86" y="297.33" text-anchor="end" font-family="sans-serif" font-size="13" font-weight="400" fill="#292925">0.001</text>
<line x1="96" y1="387.00" x2="1084" y2="387.00" stroke="#a9aba3" stroke-width="1.35"/>
<text x="86" y="391.00" text-anchor="end" font-family="sans-serif" font-size="13" font-weight="400" fill="#292925">0.0007</text>
<line x1="96" y1="480.67" x2="1084" y2="480.67" stroke="#a9aba3" stroke-width="1.35"/>
<text x="86" y="484.67" text-anchor="end" font-family="sans-serif" font-size="13" font-weight="400" fill="#292925">0.0003</text>
<line x1="96" y1="574.33" x2="1084" y2="574.33" stroke="#a9aba3" stroke-width="1.35"/>
<text x="86" y="578.33" text-anchor="end" font-family="sans-serif" font-size="13" font-weight="400" fill="#292925">-0</text>
<line x1="96" y1="668.00" x2="1084" y2="668.00" stroke="#a9aba3" stroke-width="1.35"/>
<text x="86" y="672.00" text-anchor="end" font-family="sans-serif" font-size="13" font-weight="400" fill="#292925">-0.0004</text>
<line x1="96" y1="567.70" x2="1084" y2="567.70" stroke="#676761" stroke-width="1.8"/>
<text x="86" y="571.70" text-anchor="end" font-family="sans-serif" font-size="12" font-weight="600" fill="#222">0</text>
<line x1="113.55" y1="106" x2="113.55" y2="668" stroke="#b4b6ae" stroke-width="1.25"/>
<text transform="translate(113.55 688) rotate(-45)" text-anchor="end" font-family="sans-serif" font-size="11" font-weight="500" fill="#292925">256</text>
<line x1="163.71" y1="106" x2="163.71" y2="668" stroke="#b4b6ae" stroke-width="1.25"/>
<text transform="translate(163.71 688) rotate(-45)" text-anchor="end" font-family="sans-serif" font-size="11" font-weight="500" fill="#292925">320</text>
<line x1="213.86" y1="106" x2="213.86" y2="668" stroke="#b4b6ae" stroke-width="1.25"/>
<text transform="translate(213.86 688) rotate(-45)" text-anchor="end" font-family="sans-serif" font-size="11" font-weight="500" fill="#292925">384</text>
<line x1="264.01" y1="106" x2="264.01" y2="668" stroke="#b4b6ae" stroke-width="1.25"/>
<text transform="translate(264.01 688) rotate(-45)" text-anchor="end" font-family="sans-serif" font-size="11" font-weight="500" fill="#292925">448</text>
<line x1="314.16" y1="106" x2="314.16" y2="668" stroke="#b4b6ae" stroke-width="1.25"/>
<text transform="translate(314.16 688) rotate(-45)" text-anchor="end" font-family="sans-serif" font-size="11" font-weight="500" fill="#292925">512</text>
<line x1="364.31" y1="106" x2="364.31" y2="668" stroke="#b4b6ae" stroke-width="1.25"/>
<text transform="translate(364.31 688) rotate(-45)" text-anchor="end" font-family="sans-serif" font-size="11" font-weight="500" fill="#292925">576</text>
<line x1="414.47" y1="106" x2="414.47" y2="668" stroke="#b4b6ae" stroke-width="1.25"/>
<text transform="translate(414.47 688) rotate(-45)" text-anchor="end" font-family="sans-serif" font-size="11" font-weight="500" fill="#292925">640</text>
<line x1="464.62" y1="106" x2="464.62" y2="668" stroke="#b4b6ae" stroke-width="1.25"/>
<text transform="translate(464.62 688) rotate(-45)" text-anchor="end" font-family="sans-serif" font-size="11" font-weight="500" fill="#292925">704</text>
<line x1="514.77" y1="106" x2="514.77" y2="668" stroke="#b4b6ae" stroke-width="1.25"/>
<text transform="translate(514.77 688) rotate(-45)" text-anchor="end" font-family="sans-serif" font-size="11" font-weight="500" fill="#292925">768</text>
<line x1="564.92" y1="106" x2="564.92" y2="668" stroke="#b4b6ae" stroke-width="1.25"/>
<text transform="translate(564.92 688) rotate(-45)" text-anchor="end" font-family="sans-serif" font-size="11" font-weight="500" fill="#292925">832</text>
<line x1="615.08" y1="106" x2="615.08" y2="668" stroke="#b4b6ae" stroke-width="1.25"/>
<text transform="translate(615.08 688) rotate(-45)" text-anchor="end" font-family="sans-serif" font-size="11" font-weight="500" fill="#292925">896</text>
<line x1="665.23" y1="106" x2="665.23" y2="668" stroke="#b4b6ae" stroke-width="1.25"/>
<text transform="translate(665.23 688) rotate(-45)" text-anchor="end" font-family="sans-serif" font-size="11" font-weight="500" fill="#292925">960</text>
<line x1="715.38" y1="106" x2="715.38" y2="668" stroke="#b4b6ae" stroke-width="1.25"/>
<text transform="translate(715.38 688) rotate(-45)" text-anchor="end" font-family="sans-serif" font-size="11" font-weight="500" fill="#292925">1024</text>
<line x1="765.53" y1="106" x2="765.53" y2="668" stroke="#b4b6ae" stroke-width="1.25"/>
<text transform="translate(765.53 688) rotate(-45)" text-anchor="end" font-family="sans-serif" font-size="11" font-weight="500" fill="#292925">1088</text>
<line x1="815.69" y1="106" x2="815.69" y2="668" stroke="#b4b6ae" stroke-width="1.25"/>
<text transform="translate(815.69 688) rotate(-45)" text-anchor="end" font-family="sans-serif" font-size="11" font-weight="500" fill="#292925">1152</text>
<line x1="865.84" y1="106" x2="865.84" y2="668" stroke="#b4b6ae" stroke-width="1.25"/>
<text transform="translate(865.84 688) rotate(-45)" text-anchor="end" font-family="sans-serif" font-size="11" font-weight="500" fill="#292925">1216</text>
<line x1="915.99" y1="106" x2="915.99" y2="668" stroke="#b4b6ae" stroke-width="1.25"/>
<text transform="translate(915.99 688) rotate(-45)" text-anchor="end" font-family="sans-serif" font-size="11" font-weight="500" fill="#292925">1280</text>
<line x1="966.14" y1="106" x2="966.14" y2="668" stroke="#b4b6ae" stroke-width="1.25"/>
<text transform="translate(966.14 688) rotate(-45)" text-anchor="end" font-family="sans-serif" font-size="11" font-weight="500" fill="#292925">1344</text>
<line x1="1016.29" y1="106" x2="1016.29" y2="668" stroke="#b4b6ae" stroke-width="1.25"/>
<text transform="translate(1016.29 688) rotate(-45)" text-anchor="end" font-family="sans-serif" font-size="11" font-weight="500" fill="#292925">1408</text>
<line x1="1066.45" y1="106" x2="1066.45" y2="668" stroke="#b4b6ae" stroke-width="1.25"/>
<text transform="translate(1066.45 688) rotate(-45)" text-anchor="end" font-family="sans-serif" font-size="11" font-weight="500" fill="#292925">1472</text>
<text x="590.0" y="736" text-anchor="middle" font-family="sans-serif" font-size="17" font-weight="600" fill="#171715">Tamaño del payload (bytes)</text>
<text transform="translate(24 387.0) rotate(-90)" text-anchor="middle" font-family="sans-serif" font-size="17" font-weight="600" fill="#171715">Pérdida (%)</text>
<line x1="96.0" y1="64" x2="122.0" y2="64" stroke="#2ca02c" stroke-width="3"/>
<text x="130.0" y="68" font-family="sans-serif" font-size="13" fill="#222">Interfaz a FPGA</text>
<line x1="590.0" y1="64" x2="616.0" y2="64" stroke="#9467bd" stroke-width="3" stroke-dasharray="8 6"/>
<text x="624.0" y="68" font-family="sans-serif" font-size="13" fill="#222">FPGA a interfaz</text>
<polyline points="113.55,428.88 163.71,567.70 213.86,567.70 264.01,484.41 314.16,567.70 364.31,539.94 414.47,512.17 464.62,567.70 514.77,539.94 564.92,512.17 615.08,373.34 665.23,512.17 715.38,512.17 765.53,539.94 815.69,428.88 865.84,539.94 915.99,539.94 966.14,512.17 1016.29,539.94 1066.45,401.11" fill="none" stroke="#2ca02c" stroke-width="2.5"/>
<line x1="113.55" y1="625.21" x2="113.55" y2="232.54" stroke="#2ca02c" stroke-width="1.3"/>
<line x1="108.55" y1="625.21" x2="118.55" y2="625.21" stroke="#2ca02c" stroke-width="1.3"/>
<line x1="108.55" y1="232.54" x2="118.55" y2="232.54" stroke="#2ca02c" stroke-width="1.3"/>
<circle cx="113.55" cy="428.88" r="4" fill="#2ca02c" stroke="#ffffff" stroke-width="1"/>
<circle cx="163.71" cy="567.70" r="4" fill="#2ca02c" stroke="#ffffff" stroke-width="1"/>
<circle cx="213.86" cy="567.70" r="4" fill="#2ca02c" stroke="#ffffff" stroke-width="1"/>
<line x1="264.01" y1="618.53" x2="264.01" y2="350.29" stroke="#2ca02c" stroke-width="1.3"/>
<line x1="259.01" y1="618.53" x2="269.01" y2="618.53" stroke="#2ca02c" stroke-width="1.3"/>
<line x1="259.01" y1="350.29" x2="269.01" y2="350.29" stroke="#2ca02c" stroke-width="1.3"/>
<circle cx="264.01" cy="484.41" r="4" fill="#2ca02c" stroke="#ffffff" stroke-width="1"/>
<circle cx="314.16" cy="567.70" r="4" fill="#2ca02c" stroke="#ffffff" stroke-width="1"/>
<line x1="364.31" y1="627.74" x2="364.31" y2="452.14" stroke="#2ca02c" stroke-width="1.3"/>
<line x1="359.31" y1="627.74" x2="369.31" y2="627.74" stroke="#2ca02c" stroke-width="1.3"/>
<line x1="359.31" y1="452.14" x2="369.31" y2="452.14" stroke="#2ca02c" stroke-width="1.3"/>
<circle cx="364.31" cy="539.94" r="4" fill="#2ca02c" stroke="#ffffff" stroke-width="1"/>
<line x1="414.47" y1="629.24" x2="414.47" y2="395.10" stroke="#2ca02c" stroke-width="1.3"/>
<line x1="409.47" y1="629.24" x2="419.47" y2="629.24" stroke="#2ca02c" stroke-width="1.3"/>
<line x1="409.47" y1="395.10" x2="419.47" y2="395.10" stroke="#2ca02c" stroke-width="1.3"/>
<circle cx="414.47" cy="512.17" r="4" fill="#2ca02c" stroke="#ffffff" stroke-width="1"/>
<circle cx="464.62" cy="567.70" r="4" fill="#2ca02c" stroke="#ffffff" stroke-width="1"/>
<line x1="514.77" y1="627.74" x2="514.77" y2="452.14" stroke="#2ca02c" stroke-width="1.3"/>
<line x1="509.77" y1="627.74" x2="519.77" y2="627.74" stroke="#2ca02c" stroke-width="1.3"/>
<line x1="509.77" y1="452.14" x2="519.77" y2="452.14" stroke="#2ca02c" stroke-width="1.3"/>
<circle cx="514.77" cy="539.94" r="4" fill="#2ca02c" stroke="#ffffff" stroke-width="1"/>
<line x1="564.92" y1="629.24" x2="564.92" y2="395.10" stroke="#2ca02c" stroke-width="1.3"/>
<line x1="559.92" y1="629.24" x2="569.92" y2="629.24" stroke="#2ca02c" stroke-width="1.3"/>
<line x1="559.92" y1="395.10" x2="569.92" y2="395.10" stroke="#2ca02c" stroke-width="1.3"/>
<circle cx="564.92" cy="512.17" r="4" fill="#2ca02c" stroke="#ffffff" stroke-width="1"/>
<line x1="615.08" y1="601.93" x2="615.08" y2="144.76" stroke="#2ca02c" stroke-width="1.3"/>
<line x1="610.08" y1="601.93" x2="620.08" y2="601.93" stroke="#2ca02c" stroke-width="1.3"/>
<line x1="610.08" y1="144.76" x2="620.08" y2="144.76" stroke="#2ca02c" stroke-width="1.3"/>
<circle cx="615.08" cy="373.34" r="4" fill="#2ca02c" stroke="#ffffff" stroke-width="1"/>
<line x1="665.23" y1="629.24" x2="665.23" y2="395.10" stroke="#2ca02c" stroke-width="1.3"/>
<line x1="660.23" y1="629.24" x2="670.23" y2="629.24" stroke="#2ca02c" stroke-width="1.3"/>
<line x1="660.23" y1="395.10" x2="670.23" y2="395.10" stroke="#2ca02c" stroke-width="1.3"/>
<circle cx="665.23" cy="512.17" r="4" fill="#2ca02c" stroke="#ffffff" stroke-width="1"/>
<line x1="715.38" y1="629.24" x2="715.38" y2="395.10" stroke="#2ca02c" stroke-width="1.3"/>
<line x1="710.38" y1="629.24" x2="720.38" y2="629.24" stroke="#2ca02c" stroke-width="1.3"/>
<line x1="710.38" y1="395.10" x2="720.38" y2="395.10" stroke="#2ca02c" stroke-width="1.3"/>
<circle cx="715.38" cy="512.17" r="4" fill="#2ca02c" stroke="#ffffff" stroke-width="1"/>
<line x1="765.53" y1="627.74" x2="765.53" y2="452.14" stroke="#2ca02c" stroke-width="1.3"/>
<line x1="760.53" y1="627.74" x2="770.53" y2="627.74" stroke="#2ca02c" stroke-width="1.3"/>
<line x1="760.53" y1="452.14" x2="770.53" y2="452.14" stroke="#2ca02c" stroke-width="1.3"/>
<circle cx="765.53" cy="539.94" r="4" fill="#2ca02c" stroke="#ffffff" stroke-width="1"/>
<line x1="815.69" y1="625.21" x2="815.69" y2="232.54" stroke="#2ca02c" stroke-width="1.3"/>
<line x1="810.69" y1="625.21" x2="820.69" y2="625.21" stroke="#2ca02c" stroke-width="1.3"/>
<line x1="810.69" y1="232.54" x2="820.69" y2="232.54" stroke="#2ca02c" stroke-width="1.3"/>
<circle cx="815.69" cy="428.88" r="4" fill="#2ca02c" stroke="#ffffff" stroke-width="1"/>
<line x1="865.84" y1="627.74" x2="865.84" y2="452.14" stroke="#2ca02c" stroke-width="1.3"/>
<line x1="860.84" y1="627.74" x2="870.84" y2="627.74" stroke="#2ca02c" stroke-width="1.3"/>
<line x1="860.84" y1="452.14" x2="870.84" y2="452.14" stroke="#2ca02c" stroke-width="1.3"/>
<circle cx="865.84" cy="539.94" r="4" fill="#2ca02c" stroke="#ffffff" stroke-width="1"/>
<line x1="915.99" y1="627.74" x2="915.99" y2="452.14" stroke="#2ca02c" stroke-width="1.3"/>
<line x1="910.99" y1="627.74" x2="920.99" y2="627.74" stroke="#2ca02c" stroke-width="1.3"/>
<line x1="910.99" y1="452.14" x2="920.99" y2="452.14" stroke="#2ca02c" stroke-width="1.3"/>
<circle cx="915.99" cy="539.94" r="4" fill="#2ca02c" stroke="#ffffff" stroke-width="1"/>
<line x1="966.14" y1="629.24" x2="966.14" y2="395.10" stroke="#2ca02c" stroke-width="1.3"/>
<line x1="961.14" y1="629.24" x2="971.14" y2="629.24" stroke="#2ca02c" stroke-width="1.3"/>
<line x1="961.14" y1="395.10" x2="971.14" y2="395.10" stroke="#2ca02c" stroke-width="1.3"/>
<circle cx="966.14" cy="512.17" r="4" fill="#2ca02c" stroke="#ffffff" stroke-width="1"/>
<line x1="1016.29" y1="627.74" x2="1016.29" y2="452.14" stroke="#2ca02c" stroke-width="1.3"/>
<line x1="1011.29" y1="627.74" x2="1021.29" y2="627.74" stroke="#2ca02c" stroke-width="1.3"/>
<line x1="1011.29" y1="452.14" x2="1021.29" y2="452.14" stroke="#2ca02c" stroke-width="1.3"/>
<circle cx="1016.29" cy="539.94" r="4" fill="#2ca02c" stroke="#ffffff" stroke-width="1"/>
<line x1="1066.45" y1="595.25" x2="1066.45" y2="206.97" stroke="#2ca02c" stroke-width="1.3"/>
<line x1="1061.45" y1="595.25" x2="1071.45" y2="595.25" stroke="#2ca02c" stroke-width="1.3"/>
<line x1="1061.45" y1="206.97" x2="1071.45" y2="206.97" stroke="#2ca02c" stroke-width="1.3"/>
<circle cx="1066.45" cy="401.11" r="4" fill="#2ca02c" stroke="#ffffff" stroke-width="1"/>
<polyline points="113.55,567.70 163.71,567.70 213.86,567.70 264.01,567.70 314.16,567.70 364.31,567.70 414.47,567.70 464.62,567.70 514.77,567.70 564.92,567.70 615.08,567.70 665.23,567.70 715.38,567.70 765.53,567.70 815.69,567.70 865.84,567.70 915.99,567.70 966.14,567.70 1016.29,567.70 1066.45,567.70" fill="none" stroke="#9467bd" stroke-width="2.5" stroke-dasharray="8 6"/>
<circle cx="113.55" cy="567.70" r="4" fill="#9467bd" stroke="#ffffff" stroke-width="1"/>
<circle cx="163.71" cy="567.70" r="4" fill="#9467bd" stroke="#ffffff" stroke-width="1"/>
<circle cx="213.86" cy="567.70" r="4" fill="#9467bd" stroke="#ffffff" stroke-width="1"/>
<circle cx="264.01" cy="567.70" r="4" fill="#9467bd" stroke="#ffffff" stroke-width="1"/>
<circle cx="314.16" cy="567.70" r="4" fill="#9467bd" stroke="#ffffff" stroke-width="1"/>
<circle cx="364.31" cy="567.70" r="4" fill="#9467bd" stroke="#ffffff" stroke-width="1"/>
<circle cx="414.47" cy="567.70" r="4" fill="#9467bd" stroke="#ffffff" stroke-width="1"/>
<circle cx="464.62" cy="567.70" r="4" fill="#9467bd" stroke="#ffffff" stroke-width="1"/>
<circle cx="514.77" cy="567.70" r="4" fill="#9467bd" stroke="#ffffff" stroke-width="1"/>
<circle cx="564.92" cy="567.70" r="4" fill="#9467bd" stroke="#ffffff" stroke-width="1"/>
<circle cx="615.08" cy="567.70" r="4" fill="#9467bd" stroke="#ffffff" stroke-width="1"/>
<circle cx="665.23" cy="567.70" r="4" fill="#9467bd" stroke="#ffffff" stroke-width="1"/>
<circle cx="715.38" cy="567.70" r="4" fill="#9467bd" stroke="#ffffff" stroke-width="1"/>
<circle cx="765.53" cy="567.70" r="4" fill="#9467bd" stroke="#ffffff" stroke-width="1"/>
<circle cx="815.69" cy="567.70" r="4" fill="#9467bd" stroke="#ffffff" stroke-width="1"/>
<circle cx="865.84" cy="567.70" r="4" fill="#9467bd" stroke="#ffffff" stroke-width="1"/>
<circle cx="915.99" cy="567.70" r="4" fill="#9467bd" stroke="#ffffff" stroke-width="1"/>
<circle cx="966.14" cy="567.70" r="4" fill="#9467bd" stroke="#ffffff" stroke-width="1"/>
<circle cx="1016.29" cy="567.70" r="4" fill="#9467bd" stroke="#ffffff" stroke-width="1"/>
<circle cx="1066.45" cy="567.70" r="4" fill="#9467bd" stroke="#ffffff" stroke-width="1"/>
</svg>
