<svg xmlns="http://www.w3.org/2000/svg" width="1120" height="760" viewBox="0 0 1120 760">
<rect width="100%" height="100%" fill="#fbfbf8"/>
<text x="560.0" y="34" text-anchor="middle" font-family="sans-serif" font-size="24" fill="#222">RTT entre interfaz y FPGA vs. payload</text>
<rect x="96" y="106" width="988" height="562" fill="#ffffff" stroke="#c9c9c1"/>
<line x1="96" y1="106.00" x2="1084" y2="106.00" stroke="#a9aba3" stroke-width="1.35"/>
<text x="86" y="110.00" text-anchor="end" font-family="sans-serif" font-size="13" font-weight="400" fill="#292925">0.114</text>
<line x1="96" y1="199.67" x2="1084" y2="199.67" stroke="#a9aba3" stroke-width="1.35"/>
<text x="86" y="203.67" text-anchor="end" font-family="sans-serif" font-size="13" font-weight="400" fill="#292925">0.095</text>
<line x1="96" y1="293.33" x2="1084" y2="293.33" stroke="#a9aba3" stroke-width="1.35"/>
<text x="86" y="297.33" text-anchor="end" font-family="sans-serif" font-size="13" font-weight="400" fill="#292925">0.076</text>
<line x1="96" y1="387.00" x2="1084" y2="387.00" stroke="#a9aba3" stroke-width="1.35"/>
<text x="86" y="391.00" text-anchor="end" font-family="sans-serif" font-size="13" font-weight="400" fill="#292925">0.057</text>
<line x1="96" y1="480.67" x2="1084" y2="480.67" stroke="#a9aba3" stroke-width="1.35"/>
<text x="86" y="484.67" text-anchor="end" font-family="sans-serif" font-size="13" font-weight="400" fill="#292925">0.038</text>
<line x1="96" y1="574.33" x2="1084" y2="574.33" stroke="#a9aba3" stroke-width="1.35"/>
<text x="86" y="578.33" text-anchor="end" font-family="sans-serif" font-size="13" font-weight="400" fill="#292925">0.019</text>
<line x1="96" y1="668.00" x2="1084" y2="668.00" stroke="#4f504b" stroke-width="2.2"/>
<text x="86" y="672.00" text-anchor="end" font-family="sans-serif" font-size="13" font-weight="600" fill="#292925">0</text>
<line x1="113.55" y1="106" x2="113.55" y2="668" stroke="#b4b6ae" stroke-width="1.25"/>
<text transform="translate(113.55 688) rotate(-45)" text-anchor="end" font-family="sans-serif" font-size="11" font-weight="500" fill="#292925">256</text>
<line x1="163.71" y1="106" x2="163.71" y2="668" stroke="#b4b6ae" stroke-width="1.25"/>
<text transform="translate(163.71 688) rotate(-45)" text-anchor="end" font-family="sans-serif" font-size="11" font-weight="500" fill="#292925">320</text>
<line x1="213.86" y1="106" x2="213.86" y2="668" stroke="#b4b6ae" stroke-width="1.25"/>
<text transform="translate(213.86 688) rotate(-45)" text-anchor="end" font-family="sans-serif" font-size="11" font-weight="500" fill="#292925">384</text>
<line x1="264.01" y1="106" x2="264.01" y2="668" stroke="#b4b6ae" stroke-width="1.25"/>
<text transform="translate(264.01 688) rotate(-45)" text-anchor="end" font-family="sans-serif" font-size="11" font-weight="500" fill="#292925">448</text>
<line x1="314.16" y1="106" x2="314.16" y2="668" stroke="#b4b6ae" stroke-width="1.25"/>
<text transform="translate(314.16 688) rotate(-45)" text-anchor="end" font-family="sans-serif" font-size="11" font-weight="500" fill="#292925">512</text>
<line x1="364.31" y1="106" x2="364.31" y2="668" stroke="#b4b6ae" stroke-width="1.25"/>
<text transform="translate(364.31 688) rotate(-45)" text-anchor="end" font-family="sans-serif" font-size="11" font-weight="500" fill="#292925">576</text>
<line x1="414.47" y1="106" x2="414.47" y2="668" stroke="#b4b6ae" stroke-width="1.25"/>
<text transform="translate(414.47 688) rotate(-45)" text-anchor="end" font-family="sans-serif" font-size="11" font-weight="500" fill="#292925">640</text>
<line x1="464.62" y1="106" x2="464.62" y2="668" stroke="#b4b6ae" stroke-width="1.25"/>
<text transform="translate(464.62 688) rotate(-45)" text-anchor="end" font-family="sans-serif" font-size="11" font-weight="500" fill="#292925">704</text>
<line x1="514.77" y1="106" x2="514.77" y2="668" stroke="#b4b6ae" stroke-width="1.25"/>
<text transform="translate(514.77 688) rotate(-45)" text-anchor="end" font-family="sans-serif" font-size="11" font-weight="500" fill="#292925">768</text>
<line x1="564.92" y1="106" x2="564.92" y2="668" stroke="#b4b6ae" stroke-width="1.25"/>
<text transform="translate(564.92 688) rotate(-45)" text-anchor="end" font-family="sans-serif" font-size="11" font-weight="500" fill="#292925">832</text>
<line x1="615.08" y1="106" x2="615.08" y2="668" stroke="#b4b6ae" stroke-width="1.25"/>
<text transform="translate(615.08 688) rotate(-45)" text-anchor="end" font-family="sans-serif" font-size="11" font-weight="500" fill="#292925">896</text>
<line x1="665.23" y1="106" x2="665.23" y2="668" stroke="#b4b6ae" stroke-width="1.25"/>
<text transform="translate(665.23 688) rotate(-45)" text-anchor="end" font-family="sans-serif" font-size="11" font-weight="500" fill="#292925">960</text>
<line x1="715.38" y1="106" x2="715.38" y2="668" stroke="#b4b6ae" stroke-width="1.25"/>
<text transform="translate(715.38 688) rotate(-45)" text-anchor="end" font-family="sans-serif" font-size="11" font-weight="500" fill="#292925">1024</text>
<line x1="765.53" y1="106" x2="765.53" y2="668" stroke="#b4b6ae" stroke-width="1.25"/>
<text transform="translate(765.53 688) rotate(-45)" text-anchor="end" font-family="sans-serif" font-size="11" font-weight="500" fill="#292925">1088</text>
<line x1="815.69" y1="106" x2="815.69" y2="668" stroke="#b4b6ae" stroke-width="1.25"/>
<text transform="translate(815.69 688) rotate(-45)" text-anchor="end" font-family="sans-serif" font-size="11" font-weight="500" fill="#292925">1152</text>
<line x1="865.84" y1="106" x2="865.84" y2="668" stroke="#b4b6ae" stroke-width="1.25"/>
<text transform="translate(865.84 688) rotate(-45)" text-anchor="end" font-family="sans-serif" font-size="11" font-weight="500" fill="#292925">1216</text>
<line x1="915.99" y1="106" x2="915.99" y2="668" stroke="#b4b6ae" stroke-width="1.25"/>
<text transform="translate(915.99 688) rotate(-45)" text-anchor="end" font-family="sans-serif" font-size="11" font-weight="500" fill="#292925">1280</text>
<line x1="966.14" y1="106" x2="966.14" y2="668" stroke="#b4b6ae" stroke-width="1.25"/>
<text transform="translate(966.14 688) rotate(-45)" text-anchor="end" font-family="sans-serif" font-size="11" font-weight="500" fill="#292925">1344</text>
<line x1="1016.29" y1="106" x2="1016.29" y2="668" stroke="#b4b6ae" stroke-width="1.25"/>
<text transform="translate(1016.29 688) rotate(-45)" text-anchor="end" font-family="sans-serif" font-size="11" font-weight="500" fill="#292925">1408</text>
<line x1="1066.45" y1="106" x2="1066.45" y2="668" stroke="#b4b6ae" stroke-width="1.25"/>
<text transform="translate(1066.45 688) rotate(-45)" text-anchor="end" font-family="sans-serif" font-size="11" font-weight="500" fill="#292925">1472</text>
<text x="590.0" y="736" text-anchor="middle" font-family="sans-serif" font-size="17" font-weight="600" fill="#171715">Tamaño del payload (bytes)</text>
<text transform="translate(24 387.0) rotate(-90)" text-anchor="middle" font-family="sans-serif" font-size="17" font-weight="600" fill="#171715">RTT promedio entre interfaz y FPGA (ms)</text>
<line x1="96.0" y1="64" x2="122.0" y2="64" stroke="#1f77b4" stroke-width="3"/>
<text x="130.0" y="68" font-family="sans-serif" font-size="13" fill="#222">RTT interfaz-FPGA</text>
<polyline points="113.55,434.53 163.71,417.92 213.86,402.59 264.01,388.02 314.16,372.89 364.31,346.70 414.47,342.65 464.62,326.45 514.77,309.37 564.92,296.87 615.08,281.02 665.23,267.19 715.38,252.94 765.53,237.30 815.69,222.62 865.84,204.42 915.99,191.90 966.14,176.34 1016.29,161.59 1066.45,147.94" fill="none" stroke="#1f77b4" stroke-width="2.5"/>
<line x1="113.55" y1="440.26" x2="113.55" y2="428.81" stroke="#1f77b4" stroke-width="1.3"/>
<line x1="108.55" y1="440.26" x2="118.55" y2="440.26" stroke="#1f77b4" stroke-width="1.3"/>
<line x1="108.55" y1="428.81" x2="118.55" y2="428.81" stroke="#1f77b4" stroke-width="1.3"/>
<circle cx="113.55" cy="434.53" r="4" fill="#1f77b4" stroke="#ffffff" stroke-width="1"/>
<line x1="163.71" y1="423.42" x2="163.71" y2="412.43" stroke="#1f77b4" stroke-width="1.3"/>
<line x1="158.71" y1="423.42" x2="168.71" y2="423.42" stroke="#1f77b4" stroke-width="1.3"/>
<line x1="158.71" y1="412.43" x2="168.71" y2="412.43" stroke="#1f77b4" stroke-width="1.3"/>
<circle cx="163.71" cy="417.92" r="4" fill="#1f77b4" stroke="#ffffff" stroke-width="1"/>
<line x1="213.86" y1="403.33" x2="213.86" y2="401.86" stroke="#1f77b4" stroke-width="1.3"/>
<line x1="208.86" y1="403.33" x2="218.86" y2="403.33" stroke="#1f77b4" stroke-width="1.3"/>
<line x1="208.86" y1="401.86" x2="218.86" y2="401.86" stroke="#1f77b4" stroke-width="1.3"/>
<circle cx="213.86" cy="402.59" r="4" fill="#1f77b4" stroke="#ffffff" stroke-width="1"/>
<line x1="264.01" y1="389.23" x2="264.01" y2="386.81" stroke="#1f77b4" stroke-width="1.3"/>
<line x1="259.01" y1="389.23" x2="269.01" y2="389.23" stroke="#1f77b4" stroke-width="1.3"/>
<line x1="259.01" y1="386.81" x2="269.01" y2="386.81" stroke="#1f77b4" stroke-width="1.3"/>
<circle cx="264.01" cy="388.02" r="4" fill="#1f77b4" stroke="#ffffff" stroke-width="1"/>
<line x1="314.16" y1="376.64" x2="314.16" y2="369.14" stroke="#1f77b4" stroke-width="1.3"/>
<line x1="309.16" y1="376.64" x2="319.16" y2="376.64" stroke="#1f77b4" stroke-width="1.3"/>
<line x1="309.16" y1="369.14" x2="319.16" y2="369.14" stroke="#1f77b4" stroke-width="1.3"/>
<circle cx="314.16" cy="372.89" r="4" fill="#1f77b4" stroke="#ffffff" stroke-width="1"/>
<line x1="364.31" y1="347.40" x2="364.31" y2="346.01" stroke="#1f77b4" stroke-width="1.3"/>
<line x1="359.31" y1="347.40" x2="369.31" y2="347.40" stroke="#1f77b4" stroke-width="1.3"/>
<line x1="359.31" y1="346.01" x2="369.31" y2="346.01" stroke="#1f77b4" stroke-width="1.3"/>
<circle cx="364.31" cy="346.70" r="4" fill="#1f77b4" stroke="#ffffff" stroke-width="1"/>
<line x1="414.47" y1="345.25" x2="414.47" y2="340.05" stroke="#1f77b4" stroke-width="1.3"/>
<line x1="409.47" y1="345.25" x2="419.47" y2="345.25" stroke="#1f77b4" stroke-width="1.3"/>
<line x1="409.47" y1="340.05" x2="419.47" y2="340.05" stroke="#1f77b4" stroke-width="1.3"/>
<circle cx="414.47" cy="342.65" r="4" fill="#1f77b4" stroke="#ffffff" stroke-width="1"/>
<line x1="464.62" y1="327.10" x2="464.62" y2="325.79" stroke="#1f77b4" stroke-width="1.3"/>
<line x1="459.62" y1="327.10" x2="469.62" y2="327.10" stroke="#1f77b4" stroke-width="1.3"/>
<line x1="459.62" y1="325.79" x2="469.62" y2="325.79" stroke="#1f77b4" stroke-width="1.3"/>
<circle cx="464.62" cy="326.45" r="4" fill="#1f77b4" stroke="#ffffff" stroke-width="1"/>
<line x1="514.77" y1="310.28" x2="514.77" y2="308.45" stroke="#1f77b4" stroke-width="1.3"/>
<line x1="509.77" y1="310.28" x2="519.77" y2="310.28" stroke="#1f77b4" stroke-width="1.3"/>
<line x1="509.77" y1="308.45" x2="519.77" y2="308.45" stroke="#1f77b4" stroke-width="1.3"/>
<circle cx="514.77" cy="309.37" r="4" fill="#1f77b4" stroke="#ffffff" stroke-width="1"/>
<line x1="564.92" y1="297.86" x2="564.92" y2="295.88" stroke="#1f77b4" stroke-width="1.3"/>
<line x1="559.92" y1="297.86" x2="569.92" y2="297.86" stroke="#1f77b4" stroke-width="1.3"/>
<line x1="559.92" y1="295.88" x2="569.92" y2="295.88" stroke="#1f77b4" stroke-width="1.3"/>
<circle cx="564.92" cy="296.87" r="4" fill="#1f77b4" stroke="#ffffff" stroke-width="1"/>
<line x1="615.08" y1="281.85" x2="615.08" y2="280.20" stroke="#1f77b4" stroke-width="1.3"/>
<line x1="610.08" y1="281.85" x2="620.08" y2="281.85" stroke="#1f77b4" stroke-width="1.3"/>
<line x1="610.08" y1="280.20" x2="620.08" y2="280.20" stroke="#1f77b4" stroke-width="1.3"/>
<circle cx="615.08" cy="281.02" r="4" fill="#1f77b4" stroke="#ffffff" stroke-width="1"/>
<line x1="665.23" y1="271.95" x2="665.23" y2="262.42" stroke="#1f77b4" stroke-width="1.3"/>
<line x1="660.23" y1="271.95" x2="670.23" y2="271.95" stroke="#1f77b4" stroke-width="1.3"/>
<line x1="660.23" y1="262.42" x2="670.23" y2="262.42" stroke="#1f77b4" stroke-width="1.3"/>
<circle cx="665.23" cy="267.19" r="4" fill="#1f77b4" stroke="#ffffff" stroke-width="1"/>
<line x1="715.38" y1="254.87" x2="715.38" y2="251.01" stroke="#1f77b4" stroke-width="1.3"/>
<line x1="710.38" y1="254.87" x2="720.38" y2="254.87" stroke="#1f77b4" stroke-width="1.3"/>
<line x1="710.38" y1="251.01" x2="720.38" y2="251.01" stroke="#1f77b4" stroke-width="1.3"/>
<circle cx="715.38" cy="252.94" r="4" fill="#1f77b4" stroke="#ffffff" stroke-width="1"/>
<line x1="765.53" y1="237.77" x2="765.53" y2="236.84" stroke="#1f77b4" stroke-width="1.3"/>
<line x1="760.53" y1="237.77" x2="770.53" y2="237.77" stroke="#1f77b4" stroke-width="1.3"/>
<line x1="760.53" y1="236.84" x2="770.53" y2="236.84" stroke="#1f77b4" stroke-width="1.3"/>
<circle cx="765.53" cy="237.30" r="4" fill="#1f77b4" stroke="#ffffff" stroke-width="1"/>
<line x1="815.69" y1="223.45" x2="815.69" y2="221.79" stroke="#1f77b4" stroke-width="1.3"/>
<line x1="810.69" y1="223.45" x2="820.69" y2="223.45" stroke="#1f77b4" stroke-width="1.3"/>
<line x1="810.69" y1="221.79" x2="820.69" y2="221.79" stroke="#1f77b4" stroke-width="1.3"/>
<circle cx="815.69" cy="222.62" r="4" fill="#1f77b4" stroke="#ffffff" stroke-width="1"/>
<line x1="865.84" y1="204.78" x2="865.84" y2="204.05" stroke="#1f77b4" stroke-width="1.3"/>
<line x1="860.84" y1="204.78" x2="870.84" y2="204.78" stroke="#1f77b4" stroke-width="1.3"/>
<line x1="860.84" y1="204.05" x2="870.84" y2="204.05" stroke="#1f77b4" stroke-width="1.3"/>
<circle cx="865.84" cy="204.42" r="4" fill="#1f77b4" stroke="#ffffff" stroke-width="1"/>
<line x1="915.99" y1="192.15" x2="915.99" y2="191.64" stroke="#1f77b4" stroke-width="1.3"/>
<line x1="910.99" y1="192.15" x2="920.99" y2="192.15" stroke="#1f77b4" stroke-width="1.3"/>
<line x1="910.99" y1="191.64" x2="920.99" y2="191.64" stroke="#1f77b4" stroke-width="1.3"/>
<circle cx="915.99" cy="191.90" r="4" fill="#1f77b4" stroke="#ffffff" stroke-width="1"/>
<line x1="966.14" y1="176.51" x2="966.14" y2="176.16" stroke="#1f77b4" stroke-width="1.3"/>
<line x1="961.14" y1="176.51" x2="971.14" y2="176.51" stroke="#1f77b4" stroke-width="1.3"/>
<line x1="961.14" y1="176.16" x2="971.14" y2="176.16" stroke="#1f77b4" stroke-width="1.3"/>
<circle cx="966.14" cy="176.34" r="4" fill="#1f77b4" stroke="#ffffff" stroke-width="1"/>
<line x1="1016.29" y1="163.70" x2="1016.29" y2="159.47" stroke="#1f77b4" stroke-width="1.3"/>
<line x1="1011.29" y1="163.70" x2="1021.29" y2="163.70" stroke="#1f77b4" stroke-width="1.3"/>
<line x1="1011.29" y1="159.47" x2="1021.29" y2="159.47" stroke="#1f77b4" stroke-width="1.3"/>
<circle cx="1016.29" cy="161.59" r="4" fill="#1f77b4" stroke="#ffffff" stroke-width="1"/>
<line x1="1066.45" y1="148.26" x2="1066.45" y2="147.63" stroke="#1f77b4" stroke-width="1.3"/>
<line x1="1061.45" y1="148.26" x2="1071.45" y2="148.26" stroke="#1f77b4" stroke-width="1.3"/>
<line x1="1061.45" y1="147.63" x2="1071.45" y2="147.63" stroke="#1f77b4" stroke-width="1.3"/>
<circle cx="1066.45" cy="147.94" r="4" fill="#1f77b4" stroke="#ffffff" stroke-width="1"/>
</svg>
