<svg xmlns="http://www.w3.org/2000/svg" width="1120" height="760" viewBox="0 0 1120 760">
<rect width="100%" height="100%" fill="#fbfbf8"/>
<text x="560.0" y="34" text-anchor="middle" font-family="sans-serif" font-size="24" fill="#222">Goodput vs. payload</text>
<rect x="96" y="106" width="988" height="562" fill="#ffffff" stroke="#c9c9c1"/>
<line x1="96" y1="106.00" x2="1084" y2="106.00" stroke="#a9aba3" stroke-width="1.35"/>
<text x="86" y="110.00" text-anchor="end" font-family="sans-serif" font-size="13" font-weight="400" fill="#292925">1.03K</text>
<line x1="96" y1="199.67" x2="1084" y2="199.67" stroke="#a9aba3" stroke-width="1.35"/>
<text x="86" y="203.67" text-anchor="end" font-family="sans-serif" font-size="13" font-weight="400" fill="#292925">861</text>
<line x1="96" y1="293.33" x2="1084" y2="293.33" stroke="#a9aba3" stroke-width="1.35"/>
<text x="86" y="297.33" text-anchor="end" font-family="sans-serif" font-size="13" font-weight="400" fill="#292925">688</text>
<line x1="96" y1="387.00" x2="1084" y2="387.00" stroke="#a9aba3" stroke-width="1.35"/>
<text x="86" y="391.00" text-anchor="end" font-family="sans-serif" font-size="13" font-weight="400" fill="#292925">516</text>
<line x1="96" y1="480.67" x2="1084" y2="480.67" stroke="#a9aba3" stroke-width="1.35"/>
<text x="86" y="484.67" text-anchor="end" font-family="sans-serif" font-size="13" font-weight="400" fill="#292925">344</text>
<line x1="96" y1="574.33" x2="1084" y2="574.33" stroke="#a9aba3" stroke-width="1.35"/>
<text x="86" y="578.33" text-anchor="end" font-family="sans-serif" font-size="13" font-weight="400" fill="#292925">172</text>
<line x1="96" y1="668.00" x2="1084" y2="668.00" stroke="#4f504b" stroke-width="2.2"/>
<text x="86" y="672.00" text-anchor="end" font-family="sans-serif" font-size="13" font-weight="600" fill="#292925">0</text>
<line x1="116.71" y1="106" x2="116.71" y2="668" stroke="#b4b6ae" stroke-width="1.25"/>
<text x="116.71" y="690" text-anchor="middle" font-family="sans-serif" font-size="11" font-weight="500" fill="#292925">256</text>
<line x1="175.87" y1="106" x2="175.87" y2="668" stroke="#b4b6ae" stroke-width="1.25"/>
<text x="175.87" y="690" text-anchor="middle" font-family="sans-serif" font-size="11" font-weight="500" fill="#292925">330</text>
<line x1="235.03" y1="106" x2="235.03" y2="668" stroke="#b4b6ae" stroke-width="1.25"/>
<text x="235.03" y="690" text-anchor="middle" font-family="sans-serif" font-size="11" font-weight="500" fill="#292925">404</text>
<line x1="294.19" y1="106" x2="294.19" y2="668" stroke="#b4b6ae" stroke-width="1.25"/>
<text x="294.19" y="690" text-anchor="middle" font-family="sans-serif" font-size="11" font-weight="500" fill="#292925">478</text>
<line x1="353.35" y1="106" x2="353.35" y2="668" stroke="#b4b6ae" stroke-width="1.25"/>
<text x="353.35" y="690" text-anchor="middle" font-family="sans-serif" font-size="11" font-weight="500" fill="#292925">552</text>
<line x1="412.51" y1="106" x2="412.51" y2="668" stroke="#b4b6ae" stroke-width="1.25"/>
<text x="412.51" y="690" text-anchor="middle" font-family="sans-serif" font-size="11" font-weight="500" fill="#292925">626</text>
<line x1="471.68" y1="106" x2="471.68" y2="668" stroke="#b4b6ae" stroke-width="1.25"/>
<text x="471.68" y="690" text-anchor="middle" font-family="sans-serif" font-size="11" font-weight="500" fill="#292925">700</text>
<line x1="530.84" y1="106" x2="530.84" y2="668" stroke="#b4b6ae" stroke-width="1.25"/>
<text x="530.84" y="690" text-anchor="middle" font-family="sans-serif" font-size="11" font-weight="500" fill="#292925">774</text>
<line x1="590.00" y1="106" x2="590.00" y2="668" stroke="#b4b6ae" stroke-width="1.25"/>
<text x="590.00" y="690" text-anchor="middle" font-family="sans-serif" font-size="11" font-weight="500" fill="#292925">848</text>
<line x1="649.16" y1="106" x2="649.16" y2="668" stroke="#b4b6ae" stroke-width="1.25"/>
<text x="649.16" y="690" text-anchor="middle" font-family="sans-serif" font-size="11" font-weight="500" fill="#292925">922</text>
<line x1="708.32" y1="106" x2="708.32" y2="668" stroke="#b4b6ae" stroke-width="1.25"/>
<text x="708.32" y="690" text-anchor="middle" font-family="sans-serif" font-size="11" font-weight="500" fill="#292925">996</text>
<line x1="767.49" y1="106" x2="767.49" y2="668" stroke="#b4b6ae" stroke-width="1.25"/>
<text x="767.49" y="690" text-anchor="middle" font-family="sans-serif" font-size="11" font-weight="500" fill="#292925">1070</text>
<line x1="826.65" y1="106" x2="826.65" y2="668" stroke="#b4b6ae" stroke-width="1.25"/>
<text x="826.65" y="690" text-anchor="middle" font-family="sans-serif" font-size="11" font-weight="500" fill="#292925">1144</text>
<line x1="885.81" y1="106" x2="885.81" y2="668" stroke="#b4b6ae" stroke-width="1.25"/>
<text x="885.81" y="690" text-anchor="middle" font-family="sans-serif" font-size="11" font-weight="500" fill="#292925">1218</text>
<line x1="944.97" y1="106" x2="944.97" y2="668" stroke="#b4b6ae" stroke-width="1.25"/>
<text x="944.97" y="690" text-anchor="middle" font-family="sans-serif" font-size="11" font-weight="500" fill="#292925">1292</text>
<line x1="1004.13" y1="106" x2="1004.13" y2="668" stroke="#b4b6ae" stroke-width="1.25"/>
<text x="1004.13" y="690" text-anchor="middle" font-family="sans-serif" font-size="11" font-weight="500" fill="#292925">1366</text>
<line x1="1063.29" y1="106" x2="1063.29" y2="668" stroke="#b4b6ae" stroke-width="1.25"/>
<text x="1063.29" y="690" text-anchor="middle" font-family="sans-serif" font-size="11" font-weight="500" fill="#292925">1440</text>
<text x="590.0" y="736" text-anchor="middle" font-family="sans-serif" font-size="17" font-weight="600" fill="#171715">Tamaño del payload (bytes)</text>
<text transform="translate(24 387.0) rotate(-90)" text-anchor="middle" font-family="sans-serif" font-size="17" font-weight="600" fill="#171715">Goodput payload (Mbps)</text>
<line x1="96.0" y1="64" x2="122.0" y2="64" stroke="#2ca02c" stroke-width="3"/>
<text x="130.0" y="68" font-family="sans-serif" font-size="13" fill="#222">Interfaz a FPGA</text>
<line x1="425.3333333333333" y1="64" x2="451.3333333333333" y2="64" stroke="#9467bd" stroke-width="3" stroke-dasharray="8 6"/>
<text x="459.3333333333333" y="68" font-family="sans-serif" font-size="13" fill="#222">FPGA a interfaz</text>
<line x1="754.6666666666666" y1="64" x2="780.6666666666666" y2="64" stroke="#111111" stroke-width="3" stroke-dasharray="8 6"/>
<text x="788.6666666666666" y="68" font-family="sans-serif" font-size="13" fill="#222">Límite teórico</text>
<polyline points="116.71,235.36 175.87,214.51 235.03,200.23 294.19,189.84 353.35,181.93 412.51,175.72 471.68,170.70 530.84,166.57 590.00,163.11 649.16,160.17 708.32,157.64 767.49,155.43 826.65,153.50 885.81,151.79 944.97,150.26 1004.13,148.90 1063.29,147.66" fill="none" stroke="#2ca02c" stroke-width="2.5"/>
<line x1="116.71" y1="235.36" x2="116.71" y2="235.36" stroke="#2ca02c" stroke-width="1.3"/>
<line x1="111.71" y1="235.36" x2="121.71" y2="235.36" stroke="#2ca02c" stroke-width="1.3"/>
<line x1="111.71" y1="235.36" x2="121.71" y2="235.36" stroke="#2ca02c" stroke-width="1.3"/>
<circle cx="116.71" cy="235.36" r="4" fill="#2ca02c" stroke="#ffffff" stroke-width="1"/>
<line x1="175.87" y1="214.51" x2="175.87" y2="214.51" stroke="#2ca02c" stroke-width="1.3"/>
<line x1="170.87" y1="214.51" x2="180.87" y2="214.51" stroke="#2ca02c" stroke-width="1.3"/>
<line x1="170.87" y1="214.51" x2="180.87" y2="214.51" stroke="#2ca02c" stroke-width="1.3"/>
<circle cx="175.87" cy="214.51" r="4" fill="#2ca02c" stroke="#ffffff" stroke-width="1"/>
<line x1="235.03" y1="200.23" x2="235.03" y2="200.23" stroke="#2ca02c" stroke-width="1.3"/>
<line x1="230.03" y1="200.23" x2="240.03" y2="200.23" stroke="#2ca02c" stroke-width="1.3"/>
<line x1="230.03" y1="200.23" x2="240.03" y2="200.23" stroke="#2ca02c" stroke-width="1.3"/>
<circle cx="235.03" cy="200.23" r="4" fill="#2ca02c" stroke="#ffffff" stroke-width="1"/>
<line x1="294.19" y1="189.84" x2="294.19" y2="189.84" stroke="#2ca02c" stroke-width="1.3"/>
<line x1="289.19" y1="189.84" x2="299.19" y2="189.84" stroke="#2ca02c" stroke-width="1.3"/>
<line x1="289.19" y1="189.84" x2="299.19" y2="189.84" stroke="#2ca02c" stroke-width="1.3"/>
<circle cx="294.19" cy="189.84" r="4" fill="#2ca02c" stroke="#ffffff" stroke-width="1"/>
<line x1="353.35" y1="181.93" x2="353.35" y2="181.93" stroke="#2ca02c" stroke-width="1.3"/>
<line x1="348.35" y1="181.93" x2="358.35" y2="181.93" stroke="#2ca02c" stroke-width="1.3"/>
<line x1="348.35" y1="181.93" x2="358.35" y2="181.93" stroke="#2ca02c" stroke-width="1.3"/>
<circle cx="353.35" cy="181.93" r="4" fill="#2ca02c" stroke="#ffffff" stroke-width="1"/>
<line x1="412.51" y1="175.72" x2="412.51" y2="175.72" stroke="#2ca02c" stroke-width="1.3"/>
<line x1="407.51" y1="175.72" x2="417.51" y2="175.72" stroke="#2ca02c" stroke-width="1.3"/>
<line x1="407.51" y1="175.72" x2="417.51" y2="175.72" stroke="#2ca02c" stroke-width="1.3"/>
<circle cx="412.51" cy="175.72" r="4" fill="#2ca02c" stroke="#ffffff" stroke-width="1"/>
<line x1="471.68" y1="170.70" x2="471.68" y2="170.70" stroke="#2ca02c" stroke-width="1.3"/>
<line x1="466.68" y1="170.70" x2="476.68" y2="170.70" stroke="#2ca02c" stroke-width="1.3"/>
<line x1="466.68" y1="170.70" x2="476.68" y2="170.70" stroke="#2ca02c" stroke-width="1.3"/>
<circle cx="471.68" cy="170.70" r="4" fill="#2ca02c" stroke="#ffffff" stroke-width="1"/>
<line x1="530.84" y1="166.57" x2="530.84" y2="166.57" stroke="#2ca02c" stroke-width="1.3"/>
<line x1="525.84" y1="166.57" x2="535.84" y2="166.57" stroke="#2ca02c" stroke-width="1.3"/>
<line x1="525.84" y1="166.57" x2="535.84" y2="166.57" stroke="#2ca02c" stroke-width="1.3"/>
<circle cx="530.84" cy="166.57" r="4" fill="#2ca02c" stroke="#ffffff" stroke-width="1"/>
<line x1="590.00" y1="163.11" x2="590.00" y2="163.11" stroke="#2ca02c" stroke-width="1.3"/>
<line x1="585.00" y1="163.11" x2="595.00" y2="163.11" stroke="#2ca02c" stroke-width="1.3"/>
<line x1="585.00" y1="163.11" x2="595.00" y2="163.11" stroke="#2ca02c" stroke-width="1.3"/>
<circle cx="590.00" cy="163.11" r="4" fill="#2ca02c" stroke="#ffffff" stroke-width="1"/>
<line x1="649.16" y1="160.17" x2="649.16" y2="160.17" stroke="#2ca02c" stroke-width="1.3"/>
<line x1="644.16" y1="160.17" x2="654.16" y2="160.17" stroke="#2ca02c" stroke-width="1.3"/>
<line x1="644.16" y1="160.17" x2="654.16" y2="160.17" stroke="#2ca02c" stroke-width="1.3"/>
<circle cx="649.16" cy="160.17" r="4" fill="#2ca02c" stroke="#ffffff" stroke-width="1"/>
<line x1="708.32" y1="157.64" x2="708.32" y2="157.64" stroke="#2ca02c" stroke-width="1.3"/>
<line x1="703.32" y1="157.64" x2="713.32" y2="157.64" stroke="#2ca02c" stroke-width="1.3"/>
<line x1="703.32" y1="157.64" x2="713.32" y2="157.64" stroke="#2ca02c" stroke-width="1.3"/>
<circle cx="708.32" cy="157.64" r="4" fill="#2ca02c" stroke="#ffffff" stroke-width="1"/>
<line x1="767.49" y1="155.43" x2="767.49" y2="155.43" stroke="#2ca02c" stroke-width="1.3"/>
<line x1="762.49" y1="155.43" x2="772.49" y2="155.43" stroke="#2ca02c" stroke-width="1.3"/>
<line x1="762.49" y1="155.43" x2="772.49" y2="155.43" stroke="#2ca02c" stroke-width="1.3"/>
<circle cx="767.49" cy="155.43" r="4" fill="#2ca02c" stroke="#ffffff" stroke-width="1"/>
<line x1="826.65" y1="153.50" x2="826.65" y2="153.50" stroke="#2ca02c" stroke-width="1.3"/>
<line x1="821.65" y1="153.50" x2="831.65" y2="153.50" stroke="#2ca02c" stroke-width="1.3"/>
<line x1="821.65" y1="153.50" x2="831.65" y2="153.50" stroke="#2ca02c" stroke-width="1.3"/>
<circle cx="826.65" cy="153.50" r="4" fill="#2ca02c" stroke="#ffffff" stroke-width="1"/>
<line x1="885.81" y1="151.79" x2="885.81" y2="151.79" stroke="#2ca02c" stroke-width="1.3"/>
<line x1="880.81" y1="151.79" x2="890.81" y2="151.79" stroke="#2ca02c" stroke-width="1.3"/>
<line x1="880.81" y1="151.79" x2="890.81" y2="151.79" stroke="#2ca02c" stroke-width="1.3"/>
<circle cx="885.81" cy="151.79" r="4" fill="#2ca02c" stroke="#ffffff" stroke-width="1"/>
<line x1="944.97" y1="150.26" x2="944.97" y2="150.26" stroke="#2ca02c" stroke-width="1.3"/>
<line x1="939.97" y1="150.26" x2="949.97" y2="150.26" stroke="#2ca02c" stroke-width="1.3"/>
<line x1="939.97" y1="150.26" x2="949.97" y2="150.26" stroke="#2ca02c" stroke-width="1.3"/>
<circle cx="944.97" cy="150.26" r="4" fill="#2ca02c" stroke="#ffffff" stroke-width="1"/>
<line x1="1004.13" y1="148.90" x2="1004.13" y2="148.90" stroke="#2ca02c" stroke-width="1.3"/>
<line x1="999.13" y1="148.90" x2="1009.13" y2="148.90" stroke="#2ca02c" stroke-width="1.3"/>
<line x1="999.13" y1="148.90" x2="1009.13" y2="148.90" stroke="#2ca02c" stroke-width="1.3"/>
<circle cx="1004.13" cy="148.90" r="4" fill="#2ca02c" stroke="#ffffff" stroke-width="1"/>
<line x1="1063.29" y1="147.66" x2="1063.29" y2="147.66" stroke="#2ca02c" stroke-width="1.3"/>
<line x1="1058.29" y1="147.66" x2="1068.29" y2="147.66" stroke="#2ca02c" stroke-width="1.3"/>
<line x1="1058.29" y1="147.66" x2="1068.29" y2="147.66" stroke="#2ca02c" stroke-width="1.3"/>
<circle cx="1063.29" cy="147.66" r="4" fill="#2ca02c" stroke="#ffffff" stroke-width="1"/>
<polyline points="116.71,235.26 175.87,214.48 235.03,200.18 294.19,189.80 353.35,181.90 412.51,175.66 471.68,170.66 530.84,166.54 590.00,163.07 649.16,160.13 708.32,157.62 767.49,155.40 826.65,153.47 885.81,151.77 944.97,150.23 1004.13,148.88 1063.29,147.64" fill="none" stroke="#9467bd" stroke-width="2.5" stroke-dasharray="8 6"/>
<line x1="116.71" y1="235.32" x2="116.71" y2="235.20" stroke="#9467bd" stroke-width="1.3"/>
<line x1="111.71" y1="235.32" x2="121.71" y2="235.32" stroke="#9467bd" stroke-width="1.3"/>
<line x1="111.71" y1="235.20" x2="121.71" y2="235.20" stroke="#9467bd" stroke-width="1.3"/>
<circle cx="116.71" cy="235.26" r="4" fill="#9467bd" stroke="#ffffff" stroke-width="1"/>
<line x1="175.87" y1="214.50" x2="175.87" y2="214.46" stroke="#9467bd" stroke-width="1.3"/>
<line x1="170.87" y1="214.50" x2="180.87" y2="214.50" stroke="#9467bd" stroke-width="1.3"/>
<line x1="170.87" y1="214.46" x2="180.87" y2="214.46" stroke="#9467bd" stroke-width="1.3"/>
<circle cx="175.87" cy="214.48" r="4" fill="#9467bd" stroke="#ffffff" stroke-width="1"/>
<line x1="235.03" y1="200.23" x2="235.03" y2="200.12" stroke="#9467bd" stroke-width="1.3"/>
<line x1="230.03" y1="200.23" x2="240.03" y2="200.23" stroke="#9467bd" stroke-width="1.3"/>
<line x1="230.03" y1="200.12" x2="240.03" y2="200.12" stroke="#9467bd" stroke-width="1.3"/>
<circle cx="235.03" cy="200.18" r="4" fill="#9467bd" stroke="#ffffff" stroke-width="1"/>
<line x1="294.19" y1="189.83" x2="294.19" y2="189.77" stroke="#9467bd" stroke-width="1.3"/>
<line x1="289.19" y1="189.83" x2="299.19" y2="189.83" stroke="#9467bd" stroke-width="1.3"/>
<line x1="289.19" y1="189.77" x2="299.19" y2="189.77" stroke="#9467bd" stroke-width="1.3"/>
<circle cx="294.19" cy="189.80" r="4" fill="#9467bd" stroke="#ffffff" stroke-width="1"/>
<line x1="353.35" y1="181.92" x2="353.35" y2="181.87" stroke="#9467bd" stroke-width="1.3"/>
<line x1="348.35" y1="181.92" x2="358.35" y2="181.92" stroke="#9467bd" stroke-width="1.3"/>
<line x1="348.35" y1="181.87" x2="358.35" y2="181.87" stroke="#9467bd" stroke-width="1.3"/>
<circle cx="353.35" cy="181.90" r="4" fill="#9467bd" stroke="#ffffff" stroke-width="1"/>
<line x1="412.51" y1="175.69" x2="412.51" y2="175.63" stroke="#9467bd" stroke-width="1.3"/>
<line x1="407.51" y1="175.69" x2="417.51" y2="175.69" stroke="#9467bd" stroke-width="1.3"/>
<line x1="407.51" y1="175.63" x2="417.51" y2="175.63" stroke="#9467bd" stroke-width="1.3"/>
<circle cx="412.51" cy="175.66" r="4" fill="#9467bd" stroke="#ffffff" stroke-width="1"/>
<line x1="471.68" y1="170.69" x2="471.68" y2="170.64" stroke="#9467bd" stroke-width="1.3"/>
<line x1="466.68" y1="170.69" x2="476.68" y2="170.69" stroke="#9467bd" stroke-width="1.3"/>
<line x1="466.68" y1="170.64" x2="476.68" y2="170.64" stroke="#9467bd" stroke-width="1.3"/>
<circle cx="471.68" cy="170.66" r="4" fill="#9467bd" stroke="#ffffff" stroke-width="1"/>
<line x1="530.84" y1="166.55" x2="530.84" y2="166.52" stroke="#9467bd" stroke-width="1.3"/>
<line x1="525.84" y1="166.55" x2="535.84" y2="166.55" stroke="#9467bd" stroke-width="1.3"/>
<line x1="525.84" y1="166.52" x2="535.84" y2="166.52" stroke="#9467bd" stroke-width="1.3"/>
<circle cx="530.84" cy="166.54" r="4" fill="#9467bd" stroke="#ffffff" stroke-width="1"/>
<line x1="590.00" y1="163.09" x2="590.00" y2="163.05" stroke="#9467bd" stroke-width="1.3"/>
<line x1="585.00" y1="163.09" x2="595.00" y2="163.09" stroke="#9467bd" stroke-width="1.3"/>
<line x1="585.00" y1="163.05" x2="595.00" y2="163.05" stroke="#9467bd" stroke-width="1.3"/>
<circle cx="590.00" cy="163.07" r="4" fill="#9467bd" stroke="#ffffff" stroke-width="1"/>
<line x1="649.16" y1="160.14" x2="649.16" y2="160.11" stroke="#9467bd" stroke-width="1.3"/>
<line x1="644.16" y1="160.14" x2="654.16" y2="160.14" stroke="#9467bd" stroke-width="1.3"/>
<line x1="644.16" y1="160.11" x2="654.16" y2="160.11" stroke="#9467bd" stroke-width="1.3"/>
<circle cx="649.16" cy="160.13" r="4" fill="#9467bd" stroke="#ffffff" stroke-width="1"/>
<line x1="708.32" y1="157.63" x2="708.32" y2="157.60" stroke="#9467bd" stroke-width="1.3"/>
<line x1="703.32" y1="157.63" x2="713.32" y2="157.63" stroke="#9467bd" stroke-width="1.3"/>
<line x1="703.32" y1="157.60" x2="713.32" y2="157.60" stroke="#9467bd" stroke-width="1.3"/>
<circle cx="708.32" cy="157.62" r="4" fill="#9467bd" stroke="#ffffff" stroke-width="1"/>
<line x1="767.49" y1="155.42" x2="767.49" y2="155.38" stroke="#9467bd" stroke-width="1.3"/>
<line x1="762.49" y1="155.42" x2="772.49" y2="155.42" stroke="#9467bd" stroke-width="1.3"/>
<line x1="762.49" y1="155.38" x2="772.49" y2="155.38" stroke="#9467bd" stroke-width="1.3"/>
<circle cx="767.49" cy="155.40" r="4" fill="#9467bd" stroke="#ffffff" stroke-width="1"/>
<line x1="826.65" y1="153.49" x2="826.65" y2="153.46" stroke="#9467bd" stroke-width="1.3"/>
<line x1="821.65" y1="153.49" x2="831.65" y2="153.49" stroke="#9467bd" stroke-width="1.3"/>
<line x1="821.65" y1="153.46" x2="831.65" y2="153.46" stroke="#9467bd" stroke-width="1.3"/>
<circle cx="826.65" cy="153.47" r="4" fill="#9467bd" stroke="#ffffff" stroke-width="1"/>
<line x1="885.81" y1="151.78" x2="885.81" y2="151.76" stroke="#9467bd" stroke-width="1.3"/>
<line x1="880.81" y1="151.78" x2="890.81" y2="151.78" stroke="#9467bd" stroke-width="1.3"/>
<line x1="880.81" y1="151.76" x2="890.81" y2="151.76" stroke="#9467bd" stroke-width="1.3"/>
<circle cx="885.81" cy="151.77" r="4" fill="#9467bd" stroke="#ffffff" stroke-width="1"/>
<line x1="944.97" y1="150.25" x2="944.97" y2="150.22" stroke="#9467bd" stroke-width="1.3"/>
<line x1="939.97" y1="150.25" x2="949.97" y2="150.25" stroke="#9467bd" stroke-width="1.3"/>
<line x1="939.97" y1="150.22" x2="949.97" y2="150.22" stroke="#9467bd" stroke-width="1.3"/>
<circle cx="944.97" cy="150.23" r="4" fill="#9467bd" stroke="#ffffff" stroke-width="1"/>
<line x1="1004.13" y1="148.89" x2="1004.13" y2="148.88" stroke="#9467bd" stroke-width="1.3"/>
<line x1="999.13" y1="148.89" x2="1009.13" y2="148.89" stroke="#9467bd" stroke-width="1.3"/>
<line x1="999.13" y1="148.88" x2="1009.13" y2="148.88" stroke="#9467bd" stroke-width="1.3"/>
<circle cx="1004.13" cy="148.88" r="4" fill="#9467bd" stroke="#ffffff" stroke-width="1"/>
<line x1="1063.29" y1="147.65" x2="1063.29" y2="147.63" stroke="#9467bd" stroke-width="1.3"/>
<line x1="1058.29" y1="147.65" x2="1068.29" y2="147.65" stroke="#9467bd" stroke-width="1.3"/>
<line x1="1058.29" y1="147.63" x2="1068.29" y2="147.63" stroke="#9467bd" stroke-width="1.3"/>
<circle cx="1063.29" cy="147.64" r="4" fill="#9467bd" stroke="#ffffff" stroke-width="1"/>
<polyline points="116.71,235.36 175.87,214.51 235.03,200.23 294.19,189.84 353.35,181.93 412.51,175.72 471.68,170.70 530.84,166.57 590.00,163.11 649.16,160.17 708.32,157.64 767.49,155.43 826.65,153.50 885.81,151.79 944.97,150.26 1004.13,148.90 1063.29,147.66" fill="none" stroke="#111111" stroke-width="2.5" stroke-dasharray="8 6"/>
<circle cx="116.71" cy="235.36" r="4" fill="#111111" stroke="#ffffff" stroke-width="1"/>
<circle cx="175.87" cy="214.51" r="4" fill="#111111" stroke="#ffffff" stroke-width="1"/>
<circle cx="235.03" cy="200.23" r="4" fill="#111111" stroke="#ffffff" stroke-width="1"/>
<circle cx="294.19" cy="189.84" r="4" fill="#111111" stroke="#ffffff" stroke-width="1"/>
<circle cx="353.35" cy="181.93" r="4" fill="#111111" stroke="#ffffff" stroke-width="1"/>
<circle cx="412.51" cy="175.72" r="4" fill="#111111" stroke="#ffffff" stroke-width="1"/>
<circle cx="471.68" cy="170.70" r="4" fill="#111111" stroke="#ffffff" stroke-width="1"/>
<circle cx="530.84" cy="166.57" r="4" fill="#111111" stroke="#ffffff" stroke-width="1"/>
<circle cx="590.00" cy="163.11" r="4" fill="#111111" stroke="#ffffff" stroke-width="1"/>
<circle cx="649.16" cy="160.17" r="4" fill="#111111" stroke="#ffffff" stroke-width="1"/>
<circle cx="708.32" cy="157.64" r="4" fill="#111111" stroke="#ffffff" stroke-width="1"/>
<circle cx="767.49" cy="155.43" r="4" fill="#111111" stroke="#ffffff" stroke-width="1"/>
<circle cx="826.65" cy="153.50" r="4" fill="#111111" stroke="#ffffff" stroke-width="1"/>
<circle cx="885.81" cy="151.79" r="4" fill="#111111" stroke="#ffffff" stroke-width="1"/>
<circle cx="944.97" cy="150.26" r="4" fill="#111111" stroke="#ffffff" stroke-width="1"/>
<circle cx="1004.13" cy="148.90" r="4" fill="#111111" stroke="#ffffff" stroke-width="1"/>
<circle cx="1063.29" cy="147.66" r="4" fill="#111111" stroke="#ffffff" stroke-width="1"/>
</svg>
