<svg xmlns="http://www.w3.org/2000/svg" width="1120" height="760" viewBox="0 0 1120 760">
<rect width="100%" height="100%" fill="#fbfbf8"/>
<text x="560.0" y="34" text-anchor="middle" font-family="sans-serif" font-size="24" fill="#222">RTT entre interfaz y FPGA vs. payload</text>
<rect x="96" y="106" width="988" height="562" fill="#ffffff" stroke="#c9c9c1"/>
<line x1="96" y1="106.00" x2="1084" y2="106.00" stroke="#a9aba3" stroke-width="1.35"/>
<text x="86" y="110.00" text-anchor="end" font-family="sans-serif" font-size="13" font-weight="400" fill="#292925">0.0932</text>
<line x1="96" y1="199.67" x2="1084" y2="199.67" stroke="#a9aba3" stroke-width="1.35"/>
<text x="86" y="203.67" text-anchor="end" font-family="sans-serif" font-size="13" font-weight="400" fill="#292925">0.0777</text>
<line x1="96" y1="293.33" x2="1084" y2="293.33" stroke="#a9aba3" stroke-width="1.35"/>
<text x="86" y="297.33" text-anchor="end" font-family="sans-serif" font-size="13" font-weight="400" fill="#292925">0.0621</text>
<line x1="96" y1="387.00" x2="1084" y2="387.00" stroke="#a9aba3" stroke-width="1.35"/>
<text x="86" y="391.00" text-anchor="end" font-family="sans-serif" font-size="13" font-weight="400" fill="#292925">0.0466</text>
<line x1="96" y1="480.67" x2="1084" y2="480.67" stroke="#a9aba3" stroke-width="1.35"/>
<text x="86" y="484.67" text-anchor="end" font-family="sans-serif" font-size="13" font-weight="400" fill="#292925">0.0311</text>
<line x1="96" y1="574.33" x2="1084" y2="574.33" stroke="#a9aba3" stroke-width="1.35"/>
<text x="86" y="578.33" text-anchor="end" font-family="sans-serif" font-size="13" font-weight="400" fill="#292925">0.0155</text>
<line x1="96" y1="668.00" x2="1084" y2="668.00" stroke="#4f504b" stroke-width="2.2"/>
<text x="86" y="672.00" text-anchor="end" font-family="sans-serif" font-size="13" font-weight="600" fill="#292925">0</text>
<line x1="116.71" y1="106" x2="116.71" y2="668" stroke="#b4b6ae" stroke-width="1.25"/>
<text x="116.71" y="690" text-anchor="middle" font-family="sans-serif" font-size="11" font-weight="500" fill="#292925">256</text>
<line x1="175.87" y1="106" x2="175.87" y2="668" stroke="#b4b6ae" stroke-width="1.25"/>
<text x="175.87" y="690" text-anchor="middle" font-family="sans-serif" font-size="11" font-weight="500" fill="#292925">330</text>
<line x1="235.03" y1="106" x2="235.03" y2="668" stroke="#b4b6ae" stroke-width="1.25"/>
<text x="235.03" y="690" text-anchor="middle" font-family="sans-serif" font-size="11" font-weight="500" fill="#292925">404</text>
<line x1="294.19" y1="106" x2="294.19" y2="668" stroke="#b4b6ae" stroke-width="1.25"/>
<text x="294.19" y="690" text-anchor="middle" font-family="sans-serif" font-size="11" font-weight="500" fill="#292925">478</text>
<line x1="353.35" y1="106" x2="353.35" y2="668" stroke="#b4b6ae" stroke-width="1.25"/>
<text x="353.35" y="690" text-anchor="middle" font-family="sans-serif" font-size="11" font-weight="500" fill="#292925">552</text>
<line x1="412.51" y1="106" x2="412.51" y2="668" stroke="#b4b6ae" stroke-width="1.25"/>
<text x="412.51" y="690" text-anchor="middle" font-family="sans-serif" font-size="11" font-weight="500" fill="#292925">626</text>
<line x1="471.68" y1="106" x2="471.68" y2="668" stroke="#b4b6ae" stroke-width="1.25"/>
<text x="471.68" y="690" text-anchor="middle" font-family="sans-serif" font-size="11" font-weight="500" fill="#292925">700</text>
<line x1="530.84" y1="106" x2="530.84" y2="668" stroke="#b4b6ae" stroke-width="1.25"/>
<text x="530.84" y="690" text-anchor="middle" font-family="sans-serif" font-size="11" font-weight="500" fill="#292925">774</text>
<line x1="590.00" y1="106" x2="590.00" y2="668" stroke="#b4b6ae" stroke-width="1.25"/>
<text x="590.00" y="690" text-anchor="middle" font-family="sans-serif" font-size="11" font-weight="500" fill="#292925">848</text>
<line x1="649.16" y1="106" x2="649.16" y2="668" stroke="#b4b6ae" stroke-width="1.25"/>
<text x="649.16" y="690" text-anchor="middle" font-family="sans-serif" font-size="11" font-weight="500" fill="#292925">922</text>
<line x1="708.32" y1="106" x2="708.32" y2="668" stroke="#b4b6ae" stroke-width="1.25"/>
<text x="708.32" y="690" text-anchor="middle" font-family="sans-serif" font-size="11" font-weight="500" fill="#292925">996</text>
<line x1="767.49" y1="106" x2="767.49" y2="668" stroke="#b4b6ae" stroke-width="1.25"/>
<text x="767.49" y="690" text-anchor="middle" font-family="sans-serif" font-size="11" font-weight="500" fill="#292925">1070</text>
<line x1="826.65" y1="106" x2="826.65" y2="668" stroke="#b4b6ae" stroke-width="1.25"/>
<text x="826.65" y="690" text-anchor="middle" font-family="sans-serif" font-size="11" font-weight="500" fill="#292925">1144</text>
<line x1="885.81" y1="106" x2="885.81" y2="668" stroke="#b4b6ae" stroke-width="1.25"/>
<text x="885.81" y="690" text-anchor="middle" font-family="sans-serif" font-size="11" font-weight="500" fill="#292925">1218</text>
<line x1="944.97" y1="106" x2="944.97" y2="668" stroke="#b4b6ae" stroke-width="1.25"/>
<text x="944.97" y="690" text-anchor="middle" font-family="sans-serif" font-size="11" font-weight="500" fill="#292925">1292</text>
<line x1="1004.13" y1="106" x2="1004.13" y2="668" stroke="#b4b6ae" stroke-width="1.25"/>
<text x="1004.13" y="690" text-anchor="middle" font-family="sans-serif" font-size="11" font-weight="500" fill="#292925">1366</text>
<line x1="1063.29" y1="106" x2="1063.29" y2="668" stroke="#b4b6ae" stroke-width="1.25"/>
<text x="1063.29" y="690" text-anchor="middle" font-family="sans-serif" font-size="11" font-weight="500" fill="#292925">1440</text>
<text x="590.0" y="736" text-anchor="middle" font-family="sans-serif" font-size="17" font-weight="600" fill="#171715">Tamaño del payload (bytes)</text>
<text transform="translate(24 387.0) rotate(-90)" text-anchor="middle" font-family="sans-serif" font-size="17" font-weight="600" fill="#171715">RTT promedio entre interfaz y FPGA (ms)</text>
<line x1="96.0" y1="64" x2="122.0" y2="64" stroke="#1f77b4" stroke-width="3"/>
<text x="130.0" y="68" font-family="sans-serif" font-size="13" fill="#222">RTT interfaz-FPGA</text>
<polyline points="116.71,457.43 175.87,435.58 235.03,418.67 294.19,399.89 353.35,379.40 412.51,359.55 471.68,339.67 530.84,319.38 590.00,301.59 649.16,282.94 708.32,263.84 767.49,244.84 826.65,223.76 885.81,203.32 944.97,186.08 1004.13,167.36 1063.29,148.15" fill="none" stroke="#1f77b4" stroke-width="2.5"/>
<line x1="116.71" y1="458.30" x2="116.71" y2="456.56" stroke="#1f77b4" stroke-width="1.3"/>
<line x1="111.71" y1="458.30" x2="121.71" y2="458.30" stroke="#1f77b4" stroke-width="1.3"/>
<line x1="111.71" y1="456.56" x2="121.71" y2="456.56" stroke="#1f77b4" stroke-width="1.3"/>
<circle cx="116.71" cy="457.43" r="4" fill="#1f77b4" stroke="#ffffff" stroke-width="1"/>
<line x1="175.87" y1="435.79" x2="175.87" y2="435.38" stroke="#1f77b4" stroke-width="1.3"/>
<line x1="170.87" y1="435.79" x2="180.87" y2="435.79" stroke="#1f77b4" stroke-width="1.3"/>
<line x1="170.87" y1="435.38" x2="180.87" y2="435.38" stroke="#1f77b4" stroke-width="1.3"/>
<circle cx="175.87" cy="435.58" r="4" fill="#1f77b4" stroke="#ffffff" stroke-width="1"/>
<line x1="235.03" y1="419.32" x2="235.03" y2="418.02" stroke="#1f77b4" stroke-width="1.3"/>
<line x1="230.03" y1="419.32" x2="240.03" y2="419.32" stroke="#1f77b4" stroke-width="1.3"/>
<line x1="230.03" y1="418.02" x2="240.03" y2="418.02" stroke="#1f77b4" stroke-width="1.3"/>
<circle cx="235.03" cy="418.67" r="4" fill="#1f77b4" stroke="#ffffff" stroke-width="1"/>
<line x1="294.19" y1="400.41" x2="294.19" y2="399.36" stroke="#1f77b4" stroke-width="1.3"/>
<line x1="289.19" y1="400.41" x2="299.19" y2="400.41" stroke="#1f77b4" stroke-width="1.3"/>
<line x1="289.19" y1="399.36" x2="299.19" y2="399.36" stroke="#1f77b4" stroke-width="1.3"/>
<circle cx="294.19" cy="399.89" r="4" fill="#1f77b4" stroke="#ffffff" stroke-width="1"/>
<line x1="353.35" y1="379.63" x2="353.35" y2="379.17" stroke="#1f77b4" stroke-width="1.3"/>
<line x1="348.35" y1="379.63" x2="358.35" y2="379.63" stroke="#1f77b4" stroke-width="1.3"/>
<line x1="348.35" y1="379.17" x2="358.35" y2="379.17" stroke="#1f77b4" stroke-width="1.3"/>
<circle cx="353.35" cy="379.40" r="4" fill="#1f77b4" stroke="#ffffff" stroke-width="1"/>
<line x1="412.51" y1="359.87" x2="412.51" y2="359.23" stroke="#1f77b4" stroke-width="1.3"/>
<line x1="407.51" y1="359.87" x2="417.51" y2="359.87" stroke="#1f77b4" stroke-width="1.3"/>
<line x1="407.51" y1="359.23" x2="417.51" y2="359.23" stroke="#1f77b4" stroke-width="1.3"/>
<circle cx="412.51" cy="359.55" r="4" fill="#1f77b4" stroke="#ffffff" stroke-width="1"/>
<line x1="471.68" y1="340.26" x2="471.68" y2="339.09" stroke="#1f77b4" stroke-width="1.3"/>
<line x1="466.68" y1="340.26" x2="476.68" y2="340.26" stroke="#1f77b4" stroke-width="1.3"/>
<line x1="466.68" y1="339.09" x2="476.68" y2="339.09" stroke="#1f77b4" stroke-width="1.3"/>
<circle cx="471.68" cy="339.67" r="4" fill="#1f77b4" stroke="#ffffff" stroke-width="1"/>
<line x1="530.84" y1="319.82" x2="530.84" y2="318.93" stroke="#1f77b4" stroke-width="1.3"/>
<line x1="525.84" y1="319.82" x2="535.84" y2="319.82" stroke="#1f77b4" stroke-width="1.3"/>
<line x1="525.84" y1="318.93" x2="535.84" y2="318.93" stroke="#1f77b4" stroke-width="1.3"/>
<circle cx="530.84" cy="319.38" r="4" fill="#1f77b4" stroke="#ffffff" stroke-width="1"/>
<line x1="590.00" y1="302.33" x2="590.00" y2="300.86" stroke="#1f77b4" stroke-width="1.3"/>
<line x1="585.00" y1="302.33" x2="595.00" y2="302.33" stroke="#1f77b4" stroke-width="1.3"/>
<line x1="585.00" y1="300.86" x2="595.00" y2="300.86" stroke="#1f77b4" stroke-width="1.3"/>
<circle cx="590.00" cy="301.59" r="4" fill="#1f77b4" stroke="#ffffff" stroke-width="1"/>
<line x1="649.16" y1="283.36" x2="649.16" y2="282.51" stroke="#1f77b4" stroke-width="1.3"/>
<line x1="644.16" y1="283.36" x2="654.16" y2="283.36" stroke="#1f77b4" stroke-width="1.3"/>
<line x1="644.16" y1="282.51" x2="654.16" y2="282.51" stroke="#1f77b4" stroke-width="1.3"/>
<circle cx="649.16" cy="282.94" r="4" fill="#1f77b4" stroke="#ffffff" stroke-width="1"/>
<line x1="708.32" y1="264.12" x2="708.32" y2="263.57" stroke="#1f77b4" stroke-width="1.3"/>
<line x1="703.32" y1="264.12" x2="713.32" y2="264.12" stroke="#1f77b4" stroke-width="1.3"/>
<line x1="703.32" y1="263.57" x2="713.32" y2="263.57" stroke="#1f77b4" stroke-width="1.3"/>
<circle cx="708.32" cy="263.84" r="4" fill="#1f77b4" stroke="#ffffff" stroke-width="1"/>
<line x1="767.49" y1="245.09" x2="767.49" y2="244.60" stroke="#1f77b4" stroke-width="1.3"/>
<line x1="762.49" y1="245.09" x2="772.49" y2="245.09" stroke="#1f77b4" stroke-width="1.3"/>
<line x1="762.49" y1="244.60" x2="772.49" y2="244.60" stroke="#1f77b4" stroke-width="1.3"/>
<circle cx="767.49" cy="244.84" r="4" fill="#1f77b4" stroke="#ffffff" stroke-width="1"/>
<line x1="826.65" y1="224.08" x2="826.65" y2="223.43" stroke="#1f77b4" stroke-width="1.3"/>
<line x1="821.65" y1="224.08" x2="831.65" y2="224.08" stroke="#1f77b4" stroke-width="1.3"/>
<line x1="821.65" y1="223.43" x2="831.65" y2="223.43" stroke="#1f77b4" stroke-width="1.3"/>
<circle cx="826.65" cy="223.76" r="4" fill="#1f77b4" stroke="#ffffff" stroke-width="1"/>
<line x1="885.81" y1="203.86" x2="885.81" y2="202.78" stroke="#1f77b4" stroke-width="1.3"/>
<line x1="880.81" y1="203.86" x2="890.81" y2="203.86" stroke="#1f77b4" stroke-width="1.3"/>
<line x1="880.81" y1="202.78" x2="890.81" y2="202.78" stroke="#1f77b4" stroke-width="1.3"/>
<circle cx="885.81" cy="203.32" r="4" fill="#1f77b4" stroke="#ffffff" stroke-width="1"/>
<line x1="944.97" y1="186.82" x2="944.97" y2="185.35" stroke="#1f77b4" stroke-width="1.3"/>
<line x1="939.97" y1="186.82" x2="949.97" y2="186.82" stroke="#1f77b4" stroke-width="1.3"/>
<line x1="939.97" y1="185.35" x2="949.97" y2="185.35" stroke="#1f77b4" stroke-width="1.3"/>
<circle cx="944.97" cy="186.08" r="4" fill="#1f77b4" stroke="#ffffff" stroke-width="1"/>
<line x1="1004.13" y1="167.88" x2="1004.13" y2="166.84" stroke="#1f77b4" stroke-width="1.3"/>
<line x1="999.13" y1="167.88" x2="1009.13" y2="167.88" stroke="#1f77b4" stroke-width="1.3"/>
<line x1="999.13" y1="166.84" x2="1009.13" y2="166.84" stroke="#1f77b4" stroke-width="1.3"/>
<circle cx="1004.13" cy="167.36" r="4" fill="#1f77b4" stroke="#ffffff" stroke-width="1"/>
<line x1="1063.29" y1="148.67" x2="1063.29" y2="147.63" stroke="#1f77b4" stroke-width="1.3"/>
<line x1="1058.29" y1="148.67" x2="1068.29" y2="148.67" stroke="#1f77b4" stroke-width="1.3"/>
<line x1="1058.29" y1="147.63" x2="1068.29" y2="147.63" stroke="#1f77b4" stroke-width="1.3"/>
<circle cx="1063.29" cy="148.15" r="4" fill="#1f77b4" stroke="#ffffff" stroke-width="1"/>
</svg>
