<svg xmlns="http://www.w3.org/2000/svg" width="1120" height="760" viewBox="0 0 1120 760">
<rect width="100%" height="100%" fill="#fbfbf8"/>
<text x="560.0" y="34" text-anchor="middle" font-family="sans-serif" font-size="24" fill="#222">RTT entre interfaz y FPGA vs. payload</text>
<rect x="96" y="106" width="988" height="562" fill="#ffffff" stroke="#c9c9c1"/>
<line x1="96" y1="106.00" x2="1084" y2="106.00" stroke="#a9aba3" stroke-width="1.35"/>
<text x="86" y="110.00" text-anchor="end" font-family="sans-serif" font-size="13" font-weight="400" fill="#292925">0.0947</text>
<line x1="96" y1="199.67" x2="1084" y2="199.67" stroke="#a9aba3" stroke-width="1.35"/>
<text x="86" y="203.67" text-anchor="end" font-family="sans-serif" font-size="13" font-weight="400" fill="#292925">0.0789</text>
<line x1="96" y1="293.33" x2="1084" y2="293.33" stroke="#a9aba3" stroke-width="1.35"/>
<text x="86" y="297.33" text-anchor="end" font-family="sans-serif" font-size="13" font-weight="400" fill="#292925">0.0631</text>
<line x1="96" y1="387.00" x2="1084" y2="387.00" stroke="#a9aba3" stroke-width="1.35"/>
<text x="86" y="391.00" text-anchor="end" font-family="sans-serif" font-size="13" font-weight="400" fill="#292925">0.0473</text>
<line x1="96" y1="480.67" x2="1084" y2="480.67" stroke="#a9aba3" stroke-width="1.35"/>
<text x="86" y="484.67" text-anchor="end" font-family="sans-serif" font-size="13" font-weight="400" fill="#292925">0.0316</text>
<line x1="96" y1="574.33" x2="1084" y2="574.33" stroke="#a9aba3" stroke-width="1.35"/>
<text x="86" y="578.33" text-anchor="end" font-family="sans-serif" font-size="13" font-weight="400" fill="#292925">0.0158</text>
<line x1="96" y1="668.00" x2="1084" y2="668.00" stroke="#4f504b" stroke-width="2.2"/>
<text x="86" y="672.00" text-anchor="end" font-family="sans-serif" font-size="13" font-weight="600" fill="#292925">0</text>
<line x1="113.55" y1="106" x2="113.55" y2="668" stroke="#b4b6ae" stroke-width="1.25"/>
<text transform="translate(113.55 688) rotate(-45)" text-anchor="end" font-family="sans-serif" font-size="11" font-weight="500" fill="#292925">256</text>
<line x1="163.71" y1="106" x2="163.71" y2="668" stroke="#b4b6ae" stroke-width="1.25"/>
<text transform="translate(163.71 688) rotate(-45)" text-anchor="end" font-family="sans-serif" font-size="11" font-weight="500" fill="#292925">320</text>
<line x1="213.86" y1="106" x2="213.86" y2="668" stroke="#b4b6ae" stroke-width="1.25"/>
<text transform="translate(213.86 688) rotate(-45)" text-anchor="end" font-family="sans-serif" font-size="11" font-weight="500" fill="#292925">384</text>
<line x1="264.01" y1="106" x2="264.01" y2="668" stroke="#b4b6ae" stroke-width="1.25"/>
<text transform="translate(264.01 688) rotate(-45)" text-anchor="end" font-family="sans-serif" font-size="11" font-weight="500" fill="#292925">448</text>
<line x1="314.16" y1="106" x2="314.16" y2="668" stroke="#b4b6ae" stroke-width="1.25"/>
<text transform="translate(314.16 688) rotate(-45)" text-anchor="end" font-family="sans-serif" font-size="11" font-weight="500" fill="#292925">512</text>
<line x1="364.31" y1="106" x2="364.31" y2="668" stroke="#b4b6ae" stroke-width="1.25"/>
<text transform="translate(364.31 688) rotate(-45)" text-anchor="end" font-family="sans-serif" font-size="11" font-weight="500" fill="#292925">576</text>
<line x1="414.47" y1="106" x2="414.47" y2="668" stroke="#b4b6ae" stroke-width="1.25"/>
<text transform="translate(414.47 688) rotate(-45)" text-anchor="end" font-family="sans-serif" font-size="11" font-weight="500" fill="#292925">640</text>
<line x1="464.62" y1="106" x2="464.62" y2="668" stroke="#b4b6ae" stroke-width="1.25"/>
<text transform="translate(464.62 688) rotate(-45)" text-anchor="end" font-family="sans-serif" font-size="11" font-weight="500" fill="#292925">704</text>
<line x1="514.77" y1="106" x2="514.77" y2="668" stroke="#b4b6ae" stroke-width="1.25"/>
<text transform="translate(514.77 688) rotate(-45)" text-anchor="end" font-family="sans-serif" font-size="11" font-weight="500" fill="#292925">768</text>
<line x1="564.92" y1="106" x2="564.92" y2="668" stroke="#b4b6ae" stroke-width="1.25"/>
<text transform="translate(564.92 688) rotate(-45)" text-anchor="end" font-family="sans-serif" font-size="11" font-weight="500" fill="#292925">832</text>
<line x1="615.08" y1="106" x2="615.08" y2="668" stroke="#b4b6ae" stroke-width="1.25"/>
<text transform="translate(615.08 688) rotate(-45)" text-anchor="end" font-family="sans-serif" font-size="11" font-weight="500" fill="#292925">896</text>
<line x1="665.23" y1="106" x2="665.23" y2="668" stroke="#b4b6ae" stroke-width="1.25"/>
<text transform="translate(665.23 688) rotate(-45)" text-anchor="end" font-family="sans-serif" font-size="11" font-weight="500" fill="#292925">960</text>
<line x1="715.38" y1="106" x2="715.38" y2="668" stroke="#b4b6ae" stroke-width="1.25"/>
<text transform="translate(715.38 688) rotate(-45)" text-anchor="end" font-family="sans-serif" font-size="11" font-weight="500" fill="#292925">1024</text>
<line x1="765.53" y1="106" x2="765.53" y2="668" stroke="#b4b6ae" stroke-width="1.25"/>
<text transform="translate(765.53 688) rotate(-45)" text-anchor="end" font-family="sans-serif" font-size="11" font-weight="500" fill="#292925">1088</text>
<line x1="815.69" y1="106" x2="815.69" y2="668" stroke="#b4b6ae" stroke-width="1.25"/>
<text transform="translate(815.69 688) rotate(-45)" text-anchor="end" font-family="sans-serif" font-size="11" font-weight="500" fill="#292925">1152</text>
<line x1="865.84" y1="106" x2="865.84" y2="668" stroke="#b4b6ae" stroke-width="1.25"/>
<text transform="translate(865.84 688) rotate(-45)" text-anchor="end" font-family="sans-serif" font-size="11" font-weight="500" fill="#292925">1216</text>
<line x1="915.99" y1="106" x2="915.99" y2="668" stroke="#b4b6ae" stroke-width="1.25"/>
<text transform="translate(915.99 688) rotate(-45)" text-anchor="end" font-family="sans-serif" font-size="11" font-weight="500" fill="#292925">1280</text>
<line x1="966.14" y1="106" x2="966.14" y2="668" stroke="#b4b6ae" stroke-width="1.25"/>
<text transform="translate(966.14 688) rotate(-45)" text-anchor="end" font-family="sans-serif" font-size="11" font-weight="500" fill="#292925">1344</text>
<line x1="1016.29" y1="106" x2="1016.29" y2="668" stroke="#b4b6ae" stroke-width="1.25"/>
<text transform="translate(1016.29 688) rotate(-45)" text-anchor="end" font-family="sans-serif" font-size="11" font-weight="500" fill="#292925">1408</text>
<line x1="1066.45" y1="106" x2="1066.45" y2="668" stroke="#b4b6ae" stroke-width="1.25"/>
<text transform="translate(1066.45 688) rotate(-45)" text-anchor="end" font-family="sans-serif" font-size="11" font-weight="500" fill="#292925">1472</text>
<text x="590.0" y="736" text-anchor="middle" font-family="sans-serif" font-size="17" font-weight="600" fill="#171715">Tamaño del payload (bytes)</text>
<text transform="translate(24 387.0) rotate(-90)" text-anchor="middle" font-family="sans-serif" font-size="17" font-weight="600" fill="#171715">RTT promedio entre interfaz y FPGA (ms)</text>
<line x1="96.0" y1="64" x2="122.0" y2="64" stroke="#1f77b4" stroke-width="3"/>
<text x="130.0" y="68" font-family="sans-serif" font-size="13" fill="#222">RTT interfaz-FPGA</text>
<polyline points="113.55,458.24 163.71,441.84 213.86,426.56 264.01,409.23 314.16,391.79 364.31,376.92 414.47,360.26 464.62,344.06 514.77,324.29 564.92,311.39 615.08,293.58 665.23,276.86 715.38,262.25 765.53,245.12 815.69,228.02 865.84,209.83 915.99,196.17 966.14,179.36 1016.29,162.14 1066.45,148.08" fill="none" stroke="#1f77b4" stroke-width="2.5"/>
<line x1="113.55" y1="459.45" x2="113.55" y2="457.03" stroke="#1f77b4" stroke-width="1.3"/>
<line x1="108.55" y1="459.45" x2="118.55" y2="459.45" stroke="#1f77b4" stroke-width="1.3"/>
<line x1="108.55" y1="457.03" x2="118.55" y2="457.03" stroke="#1f77b4" stroke-width="1.3"/>
<circle cx="113.55" cy="458.24" r="4" fill="#1f77b4" stroke="#ffffff" stroke-width="1"/>
<line x1="163.71" y1="442.41" x2="163.71" y2="441.26" stroke="#1f77b4" stroke-width="1.3"/>
<line x1="158.71" y1="442.41" x2="168.71" y2="442.41" stroke="#1f77b4" stroke-width="1.3"/>
<line x1="158.71" y1="441.26" x2="168.71" y2="441.26" stroke="#1f77b4" stroke-width="1.3"/>
<circle cx="163.71" cy="441.84" r="4" fill="#1f77b4" stroke="#ffffff" stroke-width="1"/>
<line x1="213.86" y1="426.94" x2="213.86" y2="426.19" stroke="#1f77b4" stroke-width="1.3"/>
<line x1="208.86" y1="426.94" x2="218.86" y2="426.94" stroke="#1f77b4" stroke-width="1.3"/>
<line x1="208.86" y1="426.19" x2="218.86" y2="426.19" stroke="#1f77b4" stroke-width="1.3"/>
<circle cx="213.86" cy="426.56" r="4" fill="#1f77b4" stroke="#ffffff" stroke-width="1"/>
<line x1="264.01" y1="409.73" x2="264.01" y2="408.74" stroke="#1f77b4" stroke-width="1.3"/>
<line x1="259.01" y1="409.73" x2="269.01" y2="409.73" stroke="#1f77b4" stroke-width="1.3"/>
<line x1="259.01" y1="408.74" x2="269.01" y2="408.74" stroke="#1f77b4" stroke-width="1.3"/>
<circle cx="264.01" cy="409.23" r="4" fill="#1f77b4" stroke="#ffffff" stroke-width="1"/>
<line x1="314.16" y1="392.34" x2="314.16" y2="391.25" stroke="#1f77b4" stroke-width="1.3"/>
<line x1="309.16" y1="392.34" x2="319.16" y2="392.34" stroke="#1f77b4" stroke-width="1.3"/>
<line x1="309.16" y1="391.25" x2="319.16" y2="391.25" stroke="#1f77b4" stroke-width="1.3"/>
<circle cx="314.16" cy="391.79" r="4" fill="#1f77b4" stroke="#ffffff" stroke-width="1"/>
<line x1="364.31" y1="377.36" x2="364.31" y2="376.49" stroke="#1f77b4" stroke-width="1.3"/>
<line x1="359.31" y1="377.36" x2="369.31" y2="377.36" stroke="#1f77b4" stroke-width="1.3"/>
<line x1="359.31" y1="376.49" x2="369.31" y2="376.49" stroke="#1f77b4" stroke-width="1.3"/>
<circle cx="364.31" cy="376.92" r="4" fill="#1f77b4" stroke="#ffffff" stroke-width="1"/>
<line x1="414.47" y1="360.74" x2="414.47" y2="359.77" stroke="#1f77b4" stroke-width="1.3"/>
<line x1="409.47" y1="360.74" x2="419.47" y2="360.74" stroke="#1f77b4" stroke-width="1.3"/>
<line x1="409.47" y1="359.77" x2="419.47" y2="359.77" stroke="#1f77b4" stroke-width="1.3"/>
<circle cx="414.47" cy="360.26" r="4" fill="#1f77b4" stroke="#ffffff" stroke-width="1"/>
<line x1="464.62" y1="344.78" x2="464.62" y2="343.33" stroke="#1f77b4" stroke-width="1.3"/>
<line x1="459.62" y1="344.78" x2="469.62" y2="344.78" stroke="#1f77b4" stroke-width="1.3"/>
<line x1="459.62" y1="343.33" x2="469.62" y2="343.33" stroke="#1f77b4" stroke-width="1.3"/>
<circle cx="464.62" cy="344.06" r="4" fill="#1f77b4" stroke="#ffffff" stroke-width="1"/>
<line x1="514.77" y1="324.94" x2="514.77" y2="323.64" stroke="#1f77b4" stroke-width="1.3"/>
<line x1="509.77" y1="324.94" x2="519.77" y2="324.94" stroke="#1f77b4" stroke-width="1.3"/>
<line x1="509.77" y1="323.64" x2="519.77" y2="323.64" stroke="#1f77b4" stroke-width="1.3"/>
<circle cx="514.77" cy="324.29" r="4" fill="#1f77b4" stroke="#ffffff" stroke-width="1"/>
<line x1="564.92" y1="312.02" x2="564.92" y2="310.76" stroke="#1f77b4" stroke-width="1.3"/>
<line x1="559.92" y1="312.02" x2="569.92" y2="312.02" stroke="#1f77b4" stroke-width="1.3"/>
<line x1="559.92" y1="310.76" x2="569.92" y2="310.76" stroke="#1f77b4" stroke-width="1.3"/>
<circle cx="564.92" cy="311.39" r="4" fill="#1f77b4" stroke="#ffffff" stroke-width="1"/>
<line x1="615.08" y1="294.24" x2="615.08" y2="292.92" stroke="#1f77b4" stroke-width="1.3"/>
<line x1="610.08" y1="294.24" x2="620.08" y2="294.24" stroke="#1f77b4" stroke-width="1.3"/>
<line x1="610.08" y1="292.92" x2="620.08" y2="292.92" stroke="#1f77b4" stroke-width="1.3"/>
<circle cx="615.08" cy="293.58" r="4" fill="#1f77b4" stroke="#ffffff" stroke-width="1"/>
<line x1="665.23" y1="277.16" x2="665.23" y2="276.57" stroke="#1f77b4" stroke-width="1.3"/>
<line x1="660.23" y1="277.16" x2="670.23" y2="277.16" stroke="#1f77b4" stroke-width="1.3"/>
<line x1="660.23" y1="276.57" x2="670.23" y2="276.57" stroke="#1f77b4" stroke-width="1.3"/>
<circle cx="665.23" cy="276.86" r="4" fill="#1f77b4" stroke="#ffffff" stroke-width="1"/>
<line x1="715.38" y1="262.82" x2="715.38" y2="261.68" stroke="#1f77b4" stroke-width="1.3"/>
<line x1="710.38" y1="262.82" x2="720.38" y2="262.82" stroke="#1f77b4" stroke-width="1.3"/>
<line x1="710.38" y1="261.68" x2="720.38" y2="261.68" stroke="#1f77b4" stroke-width="1.3"/>
<circle cx="715.38" cy="262.25" r="4" fill="#1f77b4" stroke="#ffffff" stroke-width="1"/>
<line x1="765.53" y1="245.56" x2="765.53" y2="244.67" stroke="#1f77b4" stroke-width="1.3"/>
<line x1="760.53" y1="245.56" x2="770.53" y2="245.56" stroke="#1f77b4" stroke-width="1.3"/>
<line x1="760.53" y1="244.67" x2="770.53" y2="244.67" stroke="#1f77b4" stroke-width="1.3"/>
<circle cx="765.53" cy="245.12" r="4" fill="#1f77b4" stroke="#ffffff" stroke-width="1"/>
<line x1="815.69" y1="228.58" x2="815.69" y2="227.45" stroke="#1f77b4" stroke-width="1.3"/>
<line x1="810.69" y1="228.58" x2="820.69" y2="228.58" stroke="#1f77b4" stroke-width="1.3"/>
<line x1="810.69" y1="227.45" x2="820.69" y2="227.45" stroke="#1f77b4" stroke-width="1.3"/>
<circle cx="815.69" cy="228.02" r="4" fill="#1f77b4" stroke="#ffffff" stroke-width="1"/>
<line x1="865.84" y1="210.32" x2="865.84" y2="209.34" stroke="#1f77b4" stroke-width="1.3"/>
<line x1="860.84" y1="210.32" x2="870.84" y2="210.32" stroke="#1f77b4" stroke-width="1.3"/>
<line x1="860.84" y1="209.34" x2="870.84" y2="209.34" stroke="#1f77b4" stroke-width="1.3"/>
<circle cx="865.84" cy="209.83" r="4" fill="#1f77b4" stroke="#ffffff" stroke-width="1"/>
<line x1="915.99" y1="196.71" x2="915.99" y2="195.64" stroke="#1f77b4" stroke-width="1.3"/>
<line x1="910.99" y1="196.71" x2="920.99" y2="196.71" stroke="#1f77b4" stroke-width="1.3"/>
<line x1="910.99" y1="195.64" x2="920.99" y2="195.64" stroke="#1f77b4" stroke-width="1.3"/>
<circle cx="915.99" cy="196.17" r="4" fill="#1f77b4" stroke="#ffffff" stroke-width="1"/>
<line x1="966.14" y1="179.78" x2="966.14" y2="178.95" stroke="#1f77b4" stroke-width="1.3"/>
<line x1="961.14" y1="179.78" x2="971.14" y2="179.78" stroke="#1f77b4" stroke-width="1.3"/>
<line x1="961.14" y1="178.95" x2="971.14" y2="178.95" stroke="#1f77b4" stroke-width="1.3"/>
<circle cx="966.14" cy="179.36" r="4" fill="#1f77b4" stroke="#ffffff" stroke-width="1"/>
<line x1="1016.29" y1="162.62" x2="1016.29" y2="161.67" stroke="#1f77b4" stroke-width="1.3"/>
<line x1="1011.29" y1="162.62" x2="1021.29" y2="162.62" stroke="#1f77b4" stroke-width="1.3"/>
<line x1="1011.29" y1="161.67" x2="1021.29" y2="161.67" stroke="#1f77b4" stroke-width="1.3"/>
<circle cx="1016.29" cy="162.14" r="4" fill="#1f77b4" stroke="#ffffff" stroke-width="1"/>
<line x1="1066.45" y1="148.53" x2="1066.45" y2="147.63" stroke="#1f77b4" stroke-width="1.3"/>
<line x1="1061.45" y1="148.53" x2="1071.45" y2="148.53" stroke="#1f77b4" stroke-width="1.3"/>
<line x1="1061.45" y1="147.63" x2="1071.45" y2="147.63" stroke="#1f77b4" stroke-width="1.3"/>
<circle cx="1066.45" cy="148.08" r="4" fill="#1f77b4" stroke="#ffffff" stroke-width="1"/>
</svg>
