<svg xmlns="http://www.w3.org/2000/svg" width="1120" height="680" viewBox="0 0 1120 680">
<rect width="100%" height="100%" fill="#fbfbf8"/>
<text x="560.0" y="34" text-anchor="middle" font-family="sans-serif" font-size="24" fill="#222">Loopback: perdida vs payload</text>
<rect x="96" y="62" width="988" height="532" fill="#ffffff" stroke="#c9c9c1"/>
<line x1="96" y1="62.00" x2="1084" y2="62.00" stroke="#e8e8df"/>
<text x="86" y="66.00" text-anchor="end" font-family="sans-serif" font-size="12" fill="#4a4a45">0.0175</text>
<line x1="96.00" y1="62" x2="96.00" y2="594" stroke="#f0f0e8"/>
<text x="96.00" y="618" text-anchor="middle" font-family="sans-serif" font-size="12" fill="#4a4a45">161</text>
<line x1="96" y1="168.40" x2="1084" y2="168.40" stroke="#e8e8df"/>
<text x="86" y="172.40" text-anchor="end" font-family="sans-serif" font-size="12" fill="#4a4a45">0.0141</text>
<line x1="293.60" y1="62" x2="293.60" y2="594" stroke="#f0f0e8"/>
<text x="293.60" y="618" text-anchor="middle" font-family="sans-serif" font-size="12" fill="#4a4a45">436</text>
<line x1="96" y1="274.80" x2="1084" y2="274.80" stroke="#e8e8df"/>
<text x="86" y="278.80" text-anchor="end" font-family="sans-serif" font-size="12" fill="#4a4a45">0.0108</text>
<line x1="491.20" y1="62" x2="491.20" y2="594" stroke="#f0f0e8"/>
<text x="491.20" y="618" text-anchor="middle" font-family="sans-serif" font-size="12" fill="#4a4a45">711</text>
<line x1="96" y1="381.20" x2="1084" y2="381.20" stroke="#e8e8df"/>
<text x="86" y="385.20" text-anchor="end" font-family="sans-serif" font-size="12" fill="#4a4a45">0.00739</text>
<line x1="688.80" y1="62" x2="688.80" y2="594" stroke="#f0f0e8"/>
<text x="688.80" y="618" text-anchor="middle" font-family="sans-serif" font-size="12" fill="#4a4a45">985</text>
<line x1="96" y1="487.60" x2="1084" y2="487.60" stroke="#e8e8df"/>
<text x="86" y="491.60" text-anchor="end" font-family="sans-serif" font-size="12" fill="#4a4a45">0.00402</text>
<line x1="886.40" y1="62" x2="886.40" y2="594" stroke="#f0f0e8"/>
<text x="886.40" y="618" text-anchor="middle" font-family="sans-serif" font-size="12" fill="#4a4a45">1260</text>
<line x1="96" y1="594.00" x2="1084" y2="594.00" stroke="#e8e8df"/>
<text x="86" y="598.00" text-anchor="end" font-family="sans-serif" font-size="12" fill="#4a4a45">0.000646</text>
<line x1="1084.00" y1="62" x2="1084.00" y2="594" stroke="#f0f0e8"/>
<text x="1084.00" y="618" text-anchor="middle" font-family="sans-serif" font-size="12" fill="#4a4a45">1535</text>
<text x="590.0" y="656" text-anchor="middle" font-family="sans-serif" font-size="15" fill="#222">Payload size (bytes)</text>
<text transform="translate(26 328.0) rotate(-90)" text-anchor="middle" font-family="sans-serif" font-size="15" fill="#222">Perdida (%)</text>
<line x1="112" y1="82" x2="138" y2="82" stroke="#d62728" stroke-width="3"/>
<text x="146" y="86" font-family="sans-serif" font-size="13" fill="#222">Perdida</text>
<polyline points="164.14,358.01 217.37,287.28 270.60,515.26 323.84,403.48 377.07,301.18 430.30,188.13 483.53,164.77 536.77,508.31 590.00,386.43 643.23,367.48 696.47,292.97 749.70,359.91 802.93,503.89 856.16,298.02 909.40,229.18 962.63,350.43 1015.86,167.93" fill="none" stroke="#d62728" stroke-width="2.5"/>
<line x1="164.14" y1="423.24" x2="164.14" y2="292.79" stroke="#d62728" stroke-width="1.3"/>
<line x1="159.14" y1="423.24" x2="169.14" y2="423.24" stroke="#d62728" stroke-width="1.3"/>
<line x1="159.14" y1="292.79" x2="169.14" y2="292.79" stroke="#d62728" stroke-width="1.3"/>
<circle cx="164.14" cy="358.01" r="4" fill="#d62728" stroke="#ffffff" stroke-width="1"/>
<line x1="217.37" y1="324.48" x2="217.37" y2="250.08" stroke="#d62728" stroke-width="1.3"/>
<line x1="212.37" y1="324.48" x2="222.37" y2="324.48" stroke="#d62728" stroke-width="1.3"/>
<line x1="212.37" y1="250.08" x2="222.37" y2="250.08" stroke="#d62728" stroke-width="1.3"/>
<circle cx="217.37" cy="287.28" r="4" fill="#d62728" stroke="#ffffff" stroke-width="1"/>
<line x1="270.60" y1="556.53" x2="270.60" y2="473.99" stroke="#d62728" stroke-width="1.3"/>
<line x1="265.60" y1="556.53" x2="275.60" y2="556.53" stroke="#d62728" stroke-width="1.3"/>
<line x1="265.60" y1="473.99" x2="275.60" y2="473.99" stroke="#d62728" stroke-width="1.3"/>
<circle cx="270.60" cy="515.26" r="4" fill="#d62728" stroke="#ffffff" stroke-width="1"/>
<line x1="323.84" y1="434.77" x2="323.84" y2="372.19" stroke="#d62728" stroke-width="1.3"/>
<line x1="318.84" y1="434.77" x2="328.84" y2="434.77" stroke="#d62728" stroke-width="1.3"/>
<line x1="318.84" y1="372.19" x2="328.84" y2="372.19" stroke="#d62728" stroke-width="1.3"/>
<circle cx="323.84" cy="403.48" r="4" fill="#d62728" stroke="#ffffff" stroke-width="1"/>
<line x1="377.07" y1="403.55" x2="377.07" y2="198.80" stroke="#d62728" stroke-width="1.3"/>
<line x1="372.07" y1="403.55" x2="382.07" y2="403.55" stroke="#d62728" stroke-width="1.3"/>
<line x1="372.07" y1="198.80" x2="382.07" y2="198.80" stroke="#d62728" stroke-width="1.3"/>
<circle cx="377.07" cy="301.18" r="4" fill="#d62728" stroke="#ffffff" stroke-width="1"/>
<line x1="430.30" y1="267.48" x2="430.30" y2="108.79" stroke="#d62728" stroke-width="1.3"/>
<line x1="425.30" y1="267.48" x2="435.30" y2="267.48" stroke="#d62728" stroke-width="1.3"/>
<line x1="425.30" y1="108.79" x2="435.30" y2="108.79" stroke="#d62728" stroke-width="1.3"/>
<circle cx="430.30" cy="188.13" r="4" fill="#d62728" stroke="#ffffff" stroke-width="1"/>
<line x1="483.53" y1="206.63" x2="483.53" y2="122.90" stroke="#d62728" stroke-width="1.3"/>
<line x1="478.53" y1="206.63" x2="488.53" y2="206.63" stroke="#d62728" stroke-width="1.3"/>
<line x1="478.53" y1="122.90" x2="488.53" y2="122.90" stroke="#d62728" stroke-width="1.3"/>
<circle cx="483.53" cy="164.77" r="4" fill="#d62728" stroke="#ffffff" stroke-width="1"/>
<line x1="536.77" y1="557.31" x2="536.77" y2="459.31" stroke="#d62728" stroke-width="1.3"/>
<line x1="531.77" y1="557.31" x2="541.77" y2="557.31" stroke="#d62728" stroke-width="1.3"/>
<line x1="531.77" y1="459.31" x2="541.77" y2="459.31" stroke="#d62728" stroke-width="1.3"/>
<circle cx="536.77" cy="508.31" r="4" fill="#d62728" stroke="#ffffff" stroke-width="1"/>
<line x1="590.00" y1="401.80" x2="590.00" y2="371.06" stroke="#d62728" stroke-width="1.3"/>
<line x1="585.00" y1="401.80" x2="595.00" y2="401.80" stroke="#d62728" stroke-width="1.3"/>
<line x1="585.00" y1="371.06" x2="595.00" y2="371.06" stroke="#d62728" stroke-width="1.3"/>
<circle cx="590.00" cy="386.43" r="4" fill="#d62728" stroke="#ffffff" stroke-width="1"/>
<line x1="643.23" y1="463.97" x2="643.23" y2="271.00" stroke="#d62728" stroke-width="1.3"/>
<line x1="638.23" y1="463.97" x2="648.23" y2="463.97" stroke="#d62728" stroke-width="1.3"/>
<line x1="638.23" y1="271.00" x2="648.23" y2="271.00" stroke="#d62728" stroke-width="1.3"/>
<circle cx="643.23" cy="367.48" r="4" fill="#d62728" stroke="#ffffff" stroke-width="1"/>
<line x1="696.47" y1="365.74" x2="696.47" y2="220.19" stroke="#d62728" stroke-width="1.3"/>
<line x1="691.47" y1="365.74" x2="701.47" y2="365.74" stroke="#d62728" stroke-width="1.3"/>
<line x1="691.47" y1="220.19" x2="701.47" y2="220.19" stroke="#d62728" stroke-width="1.3"/>
<circle cx="696.47" cy="292.97" r="4" fill="#d62728" stroke="#ffffff" stroke-width="1"/>
<line x1="749.70" y1="384.63" x2="749.70" y2="335.18" stroke="#d62728" stroke-width="1.3"/>
<line x1="744.70" y1="384.63" x2="754.70" y2="384.63" stroke="#d62728" stroke-width="1.3"/>
<line x1="744.70" y1="335.18" x2="754.70" y2="335.18" stroke="#d62728" stroke-width="1.3"/>
<circle cx="749.70" cy="359.91" r="4" fill="#d62728" stroke="#ffffff" stroke-width="1"/>
<line x1="802.93" y1="554.56" x2="802.93" y2="453.22" stroke="#d62728" stroke-width="1.3"/>
<line x1="797.93" y1="554.56" x2="807.93" y2="554.56" stroke="#d62728" stroke-width="1.3"/>
<line x1="797.93" y1="453.22" x2="807.93" y2="453.22" stroke="#d62728" stroke-width="1.3"/>
<circle cx="802.93" cy="503.89" r="4" fill="#d62728" stroke="#ffffff" stroke-width="1"/>
<line x1="856.16" y1="318.89" x2="856.16" y2="277.14" stroke="#d62728" stroke-width="1.3"/>
<line x1="851.16" y1="318.89" x2="861.16" y2="318.89" stroke="#d62728" stroke-width="1.3"/>
<line x1="851.16" y1="277.14" x2="861.16" y2="277.14" stroke="#d62728" stroke-width="1.3"/>
<circle cx="856.16" cy="298.02" r="4" fill="#d62728" stroke="#ffffff" stroke-width="1"/>
<line x1="909.40" y1="279.95" x2="909.40" y2="178.42" stroke="#d62728" stroke-width="1.3"/>
<line x1="904.40" y1="279.95" x2="914.40" y2="279.95" stroke="#d62728" stroke-width="1.3"/>
<line x1="904.40" y1="178.42" x2="914.40" y2="178.42" stroke="#d62728" stroke-width="1.3"/>
<circle cx="909.40" cy="229.18" r="4" fill="#d62728" stroke="#ffffff" stroke-width="1"/>
<line x1="962.63" y1="383.22" x2="962.63" y2="317.65" stroke="#d62728" stroke-width="1.3"/>
<line x1="957.63" y1="383.22" x2="967.63" y2="383.22" stroke="#d62728" stroke-width="1.3"/>
<line x1="957.63" y1="317.65" x2="967.63" y2="317.65" stroke="#d62728" stroke-width="1.3"/>
<circle cx="962.63" cy="350.43" r="4" fill="#d62728" stroke="#ffffff" stroke-width="1"/>
<line x1="1015.86" y1="237.16" x2="1015.86" y2="98.69" stroke="#d62728" stroke-width="1.3"/>
<line x1="1010.86" y1="237.16" x2="1020.86" y2="237.16" stroke="#d62728" stroke-width="1.3"/>
<line x1="1010.86" y1="98.69" x2="1020.86" y2="98.69" stroke="#d62728" stroke-width="1.3"/>
<circle cx="1015.86" cy="167.93" r="4" fill="#d62728" stroke="#ffffff" stroke-width="1"/>
</svg>
