<svg xmlns="http://www.w3.org/2000/svg" width="1120" height="680" viewBox="0 0 1120 680">
<rect width="100%" height="100%" fill="#fbfbf8"/>
<text x="560.0" y="34" text-anchor="middle" font-family="sans-serif" font-size="24" fill="#222">PPS vs payload</text>
<rect x="96" y="62" width="988" height="532" fill="#ffffff" stroke="#c9c9c1"/>
<line x1="96" y1="62.00" x2="1084" y2="62.00" stroke="#e8e8df"/>
<text x="86" y="66.00" text-anchor="end" font-family="sans-serif" font-size="12" fill="#4a4a45">4.13e+05</text>
<line x1="96.00" y1="62" x2="96.00" y2="594" stroke="#f0f0e8"/>
<text x="96.00" y="618" text-anchor="middle" font-family="sans-serif" font-size="12" fill="#4a4a45">161</text>
<line x1="96" y1="168.40" x2="1084" y2="168.40" stroke="#e8e8df"/>
<text x="86" y="172.40" text-anchor="end" font-family="sans-serif" font-size="12" fill="#4a4a45">3.42e+05</text>
<line x1="293.60" y1="62" x2="293.60" y2="594" stroke="#f0f0e8"/>
<text x="293.60" y="618" text-anchor="middle" font-family="sans-serif" font-size="12" fill="#4a4a45">436</text>
<line x1="96" y1="274.80" x2="1084" y2="274.80" stroke="#e8e8df"/>
<text x="86" y="278.80" text-anchor="end" font-family="sans-serif" font-size="12" fill="#4a4a45">2.71e+05</text>
<line x1="491.20" y1="62" x2="491.20" y2="594" stroke="#f0f0e8"/>
<text x="491.20" y="618" text-anchor="middle" font-family="sans-serif" font-size="12" fill="#4a4a45">711</text>
<line x1="96" y1="381.20" x2="1084" y2="381.20" stroke="#e8e8df"/>
<text x="86" y="385.20" text-anchor="end" font-family="sans-serif" font-size="12" fill="#4a4a45">2e+05</text>
<line x1="688.80" y1="62" x2="688.80" y2="594" stroke="#f0f0e8"/>
<text x="688.80" y="618" text-anchor="middle" font-family="sans-serif" font-size="12" fill="#4a4a45">985</text>
<line x1="96" y1="487.60" x2="1084" y2="487.60" stroke="#e8e8df"/>
<text x="86" y="491.60" text-anchor="end" font-family="sans-serif" font-size="12" fill="#4a4a45">1.29e+05</text>
<line x1="886.40" y1="62" x2="886.40" y2="594" stroke="#f0f0e8"/>
<text x="886.40" y="618" text-anchor="middle" font-family="sans-serif" font-size="12" fill="#4a4a45">1260</text>
<line x1="96" y1="594.00" x2="1084" y2="594.00" stroke="#e8e8df"/>
<text x="86" y="598.00" text-anchor="end" font-family="sans-serif" font-size="12" fill="#4a4a45">5.86e+04</text>
<line x1="1084.00" y1="62" x2="1084.00" y2="594" stroke="#f0f0e8"/>
<text x="1084.00" y="618" text-anchor="middle" font-family="sans-serif" font-size="12" fill="#4a4a45">1535</text>
<text x="590.0" y="656" text-anchor="middle" font-family="sans-serif" font-size="15" fill="#222">Payload size (bytes)</text>
<text transform="translate(26 328.0) rotate(-90)" text-anchor="middle" font-family="sans-serif" font-size="15" fill="#222">Paquetes por segundo</text>
<line x1="112" y1="82" x2="138" y2="82" stroke="#2ca02c" stroke-width="3"/>
<text x="146" y="86" font-family="sans-serif" font-size="13" fill="#222">Loopback PPS</text>
<line x1="112" y1="104" x2="138" y2="104" stroke="#9467bd" stroke-width="3"/>
<text x="146" y="108" font-family="sans-serif" font-size="13" fill="#222">TX PPS</text>
<line x1="112" y1="126" x2="138" y2="126" stroke="#111111" stroke-width="3" stroke-dasharray="8 6"/>
<text x="146" y="130" font-family="sans-serif" font-size="13" fill="#222">Teorico</text>
<polyline points="164.14,98.90 217.37,207.86 270.60,282.51 323.84,336.85 377.07,378.17 430.30,410.66 483.53,436.87 536.77,458.47 590.00,476.56 643.23,491.95 696.47,505.19 749.70,516.71 802.93,526.81 856.16,535.76 909.40,543.72 962.63,550.87 1015.86,557.31" fill="none" stroke="#2ca02c" stroke-width="2.5"/>
<line x1="164.14" y1="98.90" x2="164.14" y2="98.90" stroke="#2ca02c" stroke-width="1.3"/>
<line x1="159.14" y1="98.90" x2="169.14" y2="98.90" stroke="#2ca02c" stroke-width="1.3"/>
<line x1="159.14" y1="98.90" x2="169.14" y2="98.90" stroke="#2ca02c" stroke-width="1.3"/>
<circle cx="164.14" cy="98.90" r="4" fill="#2ca02c" stroke="#ffffff" stroke-width="1"/>
<line x1="217.37" y1="207.86" x2="217.37" y2="207.86" stroke="#2ca02c" stroke-width="1.3"/>
<line x1="212.37" y1="207.86" x2="222.37" y2="207.86" stroke="#2ca02c" stroke-width="1.3"/>
<line x1="212.37" y1="207.86" x2="222.37" y2="207.86" stroke="#2ca02c" stroke-width="1.3"/>
<circle cx="217.37" cy="207.86" r="4" fill="#2ca02c" stroke="#ffffff" stroke-width="1"/>
<line x1="270.60" y1="282.51" x2="270.60" y2="282.51" stroke="#2ca02c" stroke-width="1.3"/>
<line x1="265.60" y1="282.51" x2="275.60" y2="282.51" stroke="#2ca02c" stroke-width="1.3"/>
<line x1="265.60" y1="282.51" x2="275.60" y2="282.51" stroke="#2ca02c" stroke-width="1.3"/>
<circle cx="270.60" cy="282.51" r="4" fill="#2ca02c" stroke="#ffffff" stroke-width="1"/>
<circle cx="323.84" cy="336.85" r="4" fill="#2ca02c" stroke="#ffffff" stroke-width="1"/>
<circle cx="377.07" cy="378.17" r="4" fill="#2ca02c" stroke="#ffffff" stroke-width="1"/>
<circle cx="430.30" cy="410.66" r="4" fill="#2ca02c" stroke="#ffffff" stroke-width="1"/>
<circle cx="483.53" cy="436.87" r="4" fill="#2ca02c" stroke="#ffffff" stroke-width="1"/>
<circle cx="536.77" cy="458.47" r="4" fill="#2ca02c" stroke="#ffffff" stroke-width="1"/>
<circle cx="590.00" cy="476.56" r="4" fill="#2ca02c" stroke="#ffffff" stroke-width="1"/>
<circle cx="643.23" cy="491.95" r="4" fill="#2ca02c" stroke="#ffffff" stroke-width="1"/>
<circle cx="696.47" cy="505.19" r="4" fill="#2ca02c" stroke="#ffffff" stroke-width="1"/>
<circle cx="749.70" cy="516.71" r="4" fill="#2ca02c" stroke="#ffffff" stroke-width="1"/>
<circle cx="802.93" cy="526.81" r="4" fill="#2ca02c" stroke="#ffffff" stroke-width="1"/>
<circle cx="856.16" cy="535.76" r="4" fill="#2ca02c" stroke="#ffffff" stroke-width="1"/>
<circle cx="909.40" cy="543.72" r="4" fill="#2ca02c" stroke="#ffffff" stroke-width="1"/>
<circle cx="962.63" cy="550.87" r="4" fill="#2ca02c" stroke="#ffffff" stroke-width="1"/>
<circle cx="1015.86" cy="557.31" r="4" fill="#2ca02c" stroke="#ffffff" stroke-width="1"/>
<polyline points="164.14,98.79 217.37,207.82 270.60,282.46 323.84,336.80 377.07,378.15 430.30,410.64 483.53,436.86 536.77,458.45 590.00,476.55 643.23,491.94 696.47,505.18 749.70,516.70 802.93,526.81 856.16,535.76 909.40,543.72 962.63,550.86 1015.86,557.30" fill="none" stroke="#9467bd" stroke-width="2.5"/>
<line x1="164.14" y1="98.89" x2="164.14" y2="98.69" stroke="#9467bd" stroke-width="1.3"/>
<line x1="159.14" y1="98.89" x2="169.14" y2="98.89" stroke="#9467bd" stroke-width="1.3"/>
<line x1="159.14" y1="98.69" x2="169.14" y2="98.69" stroke="#9467bd" stroke-width="1.3"/>
<circle cx="164.14" cy="98.79" r="4" fill="#9467bd" stroke="#ffffff" stroke-width="1"/>
<line x1="217.37" y1="207.85" x2="217.37" y2="207.79" stroke="#9467bd" stroke-width="1.3"/>
<line x1="212.37" y1="207.85" x2="222.37" y2="207.85" stroke="#9467bd" stroke-width="1.3"/>
<line x1="212.37" y1="207.79" x2="222.37" y2="207.79" stroke="#9467bd" stroke-width="1.3"/>
<circle cx="217.37" cy="207.82" r="4" fill="#9467bd" stroke="#ffffff" stroke-width="1"/>
<line x1="270.60" y1="282.50" x2="270.60" y2="282.41" stroke="#9467bd" stroke-width="1.3"/>
<line x1="265.60" y1="282.50" x2="275.60" y2="282.50" stroke="#9467bd" stroke-width="1.3"/>
<line x1="265.60" y1="282.41" x2="275.60" y2="282.41" stroke="#9467bd" stroke-width="1.3"/>
<circle cx="270.60" cy="282.46" r="4" fill="#9467bd" stroke="#ffffff" stroke-width="1"/>
<line x1="323.84" y1="336.81" x2="323.84" y2="336.79" stroke="#9467bd" stroke-width="1.3"/>
<line x1="318.84" y1="336.81" x2="328.84" y2="336.81" stroke="#9467bd" stroke-width="1.3"/>
<line x1="318.84" y1="336.79" x2="328.84" y2="336.79" stroke="#9467bd" stroke-width="1.3"/>
<circle cx="323.84" cy="336.80" r="4" fill="#9467bd" stroke="#ffffff" stroke-width="1"/>
<line x1="377.07" y1="378.16" x2="377.07" y2="378.13" stroke="#9467bd" stroke-width="1.3"/>
<line x1="372.07" y1="378.16" x2="382.07" y2="378.16" stroke="#9467bd" stroke-width="1.3"/>
<line x1="372.07" y1="378.13" x2="382.07" y2="378.13" stroke="#9467bd" stroke-width="1.3"/>
<circle cx="377.07" cy="378.15" r="4" fill="#9467bd" stroke="#ffffff" stroke-width="1"/>
<line x1="430.30" y1="410.66" x2="430.30" y2="410.62" stroke="#9467bd" stroke-width="1.3"/>
<line x1="425.30" y1="410.66" x2="435.30" y2="410.66" stroke="#9467bd" stroke-width="1.3"/>
<line x1="425.30" y1="410.62" x2="435.30" y2="410.62" stroke="#9467bd" stroke-width="1.3"/>
<circle cx="430.30" cy="410.64" r="4" fill="#9467bd" stroke="#ffffff" stroke-width="1"/>
<line x1="483.53" y1="436.87" x2="483.53" y2="436.84" stroke="#9467bd" stroke-width="1.3"/>
<line x1="478.53" y1="436.87" x2="488.53" y2="436.87" stroke="#9467bd" stroke-width="1.3"/>
<line x1="478.53" y1="436.84" x2="488.53" y2="436.84" stroke="#9467bd" stroke-width="1.3"/>
<circle cx="483.53" cy="436.86" r="4" fill="#9467bd" stroke="#ffffff" stroke-width="1"/>
<line x1="536.77" y1="458.46" x2="536.77" y2="458.44" stroke="#9467bd" stroke-width="1.3"/>
<line x1="531.77" y1="458.46" x2="541.77" y2="458.46" stroke="#9467bd" stroke-width="1.3"/>
<line x1="531.77" y1="458.44" x2="541.77" y2="458.44" stroke="#9467bd" stroke-width="1.3"/>
<circle cx="536.77" cy="458.45" r="4" fill="#9467bd" stroke="#ffffff" stroke-width="1"/>
<line x1="590.00" y1="476.56" x2="590.00" y2="476.54" stroke="#9467bd" stroke-width="1.3"/>
<line x1="585.00" y1="476.56" x2="595.00" y2="476.56" stroke="#9467bd" stroke-width="1.3"/>
<line x1="585.00" y1="476.54" x2="595.00" y2="476.54" stroke="#9467bd" stroke-width="1.3"/>
<circle cx="590.00" cy="476.55" r="4" fill="#9467bd" stroke="#ffffff" stroke-width="1"/>
<line x1="643.23" y1="491.94" x2="643.23" y2="491.93" stroke="#9467bd" stroke-width="1.3"/>
<line x1="638.23" y1="491.94" x2="648.23" y2="491.94" stroke="#9467bd" stroke-width="1.3"/>
<line x1="638.23" y1="491.93" x2="648.23" y2="491.93" stroke="#9467bd" stroke-width="1.3"/>
<circle cx="643.23" cy="491.94" r="4" fill="#9467bd" stroke="#ffffff" stroke-width="1"/>
<line x1="696.47" y1="505.19" x2="696.47" y2="505.18" stroke="#9467bd" stroke-width="1.3"/>
<line x1="691.47" y1="505.19" x2="701.47" y2="505.19" stroke="#9467bd" stroke-width="1.3"/>
<line x1="691.47" y1="505.18" x2="701.47" y2="505.18" stroke="#9467bd" stroke-width="1.3"/>
<circle cx="696.47" cy="505.18" r="4" fill="#9467bd" stroke="#ffffff" stroke-width="1"/>
<line x1="749.70" y1="516.70" x2="749.70" y2="516.69" stroke="#9467bd" stroke-width="1.3"/>
<line x1="744.70" y1="516.70" x2="754.70" y2="516.70" stroke="#9467bd" stroke-width="1.3"/>
<line x1="744.70" y1="516.69" x2="754.70" y2="516.69" stroke="#9467bd" stroke-width="1.3"/>
<circle cx="749.70" cy="516.70" r="4" fill="#9467bd" stroke="#ffffff" stroke-width="1"/>
<line x1="802.93" y1="526.81" x2="802.93" y2="526.80" stroke="#9467bd" stroke-width="1.3"/>
<line x1="797.93" y1="526.81" x2="807.93" y2="526.81" stroke="#9467bd" stroke-width="1.3"/>
<line x1="797.93" y1="526.80" x2="807.93" y2="526.80" stroke="#9467bd" stroke-width="1.3"/>
<circle cx="802.93" cy="526.81" r="4" fill="#9467bd" stroke="#ffffff" stroke-width="1"/>
<line x1="856.16" y1="535.76" x2="856.16" y2="535.75" stroke="#9467bd" stroke-width="1.3"/>
<line x1="851.16" y1="535.76" x2="861.16" y2="535.76" stroke="#9467bd" stroke-width="1.3"/>
<line x1="851.16" y1="535.75" x2="861.16" y2="535.75" stroke="#9467bd" stroke-width="1.3"/>
<circle cx="856.16" cy="535.76" r="4" fill="#9467bd" stroke="#ffffff" stroke-width="1"/>
<line x1="909.40" y1="543.72" x2="909.40" y2="543.72" stroke="#9467bd" stroke-width="1.3"/>
<line x1="904.40" y1="543.72" x2="914.40" y2="543.72" stroke="#9467bd" stroke-width="1.3"/>
<line x1="904.40" y1="543.72" x2="914.40" y2="543.72" stroke="#9467bd" stroke-width="1.3"/>
<circle cx="909.40" cy="543.72" r="4" fill="#9467bd" stroke="#ffffff" stroke-width="1"/>
<line x1="962.63" y1="550.87" x2="962.63" y2="550.86" stroke="#9467bd" stroke-width="1.3"/>
<line x1="957.63" y1="550.87" x2="967.63" y2="550.87" stroke="#9467bd" stroke-width="1.3"/>
<line x1="957.63" y1="550.86" x2="967.63" y2="550.86" stroke="#9467bd" stroke-width="1.3"/>
<circle cx="962.63" cy="550.86" r="4" fill="#9467bd" stroke="#ffffff" stroke-width="1"/>
<line x1="1015.86" y1="557.30" x2="1015.86" y2="557.30" stroke="#9467bd" stroke-width="1.3"/>
<line x1="1010.86" y1="557.30" x2="1020.86" y2="557.30" stroke="#9467bd" stroke-width="1.3"/>
<line x1="1010.86" y1="557.30" x2="1020.86" y2="557.30" stroke="#9467bd" stroke-width="1.3"/>
<circle cx="1015.86" cy="557.30" r="4" fill="#9467bd" stroke="#ffffff" stroke-width="1"/>
<polyline points="164.14,98.90 217.37,207.86 270.60,282.51 323.84,336.85 377.07,378.17 430.30,410.66 483.53,436.87 536.77,458.47 590.00,476.56 643.23,491.95 696.47,505.19 749.70,516.71 802.93,526.81 856.16,535.76 909.40,543.72 962.63,550.87 1015.86,557.31" fill="none" stroke="#111111" stroke-width="2.5" stroke-dasharray="8 6"/>
<circle cx="164.14" cy="98.90" r="4" fill="#111111" stroke="#ffffff" stroke-width="1"/>
<circle cx="217.37" cy="207.86" r="4" fill="#111111" stroke="#ffffff" stroke-width="1"/>
<circle cx="270.60" cy="282.51" r="4" fill="#111111" stroke="#ffffff" stroke-width="1"/>
<circle cx="323.84" cy="336.85" r="4" fill="#111111" stroke="#ffffff" stroke-width="1"/>
<circle cx="377.07" cy="378.17" r="4" fill="#111111" stroke="#ffffff" stroke-width="1"/>
<circle cx="430.30" cy="410.66" r="4" fill="#111111" stroke="#ffffff" stroke-width="1"/>
<circle cx="483.53" cy="436.87" r="4" fill="#111111" stroke="#ffffff" stroke-width="1"/>
<circle cx="536.77" cy="458.47" r="4" fill="#111111" stroke="#ffffff" stroke-width="1"/>
<circle cx="590.00" cy="476.56" r="4" fill="#111111" stroke="#ffffff" stroke-width="1"/>
<circle cx="643.23" cy="491.95" r="4" fill="#111111" stroke="#ffffff" stroke-width="1"/>
<circle cx="696.47" cy="505.19" r="4" fill="#111111" stroke="#ffffff" stroke-width="1"/>
<circle cx="749.70" cy="516.71" r="4" fill="#111111" stroke="#ffffff" stroke-width="1"/>
<circle cx="802.93" cy="526.81" r="4" fill="#111111" stroke="#ffffff" stroke-width="1"/>
<circle cx="856.16" cy="535.76" r="4" fill="#111111" stroke="#ffffff" stroke-width="1"/>
<circle cx="909.40" cy="543.72" r="4" fill="#111111" stroke="#ffffff" stroke-width="1"/>
<circle cx="962.63" cy="550.87" r="4" fill="#111111" stroke="#ffffff" stroke-width="1"/>
<circle cx="1015.86" cy="557.31" r="4" fill="#111111" stroke="#ffffff" stroke-width="1"/>
</svg>
