<svg xmlns="http://www.w3.org/2000/svg" width="1120" height="680" viewBox="0 0 1120 680">
<rect width="100%" height="100%" fill="#fbfbf8"/>
<text x="560.0" y="34" text-anchor="middle" font-family="sans-serif" font-size="24" fill="#222">RTT vs payload</text>
<rect x="96" y="62" width="988" height="532" fill="#ffffff" stroke="#c9c9c1"/>
<line x1="96" y1="62.00" x2="1084" y2="62.00" stroke="#e8e8df"/>
<text x="86" y="66.00" text-anchor="end" font-family="sans-serif" font-size="12" fill="#4a4a45">0.121</text>
<line x1="96.00" y1="62" x2="96.00" y2="594" stroke="#f0f0e8"/>
<text x="96.00" y="618" text-anchor="middle" font-family="sans-serif" font-size="12" fill="#4a4a45">161</text>
<line x1="96" y1="168.40" x2="1084" y2="168.40" stroke="#e8e8df"/>
<text x="86" y="172.40" text-anchor="end" font-family="sans-serif" font-size="12" fill="#4a4a45">0.103</text>
<line x1="293.60" y1="62" x2="293.60" y2="594" stroke="#f0f0e8"/>
<text x="293.60" y="618" text-anchor="middle" font-family="sans-serif" font-size="12" fill="#4a4a45">436</text>
<line x1="96" y1="274.80" x2="1084" y2="274.80" stroke="#e8e8df"/>
<text x="86" y="278.80" text-anchor="end" font-family="sans-serif" font-size="12" fill="#4a4a45">0.0851</text>
<line x1="491.20" y1="62" x2="491.20" y2="594" stroke="#f0f0e8"/>
<text x="491.20" y="618" text-anchor="middle" font-family="sans-serif" font-size="12" fill="#4a4a45">711</text>
<line x1="96" y1="381.20" x2="1084" y2="381.20" stroke="#e8e8df"/>
<text x="86" y="385.20" text-anchor="end" font-family="sans-serif" font-size="12" fill="#4a4a45">0.0672</text>
<line x1="688.80" y1="62" x2="688.80" y2="594" stroke="#f0f0e8"/>
<text x="688.80" y="618" text-anchor="middle" font-family="sans-serif" font-size="12" fill="#4a4a45">985</text>
<line x1="96" y1="487.60" x2="1084" y2="487.60" stroke="#e8e8df"/>
<text x="86" y="491.60" text-anchor="end" font-family="sans-serif" font-size="12" fill="#4a4a45">0.0493</text>
<line x1="886.40" y1="62" x2="886.40" y2="594" stroke="#f0f0e8"/>
<text x="886.40" y="618" text-anchor="middle" font-family="sans-serif" font-size="12" fill="#4a4a45">1260</text>
<line x1="96" y1="594.00" x2="1084" y2="594.00" stroke="#e8e8df"/>
<text x="86" y="598.00" text-anchor="end" font-family="sans-serif" font-size="12" fill="#4a4a45">0.0314</text>
<line x1="1084.00" y1="62" x2="1084.00" y2="594" stroke="#f0f0e8"/>
<text x="1084.00" y="618" text-anchor="middle" font-family="sans-serif" font-size="12" fill="#4a4a45">1535</text>
<text x="590.0" y="656" text-anchor="middle" font-family="sans-serif" font-size="15" fill="#222">Payload size (bytes)</text>
<text transform="translate(26 328.0) rotate(-90)" text-anchor="middle" font-family="sans-serif" font-size="15" fill="#222">RTT promedio (ms)</text>
<line x1="112" y1="82" x2="138" y2="82" stroke="#1f77b4" stroke-width="3"/>
<text x="146" y="86" font-family="sans-serif" font-size="13" fill="#222">RTT promedio</text>
<polyline points="164.14,550.49 217.37,538.92 270.60,523.45 323.84,505.17 377.07,490.78 430.30,470.86 483.53,430.21 536.77,345.28 590.00,329.36 643.23,252.23 696.47,265.31 749.70,249.65 802.93,214.92 856.16,227.58 909.40,192.36 962.63,181.40 1015.86,156.66" fill="none" stroke="#1f77b4" stroke-width="2.5"/>
<line x1="164.14" y1="557.31" x2="164.14" y2="543.68" stroke="#1f77b4" stroke-width="1.3"/>
<line x1="159.14" y1="557.31" x2="169.14" y2="557.31" stroke="#1f77b4" stroke-width="1.3"/>
<line x1="159.14" y1="543.68" x2="169.14" y2="543.68" stroke="#1f77b4" stroke-width="1.3"/>
<circle cx="164.14" cy="550.49" r="4" fill="#1f77b4" stroke="#ffffff" stroke-width="1"/>
<line x1="217.37" y1="540.20" x2="217.37" y2="537.65" stroke="#1f77b4" stroke-width="1.3"/>
<line x1="212.37" y1="540.20" x2="222.37" y2="540.20" stroke="#1f77b4" stroke-width="1.3"/>
<line x1="212.37" y1="537.65" x2="222.37" y2="537.65" stroke="#1f77b4" stroke-width="1.3"/>
<circle cx="217.37" cy="538.92" r="4" fill="#1f77b4" stroke="#ffffff" stroke-width="1"/>
<line x1="270.60" y1="525.39" x2="270.60" y2="521.50" stroke="#1f77b4" stroke-width="1.3"/>
<line x1="265.60" y1="525.39" x2="275.60" y2="525.39" stroke="#1f77b4" stroke-width="1.3"/>
<line x1="265.60" y1="521.50" x2="275.60" y2="521.50" stroke="#1f77b4" stroke-width="1.3"/>
<circle cx="270.60" cy="523.45" r="4" fill="#1f77b4" stroke="#ffffff" stroke-width="1"/>
<line x1="323.84" y1="509.25" x2="323.84" y2="501.10" stroke="#1f77b4" stroke-width="1.3"/>
<line x1="318.84" y1="509.25" x2="328.84" y2="509.25" stroke="#1f77b4" stroke-width="1.3"/>
<line x1="318.84" y1="501.10" x2="328.84" y2="501.10" stroke="#1f77b4" stroke-width="1.3"/>
<circle cx="323.84" cy="505.17" r="4" fill="#1f77b4" stroke="#ffffff" stroke-width="1"/>
<line x1="377.07" y1="494.66" x2="377.07" y2="486.90" stroke="#1f77b4" stroke-width="1.3"/>
<line x1="372.07" y1="494.66" x2="382.07" y2="494.66" stroke="#1f77b4" stroke-width="1.3"/>
<line x1="372.07" y1="486.90" x2="382.07" y2="486.90" stroke="#1f77b4" stroke-width="1.3"/>
<circle cx="377.07" cy="490.78" r="4" fill="#1f77b4" stroke="#ffffff" stroke-width="1"/>
<line x1="430.30" y1="477.51" x2="430.30" y2="464.21" stroke="#1f77b4" stroke-width="1.3"/>
<line x1="425.30" y1="477.51" x2="435.30" y2="477.51" stroke="#1f77b4" stroke-width="1.3"/>
<line x1="425.30" y1="464.21" x2="435.30" y2="464.21" stroke="#1f77b4" stroke-width="1.3"/>
<circle cx="430.30" cy="470.86" r="4" fill="#1f77b4" stroke="#ffffff" stroke-width="1"/>
<line x1="483.53" y1="438.07" x2="483.53" y2="422.34" stroke="#1f77b4" stroke-width="1.3"/>
<line x1="478.53" y1="438.07" x2="488.53" y2="438.07" stroke="#1f77b4" stroke-width="1.3"/>
<line x1="478.53" y1="422.34" x2="488.53" y2="422.34" stroke="#1f77b4" stroke-width="1.3"/>
<circle cx="483.53" cy="430.21" r="4" fill="#1f77b4" stroke="#ffffff" stroke-width="1"/>
<line x1="536.77" y1="410.93" x2="536.77" y2="279.63" stroke="#1f77b4" stroke-width="1.3"/>
<line x1="531.77" y1="410.93" x2="541.77" y2="410.93" stroke="#1f77b4" stroke-width="1.3"/>
<line x1="531.77" y1="279.63" x2="541.77" y2="279.63" stroke="#1f77b4" stroke-width="1.3"/>
<circle cx="536.77" cy="345.28" r="4" fill="#1f77b4" stroke="#ffffff" stroke-width="1"/>
<line x1="590.00" y1="331.74" x2="590.00" y2="326.97" stroke="#1f77b4" stroke-width="1.3"/>
<line x1="585.00" y1="331.74" x2="595.00" y2="331.74" stroke="#1f77b4" stroke-width="1.3"/>
<line x1="585.00" y1="326.97" x2="595.00" y2="326.97" stroke="#1f77b4" stroke-width="1.3"/>
<circle cx="590.00" cy="329.36" r="4" fill="#1f77b4" stroke="#ffffff" stroke-width="1"/>
<line x1="643.23" y1="316.15" x2="643.23" y2="188.32" stroke="#1f77b4" stroke-width="1.3"/>
<line x1="638.23" y1="316.15" x2="648.23" y2="316.15" stroke="#1f77b4" stroke-width="1.3"/>
<line x1="638.23" y1="188.32" x2="648.23" y2="188.32" stroke="#1f77b4" stroke-width="1.3"/>
<circle cx="643.23" cy="252.23" r="4" fill="#1f77b4" stroke="#ffffff" stroke-width="1"/>
<line x1="696.47" y1="337.03" x2="696.47" y2="193.60" stroke="#1f77b4" stroke-width="1.3"/>
<line x1="691.47" y1="337.03" x2="701.47" y2="337.03" stroke="#1f77b4" stroke-width="1.3"/>
<line x1="691.47" y1="193.60" x2="701.47" y2="193.60" stroke="#1f77b4" stroke-width="1.3"/>
<circle cx="696.47" cy="265.31" r="4" fill="#1f77b4" stroke="#ffffff" stroke-width="1"/>
<line x1="749.70" y1="311.74" x2="749.70" y2="187.56" stroke="#1f77b4" stroke-width="1.3"/>
<line x1="744.70" y1="311.74" x2="754.70" y2="311.74" stroke="#1f77b4" stroke-width="1.3"/>
<line x1="744.70" y1="187.56" x2="754.70" y2="187.56" stroke="#1f77b4" stroke-width="1.3"/>
<circle cx="749.70" cy="249.65" r="4" fill="#1f77b4" stroke="#ffffff" stroke-width="1"/>
<line x1="802.93" y1="272.55" x2="802.93" y2="157.29" stroke="#1f77b4" stroke-width="1.3"/>
<line x1="797.93" y1="272.55" x2="807.93" y2="272.55" stroke="#1f77b4" stroke-width="1.3"/>
<line x1="797.93" y1="157.29" x2="807.93" y2="157.29" stroke="#1f77b4" stroke-width="1.3"/>
<circle cx="802.93" cy="214.92" r="4" fill="#1f77b4" stroke="#ffffff" stroke-width="1"/>
<line x1="856.16" y1="240.18" x2="856.16" y2="214.97" stroke="#1f77b4" stroke-width="1.3"/>
<line x1="851.16" y1="240.18" x2="861.16" y2="240.18" stroke="#1f77b4" stroke-width="1.3"/>
<line x1="851.16" y1="214.97" x2="861.16" y2="214.97" stroke="#1f77b4" stroke-width="1.3"/>
<circle cx="856.16" cy="227.58" r="4" fill="#1f77b4" stroke="#ffffff" stroke-width="1"/>
<line x1="909.40" y1="251.93" x2="909.40" y2="132.80" stroke="#1f77b4" stroke-width="1.3"/>
<line x1="904.40" y1="251.93" x2="914.40" y2="251.93" stroke="#1f77b4" stroke-width="1.3"/>
<line x1="904.40" y1="132.80" x2="914.40" y2="132.80" stroke="#1f77b4" stroke-width="1.3"/>
<circle cx="909.40" cy="192.36" r="4" fill="#1f77b4" stroke="#ffffff" stroke-width="1"/>
<line x1="962.63" y1="227.01" x2="962.63" y2="135.79" stroke="#1f77b4" stroke-width="1.3"/>
<line x1="957.63" y1="227.01" x2="967.63" y2="227.01" stroke="#1f77b4" stroke-width="1.3"/>
<line x1="957.63" y1="135.79" x2="967.63" y2="135.79" stroke="#1f77b4" stroke-width="1.3"/>
<circle cx="962.63" cy="181.40" r="4" fill="#1f77b4" stroke="#ffffff" stroke-width="1"/>
<line x1="1015.86" y1="214.63" x2="1015.86" y2="98.69" stroke="#1f77b4" stroke-width="1.3"/>
<line x1="1010.86" y1="214.63" x2="1020.86" y2="214.63" stroke="#1f77b4" stroke-width="1.3"/>
<line x1="1010.86" y1="98.69" x2="1020.86" y2="98.69" stroke="#1f77b4" stroke-width="1.3"/>
<circle cx="1015.86" cy="156.66" r="4" fill="#1f77b4" stroke="#ffffff" stroke-width="1"/>
</svg>
