<svg xmlns="http://www.w3.org/2000/svg" width="1120" height="680" viewBox="0 0 1120 680">
<rect width="100%" height="100%" fill="#fbfbf8"/>
<text x="560.0" y="34" text-anchor="middle" font-family="sans-serif" font-size="24" fill="#222">Transmision FPGA: goodput vs payload</text>
<rect x="96" y="62" width="988" height="532" fill="#ffffff" stroke="#c9c9c1"/>
<line x1="96" y1="62.00" x2="1084" y2="62.00" stroke="#e8e8df"/>
<text x="86" y="66.00" text-anchor="end" font-family="sans-serif" font-size="12" fill="#4a4a45">969</text>
<line x1="96.00" y1="62" x2="96.00" y2="594" stroke="#f0f0e8"/>
<text x="96.00" y="618" text-anchor="middle" font-family="sans-serif" font-size="12" fill="#4a4a45">161</text>
<line x1="96" y1="168.40" x2="1084" y2="168.40" stroke="#e8e8df"/>
<text x="86" y="172.40" text-anchor="end" font-family="sans-serif" font-size="12" fill="#4a4a45">932</text>
<line x1="293.60" y1="62" x2="293.60" y2="594" stroke="#f0f0e8"/>
<text x="293.60" y="618" text-anchor="middle" font-family="sans-serif" font-size="12" fill="#4a4a45">436</text>
<line x1="96" y1="274.80" x2="1084" y2="274.80" stroke="#e8e8df"/>
<text x="86" y="278.80" text-anchor="end" font-family="sans-serif" font-size="12" fill="#4a4a45">894</text>
<line x1="491.20" y1="62" x2="491.20" y2="594" stroke="#f0f0e8"/>
<text x="491.20" y="618" text-anchor="middle" font-family="sans-serif" font-size="12" fill="#4a4a45">711</text>
<line x1="96" y1="381.20" x2="1084" y2="381.20" stroke="#e8e8df"/>
<text x="86" y="385.20" text-anchor="end" font-family="sans-serif" font-size="12" fill="#4a4a45">857</text>
<line x1="688.80" y1="62" x2="688.80" y2="594" stroke="#f0f0e8"/>
<text x="688.80" y="618" text-anchor="middle" font-family="sans-serif" font-size="12" fill="#4a4a45">985</text>
<line x1="96" y1="487.60" x2="1084" y2="487.60" stroke="#e8e8df"/>
<text x="86" y="491.60" text-anchor="end" font-family="sans-serif" font-size="12" fill="#4a4a45">820</text>
<line x1="886.40" y1="62" x2="886.40" y2="594" stroke="#f0f0e8"/>
<text x="886.40" y="618" text-anchor="middle" font-family="sans-serif" font-size="12" fill="#4a4a45">1260</text>
<line x1="96" y1="594.00" x2="1084" y2="594.00" stroke="#e8e8df"/>
<text x="86" y="598.00" text-anchor="end" font-family="sans-serif" font-size="12" fill="#4a4a45">782</text>
<line x1="1084.00" y1="62" x2="1084.00" y2="594" stroke="#f0f0e8"/>
<text x="1084.00" y="618" text-anchor="middle" font-family="sans-serif" font-size="12" fill="#4a4a45">1535</text>
<text x="590.0" y="656" text-anchor="middle" font-family="sans-serif" font-size="15" fill="#222">Payload size (bytes)</text>
<text transform="translate(26 328.0) rotate(-90)" text-anchor="middle" font-family="sans-serif" font-size="15" fill="#222">Goodput payload (Mbps)</text>
<line x1="112" y1="82" x2="138" y2="82" stroke="#9467bd" stroke-width="3"/>
<text x="146" y="86" font-family="sans-serif" font-size="13" fill="#222">Goodput</text>
<line x1="112" y1="104" x2="138" y2="104" stroke="#111111" stroke-width="3" stroke-dasharray="8 6"/>
<text x="146" y="108" font-family="sans-serif" font-size="13" fill="#222">Teorico</text>
<polyline points="164.14,556.88 217.37,448.15 270.60,373.38 323.84,319.01 377.07,277.80 430.30,245.32 483.53,219.16 536.77,197.54 590.00,179.50 643.23,164.11 696.47,150.93 749.70,139.38 802.93,129.29 856.16,120.44 909.40,112.40 962.63,105.25 1015.86,98.71" fill="none" stroke="#9467bd" stroke-width="2.5"/>
<line x1="164.14" y1="557.27" x2="164.14" y2="556.50" stroke="#9467bd" stroke-width="1.3"/>
<line x1="159.14" y1="557.27" x2="169.14" y2="557.27" stroke="#9467bd" stroke-width="1.3"/>
<line x1="159.14" y1="556.50" x2="169.14" y2="556.50" stroke="#9467bd" stroke-width="1.3"/>
<circle cx="164.14" cy="556.88" r="4" fill="#9467bd" stroke="#ffffff" stroke-width="1"/>
<line x1="217.37" y1="448.30" x2="217.37" y2="448.00" stroke="#9467bd" stroke-width="1.3"/>
<line x1="212.37" y1="448.30" x2="222.37" y2="448.30" stroke="#9467bd" stroke-width="1.3"/>
<line x1="212.37" y1="448.00" x2="222.37" y2="448.00" stroke="#9467bd" stroke-width="1.3"/>
<circle cx="217.37" cy="448.15" r="4" fill="#9467bd" stroke="#ffffff" stroke-width="1"/>
<line x1="270.60" y1="373.65" x2="270.60" y2="373.11" stroke="#9467bd" stroke-width="1.3"/>
<line x1="265.60" y1="373.65" x2="275.60" y2="373.65" stroke="#9467bd" stroke-width="1.3"/>
<line x1="265.60" y1="373.11" x2="275.60" y2="373.11" stroke="#9467bd" stroke-width="1.3"/>
<circle cx="270.60" cy="373.38" r="4" fill="#9467bd" stroke="#ffffff" stroke-width="1"/>
<line x1="323.84" y1="319.10" x2="323.84" y2="318.92" stroke="#9467bd" stroke-width="1.3"/>
<line x1="318.84" y1="319.10" x2="328.84" y2="319.10" stroke="#9467bd" stroke-width="1.3"/>
<line x1="318.84" y1="318.92" x2="328.84" y2="318.92" stroke="#9467bd" stroke-width="1.3"/>
<circle cx="323.84" cy="319.01" r="4" fill="#9467bd" stroke="#ffffff" stroke-width="1"/>
<line x1="377.07" y1="277.95" x2="377.07" y2="277.65" stroke="#9467bd" stroke-width="1.3"/>
<line x1="372.07" y1="277.95" x2="382.07" y2="277.95" stroke="#9467bd" stroke-width="1.3"/>
<line x1="372.07" y1="277.65" x2="382.07" y2="277.65" stroke="#9467bd" stroke-width="1.3"/>
<circle cx="377.07" cy="277.80" r="4" fill="#9467bd" stroke="#ffffff" stroke-width="1"/>
<line x1="430.30" y1="245.50" x2="430.30" y2="245.14" stroke="#9467bd" stroke-width="1.3"/>
<line x1="425.30" y1="245.50" x2="435.30" y2="245.50" stroke="#9467bd" stroke-width="1.3"/>
<line x1="425.30" y1="245.14" x2="435.30" y2="245.14" stroke="#9467bd" stroke-width="1.3"/>
<circle cx="430.30" cy="245.32" r="4" fill="#9467bd" stroke="#ffffff" stroke-width="1"/>
<line x1="483.53" y1="219.31" x2="483.53" y2="219.01" stroke="#9467bd" stroke-width="1.3"/>
<line x1="478.53" y1="219.31" x2="488.53" y2="219.31" stroke="#9467bd" stroke-width="1.3"/>
<line x1="478.53" y1="219.01" x2="488.53" y2="219.01" stroke="#9467bd" stroke-width="1.3"/>
<circle cx="483.53" cy="219.16" r="4" fill="#9467bd" stroke="#ffffff" stroke-width="1"/>
<line x1="536.77" y1="197.67" x2="536.77" y2="197.41" stroke="#9467bd" stroke-width="1.3"/>
<line x1="531.77" y1="197.67" x2="541.77" y2="197.67" stroke="#9467bd" stroke-width="1.3"/>
<line x1="531.77" y1="197.41" x2="541.77" y2="197.41" stroke="#9467bd" stroke-width="1.3"/>
<circle cx="536.77" cy="197.54" r="4" fill="#9467bd" stroke="#ffffff" stroke-width="1"/>
<line x1="590.00" y1="179.63" x2="590.00" y2="179.37" stroke="#9467bd" stroke-width="1.3"/>
<line x1="585.00" y1="179.63" x2="595.00" y2="179.63" stroke="#9467bd" stroke-width="1.3"/>
<line x1="585.00" y1="179.37" x2="595.00" y2="179.37" stroke="#9467bd" stroke-width="1.3"/>
<circle cx="590.00" cy="179.50" r="4" fill="#9467bd" stroke="#ffffff" stroke-width="1"/>
<line x1="643.23" y1="164.20" x2="643.23" y2="164.01" stroke="#9467bd" stroke-width="1.3"/>
<line x1="638.23" y1="164.20" x2="648.23" y2="164.20" stroke="#9467bd" stroke-width="1.3"/>
<line x1="638.23" y1="164.01" x2="648.23" y2="164.01" stroke="#9467bd" stroke-width="1.3"/>
<circle cx="643.23" cy="164.11" r="4" fill="#9467bd" stroke="#ffffff" stroke-width="1"/>
<line x1="696.47" y1="150.99" x2="696.47" y2="150.87" stroke="#9467bd" stroke-width="1.3"/>
<line x1="691.47" y1="150.99" x2="701.47" y2="150.99" stroke="#9467bd" stroke-width="1.3"/>
<line x1="691.47" y1="150.87" x2="701.47" y2="150.87" stroke="#9467bd" stroke-width="1.3"/>
<circle cx="696.47" cy="150.93" r="4" fill="#9467bd" stroke="#ffffff" stroke-width="1"/>
<line x1="749.70" y1="139.46" x2="749.70" y2="139.31" stroke="#9467bd" stroke-width="1.3"/>
<line x1="744.70" y1="139.46" x2="754.70" y2="139.46" stroke="#9467bd" stroke-width="1.3"/>
<line x1="744.70" y1="139.31" x2="754.70" y2="139.31" stroke="#9467bd" stroke-width="1.3"/>
<circle cx="749.70" cy="139.38" r="4" fill="#9467bd" stroke="#ffffff" stroke-width="1"/>
<line x1="802.93" y1="129.38" x2="802.93" y2="129.20" stroke="#9467bd" stroke-width="1.3"/>
<line x1="797.93" y1="129.38" x2="807.93" y2="129.38" stroke="#9467bd" stroke-width="1.3"/>
<line x1="797.93" y1="129.20" x2="807.93" y2="129.20" stroke="#9467bd" stroke-width="1.3"/>
<circle cx="802.93" cy="129.29" r="4" fill="#9467bd" stroke="#ffffff" stroke-width="1"/>
<line x1="856.16" y1="120.47" x2="856.16" y2="120.42" stroke="#9467bd" stroke-width="1.3"/>
<line x1="851.16" y1="120.47" x2="861.16" y2="120.47" stroke="#9467bd" stroke-width="1.3"/>
<line x1="851.16" y1="120.42" x2="861.16" y2="120.42" stroke="#9467bd" stroke-width="1.3"/>
<circle cx="856.16" cy="120.44" r="4" fill="#9467bd" stroke="#ffffff" stroke-width="1"/>
<line x1="909.40" y1="112.48" x2="909.40" y2="112.32" stroke="#9467bd" stroke-width="1.3"/>
<line x1="904.40" y1="112.48" x2="914.40" y2="112.48" stroke="#9467bd" stroke-width="1.3"/>
<line x1="904.40" y1="112.32" x2="914.40" y2="112.32" stroke="#9467bd" stroke-width="1.3"/>
<circle cx="909.40" cy="112.40" r="4" fill="#9467bd" stroke="#ffffff" stroke-width="1"/>
<line x1="962.63" y1="105.34" x2="962.63" y2="105.17" stroke="#9467bd" stroke-width="1.3"/>
<line x1="957.63" y1="105.34" x2="967.63" y2="105.34" stroke="#9467bd" stroke-width="1.3"/>
<line x1="957.63" y1="105.17" x2="967.63" y2="105.17" stroke="#9467bd" stroke-width="1.3"/>
<circle cx="962.63" cy="105.25" r="4" fill="#9467bd" stroke="#ffffff" stroke-width="1"/>
<line x1="1015.86" y1="98.73" x2="1015.86" y2="98.69" stroke="#9467bd" stroke-width="1.3"/>
<line x1="1010.86" y1="98.73" x2="1020.86" y2="98.73" stroke="#9467bd" stroke-width="1.3"/>
<line x1="1010.86" y1="98.69" x2="1020.86" y2="98.69" stroke="#9467bd" stroke-width="1.3"/>
<circle cx="1015.86" cy="98.71" r="4" fill="#9467bd" stroke="#ffffff" stroke-width="1"/>
<polyline points="164.14,557.31 217.37,448.35 270.60,373.70 323.84,319.36 377.07,278.03 430.30,245.54 483.53,219.33 536.77,197.74 590.00,179.64 643.23,164.25 696.47,151.01 749.70,139.50 802.93,129.39 856.16,120.45 909.40,112.48 962.63,105.33 1015.86,98.89" fill="none" stroke="#111111" stroke-width="2.5" stroke-dasharray="8 6"/>
<circle cx="164.14" cy="557.31" r="4" fill="#111111" stroke="#ffffff" stroke-width="1"/>
<circle cx="217.37" cy="448.35" r="4" fill="#111111" stroke="#ffffff" stroke-width="1"/>
<circle cx="270.60" cy="373.70" r="4" fill="#111111" stroke="#ffffff" stroke-width="1"/>
<circle cx="323.84" cy="319.36" r="4" fill="#111111" stroke="#ffffff" stroke-width="1"/>
<circle cx="377.07" cy="278.03" r="4" fill="#111111" stroke="#ffffff" stroke-width="1"/>
<circle cx="430.30" cy="245.54" r="4" fill="#111111" stroke="#ffffff" stroke-width="1"/>
<circle cx="483.53" cy="219.33" r="4" fill="#111111" stroke="#ffffff" stroke-width="1"/>
<circle cx="536.77" cy="197.74" r="4" fill="#111111" stroke="#ffffff" stroke-width="1"/>
<circle cx="590.00" cy="179.64" r="4" fill="#111111" stroke="#ffffff" stroke-width="1"/>
<circle cx="643.23" cy="164.25" r="4" fill="#111111" stroke="#ffffff" stroke-width="1"/>
<circle cx="696.47" cy="151.01" r="4" fill="#111111" stroke="#ffffff" stroke-width="1"/>
<circle cx="749.70" cy="139.50" r="4" fill="#111111" stroke="#ffffff" stroke-width="1"/>
<circle cx="802.93" cy="129.39" r="4" fill="#111111" stroke="#ffffff" stroke-width="1"/>
<circle cx="856.16" cy="120.45" r="4" fill="#111111" stroke="#ffffff" stroke-width="1"/>
<circle cx="909.40" cy="112.48" r="4" fill="#111111" stroke="#ffffff" stroke-width="1"/>
<circle cx="962.63" cy="105.33" r="4" fill="#111111" stroke="#ffffff" stroke-width="1"/>
<circle cx="1015.86" cy="98.89" r="4" fill="#111111" stroke="#ffffff" stroke-width="1"/>
</svg>
