<svg xmlns="http://www.w3.org/2000/svg" width="1120" height="680" viewBox="0 0 1120 680">
<rect width="100%" height="100%" fill="#fbfbf8"/>
<text x="560.0" y="34" text-anchor="middle" font-family="sans-serif" font-size="24" fill="#222">Loopback: perdida vs payload</text>
<rect x="96" y="62" width="988" height="532" fill="#ffffff" stroke="#c9c9c1"/>
<line x1="96" y1="62.00" x2="1084" y2="62.00" stroke="#e8e8df"/>
<text x="86" y="66.00" text-anchor="end" font-family="sans-serif" font-size="12" fill="#4a4a45">0.0254</text>
<line x1="96.00" y1="62" x2="96.00" y2="594" stroke="#f0f0e8"/>
<text x="96.00" y="618" text-anchor="middle" font-family="sans-serif" font-size="12" fill="#4a4a45">161</text>
<line x1="96" y1="168.40" x2="1084" y2="168.40" stroke="#e8e8df"/>
<text x="86" y="172.40" text-anchor="end" font-family="sans-serif" font-size="12" fill="#4a4a45">0.0208</text>
<line x1="293.60" y1="62" x2="293.60" y2="594" stroke="#f0f0e8"/>
<text x="293.60" y="618" text-anchor="middle" font-family="sans-serif" font-size="12" fill="#4a4a45">436</text>
<line x1="96" y1="274.80" x2="1084" y2="274.80" stroke="#e8e8df"/>
<text x="86" y="278.80" text-anchor="end" font-family="sans-serif" font-size="12" fill="#4a4a45">0.0162</text>
<line x1="491.20" y1="62" x2="491.20" y2="594" stroke="#f0f0e8"/>
<text x="491.20" y="618" text-anchor="middle" font-family="sans-serif" font-size="12" fill="#4a4a45">711</text>
<line x1="96" y1="381.20" x2="1084" y2="381.20" stroke="#e8e8df"/>
<text x="86" y="385.20" text-anchor="end" font-family="sans-serif" font-size="12" fill="#4a4a45">0.0117</text>
<line x1="688.80" y1="62" x2="688.80" y2="594" stroke="#f0f0e8"/>
<text x="688.80" y="618" text-anchor="middle" font-family="sans-serif" font-size="12" fill="#4a4a45">985</text>
<line x1="96" y1="487.60" x2="1084" y2="487.60" stroke="#e8e8df"/>
<text x="86" y="491.60" text-anchor="end" font-family="sans-serif" font-size="12" fill="#4a4a45">0.00707</text>
<line x1="886.40" y1="62" x2="886.40" y2="594" stroke="#f0f0e8"/>
<text x="886.40" y="618" text-anchor="middle" font-family="sans-serif" font-size="12" fill="#4a4a45">1260</text>
<line x1="96" y1="594.00" x2="1084" y2="594.00" stroke="#e8e8df"/>
<text x="86" y="598.00" text-anchor="end" font-family="sans-serif" font-size="12" fill="#4a4a45">0.0025</text>
<line x1="1084.00" y1="62" x2="1084.00" y2="594" stroke="#f0f0e8"/>
<text x="1084.00" y="618" text-anchor="middle" font-family="sans-serif" font-size="12" fill="#4a4a45">1535</text>
<text x="590.0" y="656" text-anchor="middle" font-family="sans-serif" font-size="15" fill="#222">Payload size (bytes)</text>
<text transform="translate(26 328.0) rotate(-90)" text-anchor="middle" font-family="sans-serif" font-size="15" fill="#222">Perdida (%)</text>
<line x1="112" y1="82" x2="138" y2="82" stroke="#d62728" stroke-width="3"/>
<text x="146" y="86" font-family="sans-serif" font-size="13" fill="#222">Perdida</text>
<polyline points="164.14,520.94 217.37,489.79 270.60,521.87 323.84,299.65 377.07,231.31 430.30,217.83 483.53,238.75 536.77,485.14 590.00,281.98 643.23,219.22 696.47,238.75 749.70,291.75 802.93,371.71 856.16,214.57 909.40,226.66 962.63,179.24 1015.86,141.12" fill="none" stroke="#d62728" stroke-width="2.5"/>
<line x1="164.14" y1="540.63" x2="164.14" y2="501.24" stroke="#d62728" stroke-width="1.3"/>
<line x1="159.14" y1="540.63" x2="169.14" y2="540.63" stroke="#d62728" stroke-width="1.3"/>
<line x1="159.14" y1="501.24" x2="169.14" y2="501.24" stroke="#d62728" stroke-width="1.3"/>
<circle cx="164.14" cy="520.94" r="4" fill="#d62728" stroke="#ffffff" stroke-width="1"/>
<line x1="217.37" y1="536.23" x2="217.37" y2="443.35" stroke="#d62728" stroke-width="1.3"/>
<line x1="212.37" y1="536.23" x2="222.37" y2="536.23" stroke="#d62728" stroke-width="1.3"/>
<line x1="212.37" y1="443.35" x2="222.37" y2="443.35" stroke="#d62728" stroke-width="1.3"/>
<circle cx="217.37" cy="489.79" r="4" fill="#d62728" stroke="#ffffff" stroke-width="1"/>
<line x1="270.60" y1="557.31" x2="270.60" y2="486.42" stroke="#d62728" stroke-width="1.3"/>
<line x1="265.60" y1="557.31" x2="275.60" y2="557.31" stroke="#d62728" stroke-width="1.3"/>
<line x1="265.60" y1="486.42" x2="275.60" y2="486.42" stroke="#d62728" stroke-width="1.3"/>
<circle cx="270.60" cy="521.87" r="4" fill="#d62728" stroke="#ffffff" stroke-width="1"/>
<line x1="323.84" y1="350.27" x2="323.84" y2="249.03" stroke="#d62728" stroke-width="1.3"/>
<line x1="318.84" y1="350.27" x2="328.84" y2="350.27" stroke="#d62728" stroke-width="1.3"/>
<line x1="318.84" y1="249.03" x2="328.84" y2="249.03" stroke="#d62728" stroke-width="1.3"/>
<circle cx="323.84" cy="299.65" r="4" fill="#d62728" stroke="#ffffff" stroke-width="1"/>
<line x1="377.07" y1="278.89" x2="377.07" y2="183.73" stroke="#d62728" stroke-width="1.3"/>
<line x1="372.07" y1="278.89" x2="382.07" y2="278.89" stroke="#d62728" stroke-width="1.3"/>
<line x1="372.07" y1="183.73" x2="382.07" y2="183.73" stroke="#d62728" stroke-width="1.3"/>
<circle cx="377.07" cy="231.31" r="4" fill="#d62728" stroke="#ffffff" stroke-width="1"/>
<line x1="430.30" y1="299.72" x2="430.30" y2="135.93" stroke="#d62728" stroke-width="1.3"/>
<line x1="425.30" y1="299.72" x2="435.30" y2="299.72" stroke="#d62728" stroke-width="1.3"/>
<line x1="425.30" y1="135.93" x2="435.30" y2="135.93" stroke="#d62728" stroke-width="1.3"/>
<circle cx="430.30" cy="217.83" r="4" fill="#d62728" stroke="#ffffff" stroke-width="1"/>
<line x1="483.53" y1="289.12" x2="483.53" y2="188.37" stroke="#d62728" stroke-width="1.3"/>
<line x1="478.53" y1="289.12" x2="488.53" y2="289.12" stroke="#d62728" stroke-width="1.3"/>
<line x1="478.53" y1="188.37" x2="488.53" y2="188.37" stroke="#d62728" stroke-width="1.3"/>
<circle cx="483.53" cy="238.75" r="4" fill="#d62728" stroke="#ffffff" stroke-width="1"/>
<line x1="536.77" y1="500.51" x2="536.77" y2="469.77" stroke="#d62728" stroke-width="1.3"/>
<line x1="531.77" y1="500.51" x2="541.77" y2="500.51" stroke="#d62728" stroke-width="1.3"/>
<line x1="531.77" y1="469.77" x2="541.77" y2="469.77" stroke="#d62728" stroke-width="1.3"/>
<circle cx="536.77" cy="485.14" r="4" fill="#d62728" stroke="#ffffff" stroke-width="1"/>
<line x1="590.00" y1="319.01" x2="590.00" y2="244.96" stroke="#d62728" stroke-width="1.3"/>
<line x1="585.00" y1="319.01" x2="595.00" y2="319.01" stroke="#d62728" stroke-width="1.3"/>
<line x1="585.00" y1="244.96" x2="595.00" y2="244.96" stroke="#d62728" stroke-width="1.3"/>
<circle cx="590.00" cy="281.98" r="4" fill="#d62728" stroke="#ffffff" stroke-width="1"/>
<line x1="643.23" y1="252.64" x2="643.23" y2="185.80" stroke="#d62728" stroke-width="1.3"/>
<line x1="638.23" y1="252.64" x2="648.23" y2="252.64" stroke="#d62728" stroke-width="1.3"/>
<line x1="638.23" y1="185.80" x2="648.23" y2="185.80" stroke="#d62728" stroke-width="1.3"/>
<circle cx="643.23" cy="219.22" r="4" fill="#d62728" stroke="#ffffff" stroke-width="1"/>
<line x1="696.47" y1="322.06" x2="696.47" y2="155.43" stroke="#d62728" stroke-width="1.3"/>
<line x1="691.47" y1="322.06" x2="701.47" y2="322.06" stroke="#d62728" stroke-width="1.3"/>
<line x1="691.47" y1="155.43" x2="701.47" y2="155.43" stroke="#d62728" stroke-width="1.3"/>
<circle cx="696.47" cy="238.75" r="4" fill="#d62728" stroke="#ffffff" stroke-width="1"/>
<line x1="749.70" y1="360.17" x2="749.70" y2="223.32" stroke="#d62728" stroke-width="1.3"/>
<line x1="744.70" y1="360.17" x2="754.70" y2="360.17" stroke="#d62728" stroke-width="1.3"/>
<line x1="744.70" y1="223.32" x2="754.70" y2="223.32" stroke="#d62728" stroke-width="1.3"/>
<circle cx="749.70" cy="291.75" r="4" fill="#d62728" stroke="#ffffff" stroke-width="1"/>
<line x1="802.93" y1="406.52" x2="802.93" y2="336.89" stroke="#d62728" stroke-width="1.3"/>
<line x1="797.93" y1="406.52" x2="807.93" y2="406.52" stroke="#d62728" stroke-width="1.3"/>
<line x1="797.93" y1="336.89" x2="807.93" y2="336.89" stroke="#d62728" stroke-width="1.3"/>
<circle cx="802.93" cy="371.71" r="4" fill="#d62728" stroke="#ffffff" stroke-width="1"/>
<line x1="856.16" y1="283.10" x2="856.16" y2="146.04" stroke="#d62728" stroke-width="1.3"/>
<line x1="851.16" y1="283.10" x2="861.16" y2="283.10" stroke="#d62728" stroke-width="1.3"/>
<line x1="851.16" y1="146.04" x2="861.16" y2="146.04" stroke="#d62728" stroke-width="1.3"/>
<circle cx="856.16" cy="214.57" r="4" fill="#d62728" stroke="#ffffff" stroke-width="1"/>
<line x1="909.40" y1="277.53" x2="909.40" y2="175.79" stroke="#d62728" stroke-width="1.3"/>
<line x1="904.40" y1="277.53" x2="914.40" y2="277.53" stroke="#d62728" stroke-width="1.3"/>
<line x1="904.40" y1="175.79" x2="914.40" y2="175.79" stroke="#d62728" stroke-width="1.3"/>
<circle cx="909.40" cy="226.66" r="4" fill="#d62728" stroke="#ffffff" stroke-width="1"/>
<line x1="962.63" y1="223.91" x2="962.63" y2="134.57" stroke="#d62728" stroke-width="1.3"/>
<line x1="957.63" y1="223.91" x2="967.63" y2="223.91" stroke="#d62728" stroke-width="1.3"/>
<line x1="957.63" y1="134.57" x2="967.63" y2="134.57" stroke="#d62728" stroke-width="1.3"/>
<circle cx="962.63" cy="179.24" r="4" fill="#d62728" stroke="#ffffff" stroke-width="1"/>
<line x1="1015.86" y1="183.55" x2="1015.86" y2="98.69" stroke="#d62728" stroke-width="1.3"/>
<line x1="1010.86" y1="183.55" x2="1020.86" y2="183.55" stroke="#d62728" stroke-width="1.3"/>
<line x1="1010.86" y1="98.69" x2="1020.86" y2="98.69" stroke="#d62728" stroke-width="1.3"/>
<circle cx="1015.86" cy="141.12" r="4" fill="#d62728" stroke="#ffffff" stroke-width="1"/>
</svg>
