<svg xmlns="http://www.w3.org/2000/svg" width="1120" height="680" viewBox="0 0 1120 680">
<rect width="100%" height="100%" fill="#fbfbf8"/>
<text x="560.0" y="34" text-anchor="middle" font-family="sans-serif" font-size="24" fill="#222">RTT vs payload</text>
<rect x="96" y="62" width="988" height="532" fill="#ffffff" stroke="#c9c9c1"/>
<line x1="96" y1="62.00" x2="1084" y2="62.00" stroke="#e8e8df"/>
<text x="86" y="66.00" text-anchor="end" font-family="sans-serif" font-size="12" fill="#4a4a45">0.0904</text>
<line x1="96.00" y1="62" x2="96.00" y2="594" stroke="#f0f0e8"/>
<text x="96.00" y="618" text-anchor="middle" font-family="sans-serif" font-size="12" fill="#4a4a45">161</text>
<line x1="96" y1="168.40" x2="1084" y2="168.40" stroke="#e8e8df"/>
<text x="86" y="172.40" text-anchor="end" font-family="sans-serif" font-size="12" fill="#4a4a45">0.0785</text>
<line x1="293.60" y1="62" x2="293.60" y2="594" stroke="#f0f0e8"/>
<text x="293.60" y="618" text-anchor="middle" font-family="sans-serif" font-size="12" fill="#4a4a45">436</text>
<line x1="96" y1="274.80" x2="1084" y2="274.80" stroke="#e8e8df"/>
<text x="86" y="278.80" text-anchor="end" font-family="sans-serif" font-size="12" fill="#4a4a45">0.0665</text>
<line x1="491.20" y1="62" x2="491.20" y2="594" stroke="#f0f0e8"/>
<text x="491.20" y="618" text-anchor="middle" font-family="sans-serif" font-size="12" fill="#4a4a45">711</text>
<line x1="96" y1="381.20" x2="1084" y2="381.20" stroke="#e8e8df"/>
<text x="86" y="385.20" text-anchor="end" font-family="sans-serif" font-size="12" fill="#4a4a45">0.0546</text>
<line x1="688.80" y1="62" x2="688.80" y2="594" stroke="#f0f0e8"/>
<text x="688.80" y="618" text-anchor="middle" font-family="sans-serif" font-size="12" fill="#4a4a45">985</text>
<line x1="96" y1="487.60" x2="1084" y2="487.60" stroke="#e8e8df"/>
<text x="86" y="491.60" text-anchor="end" font-family="sans-serif" font-size="12" fill="#4a4a45">0.0426</text>
<line x1="886.40" y1="62" x2="886.40" y2="594" stroke="#f0f0e8"/>
<text x="886.40" y="618" text-anchor="middle" font-family="sans-serif" font-size="12" fill="#4a4a45">1260</text>
<line x1="96" y1="594.00" x2="1084" y2="594.00" stroke="#e8e8df"/>
<text x="86" y="598.00" text-anchor="end" font-family="sans-serif" font-size="12" fill="#4a4a45">0.0307</text>
<line x1="1084.00" y1="62" x2="1084.00" y2="594" stroke="#f0f0e8"/>
<text x="1084.00" y="618" text-anchor="middle" font-family="sans-serif" font-size="12" fill="#4a4a45">1535</text>
<text x="590.0" y="656" text-anchor="middle" font-family="sans-serif" font-size="15" fill="#222">Payload size (bytes)</text>
<text transform="translate(26 328.0) rotate(-90)" text-anchor="middle" font-family="sans-serif" font-size="15" fill="#222">RTT promedio (ms)</text>
<line x1="112" y1="82" x2="138" y2="82" stroke="#1f77b4" stroke-width="3"/>
<text x="146" y="86" font-family="sans-serif" font-size="13" fill="#222">RTT promedio</text>
<polyline points="164.14,556.03 217.37,523.77 270.60,498.81 323.84,471.07 377.07,440.84 430.30,411.53 483.53,382.19 536.77,352.23 590.00,325.97 643.23,298.43 696.47,270.25 749.70,242.20 802.93,211.07 856.16,180.90 909.40,155.45 962.63,127.82 1015.86,99.46" fill="none" stroke="#1f77b4" stroke-width="2.5"/>
<line x1="164.14" y1="557.31" x2="164.14" y2="554.74" stroke="#1f77b4" stroke-width="1.3"/>
<line x1="159.14" y1="557.31" x2="169.14" y2="557.31" stroke="#1f77b4" stroke-width="1.3"/>
<line x1="159.14" y1="554.74" x2="169.14" y2="554.74" stroke="#1f77b4" stroke-width="1.3"/>
<circle cx="164.14" cy="556.03" r="4" fill="#1f77b4" stroke="#ffffff" stroke-width="1"/>
<line x1="217.37" y1="524.08" x2="217.37" y2="523.47" stroke="#1f77b4" stroke-width="1.3"/>
<line x1="212.37" y1="524.08" x2="222.37" y2="524.08" stroke="#1f77b4" stroke-width="1.3"/>
<line x1="212.37" y1="523.47" x2="222.37" y2="523.47" stroke="#1f77b4" stroke-width="1.3"/>
<circle cx="217.37" cy="523.77" r="4" fill="#1f77b4" stroke="#ffffff" stroke-width="1"/>
<line x1="270.60" y1="499.77" x2="270.60" y2="497.84" stroke="#1f77b4" stroke-width="1.3"/>
<line x1="265.60" y1="499.77" x2="275.60" y2="499.77" stroke="#1f77b4" stroke-width="1.3"/>
<line x1="265.60" y1="497.84" x2="275.60" y2="497.84" stroke="#1f77b4" stroke-width="1.3"/>
<circle cx="270.60" cy="498.81" r="4" fill="#1f77b4" stroke="#ffffff" stroke-width="1"/>
<line x1="323.84" y1="471.85" x2="323.84" y2="470.30" stroke="#1f77b4" stroke-width="1.3"/>
<line x1="318.84" y1="471.85" x2="328.84" y2="471.85" stroke="#1f77b4" stroke-width="1.3"/>
<line x1="318.84" y1="470.30" x2="328.84" y2="470.30" stroke="#1f77b4" stroke-width="1.3"/>
<circle cx="323.84" cy="471.07" r="4" fill="#1f77b4" stroke="#ffffff" stroke-width="1"/>
<line x1="377.07" y1="441.17" x2="377.07" y2="440.50" stroke="#1f77b4" stroke-width="1.3"/>
<line x1="372.07" y1="441.17" x2="382.07" y2="441.17" stroke="#1f77b4" stroke-width="1.3"/>
<line x1="372.07" y1="440.50" x2="382.07" y2="440.50" stroke="#1f77b4" stroke-width="1.3"/>
<circle cx="377.07" cy="440.84" r="4" fill="#1f77b4" stroke="#ffffff" stroke-width="1"/>
<line x1="430.30" y1="412.00" x2="430.30" y2="411.06" stroke="#1f77b4" stroke-width="1.3"/>
<line x1="425.30" y1="412.00" x2="435.30" y2="412.00" stroke="#1f77b4" stroke-width="1.3"/>
<line x1="425.30" y1="411.06" x2="435.30" y2="411.06" stroke="#1f77b4" stroke-width="1.3"/>
<circle cx="430.30" cy="411.53" r="4" fill="#1f77b4" stroke="#ffffff" stroke-width="1"/>
<line x1="483.53" y1="383.05" x2="483.53" y2="381.32" stroke="#1f77b4" stroke-width="1.3"/>
<line x1="478.53" y1="383.05" x2="488.53" y2="383.05" stroke="#1f77b4" stroke-width="1.3"/>
<line x1="478.53" y1="381.32" x2="488.53" y2="381.32" stroke="#1f77b4" stroke-width="1.3"/>
<circle cx="483.53" cy="382.19" r="4" fill="#1f77b4" stroke="#ffffff" stroke-width="1"/>
<line x1="536.77" y1="352.89" x2="536.77" y2="351.57" stroke="#1f77b4" stroke-width="1.3"/>
<line x1="531.77" y1="352.89" x2="541.77" y2="352.89" stroke="#1f77b4" stroke-width="1.3"/>
<line x1="531.77" y1="351.57" x2="541.77" y2="351.57" stroke="#1f77b4" stroke-width="1.3"/>
<circle cx="536.77" cy="352.23" r="4" fill="#1f77b4" stroke="#ffffff" stroke-width="1"/>
<line x1="590.00" y1="327.06" x2="590.00" y2="324.89" stroke="#1f77b4" stroke-width="1.3"/>
<line x1="585.00" y1="327.06" x2="595.00" y2="327.06" stroke="#1f77b4" stroke-width="1.3"/>
<line x1="585.00" y1="324.89" x2="595.00" y2="324.89" stroke="#1f77b4" stroke-width="1.3"/>
<circle cx="590.00" cy="325.97" r="4" fill="#1f77b4" stroke="#ffffff" stroke-width="1"/>
<line x1="643.23" y1="299.06" x2="643.23" y2="297.81" stroke="#1f77b4" stroke-width="1.3"/>
<line x1="638.23" y1="299.06" x2="648.23" y2="299.06" stroke="#1f77b4" stroke-width="1.3"/>
<line x1="638.23" y1="297.81" x2="648.23" y2="297.81" stroke="#1f77b4" stroke-width="1.3"/>
<circle cx="643.23" cy="298.43" r="4" fill="#1f77b4" stroke="#ffffff" stroke-width="1"/>
<line x1="696.47" y1="270.65" x2="696.47" y2="269.85" stroke="#1f77b4" stroke-width="1.3"/>
<line x1="691.47" y1="270.65" x2="701.47" y2="270.65" stroke="#1f77b4" stroke-width="1.3"/>
<line x1="691.47" y1="269.85" x2="701.47" y2="269.85" stroke="#1f77b4" stroke-width="1.3"/>
<circle cx="696.47" cy="270.25" r="4" fill="#1f77b4" stroke="#ffffff" stroke-width="1"/>
<line x1="749.70" y1="242.56" x2="749.70" y2="241.84" stroke="#1f77b4" stroke-width="1.3"/>
<line x1="744.70" y1="242.56" x2="754.70" y2="242.56" stroke="#1f77b4" stroke-width="1.3"/>
<line x1="744.70" y1="241.84" x2="754.70" y2="241.84" stroke="#1f77b4" stroke-width="1.3"/>
<circle cx="749.70" cy="242.20" r="4" fill="#1f77b4" stroke="#ffffff" stroke-width="1"/>
<line x1="802.93" y1="211.55" x2="802.93" y2="210.59" stroke="#1f77b4" stroke-width="1.3"/>
<line x1="797.93" y1="211.55" x2="807.93" y2="211.55" stroke="#1f77b4" stroke-width="1.3"/>
<line x1="797.93" y1="210.59" x2="807.93" y2="210.59" stroke="#1f77b4" stroke-width="1.3"/>
<circle cx="802.93" cy="211.07" r="4" fill="#1f77b4" stroke="#ffffff" stroke-width="1"/>
<line x1="856.16" y1="181.70" x2="856.16" y2="180.10" stroke="#1f77b4" stroke-width="1.3"/>
<line x1="851.16" y1="181.70" x2="861.16" y2="181.70" stroke="#1f77b4" stroke-width="1.3"/>
<line x1="851.16" y1="180.10" x2="861.16" y2="180.10" stroke="#1f77b4" stroke-width="1.3"/>
<circle cx="856.16" cy="180.90" r="4" fill="#1f77b4" stroke="#ffffff" stroke-width="1"/>
<line x1="909.40" y1="156.54" x2="909.40" y2="154.37" stroke="#1f77b4" stroke-width="1.3"/>
<line x1="904.40" y1="156.54" x2="914.40" y2="156.54" stroke="#1f77b4" stroke-width="1.3"/>
<line x1="904.40" y1="154.37" x2="914.40" y2="154.37" stroke="#1f77b4" stroke-width="1.3"/>
<circle cx="909.40" cy="155.45" r="4" fill="#1f77b4" stroke="#ffffff" stroke-width="1"/>
<line x1="962.63" y1="128.59" x2="962.63" y2="127.05" stroke="#1f77b4" stroke-width="1.3"/>
<line x1="957.63" y1="128.59" x2="967.63" y2="128.59" stroke="#1f77b4" stroke-width="1.3"/>
<line x1="957.63" y1="127.05" x2="967.63" y2="127.05" stroke="#1f77b4" stroke-width="1.3"/>
<circle cx="962.63" cy="127.82" r="4" fill="#1f77b4" stroke="#ffffff" stroke-width="1"/>
<line x1="1015.86" y1="100.23" x2="1015.86" y2="98.69" stroke="#1f77b4" stroke-width="1.3"/>
<line x1="1010.86" y1="100.23" x2="1020.86" y2="100.23" stroke="#1f77b4" stroke-width="1.3"/>
<line x1="1010.86" y1="98.69" x2="1020.86" y2="98.69" stroke="#1f77b4" stroke-width="1.3"/>
<circle cx="1015.86" cy="99.46" r="4" fill="#1f77b4" stroke="#ffffff" stroke-width="1"/>
</svg>
