<svg xmlns="http://www.w3.org/2000/svg" width="1120" height="680" viewBox="0 0 1120 680">
<rect width="100%" height="100%" fill="#fbfbf8"/>
<text x="560.0" y="34" text-anchor="middle" font-family="sans-serif" font-size="24" fill="#222">Transmision FPGA: goodput vs payload</text>
<rect x="96" y="62" width="988" height="532" fill="#ffffff" stroke="#c9c9c1"/>
<line x1="96" y1="62.00" x2="1084" y2="62.00" stroke="#e8e8df"/>
<text x="86" y="66.00" text-anchor="end" font-family="sans-serif" font-size="12" fill="#4a4a45">969</text>
<line x1="96.00" y1="62" x2="96.00" y2="594" stroke="#f0f0e8"/>
<text x="96.00" y="618" text-anchor="middle" font-family="sans-serif" font-size="12" fill="#4a4a45">161</text>
<line x1="96" y1="168.40" x2="1084" y2="168.40" stroke="#e8e8df"/>
<text x="86" y="172.40" text-anchor="end" font-family="sans-serif" font-size="12" fill="#4a4a45">932</text>
<line x1="293.60" y1="62" x2="293.60" y2="594" stroke="#f0f0e8"/>
<text x="293.60" y="618" text-anchor="middle" font-family="sans-serif" font-size="12" fill="#4a4a45">436</text>
<line x1="96" y1="274.80" x2="1084" y2="274.80" stroke="#e8e8df"/>
<text x="86" y="278.80" text-anchor="end" font-family="sans-serif" font-size="12" fill="#4a4a45">894</text>
<line x1="491.20" y1="62" x2="491.20" y2="594" stroke="#f0f0e8"/>
<text x="491.20" y="618" text-anchor="middle" font-family="sans-serif" font-size="12" fill="#4a4a45">711</text>
<line x1="96" y1="381.20" x2="1084" y2="381.20" stroke="#e8e8df"/>
<text x="86" y="385.20" text-anchor="end" font-family="sans-serif" font-size="12" fill="#4a4a45">857</text>
<line x1="688.80" y1="62" x2="688.80" y2="594" stroke="#f0f0e8"/>
<text x="688.80" y="618" text-anchor="middle" font-family="sans-serif" font-size="12" fill="#4a4a45">985</text>
<line x1="96" y1="487.60" x2="1084" y2="487.60" stroke="#e8e8df"/>
<text x="86" y="491.60" text-anchor="end" font-family="sans-serif" font-size="12" fill="#4a4a45">820</text>
<line x1="886.40" y1="62" x2="886.40" y2="594" stroke="#f0f0e8"/>
<text x="886.40" y="618" text-anchor="middle" font-family="sans-serif" font-size="12" fill="#4a4a45">1260</text>
<line x1="96" y1="594.00" x2="1084" y2="594.00" stroke="#e8e8df"/>
<text x="86" y="598.00" text-anchor="end" font-family="sans-serif" font-size="12" fill="#4a4a45">782</text>
<line x1="1084.00" y1="62" x2="1084.00" y2="594" stroke="#f0f0e8"/>
<text x="1084.00" y="618" text-anchor="middle" font-family="sans-serif" font-size="12" fill="#4a4a45">1535</text>
<text x="590.0" y="656" text-anchor="middle" font-family="sans-serif" font-size="15" fill="#222">Payload size (bytes)</text>
<text transform="translate(26 328.0) rotate(-90)" text-anchor="middle" font-family="sans-serif" font-size="15" fill="#222">Goodput payload (Mbps)</text>
<line x1="112" y1="82" x2="138" y2="82" stroke="#9467bd" stroke-width="3"/>
<text x="146" y="86" font-family="sans-serif" font-size="13" fill="#222">Goodput</text>
<line x1="112" y1="104" x2="138" y2="104" stroke="#111111" stroke-width="3" stroke-dasharray="8 6"/>
<text x="146" y="108" font-family="sans-serif" font-size="13" fill="#222">Teorico</text>
<polyline points="164.14,556.79 217.37,448.14 270.60,373.39 323.84,319.14 377.07,277.82 430.30,245.25 483.53,219.10 536.77,197.53 590.00,179.41 643.23,164.03 696.47,150.91 749.70,139.30 802.93,129.24 856.16,120.35 909.40,112.30 962.63,105.25 1015.86,98.74" fill="none" stroke="#9467bd" stroke-width="2.5"/>
<line x1="164.14" y1="557.12" x2="164.14" y2="556.47" stroke="#9467bd" stroke-width="1.3"/>
<line x1="159.14" y1="557.12" x2="169.14" y2="557.12" stroke="#9467bd" stroke-width="1.3"/>
<line x1="159.14" y1="556.47" x2="169.14" y2="556.47" stroke="#9467bd" stroke-width="1.3"/>
<circle cx="164.14" cy="556.79" r="4" fill="#9467bd" stroke="#ffffff" stroke-width="1"/>
<line x1="217.37" y1="448.25" x2="217.37" y2="448.04" stroke="#9467bd" stroke-width="1.3"/>
<line x1="212.37" y1="448.25" x2="222.37" y2="448.25" stroke="#9467bd" stroke-width="1.3"/>
<line x1="212.37" y1="448.04" x2="222.37" y2="448.04" stroke="#9467bd" stroke-width="1.3"/>
<circle cx="217.37" cy="448.14" r="4" fill="#9467bd" stroke="#ffffff" stroke-width="1"/>
<line x1="270.60" y1="373.68" x2="270.60" y2="373.10" stroke="#9467bd" stroke-width="1.3"/>
<line x1="265.60" y1="373.68" x2="275.60" y2="373.68" stroke="#9467bd" stroke-width="1.3"/>
<line x1="265.60" y1="373.10" x2="275.60" y2="373.10" stroke="#9467bd" stroke-width="1.3"/>
<circle cx="270.60" cy="373.39" r="4" fill="#9467bd" stroke="#ffffff" stroke-width="1"/>
<line x1="323.84" y1="319.30" x2="323.84" y2="318.98" stroke="#9467bd" stroke-width="1.3"/>
<line x1="318.84" y1="319.30" x2="328.84" y2="319.30" stroke="#9467bd" stroke-width="1.3"/>
<line x1="318.84" y1="318.98" x2="328.84" y2="318.98" stroke="#9467bd" stroke-width="1.3"/>
<circle cx="323.84" cy="319.14" r="4" fill="#9467bd" stroke="#ffffff" stroke-width="1"/>
<line x1="377.07" y1="277.97" x2="377.07" y2="277.67" stroke="#9467bd" stroke-width="1.3"/>
<line x1="372.07" y1="277.97" x2="382.07" y2="277.97" stroke="#9467bd" stroke-width="1.3"/>
<line x1="372.07" y1="277.67" x2="382.07" y2="277.67" stroke="#9467bd" stroke-width="1.3"/>
<circle cx="377.07" cy="277.82" r="4" fill="#9467bd" stroke="#ffffff" stroke-width="1"/>
<line x1="430.30" y1="245.41" x2="430.30" y2="245.09" stroke="#9467bd" stroke-width="1.3"/>
<line x1="425.30" y1="245.41" x2="435.30" y2="245.41" stroke="#9467bd" stroke-width="1.3"/>
<line x1="425.30" y1="245.09" x2="435.30" y2="245.09" stroke="#9467bd" stroke-width="1.3"/>
<circle cx="430.30" cy="245.25" r="4" fill="#9467bd" stroke="#ffffff" stroke-width="1"/>
<line x1="483.53" y1="219.23" x2="483.53" y2="218.98" stroke="#9467bd" stroke-width="1.3"/>
<line x1="478.53" y1="219.23" x2="488.53" y2="219.23" stroke="#9467bd" stroke-width="1.3"/>
<line x1="478.53" y1="218.98" x2="488.53" y2="218.98" stroke="#9467bd" stroke-width="1.3"/>
<circle cx="483.53" cy="219.10" r="4" fill="#9467bd" stroke="#ffffff" stroke-width="1"/>
<line x1="536.77" y1="197.61" x2="536.77" y2="197.46" stroke="#9467bd" stroke-width="1.3"/>
<line x1="531.77" y1="197.61" x2="541.77" y2="197.61" stroke="#9467bd" stroke-width="1.3"/>
<line x1="531.77" y1="197.46" x2="541.77" y2="197.46" stroke="#9467bd" stroke-width="1.3"/>
<circle cx="536.77" cy="197.53" r="4" fill="#9467bd" stroke="#ffffff" stroke-width="1"/>
<line x1="590.00" y1="179.51" x2="590.00" y2="179.32" stroke="#9467bd" stroke-width="1.3"/>
<line x1="585.00" y1="179.51" x2="595.00" y2="179.51" stroke="#9467bd" stroke-width="1.3"/>
<line x1="585.00" y1="179.32" x2="595.00" y2="179.32" stroke="#9467bd" stroke-width="1.3"/>
<circle cx="590.00" cy="179.41" r="4" fill="#9467bd" stroke="#ffffff" stroke-width="1"/>
<line x1="643.23" y1="164.11" x2="643.23" y2="163.96" stroke="#9467bd" stroke-width="1.3"/>
<line x1="638.23" y1="164.11" x2="648.23" y2="164.11" stroke="#9467bd" stroke-width="1.3"/>
<line x1="638.23" y1="163.96" x2="648.23" y2="163.96" stroke="#9467bd" stroke-width="1.3"/>
<circle cx="643.23" cy="164.03" r="4" fill="#9467bd" stroke="#ffffff" stroke-width="1"/>
<line x1="696.47" y1="150.99" x2="696.47" y2="150.83" stroke="#9467bd" stroke-width="1.3"/>
<line x1="691.47" y1="150.99" x2="701.47" y2="150.99" stroke="#9467bd" stroke-width="1.3"/>
<line x1="691.47" y1="150.83" x2="701.47" y2="150.83" stroke="#9467bd" stroke-width="1.3"/>
<circle cx="696.47" cy="150.91" r="4" fill="#9467bd" stroke="#ffffff" stroke-width="1"/>
<line x1="749.70" y1="139.39" x2="749.70" y2="139.20" stroke="#9467bd" stroke-width="1.3"/>
<line x1="744.70" y1="139.39" x2="754.70" y2="139.39" stroke="#9467bd" stroke-width="1.3"/>
<line x1="744.70" y1="139.20" x2="754.70" y2="139.20" stroke="#9467bd" stroke-width="1.3"/>
<circle cx="749.70" cy="139.30" r="4" fill="#9467bd" stroke="#ffffff" stroke-width="1"/>
<line x1="802.93" y1="129.34" x2="802.93" y2="129.15" stroke="#9467bd" stroke-width="1.3"/>
<line x1="797.93" y1="129.34" x2="807.93" y2="129.34" stroke="#9467bd" stroke-width="1.3"/>
<line x1="797.93" y1="129.15" x2="807.93" y2="129.15" stroke="#9467bd" stroke-width="1.3"/>
<circle cx="802.93" cy="129.24" r="4" fill="#9467bd" stroke="#ffffff" stroke-width="1"/>
<line x1="856.16" y1="120.40" x2="856.16" y2="120.30" stroke="#9467bd" stroke-width="1.3"/>
<line x1="851.16" y1="120.40" x2="861.16" y2="120.40" stroke="#9467bd" stroke-width="1.3"/>
<line x1="851.16" y1="120.30" x2="861.16" y2="120.30" stroke="#9467bd" stroke-width="1.3"/>
<circle cx="856.16" cy="120.35" r="4" fill="#9467bd" stroke="#ffffff" stroke-width="1"/>
<line x1="909.40" y1="112.38" x2="909.40" y2="112.23" stroke="#9467bd" stroke-width="1.3"/>
<line x1="904.40" y1="112.38" x2="914.40" y2="112.38" stroke="#9467bd" stroke-width="1.3"/>
<line x1="904.40" y1="112.23" x2="914.40" y2="112.23" stroke="#9467bd" stroke-width="1.3"/>
<circle cx="909.40" cy="112.30" r="4" fill="#9467bd" stroke="#ffffff" stroke-width="1"/>
<line x1="962.63" y1="105.29" x2="962.63" y2="105.22" stroke="#9467bd" stroke-width="1.3"/>
<line x1="957.63" y1="105.29" x2="967.63" y2="105.29" stroke="#9467bd" stroke-width="1.3"/>
<line x1="957.63" y1="105.22" x2="967.63" y2="105.22" stroke="#9467bd" stroke-width="1.3"/>
<circle cx="962.63" cy="105.25" r="4" fill="#9467bd" stroke="#ffffff" stroke-width="1"/>
<line x1="1015.86" y1="98.79" x2="1015.86" y2="98.69" stroke="#9467bd" stroke-width="1.3"/>
<line x1="1010.86" y1="98.79" x2="1020.86" y2="98.79" stroke="#9467bd" stroke-width="1.3"/>
<line x1="1010.86" y1="98.69" x2="1020.86" y2="98.69" stroke="#9467bd" stroke-width="1.3"/>
<circle cx="1015.86" cy="98.74" r="4" fill="#9467bd" stroke="#ffffff" stroke-width="1"/>
<polyline points="164.14,557.31 217.37,448.34 270.60,373.69 323.84,319.35 377.07,278.02 430.30,245.53 483.53,219.32 536.77,197.72 590.00,179.63 643.23,164.24 696.47,151.00 749.70,139.48 802.93,129.37 856.16,120.43 909.40,112.46 962.63,105.32 1015.86,98.87" fill="none" stroke="#111111" stroke-width="2.5" stroke-dasharray="8 6"/>
<circle cx="164.14" cy="557.31" r="4" fill="#111111" stroke="#ffffff" stroke-width="1"/>
<circle cx="217.37" cy="448.34" r="4" fill="#111111" stroke="#ffffff" stroke-width="1"/>
<circle cx="270.60" cy="373.69" r="4" fill="#111111" stroke="#ffffff" stroke-width="1"/>
<circle cx="323.84" cy="319.35" r="4" fill="#111111" stroke="#ffffff" stroke-width="1"/>
<circle cx="377.07" cy="278.02" r="4" fill="#111111" stroke="#ffffff" stroke-width="1"/>
<circle cx="430.30" cy="245.53" r="4" fill="#111111" stroke="#ffffff" stroke-width="1"/>
<circle cx="483.53" cy="219.32" r="4" fill="#111111" stroke="#ffffff" stroke-width="1"/>
<circle cx="536.77" cy="197.72" r="4" fill="#111111" stroke="#ffffff" stroke-width="1"/>
<circle cx="590.00" cy="179.63" r="4" fill="#111111" stroke="#ffffff" stroke-width="1"/>
<circle cx="643.23" cy="164.24" r="4" fill="#111111" stroke="#ffffff" stroke-width="1"/>
<circle cx="696.47" cy="151.00" r="4" fill="#111111" stroke="#ffffff" stroke-width="1"/>
<circle cx="749.70" cy="139.48" r="4" fill="#111111" stroke="#ffffff" stroke-width="1"/>
<circle cx="802.93" cy="129.37" r="4" fill="#111111" stroke="#ffffff" stroke-width="1"/>
<circle cx="856.16" cy="120.43" r="4" fill="#111111" stroke="#ffffff" stroke-width="1"/>
<circle cx="909.40" cy="112.46" r="4" fill="#111111" stroke="#ffffff" stroke-width="1"/>
<circle cx="962.63" cy="105.32" r="4" fill="#111111" stroke="#ffffff" stroke-width="1"/>
<circle cx="1015.86" cy="98.87" r="4" fill="#111111" stroke="#ffffff" stroke-width="1"/>
</svg>
