<svg xmlns="http://www.w3.org/2000/svg" width="1120" height="760" viewBox="0 0 1120 760">
<rect width="100%" height="100%" fill="#fbfbf8"/>
<text x="560.0" y="34" text-anchor="middle" font-family="sans-serif" font-size="24" fill="#222">RTT entre interfaz y FPGA vs. payload</text>
<rect x="96" y="106" width="988" height="562" fill="#ffffff" stroke="#c9c9c1"/>
<line x1="96" y1="106.00" x2="1084" y2="106.00" stroke="#a9aba3" stroke-width="1.35"/>
<text x="86" y="110.00" text-anchor="end" font-family="sans-serif" font-size="13" font-weight="400" fill="#292925">0.1101</text>
<line x1="96" y1="199.67" x2="1084" y2="199.67" stroke="#a9aba3" stroke-width="1.35"/>
<text x="86" y="203.67" text-anchor="end" font-family="sans-serif" font-size="13" font-weight="400" fill="#292925">0.0917</text>
<line x1="96" y1="293.33" x2="1084" y2="293.33" stroke="#a9aba3" stroke-width="1.35"/>
<text x="86" y="297.33" text-anchor="end" font-family="sans-serif" font-size="13" font-weight="400" fill="#292925">0.0734</text>
<line x1="96" y1="387.00" x2="1084" y2="387.00" stroke="#a9aba3" stroke-width="1.35"/>
<text x="86" y="391.00" text-anchor="end" font-family="sans-serif" font-size="13" font-weight="400" fill="#292925">0.055</text>
<line x1="96" y1="480.67" x2="1084" y2="480.67" stroke="#a9aba3" stroke-width="1.35"/>
<text x="86" y="484.67" text-anchor="end" font-family="sans-serif" font-size="13" font-weight="400" fill="#292925">0.0367</text>
<line x1="96" y1="574.33" x2="1084" y2="574.33" stroke="#a9aba3" stroke-width="1.35"/>
<text x="86" y="578.33" text-anchor="end" font-family="sans-serif" font-size="13" font-weight="400" fill="#292925">0.0183</text>
<line x1="96" y1="668.00" x2="1084" y2="668.00" stroke="#4f504b" stroke-width="2.2"/>
<text x="86" y="672.00" text-anchor="end" font-family="sans-serif" font-size="13" font-weight="600" fill="#292925">0</text>
<line x1="113.55" y1="106" x2="113.55" y2="668" stroke="#b4b6ae" stroke-width="1.25"/>
<text transform="translate(113.55 688) rotate(-45)" text-anchor="end" font-family="sans-serif" font-size="11" font-weight="500" fill="#292925">256</text>
<line x1="163.71" y1="106" x2="163.71" y2="668" stroke="#b4b6ae" stroke-width="1.25"/>
<text transform="translate(163.71 688) rotate(-45)" text-anchor="end" font-family="sans-serif" font-size="11" font-weight="500" fill="#292925">320</text>
<line x1="213.86" y1="106" x2="213.86" y2="668" stroke="#b4b6ae" stroke-width="1.25"/>
<text transform="translate(213.86 688) rotate(-45)" text-anchor="end" font-family="sans-serif" font-size="11" font-weight="500" fill="#292925">384</text>
<line x1="264.01" y1="106" x2="264.01" y2="668" stroke="#b4b6ae" stroke-width="1.25"/>
<text transform="translate(264.01 688) rotate(-45)" text-anchor="end" font-family="sans-serif" font-size="11" font-weight="500" fill="#292925">448</text>
<line x1="314.16" y1="106" x2="314.16" y2="668" stroke="#b4b6ae" stroke-width="1.25"/>
<text transform="translate(314.16 688) rotate(-45)" text-anchor="end" font-family="sans-serif" font-size="11" font-weight="500" fill="#292925">512</text>
<line x1="364.31" y1="106" x2="364.31" y2="668" stroke="#b4b6ae" stroke-width="1.25"/>
<text transform="translate(364.31 688) rotate(-45)" text-anchor="end" font-family="sans-serif" font-size="11" font-weight="500" fill="#292925">576</text>
<line x1="414.47" y1="106" x2="414.47" y2="668" stroke="#b4b6ae" stroke-width="1.25"/>
<text transform="translate(414.47 688) rotate(-45)" text-anchor="end" font-family="sans-serif" font-size="11" font-weight="500" fill="#292925">640</text>
<line x1="464.62" y1="106" x2="464.62" y2="668" stroke="#b4b6ae" stroke-width="1.25"/>
<text transform="translate(464.62 688) rotate(-45)" text-anchor="end" font-family="sans-serif" font-size="11" font-weight="500" fill="#292925">704</text>
<line x1="514.77" y1="106" x2="514.77" y2="668" stroke="#b4b6ae" stroke-width="1.25"/>
<text transform="translate(514.77 688) rotate(-45)" text-anchor="end" font-family="sans-serif" font-size="11" font-weight="500" fill="#292925">768</text>
<line x1="564.92" y1="106" x2="564.92" y2="668" stroke="#b4b6ae" stroke-width="1.25"/>
<text transform="translate(564.92 688) rotate(-45)" text-anchor="end" font-family="sans-serif" font-size="11" font-weight="500" fill="#292925">832</text>
<line x1="615.08" y1="106" x2="615.08" y2="668" stroke="#b4b6ae" stroke-width="1.25"/>
<text transform="translate(615.08 688) rotate(-45)" text-anchor="end" font-family="sans-serif" font-size="11" font-weight="500" fill="#292925">896</text>
<line x1="665.23" y1="106" x2="665.23" y2="668" stroke="#b4b6ae" stroke-width="1.25"/>
<text transform="translate(665.23 688) rotate(-45)" text-anchor="end" font-family="sans-serif" font-size="11" font-weight="500" fill="#292925">960</text>
<line x1="715.38" y1="106" x2="715.38" y2="668" stroke="#b4b6ae" stroke-width="1.25"/>
<text transform="translate(715.38 688) rotate(-45)" text-anchor="end" font-family="sans-serif" font-size="11" font-weight="500" fill="#292925">1024</text>
<line x1="765.53" y1="106" x2="765.53" y2="668" stroke="#b4b6ae" stroke-width="1.25"/>
<text transform="translate(765.53 688) rotate(-45)" text-anchor="end" font-family="sans-serif" font-size="11" font-weight="500" fill="#292925">1088</text>
<line x1="815.69" y1="106" x2="815.69" y2="668" stroke="#b4b6ae" stroke-width="1.25"/>
<text transform="translate(815.69 688) rotate(-45)" text-anchor="end" font-family="sans-serif" font-size="11" font-weight="500" fill="#292925">1152</text>
<line x1="865.84" y1="106" x2="865.84" y2="668" stroke="#b4b6ae" stroke-width="1.25"/>
<text transform="translate(865.84 688) rotate(-45)" text-anchor="end" font-family="sans-serif" font-size="11" font-weight="500" fill="#292925">1216</text>
<line x1="915.99" y1="106" x2="915.99" y2="668" stroke="#b4b6ae" stroke-width="1.25"/>
<text transform="translate(915.99 688) rotate(-45)" text-anchor="end" font-family="sans-serif" font-size="11" font-weight="500" fill="#292925">1280</text>
<line x1="966.14" y1="106" x2="966.14" y2="668" stroke="#b4b6ae" stroke-width="1.25"/>
<text transform="translate(966.14 688) rotate(-45)" text-anchor="end" font-family="sans-serif" font-size="11" font-weight="500" fill="#292925">1344</text>
<line x1="1016.29" y1="106" x2="1016.29" y2="668" stroke="#b4b6ae" stroke-width="1.25"/>
<text transform="translate(1016.29 688) rotate(-45)" text-anchor="end" font-family="sans-serif" font-size="11" font-weight="500" fill="#292925">1408</text>
<line x1="1066.45" y1="106" x2="1066.45" y2="668" stroke="#b4b6ae" stroke-width="1.25"/>
<text transform="translate(1066.45 688) rotate(-45)" text-anchor="end" font-family="sans-serif" font-size="11" font-weight="500" fill="#292925">1472</text>
<text x="590.0" y="736" text-anchor="middle" font-family="sans-serif" font-size="17" font-weight="600" fill="#171715">Tamaño del payload (bytes)</text>
<text transform="translate(24 387.0) rotate(-90)" text-anchor="middle" font-family="sans-serif" font-size="17" font-weight="600" fill="#171715">RTT promedio entre interfaz y FPGA (ms)</text>
<line x1="96.0" y1="64" x2="122.0" y2="64" stroke="#1f77b4" stroke-width="3"/>
<text x="130.0" y="68" font-family="sans-serif" font-size="13" fill="#222">RTT interfaz-FPGA</text>
<polyline points="113.55,463.02 163.71,468.05 213.86,464.42 264.01,425.75 314.16,425.66 364.31,413.10 414.47,402.82 464.62,381.95 514.77,343.11 564.92,278.89 615.08,272.46 665.23,257.34 715.38,246.39 765.53,231.78 815.69,216.80 865.84,200.61 915.99,188.86 966.14,174.54 1016.29,160.15 1066.45,148.40" fill="none" stroke="#1f77b4" stroke-width="2.5"/>
<line x1="113.55" y1="502.19" x2="113.55" y2="423.86" stroke="#1f77b4" stroke-width="1.3"/>
<line x1="108.55" y1="502.19" x2="118.55" y2="502.19" stroke="#1f77b4" stroke-width="1.3"/>
<line x1="108.55" y1="423.86" x2="118.55" y2="423.86" stroke="#1f77b4" stroke-width="1.3"/>
<circle cx="113.55" cy="463.02" r="4" fill="#1f77b4" stroke="#ffffff" stroke-width="1"/>
<line x1="163.71" y1="477.23" x2="163.71" y2="458.87" stroke="#1f77b4" stroke-width="1.3"/>
<line x1="158.71" y1="477.23" x2="168.71" y2="477.23" stroke="#1f77b4" stroke-width="1.3"/>
<line x1="158.71" y1="458.87" x2="168.71" y2="458.87" stroke="#1f77b4" stroke-width="1.3"/>
<circle cx="163.71" cy="468.05" r="4" fill="#1f77b4" stroke="#ffffff" stroke-width="1"/>
<line x1="213.86" y1="477.89" x2="213.86" y2="450.95" stroke="#1f77b4" stroke-width="1.3"/>
<line x1="208.86" y1="477.89" x2="218.86" y2="477.89" stroke="#1f77b4" stroke-width="1.3"/>
<line x1="208.86" y1="450.95" x2="218.86" y2="450.95" stroke="#1f77b4" stroke-width="1.3"/>
<circle cx="213.86" cy="464.42" r="4" fill="#1f77b4" stroke="#ffffff" stroke-width="1"/>
<line x1="264.01" y1="479.92" x2="264.01" y2="371.59" stroke="#1f77b4" stroke-width="1.3"/>
<line x1="259.01" y1="479.92" x2="269.01" y2="479.92" stroke="#1f77b4" stroke-width="1.3"/>
<line x1="259.01" y1="371.59" x2="269.01" y2="371.59" stroke="#1f77b4" stroke-width="1.3"/>
<circle cx="264.01" cy="425.75" r="4" fill="#1f77b4" stroke="#ffffff" stroke-width="1"/>
<line x1="314.16" y1="432.99" x2="314.16" y2="418.33" stroke="#1f77b4" stroke-width="1.3"/>
<line x1="309.16" y1="432.99" x2="319.16" y2="432.99" stroke="#1f77b4" stroke-width="1.3"/>
<line x1="309.16" y1="418.33" x2="319.16" y2="418.33" stroke="#1f77b4" stroke-width="1.3"/>
<circle cx="314.16" cy="425.66" r="4" fill="#1f77b4" stroke="#ffffff" stroke-width="1"/>
<line x1="364.31" y1="414.37" x2="364.31" y2="411.82" stroke="#1f77b4" stroke-width="1.3"/>
<line x1="359.31" y1="414.37" x2="369.31" y2="414.37" stroke="#1f77b4" stroke-width="1.3"/>
<line x1="359.31" y1="411.82" x2="369.31" y2="411.82" stroke="#1f77b4" stroke-width="1.3"/>
<circle cx="364.31" cy="413.10" r="4" fill="#1f77b4" stroke="#ffffff" stroke-width="1"/>
<line x1="414.47" y1="410.06" x2="414.47" y2="395.57" stroke="#1f77b4" stroke-width="1.3"/>
<line x1="409.47" y1="410.06" x2="419.47" y2="410.06" stroke="#1f77b4" stroke-width="1.3"/>
<line x1="409.47" y1="395.57" x2="419.47" y2="395.57" stroke="#1f77b4" stroke-width="1.3"/>
<circle cx="414.47" cy="402.82" r="4" fill="#1f77b4" stroke="#ffffff" stroke-width="1"/>
<line x1="464.62" y1="393.57" x2="464.62" y2="370.33" stroke="#1f77b4" stroke-width="1.3"/>
<line x1="459.62" y1="393.57" x2="469.62" y2="393.57" stroke="#1f77b4" stroke-width="1.3"/>
<line x1="459.62" y1="370.33" x2="469.62" y2="370.33" stroke="#1f77b4" stroke-width="1.3"/>
<circle cx="464.62" cy="381.95" r="4" fill="#1f77b4" stroke="#ffffff" stroke-width="1"/>
<line x1="514.77" y1="361.79" x2="514.77" y2="324.42" stroke="#1f77b4" stroke-width="1.3"/>
<line x1="509.77" y1="361.79" x2="519.77" y2="361.79" stroke="#1f77b4" stroke-width="1.3"/>
<line x1="509.77" y1="324.42" x2="519.77" y2="324.42" stroke="#1f77b4" stroke-width="1.3"/>
<circle cx="514.77" cy="343.11" r="4" fill="#1f77b4" stroke="#ffffff" stroke-width="1"/>
<line x1="564.92" y1="281.76" x2="564.92" y2="276.03" stroke="#1f77b4" stroke-width="1.3"/>
<line x1="559.92" y1="281.76" x2="569.92" y2="281.76" stroke="#1f77b4" stroke-width="1.3"/>
<line x1="559.92" y1="276.03" x2="569.92" y2="276.03" stroke="#1f77b4" stroke-width="1.3"/>
<circle cx="564.92" cy="278.89" r="4" fill="#1f77b4" stroke="#ffffff" stroke-width="1"/>
<line x1="615.08" y1="273.41" x2="615.08" y2="271.50" stroke="#1f77b4" stroke-width="1.3"/>
<line x1="610.08" y1="273.41" x2="620.08" y2="273.41" stroke="#1f77b4" stroke-width="1.3"/>
<line x1="610.08" y1="271.50" x2="620.08" y2="271.50" stroke="#1f77b4" stroke-width="1.3"/>
<circle cx="615.08" cy="272.46" r="4" fill="#1f77b4" stroke="#ffffff" stroke-width="1"/>
<line x1="665.23" y1="258.40" x2="665.23" y2="256.29" stroke="#1f77b4" stroke-width="1.3"/>
<line x1="660.23" y1="258.40" x2="670.23" y2="258.40" stroke="#1f77b4" stroke-width="1.3"/>
<line x1="660.23" y1="256.29" x2="670.23" y2="256.29" stroke="#1f77b4" stroke-width="1.3"/>
<circle cx="665.23" cy="257.34" r="4" fill="#1f77b4" stroke="#ffffff" stroke-width="1"/>
<line x1="715.38" y1="247.36" x2="715.38" y2="245.41" stroke="#1f77b4" stroke-width="1.3"/>
<line x1="710.38" y1="247.36" x2="720.38" y2="247.36" stroke="#1f77b4" stroke-width="1.3"/>
<line x1="710.38" y1="245.41" x2="720.38" y2="245.41" stroke="#1f77b4" stroke-width="1.3"/>
<circle cx="715.38" cy="246.39" r="4" fill="#1f77b4" stroke="#ffffff" stroke-width="1"/>
<line x1="765.53" y1="233.20" x2="765.53" y2="230.37" stroke="#1f77b4" stroke-width="1.3"/>
<line x1="760.53" y1="233.20" x2="770.53" y2="233.20" stroke="#1f77b4" stroke-width="1.3"/>
<line x1="760.53" y1="230.37" x2="770.53" y2="230.37" stroke="#1f77b4" stroke-width="1.3"/>
<circle cx="765.53" cy="231.78" r="4" fill="#1f77b4" stroke="#ffffff" stroke-width="1"/>
<line x1="815.69" y1="218.01" x2="815.69" y2="215.58" stroke="#1f77b4" stroke-width="1.3"/>
<line x1="810.69" y1="218.01" x2="820.69" y2="218.01" stroke="#1f77b4" stroke-width="1.3"/>
<line x1="810.69" y1="215.58" x2="820.69" y2="215.58" stroke="#1f77b4" stroke-width="1.3"/>
<circle cx="815.69" cy="216.80" r="4" fill="#1f77b4" stroke="#ffffff" stroke-width="1"/>
<line x1="865.84" y1="201.64" x2="865.84" y2="199.58" stroke="#1f77b4" stroke-width="1.3"/>
<line x1="860.84" y1="201.64" x2="870.84" y2="201.64" stroke="#1f77b4" stroke-width="1.3"/>
<line x1="860.84" y1="199.58" x2="870.84" y2="199.58" stroke="#1f77b4" stroke-width="1.3"/>
<circle cx="865.84" cy="200.61" r="4" fill="#1f77b4" stroke="#ffffff" stroke-width="1"/>
<line x1="915.99" y1="189.65" x2="915.99" y2="188.08" stroke="#1f77b4" stroke-width="1.3"/>
<line x1="910.99" y1="189.65" x2="920.99" y2="189.65" stroke="#1f77b4" stroke-width="1.3"/>
<line x1="910.99" y1="188.08" x2="920.99" y2="188.08" stroke="#1f77b4" stroke-width="1.3"/>
<circle cx="915.99" cy="188.86" r="4" fill="#1f77b4" stroke="#ffffff" stroke-width="1"/>
<line x1="966.14" y1="175.80" x2="966.14" y2="173.28" stroke="#1f77b4" stroke-width="1.3"/>
<line x1="961.14" y1="175.80" x2="971.14" y2="175.80" stroke="#1f77b4" stroke-width="1.3"/>
<line x1="961.14" y1="173.28" x2="971.14" y2="173.28" stroke="#1f77b4" stroke-width="1.3"/>
<circle cx="966.14" cy="174.54" r="4" fill="#1f77b4" stroke="#ffffff" stroke-width="1"/>
<line x1="1016.29" y1="160.65" x2="1016.29" y2="159.65" stroke="#1f77b4" stroke-width="1.3"/>
<line x1="1011.29" y1="160.65" x2="1021.29" y2="160.65" stroke="#1f77b4" stroke-width="1.3"/>
<line x1="1011.29" y1="159.65" x2="1021.29" y2="159.65" stroke="#1f77b4" stroke-width="1.3"/>
<circle cx="1016.29" cy="160.15" r="4" fill="#1f77b4" stroke="#ffffff" stroke-width="1"/>
<line x1="1066.45" y1="149.17" x2="1066.45" y2="147.63" stroke="#1f77b4" stroke-width="1.3"/>
<line x1="1061.45" y1="149.17" x2="1071.45" y2="149.17" stroke="#1f77b4" stroke-width="1.3"/>
<line x1="1061.45" y1="147.63" x2="1071.45" y2="147.63" stroke="#1f77b4" stroke-width="1.3"/>
<circle cx="1066.45" cy="148.40" r="4" fill="#1f77b4" stroke="#ffffff" stroke-width="1"/>
</svg>
