<svg xmlns="http://www.w3.org/2000/svg" width="1120" height="760" viewBox="0 0 1120 760">
<rect width="100%" height="100%" fill="#fbfbf8"/>
<text x="560.0" y="34" text-anchor="middle" font-family="sans-serif" font-size="24" fill="#222">Pérdidas UDP bidireccionales vs. payload</text>
<rect x="96" y="106" width="988" height="562" fill="#ffffff" stroke="#c9c9c1"/>
<line x1="96" y1="106.00" x2="1084" y2="106.00" stroke="#a9aba3" stroke-width="1.35"/>
<text x="86" y="110.00" text-anchor="end" font-family="sans-serif" font-size="13" font-weight="400" fill="#292925">67.8</text>
<line x1="96" y1="199.67" x2="1084" y2="199.67" stroke="#a9aba3" stroke-width="1.35"/>
<text x="86" y="203.67" text-anchor="end" font-family="sans-serif" font-size="13" font-weight="400" fill="#292925">55.1</text>
<line x1="96" y1="293.33" x2="1084" y2="293.33" stroke="#a9aba3" stroke-width="1.35"/>
<text x="86" y="297.33" text-anchor="end" font-family="sans-serif" font-size="13" font-weight="400" fill="#292925">42.5</text>
<line x1="96" y1="387.00" x2="1084" y2="387.00" stroke="#a9aba3" stroke-width="1.35"/>
<text x="86" y="391.00" text-anchor="end" font-family="sans-serif" font-size="13" font-weight="400" fill="#292925">29.8</text>
<line x1="96" y1="480.67" x2="1084" y2="480.67" stroke="#a9aba3" stroke-width="1.35"/>
<text x="86" y="484.67" text-anchor="end" font-family="sans-serif" font-size="13" font-weight="400" fill="#292925">17.2</text>
<line x1="96" y1="574.33" x2="1084" y2="574.33" stroke="#a9aba3" stroke-width="1.35"/>
<text x="86" y="578.33" text-anchor="end" font-family="sans-serif" font-size="13" font-weight="400" fill="#292925">4.57</text>
<line x1="96" y1="668.00" x2="1084" y2="668.00" stroke="#a9aba3" stroke-width="1.35"/>
<text x="86" y="672.00" text-anchor="end" font-family="sans-serif" font-size="13" font-weight="400" fill="#292925">-8.06</text>
<line x1="96" y1="608.24" x2="1084" y2="608.24" stroke="#676761" stroke-width="1.8"/>
<text x="86" y="612.24" text-anchor="end" font-family="sans-serif" font-size="12" font-weight="600" fill="#222">0</text>
<line x1="113.55" y1="106" x2="113.55" y2="668" stroke="#b4b6ae" stroke-width="1.25"/>
<text transform="translate(113.55 688) rotate(-45)" text-anchor="end" font-family="sans-serif" font-size="11" font-weight="500" fill="#292925">256</text>
<line x1="163.71" y1="106" x2="163.71" y2="668" stroke="#b4b6ae" stroke-width="1.25"/>
<text transform="translate(163.71 688) rotate(-45)" text-anchor="end" font-family="sans-serif" font-size="11" font-weight="500" fill="#292925">320</text>
<line x1="213.86" y1="106" x2="213.86" y2="668" stroke="#b4b6ae" stroke-width="1.25"/>
<text transform="translate(213.86 688) rotate(-45)" text-anchor="end" font-family="sans-serif" font-size="11" font-weight="500" fill="#292925">384</text>
<line x1="264.01" y1="106" x2="264.01" y2="668" stroke="#b4b6ae" stroke-width="1.25"/>
<text transform="translate(264.01 688) rotate(-45)" text-anchor="end" font-family="sans-serif" font-size="11" font-weight="500" fill="#292925">448</text>
<line x1="314.16" y1="106" x2="314.16" y2="668" stroke="#b4b6ae" stroke-width="1.25"/>
<text transform="translate(314.16 688) rotate(-45)" text-anchor="end" font-family="sans-serif" font-size="11" font-weight="500" fill="#292925">512</text>
<line x1="364.31" y1="106" x2="364.31" y2="668" stroke="#b4b6ae" stroke-width="1.25"/>
<text transform="translate(364.31 688) rotate(-45)" text-anchor="end" font-family="sans-serif" font-size="11" font-weight="500" fill="#292925">576</text>
<line x1="414.47" y1="106" x2="414.47" y2="668" stroke="#b4b6ae" stroke-width="1.25"/>
<text transform="translate(414.47 688) rotate(-45)" text-anchor="end" font-family="sans-serif" font-size="11" font-weight="500" fill="#292925">640</text>
<line x1="464.62" y1="106" x2="464.62" y2="668" stroke="#b4b6ae" stroke-width="1.25"/>
<text transform="translate(464.62 688) rotate(-45)" text-anchor="end" font-family="sans-serif" font-size="11" font-weight="500" fill="#292925">704</text>
<line x1="514.77" y1="106" x2="514.77" y2="668" stroke="#b4b6ae" stroke-width="1.25"/>
<text transform="translate(514.77 688) rotate(-45)" text-anchor="end" font-family="sans-serif" font-size="11" font-weight="500" fill="#292925">768</text>
<line x1="564.92" y1="106" x2="564.92" y2="668" stroke="#b4b6ae" stroke-width="1.25"/>
<text transform="translate(564.92 688) rotate(-45)" text-anchor="end" font-family="sans-serif" font-size="11" font-weight="500" fill="#292925">832</text>
<line x1="615.08" y1="106" x2="615.08" y2="668" stroke="#b4b6ae" stroke-width="1.25"/>
<text transform="translate(615.08 688) rotate(-45)" text-anchor="end" font-family="sans-serif" font-size="11" font-weight="500" fill="#292925">896</text>
<line x1="665.23" y1="106" x2="665.23" y2="668" stroke="#b4b6ae" stroke-width="1.25"/>
<text transform="translate(665.23 688) rotate(-45)" text-anchor="end" font-family="sans-serif" font-size="11" font-weight="500" fill="#292925">960</text>
<line x1="715.38" y1="106" x2="715.38" y2="668" stroke="#b4b6ae" stroke-width="1.25"/>
<text transform="translate(715.38 688) rotate(-45)" text-anchor="end" font-family="sans-serif" font-size="11" font-weight="500" fill="#292925">1024</text>
<line x1="765.53" y1="106" x2="765.53" y2="668" stroke="#b4b6ae" stroke-width="1.25"/>
<text transform="translate(765.53 688) rotate(-45)" text-anchor="end" font-family="sans-serif" font-size="11" font-weight="500" fill="#292925">1088</text>
<line x1="815.69" y1="106" x2="815.69" y2="668" stroke="#b4b6ae" stroke-width="1.25"/>
<text transform="translate(815.69 688) rotate(-45)" text-anchor="end" font-family="sans-serif" font-size="11" font-weight="500" fill="#292925">1152</text>
<line x1="865.84" y1="106" x2="865.84" y2="668" stroke="#b4b6ae" stroke-width="1.25"/>
<text transform="translate(865.84 688) rotate(-45)" text-anchor="end" font-family="sans-serif" font-size="11" font-weight="500" fill="#292925">1216</text>
<line x1="915.99" y1="106" x2="915.99" y2="668" stroke="#b4b6ae" stroke-width="1.25"/>
<text transform="translate(915.99 688) rotate(-45)" text-anchor="end" font-family="sans-serif" font-size="11" font-weight="500" fill="#292925">1280</text>
<line x1="966.14" y1="106" x2="966.14" y2="668" stroke="#b4b6ae" stroke-width="1.25"/>
<text transform="translate(966.14 688) rotate(-45)" text-anchor="end" font-family="sans-serif" font-size="11" font-weight="500" fill="#292925">1344</text>
<line x1="1016.29" y1="106" x2="1016.29" y2="668" stroke="#b4b6ae" stroke-width="1.25"/>
<text transform="translate(1016.29 688) rotate(-45)" text-anchor="end" font-family="sans-serif" font-size="11" font-weight="500" fill="#292925">1408</text>
<line x1="1066.45" y1="106" x2="1066.45" y2="668" stroke="#b4b6ae" stroke-width="1.25"/>
<text transform="translate(1066.45 688) rotate(-45)" text-anchor="end" font-family="sans-serif" font-size="11" font-weight="500" fill="#292925">1472</text>
<text x="590.0" y="736" text-anchor="middle" font-family="sans-serif" font-size="17" font-weight="600" fill="#171715">Tamaño del payload (bytes)</text>
<text transform="translate(24 387.0) rotate(-90)" text-anchor="middle" font-family="sans-serif" font-size="17" font-weight="600" fill="#171715">Pérdida (%)</text>
<line x1="96.0" y1="64" x2="122.0" y2="64" stroke="#d62728" stroke-width="3"/>
<text x="130.0" y="68" font-family="sans-serif" font-size="13" fill="#222">NIC a Corundum</text>
<line x1="590.0" y1="64" x2="616.0" y2="64" stroke="#9467bd" stroke-width="3" stroke-dasharray="8 6"/>
<text x="624.0" y="68" font-family="sans-serif" font-size="13" fill="#222">Corundum a NIC</text>
<polyline points="113.55,306.47 163.71,377.52 213.86,408.06 264.01,538.67 314.16,499.69 364.31,575.82 414.47,591.59 464.62,608.13 514.77,608.06 564.92,592.70 615.08,608.24 665.23,608.24 715.38,608.24 765.53,605.17 815.69,608.24 865.84,608.24 915.99,608.24 966.14,608.24 1016.29,608.24 1066.45,608.24" fill="none" stroke="#d62728" stroke-width="2.5"/>
<line x1="113.55" y1="326.89" x2="113.55" y2="286.05" stroke="#d62728" stroke-width="1.3"/>
<line x1="108.55" y1="326.89" x2="118.55" y2="326.89" stroke="#d62728" stroke-width="1.3"/>
<line x1="108.55" y1="286.05" x2="118.55" y2="286.05" stroke="#d62728" stroke-width="1.3"/>
<circle cx="113.55" cy="306.47" r="4" fill="#d62728" stroke="#ffffff" stroke-width="1"/>
<line x1="163.71" y1="463.45" x2="163.71" y2="291.59" stroke="#d62728" stroke-width="1.3"/>
<line x1="158.71" y1="463.45" x2="168.71" y2="463.45" stroke="#d62728" stroke-width="1.3"/>
<line x1="158.71" y1="291.59" x2="168.71" y2="291.59" stroke="#d62728" stroke-width="1.3"/>
<circle cx="163.71" cy="377.52" r="4" fill="#d62728" stroke="#ffffff" stroke-width="1"/>
<line x1="213.86" y1="462.02" x2="213.86" y2="354.09" stroke="#d62728" stroke-width="1.3"/>
<line x1="208.86" y1="462.02" x2="218.86" y2="462.02" stroke="#d62728" stroke-width="1.3"/>
<line x1="208.86" y1="354.09" x2="218.86" y2="354.09" stroke="#d62728" stroke-width="1.3"/>
<circle cx="213.86" cy="408.06" r="4" fill="#d62728" stroke="#ffffff" stroke-width="1"/>
<line x1="264.01" y1="600.24" x2="264.01" y2="477.09" stroke="#d62728" stroke-width="1.3"/>
<line x1="259.01" y1="600.24" x2="269.01" y2="600.24" stroke="#d62728" stroke-width="1.3"/>
<line x1="259.01" y1="477.09" x2="269.01" y2="477.09" stroke="#d62728" stroke-width="1.3"/>
<circle cx="264.01" cy="538.67" r="4" fill="#d62728" stroke="#ffffff" stroke-width="1"/>
<line x1="314.16" y1="584.68" x2="314.16" y2="414.70" stroke="#d62728" stroke-width="1.3"/>
<line x1="309.16" y1="584.68" x2="319.16" y2="584.68" stroke="#d62728" stroke-width="1.3"/>
<line x1="309.16" y1="414.70" x2="319.16" y2="414.70" stroke="#d62728" stroke-width="1.3"/>
<circle cx="314.16" cy="499.69" r="4" fill="#d62728" stroke="#ffffff" stroke-width="1"/>
<line x1="364.31" y1="629.24" x2="364.31" y2="522.40" stroke="#d62728" stroke-width="1.3"/>
<line x1="359.31" y1="629.24" x2="369.31" y2="629.24" stroke="#d62728" stroke-width="1.3"/>
<line x1="359.31" y1="522.40" x2="369.31" y2="522.40" stroke="#d62728" stroke-width="1.3"/>
<circle cx="364.31" cy="575.82" r="4" fill="#d62728" stroke="#ffffff" stroke-width="1"/>
<line x1="414.47" y1="613.52" x2="414.47" y2="569.65" stroke="#d62728" stroke-width="1.3"/>
<line x1="409.47" y1="613.52" x2="419.47" y2="613.52" stroke="#d62728" stroke-width="1.3"/>
<line x1="409.47" y1="569.65" x2="419.47" y2="569.65" stroke="#d62728" stroke-width="1.3"/>
<circle cx="414.47" cy="591.59" r="4" fill="#d62728" stroke="#ffffff" stroke-width="1"/>
<line x1="464.62" y1="608.32" x2="464.62" y2="607.94" stroke="#d62728" stroke-width="1.3"/>
<line x1="459.62" y1="608.32" x2="469.62" y2="608.32" stroke="#d62728" stroke-width="1.3"/>
<line x1="459.62" y1="607.94" x2="469.62" y2="607.94" stroke="#d62728" stroke-width="1.3"/>
<circle cx="464.62" cy="608.13" r="4" fill="#d62728" stroke="#ffffff" stroke-width="1"/>
<line x1="514.77" y1="608.22" x2="514.77" y2="607.90" stroke="#d62728" stroke-width="1.3"/>
<line x1="509.77" y1="608.22" x2="519.77" y2="608.22" stroke="#d62728" stroke-width="1.3"/>
<line x1="509.77" y1="607.90" x2="519.77" y2="607.90" stroke="#d62728" stroke-width="1.3"/>
<circle cx="514.77" cy="608.06" r="4" fill="#d62728" stroke="#ffffff" stroke-width="1"/>
<line x1="564.92" y1="619.62" x2="564.92" y2="565.78" stroke="#d62728" stroke-width="1.3"/>
<line x1="559.92" y1="619.62" x2="569.92" y2="619.62" stroke="#d62728" stroke-width="1.3"/>
<line x1="559.92" y1="565.78" x2="569.92" y2="565.78" stroke="#d62728" stroke-width="1.3"/>
<circle cx="564.92" cy="592.70" r="4" fill="#d62728" stroke="#ffffff" stroke-width="1"/>
<circle cx="615.08" cy="608.24" r="4" fill="#d62728" stroke="#ffffff" stroke-width="1"/>
<circle cx="665.23" cy="608.24" r="4" fill="#d62728" stroke="#ffffff" stroke-width="1"/>
<circle cx="715.38" cy="608.24" r="4" fill="#d62728" stroke="#ffffff" stroke-width="1"/>
<line x1="765.53" y1="610.49" x2="765.53" y2="599.84" stroke="#d62728" stroke-width="1.3"/>
<line x1="760.53" y1="610.49" x2="770.53" y2="610.49" stroke="#d62728" stroke-width="1.3"/>
<line x1="760.53" y1="599.84" x2="770.53" y2="599.84" stroke="#d62728" stroke-width="1.3"/>
<circle cx="765.53" cy="605.17" r="4" fill="#d62728" stroke="#ffffff" stroke-width="1"/>
<circle cx="815.69" cy="608.24" r="4" fill="#d62728" stroke="#ffffff" stroke-width="1"/>
<circle cx="865.84" cy="608.24" r="4" fill="#d62728" stroke="#ffffff" stroke-width="1"/>
<circle cx="915.99" cy="608.24" r="4" fill="#d62728" stroke="#ffffff" stroke-width="1"/>
<circle cx="966.14" cy="608.24" r="4" fill="#d62728" stroke="#ffffff" stroke-width="1"/>
<circle cx="1016.29" cy="608.24" r="4" fill="#d62728" stroke="#ffffff" stroke-width="1"/>
<circle cx="1066.45" cy="608.24" r="4" fill="#d62728" stroke="#ffffff" stroke-width="1"/>
<polyline points="113.55,185.17 163.71,324.16 213.86,363.54 264.01,439.08 314.16,491.12 364.31,553.64 414.47,560.59 464.62,575.51 514.77,581.10 564.92,586.34 615.08,591.36 665.23,592.68 715.38,593.57 765.53,594.65 815.69,596.02 865.84,597.26 915.99,597.71 966.14,599.12 1016.29,600.51 1066.45,601.42" fill="none" stroke="#9467bd" stroke-width="2.5" stroke-dasharray="8 6"/>
<line x1="113.55" y1="225.58" x2="113.55" y2="144.76" stroke="#9467bd" stroke-width="1.3"/>
<line x1="108.55" y1="225.58" x2="118.55" y2="225.58" stroke="#9467bd" stroke-width="1.3"/>
<line x1="108.55" y1="144.76" x2="118.55" y2="144.76" stroke="#9467bd" stroke-width="1.3"/>
<circle cx="113.55" cy="185.17" r="4" fill="#9467bd" stroke="#ffffff" stroke-width="1"/>
<line x1="163.71" y1="353.08" x2="163.71" y2="295.23" stroke="#9467bd" stroke-width="1.3"/>
<line x1="158.71" y1="353.08" x2="168.71" y2="353.08" stroke="#9467bd" stroke-width="1.3"/>
<line x1="158.71" y1="295.23" x2="168.71" y2="295.23" stroke="#9467bd" stroke-width="1.3"/>
<circle cx="163.71" cy="324.16" r="4" fill="#9467bd" stroke="#ffffff" stroke-width="1"/>
<line x1="213.86" y1="418.77" x2="213.86" y2="308.31" stroke="#9467bd" stroke-width="1.3"/>
<line x1="208.86" y1="418.77" x2="218.86" y2="418.77" stroke="#9467bd" stroke-width="1.3"/>
<line x1="208.86" y1="308.31" x2="218.86" y2="308.31" stroke="#9467bd" stroke-width="1.3"/>
<circle cx="213.86" cy="363.54" r="4" fill="#9467bd" stroke="#ffffff" stroke-width="1"/>
<line x1="264.01" y1="471.63" x2="264.01" y2="406.52" stroke="#9467bd" stroke-width="1.3"/>
<line x1="259.01" y1="471.63" x2="269.01" y2="471.63" stroke="#9467bd" stroke-width="1.3"/>
<line x1="259.01" y1="406.52" x2="269.01" y2="406.52" stroke="#9467bd" stroke-width="1.3"/>
<circle cx="264.01" cy="439.08" r="4" fill="#9467bd" stroke="#ffffff" stroke-width="1"/>
<line x1="314.16" y1="496.94" x2="314.16" y2="485.29" stroke="#9467bd" stroke-width="1.3"/>
<line x1="309.16" y1="496.94" x2="319.16" y2="496.94" stroke="#9467bd" stroke-width="1.3"/>
<line x1="309.16" y1="485.29" x2="319.16" y2="485.29" stroke="#9467bd" stroke-width="1.3"/>
<circle cx="314.16" cy="491.12" r="4" fill="#9467bd" stroke="#ffffff" stroke-width="1"/>
<line x1="364.31" y1="583.32" x2="364.31" y2="523.95" stroke="#9467bd" stroke-width="1.3"/>
<line x1="359.31" y1="583.32" x2="369.31" y2="583.32" stroke="#9467bd" stroke-width="1.3"/>
<line x1="359.31" y1="523.95" x2="369.31" y2="523.95" stroke="#9467bd" stroke-width="1.3"/>
<circle cx="364.31" cy="553.64" r="4" fill="#9467bd" stroke="#ffffff" stroke-width="1"/>
<line x1="414.47" y1="598.86" x2="414.47" y2="522.32" stroke="#9467bd" stroke-width="1.3"/>
<line x1="409.47" y1="598.86" x2="419.47" y2="598.86" stroke="#9467bd" stroke-width="1.3"/>
<line x1="409.47" y1="522.32" x2="419.47" y2="522.32" stroke="#9467bd" stroke-width="1.3"/>
<circle cx="414.47" cy="560.59" r="4" fill="#9467bd" stroke="#ffffff" stroke-width="1"/>
<line x1="464.62" y1="596.41" x2="464.62" y2="554.61" stroke="#9467bd" stroke-width="1.3"/>
<line x1="459.62" y1="596.41" x2="469.62" y2="596.41" stroke="#9467bd" stroke-width="1.3"/>
<line x1="459.62" y1="554.61" x2="469.62" y2="554.61" stroke="#9467bd" stroke-width="1.3"/>
<circle cx="464.62" cy="575.51" r="4" fill="#9467bd" stroke="#ffffff" stroke-width="1"/>
<line x1="514.77" y1="594.87" x2="514.77" y2="567.33" stroke="#9467bd" stroke-width="1.3"/>
<line x1="509.77" y1="594.87" x2="519.77" y2="594.87" stroke="#9467bd" stroke-width="1.3"/>
<line x1="509.77" y1="567.33" x2="519.77" y2="567.33" stroke="#9467bd" stroke-width="1.3"/>
<circle cx="514.77" cy="581.10" r="4" fill="#9467bd" stroke="#ffffff" stroke-width="1"/>
<line x1="564.92" y1="592.32" x2="564.92" y2="580.35" stroke="#9467bd" stroke-width="1.3"/>
<line x1="559.92" y1="592.32" x2="569.92" y2="592.32" stroke="#9467bd" stroke-width="1.3"/>
<line x1="559.92" y1="580.35" x2="569.92" y2="580.35" stroke="#9467bd" stroke-width="1.3"/>
<circle cx="564.92" cy="586.34" r="4" fill="#9467bd" stroke="#ffffff" stroke-width="1"/>
<line x1="615.08" y1="591.89" x2="615.08" y2="590.84" stroke="#9467bd" stroke-width="1.3"/>
<line x1="610.08" y1="591.89" x2="620.08" y2="591.89" stroke="#9467bd" stroke-width="1.3"/>
<line x1="610.08" y1="590.84" x2="620.08" y2="590.84" stroke="#9467bd" stroke-width="1.3"/>
<circle cx="615.08" cy="591.36" r="4" fill="#9467bd" stroke="#ffffff" stroke-width="1"/>
<line x1="665.23" y1="592.68" x2="665.23" y2="592.67" stroke="#9467bd" stroke-width="1.3"/>
<line x1="660.23" y1="592.68" x2="670.23" y2="592.68" stroke="#9467bd" stroke-width="1.3"/>
<line x1="660.23" y1="592.67" x2="670.23" y2="592.67" stroke="#9467bd" stroke-width="1.3"/>
<circle cx="665.23" cy="592.68" r="4" fill="#9467bd" stroke="#ffffff" stroke-width="1"/>
<line x1="715.38" y1="593.57" x2="715.38" y2="593.56" stroke="#9467bd" stroke-width="1.3"/>
<line x1="710.38" y1="593.57" x2="720.38" y2="593.57" stroke="#9467bd" stroke-width="1.3"/>
<line x1="710.38" y1="593.56" x2="720.38" y2="593.56" stroke="#9467bd" stroke-width="1.3"/>
<circle cx="715.38" cy="593.57" r="4" fill="#9467bd" stroke="#ffffff" stroke-width="1"/>
<line x1="765.53" y1="594.74" x2="765.53" y2="594.56" stroke="#9467bd" stroke-width="1.3"/>
<line x1="760.53" y1="594.74" x2="770.53" y2="594.74" stroke="#9467bd" stroke-width="1.3"/>
<line x1="760.53" y1="594.56" x2="770.53" y2="594.56" stroke="#9467bd" stroke-width="1.3"/>
<circle cx="765.53" cy="594.65" r="4" fill="#9467bd" stroke="#ffffff" stroke-width="1"/>
<line x1="815.69" y1="596.02" x2="815.69" y2="596.02" stroke="#9467bd" stroke-width="1.3"/>
<line x1="810.69" y1="596.02" x2="820.69" y2="596.02" stroke="#9467bd" stroke-width="1.3"/>
<line x1="810.69" y1="596.02" x2="820.69" y2="596.02" stroke="#9467bd" stroke-width="1.3"/>
<circle cx="815.69" cy="596.02" r="4" fill="#9467bd" stroke="#ffffff" stroke-width="1"/>
<line x1="865.84" y1="597.26" x2="865.84" y2="597.26" stroke="#9467bd" stroke-width="1.3"/>
<line x1="860.84" y1="597.26" x2="870.84" y2="597.26" stroke="#9467bd" stroke-width="1.3"/>
<line x1="860.84" y1="597.26" x2="870.84" y2="597.26" stroke="#9467bd" stroke-width="1.3"/>
<circle cx="865.84" cy="597.26" r="4" fill="#9467bd" stroke="#ffffff" stroke-width="1"/>
<line x1="915.99" y1="598.91" x2="915.99" y2="596.51" stroke="#9467bd" stroke-width="1.3"/>
<line x1="910.99" y1="598.91" x2="920.99" y2="598.91" stroke="#9467bd" stroke-width="1.3"/>
<line x1="910.99" y1="596.51" x2="920.99" y2="596.51" stroke="#9467bd" stroke-width="1.3"/>
<circle cx="915.99" cy="597.71" r="4" fill="#9467bd" stroke="#ffffff" stroke-width="1"/>
<line x1="966.14" y1="599.73" x2="966.14" y2="598.51" stroke="#9467bd" stroke-width="1.3"/>
<line x1="961.14" y1="599.73" x2="971.14" y2="599.73" stroke="#9467bd" stroke-width="1.3"/>
<line x1="961.14" y1="598.51" x2="971.14" y2="598.51" stroke="#9467bd" stroke-width="1.3"/>
<circle cx="966.14" cy="599.12" r="4" fill="#9467bd" stroke="#ffffff" stroke-width="1"/>
<line x1="1016.29" y1="600.57" x2="1016.29" y2="600.44" stroke="#9467bd" stroke-width="1.3"/>
<line x1="1011.29" y1="600.57" x2="1021.29" y2="600.57" stroke="#9467bd" stroke-width="1.3"/>
<line x1="1011.29" y1="600.44" x2="1021.29" y2="600.44" stroke="#9467bd" stroke-width="1.3"/>
<circle cx="1016.29" cy="600.51" r="4" fill="#9467bd" stroke="#ffffff" stroke-width="1"/>
<line x1="1066.45" y1="601.42" x2="1066.45" y2="601.42" stroke="#9467bd" stroke-width="1.3"/>
<line x1="1061.45" y1="601.42" x2="1071.45" y2="601.42" stroke="#9467bd" stroke-width="1.3"/>
<line x1="1061.45" y1="601.42" x2="1071.45" y2="601.42" stroke="#9467bd" stroke-width="1.3"/>
<circle cx="1066.45" cy="601.42" r="4" fill="#9467bd" stroke="#ffffff" stroke-width="1"/>
</svg>
