<svg xmlns="http://www.w3.org/2000/svg" width="1120" height="760" viewBox="0 0 1120 760">
<rect width="100%" height="100%" fill="#fbfbf8"/>
<text x="560.0" y="34" text-anchor="middle" font-family="sans-serif" font-size="24" fill="#222">RTT entre NIC y Corundum vs. payload</text>
<rect x="96" y="106" width="988" height="562" fill="#ffffff" stroke="#c9c9c1"/>
<line x1="96" y1="106.00" x2="1084" y2="106.00" stroke="#a9aba3" stroke-width="1.35"/>
<text x="86" y="110.00" text-anchor="end" font-family="sans-serif" font-size="13" font-weight="400" fill="#292925">0.16</text>
<line x1="96" y1="199.67" x2="1084" y2="199.67" stroke="#a9aba3" stroke-width="1.35"/>
<text x="86" y="203.67" text-anchor="end" font-family="sans-serif" font-size="13" font-weight="400" fill="#292925">0.1333</text>
<line x1="96" y1="293.33" x2="1084" y2="293.33" stroke="#a9aba3" stroke-width="1.35"/>
<text x="86" y="297.33" text-anchor="end" font-family="sans-serif" font-size="13" font-weight="400" fill="#292925">0.1066</text>
<line x1="96" y1="387.00" x2="1084" y2="387.00" stroke="#a9aba3" stroke-width="1.35"/>
<text x="86" y="391.00" text-anchor="end" font-family="sans-serif" font-size="13" font-weight="400" fill="#292925">0.08</text>
<line x1="96" y1="480.67" x2="1084" y2="480.67" stroke="#a9aba3" stroke-width="1.35"/>
<text x="86" y="484.67" text-anchor="end" font-family="sans-serif" font-size="13" font-weight="400" fill="#292925">0.0533</text>
<line x1="96" y1="574.33" x2="1084" y2="574.33" stroke="#a9aba3" stroke-width="1.35"/>
<text x="86" y="578.33" text-anchor="end" font-family="sans-serif" font-size="13" font-weight="400" fill="#292925">0.0267</text>
<line x1="96" y1="668.00" x2="1084" y2="668.00" stroke="#4f504b" stroke-width="2.2"/>
<text x="86" y="672.00" text-anchor="end" font-family="sans-serif" font-size="13" font-weight="600" fill="#292925">0</text>
<line x1="113.55" y1="106" x2="113.55" y2="668" stroke="#b4b6ae" stroke-width="1.25"/>
<text transform="translate(113.55 688) rotate(-45)" text-anchor="end" font-family="sans-serif" font-size="11" font-weight="500" fill="#292925">256</text>
<line x1="163.71" y1="106" x2="163.71" y2="668" stroke="#b4b6ae" stroke-width="1.25"/>
<text transform="translate(163.71 688) rotate(-45)" text-anchor="end" font-family="sans-serif" font-size="11" font-weight="500" fill="#292925">320</text>
<line x1="213.86" y1="106" x2="213.86" y2="668" stroke="#b4b6ae" stroke-width="1.25"/>
<text transform="translate(213.86 688) rotate(-45)" text-anchor="end" font-family="sans-serif" font-size="11" font-weight="500" fill="#292925">384</text>
<line x1="264.01" y1="106" x2="264.01" y2="668" stroke="#b4b6ae" stroke-width="1.25"/>
<text transform="translate(264.01 688) rotate(-45)" text-anchor="end" font-family="sans-serif" font-size="11" font-weight="500" fill="#292925">448</text>
<line x1="314.16" y1="106" x2="314.16" y2="668" stroke="#b4b6ae" stroke-width="1.25"/>
<text transform="translate(314.16 688) rotate(-45)" text-anchor="end" font-family="sans-serif" font-size="11" font-weight="500" fill="#292925">512</text>
<line x1="364.31" y1="106" x2="364.31" y2="668" stroke="#b4b6ae" stroke-width="1.25"/>
<text transform="translate(364.31 688) rotate(-45)" text-anchor="end" font-family="sans-serif" font-size="11" font-weight="500" fill="#292925">576</text>
<line x1="414.47" y1="106" x2="414.47" y2="668" stroke="#b4b6ae" stroke-width="1.25"/>
<text transform="translate(414.47 688) rotate(-45)" text-anchor="end" font-family="sans-serif" font-size="11" font-weight="500" fill="#292925">640</text>
<line x1="464.62" y1="106" x2="464.62" y2="668" stroke="#b4b6ae" stroke-width="1.25"/>
<text transform="translate(464.62 688) rotate(-45)" text-anchor="end" font-family="sans-serif" font-size="11" font-weight="500" fill="#292925">704</text>
<line x1="514.77" y1="106" x2="514.77" y2="668" stroke="#b4b6ae" stroke-width="1.25"/>
<text transform="translate(514.77 688) rotate(-45)" text-anchor="end" font-family="sans-serif" font-size="11" font-weight="500" fill="#292925">768</text>
<line x1="564.92" y1="106" x2="564.92" y2="668" stroke="#b4b6ae" stroke-width="1.25"/>
<text transform="translate(564.92 688) rotate(-45)" text-anchor="end" font-family="sans-serif" font-size="11" font-weight="500" fill="#292925">832</text>
<line x1="615.08" y1="106" x2="615.08" y2="668" stroke="#b4b6ae" stroke-width="1.25"/>
<text transform="translate(615.08 688) rotate(-45)" text-anchor="end" font-family="sans-serif" font-size="11" font-weight="500" fill="#292925">896</text>
<line x1="665.23" y1="106" x2="665.23" y2="668" stroke="#b4b6ae" stroke-width="1.25"/>
<text transform="translate(665.23 688) rotate(-45)" text-anchor="end" font-family="sans-serif" font-size="11" font-weight="500" fill="#292925">960</text>
<line x1="715.38" y1="106" x2="715.38" y2="668" stroke="#b4b6ae" stroke-width="1.25"/>
<text transform="translate(715.38 688) rotate(-45)" text-anchor="end" font-family="sans-serif" font-size="11" font-weight="500" fill="#292925">1024</text>
<line x1="765.53" y1="106" x2="765.53" y2="668" stroke="#b4b6ae" stroke-width="1.25"/>
<text transform="translate(765.53 688) rotate(-45)" text-anchor="end" font-family="sans-serif" font-size="11" font-weight="500" fill="#292925">1088</text>
<line x1="815.69" y1="106" x2="815.69" y2="668" stroke="#b4b6ae" stroke-width="1.25"/>
<text transform="translate(815.69 688) rotate(-45)" text-anchor="end" font-family="sans-serif" font-size="11" font-weight="500" fill="#292925">1152</text>
<line x1="865.84" y1="106" x2="865.84" y2="668" stroke="#b4b6ae" stroke-width="1.25"/>
<text transform="translate(865.84 688) rotate(-45)" text-anchor="end" font-family="sans-serif" font-size="11" font-weight="500" fill="#292925">1216</text>
<line x1="915.99" y1="106" x2="915.99" y2="668" stroke="#b4b6ae" stroke-width="1.25"/>
<text transform="translate(915.99 688) rotate(-45)" text-anchor="end" font-family="sans-serif" font-size="11" font-weight="500" fill="#292925">1280</text>
<line x1="966.14" y1="106" x2="966.14" y2="668" stroke="#b4b6ae" stroke-width="1.25"/>
<text transform="translate(966.14 688) rotate(-45)" text-anchor="end" font-family="sans-serif" font-size="11" font-weight="500" fill="#292925">1344</text>
<line x1="1016.29" y1="106" x2="1016.29" y2="668" stroke="#b4b6ae" stroke-width="1.25"/>
<text transform="translate(1016.29 688) rotate(-45)" text-anchor="end" font-family="sans-serif" font-size="11" font-weight="500" fill="#292925">1408</text>
<line x1="1066.45" y1="106" x2="1066.45" y2="668" stroke="#b4b6ae" stroke-width="1.25"/>
<text transform="translate(1066.45 688) rotate(-45)" text-anchor="end" font-family="sans-serif" font-size="11" font-weight="500" fill="#292925">1472</text>
<text x="590.0" y="736" text-anchor="middle" font-family="sans-serif" font-size="17" font-weight="600" fill="#171715">Tamaño del payload (bytes)</text>
<text transform="translate(24 387.0) rotate(-90)" text-anchor="middle" font-family="sans-serif" font-size="17" font-weight="600" fill="#171715">RTT promedio (ms)</text>
<line x1="96.0" y1="64" x2="122.0" y2="64" stroke="#1f77b4" stroke-width="3"/>
<text x="130.0" y="68" font-family="sans-serif" font-size="13" fill="#222">NIC a Corundum</text>
<line x1="590.0" y1="64" x2="616.0" y2="64" stroke="#ff7f0e" stroke-width="3" stroke-dasharray="8 6"/>
<text x="624.0" y="68" font-family="sans-serif" font-size="13" fill="#222">Corundum a NIC</text>
<polyline points="113.55,489.99 163.71,481.79 213.86,441.97 264.01,434.94 314.16,445.48 364.31,426.74 414.47,430.26 464.62,429.09 514.77,438.46 564.92,432.60 615.08,419.72 665.23,426.74 715.38,427.92 765.53,296.75 815.69,422.06 865.84,443.14 915.99,452.51 966.14,392.78 1016.29,434.94 1066.45,413.86" fill="none" stroke="#1f77b4" stroke-width="2.5"/>
<line x1="113.55" y1="504.19" x2="113.55" y2="475.79" stroke="#1f77b4" stroke-width="1.3"/>
<line x1="108.55" y1="504.19" x2="118.55" y2="504.19" stroke="#1f77b4" stroke-width="1.3"/>
<line x1="108.55" y1="475.79" x2="118.55" y2="475.79" stroke="#1f77b4" stroke-width="1.3"/>
<circle cx="113.55" cy="489.99" r="4" fill="#1f77b4" stroke="#ffffff" stroke-width="1"/>
<line x1="163.71" y1="488.81" x2="163.71" y2="474.76" stroke="#1f77b4" stroke-width="1.3"/>
<line x1="158.71" y1="488.81" x2="168.71" y2="488.81" stroke="#1f77b4" stroke-width="1.3"/>
<line x1="158.71" y1="474.76" x2="168.71" y2="474.76" stroke="#1f77b4" stroke-width="1.3"/>
<circle cx="163.71" cy="481.79" r="4" fill="#1f77b4" stroke="#ffffff" stroke-width="1"/>
<line x1="213.86" y1="450.81" x2="213.86" y2="433.13" stroke="#1f77b4" stroke-width="1.3"/>
<line x1="208.86" y1="450.81" x2="218.86" y2="450.81" stroke="#1f77b4" stroke-width="1.3"/>
<line x1="208.86" y1="433.13" x2="218.86" y2="433.13" stroke="#1f77b4" stroke-width="1.3"/>
<circle cx="213.86" cy="441.97" r="4" fill="#1f77b4" stroke="#ffffff" stroke-width="1"/>
<line x1="264.01" y1="445.68" x2="264.01" y2="424.21" stroke="#1f77b4" stroke-width="1.3"/>
<line x1="259.01" y1="445.68" x2="269.01" y2="445.68" stroke="#1f77b4" stroke-width="1.3"/>
<line x1="259.01" y1="424.21" x2="269.01" y2="424.21" stroke="#1f77b4" stroke-width="1.3"/>
<circle cx="264.01" cy="434.94" r="4" fill="#1f77b4" stroke="#ffffff" stroke-width="1"/>
<line x1="314.16" y1="465.77" x2="314.16" y2="425.20" stroke="#1f77b4" stroke-width="1.3"/>
<line x1="309.16" y1="465.77" x2="319.16" y2="465.77" stroke="#1f77b4" stroke-width="1.3"/>
<line x1="309.16" y1="425.20" x2="319.16" y2="425.20" stroke="#1f77b4" stroke-width="1.3"/>
<circle cx="314.16" cy="445.48" r="4" fill="#1f77b4" stroke="#ffffff" stroke-width="1"/>
<line x1="364.31" y1="471.23" x2="364.31" y2="382.26" stroke="#1f77b4" stroke-width="1.3"/>
<line x1="359.31" y1="471.23" x2="369.31" y2="471.23" stroke="#1f77b4" stroke-width="1.3"/>
<line x1="359.31" y1="382.26" x2="369.31" y2="382.26" stroke="#1f77b4" stroke-width="1.3"/>
<circle cx="364.31" cy="426.74" r="4" fill="#1f77b4" stroke="#ffffff" stroke-width="1"/>
<line x1="414.47" y1="453.12" x2="414.47" y2="407.40" stroke="#1f77b4" stroke-width="1.3"/>
<line x1="409.47" y1="453.12" x2="419.47" y2="453.12" stroke="#1f77b4" stroke-width="1.3"/>
<line x1="409.47" y1="407.40" x2="419.47" y2="407.40" stroke="#1f77b4" stroke-width="1.3"/>
<circle cx="414.47" cy="430.26" r="4" fill="#1f77b4" stroke="#ffffff" stroke-width="1"/>
<line x1="464.62" y1="441.75" x2="464.62" y2="416.42" stroke="#1f77b4" stroke-width="1.3"/>
<line x1="459.62" y1="441.75" x2="469.62" y2="441.75" stroke="#1f77b4" stroke-width="1.3"/>
<line x1="459.62" y1="416.42" x2="469.62" y2="416.42" stroke="#1f77b4" stroke-width="1.3"/>
<circle cx="464.62" cy="429.09" r="4" fill="#1f77b4" stroke="#ffffff" stroke-width="1"/>
<line x1="514.77" y1="450.79" x2="514.77" y2="426.12" stroke="#1f77b4" stroke-width="1.3"/>
<line x1="509.77" y1="450.79" x2="519.77" y2="450.79" stroke="#1f77b4" stroke-width="1.3"/>
<line x1="509.77" y1="426.12" x2="519.77" y2="426.12" stroke="#1f77b4" stroke-width="1.3"/>
<circle cx="514.77" cy="438.46" r="4" fill="#1f77b4" stroke="#ffffff" stroke-width="1"/>
<line x1="564.92" y1="463.03" x2="564.92" y2="402.17" stroke="#1f77b4" stroke-width="1.3"/>
<line x1="559.92" y1="463.03" x2="569.92" y2="463.03" stroke="#1f77b4" stroke-width="1.3"/>
<line x1="559.92" y1="402.17" x2="569.92" y2="402.17" stroke="#1f77b4" stroke-width="1.3"/>
<circle cx="564.92" cy="432.60" r="4" fill="#1f77b4" stroke="#ffffff" stroke-width="1"/>
<line x1="615.08" y1="440.00" x2="615.08" y2="399.43" stroke="#1f77b4" stroke-width="1.3"/>
<line x1="610.08" y1="440.00" x2="620.08" y2="440.00" stroke="#1f77b4" stroke-width="1.3"/>
<line x1="610.08" y1="399.43" x2="620.08" y2="399.43" stroke="#1f77b4" stroke-width="1.3"/>
<circle cx="615.08" cy="419.72" r="4" fill="#1f77b4" stroke="#ffffff" stroke-width="1"/>
<line x1="665.23" y1="452.16" x2="665.23" y2="401.33" stroke="#1f77b4" stroke-width="1.3"/>
<line x1="660.23" y1="452.16" x2="670.23" y2="452.16" stroke="#1f77b4" stroke-width="1.3"/>
<line x1="660.23" y1="401.33" x2="670.23" y2="401.33" stroke="#1f77b4" stroke-width="1.3"/>
<circle cx="665.23" cy="426.74" r="4" fill="#1f77b4" stroke="#ffffff" stroke-width="1"/>
<line x1="715.38" y1="461.12" x2="715.38" y2="394.71" stroke="#1f77b4" stroke-width="1.3"/>
<line x1="710.38" y1="461.12" x2="720.38" y2="461.12" stroke="#1f77b4" stroke-width="1.3"/>
<line x1="710.38" y1="394.71" x2="720.38" y2="394.71" stroke="#1f77b4" stroke-width="1.3"/>
<circle cx="715.38" cy="427.92" r="4" fill="#1f77b4" stroke="#ffffff" stroke-width="1"/>
<line x1="765.53" y1="445.86" x2="765.53" y2="147.63" stroke="#1f77b4" stroke-width="1.3"/>
<line x1="760.53" y1="445.86" x2="770.53" y2="445.86" stroke="#1f77b4" stroke-width="1.3"/>
<line x1="760.53" y1="147.63" x2="770.53" y2="147.63" stroke="#1f77b4" stroke-width="1.3"/>
<circle cx="765.53" cy="296.75" r="4" fill="#1f77b4" stroke="#ffffff" stroke-width="1"/>
<line x1="815.69" y1="455.58" x2="815.69" y2="388.54" stroke="#1f77b4" stroke-width="1.3"/>
<line x1="810.69" y1="455.58" x2="820.69" y2="455.58" stroke="#1f77b4" stroke-width="1.3"/>
<line x1="810.69" y1="388.54" x2="820.69" y2="388.54" stroke="#1f77b4" stroke-width="1.3"/>
<circle cx="815.69" cy="422.06" r="4" fill="#1f77b4" stroke="#ffffff" stroke-width="1"/>
<line x1="865.84" y1="455.81" x2="865.84" y2="430.47" stroke="#1f77b4" stroke-width="1.3"/>
<line x1="860.84" y1="455.81" x2="870.84" y2="455.81" stroke="#1f77b4" stroke-width="1.3"/>
<line x1="860.84" y1="430.47" x2="870.84" y2="430.47" stroke="#1f77b4" stroke-width="1.3"/>
<circle cx="865.84" cy="443.14" r="4" fill="#1f77b4" stroke="#ffffff" stroke-width="1"/>
<line x1="915.99" y1="461.35" x2="915.99" y2="443.67" stroke="#1f77b4" stroke-width="1.3"/>
<line x1="910.99" y1="461.35" x2="920.99" y2="461.35" stroke="#1f77b4" stroke-width="1.3"/>
<line x1="910.99" y1="443.67" x2="920.99" y2="443.67" stroke="#1f77b4" stroke-width="1.3"/>
<circle cx="915.99" cy="452.51" r="4" fill="#1f77b4" stroke="#ffffff" stroke-width="1"/>
<line x1="966.14" y1="433.35" x2="966.14" y2="352.21" stroke="#1f77b4" stroke-width="1.3"/>
<line x1="961.14" y1="433.35" x2="971.14" y2="433.35" stroke="#1f77b4" stroke-width="1.3"/>
<line x1="961.14" y1="352.21" x2="971.14" y2="352.21" stroke="#1f77b4" stroke-width="1.3"/>
<circle cx="966.14" cy="392.78" r="4" fill="#1f77b4" stroke="#ffffff" stroke-width="1"/>
<line x1="1016.29" y1="466.82" x2="1016.29" y2="403.06" stroke="#1f77b4" stroke-width="1.3"/>
<line x1="1011.29" y1="466.82" x2="1021.29" y2="466.82" stroke="#1f77b4" stroke-width="1.3"/>
<line x1="1011.29" y1="403.06" x2="1021.29" y2="403.06" stroke="#1f77b4" stroke-width="1.3"/>
<circle cx="1016.29" cy="434.94" r="4" fill="#1f77b4" stroke="#ffffff" stroke-width="1"/>
<line x1="1066.45" y1="459.72" x2="1066.45" y2="368.01" stroke="#1f77b4" stroke-width="1.3"/>
<line x1="1061.45" y1="459.72" x2="1071.45" y2="459.72" stroke="#1f77b4" stroke-width="1.3"/>
<line x1="1061.45" y1="368.01" x2="1071.45" y2="368.01" stroke="#1f77b4" stroke-width="1.3"/>
<circle cx="1066.45" cy="413.86" r="4" fill="#1f77b4" stroke="#ffffff" stroke-width="1"/>
<polyline points="113.55,499.36 163.71,479.45 213.86,451.34 264.01,451.34 314.16,452.51 364.31,450.17 414.47,450.17 464.62,451.34 514.77,451.34 564.92,450.17 615.08,450.17 665.23,447.82 715.38,447.82 765.53,446.65 815.69,446.65 865.84,446.65 915.99,457.19 966.14,456.02 1016.29,458.37 1066.45,454.85" fill="none" stroke="#ff7f0e" stroke-width="2.5" stroke-dasharray="8 6"/>
<circle cx="113.55" cy="499.36" r="4" fill="#ff7f0e" stroke="#ffffff" stroke-width="1"/>
<line x1="163.71" y1="481.47" x2="163.71" y2="477.42" stroke="#ff7f0e" stroke-width="1.3"/>
<line x1="158.71" y1="481.47" x2="168.71" y2="481.47" stroke="#ff7f0e" stroke-width="1.3"/>
<line x1="158.71" y1="477.42" x2="168.71" y2="477.42" stroke="#ff7f0e" stroke-width="1.3"/>
<circle cx="163.71" cy="479.45" r="4" fill="#ff7f0e" stroke="#ffffff" stroke-width="1"/>
<line x1="213.86" y1="455.40" x2="213.86" y2="447.28" stroke="#ff7f0e" stroke-width="1.3"/>
<line x1="208.86" y1="455.40" x2="218.86" y2="455.40" stroke="#ff7f0e" stroke-width="1.3"/>
<line x1="208.86" y1="447.28" x2="218.86" y2="447.28" stroke="#ff7f0e" stroke-width="1.3"/>
<circle cx="213.86" cy="451.34" r="4" fill="#ff7f0e" stroke="#ffffff" stroke-width="1"/>
<line x1="264.01" y1="455.40" x2="264.01" y2="447.28" stroke="#ff7f0e" stroke-width="1.3"/>
<line x1="259.01" y1="455.40" x2="269.01" y2="455.40" stroke="#ff7f0e" stroke-width="1.3"/>
<line x1="259.01" y1="447.28" x2="269.01" y2="447.28" stroke="#ff7f0e" stroke-width="1.3"/>
<circle cx="264.01" cy="451.34" r="4" fill="#ff7f0e" stroke="#ffffff" stroke-width="1"/>
<line x1="314.16" y1="457.88" x2="314.16" y2="447.14" stroke="#ff7f0e" stroke-width="1.3"/>
<line x1="309.16" y1="457.88" x2="319.16" y2="457.88" stroke="#ff7f0e" stroke-width="1.3"/>
<line x1="309.16" y1="447.14" x2="319.16" y2="447.14" stroke="#ff7f0e" stroke-width="1.3"/>
<circle cx="314.16" cy="452.51" r="4" fill="#ff7f0e" stroke="#ffffff" stroke-width="1"/>
<circle cx="364.31" cy="450.17" r="4" fill="#ff7f0e" stroke="#ffffff" stroke-width="1"/>
<circle cx="414.47" cy="450.17" r="4" fill="#ff7f0e" stroke="#ffffff" stroke-width="1"/>
<line x1="464.62" y1="453.37" x2="464.62" y2="449.31" stroke="#ff7f0e" stroke-width="1.3"/>
<line x1="459.62" y1="453.37" x2="469.62" y2="453.37" stroke="#ff7f0e" stroke-width="1.3"/>
<line x1="459.62" y1="449.31" x2="469.62" y2="449.31" stroke="#ff7f0e" stroke-width="1.3"/>
<circle cx="464.62" cy="451.34" r="4" fill="#ff7f0e" stroke="#ffffff" stroke-width="1"/>
<line x1="514.77" y1="453.37" x2="514.77" y2="449.31" stroke="#ff7f0e" stroke-width="1.3"/>
<line x1="509.77" y1="453.37" x2="519.77" y2="453.37" stroke="#ff7f0e" stroke-width="1.3"/>
<line x1="509.77" y1="449.31" x2="519.77" y2="449.31" stroke="#ff7f0e" stroke-width="1.3"/>
<circle cx="514.77" cy="451.34" r="4" fill="#ff7f0e" stroke="#ffffff" stroke-width="1"/>
<circle cx="564.92" cy="450.17" r="4" fill="#ff7f0e" stroke="#ffffff" stroke-width="1"/>
<circle cx="615.08" cy="450.17" r="4" fill="#ff7f0e" stroke="#ffffff" stroke-width="1"/>
<line x1="665.23" y1="449.85" x2="665.23" y2="445.80" stroke="#ff7f0e" stroke-width="1.3"/>
<line x1="660.23" y1="449.85" x2="670.23" y2="449.85" stroke="#ff7f0e" stroke-width="1.3"/>
<line x1="660.23" y1="445.80" x2="670.23" y2="445.80" stroke="#ff7f0e" stroke-width="1.3"/>
<circle cx="665.23" cy="447.82" r="4" fill="#ff7f0e" stroke="#ffffff" stroke-width="1"/>
<line x1="715.38" y1="449.85" x2="715.38" y2="445.80" stroke="#ff7f0e" stroke-width="1.3"/>
<line x1="710.38" y1="449.85" x2="720.38" y2="449.85" stroke="#ff7f0e" stroke-width="1.3"/>
<line x1="710.38" y1="445.80" x2="720.38" y2="445.80" stroke="#ff7f0e" stroke-width="1.3"/>
<circle cx="715.38" cy="447.82" r="4" fill="#ff7f0e" stroke="#ffffff" stroke-width="1"/>
<circle cx="765.53" cy="446.65" r="4" fill="#ff7f0e" stroke="#ffffff" stroke-width="1"/>
<circle cx="815.69" cy="446.65" r="4" fill="#ff7f0e" stroke="#ffffff" stroke-width="1"/>
<circle cx="865.84" cy="446.65" r="4" fill="#ff7f0e" stroke="#ffffff" stroke-width="1"/>
<line x1="915.99" y1="460.71" x2="915.99" y2="453.68" stroke="#ff7f0e" stroke-width="1.3"/>
<line x1="910.99" y1="460.71" x2="920.99" y2="460.71" stroke="#ff7f0e" stroke-width="1.3"/>
<line x1="910.99" y1="453.68" x2="920.99" y2="453.68" stroke="#ff7f0e" stroke-width="1.3"/>
<circle cx="915.99" cy="457.19" r="4" fill="#ff7f0e" stroke="#ffffff" stroke-width="1"/>
<line x1="966.14" y1="458.05" x2="966.14" y2="453.99" stroke="#ff7f0e" stroke-width="1.3"/>
<line x1="961.14" y1="458.05" x2="971.14" y2="458.05" stroke="#ff7f0e" stroke-width="1.3"/>
<line x1="961.14" y1="453.99" x2="971.14" y2="453.99" stroke="#ff7f0e" stroke-width="1.3"/>
<circle cx="966.14" cy="456.02" r="4" fill="#ff7f0e" stroke="#ffffff" stroke-width="1"/>
<line x1="1016.29" y1="463.73" x2="1016.29" y2="453.00" stroke="#ff7f0e" stroke-width="1.3"/>
<line x1="1011.29" y1="463.73" x2="1021.29" y2="463.73" stroke="#ff7f0e" stroke-width="1.3"/>
<line x1="1011.29" y1="453.00" x2="1021.29" y2="453.00" stroke="#ff7f0e" stroke-width="1.3"/>
<circle cx="1016.29" cy="458.37" r="4" fill="#ff7f0e" stroke="#ffffff" stroke-width="1"/>
<line x1="1066.45" y1="456.88" x2="1066.45" y2="452.82" stroke="#ff7f0e" stroke-width="1.3"/>
<line x1="1061.45" y1="456.88" x2="1071.45" y2="456.88" stroke="#ff7f0e" stroke-width="1.3"/>
<line x1="1061.45" y1="452.82" x2="1071.45" y2="452.82" stroke="#ff7f0e" stroke-width="1.3"/>
<circle cx="1066.45" cy="454.85" r="4" fill="#ff7f0e" stroke="#ffffff" stroke-width="1"/>
</svg>
