<svg xmlns="http://www.w3.org/2000/svg" width="1120" height="680" viewBox="0 0 1120 680">
<rect width="100%" height="100%" fill="#fbfbf8"/>
<text x="560.0" y="34" text-anchor="middle" font-family="sans-serif" font-size="24" fill="#222">Loopback: perdida vs payload</text>
<rect x="96" y="62" width="988" height="532" fill="#ffffff" stroke="#c9c9c1"/>
<line x1="96" y1="62.00" x2="1084" y2="62.00" stroke="#e8e8df"/>
<text x="86" y="66.00" text-anchor="end" font-family="sans-serif" font-size="12" fill="#4a4a45">0.0236</text>
<line x1="96.00" y1="62" x2="96.00" y2="594" stroke="#f0f0e8"/>
<text x="96.00" y="618" text-anchor="middle" font-family="sans-serif" font-size="12" fill="#4a4a45">161</text>
<line x1="96" y1="168.40" x2="1084" y2="168.40" stroke="#e8e8df"/>
<text x="86" y="172.40" text-anchor="end" font-family="sans-serif" font-size="12" fill="#4a4a45">0.0189</text>
<line x1="293.60" y1="62" x2="293.60" y2="594" stroke="#f0f0e8"/>
<text x="293.60" y="618" text-anchor="middle" font-family="sans-serif" font-size="12" fill="#4a4a45">436</text>
<line x1="96" y1="274.80" x2="1084" y2="274.80" stroke="#e8e8df"/>
<text x="86" y="278.80" text-anchor="end" font-family="sans-serif" font-size="12" fill="#4a4a45">0.0143</text>
<line x1="491.20" y1="62" x2="491.20" y2="594" stroke="#f0f0e8"/>
<text x="491.20" y="618" text-anchor="middle" font-family="sans-serif" font-size="12" fill="#4a4a45">711</text>
<line x1="96" y1="381.20" x2="1084" y2="381.20" stroke="#e8e8df"/>
<text x="86" y="385.20" text-anchor="end" font-family="sans-serif" font-size="12" fill="#4a4a45">0.0096</text>
<line x1="688.80" y1="62" x2="688.80" y2="594" stroke="#f0f0e8"/>
<text x="688.80" y="618" text-anchor="middle" font-family="sans-serif" font-size="12" fill="#4a4a45">985</text>
<line x1="96" y1="487.60" x2="1084" y2="487.60" stroke="#e8e8df"/>
<text x="86" y="491.60" text-anchor="end" font-family="sans-serif" font-size="12" fill="#4a4a45">0.00493</text>
<line x1="886.40" y1="62" x2="886.40" y2="594" stroke="#f0f0e8"/>
<text x="886.40" y="618" text-anchor="middle" font-family="sans-serif" font-size="12" fill="#4a4a45">1260</text>
<line x1="96" y1="594.00" x2="1084" y2="594.00" stroke="#e8e8df"/>
<text x="86" y="598.00" text-anchor="end" font-family="sans-serif" font-size="12" fill="#4a4a45">0.00027</text>
<line x1="1084.00" y1="62" x2="1084.00" y2="594" stroke="#f0f0e8"/>
<text x="1084.00" y="618" text-anchor="middle" font-family="sans-serif" font-size="12" fill="#4a4a45">1535</text>
<text x="590.0" y="656" text-anchor="middle" font-family="sans-serif" font-size="15" fill="#222">Payload size (bytes)</text>
<text transform="translate(26 328.0) rotate(-90)" text-anchor="middle" font-family="sans-serif" font-size="15" fill="#222">Perdida (%)</text>
<line x1="112" y1="82" x2="138" y2="82" stroke="#d62728" stroke-width="3"/>
<text x="146" y="86" font-family="sans-serif" font-size="13" fill="#222">Perdida</text>
<polyline points="164.14,458.28 217.37,416.31 270.60,522.15 323.84,385.75 377.07,365.68 430.30,189.14 483.53,358.38 536.77,429.09 590.00,324.62 643.23,281.74 696.47,326.45 749.70,275.36 802.93,383.47 856.16,291.32 909.40,301.36 962.63,291.78 1015.86,279.46" fill="none" stroke="#d62728" stroke-width="2.5"/>
<line x1="164.14" y1="518.53" x2="164.14" y2="398.04" stroke="#d62728" stroke-width="1.3"/>
<line x1="159.14" y1="518.53" x2="169.14" y2="518.53" stroke="#d62728" stroke-width="1.3"/>
<line x1="159.14" y1="398.04" x2="169.14" y2="398.04" stroke="#d62728" stroke-width="1.3"/>
<circle cx="164.14" cy="458.28" r="4" fill="#d62728" stroke="#ffffff" stroke-width="1"/>
<line x1="217.37" y1="446.25" x2="217.37" y2="386.37" stroke="#d62728" stroke-width="1.3"/>
<line x1="212.37" y1="446.25" x2="222.37" y2="446.25" stroke="#d62728" stroke-width="1.3"/>
<line x1="212.37" y1="386.37" x2="222.37" y2="386.37" stroke="#d62728" stroke-width="1.3"/>
<circle cx="217.37" cy="416.31" r="4" fill="#d62728" stroke="#ffffff" stroke-width="1"/>
<line x1="270.60" y1="557.31" x2="270.60" y2="486.98" stroke="#d62728" stroke-width="1.3"/>
<line x1="265.60" y1="557.31" x2="275.60" y2="557.31" stroke="#d62728" stroke-width="1.3"/>
<line x1="265.60" y1="486.98" x2="275.60" y2="486.98" stroke="#d62728" stroke-width="1.3"/>
<circle cx="270.60" cy="522.15" r="4" fill="#d62728" stroke="#ffffff" stroke-width="1"/>
<line x1="323.84" y1="411.00" x2="323.84" y2="360.51" stroke="#d62728" stroke-width="1.3"/>
<line x1="318.84" y1="411.00" x2="328.84" y2="411.00" stroke="#d62728" stroke-width="1.3"/>
<line x1="318.84" y1="360.51" x2="328.84" y2="360.51" stroke="#d62728" stroke-width="1.3"/>
<circle cx="323.84" cy="385.75" r="4" fill="#d62728" stroke="#ffffff" stroke-width="1"/>
<line x1="377.07" y1="413.83" x2="377.07" y2="317.53" stroke="#d62728" stroke-width="1.3"/>
<line x1="372.07" y1="413.83" x2="382.07" y2="413.83" stroke="#d62728" stroke-width="1.3"/>
<line x1="372.07" y1="317.53" x2="382.07" y2="317.53" stroke="#d62728" stroke-width="1.3"/>
<circle cx="377.07" cy="365.68" r="4" fill="#d62728" stroke="#ffffff" stroke-width="1"/>
<line x1="430.30" y1="279.59" x2="430.30" y2="98.69" stroke="#d62728" stroke-width="1.3"/>
<line x1="425.30" y1="279.59" x2="435.30" y2="279.59" stroke="#d62728" stroke-width="1.3"/>
<line x1="425.30" y1="98.69" x2="435.30" y2="98.69" stroke="#d62728" stroke-width="1.3"/>
<circle cx="430.30" cy="189.14" r="4" fill="#d62728" stroke="#ffffff" stroke-width="1"/>
<line x1="483.53" y1="404.65" x2="483.53" y2="312.11" stroke="#d62728" stroke-width="1.3"/>
<line x1="478.53" y1="404.65" x2="488.53" y2="404.65" stroke="#d62728" stroke-width="1.3"/>
<line x1="478.53" y1="312.11" x2="488.53" y2="312.11" stroke="#d62728" stroke-width="1.3"/>
<circle cx="483.53" cy="358.38" r="4" fill="#d62728" stroke="#ffffff" stroke-width="1"/>
<line x1="536.77" y1="453.28" x2="536.77" y2="404.89" stroke="#d62728" stroke-width="1.3"/>
<line x1="531.77" y1="453.28" x2="541.77" y2="453.28" stroke="#d62728" stroke-width="1.3"/>
<line x1="531.77" y1="404.89" x2="541.77" y2="404.89" stroke="#d62728" stroke-width="1.3"/>
<circle cx="536.77" cy="429.09" r="4" fill="#d62728" stroke="#ffffff" stroke-width="1"/>
<line x1="590.00" y1="333.52" x2="590.00" y2="315.73" stroke="#d62728" stroke-width="1.3"/>
<line x1="585.00" y1="333.52" x2="595.00" y2="333.52" stroke="#d62728" stroke-width="1.3"/>
<line x1="585.00" y1="315.73" x2="595.00" y2="315.73" stroke="#d62728" stroke-width="1.3"/>
<circle cx="590.00" cy="324.62" r="4" fill="#d62728" stroke="#ffffff" stroke-width="1"/>
<line x1="643.23" y1="304.24" x2="643.23" y2="259.25" stroke="#d62728" stroke-width="1.3"/>
<line x1="638.23" y1="304.24" x2="648.23" y2="304.24" stroke="#d62728" stroke-width="1.3"/>
<line x1="638.23" y1="259.25" x2="648.23" y2="259.25" stroke="#d62728" stroke-width="1.3"/>
<circle cx="643.23" cy="281.74" r="4" fill="#d62728" stroke="#ffffff" stroke-width="1"/>
<line x1="696.47" y1="378.61" x2="696.47" y2="274.29" stroke="#d62728" stroke-width="1.3"/>
<line x1="691.47" y1="378.61" x2="701.47" y2="378.61" stroke="#d62728" stroke-width="1.3"/>
<line x1="691.47" y1="274.29" x2="701.47" y2="274.29" stroke="#d62728" stroke-width="1.3"/>
<circle cx="696.47" cy="326.45" r="4" fill="#d62728" stroke="#ffffff" stroke-width="1"/>
<line x1="749.70" y1="314.22" x2="749.70" y2="236.50" stroke="#d62728" stroke-width="1.3"/>
<line x1="744.70" y1="314.22" x2="754.70" y2="314.22" stroke="#d62728" stroke-width="1.3"/>
<line x1="744.70" y1="236.50" x2="754.70" y2="236.50" stroke="#d62728" stroke-width="1.3"/>
<circle cx="749.70" cy="275.36" r="4" fill="#d62728" stroke="#ffffff" stroke-width="1"/>
<line x1="802.93" y1="408.04" x2="802.93" y2="358.90" stroke="#d62728" stroke-width="1.3"/>
<line x1="797.93" y1="408.04" x2="807.93" y2="408.04" stroke="#d62728" stroke-width="1.3"/>
<line x1="797.93" y1="358.90" x2="807.93" y2="358.90" stroke="#d62728" stroke-width="1.3"/>
<circle cx="802.93" cy="383.47" r="4" fill="#d62728" stroke="#ffffff" stroke-width="1"/>
<line x1="856.16" y1="324.71" x2="856.16" y2="257.93" stroke="#d62728" stroke-width="1.3"/>
<line x1="851.16" y1="324.71" x2="861.16" y2="324.71" stroke="#d62728" stroke-width="1.3"/>
<line x1="851.16" y1="257.93" x2="861.16" y2="257.93" stroke="#d62728" stroke-width="1.3"/>
<circle cx="856.16" cy="291.32" r="4" fill="#d62728" stroke="#ffffff" stroke-width="1"/>
<line x1="909.40" y1="323.94" x2="909.40" y2="278.78" stroke="#d62728" stroke-width="1.3"/>
<line x1="904.40" y1="323.94" x2="914.40" y2="323.94" stroke="#d62728" stroke-width="1.3"/>
<line x1="904.40" y1="278.78" x2="914.40" y2="278.78" stroke="#d62728" stroke-width="1.3"/>
<circle cx="909.40" cy="301.36" r="4" fill="#d62728" stroke="#ffffff" stroke-width="1"/>
<line x1="962.63" y1="314.95" x2="962.63" y2="268.61" stroke="#d62728" stroke-width="1.3"/>
<line x1="957.63" y1="314.95" x2="967.63" y2="314.95" stroke="#d62728" stroke-width="1.3"/>
<line x1="957.63" y1="268.61" x2="967.63" y2="268.61" stroke="#d62728" stroke-width="1.3"/>
<circle cx="962.63" cy="291.78" r="4" fill="#d62728" stroke="#ffffff" stroke-width="1"/>
<line x1="1015.86" y1="301.61" x2="1015.86" y2="257.31" stroke="#d62728" stroke-width="1.3"/>
<line x1="1010.86" y1="301.61" x2="1020.86" y2="301.61" stroke="#d62728" stroke-width="1.3"/>
<line x1="1010.86" y1="257.31" x2="1020.86" y2="257.31" stroke="#d62728" stroke-width="1.3"/>
<circle cx="1015.86" cy="279.46" r="4" fill="#d62728" stroke="#ffffff" stroke-width="1"/>
</svg>
