<svg xmlns="http://www.w3.org/2000/svg" width="1120" height="680" viewBox="0 0 1120 680">
<rect width="100%" height="100%" fill="#fbfbf8"/>
<text x="560.0" y="34" text-anchor="middle" font-family="sans-serif" font-size="24" fill="#222">RTT vs payload</text>
<rect x="96" y="62" width="988" height="532" fill="#ffffff" stroke="#c9c9c1"/>
<line x1="96" y1="62.00" x2="1084" y2="62.00" stroke="#e8e8df"/>
<text x="86" y="66.00" text-anchor="end" font-family="sans-serif" font-size="12" fill="#4a4a45">1.44</text>
<line x1="96.00" y1="62" x2="96.00" y2="594" stroke="#f0f0e8"/>
<text x="96.00" y="618" text-anchor="middle" font-family="sans-serif" font-size="12" fill="#4a4a45">161</text>
<line x1="96" y1="168.40" x2="1084" y2="168.40" stroke="#e8e8df"/>
<text x="86" y="172.40" text-anchor="end" font-family="sans-serif" font-size="12" fill="#4a4a45">1.41</text>
<line x1="293.60" y1="62" x2="293.60" y2="594" stroke="#f0f0e8"/>
<text x="293.60" y="618" text-anchor="middle" font-family="sans-serif" font-size="12" fill="#4a4a45">436</text>
<line x1="96" y1="274.80" x2="1084" y2="274.80" stroke="#e8e8df"/>
<text x="86" y="278.80" text-anchor="end" font-family="sans-serif" font-size="12" fill="#4a4a45">1.39</text>
<line x1="491.20" y1="62" x2="491.20" y2="594" stroke="#f0f0e8"/>
<text x="491.20" y="618" text-anchor="middle" font-family="sans-serif" font-size="12" fill="#4a4a45">711</text>
<line x1="96" y1="381.20" x2="1084" y2="381.20" stroke="#e8e8df"/>
<text x="86" y="385.20" text-anchor="end" font-family="sans-serif" font-size="12" fill="#4a4a45">1.36</text>
<line x1="688.80" y1="62" x2="688.80" y2="594" stroke="#f0f0e8"/>
<text x="688.80" y="618" text-anchor="middle" font-family="sans-serif" font-size="12" fill="#4a4a45">985</text>
<line x1="96" y1="487.60" x2="1084" y2="487.60" stroke="#e8e8df"/>
<text x="86" y="491.60" text-anchor="end" font-family="sans-serif" font-size="12" fill="#4a4a45">1.33</text>
<line x1="886.40" y1="62" x2="886.40" y2="594" stroke="#f0f0e8"/>
<text x="886.40" y="618" text-anchor="middle" font-family="sans-serif" font-size="12" fill="#4a4a45">1260</text>
<line x1="96" y1="594.00" x2="1084" y2="594.00" stroke="#e8e8df"/>
<text x="86" y="598.00" text-anchor="end" font-family="sans-serif" font-size="12" fill="#4a4a45">1.3</text>
<line x1="1084.00" y1="62" x2="1084.00" y2="594" stroke="#f0f0e8"/>
<text x="1084.00" y="618" text-anchor="middle" font-family="sans-serif" font-size="12" fill="#4a4a45">1535</text>
<text x="590.0" y="656" text-anchor="middle" font-family="sans-serif" font-size="15" fill="#222">Payload size (bytes)</text>
<text transform="translate(26 328.0) rotate(-90)" text-anchor="middle" font-family="sans-serif" font-size="15" fill="#222">RTT promedio (ms)</text>
<line x1="112" y1="82" x2="138" y2="82" stroke="#1f77b4" stroke-width="3"/>
<text x="146" y="86" font-family="sans-serif" font-size="13" fill="#222">RTT promedio</text>
<polyline points="164.14,535.72 217.37,526.32 270.60,521.00 323.84,501.70 377.07,454.46 430.30,416.77 483.53,357.51 536.77,408.69 590.00,348.51 643.23,290.27 696.47,319.61 749.70,311.45 802.93,240.43 856.16,221.70 909.40,181.77 962.63,174.69 1015.86,212.42" fill="none" stroke="#1f77b4" stroke-width="2.5"/>
<line x1="164.14" y1="557.31" x2="164.14" y2="514.13" stroke="#1f77b4" stroke-width="1.3"/>
<line x1="159.14" y1="557.31" x2="169.14" y2="557.31" stroke="#1f77b4" stroke-width="1.3"/>
<line x1="159.14" y1="514.13" x2="169.14" y2="514.13" stroke="#1f77b4" stroke-width="1.3"/>
<circle cx="164.14" cy="535.72" r="4" fill="#1f77b4" stroke="#ffffff" stroke-width="1"/>
<line x1="217.37" y1="541.16" x2="217.37" y2="511.49" stroke="#1f77b4" stroke-width="1.3"/>
<line x1="212.37" y1="541.16" x2="222.37" y2="541.16" stroke="#1f77b4" stroke-width="1.3"/>
<line x1="212.37" y1="511.49" x2="222.37" y2="511.49" stroke="#1f77b4" stroke-width="1.3"/>
<circle cx="217.37" cy="526.32" r="4" fill="#1f77b4" stroke="#ffffff" stroke-width="1"/>
<line x1="270.60" y1="544.99" x2="270.60" y2="497.01" stroke="#1f77b4" stroke-width="1.3"/>
<line x1="265.60" y1="544.99" x2="275.60" y2="544.99" stroke="#1f77b4" stroke-width="1.3"/>
<line x1="265.60" y1="497.01" x2="275.60" y2="497.01" stroke="#1f77b4" stroke-width="1.3"/>
<circle cx="270.60" cy="521.00" r="4" fill="#1f77b4" stroke="#ffffff" stroke-width="1"/>
<line x1="323.84" y1="526.74" x2="323.84" y2="476.65" stroke="#1f77b4" stroke-width="1.3"/>
<line x1="318.84" y1="526.74" x2="328.84" y2="526.74" stroke="#1f77b4" stroke-width="1.3"/>
<line x1="318.84" y1="476.65" x2="328.84" y2="476.65" stroke="#1f77b4" stroke-width="1.3"/>
<circle cx="323.84" cy="501.70" r="4" fill="#1f77b4" stroke="#ffffff" stroke-width="1"/>
<line x1="377.07" y1="471.63" x2="377.07" y2="437.28" stroke="#1f77b4" stroke-width="1.3"/>
<line x1="372.07" y1="471.63" x2="382.07" y2="471.63" stroke="#1f77b4" stroke-width="1.3"/>
<line x1="372.07" y1="437.28" x2="382.07" y2="437.28" stroke="#1f77b4" stroke-width="1.3"/>
<circle cx="377.07" cy="454.46" r="4" fill="#1f77b4" stroke="#ffffff" stroke-width="1"/>
<line x1="430.30" y1="444.55" x2="430.30" y2="389.00" stroke="#1f77b4" stroke-width="1.3"/>
<line x1="425.30" y1="444.55" x2="435.30" y2="444.55" stroke="#1f77b4" stroke-width="1.3"/>
<line x1="425.30" y1="389.00" x2="435.30" y2="389.00" stroke="#1f77b4" stroke-width="1.3"/>
<circle cx="430.30" cy="416.77" r="4" fill="#1f77b4" stroke="#ffffff" stroke-width="1"/>
<line x1="483.53" y1="372.93" x2="483.53" y2="342.10" stroke="#1f77b4" stroke-width="1.3"/>
<line x1="478.53" y1="372.93" x2="488.53" y2="372.93" stroke="#1f77b4" stroke-width="1.3"/>
<line x1="478.53" y1="342.10" x2="488.53" y2="342.10" stroke="#1f77b4" stroke-width="1.3"/>
<circle cx="483.53" cy="357.51" r="4" fill="#1f77b4" stroke="#ffffff" stroke-width="1"/>
<line x1="536.77" y1="438.83" x2="536.77" y2="378.56" stroke="#1f77b4" stroke-width="1.3"/>
<line x1="531.77" y1="438.83" x2="541.77" y2="438.83" stroke="#1f77b4" stroke-width="1.3"/>
<line x1="531.77" y1="378.56" x2="541.77" y2="378.56" stroke="#1f77b4" stroke-width="1.3"/>
<circle cx="536.77" cy="408.69" r="4" fill="#1f77b4" stroke="#ffffff" stroke-width="1"/>
<line x1="590.00" y1="417.95" x2="590.00" y2="279.07" stroke="#1f77b4" stroke-width="1.3"/>
<line x1="585.00" y1="417.95" x2="595.00" y2="417.95" stroke="#1f77b4" stroke-width="1.3"/>
<line x1="585.00" y1="279.07" x2="595.00" y2="279.07" stroke="#1f77b4" stroke-width="1.3"/>
<circle cx="590.00" cy="348.51" r="4" fill="#1f77b4" stroke="#ffffff" stroke-width="1"/>
<line x1="643.23" y1="309.52" x2="643.23" y2="271.03" stroke="#1f77b4" stroke-width="1.3"/>
<line x1="638.23" y1="309.52" x2="648.23" y2="309.52" stroke="#1f77b4" stroke-width="1.3"/>
<line x1="638.23" y1="271.03" x2="648.23" y2="271.03" stroke="#1f77b4" stroke-width="1.3"/>
<circle cx="643.23" cy="290.27" r="4" fill="#1f77b4" stroke="#ffffff" stroke-width="1"/>
<line x1="696.47" y1="340.50" x2="696.47" y2="298.73" stroke="#1f77b4" stroke-width="1.3"/>
<line x1="691.47" y1="340.50" x2="701.47" y2="340.50" stroke="#1f77b4" stroke-width="1.3"/>
<line x1="691.47" y1="298.73" x2="701.47" y2="298.73" stroke="#1f77b4" stroke-width="1.3"/>
<circle cx="696.47" cy="319.61" r="4" fill="#1f77b4" stroke="#ffffff" stroke-width="1"/>
<line x1="749.70" y1="376.36" x2="749.70" y2="246.53" stroke="#1f77b4" stroke-width="1.3"/>
<line x1="744.70" y1="376.36" x2="754.70" y2="376.36" stroke="#1f77b4" stroke-width="1.3"/>
<line x1="744.70" y1="246.53" x2="754.70" y2="246.53" stroke="#1f77b4" stroke-width="1.3"/>
<circle cx="749.70" cy="311.45" r="4" fill="#1f77b4" stroke="#ffffff" stroke-width="1"/>
<line x1="802.93" y1="332.72" x2="802.93" y2="148.14" stroke="#1f77b4" stroke-width="1.3"/>
<line x1="797.93" y1="332.72" x2="807.93" y2="332.72" stroke="#1f77b4" stroke-width="1.3"/>
<line x1="797.93" y1="148.14" x2="807.93" y2="148.14" stroke="#1f77b4" stroke-width="1.3"/>
<circle cx="802.93" cy="240.43" r="4" fill="#1f77b4" stroke="#ffffff" stroke-width="1"/>
<line x1="856.16" y1="283.70" x2="856.16" y2="159.70" stroke="#1f77b4" stroke-width="1.3"/>
<line x1="851.16" y1="283.70" x2="861.16" y2="283.70" stroke="#1f77b4" stroke-width="1.3"/>
<line x1="851.16" y1="159.70" x2="861.16" y2="159.70" stroke="#1f77b4" stroke-width="1.3"/>
<circle cx="856.16" cy="221.70" r="4" fill="#1f77b4" stroke="#ffffff" stroke-width="1"/>
<line x1="909.40" y1="264.85" x2="909.40" y2="98.69" stroke="#1f77b4" stroke-width="1.3"/>
<line x1="904.40" y1="264.85" x2="914.40" y2="264.85" stroke="#1f77b4" stroke-width="1.3"/>
<line x1="904.40" y1="98.69" x2="914.40" y2="98.69" stroke="#1f77b4" stroke-width="1.3"/>
<circle cx="909.40" cy="181.77" r="4" fill="#1f77b4" stroke="#ffffff" stroke-width="1"/>
<line x1="962.63" y1="238.94" x2="962.63" y2="110.45" stroke="#1f77b4" stroke-width="1.3"/>
<line x1="957.63" y1="238.94" x2="967.63" y2="238.94" stroke="#1f77b4" stroke-width="1.3"/>
<line x1="957.63" y1="110.45" x2="967.63" y2="110.45" stroke="#1f77b4" stroke-width="1.3"/>
<circle cx="962.63" cy="174.69" r="4" fill="#1f77b4" stroke="#ffffff" stroke-width="1"/>
<line x1="1015.86" y1="272.24" x2="1015.86" y2="152.60" stroke="#1f77b4" stroke-width="1.3"/>
<line x1="1010.86" y1="272.24" x2="1020.86" y2="272.24" stroke="#1f77b4" stroke-width="1.3"/>
<line x1="1010.86" y1="152.60" x2="1020.86" y2="152.60" stroke="#1f77b4" stroke-width="1.3"/>
<circle cx="1015.86" cy="212.42" r="4" fill="#1f77b4" stroke="#ffffff" stroke-width="1"/>
</svg>
