<svg xmlns="http://www.w3.org/2000/svg" width="1120" height="680" viewBox="0 0 1120 680">
<rect width="100%" height="100%" fill="#fbfbf8"/>
<text x="560.0" y="34" text-anchor="middle" font-family="sans-serif" font-size="24" fill="#222">Transmision FPGA: goodput vs payload</text>
<rect x="96" y="62" width="988" height="532" fill="#ffffff" stroke="#c9c9c1"/>
<line x1="96" y1="62.00" x2="1084" y2="62.00" stroke="#e8e8df"/>
<text x="86" y="66.00" text-anchor="end" font-family="sans-serif" font-size="12" fill="#4a4a45">988</text>
<line x1="96.00" y1="62" x2="96.00" y2="594" stroke="#f0f0e8"/>
<text x="96.00" y="618" text-anchor="middle" font-family="sans-serif" font-size="12" fill="#4a4a45">161</text>
<line x1="96" y1="168.40" x2="1084" y2="168.40" stroke="#e8e8df"/>
<text x="86" y="172.40" text-anchor="end" font-family="sans-serif" font-size="12" fill="#4a4a45">896</text>
<line x1="293.60" y1="62" x2="293.60" y2="594" stroke="#f0f0e8"/>
<text x="293.60" y="618" text-anchor="middle" font-family="sans-serif" font-size="12" fill="#4a4a45">436</text>
<line x1="96" y1="274.80" x2="1084" y2="274.80" stroke="#e8e8df"/>
<text x="86" y="278.80" text-anchor="end" font-family="sans-serif" font-size="12" fill="#4a4a45">805</text>
<line x1="491.20" y1="62" x2="491.20" y2="594" stroke="#f0f0e8"/>
<text x="491.20" y="618" text-anchor="middle" font-family="sans-serif" font-size="12" fill="#4a4a45">711</text>
<line x1="96" y1="381.20" x2="1084" y2="381.20" stroke="#e8e8df"/>
<text x="86" y="385.20" text-anchor="end" font-family="sans-serif" font-size="12" fill="#4a4a45">713</text>
<line x1="688.80" y1="62" x2="688.80" y2="594" stroke="#f0f0e8"/>
<text x="688.80" y="618" text-anchor="middle" font-family="sans-serif" font-size="12" fill="#4a4a45">985</text>
<line x1="96" y1="487.60" x2="1084" y2="487.60" stroke="#e8e8df"/>
<text x="86" y="491.60" text-anchor="end" font-family="sans-serif" font-size="12" fill="#4a4a45">622</text>
<line x1="886.40" y1="62" x2="886.40" y2="594" stroke="#f0f0e8"/>
<text x="886.40" y="618" text-anchor="middle" font-family="sans-serif" font-size="12" fill="#4a4a45">1260</text>
<line x1="96" y1="594.00" x2="1084" y2="594.00" stroke="#e8e8df"/>
<text x="86" y="598.00" text-anchor="end" font-family="sans-serif" font-size="12" fill="#4a4a45">530</text>
<line x1="1084.00" y1="62" x2="1084.00" y2="594" stroke="#f0f0e8"/>
<text x="1084.00" y="618" text-anchor="middle" font-family="sans-serif" font-size="12" fill="#4a4a45">1535</text>
<text x="590.0" y="656" text-anchor="middle" font-family="sans-serif" font-size="15" fill="#222">Payload size (bytes)</text>
<text transform="translate(26 328.0) rotate(-90)" text-anchor="middle" font-family="sans-serif" font-size="15" fill="#222">Goodput payload (Mbps)</text>
<line x1="112" y1="82" x2="138" y2="82" stroke="#9467bd" stroke-width="3"/>
<text x="146" y="86" font-family="sans-serif" font-size="13" fill="#222">Goodput</text>
<line x1="112" y1="104" x2="138" y2="104" stroke="#111111" stroke-width="3" stroke-dasharray="8 6"/>
<text x="146" y="108" font-family="sans-serif" font-size="13" fill="#222">Teorico</text>
<polyline points="164.14,390.03 217.37,242.11 270.60,210.91 323.84,188.80 377.07,171.87 430.30,158.65 483.53,147.89 536.77,139.12 590.00,131.72 643.23,125.40 696.47,120.01 749.70,115.31 802.93,111.18 856.16,107.55 909.40,104.27 962.63,101.34 1015.86,98.77" fill="none" stroke="#9467bd" stroke-width="2.5"/>
<line x1="164.14" y1="557.31" x2="164.14" y2="222.75" stroke="#9467bd" stroke-width="1.3"/>
<line x1="159.14" y1="557.31" x2="169.14" y2="557.31" stroke="#9467bd" stroke-width="1.3"/>
<line x1="159.14" y1="222.75" x2="169.14" y2="222.75" stroke="#9467bd" stroke-width="1.3"/>
<circle cx="164.14" cy="390.03" r="4" fill="#9467bd" stroke="#ffffff" stroke-width="1"/>
<line x1="217.37" y1="243.02" x2="217.37" y2="241.20" stroke="#9467bd" stroke-width="1.3"/>
<line x1="212.37" y1="243.02" x2="222.37" y2="243.02" stroke="#9467bd" stroke-width="1.3"/>
<line x1="212.37" y1="241.20" x2="222.37" y2="241.20" stroke="#9467bd" stroke-width="1.3"/>
<circle cx="217.37" cy="242.11" r="4" fill="#9467bd" stroke="#ffffff" stroke-width="1"/>
<line x1="270.60" y1="210.98" x2="270.60" y2="210.83" stroke="#9467bd" stroke-width="1.3"/>
<line x1="265.60" y1="210.98" x2="275.60" y2="210.98" stroke="#9467bd" stroke-width="1.3"/>
<line x1="265.60" y1="210.83" x2="275.60" y2="210.83" stroke="#9467bd" stroke-width="1.3"/>
<circle cx="270.60" cy="210.91" r="4" fill="#9467bd" stroke="#ffffff" stroke-width="1"/>
<line x1="323.84" y1="188.90" x2="323.84" y2="188.69" stroke="#9467bd" stroke-width="1.3"/>
<line x1="318.84" y1="188.90" x2="328.84" y2="188.90" stroke="#9467bd" stroke-width="1.3"/>
<line x1="318.84" y1="188.69" x2="328.84" y2="188.69" stroke="#9467bd" stroke-width="1.3"/>
<circle cx="323.84" cy="188.80" r="4" fill="#9467bd" stroke="#ffffff" stroke-width="1"/>
<line x1="377.07" y1="171.92" x2="377.07" y2="171.82" stroke="#9467bd" stroke-width="1.3"/>
<line x1="372.07" y1="171.92" x2="382.07" y2="171.92" stroke="#9467bd" stroke-width="1.3"/>
<line x1="372.07" y1="171.82" x2="382.07" y2="171.82" stroke="#9467bd" stroke-width="1.3"/>
<circle cx="377.07" cy="171.87" r="4" fill="#9467bd" stroke="#ffffff" stroke-width="1"/>
<line x1="430.30" y1="158.66" x2="430.30" y2="158.64" stroke="#9467bd" stroke-width="1.3"/>
<line x1="425.30" y1="158.66" x2="435.30" y2="158.66" stroke="#9467bd" stroke-width="1.3"/>
<line x1="425.30" y1="158.64" x2="435.30" y2="158.64" stroke="#9467bd" stroke-width="1.3"/>
<circle cx="430.30" cy="158.65" r="4" fill="#9467bd" stroke="#ffffff" stroke-width="1"/>
<line x1="483.53" y1="147.95" x2="483.53" y2="147.84" stroke="#9467bd" stroke-width="1.3"/>
<line x1="478.53" y1="147.95" x2="488.53" y2="147.95" stroke="#9467bd" stroke-width="1.3"/>
<line x1="478.53" y1="147.84" x2="488.53" y2="147.84" stroke="#9467bd" stroke-width="1.3"/>
<circle cx="483.53" cy="147.89" r="4" fill="#9467bd" stroke="#ffffff" stroke-width="1"/>
<line x1="536.77" y1="139.18" x2="536.77" y2="139.06" stroke="#9467bd" stroke-width="1.3"/>
<line x1="531.77" y1="139.18" x2="541.77" y2="139.18" stroke="#9467bd" stroke-width="1.3"/>
<line x1="531.77" y1="139.06" x2="541.77" y2="139.06" stroke="#9467bd" stroke-width="1.3"/>
<circle cx="536.77" cy="139.12" r="4" fill="#9467bd" stroke="#ffffff" stroke-width="1"/>
<line x1="590.00" y1="131.77" x2="590.00" y2="131.67" stroke="#9467bd" stroke-width="1.3"/>
<line x1="585.00" y1="131.77" x2="595.00" y2="131.77" stroke="#9467bd" stroke-width="1.3"/>
<line x1="585.00" y1="131.67" x2="595.00" y2="131.67" stroke="#9467bd" stroke-width="1.3"/>
<circle cx="590.00" cy="131.72" r="4" fill="#9467bd" stroke="#ffffff" stroke-width="1"/>
<line x1="643.23" y1="125.45" x2="643.23" y2="125.35" stroke="#9467bd" stroke-width="1.3"/>
<line x1="638.23" y1="125.45" x2="648.23" y2="125.45" stroke="#9467bd" stroke-width="1.3"/>
<line x1="638.23" y1="125.35" x2="648.23" y2="125.35" stroke="#9467bd" stroke-width="1.3"/>
<circle cx="643.23" cy="125.40" r="4" fill="#9467bd" stroke="#ffffff" stroke-width="1"/>
<line x1="696.47" y1="120.08" x2="696.47" y2="119.95" stroke="#9467bd" stroke-width="1.3"/>
<line x1="691.47" y1="120.08" x2="701.47" y2="120.08" stroke="#9467bd" stroke-width="1.3"/>
<line x1="691.47" y1="119.95" x2="701.47" y2="119.95" stroke="#9467bd" stroke-width="1.3"/>
<circle cx="696.47" cy="120.01" r="4" fill="#9467bd" stroke="#ffffff" stroke-width="1"/>
<line x1="749.70" y1="115.36" x2="749.70" y2="115.27" stroke="#9467bd" stroke-width="1.3"/>
<line x1="744.70" y1="115.36" x2="754.70" y2="115.36" stroke="#9467bd" stroke-width="1.3"/>
<line x1="744.70" y1="115.27" x2="754.70" y2="115.27" stroke="#9467bd" stroke-width="1.3"/>
<circle cx="749.70" cy="115.31" r="4" fill="#9467bd" stroke="#ffffff" stroke-width="1"/>
<line x1="802.93" y1="111.21" x2="802.93" y2="111.14" stroke="#9467bd" stroke-width="1.3"/>
<line x1="797.93" y1="111.21" x2="807.93" y2="111.21" stroke="#9467bd" stroke-width="1.3"/>
<line x1="797.93" y1="111.14" x2="807.93" y2="111.14" stroke="#9467bd" stroke-width="1.3"/>
<circle cx="802.93" cy="111.18" r="4" fill="#9467bd" stroke="#ffffff" stroke-width="1"/>
<line x1="856.16" y1="107.57" x2="856.16" y2="107.52" stroke="#9467bd" stroke-width="1.3"/>
<line x1="851.16" y1="107.57" x2="861.16" y2="107.57" stroke="#9467bd" stroke-width="1.3"/>
<line x1="851.16" y1="107.52" x2="861.16" y2="107.52" stroke="#9467bd" stroke-width="1.3"/>
<circle cx="856.16" cy="107.55" r="4" fill="#9467bd" stroke="#ffffff" stroke-width="1"/>
<line x1="909.40" y1="104.29" x2="909.40" y2="104.24" stroke="#9467bd" stroke-width="1.3"/>
<line x1="904.40" y1="104.29" x2="914.40" y2="104.29" stroke="#9467bd" stroke-width="1.3"/>
<line x1="904.40" y1="104.24" x2="914.40" y2="104.24" stroke="#9467bd" stroke-width="1.3"/>
<circle cx="909.40" cy="104.27" r="4" fill="#9467bd" stroke="#ffffff" stroke-width="1"/>
<line x1="962.63" y1="101.37" x2="962.63" y2="101.31" stroke="#9467bd" stroke-width="1.3"/>
<line x1="957.63" y1="101.37" x2="967.63" y2="101.37" stroke="#9467bd" stroke-width="1.3"/>
<line x1="957.63" y1="101.31" x2="967.63" y2="101.31" stroke="#9467bd" stroke-width="1.3"/>
<circle cx="962.63" cy="101.34" r="4" fill="#9467bd" stroke="#ffffff" stroke-width="1"/>
<line x1="1015.86" y1="98.84" x2="1015.86" y2="98.69" stroke="#9467bd" stroke-width="1.3"/>
<line x1="1010.86" y1="98.84" x2="1020.86" y2="98.84" stroke="#9467bd" stroke-width="1.3"/>
<line x1="1010.86" y1="98.69" x2="1020.86" y2="98.69" stroke="#9467bd" stroke-width="1.3"/>
<circle cx="1015.86" cy="98.77" r="4" fill="#9467bd" stroke="#ffffff" stroke-width="1"/>
<polyline points="164.14,286.00 217.37,241.50 270.60,211.00 323.84,188.81 377.07,171.92 430.30,158.65 483.53,147.95 536.77,139.13 590.00,131.73 643.23,125.45 696.47,120.04 749.70,115.34 802.93,111.21 856.16,107.55 909.40,104.30 962.63,101.38 1015.86,98.75" fill="none" stroke="#111111" stroke-width="2.5" stroke-dasharray="8 6"/>
<circle cx="164.14" cy="286.00" r="4" fill="#111111" stroke="#ffffff" stroke-width="1"/>
<circle cx="217.37" cy="241.50" r="4" fill="#111111" stroke="#ffffff" stroke-width="1"/>
<circle cx="270.60" cy="211.00" r="4" fill="#111111" stroke="#ffffff" stroke-width="1"/>
<circle cx="323.84" cy="188.81" r="4" fill="#111111" stroke="#ffffff" stroke-width="1"/>
<circle cx="377.07" cy="171.92" r="4" fill="#111111" stroke="#ffffff" stroke-width="1"/>
<circle cx="430.30" cy="158.65" r="4" fill="#111111" stroke="#ffffff" stroke-width="1"/>
<circle cx="483.53" cy="147.95" r="4" fill="#111111" stroke="#ffffff" stroke-width="1"/>
<circle cx="536.77" cy="139.13" r="4" fill="#111111" stroke="#ffffff" stroke-width="1"/>
<circle cx="590.00" cy="131.73" r="4" fill="#111111" stroke="#ffffff" stroke-width="1"/>
<circle cx="643.23" cy="125.45" r="4" fill="#111111" stroke="#ffffff" stroke-width="1"/>
<circle cx="696.47" cy="120.04" r="4" fill="#111111" stroke="#ffffff" stroke-width="1"/>
<circle cx="749.70" cy="115.34" r="4" fill="#111111" stroke="#ffffff" stroke-width="1"/>
<circle cx="802.93" cy="111.21" r="4" fill="#111111" stroke="#ffffff" stroke-width="1"/>
<circle cx="856.16" cy="107.55" r="4" fill="#111111" stroke="#ffffff" stroke-width="1"/>
<circle cx="909.40" cy="104.30" r="4" fill="#111111" stroke="#ffffff" stroke-width="1"/>
<circle cx="962.63" cy="101.38" r="4" fill="#111111" stroke="#ffffff" stroke-width="1"/>
<circle cx="1015.86" cy="98.75" r="4" fill="#111111" stroke="#ffffff" stroke-width="1"/>
</svg>
