<svg xmlns="http://www.w3.org/2000/svg" width="1120" height="680" viewBox="0 0 1120 680">
<rect width="100%" height="100%" fill="#fbfbf8"/>
<text x="560.0" y="34" text-anchor="middle" font-family="sans-serif" font-size="24" fill="#222">Transmision FPGA: perdida vs payload</text>
<rect x="96" y="62" width="988" height="532" fill="#ffffff" stroke="#c9c9c1"/>
<line x1="96" y1="62.00" x2="1084" y2="62.00" stroke="#e8e8df"/>
<text x="86" y="66.00" text-anchor="end" font-family="sans-serif" font-size="12" fill="#4a4a45">32.3</text>
<line x1="96.00" y1="62" x2="96.00" y2="594" stroke="#f0f0e8"/>
<text x="96.00" y="618" text-anchor="middle" font-family="sans-serif" font-size="12" fill="#4a4a45">161</text>
<line x1="96" y1="168.40" x2="1084" y2="168.40" stroke="#e8e8df"/>
<text x="86" y="172.40" text-anchor="end" font-family="sans-serif" font-size="12" fill="#4a4a45">23.9</text>
<line x1="293.60" y1="62" x2="293.60" y2="594" stroke="#f0f0e8"/>
<text x="293.60" y="618" text-anchor="middle" font-family="sans-serif" font-size="12" fill="#4a4a45">436</text>
<line x1="96" y1="274.80" x2="1084" y2="274.80" stroke="#e8e8df"/>
<text x="86" y="278.80" text-anchor="end" font-family="sans-serif" font-size="12" fill="#4a4a45">15.5</text>
<line x1="491.20" y1="62" x2="491.20" y2="594" stroke="#f0f0e8"/>
<text x="491.20" y="618" text-anchor="middle" font-family="sans-serif" font-size="12" fill="#4a4a45">711</text>
<line x1="96" y1="381.20" x2="1084" y2="381.20" stroke="#e8e8df"/>
<text x="86" y="385.20" text-anchor="end" font-family="sans-serif" font-size="12" fill="#4a4a45">7.08</text>
<line x1="688.80" y1="62" x2="688.80" y2="594" stroke="#f0f0e8"/>
<text x="688.80" y="618" text-anchor="middle" font-family="sans-serif" font-size="12" fill="#4a4a45">985</text>
<line x1="96" y1="487.60" x2="1084" y2="487.60" stroke="#e8e8df"/>
<text x="86" y="491.60" text-anchor="end" font-family="sans-serif" font-size="12" fill="#4a4a45">-1.32</text>
<line x1="886.40" y1="62" x2="886.40" y2="594" stroke="#f0f0e8"/>
<text x="886.40" y="618" text-anchor="middle" font-family="sans-serif" font-size="12" fill="#4a4a45">1260</text>
<line x1="96" y1="594.00" x2="1084" y2="594.00" stroke="#e8e8df"/>
<text x="86" y="598.00" text-anchor="end" font-family="sans-serif" font-size="12" fill="#4a4a45">-9.72</text>
<line x1="1084.00" y1="62" x2="1084.00" y2="594" stroke="#f0f0e8"/>
<text x="1084.00" y="618" text-anchor="middle" font-family="sans-serif" font-size="12" fill="#4a4a45">1535</text>
<text x="590.0" y="656" text-anchor="middle" font-family="sans-serif" font-size="15" fill="#222">Payload size (bytes)</text>
<text transform="translate(26 328.0) rotate(-90)" text-anchor="middle" font-family="sans-serif" font-size="15" fill="#222">Perdida (%)</text>
<line x1="112" y1="82" x2="138" y2="82" stroke="#d62728" stroke-width="3"/>
<text x="146" y="86" font-family="sans-serif" font-size="13" fill="#222">Perdida</text>
<polyline points="164.14,328.00 217.37,469.96 270.60,470.82 323.84,470.75 377.07,470.84 430.30,470.82 483.53,470.84 536.77,470.84 590.00,470.83 643.23,470.84 696.47,470.80 749.70,470.84 802.93,470.84 856.16,470.83 909.40,470.84 962.63,470.84 1015.86,470.80" fill="none" stroke="#d62728" stroke-width="2.5"/>
<line x1="164.14" y1="557.31" x2="164.14" y2="98.69" stroke="#d62728" stroke-width="1.3"/>
<line x1="159.14" y1="557.31" x2="169.14" y2="557.31" stroke="#d62728" stroke-width="1.3"/>
<line x1="159.14" y1="98.69" x2="169.14" y2="98.69" stroke="#d62728" stroke-width="1.3"/>
<circle cx="164.14" cy="328.00" r="4" fill="#d62728" stroke="#ffffff" stroke-width="1"/>
<line x1="217.37" y1="471.06" x2="217.37" y2="468.86" stroke="#d62728" stroke-width="1.3"/>
<line x1="212.37" y1="471.06" x2="222.37" y2="471.06" stroke="#d62728" stroke-width="1.3"/>
<line x1="212.37" y1="468.86" x2="222.37" y2="468.86" stroke="#d62728" stroke-width="1.3"/>
<circle cx="217.37" cy="469.96" r="4" fill="#d62728" stroke="#ffffff" stroke-width="1"/>
<line x1="270.60" y1="470.84" x2="270.60" y2="470.81" stroke="#d62728" stroke-width="1.3"/>
<line x1="265.60" y1="470.84" x2="275.60" y2="470.84" stroke="#d62728" stroke-width="1.3"/>
<line x1="265.60" y1="470.81" x2="275.60" y2="470.81" stroke="#d62728" stroke-width="1.3"/>
<circle cx="270.60" cy="470.82" r="4" fill="#d62728" stroke="#ffffff" stroke-width="1"/>
<line x1="323.84" y1="470.85" x2="323.84" y2="470.65" stroke="#d62728" stroke-width="1.3"/>
<line x1="318.84" y1="470.85" x2="328.84" y2="470.85" stroke="#d62728" stroke-width="1.3"/>
<line x1="318.84" y1="470.65" x2="328.84" y2="470.65" stroke="#d62728" stroke-width="1.3"/>
<circle cx="323.84" cy="470.75" r="4" fill="#d62728" stroke="#ffffff" stroke-width="1"/>
<line x1="377.07" y1="470.84" x2="377.07" y2="470.83" stroke="#d62728" stroke-width="1.3"/>
<line x1="372.07" y1="470.84" x2="382.07" y2="470.84" stroke="#d62728" stroke-width="1.3"/>
<line x1="372.07" y1="470.83" x2="382.07" y2="470.83" stroke="#d62728" stroke-width="1.3"/>
<circle cx="377.07" cy="470.84" r="4" fill="#d62728" stroke="#ffffff" stroke-width="1"/>
<line x1="430.30" y1="470.86" x2="430.30" y2="470.78" stroke="#d62728" stroke-width="1.3"/>
<line x1="425.30" y1="470.86" x2="435.30" y2="470.86" stroke="#d62728" stroke-width="1.3"/>
<line x1="425.30" y1="470.78" x2="435.30" y2="470.78" stroke="#d62728" stroke-width="1.3"/>
<circle cx="430.30" cy="470.82" r="4" fill="#d62728" stroke="#ffffff" stroke-width="1"/>
<circle cx="483.53" cy="470.84" r="4" fill="#d62728" stroke="#ffffff" stroke-width="1"/>
<circle cx="536.77" cy="470.84" r="4" fill="#d62728" stroke="#ffffff" stroke-width="1"/>
<line x1="590.00" y1="470.84" x2="590.00" y2="470.83" stroke="#d62728" stroke-width="1.3"/>
<line x1="585.00" y1="470.84" x2="595.00" y2="470.84" stroke="#d62728" stroke-width="1.3"/>
<line x1="585.00" y1="470.83" x2="595.00" y2="470.83" stroke="#d62728" stroke-width="1.3"/>
<circle cx="590.00" cy="470.83" r="4" fill="#d62728" stroke="#ffffff" stroke-width="1"/>
<circle cx="643.23" cy="470.84" r="4" fill="#d62728" stroke="#ffffff" stroke-width="1"/>
<line x1="696.47" y1="470.88" x2="696.47" y2="470.72" stroke="#d62728" stroke-width="1.3"/>
<line x1="691.47" y1="470.88" x2="701.47" y2="470.88" stroke="#d62728" stroke-width="1.3"/>
<line x1="691.47" y1="470.72" x2="701.47" y2="470.72" stroke="#d62728" stroke-width="1.3"/>
<circle cx="696.47" cy="470.80" r="4" fill="#d62728" stroke="#ffffff" stroke-width="1"/>
<circle cx="749.70" cy="470.84" r="4" fill="#d62728" stroke="#ffffff" stroke-width="1"/>
<circle cx="802.93" cy="470.84" r="4" fill="#d62728" stroke="#ffffff" stroke-width="1"/>
<line x1="856.16" y1="470.85" x2="856.16" y2="470.82" stroke="#d62728" stroke-width="1.3"/>
<line x1="851.16" y1="470.85" x2="861.16" y2="470.85" stroke="#d62728" stroke-width="1.3"/>
<line x1="851.16" y1="470.82" x2="861.16" y2="470.82" stroke="#d62728" stroke-width="1.3"/>
<circle cx="856.16" cy="470.83" r="4" fill="#d62728" stroke="#ffffff" stroke-width="1"/>
<circle cx="909.40" cy="470.84" r="4" fill="#d62728" stroke="#ffffff" stroke-width="1"/>
<circle cx="962.63" cy="470.84" r="4" fill="#d62728" stroke="#ffffff" stroke-width="1"/>
<line x1="1015.86" y1="470.88" x2="1015.86" y2="470.73" stroke="#d62728" stroke-width="1.3"/>
<line x1="1010.86" y1="470.88" x2="1020.86" y2="470.88" stroke="#d62728" stroke-width="1.3"/>
<line x1="1010.86" y1="470.73" x2="1020.86" y2="470.73" stroke="#d62728" stroke-width="1.3"/>
<circle cx="1015.86" cy="470.80" r="4" fill="#d62728" stroke="#ffffff" stroke-width="1"/>
</svg>
