<svg xmlns="http://www.w3.org/2000/svg" width="1120" height="760" viewBox="0 0 1120 760">
<rect width="100%" height="100%" fill="#fbfbf8"/>
<text x="560.0" y="34" text-anchor="middle" font-family="sans-serif" font-size="24" fill="#222">Pérdida vs. payload</text>
<rect x="96" y="106" width="988" height="562" fill="#ffffff" stroke="#c9c9c1"/>
<line x1="96" y1="106.00" x2="1084" y2="106.00" stroke="#a9aba3" stroke-width="1.35"/>
<text x="86" y="110.00" text-anchor="end" font-family="sans-serif" font-size="13" font-weight="400" fill="#292925">0.0129</text>
<line x1="96" y1="199.67" x2="1084" y2="199.67" stroke="#a9aba3" stroke-width="1.35"/>
<text x="86" y="203.67" text-anchor="end" font-family="sans-serif" font-size="13" font-weight="400" fill="#292925">0.0106</text>
<line x1="96" y1="293.33" x2="1084" y2="293.33" stroke="#a9aba3" stroke-width="1.35"/>
<text x="86" y="297.33" text-anchor="end" font-family="sans-serif" font-size="13" font-weight="400" fill="#292925">0.0083</text>
<line x1="96" y1="387.00" x2="1084" y2="387.00" stroke="#a9aba3" stroke-width="1.35"/>
<text x="86" y="391.00" text-anchor="end" font-family="sans-serif" font-size="13" font-weight="400" fill="#292925">0.006</text>
<line x1="96" y1="480.67" x2="1084" y2="480.67" stroke="#a9aba3" stroke-width="1.35"/>
<text x="86" y="484.67" text-anchor="end" font-family="sans-serif" font-size="13" font-weight="400" fill="#292925">0.0037</text>
<line x1="96" y1="574.33" x2="1084" y2="574.33" stroke="#a9aba3" stroke-width="1.35"/>
<text x="86" y="578.33" text-anchor="end" font-family="sans-serif" font-size="13" font-weight="400" fill="#292925">0.0013</text>
<line x1="96" y1="668.00" x2="1084" y2="668.00" stroke="#a9aba3" stroke-width="1.35"/>
<text x="86" y="672.00" text-anchor="end" font-family="sans-serif" font-size="13" font-weight="400" fill="#292925">-0.001</text>
<line x1="96" y1="628.84" x2="1084" y2="628.84" stroke="#676761" stroke-width="1.8"/>
<text x="86" y="632.84" text-anchor="end" font-family="sans-serif" font-size="12" font-weight="600" fill="#222">0</text>
<line x1="116.71" y1="106" x2="116.71" y2="668" stroke="#b4b6ae" stroke-width="1.25"/>
<text x="116.71" y="690" text-anchor="middle" font-family="sans-serif" font-size="11" font-weight="500" fill="#292925">256</text>
<line x1="175.87" y1="106" x2="175.87" y2="668" stroke="#b4b6ae" stroke-width="1.25"/>
<text x="175.87" y="690" text-anchor="middle" font-family="sans-serif" font-size="11" font-weight="500" fill="#292925">330</text>
<line x1="235.03" y1="106" x2="235.03" y2="668" stroke="#b4b6ae" stroke-width="1.25"/>
<text x="235.03" y="690" text-anchor="middle" font-family="sans-serif" font-size="11" font-weight="500" fill="#292925">404</text>
<line x1="294.19" y1="106" x2="294.19" y2="668" stroke="#b4b6ae" stroke-width="1.25"/>
<text x="294.19" y="690" text-anchor="middle" font-family="sans-serif" font-size="11" font-weight="500" fill="#292925">478</text>
<line x1="353.35" y1="106" x2="353.35" y2="668" stroke="#b4b6ae" stroke-width="1.25"/>
<text x="353.35" y="690" text-anchor="middle" font-family="sans-serif" font-size="11" font-weight="500" fill="#292925">552</text>
<line x1="412.51" y1="106" x2="412.51" y2="668" stroke="#b4b6ae" stroke-width="1.25"/>
<text x="412.51" y="690" text-anchor="middle" font-family="sans-serif" font-size="11" font-weight="500" fill="#292925">626</text>
<line x1="471.68" y1="106" x2="471.68" y2="668" stroke="#b4b6ae" stroke-width="1.25"/>
<text x="471.68" y="690" text-anchor="middle" font-family="sans-serif" font-size="11" font-weight="500" fill="#292925">700</text>
<line x1="530.84" y1="106" x2="530.84" y2="668" stroke="#b4b6ae" stroke-width="1.25"/>
<text x="530.84" y="690" text-anchor="middle" font-family="sans-serif" font-size="11" font-weight="500" fill="#292925">774</text>
<line x1="590.00" y1="106" x2="590.00" y2="668" stroke="#b4b6ae" stroke-width="1.25"/>
<text x="590.00" y="690" text-anchor="middle" font-family="sans-serif" font-size="11" font-weight="500" fill="#292925">848</text>
<line x1="649.16" y1="106" x2="649.16" y2="668" stroke="#b4b6ae" stroke-width="1.25"/>
<text x="649.16" y="690" text-anchor="middle" font-family="sans-serif" font-size="11" font-weight="500" fill="#292925">922</text>
<line x1="708.32" y1="106" x2="708.32" y2="668" stroke="#b4b6ae" stroke-width="1.25"/>
<text x="708.32" y="690" text-anchor="middle" font-family="sans-serif" font-size="11" font-weight="500" fill="#292925">996</text>
<line x1="767.49" y1="106" x2="767.49" y2="668" stroke="#b4b6ae" stroke-width="1.25"/>
<text x="767.49" y="690" text-anchor="middle" font-family="sans-serif" font-size="11" font-weight="500" fill="#292925">1070</text>
<line x1="826.65" y1="106" x2="826.65" y2="668" stroke="#b4b6ae" stroke-width="1.25"/>
<text x="826.65" y="690" text-anchor="middle" font-family="sans-serif" font-size="11" font-weight="500" fill="#292925">1144</text>
<line x1="885.81" y1="106" x2="885.81" y2="668" stroke="#b4b6ae" stroke-width="1.25"/>
<text x="885.81" y="690" text-anchor="middle" font-family="sans-serif" font-size="11" font-weight="500" fill="#292925">1218</text>
<line x1="944.97" y1="106" x2="944.97" y2="668" stroke="#b4b6ae" stroke-width="1.25"/>
<text x="944.97" y="690" text-anchor="middle" font-family="sans-serif" font-size="11" font-weight="500" fill="#292925">1292</text>
<line x1="1004.13" y1="106" x2="1004.13" y2="668" stroke="#b4b6ae" stroke-width="1.25"/>
<text x="1004.13" y="690" text-anchor="middle" font-family="sans-serif" font-size="11" font-weight="500" fill="#292925">1366</text>
<line x1="1063.29" y1="106" x2="1063.29" y2="668" stroke="#b4b6ae" stroke-width="1.25"/>
<text x="1063.29" y="690" text-anchor="middle" font-family="sans-serif" font-size="11" font-weight="500" fill="#292925">1440</text>
<text x="590.0" y="736" text-anchor="middle" font-family="sans-serif" font-size="17" font-weight="600" fill="#171715">Tamaño del payload (bytes)</text>
<text transform="translate(24 387.0) rotate(-90)" text-anchor="middle" font-family="sans-serif" font-size="17" font-weight="600" fill="#171715">Pérdida (%)</text>
<line x1="96.0" y1="64" x2="122.0" y2="64" stroke="#2ca02c" stroke-width="3"/>
<text x="130.0" y="68" font-family="sans-serif" font-size="13" fill="#222">Interfaz a FPGA</text>
<line x1="590.0" y1="64" x2="616.0" y2="64" stroke="#9467bd" stroke-width="3" stroke-dasharray="8 6"/>
<text x="624.0" y="68" font-family="sans-serif" font-size="13" fill="#222">FPGA a interfaz</text>
<polyline points="116.71,521.78 175.87,520.16 235.03,613.43 294.19,361.19 353.35,271.98 412.51,277.66 471.68,397.69 530.84,539.63 590.00,401.75 649.16,260.62 708.32,229.80 767.49,354.71 826.65,454.46 885.81,408.23 944.97,349.84 1004.13,237.91 1063.29,425.27" fill="none" stroke="#2ca02c" stroke-width="2.5"/>
<line x1="116.71" y1="555.42" x2="116.71" y2="488.15" stroke="#2ca02c" stroke-width="1.3"/>
<line x1="111.71" y1="555.42" x2="121.71" y2="555.42" stroke="#2ca02c" stroke-width="1.3"/>
<line x1="111.71" y1="488.15" x2="121.71" y2="488.15" stroke="#2ca02c" stroke-width="1.3"/>
<circle cx="116.71" cy="521.78" r="4" fill="#2ca02c" stroke="#ffffff" stroke-width="1"/>
<line x1="175.87" y1="565.26" x2="175.87" y2="475.06" stroke="#2ca02c" stroke-width="1.3"/>
<line x1="170.87" y1="565.26" x2="180.87" y2="565.26" stroke="#2ca02c" stroke-width="1.3"/>
<line x1="170.87" y1="475.06" x2="180.87" y2="475.06" stroke="#2ca02c" stroke-width="1.3"/>
<circle cx="175.87" cy="520.16" r="4" fill="#2ca02c" stroke="#ffffff" stroke-width="1"/>
<line x1="235.03" y1="629.24" x2="235.03" y2="597.62" stroke="#2ca02c" stroke-width="1.3"/>
<line x1="230.03" y1="629.24" x2="240.03" y2="629.24" stroke="#2ca02c" stroke-width="1.3"/>
<line x1="230.03" y1="597.62" x2="240.03" y2="597.62" stroke="#2ca02c" stroke-width="1.3"/>
<circle cx="235.03" cy="613.43" r="4" fill="#2ca02c" stroke="#ffffff" stroke-width="1"/>
<line x1="294.19" y1="387.63" x2="294.19" y2="334.76" stroke="#2ca02c" stroke-width="1.3"/>
<line x1="289.19" y1="387.63" x2="299.19" y2="387.63" stroke="#2ca02c" stroke-width="1.3"/>
<line x1="289.19" y1="334.76" x2="299.19" y2="334.76" stroke="#2ca02c" stroke-width="1.3"/>
<circle cx="294.19" cy="361.19" r="4" fill="#2ca02c" stroke="#ffffff" stroke-width="1"/>
<line x1="353.35" y1="289.42" x2="353.35" y2="254.54" stroke="#2ca02c" stroke-width="1.3"/>
<line x1="348.35" y1="289.42" x2="358.35" y2="289.42" stroke="#2ca02c" stroke-width="1.3"/>
<line x1="348.35" y1="254.54" x2="358.35" y2="254.54" stroke="#2ca02c" stroke-width="1.3"/>
<circle cx="353.35" cy="271.98" r="4" fill="#2ca02c" stroke="#ffffff" stroke-width="1"/>
<line x1="412.51" y1="309.15" x2="412.51" y2="246.16" stroke="#2ca02c" stroke-width="1.3"/>
<line x1="407.51" y1="309.15" x2="417.51" y2="309.15" stroke="#2ca02c" stroke-width="1.3"/>
<line x1="407.51" y1="246.16" x2="417.51" y2="246.16" stroke="#2ca02c" stroke-width="1.3"/>
<circle cx="412.51" cy="277.66" r="4" fill="#2ca02c" stroke="#ffffff" stroke-width="1"/>
<line x1="471.68" y1="422.85" x2="471.68" y2="372.53" stroke="#2ca02c" stroke-width="1.3"/>
<line x1="466.68" y1="422.85" x2="476.68" y2="422.85" stroke="#2ca02c" stroke-width="1.3"/>
<line x1="466.68" y1="372.53" x2="476.68" y2="372.53" stroke="#2ca02c" stroke-width="1.3"/>
<circle cx="471.68" cy="397.69" r="4" fill="#2ca02c" stroke="#ffffff" stroke-width="1"/>
<line x1="530.84" y1="571.17" x2="530.84" y2="508.08" stroke="#2ca02c" stroke-width="1.3"/>
<line x1="525.84" y1="571.17" x2="535.84" y2="571.17" stroke="#2ca02c" stroke-width="1.3"/>
<line x1="525.84" y1="508.08" x2="535.84" y2="508.08" stroke="#2ca02c" stroke-width="1.3"/>
<circle cx="530.84" cy="539.63" r="4" fill="#2ca02c" stroke="#ffffff" stroke-width="1"/>
<line x1="590.00" y1="435.31" x2="590.00" y2="368.18" stroke="#2ca02c" stroke-width="1.3"/>
<line x1="585.00" y1="435.31" x2="595.00" y2="435.31" stroke="#2ca02c" stroke-width="1.3"/>
<line x1="585.00" y1="368.18" x2="595.00" y2="368.18" stroke="#2ca02c" stroke-width="1.3"/>
<circle cx="590.00" cy="401.75" r="4" fill="#2ca02c" stroke="#ffffff" stroke-width="1"/>
<line x1="649.16" y1="338.65" x2="649.16" y2="182.60" stroke="#2ca02c" stroke-width="1.3"/>
<line x1="644.16" y1="338.65" x2="654.16" y2="338.65" stroke="#2ca02c" stroke-width="1.3"/>
<line x1="644.16" y1="182.60" x2="654.16" y2="182.60" stroke="#2ca02c" stroke-width="1.3"/>
<circle cx="649.16" cy="260.62" r="4" fill="#2ca02c" stroke="#ffffff" stroke-width="1"/>
<line x1="708.32" y1="314.85" x2="708.32" y2="144.76" stroke="#2ca02c" stroke-width="1.3"/>
<line x1="703.32" y1="314.85" x2="713.32" y2="314.85" stroke="#2ca02c" stroke-width="1.3"/>
<line x1="703.32" y1="144.76" x2="713.32" y2="144.76" stroke="#2ca02c" stroke-width="1.3"/>
<circle cx="708.32" cy="229.80" r="4" fill="#2ca02c" stroke="#ffffff" stroke-width="1"/>
<line x1="767.49" y1="387.35" x2="767.49" y2="322.06" stroke="#2ca02c" stroke-width="1.3"/>
<line x1="762.49" y1="387.35" x2="772.49" y2="387.35" stroke="#2ca02c" stroke-width="1.3"/>
<line x1="762.49" y1="322.06" x2="772.49" y2="322.06" stroke="#2ca02c" stroke-width="1.3"/>
<circle cx="767.49" cy="354.71" r="4" fill="#2ca02c" stroke="#ffffff" stroke-width="1"/>
<line x1="826.65" y1="482.71" x2="826.65" y2="426.22" stroke="#2ca02c" stroke-width="1.3"/>
<line x1="821.65" y1="482.71" x2="831.65" y2="482.71" stroke="#2ca02c" stroke-width="1.3"/>
<line x1="821.65" y1="426.22" x2="831.65" y2="426.22" stroke="#2ca02c" stroke-width="1.3"/>
<circle cx="826.65" cy="454.46" r="4" fill="#2ca02c" stroke="#ffffff" stroke-width="1"/>
<line x1="885.81" y1="422.17" x2="885.81" y2="394.30" stroke="#2ca02c" stroke-width="1.3"/>
<line x1="880.81" y1="422.17" x2="890.81" y2="422.17" stroke="#2ca02c" stroke-width="1.3"/>
<line x1="880.81" y1="394.30" x2="890.81" y2="394.30" stroke="#2ca02c" stroke-width="1.3"/>
<circle cx="885.81" cy="408.23" r="4" fill="#2ca02c" stroke="#ffffff" stroke-width="1"/>
<line x1="944.97" y1="371.56" x2="944.97" y2="328.11" stroke="#2ca02c" stroke-width="1.3"/>
<line x1="939.97" y1="371.56" x2="949.97" y2="371.56" stroke="#2ca02c" stroke-width="1.3"/>
<line x1="939.97" y1="328.11" x2="949.97" y2="328.11" stroke="#2ca02c" stroke-width="1.3"/>
<circle cx="944.97" cy="349.84" r="4" fill="#2ca02c" stroke="#ffffff" stroke-width="1"/>
<line x1="1004.13" y1="310.26" x2="1004.13" y2="165.56" stroke="#2ca02c" stroke-width="1.3"/>
<line x1="999.13" y1="310.26" x2="1009.13" y2="310.26" stroke="#2ca02c" stroke-width="1.3"/>
<line x1="999.13" y1="165.56" x2="1009.13" y2="165.56" stroke="#2ca02c" stroke-width="1.3"/>
<circle cx="1004.13" cy="237.91" r="4" fill="#2ca02c" stroke="#ffffff" stroke-width="1"/>
<line x1="1063.29" y1="487.53" x2="1063.29" y2="363.01" stroke="#2ca02c" stroke-width="1.3"/>
<line x1="1058.29" y1="487.53" x2="1068.29" y2="487.53" stroke="#2ca02c" stroke-width="1.3"/>
<line x1="1058.29" y1="363.01" x2="1068.29" y2="363.01" stroke="#2ca02c" stroke-width="1.3"/>
<circle cx="1063.29" cy="425.27" r="4" fill="#2ca02c" stroke="#ffffff" stroke-width="1"/>
<polyline points="116.71,628.84 175.87,628.84 235.03,628.84 294.19,628.84 353.35,628.84 412.51,628.84 471.68,628.84 530.84,628.84 590.00,628.84 649.16,628.84 708.32,628.84 767.49,628.84 826.65,628.84 885.81,628.84 944.97,628.84 1004.13,628.84 1063.29,628.84" fill="none" stroke="#9467bd" stroke-width="2.5" stroke-dasharray="8 6"/>
<circle cx="116.71" cy="628.84" r="4" fill="#9467bd" stroke="#ffffff" stroke-width="1"/>
<circle cx="175.87" cy="628.84" r="4" fill="#9467bd" stroke="#ffffff" stroke-width="1"/>
<circle cx="235.03" cy="628.84" r="4" fill="#9467bd" stroke="#ffffff" stroke-width="1"/>
<circle cx="294.19" cy="628.84" r="4" fill="#9467bd" stroke="#ffffff" stroke-width="1"/>
<circle cx="353.35" cy="628.84" r="4" fill="#9467bd" stroke="#ffffff" stroke-width="1"/>
<circle cx="412.51" cy="628.84" r="4" fill="#9467bd" stroke="#ffffff" stroke-width="1"/>
<circle cx="471.68" cy="628.84" r="4" fill="#9467bd" stroke="#ffffff" stroke-width="1"/>
<circle cx="530.84" cy="628.84" r="4" fill="#9467bd" stroke="#ffffff" stroke-width="1"/>
<circle cx="590.00" cy="628.84" r="4" fill="#9467bd" stroke="#ffffff" stroke-width="1"/>
<circle cx="649.16" cy="628.84" r="4" fill="#9467bd" stroke="#ffffff" stroke-width="1"/>
<circle cx="708.32" cy="628.84" r="4" fill="#9467bd" stroke="#ffffff" stroke-width="1"/>
<circle cx="767.49" cy="628.84" r="4" fill="#9467bd" stroke="#ffffff" stroke-width="1"/>
<circle cx="826.65" cy="628.84" r="4" fill="#9467bd" stroke="#ffffff" stroke-width="1"/>
<circle cx="885.81" cy="628.84" r="4" fill="#9467bd" stroke="#ffffff" stroke-width="1"/>
<circle cx="944.97" cy="628.84" r="4" fill="#9467bd" stroke="#ffffff" stroke-width="1"/>
<circle cx="1004.13" cy="628.84" r="4" fill="#9467bd" stroke="#ffffff" stroke-width="1"/>
<circle cx="1063.29" cy="628.84" r="4" fill="#9467bd" stroke="#ffffff" stroke-width="1"/>
</svg>
