<svg xmlns="http://www.w3.org/2000/svg" width="1120" height="760" viewBox="0 0 1120 760">
<rect width="100%" height="100%" fill="#fbfbf8"/>
<text x="560.0" y="34" text-anchor="middle" font-family="sans-serif" font-size="24" fill="#222">RTT entre interfaz y FPGA vs. payload</text>
<rect x="96" y="106" width="988" height="562" fill="#ffffff" stroke="#c9c9c1"/>
<line x1="96" y1="106.00" x2="1084" y2="106.00" stroke="#a9aba3" stroke-width="1.35"/>
<text x="86" y="110.00" text-anchor="end" font-family="sans-serif" font-size="13" font-weight="400" fill="#292925">0.1126</text>
<line x1="96" y1="199.67" x2="1084" y2="199.67" stroke="#a9aba3" stroke-width="1.35"/>
<text x="86" y="203.67" text-anchor="end" font-family="sans-serif" font-size="13" font-weight="400" fill="#292925">0.0938</text>
<line x1="96" y1="293.33" x2="1084" y2="293.33" stroke="#a9aba3" stroke-width="1.35"/>
<text x="86" y="297.33" text-anchor="end" font-family="sans-serif" font-size="13" font-weight="400" fill="#292925">0.0751</text>
<line x1="96" y1="387.00" x2="1084" y2="387.00" stroke="#a9aba3" stroke-width="1.35"/>
<text x="86" y="391.00" text-anchor="end" font-family="sans-serif" font-size="13" font-weight="400" fill="#292925">0.0563</text>
<line x1="96" y1="480.67" x2="1084" y2="480.67" stroke="#a9aba3" stroke-width="1.35"/>
<text x="86" y="484.67" text-anchor="end" font-family="sans-serif" font-size="13" font-weight="400" fill="#292925">0.0375</text>
<line x1="96" y1="574.33" x2="1084" y2="574.33" stroke="#a9aba3" stroke-width="1.35"/>
<text x="86" y="578.33" text-anchor="end" font-family="sans-serif" font-size="13" font-weight="400" fill="#292925">0.0188</text>
<line x1="96" y1="668.00" x2="1084" y2="668.00" stroke="#4f504b" stroke-width="2.2"/>
<text x="86" y="672.00" text-anchor="end" font-family="sans-serif" font-size="13" font-weight="600" fill="#292925">0</text>
<line x1="116.71" y1="106" x2="116.71" y2="668" stroke="#b4b6ae" stroke-width="1.25"/>
<text x="116.71" y="690" text-anchor="middle" font-family="sans-serif" font-size="11" font-weight="500" fill="#292925">256</text>
<line x1="175.87" y1="106" x2="175.87" y2="668" stroke="#b4b6ae" stroke-width="1.25"/>
<text x="175.87" y="690" text-anchor="middle" font-family="sans-serif" font-size="11" font-weight="500" fill="#292925">330</text>
<line x1="235.03" y1="106" x2="235.03" y2="668" stroke="#b4b6ae" stroke-width="1.25"/>
<text x="235.03" y="690" text-anchor="middle" font-family="sans-serif" font-size="11" font-weight="500" fill="#292925">404</text>
<line x1="294.19" y1="106" x2="294.19" y2="668" stroke="#b4b6ae" stroke-width="1.25"/>
<text x="294.19" y="690" text-anchor="middle" font-family="sans-serif" font-size="11" font-weight="500" fill="#292925">478</text>
<line x1="353.35" y1="106" x2="353.35" y2="668" stroke="#b4b6ae" stroke-width="1.25"/>
<text x="353.35" y="690" text-anchor="middle" font-family="sans-serif" font-size="11" font-weight="500" fill="#292925">552</text>
<line x1="412.51" y1="106" x2="412.51" y2="668" stroke="#b4b6ae" stroke-width="1.25"/>
<text x="412.51" y="690" text-anchor="middle" font-family="sans-serif" font-size="11" font-weight="500" fill="#292925">626</text>
<line x1="471.68" y1="106" x2="471.68" y2="668" stroke="#b4b6ae" stroke-width="1.25"/>
<text x="471.68" y="690" text-anchor="middle" font-family="sans-serif" font-size="11" font-weight="500" fill="#292925">700</text>
<line x1="530.84" y1="106" x2="530.84" y2="668" stroke="#b4b6ae" stroke-width="1.25"/>
<text x="530.84" y="690" text-anchor="middle" font-family="sans-serif" font-size="11" font-weight="500" fill="#292925">774</text>
<line x1="590.00" y1="106" x2="590.00" y2="668" stroke="#b4b6ae" stroke-width="1.25"/>
<text x="590.00" y="690" text-anchor="middle" font-family="sans-serif" font-size="11" font-weight="500" fill="#292925">848</text>
<line x1="649.16" y1="106" x2="649.16" y2="668" stroke="#b4b6ae" stroke-width="1.25"/>
<text x="649.16" y="690" text-anchor="middle" font-family="sans-serif" font-size="11" font-weight="500" fill="#292925">922</text>
<line x1="708.32" y1="106" x2="708.32" y2="668" stroke="#b4b6ae" stroke-width="1.25"/>
<text x="708.32" y="690" text-anchor="middle" font-family="sans-serif" font-size="11" font-weight="500" fill="#292925">996</text>
<line x1="767.49" y1="106" x2="767.49" y2="668" stroke="#b4b6ae" stroke-width="1.25"/>
<text x="767.49" y="690" text-anchor="middle" font-family="sans-serif" font-size="11" font-weight="500" fill="#292925">1070</text>
<line x1="826.65" y1="106" x2="826.65" y2="668" stroke="#b4b6ae" stroke-width="1.25"/>
<text x="826.65" y="690" text-anchor="middle" font-family="sans-serif" font-size="11" font-weight="500" fill="#292925">1144</text>
<line x1="885.81" y1="106" x2="885.81" y2="668" stroke="#b4b6ae" stroke-width="1.25"/>
<text x="885.81" y="690" text-anchor="middle" font-family="sans-serif" font-size="11" font-weight="500" fill="#292925">1218</text>
<line x1="944.97" y1="106" x2="944.97" y2="668" stroke="#b4b6ae" stroke-width="1.25"/>
<text x="944.97" y="690" text-anchor="middle" font-family="sans-serif" font-size="11" font-weight="500" fill="#292925">1292</text>
<line x1="1004.13" y1="106" x2="1004.13" y2="668" stroke="#b4b6ae" stroke-width="1.25"/>
<text x="1004.13" y="690" text-anchor="middle" font-family="sans-serif" font-size="11" font-weight="500" fill="#292925">1366</text>
<line x1="1063.29" y1="106" x2="1063.29" y2="668" stroke="#b4b6ae" stroke-width="1.25"/>
<text x="1063.29" y="690" text-anchor="middle" font-family="sans-serif" font-size="11" font-weight="500" fill="#292925">1440</text>
<text x="590.0" y="736" text-anchor="middle" font-family="sans-serif" font-size="17" font-weight="600" fill="#171715">Tamaño del payload (bytes)</text>
<text transform="translate(24 387.0) rotate(-90)" text-anchor="middle" font-family="sans-serif" font-size="17" font-weight="600" fill="#171715">RTT promedio entre interfaz y FPGA (ms)</text>
<line x1="96.0" y1="64" x2="122.0" y2="64" stroke="#1f77b4" stroke-width="3"/>
<text x="130.0" y="68" font-family="sans-serif" font-size="13" fill="#222">RTT interfaz-FPGA</text>
<polyline points="116.71,436.29 175.87,414.81 235.03,395.02 294.19,377.03 353.35,348.35 412.51,340.01 471.68,323.63 530.84,304.85 590.00,287.42 649.16,270.30 708.32,253.74 767.49,238.60 826.65,216.16 885.81,198.42 944.97,186.92 1004.13,164.97 1063.29,147.87" fill="none" stroke="#1f77b4" stroke-width="2.5"/>
<line x1="116.71" y1="445.33" x2="116.71" y2="427.24" stroke="#1f77b4" stroke-width="1.3"/>
<line x1="111.71" y1="445.33" x2="121.71" y2="445.33" stroke="#1f77b4" stroke-width="1.3"/>
<line x1="111.71" y1="427.24" x2="121.71" y2="427.24" stroke="#1f77b4" stroke-width="1.3"/>
<circle cx="116.71" cy="436.29" r="4" fill="#1f77b4" stroke="#ffffff" stroke-width="1"/>
<line x1="175.87" y1="425.82" x2="175.87" y2="403.80" stroke="#1f77b4" stroke-width="1.3"/>
<line x1="170.87" y1="425.82" x2="180.87" y2="425.82" stroke="#1f77b4" stroke-width="1.3"/>
<line x1="170.87" y1="403.80" x2="180.87" y2="403.80" stroke="#1f77b4" stroke-width="1.3"/>
<circle cx="175.87" cy="414.81" r="4" fill="#1f77b4" stroke="#ffffff" stroke-width="1"/>
<line x1="235.03" y1="395.25" x2="235.03" y2="394.79" stroke="#1f77b4" stroke-width="1.3"/>
<line x1="230.03" y1="395.25" x2="240.03" y2="395.25" stroke="#1f77b4" stroke-width="1.3"/>
<line x1="230.03" y1="394.79" x2="240.03" y2="394.79" stroke="#1f77b4" stroke-width="1.3"/>
<circle cx="235.03" cy="395.02" r="4" fill="#1f77b4" stroke="#ffffff" stroke-width="1"/>
<line x1="294.19" y1="378.09" x2="294.19" y2="375.97" stroke="#1f77b4" stroke-width="1.3"/>
<line x1="289.19" y1="378.09" x2="299.19" y2="378.09" stroke="#1f77b4" stroke-width="1.3"/>
<line x1="289.19" y1="375.97" x2="299.19" y2="375.97" stroke="#1f77b4" stroke-width="1.3"/>
<circle cx="294.19" cy="377.03" r="4" fill="#1f77b4" stroke="#ffffff" stroke-width="1"/>
<line x1="353.35" y1="355.06" x2="353.35" y2="341.63" stroke="#1f77b4" stroke-width="1.3"/>
<line x1="348.35" y1="355.06" x2="358.35" y2="355.06" stroke="#1f77b4" stroke-width="1.3"/>
<line x1="348.35" y1="341.63" x2="358.35" y2="341.63" stroke="#1f77b4" stroke-width="1.3"/>
<circle cx="353.35" cy="348.35" r="4" fill="#1f77b4" stroke="#ffffff" stroke-width="1"/>
<line x1="412.51" y1="341.25" x2="412.51" y2="338.77" stroke="#1f77b4" stroke-width="1.3"/>
<line x1="407.51" y1="341.25" x2="417.51" y2="341.25" stroke="#1f77b4" stroke-width="1.3"/>
<line x1="407.51" y1="338.77" x2="417.51" y2="338.77" stroke="#1f77b4" stroke-width="1.3"/>
<circle cx="412.51" cy="340.01" r="4" fill="#1f77b4" stroke="#ffffff" stroke-width="1"/>
<line x1="471.68" y1="325.86" x2="471.68" y2="321.40" stroke="#1f77b4" stroke-width="1.3"/>
<line x1="466.68" y1="325.86" x2="476.68" y2="325.86" stroke="#1f77b4" stroke-width="1.3"/>
<line x1="466.68" y1="321.40" x2="476.68" y2="321.40" stroke="#1f77b4" stroke-width="1.3"/>
<circle cx="471.68" cy="323.63" r="4" fill="#1f77b4" stroke="#ffffff" stroke-width="1"/>
<line x1="530.84" y1="305.49" x2="530.84" y2="304.20" stroke="#1f77b4" stroke-width="1.3"/>
<line x1="525.84" y1="305.49" x2="535.84" y2="305.49" stroke="#1f77b4" stroke-width="1.3"/>
<line x1="525.84" y1="304.20" x2="535.84" y2="304.20" stroke="#1f77b4" stroke-width="1.3"/>
<circle cx="530.84" cy="304.85" r="4" fill="#1f77b4" stroke="#ffffff" stroke-width="1"/>
<line x1="590.00" y1="288.04" x2="590.00" y2="286.80" stroke="#1f77b4" stroke-width="1.3"/>
<line x1="585.00" y1="288.04" x2="595.00" y2="288.04" stroke="#1f77b4" stroke-width="1.3"/>
<line x1="585.00" y1="286.80" x2="595.00" y2="286.80" stroke="#1f77b4" stroke-width="1.3"/>
<circle cx="590.00" cy="287.42" r="4" fill="#1f77b4" stroke="#ffffff" stroke-width="1"/>
<line x1="649.16" y1="271.39" x2="649.16" y2="269.20" stroke="#1f77b4" stroke-width="1.3"/>
<line x1="644.16" y1="271.39" x2="654.16" y2="271.39" stroke="#1f77b4" stroke-width="1.3"/>
<line x1="644.16" y1="269.20" x2="654.16" y2="269.20" stroke="#1f77b4" stroke-width="1.3"/>
<circle cx="649.16" cy="270.30" r="4" fill="#1f77b4" stroke="#ffffff" stroke-width="1"/>
<line x1="708.32" y1="254.27" x2="708.32" y2="253.20" stroke="#1f77b4" stroke-width="1.3"/>
<line x1="703.32" y1="254.27" x2="713.32" y2="254.27" stroke="#1f77b4" stroke-width="1.3"/>
<line x1="703.32" y1="253.20" x2="713.32" y2="253.20" stroke="#1f77b4" stroke-width="1.3"/>
<circle cx="708.32" cy="253.74" r="4" fill="#1f77b4" stroke="#ffffff" stroke-width="1"/>
<line x1="767.49" y1="244.93" x2="767.49" y2="232.27" stroke="#1f77b4" stroke-width="1.3"/>
<line x1="762.49" y1="244.93" x2="772.49" y2="244.93" stroke="#1f77b4" stroke-width="1.3"/>
<line x1="762.49" y1="232.27" x2="772.49" y2="232.27" stroke="#1f77b4" stroke-width="1.3"/>
<circle cx="767.49" cy="238.60" r="4" fill="#1f77b4" stroke="#ffffff" stroke-width="1"/>
<line x1="826.65" y1="216.40" x2="826.65" y2="215.91" stroke="#1f77b4" stroke-width="1.3"/>
<line x1="821.65" y1="216.40" x2="831.65" y2="216.40" stroke="#1f77b4" stroke-width="1.3"/>
<line x1="821.65" y1="215.91" x2="831.65" y2="215.91" stroke="#1f77b4" stroke-width="1.3"/>
<circle cx="826.65" cy="216.16" r="4" fill="#1f77b4" stroke="#ffffff" stroke-width="1"/>
<line x1="885.81" y1="198.47" x2="885.81" y2="198.37" stroke="#1f77b4" stroke-width="1.3"/>
<line x1="880.81" y1="198.47" x2="890.81" y2="198.47" stroke="#1f77b4" stroke-width="1.3"/>
<line x1="880.81" y1="198.37" x2="890.81" y2="198.37" stroke="#1f77b4" stroke-width="1.3"/>
<circle cx="885.81" cy="198.42" r="4" fill="#1f77b4" stroke="#ffffff" stroke-width="1"/>
<line x1="944.97" y1="195.09" x2="944.97" y2="178.74" stroke="#1f77b4" stroke-width="1.3"/>
<line x1="939.97" y1="195.09" x2="949.97" y2="195.09" stroke="#1f77b4" stroke-width="1.3"/>
<line x1="939.97" y1="178.74" x2="949.97" y2="178.74" stroke="#1f77b4" stroke-width="1.3"/>
<circle cx="944.97" cy="186.92" r="4" fill="#1f77b4" stroke="#ffffff" stroke-width="1"/>
<line x1="1004.13" y1="165.18" x2="1004.13" y2="164.75" stroke="#1f77b4" stroke-width="1.3"/>
<line x1="999.13" y1="165.18" x2="1009.13" y2="165.18" stroke="#1f77b4" stroke-width="1.3"/>
<line x1="999.13" y1="164.75" x2="1009.13" y2="164.75" stroke="#1f77b4" stroke-width="1.3"/>
<circle cx="1004.13" cy="164.97" r="4" fill="#1f77b4" stroke="#ffffff" stroke-width="1"/>
<line x1="1063.29" y1="148.11" x2="1063.29" y2="147.63" stroke="#1f77b4" stroke-width="1.3"/>
<line x1="1058.29" y1="148.11" x2="1068.29" y2="148.11" stroke="#1f77b4" stroke-width="1.3"/>
<line x1="1058.29" y1="147.63" x2="1068.29" y2="147.63" stroke="#1f77b4" stroke-width="1.3"/>
<circle cx="1063.29" cy="147.87" r="4" fill="#1f77b4" stroke="#ffffff" stroke-width="1"/>
</svg>
