<svg xmlns="http://www.w3.org/2000/svg" width="1120" height="760" viewBox="0 0 1120 760">
<rect width="100%" height="100%" fill="#fbfbf8"/>
<text x="560.0" y="34" text-anchor="middle" font-family="sans-serif" font-size="24" fill="#222">RTT entre interfaz y FPGA vs. payload</text>
<rect x="96" y="130" width="988" height="538" fill="#ffffff" stroke="#c9c9c1"/>
<line x1="96" y1="130.00" x2="1084" y2="130.00" stroke="#a9aba3" stroke-width="1.35"/>
<text x="86" y="134.00" text-anchor="end" font-family="sans-serif" font-size="13" font-weight="400" fill="#292925">1.54</text>
<line x1="96" y1="219.67" x2="1084" y2="219.67" stroke="#a9aba3" stroke-width="1.35"/>
<text x="86" y="223.67" text-anchor="end" font-family="sans-serif" font-size="13" font-weight="400" fill="#292925">1.28</text>
<line x1="96" y1="309.33" x2="1084" y2="309.33" stroke="#a9aba3" stroke-width="1.35"/>
<text x="86" y="313.33" text-anchor="end" font-family="sans-serif" font-size="13" font-weight="400" fill="#292925">1.03</text>
<line x1="96" y1="399.00" x2="1084" y2="399.00" stroke="#a9aba3" stroke-width="1.35"/>
<text x="86" y="403.00" text-anchor="end" font-family="sans-serif" font-size="13" font-weight="400" fill="#292925">0.7693</text>
<line x1="96" y1="488.67" x2="1084" y2="488.67" stroke="#a9aba3" stroke-width="1.35"/>
<text x="86" y="492.67" text-anchor="end" font-family="sans-serif" font-size="13" font-weight="400" fill="#292925">0.5129</text>
<line x1="96" y1="578.33" x2="1084" y2="578.33" stroke="#a9aba3" stroke-width="1.35"/>
<text x="86" y="582.33" text-anchor="end" font-family="sans-serif" font-size="13" font-weight="400" fill="#292925">0.2564</text>
<line x1="96" y1="668.00" x2="1084" y2="668.00" stroke="#4f504b" stroke-width="2.2"/>
<text x="86" y="672.00" text-anchor="end" font-family="sans-serif" font-size="13" font-weight="600" fill="#292925">0</text>
<line x1="113.55" y1="130" x2="113.55" y2="668" stroke="#b4b6ae" stroke-width="1.25"/>
<text transform="translate(113.55 688) rotate(-45)" text-anchor="end" font-family="sans-serif" font-size="11" font-weight="500" fill="#292925">256</text>
<line x1="163.71" y1="130" x2="163.71" y2="668" stroke="#b4b6ae" stroke-width="1.25"/>
<text transform="translate(163.71 688) rotate(-45)" text-anchor="end" font-family="sans-serif" font-size="11" font-weight="500" fill="#292925">320</text>
<line x1="213.86" y1="130" x2="213.86" y2="668" stroke="#b4b6ae" stroke-width="1.25"/>
<text transform="translate(213.86 688) rotate(-45)" text-anchor="end" font-family="sans-serif" font-size="11" font-weight="500" fill="#292925">384</text>
<line x1="264.01" y1="130" x2="264.01" y2="668" stroke="#b4b6ae" stroke-width="1.25"/>
<text transform="translate(264.01 688) rotate(-45)" text-anchor="end" font-family="sans-serif" font-size="11" font-weight="500" fill="#292925">448</text>
<line x1="314.16" y1="130" x2="314.16" y2="668" stroke="#b4b6ae" stroke-width="1.25"/>
<text transform="translate(314.16 688) rotate(-45)" text-anchor="end" font-family="sans-serif" font-size="11" font-weight="500" fill="#292925">512</text>
<line x1="364.31" y1="130" x2="364.31" y2="668" stroke="#b4b6ae" stroke-width="1.25"/>
<text transform="translate(364.31 688) rotate(-45)" text-anchor="end" font-family="sans-serif" font-size="11" font-weight="500" fill="#292925">576</text>
<line x1="414.47" y1="130" x2="414.47" y2="668" stroke="#b4b6ae" stroke-width="1.25"/>
<text transform="translate(414.47 688) rotate(-45)" text-anchor="end" font-family="sans-serif" font-size="11" font-weight="500" fill="#292925">640</text>
<line x1="464.62" y1="130" x2="464.62" y2="668" stroke="#b4b6ae" stroke-width="1.25"/>
<text transform="translate(464.62 688) rotate(-45)" text-anchor="end" font-family="sans-serif" font-size="11" font-weight="500" fill="#292925">704</text>
<line x1="514.77" y1="130" x2="514.77" y2="668" stroke="#b4b6ae" stroke-width="1.25"/>
<text transform="translate(514.77 688) rotate(-45)" text-anchor="end" font-family="sans-serif" font-size="11" font-weight="500" fill="#292925">768</text>
<line x1="564.92" y1="130" x2="564.92" y2="668" stroke="#b4b6ae" stroke-width="1.25"/>
<text transform="translate(564.92 688) rotate(-45)" text-anchor="end" font-family="sans-serif" font-size="11" font-weight="500" fill="#292925">832</text>
<line x1="615.08" y1="130" x2="615.08" y2="668" stroke="#b4b6ae" stroke-width="1.25"/>
<text transform="translate(615.08 688) rotate(-45)" text-anchor="end" font-family="sans-serif" font-size="11" font-weight="500" fill="#292925">896</text>
<line x1="665.23" y1="130" x2="665.23" y2="668" stroke="#b4b6ae" stroke-width="1.25"/>
<text transform="translate(665.23 688) rotate(-45)" text-anchor="end" font-family="sans-serif" font-size="11" font-weight="500" fill="#292925">960</text>
<line x1="715.38" y1="130" x2="715.38" y2="668" stroke="#b4b6ae" stroke-width="1.25"/>
<text transform="translate(715.38 688) rotate(-45)" text-anchor="end" font-family="sans-serif" font-size="11" font-weight="500" fill="#292925">1024</text>
<line x1="765.53" y1="130" x2="765.53" y2="668" stroke="#b4b6ae" stroke-width="1.25"/>
<text transform="translate(765.53 688) rotate(-45)" text-anchor="end" font-family="sans-serif" font-size="11" font-weight="500" fill="#292925">1088</text>
<line x1="815.69" y1="130" x2="815.69" y2="668" stroke="#b4b6ae" stroke-width="1.25"/>
<text transform="translate(815.69 688) rotate(-45)" text-anchor="end" font-family="sans-serif" font-size="11" font-weight="500" fill="#292925">1152</text>
<line x1="865.84" y1="130" x2="865.84" y2="668" stroke="#b4b6ae" stroke-width="1.25"/>
<text transform="translate(865.84 688) rotate(-45)" text-anchor="end" font-family="sans-serif" font-size="11" font-weight="500" fill="#292925">1216</text>
<line x1="915.99" y1="130" x2="915.99" y2="668" stroke="#b4b6ae" stroke-width="1.25"/>
<text transform="translate(915.99 688) rotate(-45)" text-anchor="end" font-family="sans-serif" font-size="11" font-weight="500" fill="#292925">1280</text>
<line x1="966.14" y1="130" x2="966.14" y2="668" stroke="#b4b6ae" stroke-width="1.25"/>
<text transform="translate(966.14 688) rotate(-45)" text-anchor="end" font-family="sans-serif" font-size="11" font-weight="500" fill="#292925">1344</text>
<line x1="1016.29" y1="130" x2="1016.29" y2="668" stroke="#b4b6ae" stroke-width="1.25"/>
<text transform="translate(1016.29 688) rotate(-45)" text-anchor="end" font-family="sans-serif" font-size="11" font-weight="500" fill="#292925">1408</text>
<line x1="1066.45" y1="130" x2="1066.45" y2="668" stroke="#b4b6ae" stroke-width="1.25"/>
<text transform="translate(1066.45 688) rotate(-45)" text-anchor="end" font-family="sans-serif" font-size="11" font-weight="500" fill="#292925">1472</text>
<text x="590.0" y="736" text-anchor="middle" font-family="sans-serif" font-size="17" font-weight="600" fill="#171715">Tamaño del payload (bytes)</text>
<text transform="translate(24 399.0) rotate(-90)" text-anchor="middle" font-family="sans-serif" font-size="17" font-weight="600" fill="#171715">RTT promedio entre interfaz y FPGA (ms)</text>
<line x1="96.0" y1="64" x2="122.0" y2="64" stroke="#1f77b4" stroke-width="3"/>
<text x="130.0" y="68" font-family="sans-serif" font-size="13" fill="#222">USB-C to Gigabit Ethernet Adapter</text>
<line x1="425.3333333333333" y1="64" x2="451.3333333333333" y2="64" stroke="#d62728" stroke-width="3"/>
<text x="459.3333333333333" y="68" font-family="sans-serif" font-size="13" fill="#222">RJ45 Raspberry Pi 5</text>
<line x1="754.6666666666666" y1="64" x2="780.6666666666666" y2="64" stroke="#2ca02c" stroke-width="3"/>
<text x="788.6666666666666" y="68" font-family="sans-serif" font-size="13" fill="#222">RJ45 Server</text>
<line x1="96.0" y1="88" x2="122.0" y2="88" stroke="#9467bd" stroke-width="3"/>
<text x="130.0" y="92" font-family="sans-serif" font-size="13" fill="#222">SFP+ NetFPGA-SUME Server</text>
<line x1="425.3333333333333" y1="88" x2="451.3333333333333" y2="88" stroke="#ff7f0e" stroke-width="3"/>
<text x="459.3333333333333" y="92" font-family="sans-serif" font-size="13" fill="#222">SFP+ NIC Server</text>
<polyline points="113.55,207.29 163.71,209.11 213.86,206.35 264.01,204.60 314.16,203.30 364.31,201.54 414.47,199.33 464.62,194.73 514.77,194.26 564.92,192.87 615.08,193.70 665.23,189.37 715.38,187.63 765.53,182.65 815.69,181.42 865.84,179.61 915.99,180.16 966.14,175.58 1016.29,175.29 1066.45,176.10" fill="none" stroke="#1f77b4" stroke-width="2.5"/>
<line x1="113.55" y1="209.26" x2="113.55" y2="205.32" stroke="#1f77b4" stroke-width="1.3"/>
<line x1="108.55" y1="209.26" x2="118.55" y2="209.26" stroke="#1f77b4" stroke-width="1.3"/>
<line x1="108.55" y1="205.32" x2="118.55" y2="205.32" stroke="#1f77b4" stroke-width="1.3"/>
<circle cx="113.55" cy="207.29" r="4" fill="#1f77b4" stroke="#ffffff" stroke-width="1"/>
<line x1="163.71" y1="210.51" x2="163.71" y2="207.70" stroke="#1f77b4" stroke-width="1.3"/>
<line x1="158.71" y1="210.51" x2="168.71" y2="210.51" stroke="#1f77b4" stroke-width="1.3"/>
<line x1="158.71" y1="207.70" x2="168.71" y2="207.70" stroke="#1f77b4" stroke-width="1.3"/>
<circle cx="163.71" cy="209.11" r="4" fill="#1f77b4" stroke="#ffffff" stroke-width="1"/>
<line x1="213.86" y1="207.85" x2="213.86" y2="204.85" stroke="#1f77b4" stroke-width="1.3"/>
<line x1="208.86" y1="207.85" x2="218.86" y2="207.85" stroke="#1f77b4" stroke-width="1.3"/>
<line x1="208.86" y1="204.85" x2="218.86" y2="204.85" stroke="#1f77b4" stroke-width="1.3"/>
<circle cx="213.86" cy="206.35" r="4" fill="#1f77b4" stroke="#ffffff" stroke-width="1"/>
<line x1="264.01" y1="206.08" x2="264.01" y2="203.11" stroke="#1f77b4" stroke-width="1.3"/>
<line x1="259.01" y1="206.08" x2="269.01" y2="206.08" stroke="#1f77b4" stroke-width="1.3"/>
<line x1="259.01" y1="203.11" x2="269.01" y2="203.11" stroke="#1f77b4" stroke-width="1.3"/>
<circle cx="264.01" cy="204.60" r="4" fill="#1f77b4" stroke="#ffffff" stroke-width="1"/>
<line x1="314.16" y1="204.45" x2="314.16" y2="202.14" stroke="#1f77b4" stroke-width="1.3"/>
<line x1="309.16" y1="204.45" x2="319.16" y2="204.45" stroke="#1f77b4" stroke-width="1.3"/>
<line x1="309.16" y1="202.14" x2="319.16" y2="202.14" stroke="#1f77b4" stroke-width="1.3"/>
<circle cx="314.16" cy="203.30" r="4" fill="#1f77b4" stroke="#ffffff" stroke-width="1"/>
<line x1="364.31" y1="202.62" x2="364.31" y2="200.46" stroke="#1f77b4" stroke-width="1.3"/>
<line x1="359.31" y1="202.62" x2="369.31" y2="202.62" stroke="#1f77b4" stroke-width="1.3"/>
<line x1="359.31" y1="200.46" x2="369.31" y2="200.46" stroke="#1f77b4" stroke-width="1.3"/>
<circle cx="364.31" cy="201.54" r="4" fill="#1f77b4" stroke="#ffffff" stroke-width="1"/>
<line x1="414.47" y1="203.05" x2="414.47" y2="195.61" stroke="#1f77b4" stroke-width="1.3"/>
<line x1="409.47" y1="203.05" x2="419.47" y2="203.05" stroke="#1f77b4" stroke-width="1.3"/>
<line x1="409.47" y1="195.61" x2="419.47" y2="195.61" stroke="#1f77b4" stroke-width="1.3"/>
<circle cx="414.47" cy="199.33" r="4" fill="#1f77b4" stroke="#ffffff" stroke-width="1"/>
<line x1="464.62" y1="197.63" x2="464.62" y2="191.84" stroke="#1f77b4" stroke-width="1.3"/>
<line x1="459.62" y1="197.63" x2="469.62" y2="197.63" stroke="#1f77b4" stroke-width="1.3"/>
<line x1="459.62" y1="191.84" x2="469.62" y2="191.84" stroke="#1f77b4" stroke-width="1.3"/>
<circle cx="464.62" cy="194.73" r="4" fill="#1f77b4" stroke="#ffffff" stroke-width="1"/>
<line x1="514.77" y1="197.86" x2="514.77" y2="190.66" stroke="#1f77b4" stroke-width="1.3"/>
<line x1="509.77" y1="197.86" x2="519.77" y2="197.86" stroke="#1f77b4" stroke-width="1.3"/>
<line x1="509.77" y1="190.66" x2="519.77" y2="190.66" stroke="#1f77b4" stroke-width="1.3"/>
<circle cx="514.77" cy="194.26" r="4" fill="#1f77b4" stroke="#ffffff" stroke-width="1"/>
<line x1="564.92" y1="196.38" x2="564.92" y2="189.36" stroke="#1f77b4" stroke-width="1.3"/>
<line x1="559.92" y1="196.38" x2="569.92" y2="196.38" stroke="#1f77b4" stroke-width="1.3"/>
<line x1="559.92" y1="189.36" x2="569.92" y2="189.36" stroke="#1f77b4" stroke-width="1.3"/>
<circle cx="564.92" cy="192.87" r="4" fill="#1f77b4" stroke="#ffffff" stroke-width="1"/>
<line x1="615.08" y1="197.24" x2="615.08" y2="190.17" stroke="#1f77b4" stroke-width="1.3"/>
<line x1="610.08" y1="197.24" x2="620.08" y2="197.24" stroke="#1f77b4" stroke-width="1.3"/>
<line x1="610.08" y1="190.17" x2="620.08" y2="190.17" stroke="#1f77b4" stroke-width="1.3"/>
<circle cx="615.08" cy="193.70" r="4" fill="#1f77b4" stroke="#ffffff" stroke-width="1"/>
<line x1="665.23" y1="194.89" x2="665.23" y2="183.86" stroke="#1f77b4" stroke-width="1.3"/>
<line x1="660.23" y1="194.89" x2="670.23" y2="194.89" stroke="#1f77b4" stroke-width="1.3"/>
<line x1="660.23" y1="183.86" x2="670.23" y2="183.86" stroke="#1f77b4" stroke-width="1.3"/>
<circle cx="665.23" cy="189.37" r="4" fill="#1f77b4" stroke="#ffffff" stroke-width="1"/>
<line x1="715.38" y1="192.25" x2="715.38" y2="183.01" stroke="#1f77b4" stroke-width="1.3"/>
<line x1="710.38" y1="192.25" x2="720.38" y2="192.25" stroke="#1f77b4" stroke-width="1.3"/>
<line x1="710.38" y1="183.01" x2="720.38" y2="183.01" stroke="#1f77b4" stroke-width="1.3"/>
<circle cx="715.38" cy="187.63" r="4" fill="#1f77b4" stroke="#ffffff" stroke-width="1"/>
<line x1="765.53" y1="190.85" x2="765.53" y2="174.44" stroke="#1f77b4" stroke-width="1.3"/>
<line x1="760.53" y1="190.85" x2="770.53" y2="190.85" stroke="#1f77b4" stroke-width="1.3"/>
<line x1="760.53" y1="174.44" x2="770.53" y2="174.44" stroke="#1f77b4" stroke-width="1.3"/>
<circle cx="765.53" cy="182.65" r="4" fill="#1f77b4" stroke="#ffffff" stroke-width="1"/>
<line x1="815.69" y1="187.47" x2="815.69" y2="175.37" stroke="#1f77b4" stroke-width="1.3"/>
<line x1="810.69" y1="187.47" x2="820.69" y2="187.47" stroke="#1f77b4" stroke-width="1.3"/>
<line x1="810.69" y1="175.37" x2="820.69" y2="175.37" stroke="#1f77b4" stroke-width="1.3"/>
<circle cx="815.69" cy="181.42" r="4" fill="#1f77b4" stroke="#ffffff" stroke-width="1"/>
<line x1="865.84" y1="184.93" x2="865.84" y2="174.29" stroke="#1f77b4" stroke-width="1.3"/>
<line x1="860.84" y1="184.93" x2="870.84" y2="184.93" stroke="#1f77b4" stroke-width="1.3"/>
<line x1="860.84" y1="174.29" x2="870.84" y2="174.29" stroke="#1f77b4" stroke-width="1.3"/>
<circle cx="865.84" cy="179.61" r="4" fill="#1f77b4" stroke="#ffffff" stroke-width="1"/>
<line x1="915.99" y1="184.45" x2="915.99" y2="175.87" stroke="#1f77b4" stroke-width="1.3"/>
<line x1="910.99" y1="184.45" x2="920.99" y2="184.45" stroke="#1f77b4" stroke-width="1.3"/>
<line x1="910.99" y1="175.87" x2="920.99" y2="175.87" stroke="#1f77b4" stroke-width="1.3"/>
<circle cx="915.99" cy="180.16" r="4" fill="#1f77b4" stroke="#ffffff" stroke-width="1"/>
<line x1="966.14" y1="180.39" x2="966.14" y2="170.78" stroke="#1f77b4" stroke-width="1.3"/>
<line x1="961.14" y1="180.39" x2="971.14" y2="180.39" stroke="#1f77b4" stroke-width="1.3"/>
<line x1="961.14" y1="170.78" x2="971.14" y2="170.78" stroke="#1f77b4" stroke-width="1.3"/>
<circle cx="966.14" cy="175.58" r="4" fill="#1f77b4" stroke="#ffffff" stroke-width="1"/>
<line x1="1016.29" y1="180.25" x2="1016.29" y2="170.34" stroke="#1f77b4" stroke-width="1.3"/>
<line x1="1011.29" y1="180.25" x2="1021.29" y2="180.25" stroke="#1f77b4" stroke-width="1.3"/>
<line x1="1011.29" y1="170.34" x2="1021.29" y2="170.34" stroke="#1f77b4" stroke-width="1.3"/>
<circle cx="1016.29" cy="175.29" r="4" fill="#1f77b4" stroke="#ffffff" stroke-width="1"/>
<line x1="1066.45" y1="182.34" x2="1066.45" y2="169.85" stroke="#1f77b4" stroke-width="1.3"/>
<line x1="1061.45" y1="182.34" x2="1071.45" y2="182.34" stroke="#1f77b4" stroke-width="1.3"/>
<line x1="1061.45" y1="169.85" x2="1071.45" y2="169.85" stroke="#1f77b4" stroke-width="1.3"/>
<circle cx="1066.45" cy="176.10" r="4" fill="#1f77b4" stroke="#ffffff" stroke-width="1"/>
<polyline points="113.55,635.77 163.71,633.87 213.86,633.66 264.01,631.66 314.16,630.25 364.31,629.04 414.47,626.64 464.62,624.52 514.77,623.28 564.92,622.32 615.08,621.33 665.23,621.14 715.38,620.02 765.53,618.88 815.69,616.29 865.84,614.01 915.99,613.09 966.14,611.83 1016.29,610.29 1066.45,609.39" fill="none" stroke="#d62728" stroke-width="2.5"/>
<line x1="113.55" y1="636.66" x2="113.55" y2="634.88" stroke="#d62728" stroke-width="1.3"/>
<line x1="108.55" y1="636.66" x2="118.55" y2="636.66" stroke="#d62728" stroke-width="1.3"/>
<line x1="108.55" y1="634.88" x2="118.55" y2="634.88" stroke="#d62728" stroke-width="1.3"/>
<circle cx="113.55" cy="635.77" r="4" fill="#d62728" stroke="#ffffff" stroke-width="1"/>
<line x1="163.71" y1="634.01" x2="163.71" y2="633.73" stroke="#d62728" stroke-width="1.3"/>
<line x1="158.71" y1="634.01" x2="168.71" y2="634.01" stroke="#d62728" stroke-width="1.3"/>
<line x1="158.71" y1="633.73" x2="168.71" y2="633.73" stroke="#d62728" stroke-width="1.3"/>
<circle cx="163.71" cy="633.87" r="4" fill="#d62728" stroke="#ffffff" stroke-width="1"/>
<line x1="213.86" y1="634.35" x2="213.86" y2="632.96" stroke="#d62728" stroke-width="1.3"/>
<line x1="208.86" y1="634.35" x2="218.86" y2="634.35" stroke="#d62728" stroke-width="1.3"/>
<line x1="208.86" y1="632.96" x2="218.86" y2="632.96" stroke="#d62728" stroke-width="1.3"/>
<circle cx="213.86" cy="633.66" r="4" fill="#d62728" stroke="#ffffff" stroke-width="1"/>
<line x1="264.01" y1="631.82" x2="264.01" y2="631.49" stroke="#d62728" stroke-width="1.3"/>
<line x1="259.01" y1="631.82" x2="269.01" y2="631.82" stroke="#d62728" stroke-width="1.3"/>
<line x1="259.01" y1="631.49" x2="269.01" y2="631.49" stroke="#d62728" stroke-width="1.3"/>
<circle cx="264.01" cy="631.66" r="4" fill="#d62728" stroke="#ffffff" stroke-width="1"/>
<line x1="314.16" y1="630.36" x2="314.16" y2="630.15" stroke="#d62728" stroke-width="1.3"/>
<line x1="309.16" y1="630.36" x2="319.16" y2="630.36" stroke="#d62728" stroke-width="1.3"/>
<line x1="309.16" y1="630.15" x2="319.16" y2="630.15" stroke="#d62728" stroke-width="1.3"/>
<circle cx="314.16" cy="630.25" r="4" fill="#d62728" stroke="#ffffff" stroke-width="1"/>
<line x1="364.31" y1="629.11" x2="364.31" y2="628.98" stroke="#d62728" stroke-width="1.3"/>
<line x1="359.31" y1="629.11" x2="369.31" y2="629.11" stroke="#d62728" stroke-width="1.3"/>
<line x1="359.31" y1="628.98" x2="369.31" y2="628.98" stroke="#d62728" stroke-width="1.3"/>
<circle cx="364.31" cy="629.04" r="4" fill="#d62728" stroke="#ffffff" stroke-width="1"/>
<line x1="414.47" y1="627.29" x2="414.47" y2="625.99" stroke="#d62728" stroke-width="1.3"/>
<line x1="409.47" y1="627.29" x2="419.47" y2="627.29" stroke="#d62728" stroke-width="1.3"/>
<line x1="409.47" y1="625.99" x2="419.47" y2="625.99" stroke="#d62728" stroke-width="1.3"/>
<circle cx="414.47" cy="626.64" r="4" fill="#d62728" stroke="#ffffff" stroke-width="1"/>
<line x1="464.62" y1="624.88" x2="464.62" y2="624.15" stroke="#d62728" stroke-width="1.3"/>
<line x1="459.62" y1="624.88" x2="469.62" y2="624.88" stroke="#d62728" stroke-width="1.3"/>
<line x1="459.62" y1="624.15" x2="469.62" y2="624.15" stroke="#d62728" stroke-width="1.3"/>
<circle cx="464.62" cy="624.52" r="4" fill="#d62728" stroke="#ffffff" stroke-width="1"/>
<line x1="514.77" y1="623.40" x2="514.77" y2="623.16" stroke="#d62728" stroke-width="1.3"/>
<line x1="509.77" y1="623.40" x2="519.77" y2="623.40" stroke="#d62728" stroke-width="1.3"/>
<line x1="509.77" y1="623.16" x2="519.77" y2="623.16" stroke="#d62728" stroke-width="1.3"/>
<circle cx="514.77" cy="623.28" r="4" fill="#d62728" stroke="#ffffff" stroke-width="1"/>
<line x1="564.92" y1="622.38" x2="564.92" y2="622.26" stroke="#d62728" stroke-width="1.3"/>
<line x1="559.92" y1="622.38" x2="569.92" y2="622.38" stroke="#d62728" stroke-width="1.3"/>
<line x1="559.92" y1="622.26" x2="569.92" y2="622.26" stroke="#d62728" stroke-width="1.3"/>
<circle cx="564.92" cy="622.32" r="4" fill="#d62728" stroke="#ffffff" stroke-width="1"/>
<line x1="615.08" y1="621.73" x2="615.08" y2="620.93" stroke="#d62728" stroke-width="1.3"/>
<line x1="610.08" y1="621.73" x2="620.08" y2="621.73" stroke="#d62728" stroke-width="1.3"/>
<line x1="610.08" y1="620.93" x2="620.08" y2="620.93" stroke="#d62728" stroke-width="1.3"/>
<circle cx="615.08" cy="621.33" r="4" fill="#d62728" stroke="#ffffff" stroke-width="1"/>
<line x1="665.23" y1="621.33" x2="665.23" y2="620.94" stroke="#d62728" stroke-width="1.3"/>
<line x1="660.23" y1="621.33" x2="670.23" y2="621.33" stroke="#d62728" stroke-width="1.3"/>
<line x1="660.23" y1="620.94" x2="670.23" y2="620.94" stroke="#d62728" stroke-width="1.3"/>
<circle cx="665.23" cy="621.14" r="4" fill="#d62728" stroke="#ffffff" stroke-width="1"/>
<line x1="715.38" y1="620.27" x2="715.38" y2="619.76" stroke="#d62728" stroke-width="1.3"/>
<line x1="710.38" y1="620.27" x2="720.38" y2="620.27" stroke="#d62728" stroke-width="1.3"/>
<line x1="710.38" y1="619.76" x2="720.38" y2="619.76" stroke="#d62728" stroke-width="1.3"/>
<circle cx="715.38" cy="620.02" r="4" fill="#d62728" stroke="#ffffff" stroke-width="1"/>
<line x1="765.53" y1="618.97" x2="765.53" y2="618.78" stroke="#d62728" stroke-width="1.3"/>
<line x1="760.53" y1="618.97" x2="770.53" y2="618.97" stroke="#d62728" stroke-width="1.3"/>
<line x1="760.53" y1="618.78" x2="770.53" y2="618.78" stroke="#d62728" stroke-width="1.3"/>
<circle cx="765.53" cy="618.88" r="4" fill="#d62728" stroke="#ffffff" stroke-width="1"/>
<line x1="815.69" y1="616.88" x2="815.69" y2="615.70" stroke="#d62728" stroke-width="1.3"/>
<line x1="810.69" y1="616.88" x2="820.69" y2="616.88" stroke="#d62728" stroke-width="1.3"/>
<line x1="810.69" y1="615.70" x2="820.69" y2="615.70" stroke="#d62728" stroke-width="1.3"/>
<circle cx="815.69" cy="616.29" r="4" fill="#d62728" stroke="#ffffff" stroke-width="1"/>
<line x1="865.84" y1="614.36" x2="865.84" y2="613.65" stroke="#d62728" stroke-width="1.3"/>
<line x1="860.84" y1="614.36" x2="870.84" y2="614.36" stroke="#d62728" stroke-width="1.3"/>
<line x1="860.84" y1="613.65" x2="870.84" y2="613.65" stroke="#d62728" stroke-width="1.3"/>
<circle cx="865.84" cy="614.01" r="4" fill="#d62728" stroke="#ffffff" stroke-width="1"/>
<line x1="915.99" y1="613.26" x2="915.99" y2="612.91" stroke="#d62728" stroke-width="1.3"/>
<line x1="910.99" y1="613.26" x2="920.99" y2="613.26" stroke="#d62728" stroke-width="1.3"/>
<line x1="910.99" y1="612.91" x2="920.99" y2="612.91" stroke="#d62728" stroke-width="1.3"/>
<circle cx="915.99" cy="613.09" r="4" fill="#d62728" stroke="#ffffff" stroke-width="1"/>
<line x1="966.14" y1="611.93" x2="966.14" y2="611.74" stroke="#d62728" stroke-width="1.3"/>
<line x1="961.14" y1="611.93" x2="971.14" y2="611.93" stroke="#d62728" stroke-width="1.3"/>
<line x1="961.14" y1="611.74" x2="971.14" y2="611.74" stroke="#d62728" stroke-width="1.3"/>
<circle cx="966.14" cy="611.83" r="4" fill="#d62728" stroke="#ffffff" stroke-width="1"/>
<line x1="1016.29" y1="610.65" x2="1016.29" y2="609.93" stroke="#d62728" stroke-width="1.3"/>
<line x1="1011.29" y1="610.65" x2="1021.29" y2="610.65" stroke="#d62728" stroke-width="1.3"/>
<line x1="1011.29" y1="609.93" x2="1021.29" y2="609.93" stroke="#d62728" stroke-width="1.3"/>
<circle cx="1016.29" cy="610.29" r="4" fill="#d62728" stroke="#ffffff" stroke-width="1"/>
<line x1="1066.45" y1="609.45" x2="1066.45" y2="609.32" stroke="#d62728" stroke-width="1.3"/>
<line x1="1061.45" y1="609.45" x2="1071.45" y2="609.45" stroke="#d62728" stroke-width="1.3"/>
<line x1="1061.45" y1="609.32" x2="1071.45" y2="609.32" stroke="#d62728" stroke-width="1.3"/>
<circle cx="1066.45" cy="609.39" r="4" fill="#d62728" stroke="#ffffff" stroke-width="1"/>
<polyline points="113.55,651.44 163.71,650.26 213.86,649.17 264.01,648.14 314.16,647.07 364.31,645.21 414.47,644.92 464.62,643.77 514.77,642.56 564.92,641.67 615.08,640.55 665.23,639.57 715.38,638.56 765.53,637.45 815.69,636.41 865.84,635.12 915.99,634.23 966.14,633.12 1016.29,632.08 1066.45,631.11" fill="none" stroke="#2ca02c" stroke-width="2.5"/>
<line x1="113.55" y1="651.85" x2="113.55" y2="651.03" stroke="#2ca02c" stroke-width="1.3"/>
<line x1="108.55" y1="651.85" x2="118.55" y2="651.85" stroke="#2ca02c" stroke-width="1.3"/>
<line x1="108.55" y1="651.03" x2="118.55" y2="651.03" stroke="#2ca02c" stroke-width="1.3"/>
<circle cx="113.55" cy="651.44" r="4" fill="#2ca02c" stroke="#ffffff" stroke-width="1"/>
<line x1="163.71" y1="650.65" x2="163.71" y2="649.87" stroke="#2ca02c" stroke-width="1.3"/>
<line x1="158.71" y1="650.65" x2="168.71" y2="650.65" stroke="#2ca02c" stroke-width="1.3"/>
<line x1="158.71" y1="649.87" x2="168.71" y2="649.87" stroke="#2ca02c" stroke-width="1.3"/>
<circle cx="163.71" cy="650.26" r="4" fill="#2ca02c" stroke="#ffffff" stroke-width="1"/>
<line x1="213.86" y1="649.23" x2="213.86" y2="649.12" stroke="#2ca02c" stroke-width="1.3"/>
<line x1="208.86" y1="649.23" x2="218.86" y2="649.23" stroke="#2ca02c" stroke-width="1.3"/>
<line x1="208.86" y1="649.12" x2="218.86" y2="649.12" stroke="#2ca02c" stroke-width="1.3"/>
<circle cx="213.86" cy="649.17" r="4" fill="#2ca02c" stroke="#ffffff" stroke-width="1"/>
<line x1="264.01" y1="648.23" x2="264.01" y2="648.05" stroke="#2ca02c" stroke-width="1.3"/>
<line x1="259.01" y1="648.23" x2="269.01" y2="648.23" stroke="#2ca02c" stroke-width="1.3"/>
<line x1="259.01" y1="648.05" x2="269.01" y2="648.05" stroke="#2ca02c" stroke-width="1.3"/>
<circle cx="264.01" cy="648.14" r="4" fill="#2ca02c" stroke="#ffffff" stroke-width="1"/>
<line x1="314.16" y1="647.33" x2="314.16" y2="646.80" stroke="#2ca02c" stroke-width="1.3"/>
<line x1="309.16" y1="647.33" x2="319.16" y2="647.33" stroke="#2ca02c" stroke-width="1.3"/>
<line x1="309.16" y1="646.80" x2="319.16" y2="646.80" stroke="#2ca02c" stroke-width="1.3"/>
<circle cx="314.16" cy="647.07" r="4" fill="#2ca02c" stroke="#ffffff" stroke-width="1"/>
<line x1="364.31" y1="645.26" x2="364.31" y2="645.16" stroke="#2ca02c" stroke-width="1.3"/>
<line x1="359.31" y1="645.26" x2="369.31" y2="645.26" stroke="#2ca02c" stroke-width="1.3"/>
<line x1="359.31" y1="645.16" x2="369.31" y2="645.16" stroke="#2ca02c" stroke-width="1.3"/>
<circle cx="364.31" cy="645.21" r="4" fill="#2ca02c" stroke="#ffffff" stroke-width="1"/>
<line x1="414.47" y1="645.11" x2="414.47" y2="644.74" stroke="#2ca02c" stroke-width="1.3"/>
<line x1="409.47" y1="645.11" x2="419.47" y2="645.11" stroke="#2ca02c" stroke-width="1.3"/>
<line x1="409.47" y1="644.74" x2="419.47" y2="644.74" stroke="#2ca02c" stroke-width="1.3"/>
<circle cx="414.47" cy="644.92" r="4" fill="#2ca02c" stroke="#ffffff" stroke-width="1"/>
<line x1="464.62" y1="643.82" x2="464.62" y2="643.73" stroke="#2ca02c" stroke-width="1.3"/>
<line x1="459.62" y1="643.82" x2="469.62" y2="643.82" stroke="#2ca02c" stroke-width="1.3"/>
<line x1="459.62" y1="643.73" x2="469.62" y2="643.73" stroke="#2ca02c" stroke-width="1.3"/>
<circle cx="464.62" cy="643.77" r="4" fill="#2ca02c" stroke="#ffffff" stroke-width="1"/>
<line x1="514.77" y1="642.63" x2="514.77" y2="642.50" stroke="#2ca02c" stroke-width="1.3"/>
<line x1="509.77" y1="642.63" x2="519.77" y2="642.63" stroke="#2ca02c" stroke-width="1.3"/>
<line x1="509.77" y1="642.50" x2="519.77" y2="642.50" stroke="#2ca02c" stroke-width="1.3"/>
<circle cx="514.77" cy="642.56" r="4" fill="#2ca02c" stroke="#ffffff" stroke-width="1"/>
<line x1="564.92" y1="641.74" x2="564.92" y2="641.60" stroke="#2ca02c" stroke-width="1.3"/>
<line x1="559.92" y1="641.74" x2="569.92" y2="641.74" stroke="#2ca02c" stroke-width="1.3"/>
<line x1="559.92" y1="641.60" x2="569.92" y2="641.60" stroke="#2ca02c" stroke-width="1.3"/>
<circle cx="564.92" cy="641.67" r="4" fill="#2ca02c" stroke="#ffffff" stroke-width="1"/>
<line x1="615.08" y1="640.61" x2="615.08" y2="640.49" stroke="#2ca02c" stroke-width="1.3"/>
<line x1="610.08" y1="640.61" x2="620.08" y2="640.61" stroke="#2ca02c" stroke-width="1.3"/>
<line x1="610.08" y1="640.49" x2="620.08" y2="640.49" stroke="#2ca02c" stroke-width="1.3"/>
<circle cx="615.08" cy="640.55" r="4" fill="#2ca02c" stroke="#ffffff" stroke-width="1"/>
<line x1="665.23" y1="639.91" x2="665.23" y2="639.23" stroke="#2ca02c" stroke-width="1.3"/>
<line x1="660.23" y1="639.91" x2="670.23" y2="639.91" stroke="#2ca02c" stroke-width="1.3"/>
<line x1="660.23" y1="639.23" x2="670.23" y2="639.23" stroke="#2ca02c" stroke-width="1.3"/>
<circle cx="665.23" cy="639.57" r="4" fill="#2ca02c" stroke="#ffffff" stroke-width="1"/>
<line x1="715.38" y1="638.69" x2="715.38" y2="638.42" stroke="#2ca02c" stroke-width="1.3"/>
<line x1="710.38" y1="638.69" x2="720.38" y2="638.69" stroke="#2ca02c" stroke-width="1.3"/>
<line x1="710.38" y1="638.42" x2="720.38" y2="638.42" stroke="#2ca02c" stroke-width="1.3"/>
<circle cx="715.38" cy="638.56" r="4" fill="#2ca02c" stroke="#ffffff" stroke-width="1"/>
<line x1="765.53" y1="637.48" x2="765.53" y2="637.42" stroke="#2ca02c" stroke-width="1.3"/>
<line x1="760.53" y1="637.48" x2="770.53" y2="637.48" stroke="#2ca02c" stroke-width="1.3"/>
<line x1="760.53" y1="637.42" x2="770.53" y2="637.42" stroke="#2ca02c" stroke-width="1.3"/>
<circle cx="765.53" cy="637.45" r="4" fill="#2ca02c" stroke="#ffffff" stroke-width="1"/>
<line x1="815.69" y1="636.47" x2="815.69" y2="636.35" stroke="#2ca02c" stroke-width="1.3"/>
<line x1="810.69" y1="636.47" x2="820.69" y2="636.47" stroke="#2ca02c" stroke-width="1.3"/>
<line x1="810.69" y1="636.35" x2="820.69" y2="636.35" stroke="#2ca02c" stroke-width="1.3"/>
<circle cx="815.69" cy="636.41" r="4" fill="#2ca02c" stroke="#ffffff" stroke-width="1"/>
<line x1="865.84" y1="635.14" x2="865.84" y2="635.09" stroke="#2ca02c" stroke-width="1.3"/>
<line x1="860.84" y1="635.14" x2="870.84" y2="635.14" stroke="#2ca02c" stroke-width="1.3"/>
<line x1="860.84" y1="635.09" x2="870.84" y2="635.09" stroke="#2ca02c" stroke-width="1.3"/>
<circle cx="865.84" cy="635.12" r="4" fill="#2ca02c" stroke="#ffffff" stroke-width="1"/>
<line x1="915.99" y1="634.25" x2="915.99" y2="634.21" stroke="#2ca02c" stroke-width="1.3"/>
<line x1="910.99" y1="634.25" x2="920.99" y2="634.25" stroke="#2ca02c" stroke-width="1.3"/>
<line x1="910.99" y1="634.21" x2="920.99" y2="634.21" stroke="#2ca02c" stroke-width="1.3"/>
<circle cx="915.99" cy="634.23" r="4" fill="#2ca02c" stroke="#ffffff" stroke-width="1"/>
<line x1="966.14" y1="633.14" x2="966.14" y2="633.11" stroke="#2ca02c" stroke-width="1.3"/>
<line x1="961.14" y1="633.14" x2="971.14" y2="633.14" stroke="#2ca02c" stroke-width="1.3"/>
<line x1="961.14" y1="633.11" x2="971.14" y2="633.11" stroke="#2ca02c" stroke-width="1.3"/>
<circle cx="966.14" cy="633.12" r="4" fill="#2ca02c" stroke="#ffffff" stroke-width="1"/>
<line x1="1016.29" y1="632.23" x2="1016.29" y2="631.93" stroke="#2ca02c" stroke-width="1.3"/>
<line x1="1011.29" y1="632.23" x2="1021.29" y2="632.23" stroke="#2ca02c" stroke-width="1.3"/>
<line x1="1011.29" y1="631.93" x2="1021.29" y2="631.93" stroke="#2ca02c" stroke-width="1.3"/>
<circle cx="1016.29" cy="632.08" r="4" fill="#2ca02c" stroke="#ffffff" stroke-width="1"/>
<line x1="1066.45" y1="631.13" x2="1066.45" y2="631.09" stroke="#2ca02c" stroke-width="1.3"/>
<line x1="1061.45" y1="631.13" x2="1071.45" y2="631.13" stroke="#2ca02c" stroke-width="1.3"/>
<line x1="1061.45" y1="631.09" x2="1071.45" y2="631.09" stroke="#2ca02c" stroke-width="1.3"/>
<circle cx="1066.45" cy="631.11" r="4" fill="#2ca02c" stroke="#ffffff" stroke-width="1"/>
<polyline points="113.55,655.64 163.71,654.68 213.86,653.78 264.01,652.75 314.16,651.73 364.31,650.85 414.47,649.87 464.62,648.92 514.77,647.75 564.92,646.99 615.08,645.94 665.23,644.96 715.38,644.10 765.53,643.09 815.69,642.08 865.84,641.01 915.99,640.20 966.14,639.21 1016.29,638.20 1066.45,637.37" fill="none" stroke="#9467bd" stroke-width="2.5"/>
<line x1="113.55" y1="655.71" x2="113.55" y2="655.57" stroke="#9467bd" stroke-width="1.3"/>
<line x1="108.55" y1="655.71" x2="118.55" y2="655.71" stroke="#9467bd" stroke-width="1.3"/>
<line x1="108.55" y1="655.57" x2="118.55" y2="655.57" stroke="#9467bd" stroke-width="1.3"/>
<circle cx="113.55" cy="655.64" r="4" fill="#9467bd" stroke="#ffffff" stroke-width="1"/>
<line x1="163.71" y1="654.71" x2="163.71" y2="654.64" stroke="#9467bd" stroke-width="1.3"/>
<line x1="158.71" y1="654.71" x2="168.71" y2="654.71" stroke="#9467bd" stroke-width="1.3"/>
<line x1="158.71" y1="654.64" x2="168.71" y2="654.64" stroke="#9467bd" stroke-width="1.3"/>
<circle cx="163.71" cy="654.68" r="4" fill="#9467bd" stroke="#ffffff" stroke-width="1"/>
<line x1="213.86" y1="653.80" x2="213.86" y2="653.75" stroke="#9467bd" stroke-width="1.3"/>
<line x1="208.86" y1="653.80" x2="218.86" y2="653.80" stroke="#9467bd" stroke-width="1.3"/>
<line x1="208.86" y1="653.75" x2="218.86" y2="653.75" stroke="#9467bd" stroke-width="1.3"/>
<circle cx="213.86" cy="653.78" r="4" fill="#9467bd" stroke="#ffffff" stroke-width="1"/>
<line x1="264.01" y1="652.78" x2="264.01" y2="652.73" stroke="#9467bd" stroke-width="1.3"/>
<line x1="259.01" y1="652.78" x2="269.01" y2="652.78" stroke="#9467bd" stroke-width="1.3"/>
<line x1="259.01" y1="652.73" x2="269.01" y2="652.73" stroke="#9467bd" stroke-width="1.3"/>
<circle cx="264.01" cy="652.75" r="4" fill="#9467bd" stroke="#ffffff" stroke-width="1"/>
<line x1="314.16" y1="651.76" x2="314.16" y2="651.70" stroke="#9467bd" stroke-width="1.3"/>
<line x1="309.16" y1="651.76" x2="319.16" y2="651.76" stroke="#9467bd" stroke-width="1.3"/>
<line x1="309.16" y1="651.70" x2="319.16" y2="651.70" stroke="#9467bd" stroke-width="1.3"/>
<circle cx="314.16" cy="651.73" r="4" fill="#9467bd" stroke="#ffffff" stroke-width="1"/>
<line x1="364.31" y1="650.88" x2="364.31" y2="650.83" stroke="#9467bd" stroke-width="1.3"/>
<line x1="359.31" y1="650.88" x2="369.31" y2="650.88" stroke="#9467bd" stroke-width="1.3"/>
<line x1="359.31" y1="650.83" x2="369.31" y2="650.83" stroke="#9467bd" stroke-width="1.3"/>
<circle cx="364.31" cy="650.85" r="4" fill="#9467bd" stroke="#ffffff" stroke-width="1"/>
<line x1="414.47" y1="649.90" x2="414.47" y2="649.84" stroke="#9467bd" stroke-width="1.3"/>
<line x1="409.47" y1="649.90" x2="419.47" y2="649.90" stroke="#9467bd" stroke-width="1.3"/>
<line x1="409.47" y1="649.84" x2="419.47" y2="649.84" stroke="#9467bd" stroke-width="1.3"/>
<circle cx="414.47" cy="649.87" r="4" fill="#9467bd" stroke="#ffffff" stroke-width="1"/>
<line x1="464.62" y1="648.96" x2="464.62" y2="648.87" stroke="#9467bd" stroke-width="1.3"/>
<line x1="459.62" y1="648.96" x2="469.62" y2="648.96" stroke="#9467bd" stroke-width="1.3"/>
<line x1="459.62" y1="648.87" x2="469.62" y2="648.87" stroke="#9467bd" stroke-width="1.3"/>
<circle cx="464.62" cy="648.92" r="4" fill="#9467bd" stroke="#ffffff" stroke-width="1"/>
<line x1="514.77" y1="647.79" x2="514.77" y2="647.71" stroke="#9467bd" stroke-width="1.3"/>
<line x1="509.77" y1="647.79" x2="519.77" y2="647.79" stroke="#9467bd" stroke-width="1.3"/>
<line x1="509.77" y1="647.71" x2="519.77" y2="647.71" stroke="#9467bd" stroke-width="1.3"/>
<circle cx="514.77" cy="647.75" r="4" fill="#9467bd" stroke="#ffffff" stroke-width="1"/>
<line x1="564.92" y1="647.03" x2="564.92" y2="646.95" stroke="#9467bd" stroke-width="1.3"/>
<line x1="559.92" y1="647.03" x2="569.92" y2="647.03" stroke="#9467bd" stroke-width="1.3"/>
<line x1="559.92" y1="646.95" x2="569.92" y2="646.95" stroke="#9467bd" stroke-width="1.3"/>
<circle cx="564.92" cy="646.99" r="4" fill="#9467bd" stroke="#ffffff" stroke-width="1"/>
<line x1="615.08" y1="645.98" x2="615.08" y2="645.90" stroke="#9467bd" stroke-width="1.3"/>
<line x1="610.08" y1="645.98" x2="620.08" y2="645.98" stroke="#9467bd" stroke-width="1.3"/>
<line x1="610.08" y1="645.90" x2="620.08" y2="645.90" stroke="#9467bd" stroke-width="1.3"/>
<circle cx="615.08" cy="645.94" r="4" fill="#9467bd" stroke="#ffffff" stroke-width="1"/>
<line x1="665.23" y1="644.97" x2="665.23" y2="644.94" stroke="#9467bd" stroke-width="1.3"/>
<line x1="660.23" y1="644.97" x2="670.23" y2="644.97" stroke="#9467bd" stroke-width="1.3"/>
<line x1="660.23" y1="644.94" x2="670.23" y2="644.94" stroke="#9467bd" stroke-width="1.3"/>
<circle cx="665.23" cy="644.96" r="4" fill="#9467bd" stroke="#ffffff" stroke-width="1"/>
<line x1="715.38" y1="644.13" x2="715.38" y2="644.06" stroke="#9467bd" stroke-width="1.3"/>
<line x1="710.38" y1="644.13" x2="720.38" y2="644.13" stroke="#9467bd" stroke-width="1.3"/>
<line x1="710.38" y1="644.06" x2="720.38" y2="644.06" stroke="#9467bd" stroke-width="1.3"/>
<circle cx="715.38" cy="644.10" r="4" fill="#9467bd" stroke="#ffffff" stroke-width="1"/>
<line x1="765.53" y1="643.11" x2="765.53" y2="643.06" stroke="#9467bd" stroke-width="1.3"/>
<line x1="760.53" y1="643.11" x2="770.53" y2="643.11" stroke="#9467bd" stroke-width="1.3"/>
<line x1="760.53" y1="643.06" x2="770.53" y2="643.06" stroke="#9467bd" stroke-width="1.3"/>
<circle cx="765.53" cy="643.09" r="4" fill="#9467bd" stroke="#ffffff" stroke-width="1"/>
<line x1="815.69" y1="642.11" x2="815.69" y2="642.05" stroke="#9467bd" stroke-width="1.3"/>
<line x1="810.69" y1="642.11" x2="820.69" y2="642.11" stroke="#9467bd" stroke-width="1.3"/>
<line x1="810.69" y1="642.05" x2="820.69" y2="642.05" stroke="#9467bd" stroke-width="1.3"/>
<circle cx="815.69" cy="642.08" r="4" fill="#9467bd" stroke="#ffffff" stroke-width="1"/>
<line x1="865.84" y1="641.04" x2="865.84" y2="640.98" stroke="#9467bd" stroke-width="1.3"/>
<line x1="860.84" y1="641.04" x2="870.84" y2="641.04" stroke="#9467bd" stroke-width="1.3"/>
<line x1="860.84" y1="640.98" x2="870.84" y2="640.98" stroke="#9467bd" stroke-width="1.3"/>
<circle cx="865.84" cy="641.01" r="4" fill="#9467bd" stroke="#ffffff" stroke-width="1"/>
<line x1="915.99" y1="640.23" x2="915.99" y2="640.17" stroke="#9467bd" stroke-width="1.3"/>
<line x1="910.99" y1="640.23" x2="920.99" y2="640.23" stroke="#9467bd" stroke-width="1.3"/>
<line x1="910.99" y1="640.17" x2="920.99" y2="640.17" stroke="#9467bd" stroke-width="1.3"/>
<circle cx="915.99" cy="640.20" r="4" fill="#9467bd" stroke="#ffffff" stroke-width="1"/>
<line x1="966.14" y1="639.24" x2="966.14" y2="639.19" stroke="#9467bd" stroke-width="1.3"/>
<line x1="961.14" y1="639.24" x2="971.14" y2="639.24" stroke="#9467bd" stroke-width="1.3"/>
<line x1="961.14" y1="639.19" x2="971.14" y2="639.19" stroke="#9467bd" stroke-width="1.3"/>
<circle cx="966.14" cy="639.21" r="4" fill="#9467bd" stroke="#ffffff" stroke-width="1"/>
<line x1="1016.29" y1="638.23" x2="1016.29" y2="638.17" stroke="#9467bd" stroke-width="1.3"/>
<line x1="1011.29" y1="638.23" x2="1021.29" y2="638.23" stroke="#9467bd" stroke-width="1.3"/>
<line x1="1011.29" y1="638.17" x2="1021.29" y2="638.17" stroke="#9467bd" stroke-width="1.3"/>
<circle cx="1016.29" cy="638.20" r="4" fill="#9467bd" stroke="#ffffff" stroke-width="1"/>
<line x1="1066.45" y1="637.40" x2="1066.45" y2="637.34" stroke="#9467bd" stroke-width="1.3"/>
<line x1="1061.45" y1="637.40" x2="1071.45" y2="637.40" stroke="#9467bd" stroke-width="1.3"/>
<line x1="1061.45" y1="637.34" x2="1071.45" y2="637.34" stroke="#9467bd" stroke-width="1.3"/>
<circle cx="1066.45" cy="637.37" r="4" fill="#9467bd" stroke="#ffffff" stroke-width="1"/>
<polyline points="113.55,653.96 163.71,654.30 213.86,654.06 264.01,651.41 314.16,651.40 364.31,650.54 414.47,649.84 464.62,648.41 514.77,645.75 564.92,641.35 615.08,640.91 665.23,639.87 715.38,639.12 765.53,638.12 815.69,637.09 865.84,635.98 915.99,635.18 966.14,634.20 1016.29,633.21 1066.45,632.41" fill="none" stroke="#ff7f0e" stroke-width="2.5"/>
<line x1="113.55" y1="656.64" x2="113.55" y2="651.28" stroke="#ff7f0e" stroke-width="1.3"/>
<line x1="108.55" y1="656.64" x2="118.55" y2="656.64" stroke="#ff7f0e" stroke-width="1.3"/>
<line x1="108.55" y1="651.28" x2="118.55" y2="651.28" stroke="#ff7f0e" stroke-width="1.3"/>
<circle cx="113.55" cy="653.96" r="4" fill="#ff7f0e" stroke="#ffffff" stroke-width="1"/>
<line x1="163.71" y1="654.93" x2="163.71" y2="653.67" stroke="#ff7f0e" stroke-width="1.3"/>
<line x1="158.71" y1="654.93" x2="168.71" y2="654.93" stroke="#ff7f0e" stroke-width="1.3"/>
<line x1="158.71" y1="653.67" x2="168.71" y2="653.67" stroke="#ff7f0e" stroke-width="1.3"/>
<circle cx="163.71" cy="654.30" r="4" fill="#ff7f0e" stroke="#ffffff" stroke-width="1"/>
<line x1="213.86" y1="654.98" x2="213.86" y2="653.13" stroke="#ff7f0e" stroke-width="1.3"/>
<line x1="208.86" y1="654.98" x2="218.86" y2="654.98" stroke="#ff7f0e" stroke-width="1.3"/>
<line x1="208.86" y1="653.13" x2="218.86" y2="653.13" stroke="#ff7f0e" stroke-width="1.3"/>
<circle cx="213.86" cy="654.06" r="4" fill="#ff7f0e" stroke="#ffffff" stroke-width="1"/>
<line x1="264.01" y1="655.12" x2="264.01" y2="647.70" stroke="#ff7f0e" stroke-width="1.3"/>
<line x1="259.01" y1="655.12" x2="269.01" y2="655.12" stroke="#ff7f0e" stroke-width="1.3"/>
<line x1="259.01" y1="647.70" x2="269.01" y2="647.70" stroke="#ff7f0e" stroke-width="1.3"/>
<circle cx="264.01" cy="651.41" r="4" fill="#ff7f0e" stroke="#ffffff" stroke-width="1"/>
<line x1="314.16" y1="651.90" x2="314.16" y2="650.90" stroke="#ff7f0e" stroke-width="1.3"/>
<line x1="309.16" y1="651.90" x2="319.16" y2="651.90" stroke="#ff7f0e" stroke-width="1.3"/>
<line x1="309.16" y1="650.90" x2="319.16" y2="650.90" stroke="#ff7f0e" stroke-width="1.3"/>
<circle cx="314.16" cy="651.40" r="4" fill="#ff7f0e" stroke="#ffffff" stroke-width="1"/>
<line x1="364.31" y1="650.63" x2="364.31" y2="650.45" stroke="#ff7f0e" stroke-width="1.3"/>
<line x1="359.31" y1="650.63" x2="369.31" y2="650.63" stroke="#ff7f0e" stroke-width="1.3"/>
<line x1="359.31" y1="650.45" x2="369.31" y2="650.45" stroke="#ff7f0e" stroke-width="1.3"/>
<circle cx="364.31" cy="650.54" r="4" fill="#ff7f0e" stroke="#ffffff" stroke-width="1"/>
<line x1="414.47" y1="650.33" x2="414.47" y2="649.34" stroke="#ff7f0e" stroke-width="1.3"/>
<line x1="409.47" y1="650.33" x2="419.47" y2="650.33" stroke="#ff7f0e" stroke-width="1.3"/>
<line x1="409.47" y1="649.34" x2="419.47" y2="649.34" stroke="#ff7f0e" stroke-width="1.3"/>
<circle cx="414.47" cy="649.84" r="4" fill="#ff7f0e" stroke="#ffffff" stroke-width="1"/>
<line x1="464.62" y1="649.20" x2="464.62" y2="647.61" stroke="#ff7f0e" stroke-width="1.3"/>
<line x1="459.62" y1="649.20" x2="469.62" y2="649.20" stroke="#ff7f0e" stroke-width="1.3"/>
<line x1="459.62" y1="647.61" x2="469.62" y2="647.61" stroke="#ff7f0e" stroke-width="1.3"/>
<circle cx="464.62" cy="648.41" r="4" fill="#ff7f0e" stroke="#ffffff" stroke-width="1"/>
<line x1="514.77" y1="647.03" x2="514.77" y2="644.47" stroke="#ff7f0e" stroke-width="1.3"/>
<line x1="509.77" y1="647.03" x2="519.77" y2="647.03" stroke="#ff7f0e" stroke-width="1.3"/>
<line x1="509.77" y1="644.47" x2="519.77" y2="644.47" stroke="#ff7f0e" stroke-width="1.3"/>
<circle cx="514.77" cy="645.75" r="4" fill="#ff7f0e" stroke="#ffffff" stroke-width="1"/>
<line x1="564.92" y1="641.54" x2="564.92" y2="641.15" stroke="#ff7f0e" stroke-width="1.3"/>
<line x1="559.92" y1="641.54" x2="569.92" y2="641.54" stroke="#ff7f0e" stroke-width="1.3"/>
<line x1="559.92" y1="641.15" x2="569.92" y2="641.15" stroke="#ff7f0e" stroke-width="1.3"/>
<circle cx="564.92" cy="641.35" r="4" fill="#ff7f0e" stroke="#ffffff" stroke-width="1"/>
<line x1="615.08" y1="640.97" x2="615.08" y2="640.84" stroke="#ff7f0e" stroke-width="1.3"/>
<line x1="610.08" y1="640.97" x2="620.08" y2="640.97" stroke="#ff7f0e" stroke-width="1.3"/>
<line x1="610.08" y1="640.84" x2="620.08" y2="640.84" stroke="#ff7f0e" stroke-width="1.3"/>
<circle cx="615.08" cy="640.91" r="4" fill="#ff7f0e" stroke="#ffffff" stroke-width="1"/>
<line x1="665.23" y1="639.94" x2="665.23" y2="639.80" stroke="#ff7f0e" stroke-width="1.3"/>
<line x1="660.23" y1="639.94" x2="670.23" y2="639.94" stroke="#ff7f0e" stroke-width="1.3"/>
<line x1="660.23" y1="639.80" x2="670.23" y2="639.80" stroke="#ff7f0e" stroke-width="1.3"/>
<circle cx="665.23" cy="639.87" r="4" fill="#ff7f0e" stroke="#ffffff" stroke-width="1"/>
<line x1="715.38" y1="639.19" x2="715.38" y2="639.05" stroke="#ff7f0e" stroke-width="1.3"/>
<line x1="710.38" y1="639.19" x2="720.38" y2="639.19" stroke="#ff7f0e" stroke-width="1.3"/>
<line x1="710.38" y1="639.05" x2="720.38" y2="639.05" stroke="#ff7f0e" stroke-width="1.3"/>
<circle cx="715.38" cy="639.12" r="4" fill="#ff7f0e" stroke="#ffffff" stroke-width="1"/>
<line x1="765.53" y1="638.22" x2="765.53" y2="638.02" stroke="#ff7f0e" stroke-width="1.3"/>
<line x1="760.53" y1="638.22" x2="770.53" y2="638.22" stroke="#ff7f0e" stroke-width="1.3"/>
<line x1="760.53" y1="638.02" x2="770.53" y2="638.02" stroke="#ff7f0e" stroke-width="1.3"/>
<circle cx="765.53" cy="638.12" r="4" fill="#ff7f0e" stroke="#ffffff" stroke-width="1"/>
<line x1="815.69" y1="637.18" x2="815.69" y2="637.01" stroke="#ff7f0e" stroke-width="1.3"/>
<line x1="810.69" y1="637.18" x2="820.69" y2="637.18" stroke="#ff7f0e" stroke-width="1.3"/>
<line x1="810.69" y1="637.01" x2="820.69" y2="637.01" stroke="#ff7f0e" stroke-width="1.3"/>
<circle cx="815.69" cy="637.09" r="4" fill="#ff7f0e" stroke="#ffffff" stroke-width="1"/>
<line x1="865.84" y1="636.06" x2="865.84" y2="635.91" stroke="#ff7f0e" stroke-width="1.3"/>
<line x1="860.84" y1="636.06" x2="870.84" y2="636.06" stroke="#ff7f0e" stroke-width="1.3"/>
<line x1="860.84" y1="635.91" x2="870.84" y2="635.91" stroke="#ff7f0e" stroke-width="1.3"/>
<circle cx="865.84" cy="635.98" r="4" fill="#ff7f0e" stroke="#ffffff" stroke-width="1"/>
<line x1="915.99" y1="635.23" x2="915.99" y2="635.13" stroke="#ff7f0e" stroke-width="1.3"/>
<line x1="910.99" y1="635.23" x2="920.99" y2="635.23" stroke="#ff7f0e" stroke-width="1.3"/>
<line x1="910.99" y1="635.13" x2="920.99" y2="635.13" stroke="#ff7f0e" stroke-width="1.3"/>
<circle cx="915.99" cy="635.18" r="4" fill="#ff7f0e" stroke="#ffffff" stroke-width="1"/>
<line x1="966.14" y1="634.28" x2="966.14" y2="634.11" stroke="#ff7f0e" stroke-width="1.3"/>
<line x1="961.14" y1="634.28" x2="971.14" y2="634.28" stroke="#ff7f0e" stroke-width="1.3"/>
<line x1="961.14" y1="634.11" x2="971.14" y2="634.11" stroke="#ff7f0e" stroke-width="1.3"/>
<circle cx="966.14" cy="634.20" r="4" fill="#ff7f0e" stroke="#ffffff" stroke-width="1"/>
<line x1="1016.29" y1="633.25" x2="1016.29" y2="633.18" stroke="#ff7f0e" stroke-width="1.3"/>
<line x1="1011.29" y1="633.25" x2="1021.29" y2="633.25" stroke="#ff7f0e" stroke-width="1.3"/>
<line x1="1011.29" y1="633.18" x2="1021.29" y2="633.18" stroke="#ff7f0e" stroke-width="1.3"/>
<circle cx="1016.29" cy="633.21" r="4" fill="#ff7f0e" stroke="#ffffff" stroke-width="1"/>
<line x1="1066.45" y1="632.46" x2="1066.45" y2="632.36" stroke="#ff7f0e" stroke-width="1.3"/>
<line x1="1061.45" y1="632.46" x2="1071.45" y2="632.46" stroke="#ff7f0e" stroke-width="1.3"/>
<line x1="1061.45" y1="632.36" x2="1071.45" y2="632.36" stroke="#ff7f0e" stroke-width="1.3"/>
<circle cx="1066.45" cy="632.41" r="4" fill="#ff7f0e" stroke="#ffffff" stroke-width="1"/>
</svg>
