<svg xmlns="http://www.w3.org/2000/svg" width="1120" height="760" viewBox="0 0 1120 760">
<rect width="100%" height="100%" fill="#fbfbf8"/>
<text x="560.0" y="34" text-anchor="middle" font-family="sans-serif" font-size="24" fill="#222">Goodput bidireccional vs. payload</text>
<rect x="96" y="106" width="988" height="562" fill="#ffffff" stroke="#c9c9c1"/>
<line x1="96" y1="106.00" x2="1084" y2="106.00" stroke="#a9aba3" stroke-width="1.35"/>
<text x="86" y="110.00" text-anchor="end" font-family="sans-serif" font-size="13" font-weight="400" fill="#292925">10.3K</text>
<line x1="96" y1="199.67" x2="1084" y2="199.67" stroke="#a9aba3" stroke-width="1.35"/>
<text x="86" y="203.67" text-anchor="end" font-family="sans-serif" font-size="13" font-weight="400" fill="#292925">8.61K</text>
<line x1="96" y1="293.33" x2="1084" y2="293.33" stroke="#a9aba3" stroke-width="1.35"/>
<text x="86" y="297.33" text-anchor="end" font-family="sans-serif" font-size="13" font-weight="400" fill="#292925">6.89K</text>
<line x1="96" y1="387.00" x2="1084" y2="387.00" stroke="#a9aba3" stroke-width="1.35"/>
<text x="86" y="391.00" text-anchor="end" font-family="sans-serif" font-size="13" font-weight="400" fill="#292925">5.17K</text>
<line x1="96" y1="480.67" x2="1084" y2="480.67" stroke="#a9aba3" stroke-width="1.35"/>
<text x="86" y="484.67" text-anchor="end" font-family="sans-serif" font-size="13" font-weight="400" fill="#292925">3.45K</text>
<line x1="96" y1="574.33" x2="1084" y2="574.33" stroke="#a9aba3" stroke-width="1.35"/>
<text x="86" y="578.33" text-anchor="end" font-family="sans-serif" font-size="13" font-weight="400" fill="#292925">1.72K</text>
<line x1="96" y1="668.00" x2="1084" y2="668.00" stroke="#4f504b" stroke-width="2.2"/>
<text x="86" y="672.00" text-anchor="end" font-family="sans-serif" font-size="13" font-weight="600" fill="#292925">0</text>
<line x1="113.55" y1="106" x2="113.55" y2="668" stroke="#b4b6ae" stroke-width="1.25"/>
<text transform="translate(113.55 688) rotate(-45)" text-anchor="end" font-family="sans-serif" font-size="11" font-weight="500" fill="#292925">256</text>
<line x1="163.71" y1="106" x2="163.71" y2="668" stroke="#b4b6ae" stroke-width="1.25"/>
<text transform="translate(163.71 688) rotate(-45)" text-anchor="end" font-family="sans-serif" font-size="11" font-weight="500" fill="#292925">320</text>
<line x1="213.86" y1="106" x2="213.86" y2="668" stroke="#b4b6ae" stroke-width="1.25"/>
<text transform="translate(213.86 688) rotate(-45)" text-anchor="end" font-family="sans-serif" font-size="11" font-weight="500" fill="#292925">384</text>
<line x1="264.01" y1="106" x2="264.01" y2="668" stroke="#b4b6ae" stroke-width="1.25"/>
<text transform="translate(264.01 688) rotate(-45)" text-anchor="end" font-family="sans-serif" font-size="11" font-weight="500" fill="#292925">448</text>
<line x1="314.16" y1="106" x2="314.16" y2="668" stroke="#b4b6ae" stroke-width="1.25"/>
<text transform="translate(314.16 688) rotate(-45)" text-anchor="end" font-family="sans-serif" font-size="11" font-weight="500" fill="#292925">512</text>
<line x1="364.31" y1="106" x2="364.31" y2="668" stroke="#b4b6ae" stroke-width="1.25"/>
<text transform="translate(364.31 688) rotate(-45)" text-anchor="end" font-family="sans-serif" font-size="11" font-weight="500" fill="#292925">576</text>
<line x1="414.47" y1="106" x2="414.47" y2="668" stroke="#b4b6ae" stroke-width="1.25"/>
<text transform="translate(414.47 688) rotate(-45)" text-anchor="end" font-family="sans-serif" font-size="11" font-weight="500" fill="#292925">640</text>
<line x1="464.62" y1="106" x2="464.62" y2="668" stroke="#b4b6ae" stroke-width="1.25"/>
<text transform="translate(464.62 688) rotate(-45)" text-anchor="end" font-family="sans-serif" font-size="11" font-weight="500" fill="#292925">704</text>
<line x1="514.77" y1="106" x2="514.77" y2="668" stroke="#b4b6ae" stroke-width="1.25"/>
<text transform="translate(514.77 688) rotate(-45)" text-anchor="end" font-family="sans-serif" font-size="11" font-weight="500" fill="#292925">768</text>
<line x1="564.92" y1="106" x2="564.92" y2="668" stroke="#b4b6ae" stroke-width="1.25"/>
<text transform="translate(564.92 688) rotate(-45)" text-anchor="end" font-family="sans-serif" font-size="11" font-weight="500" fill="#292925">832</text>
<line x1="615.08" y1="106" x2="615.08" y2="668" stroke="#b4b6ae" stroke-width="1.25"/>
<text transform="translate(615.08 688) rotate(-45)" text-anchor="end" font-family="sans-serif" font-size="11" font-weight="500" fill="#292925">896</text>
<line x1="665.23" y1="106" x2="665.23" y2="668" stroke="#b4b6ae" stroke-width="1.25"/>
<text transform="translate(665.23 688) rotate(-45)" text-anchor="end" font-family="sans-serif" font-size="11" font-weight="500" fill="#292925">960</text>
<line x1="715.38" y1="106" x2="715.38" y2="668" stroke="#b4b6ae" stroke-width="1.25"/>
<text transform="translate(715.38 688) rotate(-45)" text-anchor="end" font-family="sans-serif" font-size="11" font-weight="500" fill="#292925">1024</text>
<line x1="765.53" y1="106" x2="765.53" y2="668" stroke="#b4b6ae" stroke-width="1.25"/>
<text transform="translate(765.53 688) rotate(-45)" text-anchor="end" font-family="sans-serif" font-size="11" font-weight="500" fill="#292925">1088</text>
<line x1="815.69" y1="106" x2="815.69" y2="668" stroke="#b4b6ae" stroke-width="1.25"/>
<text transform="translate(815.69 688) rotate(-45)" text-anchor="end" font-family="sans-serif" font-size="11" font-weight="500" fill="#292925">1152</text>
<line x1="865.84" y1="106" x2="865.84" y2="668" stroke="#b4b6ae" stroke-width="1.25"/>
<text transform="translate(865.84 688) rotate(-45)" text-anchor="end" font-family="sans-serif" font-size="11" font-weight="500" fill="#292925">1216</text>
<line x1="915.99" y1="106" x2="915.99" y2="668" stroke="#b4b6ae" stroke-width="1.25"/>
<text transform="translate(915.99 688) rotate(-45)" text-anchor="end" font-family="sans-serif" font-size="11" font-weight="500" fill="#292925">1280</text>
<line x1="966.14" y1="106" x2="966.14" y2="668" stroke="#b4b6ae" stroke-width="1.25"/>
<text transform="translate(966.14 688) rotate(-45)" text-anchor="end" font-family="sans-serif" font-size="11" font-weight="500" fill="#292925">1344</text>
<line x1="1016.29" y1="106" x2="1016.29" y2="668" stroke="#b4b6ae" stroke-width="1.25"/>
<text transform="translate(1016.29 688) rotate(-45)" text-anchor="end" font-family="sans-serif" font-size="11" font-weight="500" fill="#292925">1408</text>
<line x1="1066.45" y1="106" x2="1066.45" y2="668" stroke="#b4b6ae" stroke-width="1.25"/>
<text transform="translate(1066.45 688) rotate(-45)" text-anchor="end" font-family="sans-serif" font-size="11" font-weight="500" fill="#292925">1472</text>
<text x="590.0" y="736" text-anchor="middle" font-family="sans-serif" font-size="17" font-weight="600" fill="#171715">Tamaño del payload (bytes)</text>
<text transform="translate(24 387.0) rotate(-90)" text-anchor="middle" font-family="sans-serif" font-size="17" font-weight="600" fill="#171715">Goodput de payload (Mbps)</text>
<line x1="96.0" y1="64" x2="122.0" y2="64" stroke="#2ca02c" stroke-width="3"/>
<text x="130.0" y="68" font-family="sans-serif" font-size="13" fill="#222">NIC a Corundum</text>
<line x1="425.3333333333333" y1="64" x2="451.3333333333333" y2="64" stroke="#ff7f0e" stroke-width="3" stroke-dasharray="8 6"/>
<text x="459.3333333333333" y="68" font-family="sans-serif" font-size="13" fill="#222">Corundum a NIC</text>
<line x1="754.6666666666666" y1="64" x2="780.6666666666666" y2="64" stroke="#111111" stroke-width="3" stroke-dasharray="8 6"/>
<text x="788.6666666666666" y="68" font-family="sans-serif" font-size="13" fill="#222">Límite teórico 10GbE</text>
<polyline points="113.55,421.73 163.71,391.47 213.86,323.41 264.01,271.82 314.16,203.58 364.31,182.81 414.47,201.78 464.62,174.83 514.77,167.39 564.92,164.34 615.08,161.61 665.23,159.28 715.38,157.22 765.53,155.40 815.69,153.76 865.84,152.29 915.99,150.96 966.14,149.75 1016.29,148.65 1066.45,147.63" fill="none" stroke="#2ca02c" stroke-width="2.5"/>
<line x1="113.55" y1="428.09" x2="113.55" y2="415.36" stroke="#2ca02c" stroke-width="1.3"/>
<line x1="108.55" y1="428.09" x2="118.55" y2="428.09" stroke="#2ca02c" stroke-width="1.3"/>
<line x1="108.55" y1="415.36" x2="118.55" y2="415.36" stroke="#2ca02c" stroke-width="1.3"/>
<circle cx="113.55" cy="421.73" r="4" fill="#2ca02c" stroke="#ffffff" stroke-width="1"/>
<line x1="163.71" y1="426.53" x2="163.71" y2="356.41" stroke="#2ca02c" stroke-width="1.3"/>
<line x1="158.71" y1="426.53" x2="168.71" y2="426.53" stroke="#2ca02c" stroke-width="1.3"/>
<line x1="158.71" y1="356.41" x2="168.71" y2="356.41" stroke="#2ca02c" stroke-width="1.3"/>
<circle cx="163.71" cy="391.47" r="4" fill="#2ca02c" stroke="#ffffff" stroke-width="1"/>
<line x1="213.86" y1="357.94" x2="213.86" y2="288.88" stroke="#2ca02c" stroke-width="1.3"/>
<line x1="208.86" y1="357.94" x2="218.86" y2="357.94" stroke="#2ca02c" stroke-width="1.3"/>
<line x1="208.86" y1="288.88" x2="218.86" y2="288.88" stroke="#2ca02c" stroke-width="1.3"/>
<circle cx="213.86" cy="323.41" r="4" fill="#2ca02c" stroke="#ffffff" stroke-width="1"/>
<line x1="264.01" y1="302.57" x2="264.01" y2="241.06" stroke="#2ca02c" stroke-width="1.3"/>
<line x1="259.01" y1="302.57" x2="269.01" y2="302.57" stroke="#2ca02c" stroke-width="1.3"/>
<line x1="259.01" y1="241.06" x2="269.01" y2="241.06" stroke="#2ca02c" stroke-width="1.3"/>
<circle cx="264.01" cy="271.82" r="4" fill="#2ca02c" stroke="#ffffff" stroke-width="1"/>
<line x1="314.16" y1="217.17" x2="314.16" y2="190.00" stroke="#2ca02c" stroke-width="1.3"/>
<line x1="309.16" y1="217.17" x2="319.16" y2="217.17" stroke="#2ca02c" stroke-width="1.3"/>
<line x1="309.16" y1="190.00" x2="319.16" y2="190.00" stroke="#2ca02c" stroke-width="1.3"/>
<circle cx="314.16" cy="203.58" r="4" fill="#2ca02c" stroke="#ffffff" stroke-width="1"/>
<line x1="364.31" y1="187.69" x2="364.31" y2="177.93" stroke="#2ca02c" stroke-width="1.3"/>
<line x1="359.31" y1="187.69" x2="369.31" y2="187.69" stroke="#2ca02c" stroke-width="1.3"/>
<line x1="359.31" y1="177.93" x2="369.31" y2="177.93" stroke="#2ca02c" stroke-width="1.3"/>
<circle cx="364.31" cy="182.81" r="4" fill="#2ca02c" stroke="#ffffff" stroke-width="1"/>
<line x1="414.47" y1="219.17" x2="414.47" y2="184.38" stroke="#2ca02c" stroke-width="1.3"/>
<line x1="409.47" y1="219.17" x2="419.47" y2="219.17" stroke="#2ca02c" stroke-width="1.3"/>
<line x1="409.47" y1="184.38" x2="419.47" y2="184.38" stroke="#2ca02c" stroke-width="1.3"/>
<circle cx="414.47" cy="201.78" r="4" fill="#2ca02c" stroke="#ffffff" stroke-width="1"/>
<line x1="464.62" y1="183.49" x2="464.62" y2="166.17" stroke="#2ca02c" stroke-width="1.3"/>
<line x1="459.62" y1="183.49" x2="469.62" y2="183.49" stroke="#2ca02c" stroke-width="1.3"/>
<line x1="459.62" y1="166.17" x2="469.62" y2="166.17" stroke="#2ca02c" stroke-width="1.3"/>
<circle cx="464.62" cy="174.83" r="4" fill="#2ca02c" stroke="#ffffff" stroke-width="1"/>
<line x1="514.77" y1="167.48" x2="514.77" y2="167.31" stroke="#2ca02c" stroke-width="1.3"/>
<line x1="509.77" y1="167.48" x2="519.77" y2="167.48" stroke="#2ca02c" stroke-width="1.3"/>
<line x1="509.77" y1="167.31" x2="519.77" y2="167.31" stroke="#2ca02c" stroke-width="1.3"/>
<circle cx="514.77" cy="167.39" r="4" fill="#2ca02c" stroke="#ffffff" stroke-width="1"/>
<line x1="564.92" y1="164.52" x2="564.92" y2="164.16" stroke="#2ca02c" stroke-width="1.3"/>
<line x1="559.92" y1="164.52" x2="569.92" y2="164.52" stroke="#2ca02c" stroke-width="1.3"/>
<line x1="559.92" y1="164.16" x2="569.92" y2="164.16" stroke="#2ca02c" stroke-width="1.3"/>
<circle cx="564.92" cy="164.34" r="4" fill="#2ca02c" stroke="#ffffff" stroke-width="1"/>
<line x1="615.08" y1="161.62" x2="615.08" y2="161.60" stroke="#2ca02c" stroke-width="1.3"/>
<line x1="610.08" y1="161.62" x2="620.08" y2="161.62" stroke="#2ca02c" stroke-width="1.3"/>
<line x1="610.08" y1="161.60" x2="620.08" y2="161.60" stroke="#2ca02c" stroke-width="1.3"/>
<circle cx="615.08" cy="161.61" r="4" fill="#2ca02c" stroke="#ffffff" stroke-width="1"/>
<line x1="665.23" y1="159.28" x2="665.23" y2="159.27" stroke="#2ca02c" stroke-width="1.3"/>
<line x1="660.23" y1="159.28" x2="670.23" y2="159.28" stroke="#2ca02c" stroke-width="1.3"/>
<line x1="660.23" y1="159.27" x2="670.23" y2="159.27" stroke="#2ca02c" stroke-width="1.3"/>
<circle cx="665.23" cy="159.28" r="4" fill="#2ca02c" stroke="#ffffff" stroke-width="1"/>
<line x1="715.38" y1="157.23" x2="715.38" y2="157.22" stroke="#2ca02c" stroke-width="1.3"/>
<line x1="710.38" y1="157.23" x2="720.38" y2="157.23" stroke="#2ca02c" stroke-width="1.3"/>
<line x1="710.38" y1="157.22" x2="720.38" y2="157.22" stroke="#2ca02c" stroke-width="1.3"/>
<circle cx="715.38" cy="157.22" r="4" fill="#2ca02c" stroke="#ffffff" stroke-width="1"/>
<line x1="765.53" y1="155.40" x2="765.53" y2="155.39" stroke="#2ca02c" stroke-width="1.3"/>
<line x1="760.53" y1="155.40" x2="770.53" y2="155.40" stroke="#2ca02c" stroke-width="1.3"/>
<line x1="760.53" y1="155.39" x2="770.53" y2="155.39" stroke="#2ca02c" stroke-width="1.3"/>
<circle cx="765.53" cy="155.40" r="4" fill="#2ca02c" stroke="#ffffff" stroke-width="1"/>
<line x1="815.69" y1="153.76" x2="815.69" y2="153.76" stroke="#2ca02c" stroke-width="1.3"/>
<line x1="810.69" y1="153.76" x2="820.69" y2="153.76" stroke="#2ca02c" stroke-width="1.3"/>
<line x1="810.69" y1="153.76" x2="820.69" y2="153.76" stroke="#2ca02c" stroke-width="1.3"/>
<circle cx="815.69" cy="153.76" r="4" fill="#2ca02c" stroke="#ffffff" stroke-width="1"/>
<line x1="865.84" y1="152.30" x2="865.84" y2="152.29" stroke="#2ca02c" stroke-width="1.3"/>
<line x1="860.84" y1="152.30" x2="870.84" y2="152.30" stroke="#2ca02c" stroke-width="1.3"/>
<line x1="860.84" y1="152.29" x2="870.84" y2="152.29" stroke="#2ca02c" stroke-width="1.3"/>
<circle cx="865.84" cy="152.29" r="4" fill="#2ca02c" stroke="#ffffff" stroke-width="1"/>
<line x1="915.99" y1="150.96" x2="915.99" y2="150.96" stroke="#2ca02c" stroke-width="1.3"/>
<line x1="910.99" y1="150.96" x2="920.99" y2="150.96" stroke="#2ca02c" stroke-width="1.3"/>
<line x1="910.99" y1="150.96" x2="920.99" y2="150.96" stroke="#2ca02c" stroke-width="1.3"/>
<circle cx="915.99" cy="150.96" r="4" fill="#2ca02c" stroke="#ffffff" stroke-width="1"/>
<line x1="966.14" y1="149.75" x2="966.14" y2="149.75" stroke="#2ca02c" stroke-width="1.3"/>
<line x1="961.14" y1="149.75" x2="971.14" y2="149.75" stroke="#2ca02c" stroke-width="1.3"/>
<line x1="961.14" y1="149.75" x2="971.14" y2="149.75" stroke="#2ca02c" stroke-width="1.3"/>
<circle cx="966.14" cy="149.75" r="4" fill="#2ca02c" stroke="#ffffff" stroke-width="1"/>
<line x1="1016.29" y1="148.65" x2="1016.29" y2="148.65" stroke="#2ca02c" stroke-width="1.3"/>
<line x1="1011.29" y1="148.65" x2="1021.29" y2="148.65" stroke="#2ca02c" stroke-width="1.3"/>
<line x1="1011.29" y1="148.65" x2="1021.29" y2="148.65" stroke="#2ca02c" stroke-width="1.3"/>
<circle cx="1016.29" cy="148.65" r="4" fill="#2ca02c" stroke="#ffffff" stroke-width="1"/>
<line x1="1066.45" y1="147.63" x2="1066.45" y2="147.63" stroke="#2ca02c" stroke-width="1.3"/>
<line x1="1061.45" y1="147.63" x2="1071.45" y2="147.63" stroke="#2ca02c" stroke-width="1.3"/>
<line x1="1061.45" y1="147.63" x2="1071.45" y2="147.63" stroke="#2ca02c" stroke-width="1.3"/>
<circle cx="1066.45" cy="147.63" r="4" fill="#2ca02c" stroke="#ffffff" stroke-width="1"/>
<polyline points="113.55,474.79 163.71,411.19 213.86,374.34 264.01,316.51 314.16,269.72 364.31,231.07 414.47,202.26 464.62,197.60 514.77,184.56 564.92,176.31 615.08,172.93 665.23,169.96 715.38,167.33 765.53,164.99 815.69,162.89 865.84,160.99 915.99,159.28 966.14,157.72 1016.29,156.29 1066.45,154.97" fill="none" stroke="#ff7f0e" stroke-width="2.5" stroke-dasharray="8 6"/>
<line x1="113.55" y1="499.36" x2="113.55" y2="450.21" stroke="#ff7f0e" stroke-width="1.3"/>
<line x1="108.55" y1="499.36" x2="118.55" y2="499.36" stroke="#ff7f0e" stroke-width="1.3"/>
<line x1="108.55" y1="450.21" x2="118.55" y2="450.21" stroke="#ff7f0e" stroke-width="1.3"/>
<circle cx="113.55" cy="474.79" r="4" fill="#ff7f0e" stroke="#ffffff" stroke-width="1"/>
<line x1="163.71" y1="427.31" x2="163.71" y2="395.06" stroke="#ff7f0e" stroke-width="1.3"/>
<line x1="158.71" y1="427.31" x2="168.71" y2="427.31" stroke="#ff7f0e" stroke-width="1.3"/>
<line x1="158.71" y1="395.06" x2="168.71" y2="395.06" stroke="#ff7f0e" stroke-width="1.3"/>
<circle cx="163.71" cy="411.19" r="4" fill="#ff7f0e" stroke="#ffffff" stroke-width="1"/>
<line x1="213.86" y1="404.61" x2="213.86" y2="344.07" stroke="#ff7f0e" stroke-width="1.3"/>
<line x1="208.86" y1="404.61" x2="218.86" y2="404.61" stroke="#ff7f0e" stroke-width="1.3"/>
<line x1="208.86" y1="344.07" x2="218.86" y2="344.07" stroke="#ff7f0e" stroke-width="1.3"/>
<circle cx="213.86" cy="374.34" r="4" fill="#ff7f0e" stroke="#ffffff" stroke-width="1"/>
<line x1="264.01" y1="350.38" x2="264.01" y2="282.65" stroke="#ff7f0e" stroke-width="1.3"/>
<line x1="259.01" y1="350.38" x2="269.01" y2="350.38" stroke="#ff7f0e" stroke-width="1.3"/>
<line x1="259.01" y1="282.65" x2="269.01" y2="282.65" stroke="#ff7f0e" stroke-width="1.3"/>
<circle cx="264.01" cy="316.51" r="4" fill="#ff7f0e" stroke="#ffffff" stroke-width="1"/>
<line x1="314.16" y1="293.99" x2="314.16" y2="245.45" stroke="#ff7f0e" stroke-width="1.3"/>
<line x1="309.16" y1="293.99" x2="319.16" y2="293.99" stroke="#ff7f0e" stroke-width="1.3"/>
<line x1="309.16" y1="245.45" x2="319.16" y2="245.45" stroke="#ff7f0e" stroke-width="1.3"/>
<circle cx="314.16" cy="269.72" r="4" fill="#ff7f0e" stroke="#ffffff" stroke-width="1"/>
<line x1="364.31" y1="257.40" x2="364.31" y2="204.73" stroke="#ff7f0e" stroke-width="1.3"/>
<line x1="359.31" y1="257.40" x2="369.31" y2="257.40" stroke="#ff7f0e" stroke-width="1.3"/>
<line x1="359.31" y1="204.73" x2="369.31" y2="204.73" stroke="#ff7f0e" stroke-width="1.3"/>
<circle cx="364.31" cy="231.07" r="4" fill="#ff7f0e" stroke="#ffffff" stroke-width="1"/>
<line x1="414.47" y1="213.28" x2="414.47" y2="191.23" stroke="#ff7f0e" stroke-width="1.3"/>
<line x1="409.47" y1="213.28" x2="419.47" y2="213.28" stroke="#ff7f0e" stroke-width="1.3"/>
<line x1="409.47" y1="191.23" x2="419.47" y2="191.23" stroke="#ff7f0e" stroke-width="1.3"/>
<circle cx="414.47" cy="202.26" r="4" fill="#ff7f0e" stroke="#ffffff" stroke-width="1"/>
<line x1="464.62" y1="212.75" x2="464.62" y2="182.45" stroke="#ff7f0e" stroke-width="1.3"/>
<line x1="459.62" y1="212.75" x2="469.62" y2="212.75" stroke="#ff7f0e" stroke-width="1.3"/>
<line x1="459.62" y1="182.45" x2="469.62" y2="182.45" stroke="#ff7f0e" stroke-width="1.3"/>
<circle cx="464.62" cy="197.60" r="4" fill="#ff7f0e" stroke="#ffffff" stroke-width="1"/>
<line x1="514.77" y1="192.41" x2="514.77" y2="176.70" stroke="#ff7f0e" stroke-width="1.3"/>
<line x1="509.77" y1="192.41" x2="519.77" y2="192.41" stroke="#ff7f0e" stroke-width="1.3"/>
<line x1="509.77" y1="176.70" x2="519.77" y2="176.70" stroke="#ff7f0e" stroke-width="1.3"/>
<circle cx="514.77" cy="184.56" r="4" fill="#ff7f0e" stroke="#ffffff" stroke-width="1"/>
<line x1="564.92" y1="176.31" x2="564.92" y2="176.31" stroke="#ff7f0e" stroke-width="1.3"/>
<line x1="559.92" y1="176.31" x2="569.92" y2="176.31" stroke="#ff7f0e" stroke-width="1.3"/>
<line x1="559.92" y1="176.31" x2="569.92" y2="176.31" stroke="#ff7f0e" stroke-width="1.3"/>
<circle cx="564.92" cy="176.31" r="4" fill="#ff7f0e" stroke="#ffffff" stroke-width="1"/>
<line x1="615.08" y1="172.93" x2="615.08" y2="172.93" stroke="#ff7f0e" stroke-width="1.3"/>
<line x1="610.08" y1="172.93" x2="620.08" y2="172.93" stroke="#ff7f0e" stroke-width="1.3"/>
<line x1="610.08" y1="172.93" x2="620.08" y2="172.93" stroke="#ff7f0e" stroke-width="1.3"/>
<circle cx="615.08" cy="172.93" r="4" fill="#ff7f0e" stroke="#ffffff" stroke-width="1"/>
<line x1="665.23" y1="169.96" x2="665.23" y2="169.95" stroke="#ff7f0e" stroke-width="1.3"/>
<line x1="660.23" y1="169.96" x2="670.23" y2="169.96" stroke="#ff7f0e" stroke-width="1.3"/>
<line x1="660.23" y1="169.95" x2="670.23" y2="169.95" stroke="#ff7f0e" stroke-width="1.3"/>
<circle cx="665.23" cy="169.96" r="4" fill="#ff7f0e" stroke="#ffffff" stroke-width="1"/>
<line x1="715.38" y1="167.33" x2="715.38" y2="167.33" stroke="#ff7f0e" stroke-width="1.3"/>
<line x1="710.38" y1="167.33" x2="720.38" y2="167.33" stroke="#ff7f0e" stroke-width="1.3"/>
<line x1="710.38" y1="167.33" x2="720.38" y2="167.33" stroke="#ff7f0e" stroke-width="1.3"/>
<circle cx="715.38" cy="167.33" r="4" fill="#ff7f0e" stroke="#ffffff" stroke-width="1"/>
<line x1="765.53" y1="164.99" x2="765.53" y2="164.99" stroke="#ff7f0e" stroke-width="1.3"/>
<line x1="760.53" y1="164.99" x2="770.53" y2="164.99" stroke="#ff7f0e" stroke-width="1.3"/>
<line x1="760.53" y1="164.99" x2="770.53" y2="164.99" stroke="#ff7f0e" stroke-width="1.3"/>
<circle cx="765.53" cy="164.99" r="4" fill="#ff7f0e" stroke="#ffffff" stroke-width="1"/>
<line x1="815.69" y1="162.89" x2="815.69" y2="162.89" stroke="#ff7f0e" stroke-width="1.3"/>
<line x1="810.69" y1="162.89" x2="820.69" y2="162.89" stroke="#ff7f0e" stroke-width="1.3"/>
<line x1="810.69" y1="162.89" x2="820.69" y2="162.89" stroke="#ff7f0e" stroke-width="1.3"/>
<circle cx="815.69" cy="162.89" r="4" fill="#ff7f0e" stroke="#ffffff" stroke-width="1"/>
<line x1="865.84" y1="160.99" x2="865.84" y2="160.99" stroke="#ff7f0e" stroke-width="1.3"/>
<line x1="860.84" y1="160.99" x2="870.84" y2="160.99" stroke="#ff7f0e" stroke-width="1.3"/>
<line x1="860.84" y1="160.99" x2="870.84" y2="160.99" stroke="#ff7f0e" stroke-width="1.3"/>
<circle cx="865.84" cy="160.99" r="4" fill="#ff7f0e" stroke="#ffffff" stroke-width="1"/>
<line x1="915.99" y1="159.28" x2="915.99" y2="159.28" stroke="#ff7f0e" stroke-width="1.3"/>
<line x1="910.99" y1="159.28" x2="920.99" y2="159.28" stroke="#ff7f0e" stroke-width="1.3"/>
<line x1="910.99" y1="159.28" x2="920.99" y2="159.28" stroke="#ff7f0e" stroke-width="1.3"/>
<circle cx="915.99" cy="159.28" r="4" fill="#ff7f0e" stroke="#ffffff" stroke-width="1"/>
<line x1="966.14" y1="157.72" x2="966.14" y2="157.72" stroke="#ff7f0e" stroke-width="1.3"/>
<line x1="961.14" y1="157.72" x2="971.14" y2="157.72" stroke="#ff7f0e" stroke-width="1.3"/>
<line x1="961.14" y1="157.72" x2="971.14" y2="157.72" stroke="#ff7f0e" stroke-width="1.3"/>
<circle cx="966.14" cy="157.72" r="4" fill="#ff7f0e" stroke="#ffffff" stroke-width="1"/>
<line x1="1016.29" y1="156.29" x2="1016.29" y2="156.29" stroke="#ff7f0e" stroke-width="1.3"/>
<line x1="1011.29" y1="156.29" x2="1021.29" y2="156.29" stroke="#ff7f0e" stroke-width="1.3"/>
<line x1="1011.29" y1="156.29" x2="1021.29" y2="156.29" stroke="#ff7f0e" stroke-width="1.3"/>
<circle cx="1016.29" cy="156.29" r="4" fill="#ff7f0e" stroke="#ffffff" stroke-width="1"/>
<line x1="1066.45" y1="154.97" x2="1066.45" y2="154.97" stroke="#ff7f0e" stroke-width="1.3"/>
<line x1="1061.45" y1="154.97" x2="1071.45" y2="154.97" stroke="#ff7f0e" stroke-width="1.3"/>
<line x1="1061.45" y1="154.97" x2="1071.45" y2="154.97" stroke="#ff7f0e" stroke-width="1.3"/>
<circle cx="1066.45" cy="154.97" r="4" fill="#ff7f0e" stroke="#ffffff" stroke-width="1"/>
<polyline points="113.55,235.74 163.71,217.26 213.86,204.04 264.01,194.11 314.16,186.38 364.31,180.19 414.47,175.13 464.62,170.90 514.77,167.33 564.92,164.26 615.08,161.60 665.23,159.27 715.38,157.22 765.53,155.39 815.69,153.76 865.84,152.29 915.99,150.96 966.14,149.75 1016.29,148.64 1066.45,147.63" fill="none" stroke="#111111" stroke-width="2.5" stroke-dasharray="8 6"/>
<circle cx="113.55" cy="235.74" r="4" fill="#111111" stroke="#ffffff" stroke-width="1"/>
<circle cx="163.71" cy="217.26" r="4" fill="#111111" stroke="#ffffff" stroke-width="1"/>
<circle cx="213.86" cy="204.04" r="4" fill="#111111" stroke="#ffffff" stroke-width="1"/>
<circle cx="264.01" cy="194.11" r="4" fill="#111111" stroke="#ffffff" stroke-width="1"/>
<circle cx="314.16" cy="186.38" r="4" fill="#111111" stroke="#ffffff" stroke-width="1"/>
<circle cx="364.31" cy="180.19" r="4" fill="#111111" stroke="#ffffff" stroke-width="1"/>
<circle cx="414.47" cy="175.13" r="4" fill="#111111" stroke="#ffffff" stroke-width="1"/>
<circle cx="464.62" cy="170.90" r="4" fill="#111111" stroke="#ffffff" stroke-width="1"/>
<circle cx="514.77" cy="167.33" r="4" fill="#111111" stroke="#ffffff" stroke-width="1"/>
<circle cx="564.92" cy="164.26" r="4" fill="#111111" stroke="#ffffff" stroke-width="1"/>
<circle cx="615.08" cy="161.60" r="4" fill="#111111" stroke="#ffffff" stroke-width="1"/>
<circle cx="665.23" cy="159.27" r="4" fill="#111111" stroke="#ffffff" stroke-width="1"/>
<circle cx="715.38" cy="157.22" r="4" fill="#111111" stroke="#ffffff" stroke-width="1"/>
<circle cx="765.53" cy="155.39" r="4" fill="#111111" stroke="#ffffff" stroke-width="1"/>
<circle cx="815.69" cy="153.76" r="4" fill="#111111" stroke="#ffffff" stroke-width="1"/>
<circle cx="865.84" cy="152.29" r="4" fill="#111111" stroke="#ffffff" stroke-width="1"/>
<circle cx="915.99" cy="150.96" r="4" fill="#111111" stroke="#ffffff" stroke-width="1"/>
<circle cx="966.14" cy="149.75" r="4" fill="#111111" stroke="#ffffff" stroke-width="1"/>
<circle cx="1016.29" cy="148.64" r="4" fill="#111111" stroke="#ffffff" stroke-width="1"/>
<circle cx="1066.45" cy="147.63" r="4" fill="#111111" stroke="#ffffff" stroke-width="1"/>
</svg>
