<svg xmlns="http://www.w3.org/2000/svg" width="1120" height="760" viewBox="0 0 1120 760">
<rect width="100%" height="100%" fill="#fbfbf8"/>
<text x="560.0" y="34" text-anchor="middle" font-family="sans-serif" font-size="24" fill="#222">Pérdidas UDP bidireccionales vs. payload</text>
<rect x="96" y="106" width="988" height="562" fill="#ffffff" stroke="#c9c9c1"/>
<line x1="96" y1="106.00" x2="1084" y2="106.00" stroke="#a9aba3" stroke-width="1.35"/>
<text x="86" y="110.00" text-anchor="end" font-family="sans-serif" font-size="13" font-weight="400" fill="#292925">64.9</text>
<line x1="96" y1="199.67" x2="1084" y2="199.67" stroke="#a9aba3" stroke-width="1.35"/>
<text x="86" y="203.67" text-anchor="end" font-family="sans-serif" font-size="13" font-weight="400" fill="#292925">53.1</text>
<line x1="96" y1="293.33" x2="1084" y2="293.33" stroke="#a9aba3" stroke-width="1.35"/>
<text x="86" y="297.33" text-anchor="end" font-family="sans-serif" font-size="13" font-weight="400" fill="#292925">41.3</text>
<line x1="96" y1="387.00" x2="1084" y2="387.00" stroke="#a9aba3" stroke-width="1.35"/>
<text x="86" y="391.00" text-anchor="end" font-family="sans-serif" font-size="13" font-weight="400" fill="#292925">29.5</text>
<line x1="96" y1="480.67" x2="1084" y2="480.67" stroke="#a9aba3" stroke-width="1.35"/>
<text x="86" y="484.67" text-anchor="end" font-family="sans-serif" font-size="13" font-weight="400" fill="#292925">17.7</text>
<line x1="96" y1="574.33" x2="1084" y2="574.33" stroke="#a9aba3" stroke-width="1.35"/>
<text x="86" y="578.33" text-anchor="end" font-family="sans-serif" font-size="13" font-weight="400" fill="#292925">5.95</text>
<line x1="96" y1="668.00" x2="1084" y2="668.00" stroke="#a9aba3" stroke-width="1.35"/>
<text x="86" y="672.00" text-anchor="end" font-family="sans-serif" font-size="13" font-weight="400" fill="#292925">-5.84</text>
<line x1="96" y1="621.61" x2="1084" y2="621.61" stroke="#676761" stroke-width="1.8"/>
<text x="86" y="625.61" text-anchor="end" font-family="sans-serif" font-size="12" font-weight="600" fill="#222">0</text>
<line x1="113.55" y1="106" x2="113.55" y2="668" stroke="#b4b6ae" stroke-width="1.25"/>
<text transform="translate(113.55 688) rotate(-45)" text-anchor="end" font-family="sans-serif" font-size="11" font-weight="500" fill="#292925">256</text>
<line x1="163.71" y1="106" x2="163.71" y2="668" stroke="#b4b6ae" stroke-width="1.25"/>
<text transform="translate(163.71 688) rotate(-45)" text-anchor="end" font-family="sans-serif" font-size="11" font-weight="500" fill="#292925">320</text>
<line x1="213.86" y1="106" x2="213.86" y2="668" stroke="#b4b6ae" stroke-width="1.25"/>
<text transform="translate(213.86 688) rotate(-45)" text-anchor="end" font-family="sans-serif" font-size="11" font-weight="500" fill="#292925">384</text>
<line x1="264.01" y1="106" x2="264.01" y2="668" stroke="#b4b6ae" stroke-width="1.25"/>
<text transform="translate(264.01 688) rotate(-45)" text-anchor="end" font-family="sans-serif" font-size="11" font-weight="500" fill="#292925">448</text>
<line x1="314.16" y1="106" x2="314.16" y2="668" stroke="#b4b6ae" stroke-width="1.25"/>
<text transform="translate(314.16 688) rotate(-45)" text-anchor="end" font-family="sans-serif" font-size="11" font-weight="500" fill="#292925">512</text>
<line x1="364.31" y1="106" x2="364.31" y2="668" stroke="#b4b6ae" stroke-width="1.25"/>
<text transform="translate(364.31 688) rotate(-45)" text-anchor="end" font-family="sans-serif" font-size="11" font-weight="500" fill="#292925">576</text>
<line x1="414.47" y1="106" x2="414.47" y2="668" stroke="#b4b6ae" stroke-width="1.25"/>
<text transform="translate(414.47 688) rotate(-45)" text-anchor="end" font-family="sans-serif" font-size="11" font-weight="500" fill="#292925">640</text>
<line x1="464.62" y1="106" x2="464.62" y2="668" stroke="#b4b6ae" stroke-width="1.25"/>
<text transform="translate(464.62 688) rotate(-45)" text-anchor="end" font-family="sans-serif" font-size="11" font-weight="500" fill="#292925">704</text>
<line x1="514.77" y1="106" x2="514.77" y2="668" stroke="#b4b6ae" stroke-width="1.25"/>
<text transform="translate(514.77 688) rotate(-45)" text-anchor="end" font-family="sans-serif" font-size="11" font-weight="500" fill="#292925">768</text>
<line x1="564.92" y1="106" x2="564.92" y2="668" stroke="#b4b6ae" stroke-width="1.25"/>
<text transform="translate(564.92 688) rotate(-45)" text-anchor="end" font-family="sans-serif" font-size="11" font-weight="500" fill="#292925">832</text>
<line x1="615.08" y1="106" x2="615.08" y2="668" stroke="#b4b6ae" stroke-width="1.25"/>
<text transform="translate(615.08 688) rotate(-45)" text-anchor="end" font-family="sans-serif" font-size="11" font-weight="500" fill="#292925">896</text>
<line x1="665.23" y1="106" x2="665.23" y2="668" stroke="#b4b6ae" stroke-width="1.25"/>
<text transform="translate(665.23 688) rotate(-45)" text-anchor="end" font-family="sans-serif" font-size="11" font-weight="500" fill="#292925">960</text>
<line x1="715.38" y1="106" x2="715.38" y2="668" stroke="#b4b6ae" stroke-width="1.25"/>
<text transform="translate(715.38 688) rotate(-45)" text-anchor="end" font-family="sans-serif" font-size="11" font-weight="500" fill="#292925">1024</text>
<line x1="765.53" y1="106" x2="765.53" y2="668" stroke="#b4b6ae" stroke-width="1.25"/>
<text transform="translate(765.53 688) rotate(-45)" text-anchor="end" font-family="sans-serif" font-size="11" font-weight="500" fill="#292925">1088</text>
<line x1="815.69" y1="106" x2="815.69" y2="668" stroke="#b4b6ae" stroke-width="1.25"/>
<text transform="translate(815.69 688) rotate(-45)" text-anchor="end" font-family="sans-serif" font-size="11" font-weight="500" fill="#292925">1152</text>
<line x1="865.84" y1="106" x2="865.84" y2="668" stroke="#b4b6ae" stroke-width="1.25"/>
<text transform="translate(865.84 688) rotate(-45)" text-anchor="end" font-family="sans-serif" font-size="11" font-weight="500" fill="#292925">1216</text>
<line x1="915.99" y1="106" x2="915.99" y2="668" stroke="#b4b6ae" stroke-width="1.25"/>
<text transform="translate(915.99 688) rotate(-45)" text-anchor="end" font-family="sans-serif" font-size="11" font-weight="500" fill="#292925">1280</text>
<line x1="966.14" y1="106" x2="966.14" y2="668" stroke="#b4b6ae" stroke-width="1.25"/>
<text transform="translate(966.14 688) rotate(-45)" text-anchor="end" font-family="sans-serif" font-size="11" font-weight="500" fill="#292925">1344</text>
<line x1="1016.29" y1="106" x2="1016.29" y2="668" stroke="#b4b6ae" stroke-width="1.25"/>
<text transform="translate(1016.29 688) rotate(-45)" text-anchor="end" font-family="sans-serif" font-size="11" font-weight="500" fill="#292925">1408</text>
<line x1="1066.45" y1="106" x2="1066.45" y2="668" stroke="#b4b6ae" stroke-width="1.25"/>
<text transform="translate(1066.45 688) rotate(-45)" text-anchor="end" font-family="sans-serif" font-size="11" font-weight="500" fill="#292925">1472</text>
<text x="590.0" y="736" text-anchor="middle" font-family="sans-serif" font-size="17" font-weight="600" fill="#171715">Tamaño del payload (bytes)</text>
<text transform="translate(24 387.0) rotate(-90)" text-anchor="middle" font-family="sans-serif" font-size="17" font-weight="600" fill="#171715">Pérdida (%)</text>
<line x1="96.0" y1="64" x2="122.0" y2="64" stroke="#d62728" stroke-width="3"/>
<text x="130.0" y="68" font-family="sans-serif" font-size="13" fill="#222">NIC a Corundum</text>
<line x1="590.0" y1="64" x2="616.0" y2="64" stroke="#9467bd" stroke-width="3" stroke-dasharray="8 6"/>
<text x="624.0" y="68" font-family="sans-serif" font-size="13" fill="#222">Corundum a NIC</text>
<polyline points="113.55,340.10 163.71,314.34 213.86,432.32 264.01,501.55 314.16,594.36 364.31,617.39 414.47,578.68 464.62,615.38 514.77,621.55 564.92,621.49 615.08,621.61 665.23,621.61 715.38,621.61 765.53,621.61 815.69,621.61 865.84,621.61 915.99,621.61 966.14,621.61 1016.29,621.61 1066.45,621.61" fill="none" stroke="#d62728" stroke-width="2.5"/>
<line x1="113.55" y1="402.66" x2="113.55" y2="277.53" stroke="#d62728" stroke-width="1.3"/>
<line x1="108.55" y1="402.66" x2="118.55" y2="402.66" stroke="#d62728" stroke-width="1.3"/>
<line x1="108.55" y1="277.53" x2="118.55" y2="277.53" stroke="#d62728" stroke-width="1.3"/>
<circle cx="113.55" cy="340.10" r="4" fill="#d62728" stroke="#ffffff" stroke-width="1"/>
<line x1="163.71" y1="376.78" x2="163.71" y2="251.90" stroke="#d62728" stroke-width="1.3"/>
<line x1="158.71" y1="376.78" x2="168.71" y2="376.78" stroke="#d62728" stroke-width="1.3"/>
<line x1="158.71" y1="251.90" x2="168.71" y2="251.90" stroke="#d62728" stroke-width="1.3"/>
<circle cx="163.71" cy="314.34" r="4" fill="#d62728" stroke="#ffffff" stroke-width="1"/>
<line x1="213.86" y1="488.02" x2="213.86" y2="376.63" stroke="#d62728" stroke-width="1.3"/>
<line x1="208.86" y1="488.02" x2="218.86" y2="488.02" stroke="#d62728" stroke-width="1.3"/>
<line x1="208.86" y1="376.63" x2="218.86" y2="376.63" stroke="#d62728" stroke-width="1.3"/>
<circle cx="213.86" cy="432.32" r="4" fill="#d62728" stroke="#ffffff" stroke-width="1"/>
<line x1="264.01" y1="555.69" x2="264.01" y2="447.41" stroke="#d62728" stroke-width="1.3"/>
<line x1="259.01" y1="555.69" x2="269.01" y2="555.69" stroke="#d62728" stroke-width="1.3"/>
<line x1="259.01" y1="447.41" x2="269.01" y2="447.41" stroke="#d62728" stroke-width="1.3"/>
<circle cx="264.01" cy="501.55" r="4" fill="#d62728" stroke="#ffffff" stroke-width="1"/>
<line x1="314.16" y1="616.33" x2="314.16" y2="572.40" stroke="#d62728" stroke-width="1.3"/>
<line x1="309.16" y1="616.33" x2="319.16" y2="616.33" stroke="#d62728" stroke-width="1.3"/>
<line x1="309.16" y1="572.40" x2="319.16" y2="572.40" stroke="#d62728" stroke-width="1.3"/>
<circle cx="314.16" cy="594.36" r="4" fill="#d62728" stroke="#ffffff" stroke-width="1"/>
<line x1="364.31" y1="625.12" x2="364.31" y2="609.66" stroke="#d62728" stroke-width="1.3"/>
<line x1="359.31" y1="625.12" x2="369.31" y2="625.12" stroke="#d62728" stroke-width="1.3"/>
<line x1="359.31" y1="609.66" x2="369.31" y2="609.66" stroke="#d62728" stroke-width="1.3"/>
<circle cx="364.31" cy="617.39" r="4" fill="#d62728" stroke="#ffffff" stroke-width="1"/>
<line x1="414.47" y1="606.71" x2="414.47" y2="550.66" stroke="#d62728" stroke-width="1.3"/>
<line x1="409.47" y1="606.71" x2="419.47" y2="606.71" stroke="#d62728" stroke-width="1.3"/>
<line x1="409.47" y1="550.66" x2="419.47" y2="550.66" stroke="#d62728" stroke-width="1.3"/>
<circle cx="414.47" cy="578.68" r="4" fill="#d62728" stroke="#ffffff" stroke-width="1"/>
<line x1="464.62" y1="629.24" x2="464.62" y2="601.52" stroke="#d62728" stroke-width="1.3"/>
<line x1="459.62" y1="629.24" x2="469.62" y2="629.24" stroke="#d62728" stroke-width="1.3"/>
<line x1="459.62" y1="601.52" x2="469.62" y2="601.52" stroke="#d62728" stroke-width="1.3"/>
<circle cx="464.62" cy="615.38" r="4" fill="#d62728" stroke="#ffffff" stroke-width="1"/>
<line x1="514.77" y1="621.63" x2="514.77" y2="621.48" stroke="#d62728" stroke-width="1.3"/>
<line x1="509.77" y1="621.63" x2="519.77" y2="621.63" stroke="#d62728" stroke-width="1.3"/>
<line x1="509.77" y1="621.48" x2="519.77" y2="621.48" stroke="#d62728" stroke-width="1.3"/>
<circle cx="514.77" cy="621.55" r="4" fill="#d62728" stroke="#ffffff" stroke-width="1"/>
<line x1="564.92" y1="621.76" x2="564.92" y2="621.23" stroke="#d62728" stroke-width="1.3"/>
<line x1="559.92" y1="621.76" x2="569.92" y2="621.76" stroke="#d62728" stroke-width="1.3"/>
<line x1="559.92" y1="621.23" x2="569.92" y2="621.23" stroke="#d62728" stroke-width="1.3"/>
<circle cx="564.92" cy="621.49" r="4" fill="#d62728" stroke="#ffffff" stroke-width="1"/>
<circle cx="615.08" cy="621.61" r="4" fill="#d62728" stroke="#ffffff" stroke-width="1"/>
<circle cx="665.23" cy="621.61" r="4" fill="#d62728" stroke="#ffffff" stroke-width="1"/>
<circle cx="715.38" cy="621.61" r="4" fill="#d62728" stroke="#ffffff" stroke-width="1"/>
<circle cx="765.53" cy="621.61" r="4" fill="#d62728" stroke="#ffffff" stroke-width="1"/>
<circle cx="815.69" cy="621.61" r="4" fill="#d62728" stroke="#ffffff" stroke-width="1"/>
<circle cx="865.84" cy="621.61" r="4" fill="#d62728" stroke="#ffffff" stroke-width="1"/>
<circle cx="915.99" cy="621.61" r="4" fill="#d62728" stroke="#ffffff" stroke-width="1"/>
<circle cx="966.14" cy="621.61" r="4" fill="#d62728" stroke="#ffffff" stroke-width="1"/>
<circle cx="1016.29" cy="621.61" r="4" fill="#d62728" stroke="#ffffff" stroke-width="1"/>
<circle cx="1066.45" cy="621.61" r="4" fill="#d62728" stroke="#ffffff" stroke-width="1"/>
<polyline points="113.55,193.63 163.71,287.72 213.86,336.38 264.01,416.31 314.16,484.33 364.31,542.81 414.47,578.07 464.62,578.99 514.77,594.01 564.92,602.60 615.08,603.84 665.23,604.96 715.38,605.96 765.53,606.99 815.69,608.15 865.84,609.00 915.99,609.58 966.14,610.54 1016.29,611.08 1066.45,611.79" fill="none" stroke="#9467bd" stroke-width="2.5" stroke-dasharray="8 6"/>
<line x1="113.55" y1="242.50" x2="113.55" y2="144.76" stroke="#9467bd" stroke-width="1.3"/>
<line x1="108.55" y1="242.50" x2="118.55" y2="242.50" stroke="#9467bd" stroke-width="1.3"/>
<line x1="108.55" y1="144.76" x2="118.55" y2="144.76" stroke="#9467bd" stroke-width="1.3"/>
<circle cx="113.55" cy="193.63" r="4" fill="#9467bd" stroke="#ffffff" stroke-width="1"/>
<line x1="163.71" y1="316.52" x2="163.71" y2="258.92" stroke="#9467bd" stroke-width="1.3"/>
<line x1="158.71" y1="316.52" x2="168.71" y2="316.52" stroke="#9467bd" stroke-width="1.3"/>
<line x1="158.71" y1="258.92" x2="168.71" y2="258.92" stroke="#9467bd" stroke-width="1.3"/>
<circle cx="163.71" cy="287.72" r="4" fill="#9467bd" stroke="#ffffff" stroke-width="1"/>
<line x1="213.86" y1="388.87" x2="213.86" y2="283.90" stroke="#9467bd" stroke-width="1.3"/>
<line x1="208.86" y1="388.87" x2="218.86" y2="388.87" stroke="#9467bd" stroke-width="1.3"/>
<line x1="208.86" y1="283.90" x2="218.86" y2="283.90" stroke="#9467bd" stroke-width="1.3"/>
<circle cx="213.86" cy="336.38" r="4" fill="#9467bd" stroke="#ffffff" stroke-width="1"/>
<line x1="264.01" y1="473.11" x2="264.01" y2="359.51" stroke="#9467bd" stroke-width="1.3"/>
<line x1="259.01" y1="473.11" x2="269.01" y2="473.11" stroke="#9467bd" stroke-width="1.3"/>
<line x1="259.01" y1="359.51" x2="269.01" y2="359.51" stroke="#9467bd" stroke-width="1.3"/>
<circle cx="264.01" cy="416.31" r="4" fill="#9467bd" stroke="#ffffff" stroke-width="1"/>
<line x1="314.16" y1="524.38" x2="314.16" y2="444.29" stroke="#9467bd" stroke-width="1.3"/>
<line x1="309.16" y1="524.38" x2="319.16" y2="524.38" stroke="#9467bd" stroke-width="1.3"/>
<line x1="309.16" y1="444.29" x2="319.16" y2="444.29" stroke="#9467bd" stroke-width="1.3"/>
<circle cx="314.16" cy="484.33" r="4" fill="#9467bd" stroke="#ffffff" stroke-width="1"/>
<line x1="364.31" y1="581.39" x2="364.31" y2="504.22" stroke="#9467bd" stroke-width="1.3"/>
<line x1="359.31" y1="581.39" x2="369.31" y2="581.39" stroke="#9467bd" stroke-width="1.3"/>
<line x1="359.31" y1="504.22" x2="369.31" y2="504.22" stroke="#9467bd" stroke-width="1.3"/>
<circle cx="364.31" cy="542.81" r="4" fill="#9467bd" stroke="#ffffff" stroke-width="1"/>
<line x1="414.47" y1="595.81" x2="414.47" y2="560.34" stroke="#9467bd" stroke-width="1.3"/>
<line x1="409.47" y1="595.81" x2="419.47" y2="595.81" stroke="#9467bd" stroke-width="1.3"/>
<line x1="409.47" y1="560.34" x2="419.47" y2="560.34" stroke="#9467bd" stroke-width="1.3"/>
<circle cx="414.47" cy="578.07" r="4" fill="#9467bd" stroke="#ffffff" stroke-width="1"/>
<line x1="464.62" y1="602.92" x2="464.62" y2="555.06" stroke="#9467bd" stroke-width="1.3"/>
<line x1="459.62" y1="602.92" x2="469.62" y2="602.92" stroke="#9467bd" stroke-width="1.3"/>
<line x1="459.62" y1="555.06" x2="469.62" y2="555.06" stroke="#9467bd" stroke-width="1.3"/>
<circle cx="464.62" cy="578.99" r="4" fill="#9467bd" stroke="#ffffff" stroke-width="1"/>
<line x1="514.77" y1="607.01" x2="514.77" y2="581.01" stroke="#9467bd" stroke-width="1.3"/>
<line x1="509.77" y1="607.01" x2="519.77" y2="607.01" stroke="#9467bd" stroke-width="1.3"/>
<line x1="509.77" y1="581.01" x2="519.77" y2="581.01" stroke="#9467bd" stroke-width="1.3"/>
<circle cx="514.77" cy="594.01" r="4" fill="#9467bd" stroke="#ffffff" stroke-width="1"/>
<line x1="564.92" y1="602.60" x2="564.92" y2="602.60" stroke="#9467bd" stroke-width="1.3"/>
<line x1="559.92" y1="602.60" x2="569.92" y2="602.60" stroke="#9467bd" stroke-width="1.3"/>
<line x1="559.92" y1="602.60" x2="569.92" y2="602.60" stroke="#9467bd" stroke-width="1.3"/>
<circle cx="564.92" cy="602.60" r="4" fill="#9467bd" stroke="#ffffff" stroke-width="1"/>
<line x1="615.08" y1="603.85" x2="615.08" y2="603.82" stroke="#9467bd" stroke-width="1.3"/>
<line x1="610.08" y1="603.85" x2="620.08" y2="603.85" stroke="#9467bd" stroke-width="1.3"/>
<line x1="610.08" y1="603.82" x2="620.08" y2="603.82" stroke="#9467bd" stroke-width="1.3"/>
<circle cx="615.08" cy="603.84" r="4" fill="#9467bd" stroke="#ffffff" stroke-width="1"/>
<line x1="665.23" y1="605.02" x2="665.23" y2="604.91" stroke="#9467bd" stroke-width="1.3"/>
<line x1="660.23" y1="605.02" x2="670.23" y2="605.02" stroke="#9467bd" stroke-width="1.3"/>
<line x1="660.23" y1="604.91" x2="670.23" y2="604.91" stroke="#9467bd" stroke-width="1.3"/>
<circle cx="665.23" cy="604.96" r="4" fill="#9467bd" stroke="#ffffff" stroke-width="1"/>
<line x1="715.38" y1="606.02" x2="715.38" y2="605.89" stroke="#9467bd" stroke-width="1.3"/>
<line x1="710.38" y1="606.02" x2="720.38" y2="606.02" stroke="#9467bd" stroke-width="1.3"/>
<line x1="710.38" y1="605.89" x2="720.38" y2="605.89" stroke="#9467bd" stroke-width="1.3"/>
<circle cx="715.38" cy="605.96" r="4" fill="#9467bd" stroke="#ffffff" stroke-width="1"/>
<line x1="765.53" y1="607.09" x2="765.53" y2="606.89" stroke="#9467bd" stroke-width="1.3"/>
<line x1="760.53" y1="607.09" x2="770.53" y2="607.09" stroke="#9467bd" stroke-width="1.3"/>
<line x1="760.53" y1="606.89" x2="770.53" y2="606.89" stroke="#9467bd" stroke-width="1.3"/>
<circle cx="765.53" cy="606.99" r="4" fill="#9467bd" stroke="#ffffff" stroke-width="1"/>
<line x1="815.69" y1="608.33" x2="815.69" y2="607.97" stroke="#9467bd" stroke-width="1.3"/>
<line x1="810.69" y1="608.33" x2="820.69" y2="608.33" stroke="#9467bd" stroke-width="1.3"/>
<line x1="810.69" y1="607.97" x2="820.69" y2="607.97" stroke="#9467bd" stroke-width="1.3"/>
<circle cx="815.69" cy="608.15" r="4" fill="#9467bd" stroke="#ffffff" stroke-width="1"/>
<line x1="865.84" y1="609.23" x2="865.84" y2="608.78" stroke="#9467bd" stroke-width="1.3"/>
<line x1="860.84" y1="609.23" x2="870.84" y2="609.23" stroke="#9467bd" stroke-width="1.3"/>
<line x1="860.84" y1="608.78" x2="870.84" y2="608.78" stroke="#9467bd" stroke-width="1.3"/>
<circle cx="865.84" cy="609.00" r="4" fill="#9467bd" stroke="#ffffff" stroke-width="1"/>
<line x1="915.99" y1="610.04" x2="915.99" y2="609.13" stroke="#9467bd" stroke-width="1.3"/>
<line x1="910.99" y1="610.04" x2="920.99" y2="610.04" stroke="#9467bd" stroke-width="1.3"/>
<line x1="910.99" y1="609.13" x2="920.99" y2="609.13" stroke="#9467bd" stroke-width="1.3"/>
<circle cx="915.99" cy="609.58" r="4" fill="#9467bd" stroke="#ffffff" stroke-width="1"/>
<line x1="966.14" y1="610.62" x2="966.14" y2="610.46" stroke="#9467bd" stroke-width="1.3"/>
<line x1="961.14" y1="610.62" x2="971.14" y2="610.62" stroke="#9467bd" stroke-width="1.3"/>
<line x1="961.14" y1="610.46" x2="971.14" y2="610.46" stroke="#9467bd" stroke-width="1.3"/>
<circle cx="966.14" cy="610.54" r="4" fill="#9467bd" stroke="#ffffff" stroke-width="1"/>
<line x1="1016.29" y1="611.75" x2="1016.29" y2="610.42" stroke="#9467bd" stroke-width="1.3"/>
<line x1="1011.29" y1="611.75" x2="1021.29" y2="611.75" stroke="#9467bd" stroke-width="1.3"/>
<line x1="1011.29" y1="610.42" x2="1021.29" y2="610.42" stroke="#9467bd" stroke-width="1.3"/>
<circle cx="1016.29" cy="611.08" r="4" fill="#9467bd" stroke="#ffffff" stroke-width="1"/>
<line x1="1066.45" y1="612.18" x2="1066.45" y2="611.41" stroke="#9467bd" stroke-width="1.3"/>
<line x1="1061.45" y1="612.18" x2="1071.45" y2="612.18" stroke="#9467bd" stroke-width="1.3"/>
<line x1="1061.45" y1="611.41" x2="1071.45" y2="611.41" stroke="#9467bd" stroke-width="1.3"/>
<circle cx="1066.45" cy="611.79" r="4" fill="#9467bd" stroke="#ffffff" stroke-width="1"/>
</svg>
