<svg xmlns="http://www.w3.org/2000/svg" width="1120" height="760" viewBox="0 0 1120 760">
<rect width="100%" height="100%" fill="#fbfbf8"/>
<text x="560.0" y="34" text-anchor="middle" font-family="sans-serif" font-size="24" fill="#222">PPS bidireccionales vs. payload</text>
<rect x="96" y="106" width="988" height="562" fill="#ffffff" stroke="#c9c9c1"/>
<line x1="96" y1="106.00" x2="1084" y2="106.00" stroke="#a9aba3" stroke-width="1.35"/>
<text x="86" y="110.00" text-anchor="end" font-family="sans-serif" font-size="13" font-weight="400" fill="#292925">4.19M</text>
<line x1="96" y1="199.67" x2="1084" y2="199.67" stroke="#a9aba3" stroke-width="1.35"/>
<text x="86" y="203.67" text-anchor="end" font-family="sans-serif" font-size="13" font-weight="400" fill="#292925">3.49M</text>
<line x1="96" y1="293.33" x2="1084" y2="293.33" stroke="#a9aba3" stroke-width="1.35"/>
<text x="86" y="297.33" text-anchor="end" font-family="sans-serif" font-size="13" font-weight="400" fill="#292925">2.8M</text>
<line x1="96" y1="387.00" x2="1084" y2="387.00" stroke="#a9aba3" stroke-width="1.35"/>
<text x="86" y="391.00" text-anchor="end" font-family="sans-serif" font-size="13" font-weight="400" fill="#292925">2.1M</text>
<line x1="96" y1="480.67" x2="1084" y2="480.67" stroke="#a9aba3" stroke-width="1.35"/>
<text x="86" y="484.67" text-anchor="end" font-family="sans-serif" font-size="13" font-weight="400" fill="#292925">1.4M</text>
<line x1="96" y1="574.33" x2="1084" y2="574.33" stroke="#a9aba3" stroke-width="1.35"/>
<text x="86" y="578.33" text-anchor="end" font-family="sans-serif" font-size="13" font-weight="400" fill="#292925">699K</text>
<line x1="96" y1="668.00" x2="1084" y2="668.00" stroke="#4f504b" stroke-width="2.2"/>
<text x="86" y="672.00" text-anchor="end" font-family="sans-serif" font-size="13" font-weight="600" fill="#292925">0</text>
<line x1="113.55" y1="106" x2="113.55" y2="668" stroke="#b4b6ae" stroke-width="1.25"/>
<text transform="translate(113.55 688) rotate(-45)" text-anchor="end" font-family="sans-serif" font-size="11" font-weight="500" fill="#292925">256</text>
<line x1="163.71" y1="106" x2="163.71" y2="668" stroke="#b4b6ae" stroke-width="1.25"/>
<text transform="translate(163.71 688) rotate(-45)" text-anchor="end" font-family="sans-serif" font-size="11" font-weight="500" fill="#292925">320</text>
<line x1="213.86" y1="106" x2="213.86" y2="668" stroke="#b4b6ae" stroke-width="1.25"/>
<text transform="translate(213.86 688) rotate(-45)" text-anchor="end" font-family="sans-serif" font-size="11" font-weight="500" fill="#292925">384</text>
<line x1="264.01" y1="106" x2="264.01" y2="668" stroke="#b4b6ae" stroke-width="1.25"/>
<text transform="translate(264.01 688) rotate(-45)" text-anchor="end" font-family="sans-serif" font-size="11" font-weight="500" fill="#292925">448</text>
<line x1="314.16" y1="106" x2="314.16" y2="668" stroke="#b4b6ae" stroke-width="1.25"/>
<text transform="translate(314.16 688) rotate(-45)" text-anchor="end" font-family="sans-serif" font-size="11" font-weight="500" fill="#292925">512</text>
<line x1="364.31" y1="106" x2="364.31" y2="668" stroke="#b4b6ae" stroke-width="1.25"/>
<text transform="translate(364.31 688) rotate(-45)" text-anchor="end" font-family="sans-serif" font-size="11" font-weight="500" fill="#292925">576</text>
<line x1="414.47" y1="106" x2="414.47" y2="668" stroke="#b4b6ae" stroke-width="1.25"/>
<text transform="translate(414.47 688) rotate(-45)" text-anchor="end" font-family="sans-serif" font-size="11" font-weight="500" fill="#292925">640</text>
<line x1="464.62" y1="106" x2="464.62" y2="668" stroke="#b4b6ae" stroke-width="1.25"/>
<text transform="translate(464.62 688) rotate(-45)" text-anchor="end" font-family="sans-serif" font-size="11" font-weight="500" fill="#292925">704</text>
<line x1="514.77" y1="106" x2="514.77" y2="668" stroke="#b4b6ae" stroke-width="1.25"/>
<text transform="translate(514.77 688) rotate(-45)" text-anchor="end" font-family="sans-serif" font-size="11" font-weight="500" fill="#292925">768</text>
<line x1="564.92" y1="106" x2="564.92" y2="668" stroke="#b4b6ae" stroke-width="1.25"/>
<text transform="translate(564.92 688) rotate(-45)" text-anchor="end" font-family="sans-serif" font-size="11" font-weight="500" fill="#292925">832</text>
<line x1="615.08" y1="106" x2="615.08" y2="668" stroke="#b4b6ae" stroke-width="1.25"/>
<text transform="translate(615.08 688) rotate(-45)" text-anchor="end" font-family="sans-serif" font-size="11" font-weight="500" fill="#292925">896</text>
<line x1="665.23" y1="106" x2="665.23" y2="668" stroke="#b4b6ae" stroke-width="1.25"/>
<text transform="translate(665.23 688) rotate(-45)" text-anchor="end" font-family="sans-serif" font-size="11" font-weight="500" fill="#292925">960</text>
<line x1="715.38" y1="106" x2="715.38" y2="668" stroke="#b4b6ae" stroke-width="1.25"/>
<text transform="translate(715.38 688) rotate(-45)" text-anchor="end" font-family="sans-serif" font-size="11" font-weight="500" fill="#292925">1024</text>
<line x1="765.53" y1="106" x2="765.53" y2="668" stroke="#b4b6ae" stroke-width="1.25"/>
<text transform="translate(765.53 688) rotate(-45)" text-anchor="end" font-family="sans-serif" font-size="11" font-weight="500" fill="#292925">1088</text>
<line x1="815.69" y1="106" x2="815.69" y2="668" stroke="#b4b6ae" stroke-width="1.25"/>
<text transform="translate(815.69 688) rotate(-45)" text-anchor="end" font-family="sans-serif" font-size="11" font-weight="500" fill="#292925">1152</text>
<line x1="865.84" y1="106" x2="865.84" y2="668" stroke="#b4b6ae" stroke-width="1.25"/>
<text transform="translate(865.84 688) rotate(-45)" text-anchor="end" font-family="sans-serif" font-size="11" font-weight="500" fill="#292925">1216</text>
<line x1="915.99" y1="106" x2="915.99" y2="668" stroke="#b4b6ae" stroke-width="1.25"/>
<text transform="translate(915.99 688) rotate(-45)" text-anchor="end" font-family="sans-serif" font-size="11" font-weight="500" fill="#292925">1280</text>
<line x1="966.14" y1="106" x2="966.14" y2="668" stroke="#b4b6ae" stroke-width="1.25"/>
<text transform="translate(966.14 688) rotate(-45)" text-anchor="end" font-family="sans-serif" font-size="11" font-weight="500" fill="#292925">1344</text>
<line x1="1016.29" y1="106" x2="1016.29" y2="668" stroke="#b4b6ae" stroke-width="1.25"/>
<text transform="translate(1016.29 688) rotate(-45)" text-anchor="end" font-family="sans-serif" font-size="11" font-weight="500" fill="#292925">1408</text>
<line x1="1066.45" y1="106" x2="1066.45" y2="668" stroke="#b4b6ae" stroke-width="1.25"/>
<text transform="translate(1066.45 688) rotate(-45)" text-anchor="end" font-family="sans-serif" font-size="11" font-weight="500" fill="#292925">1472</text>
<text x="590.0" y="736" text-anchor="middle" font-family="sans-serif" font-size="17" font-weight="600" fill="#171715">Tamaño del payload (bytes)</text>
<text transform="translate(24 387.0) rotate(-90)" text-anchor="middle" font-family="sans-serif" font-size="17" font-weight="600" fill="#171715">Paquetes por segundo</text>
<line x1="96.0" y1="64" x2="122.0" y2="64" stroke="#9467bd" stroke-width="3"/>
<text x="130.0" y="68" font-family="sans-serif" font-size="13" fill="#222">NIC a Corundum</text>
<line x1="425.3333333333333" y1="64" x2="451.3333333333333" y2="64" stroke="#17becf" stroke-width="3" stroke-dasharray="8 6"/>
<text x="459.3333333333333" y="68" font-family="sans-serif" font-size="13" fill="#222">Corundum a NIC</text>
<line x1="754.6666666666666" y1="64" x2="780.6666666666666" y2="64" stroke="#111111" stroke-width="3" stroke-dasharray="8 6"/>
<text x="788.6666666666666" y="68" font-family="sans-serif" font-size="13" fill="#222">Límite teórico 10GbE</text>
<polyline points="113.55,204.85 163.71,233.75 213.86,305.18 264.01,346.90 314.16,378.54 364.31,407.02 414.47,430.68 464.62,450.40 514.77,467.10 564.92,481.41 615.08,493.82 665.23,504.69 715.38,514.28 765.53,522.80 815.69,530.43 865.84,537.30 915.99,543.51 966.14,549.16 1016.29,554.32 1066.45,559.05" fill="none" stroke="#9467bd" stroke-width="2.5"/>
<line x1="113.55" y1="247.87" x2="113.55" y2="161.83" stroke="#9467bd" stroke-width="1.3"/>
<line x1="108.55" y1="247.87" x2="118.55" y2="247.87" stroke="#9467bd" stroke-width="1.3"/>
<line x1="108.55" y1="161.83" x2="118.55" y2="161.83" stroke="#9467bd" stroke-width="1.3"/>
<circle cx="113.55" cy="204.85" r="4" fill="#9467bd" stroke="#ffffff" stroke-width="1"/>
<line x1="163.71" y1="238.65" x2="163.71" y2="228.85" stroke="#9467bd" stroke-width="1.3"/>
<line x1="158.71" y1="238.65" x2="168.71" y2="238.65" stroke="#9467bd" stroke-width="1.3"/>
<line x1="158.71" y1="228.85" x2="168.71" y2="228.85" stroke="#9467bd" stroke-width="1.3"/>
<circle cx="163.71" cy="233.75" r="4" fill="#9467bd" stroke="#ffffff" stroke-width="1"/>
<line x1="213.86" y1="312.91" x2="213.86" y2="297.44" stroke="#9467bd" stroke-width="1.3"/>
<line x1="208.86" y1="312.91" x2="218.86" y2="312.91" stroke="#9467bd" stroke-width="1.3"/>
<line x1="208.86" y1="297.44" x2="218.86" y2="297.44" stroke="#9467bd" stroke-width="1.3"/>
<circle cx="213.86" cy="305.18" r="4" fill="#9467bd" stroke="#ffffff" stroke-width="1"/>
<line x1="264.01" y1="350.67" x2="264.01" y2="343.13" stroke="#9467bd" stroke-width="1.3"/>
<line x1="259.01" y1="350.67" x2="269.01" y2="350.67" stroke="#9467bd" stroke-width="1.3"/>
<line x1="259.01" y1="343.13" x2="269.01" y2="343.13" stroke="#9467bd" stroke-width="1.3"/>
<circle cx="264.01" cy="346.90" r="4" fill="#9467bd" stroke="#ffffff" stroke-width="1"/>
<line x1="314.16" y1="378.99" x2="314.16" y2="378.09" stroke="#9467bd" stroke-width="1.3"/>
<line x1="309.16" y1="378.99" x2="319.16" y2="378.99" stroke="#9467bd" stroke-width="1.3"/>
<line x1="309.16" y1="378.09" x2="319.16" y2="378.09" stroke="#9467bd" stroke-width="1.3"/>
<circle cx="314.16" cy="378.54" r="4" fill="#9467bd" stroke="#ffffff" stroke-width="1"/>
<line x1="364.31" y1="407.09" x2="364.31" y2="406.94" stroke="#9467bd" stroke-width="1.3"/>
<line x1="359.31" y1="407.09" x2="369.31" y2="407.09" stroke="#9467bd" stroke-width="1.3"/>
<line x1="359.31" y1="406.94" x2="369.31" y2="406.94" stroke="#9467bd" stroke-width="1.3"/>
<circle cx="364.31" cy="407.02" r="4" fill="#9467bd" stroke="#ffffff" stroke-width="1"/>
<line x1="414.47" y1="430.70" x2="414.47" y2="430.66" stroke="#9467bd" stroke-width="1.3"/>
<line x1="409.47" y1="430.70" x2="419.47" y2="430.70" stroke="#9467bd" stroke-width="1.3"/>
<line x1="409.47" y1="430.66" x2="419.47" y2="430.66" stroke="#9467bd" stroke-width="1.3"/>
<circle cx="414.47" cy="430.68" r="4" fill="#9467bd" stroke="#ffffff" stroke-width="1"/>
<line x1="464.62" y1="450.43" x2="464.62" y2="450.38" stroke="#9467bd" stroke-width="1.3"/>
<line x1="459.62" y1="450.43" x2="469.62" y2="450.43" stroke="#9467bd" stroke-width="1.3"/>
<line x1="459.62" y1="450.38" x2="469.62" y2="450.38" stroke="#9467bd" stroke-width="1.3"/>
<circle cx="464.62" cy="450.40" r="4" fill="#9467bd" stroke="#ffffff" stroke-width="1"/>
<line x1="514.77" y1="467.12" x2="514.77" y2="467.08" stroke="#9467bd" stroke-width="1.3"/>
<line x1="509.77" y1="467.12" x2="519.77" y2="467.12" stroke="#9467bd" stroke-width="1.3"/>
<line x1="509.77" y1="467.08" x2="519.77" y2="467.08" stroke="#9467bd" stroke-width="1.3"/>
<circle cx="514.77" cy="467.10" r="4" fill="#9467bd" stroke="#ffffff" stroke-width="1"/>
<line x1="564.92" y1="481.42" x2="564.92" y2="481.41" stroke="#9467bd" stroke-width="1.3"/>
<line x1="559.92" y1="481.42" x2="569.92" y2="481.42" stroke="#9467bd" stroke-width="1.3"/>
<line x1="559.92" y1="481.41" x2="569.92" y2="481.41" stroke="#9467bd" stroke-width="1.3"/>
<circle cx="564.92" cy="481.41" r="4" fill="#9467bd" stroke="#ffffff" stroke-width="1"/>
<line x1="615.08" y1="493.83" x2="615.08" y2="493.82" stroke="#9467bd" stroke-width="1.3"/>
<line x1="610.08" y1="493.83" x2="620.08" y2="493.83" stroke="#9467bd" stroke-width="1.3"/>
<line x1="610.08" y1="493.82" x2="620.08" y2="493.82" stroke="#9467bd" stroke-width="1.3"/>
<circle cx="615.08" cy="493.82" r="4" fill="#9467bd" stroke="#ffffff" stroke-width="1"/>
<line x1="665.23" y1="504.69" x2="665.23" y2="504.69" stroke="#9467bd" stroke-width="1.3"/>
<line x1="660.23" y1="504.69" x2="670.23" y2="504.69" stroke="#9467bd" stroke-width="1.3"/>
<line x1="660.23" y1="504.69" x2="670.23" y2="504.69" stroke="#9467bd" stroke-width="1.3"/>
<circle cx="665.23" cy="504.69" r="4" fill="#9467bd" stroke="#ffffff" stroke-width="1"/>
<line x1="715.38" y1="514.28" x2="715.38" y2="514.28" stroke="#9467bd" stroke-width="1.3"/>
<line x1="710.38" y1="514.28" x2="720.38" y2="514.28" stroke="#9467bd" stroke-width="1.3"/>
<line x1="710.38" y1="514.28" x2="720.38" y2="514.28" stroke="#9467bd" stroke-width="1.3"/>
<circle cx="715.38" cy="514.28" r="4" fill="#9467bd" stroke="#ffffff" stroke-width="1"/>
<line x1="765.53" y1="522.80" x2="765.53" y2="522.80" stroke="#9467bd" stroke-width="1.3"/>
<line x1="760.53" y1="522.80" x2="770.53" y2="522.80" stroke="#9467bd" stroke-width="1.3"/>
<line x1="760.53" y1="522.80" x2="770.53" y2="522.80" stroke="#9467bd" stroke-width="1.3"/>
<circle cx="765.53" cy="522.80" r="4" fill="#9467bd" stroke="#ffffff" stroke-width="1"/>
<line x1="815.69" y1="530.43" x2="815.69" y2="530.43" stroke="#9467bd" stroke-width="1.3"/>
<line x1="810.69" y1="530.43" x2="820.69" y2="530.43" stroke="#9467bd" stroke-width="1.3"/>
<line x1="810.69" y1="530.43" x2="820.69" y2="530.43" stroke="#9467bd" stroke-width="1.3"/>
<circle cx="815.69" cy="530.43" r="4" fill="#9467bd" stroke="#ffffff" stroke-width="1"/>
<line x1="865.84" y1="537.30" x2="865.84" y2="537.30" stroke="#9467bd" stroke-width="1.3"/>
<line x1="860.84" y1="537.30" x2="870.84" y2="537.30" stroke="#9467bd" stroke-width="1.3"/>
<line x1="860.84" y1="537.30" x2="870.84" y2="537.30" stroke="#9467bd" stroke-width="1.3"/>
<circle cx="865.84" cy="537.30" r="4" fill="#9467bd" stroke="#ffffff" stroke-width="1"/>
<line x1="915.99" y1="543.51" x2="915.99" y2="543.51" stroke="#9467bd" stroke-width="1.3"/>
<line x1="910.99" y1="543.51" x2="920.99" y2="543.51" stroke="#9467bd" stroke-width="1.3"/>
<line x1="910.99" y1="543.51" x2="920.99" y2="543.51" stroke="#9467bd" stroke-width="1.3"/>
<circle cx="915.99" cy="543.51" r="4" fill="#9467bd" stroke="#ffffff" stroke-width="1"/>
<line x1="966.14" y1="549.17" x2="966.14" y2="549.16" stroke="#9467bd" stroke-width="1.3"/>
<line x1="961.14" y1="549.17" x2="971.14" y2="549.17" stroke="#9467bd" stroke-width="1.3"/>
<line x1="961.14" y1="549.16" x2="971.14" y2="549.16" stroke="#9467bd" stroke-width="1.3"/>
<circle cx="966.14" cy="549.16" r="4" fill="#9467bd" stroke="#ffffff" stroke-width="1"/>
<line x1="1016.29" y1="554.32" x2="1016.29" y2="554.32" stroke="#9467bd" stroke-width="1.3"/>
<line x1="1011.29" y1="554.32" x2="1021.29" y2="554.32" stroke="#9467bd" stroke-width="1.3"/>
<line x1="1011.29" y1="554.32" x2="1021.29" y2="554.32" stroke="#9467bd" stroke-width="1.3"/>
<circle cx="1016.29" cy="554.32" r="4" fill="#9467bd" stroke="#ffffff" stroke-width="1"/>
<line x1="1066.45" y1="559.05" x2="1066.45" y2="559.05" stroke="#9467bd" stroke-width="1.3"/>
<line x1="1061.45" y1="559.05" x2="1071.45" y2="559.05" stroke="#9467bd" stroke-width="1.3"/>
<line x1="1061.45" y1="559.05" x2="1071.45" y2="559.05" stroke="#9467bd" stroke-width="1.3"/>
<circle cx="1066.45" cy="559.05" r="4" fill="#9467bd" stroke="#ffffff" stroke-width="1"/>
<polyline points="113.55,163.49 163.71,241.50 213.86,300.42 264.01,342.01 314.16,378.22 364.31,408.57 414.47,430.73 464.62,450.41 514.77,467.02 564.92,481.41 615.08,493.82 665.23,504.70 715.38,514.29 765.53,522.85 815.69,530.55 865.84,537.43 915.99,543.63 966.14,549.34 1016.29,554.49 1066.45,559.25" fill="none" stroke="#17becf" stroke-width="2.5" stroke-dasharray="8 6"/>
<line x1="113.55" y1="179.05" x2="113.55" y2="147.93" stroke="#17becf" stroke-width="1.3"/>
<line x1="108.55" y1="179.05" x2="118.55" y2="179.05" stroke="#17becf" stroke-width="1.3"/>
<line x1="108.55" y1="147.93" x2="118.55" y2="147.93" stroke="#17becf" stroke-width="1.3"/>
<circle cx="113.55" cy="163.49" r="4" fill="#17becf" stroke="#ffffff" stroke-width="1"/>
<line x1="163.71" y1="247.45" x2="163.71" y2="235.56" stroke="#17becf" stroke-width="1.3"/>
<line x1="158.71" y1="247.45" x2="168.71" y2="247.45" stroke="#17becf" stroke-width="1.3"/>
<line x1="158.71" y1="235.56" x2="168.71" y2="235.56" stroke="#17becf" stroke-width="1.3"/>
<circle cx="163.71" cy="241.50" r="4" fill="#17becf" stroke="#ffffff" stroke-width="1"/>
<line x1="213.86" y1="302.24" x2="213.86" y2="298.60" stroke="#17becf" stroke-width="1.3"/>
<line x1="208.86" y1="302.24" x2="218.86" y2="302.24" stroke="#17becf" stroke-width="1.3"/>
<line x1="208.86" y1="298.60" x2="218.86" y2="298.60" stroke="#17becf" stroke-width="1.3"/>
<circle cx="213.86" cy="300.42" r="4" fill="#17becf" stroke="#ffffff" stroke-width="1"/>
<line x1="264.01" y1="342.01" x2="264.01" y2="342.00" stroke="#17becf" stroke-width="1.3"/>
<line x1="259.01" y1="342.01" x2="269.01" y2="342.01" stroke="#17becf" stroke-width="1.3"/>
<line x1="259.01" y1="342.00" x2="269.01" y2="342.00" stroke="#17becf" stroke-width="1.3"/>
<circle cx="264.01" cy="342.01" r="4" fill="#17becf" stroke="#ffffff" stroke-width="1"/>
<line x1="314.16" y1="378.48" x2="314.16" y2="377.96" stroke="#17becf" stroke-width="1.3"/>
<line x1="309.16" y1="378.48" x2="319.16" y2="378.48" stroke="#17becf" stroke-width="1.3"/>
<line x1="309.16" y1="377.96" x2="319.16" y2="377.96" stroke="#17becf" stroke-width="1.3"/>
<circle cx="314.16" cy="378.22" r="4" fill="#17becf" stroke="#ffffff" stroke-width="1"/>
<line x1="364.31" y1="410.70" x2="364.31" y2="406.43" stroke="#17becf" stroke-width="1.3"/>
<line x1="359.31" y1="410.70" x2="369.31" y2="410.70" stroke="#17becf" stroke-width="1.3"/>
<line x1="359.31" y1="406.43" x2="369.31" y2="406.43" stroke="#17becf" stroke-width="1.3"/>
<circle cx="364.31" cy="408.57" r="4" fill="#17becf" stroke="#ffffff" stroke-width="1"/>
<line x1="414.47" y1="430.88" x2="414.47" y2="430.58" stroke="#17becf" stroke-width="1.3"/>
<line x1="409.47" y1="430.88" x2="419.47" y2="430.88" stroke="#17becf" stroke-width="1.3"/>
<line x1="409.47" y1="430.58" x2="419.47" y2="430.58" stroke="#17becf" stroke-width="1.3"/>
<circle cx="414.47" cy="430.73" r="4" fill="#17becf" stroke="#ffffff" stroke-width="1"/>
<line x1="464.62" y1="450.69" x2="464.62" y2="450.13" stroke="#17becf" stroke-width="1.3"/>
<line x1="459.62" y1="450.69" x2="469.62" y2="450.69" stroke="#17becf" stroke-width="1.3"/>
<line x1="459.62" y1="450.13" x2="469.62" y2="450.13" stroke="#17becf" stroke-width="1.3"/>
<circle cx="464.62" cy="450.41" r="4" fill="#17becf" stroke="#ffffff" stroke-width="1"/>
<line x1="514.77" y1="467.17" x2="514.77" y2="466.88" stroke="#17becf" stroke-width="1.3"/>
<line x1="509.77" y1="467.17" x2="519.77" y2="467.17" stroke="#17becf" stroke-width="1.3"/>
<line x1="509.77" y1="466.88" x2="519.77" y2="466.88" stroke="#17becf" stroke-width="1.3"/>
<circle cx="514.77" cy="467.02" r="4" fill="#17becf" stroke="#ffffff" stroke-width="1"/>
<line x1="564.92" y1="481.41" x2="564.92" y2="481.41" stroke="#17becf" stroke-width="1.3"/>
<line x1="559.92" y1="481.41" x2="569.92" y2="481.41" stroke="#17becf" stroke-width="1.3"/>
<line x1="559.92" y1="481.41" x2="569.92" y2="481.41" stroke="#17becf" stroke-width="1.3"/>
<circle cx="564.92" cy="481.41" r="4" fill="#17becf" stroke="#ffffff" stroke-width="1"/>
<line x1="615.08" y1="493.82" x2="615.08" y2="493.82" stroke="#17becf" stroke-width="1.3"/>
<line x1="610.08" y1="493.82" x2="620.08" y2="493.82" stroke="#17becf" stroke-width="1.3"/>
<line x1="610.08" y1="493.82" x2="620.08" y2="493.82" stroke="#17becf" stroke-width="1.3"/>
<circle cx="615.08" cy="493.82" r="4" fill="#17becf" stroke="#ffffff" stroke-width="1"/>
<line x1="665.23" y1="504.71" x2="665.23" y2="504.68" stroke="#17becf" stroke-width="1.3"/>
<line x1="660.23" y1="504.71" x2="670.23" y2="504.71" stroke="#17becf" stroke-width="1.3"/>
<line x1="660.23" y1="504.68" x2="670.23" y2="504.68" stroke="#17becf" stroke-width="1.3"/>
<circle cx="665.23" cy="504.70" r="4" fill="#17becf" stroke="#ffffff" stroke-width="1"/>
<line x1="715.38" y1="514.30" x2="715.38" y2="514.28" stroke="#17becf" stroke-width="1.3"/>
<line x1="710.38" y1="514.30" x2="720.38" y2="514.30" stroke="#17becf" stroke-width="1.3"/>
<line x1="710.38" y1="514.28" x2="720.38" y2="514.28" stroke="#17becf" stroke-width="1.3"/>
<circle cx="715.38" cy="514.29" r="4" fill="#17becf" stroke="#ffffff" stroke-width="1"/>
<line x1="765.53" y1="522.87" x2="765.53" y2="522.83" stroke="#17becf" stroke-width="1.3"/>
<line x1="760.53" y1="522.87" x2="770.53" y2="522.87" stroke="#17becf" stroke-width="1.3"/>
<line x1="760.53" y1="522.83" x2="770.53" y2="522.83" stroke="#17becf" stroke-width="1.3"/>
<circle cx="765.53" cy="522.85" r="4" fill="#17becf" stroke="#ffffff" stroke-width="1"/>
<line x1="815.69" y1="530.58" x2="815.69" y2="530.51" stroke="#17becf" stroke-width="1.3"/>
<line x1="810.69" y1="530.58" x2="820.69" y2="530.58" stroke="#17becf" stroke-width="1.3"/>
<line x1="810.69" y1="530.51" x2="820.69" y2="530.51" stroke="#17becf" stroke-width="1.3"/>
<circle cx="815.69" cy="530.55" r="4" fill="#17becf" stroke="#ffffff" stroke-width="1"/>
<line x1="865.84" y1="537.47" x2="865.84" y2="537.40" stroke="#17becf" stroke-width="1.3"/>
<line x1="860.84" y1="537.47" x2="870.84" y2="537.47" stroke="#17becf" stroke-width="1.3"/>
<line x1="860.84" y1="537.40" x2="870.84" y2="537.40" stroke="#17becf" stroke-width="1.3"/>
<circle cx="865.84" cy="537.43" r="4" fill="#17becf" stroke="#ffffff" stroke-width="1"/>
<line x1="915.99" y1="543.71" x2="915.99" y2="543.56" stroke="#17becf" stroke-width="1.3"/>
<line x1="910.99" y1="543.71" x2="920.99" y2="543.71" stroke="#17becf" stroke-width="1.3"/>
<line x1="910.99" y1="543.56" x2="920.99" y2="543.56" stroke="#17becf" stroke-width="1.3"/>
<circle cx="915.99" cy="543.63" r="4" fill="#17becf" stroke="#ffffff" stroke-width="1"/>
<line x1="966.14" y1="549.35" x2="966.14" y2="549.33" stroke="#17becf" stroke-width="1.3"/>
<line x1="961.14" y1="549.35" x2="971.14" y2="549.35" stroke="#17becf" stroke-width="1.3"/>
<line x1="961.14" y1="549.33" x2="971.14" y2="549.33" stroke="#17becf" stroke-width="1.3"/>
<circle cx="966.14" cy="549.34" r="4" fill="#17becf" stroke="#ffffff" stroke-width="1"/>
<line x1="1016.29" y1="554.59" x2="1016.29" y2="554.40" stroke="#17becf" stroke-width="1.3"/>
<line x1="1011.29" y1="554.59" x2="1021.29" y2="554.59" stroke="#17becf" stroke-width="1.3"/>
<line x1="1011.29" y1="554.40" x2="1021.29" y2="554.40" stroke="#17becf" stroke-width="1.3"/>
<circle cx="1016.29" cy="554.49" r="4" fill="#17becf" stroke="#ffffff" stroke-width="1"/>
<line x1="1066.45" y1="559.30" x2="1066.45" y2="559.19" stroke="#17becf" stroke-width="1.3"/>
<line x1="1061.45" y1="559.30" x2="1071.45" y2="559.30" stroke="#17becf" stroke-width="1.3"/>
<line x1="1061.45" y1="559.19" x2="1071.45" y2="559.19" stroke="#17becf" stroke-width="1.3"/>
<circle cx="1066.45" cy="559.25" r="4" fill="#17becf" stroke="#ffffff" stroke-width="1"/>
<polyline points="113.55,147.63 163.71,233.91 213.86,295.65 264.01,342.01 314.16,378.11 364.31,407.00 414.47,430.66 464.62,450.39 514.77,467.09 564.92,481.41 615.08,493.82 665.23,504.69 715.38,514.28 765.53,522.80 815.69,530.43 865.84,537.30 915.99,543.51 966.14,549.16 1016.29,554.32 1066.45,559.05" fill="none" stroke="#111111" stroke-width="2.5" stroke-dasharray="8 6"/>
<circle cx="113.55" cy="147.63" r="4" fill="#111111" stroke="#ffffff" stroke-width="1"/>
<circle cx="163.71" cy="233.91" r="4" fill="#111111" stroke="#ffffff" stroke-width="1"/>
<circle cx="213.86" cy="295.65" r="4" fill="#111111" stroke="#ffffff" stroke-width="1"/>
<circle cx="264.01" cy="342.01" r="4" fill="#111111" stroke="#ffffff" stroke-width="1"/>
<circle cx="314.16" cy="378.11" r="4" fill="#111111" stroke="#ffffff" stroke-width="1"/>
<circle cx="364.31" cy="407.00" r="4" fill="#111111" stroke="#ffffff" stroke-width="1"/>
<circle cx="414.47" cy="430.66" r="4" fill="#111111" stroke="#ffffff" stroke-width="1"/>
<circle cx="464.62" cy="450.39" r="4" fill="#111111" stroke="#ffffff" stroke-width="1"/>
<circle cx="514.77" cy="467.09" r="4" fill="#111111" stroke="#ffffff" stroke-width="1"/>
<circle cx="564.92" cy="481.41" r="4" fill="#111111" stroke="#ffffff" stroke-width="1"/>
<circle cx="615.08" cy="493.82" r="4" fill="#111111" stroke="#ffffff" stroke-width="1"/>
<circle cx="665.23" cy="504.69" r="4" fill="#111111" stroke="#ffffff" stroke-width="1"/>
<circle cx="715.38" cy="514.28" r="4" fill="#111111" stroke="#ffffff" stroke-width="1"/>
<circle cx="765.53" cy="522.80" r="4" fill="#111111" stroke="#ffffff" stroke-width="1"/>
<circle cx="815.69" cy="530.43" r="4" fill="#111111" stroke="#ffffff" stroke-width="1"/>
<circle cx="865.84" cy="537.30" r="4" fill="#111111" stroke="#ffffff" stroke-width="1"/>
<circle cx="915.99" cy="543.51" r="4" fill="#111111" stroke="#ffffff" stroke-width="1"/>
<circle cx="966.14" cy="549.16" r="4" fill="#111111" stroke="#ffffff" stroke-width="1"/>
<circle cx="1016.29" cy="554.32" r="4" fill="#111111" stroke="#ffffff" stroke-width="1"/>
<circle cx="1066.45" cy="559.05" r="4" fill="#111111" stroke="#ffffff" stroke-width="1"/>
</svg>
