<svg xmlns="http://www.w3.org/2000/svg" width="1120" height="760" viewBox="0 0 1120 760">
<rect width="100%" height="100%" fill="#fbfbf8"/>
<text x="560.0" y="34" text-anchor="middle" font-family="sans-serif" font-size="24" fill="#222">RTT entre NIC y Corundum vs. payload</text>
<rect x="96" y="106" width="988" height="562" fill="#ffffff" stroke="#c9c9c1"/>
<line x1="96" y1="106.00" x2="1084" y2="106.00" stroke="#a9aba3" stroke-width="1.35"/>
<text x="86" y="110.00" text-anchor="end" font-family="sans-serif" font-size="13" font-weight="400" fill="#292925">0.0931</text>
<line x1="96" y1="199.67" x2="1084" y2="199.67" stroke="#a9aba3" stroke-width="1.35"/>
<text x="86" y="203.67" text-anchor="end" font-family="sans-serif" font-size="13" font-weight="400" fill="#292925">0.0776</text>
<line x1="96" y1="293.33" x2="1084" y2="293.33" stroke="#a9aba3" stroke-width="1.35"/>
<text x="86" y="297.33" text-anchor="end" font-family="sans-serif" font-size="13" font-weight="400" fill="#292925">0.0621</text>
<line x1="96" y1="387.00" x2="1084" y2="387.00" stroke="#a9aba3" stroke-width="1.35"/>
<text x="86" y="391.00" text-anchor="end" font-family="sans-serif" font-size="13" font-weight="400" fill="#292925">0.0466</text>
<line x1="96" y1="480.67" x2="1084" y2="480.67" stroke="#a9aba3" stroke-width="1.35"/>
<text x="86" y="484.67" text-anchor="end" font-family="sans-serif" font-size="13" font-weight="400" fill="#292925">0.031</text>
<line x1="96" y1="574.33" x2="1084" y2="574.33" stroke="#a9aba3" stroke-width="1.35"/>
<text x="86" y="578.33" text-anchor="end" font-family="sans-serif" font-size="13" font-weight="400" fill="#292925">0.0155</text>
<line x1="96" y1="668.00" x2="1084" y2="668.00" stroke="#4f504b" stroke-width="2.2"/>
<text x="86" y="672.00" text-anchor="end" font-family="sans-serif" font-size="13" font-weight="600" fill="#292925">0</text>
<line x1="113.55" y1="106" x2="113.55" y2="668" stroke="#b4b6ae" stroke-width="1.25"/>
<text transform="translate(113.55 688) rotate(-45)" text-anchor="end" font-family="sans-serif" font-size="11" font-weight="500" fill="#292925">256</text>
<line x1="163.71" y1="106" x2="163.71" y2="668" stroke="#b4b6ae" stroke-width="1.25"/>
<text transform="translate(163.71 688) rotate(-45)" text-anchor="end" font-family="sans-serif" font-size="11" font-weight="500" fill="#292925">320</text>
<line x1="213.86" y1="106" x2="213.86" y2="668" stroke="#b4b6ae" stroke-width="1.25"/>
<text transform="translate(213.86 688) rotate(-45)" text-anchor="end" font-family="sans-serif" font-size="11" font-weight="500" fill="#292925">384</text>
<line x1="264.01" y1="106" x2="264.01" y2="668" stroke="#b4b6ae" stroke-width="1.25"/>
<text transform="translate(264.01 688) rotate(-45)" text-anchor="end" font-family="sans-serif" font-size="11" font-weight="500" fill="#292925">448</text>
<line x1="314.16" y1="106" x2="314.16" y2="668" stroke="#b4b6ae" stroke-width="1.25"/>
<text transform="translate(314.16 688) rotate(-45)" text-anchor="end" font-family="sans-serif" font-size="11" font-weight="500" fill="#292925">512</text>
<line x1="364.31" y1="106" x2="364.31" y2="668" stroke="#b4b6ae" stroke-width="1.25"/>
<text transform="translate(364.31 688) rotate(-45)" text-anchor="end" font-family="sans-serif" font-size="11" font-weight="500" fill="#292925">576</text>
<line x1="414.47" y1="106" x2="414.47" y2="668" stroke="#b4b6ae" stroke-width="1.25"/>
<text transform="translate(414.47 688) rotate(-45)" text-anchor="end" font-family="sans-serif" font-size="11" font-weight="500" fill="#292925">640</text>
<line x1="464.62" y1="106" x2="464.62" y2="668" stroke="#b4b6ae" stroke-width="1.25"/>
<text transform="translate(464.62 688) rotate(-45)" text-anchor="end" font-family="sans-serif" font-size="11" font-weight="500" fill="#292925">704</text>
<line x1="514.77" y1="106" x2="514.77" y2="668" stroke="#b4b6ae" stroke-width="1.25"/>
<text transform="translate(514.77 688) rotate(-45)" text-anchor="end" font-family="sans-serif" font-size="11" font-weight="500" fill="#292925">768</text>
<line x1="564.92" y1="106" x2="564.92" y2="668" stroke="#b4b6ae" stroke-width="1.25"/>
<text transform="translate(564.92 688) rotate(-45)" text-anchor="end" font-family="sans-serif" font-size="11" font-weight="500" fill="#292925">832</text>
<line x1="615.08" y1="106" x2="615.08" y2="668" stroke="#b4b6ae" stroke-width="1.25"/>
<text transform="translate(615.08 688) rotate(-45)" text-anchor="end" font-family="sans-serif" font-size="11" font-weight="500" fill="#292925">896</text>
<line x1="665.23" y1="106" x2="665.23" y2="668" stroke="#b4b6ae" stroke-width="1.25"/>
<text transform="translate(665.23 688) rotate(-45)" text-anchor="end" font-family="sans-serif" font-size="11" font-weight="500" fill="#292925">960</text>
<line x1="715.38" y1="106" x2="715.38" y2="668" stroke="#b4b6ae" stroke-width="1.25"/>
<text transform="translate(715.38 688) rotate(-45)" text-anchor="end" font-family="sans-serif" font-size="11" font-weight="500" fill="#292925">1024</text>
<line x1="765.53" y1="106" x2="765.53" y2="668" stroke="#b4b6ae" stroke-width="1.25"/>
<text transform="translate(765.53 688) rotate(-45)" text-anchor="end" font-family="sans-serif" font-size="11" font-weight="500" fill="#292925">1088</text>
<line x1="815.69" y1="106" x2="815.69" y2="668" stroke="#b4b6ae" stroke-width="1.25"/>
<text transform="translate(815.69 688) rotate(-45)" text-anchor="end" font-family="sans-serif" font-size="11" font-weight="500" fill="#292925">1152</text>
<line x1="865.84" y1="106" x2="865.84" y2="668" stroke="#b4b6ae" stroke-width="1.25"/>
<text transform="translate(865.84 688) rotate(-45)" text-anchor="end" font-family="sans-serif" font-size="11" font-weight="500" fill="#292925">1216</text>
<line x1="915.99" y1="106" x2="915.99" y2="668" stroke="#b4b6ae" stroke-width="1.25"/>
<text transform="translate(915.99 688) rotate(-45)" text-anchor="end" font-family="sans-serif" font-size="11" font-weight="500" fill="#292925">1280</text>
<line x1="966.14" y1="106" x2="966.14" y2="668" stroke="#b4b6ae" stroke-width="1.25"/>
<text transform="translate(966.14 688) rotate(-45)" text-anchor="end" font-family="sans-serif" font-size="11" font-weight="500" fill="#292925">1344</text>
<line x1="1016.29" y1="106" x2="1016.29" y2="668" stroke="#b4b6ae" stroke-width="1.25"/>
<text transform="translate(1016.29 688) rotate(-45)" text-anchor="end" font-family="sans-serif" font-size="11" font-weight="500" fill="#292925">1408</text>
<line x1="1066.45" y1="106" x2="1066.45" y2="668" stroke="#b4b6ae" stroke-width="1.25"/>
<text transform="translate(1066.45 688) rotate(-45)" text-anchor="end" font-family="sans-serif" font-size="11" font-weight="500" fill="#292925">1472</text>
<text x="590.0" y="736" text-anchor="middle" font-family="sans-serif" font-size="17" font-weight="600" fill="#171715">Tamaño del payload (bytes)</text>
<text transform="translate(24 387.0) rotate(-90)" text-anchor="middle" font-family="sans-serif" font-size="17" font-weight="600" fill="#171715">RTT promedio (ms)</text>
<line x1="96.0" y1="64" x2="122.0" y2="64" stroke="#1f77b4" stroke-width="3"/>
<text x="130.0" y="68" font-family="sans-serif" font-size="13" fill="#222">NIC a Corundum</text>
<line x1="590.0" y1="64" x2="616.0" y2="64" stroke="#ff7f0e" stroke-width="3" stroke-dasharray="8 6"/>
<text x="624.0" y="68" font-family="sans-serif" font-size="13" fill="#222">Corundum a NIC</text>
<polyline points="113.55,366.31 163.71,319.25 213.86,299.94 264.01,278.22 314.16,273.39 364.31,272.18 414.47,256.50 464.62,256.50 514.77,238.39 564.92,283.04 615.08,269.77 665.23,245.64 715.38,237.19 765.53,246.84 815.69,216.67 865.84,193.74 915.99,249.26 966.14,239.60 1016.29,244.43 1066.45,232.36" fill="none" stroke="#1f77b4" stroke-width="2.5"/>
<line x1="113.55" y1="391.19" x2="113.55" y2="341.43" stroke="#1f77b4" stroke-width="1.3"/>
<line x1="108.55" y1="391.19" x2="118.55" y2="391.19" stroke="#1f77b4" stroke-width="1.3"/>
<line x1="108.55" y1="341.43" x2="118.55" y2="341.43" stroke="#1f77b4" stroke-width="1.3"/>
<circle cx="113.55" cy="366.31" r="4" fill="#1f77b4" stroke="#ffffff" stroke-width="1"/>
<line x1="163.71" y1="334.27" x2="163.71" y2="304.22" stroke="#1f77b4" stroke-width="1.3"/>
<line x1="158.71" y1="334.27" x2="168.71" y2="334.27" stroke="#1f77b4" stroke-width="1.3"/>
<line x1="158.71" y1="304.22" x2="168.71" y2="304.22" stroke="#1f77b4" stroke-width="1.3"/>
<circle cx="163.71" cy="319.25" r="4" fill="#1f77b4" stroke="#ffffff" stroke-width="1"/>
<line x1="213.86" y1="309.48" x2="213.86" y2="290.40" stroke="#1f77b4" stroke-width="1.3"/>
<line x1="208.86" y1="309.48" x2="218.86" y2="309.48" stroke="#1f77b4" stroke-width="1.3"/>
<line x1="208.86" y1="290.40" x2="218.86" y2="290.40" stroke="#1f77b4" stroke-width="1.3"/>
<circle cx="213.86" cy="299.94" r="4" fill="#1f77b4" stroke="#ffffff" stroke-width="1"/>
<line x1="264.01" y1="292.11" x2="264.01" y2="264.33" stroke="#1f77b4" stroke-width="1.3"/>
<line x1="259.01" y1="292.11" x2="269.01" y2="292.11" stroke="#1f77b4" stroke-width="1.3"/>
<line x1="259.01" y1="264.33" x2="269.01" y2="264.33" stroke="#1f77b4" stroke-width="1.3"/>
<circle cx="264.01" cy="278.22" r="4" fill="#1f77b4" stroke="#ffffff" stroke-width="1"/>
<line x1="314.16" y1="294.98" x2="314.16" y2="251.80" stroke="#1f77b4" stroke-width="1.3"/>
<line x1="309.16" y1="294.98" x2="319.16" y2="294.98" stroke="#1f77b4" stroke-width="1.3"/>
<line x1="309.16" y1="251.80" x2="319.16" y2="251.80" stroke="#1f77b4" stroke-width="1.3"/>
<circle cx="314.16" cy="273.39" r="4" fill="#1f77b4" stroke="#ffffff" stroke-width="1"/>
<line x1="364.31" y1="281.33" x2="364.31" y2="263.03" stroke="#1f77b4" stroke-width="1.3"/>
<line x1="359.31" y1="281.33" x2="369.31" y2="281.33" stroke="#1f77b4" stroke-width="1.3"/>
<line x1="359.31" y1="263.03" x2="369.31" y2="263.03" stroke="#1f77b4" stroke-width="1.3"/>
<circle cx="364.31" cy="272.18" r="4" fill="#1f77b4" stroke="#ffffff" stroke-width="1"/>
<line x1="414.47" y1="286.48" x2="414.47" y2="226.51" stroke="#1f77b4" stroke-width="1.3"/>
<line x1="409.47" y1="286.48" x2="419.47" y2="286.48" stroke="#1f77b4" stroke-width="1.3"/>
<line x1="409.47" y1="226.51" x2="419.47" y2="226.51" stroke="#1f77b4" stroke-width="1.3"/>
<circle cx="414.47" cy="256.50" r="4" fill="#1f77b4" stroke="#ffffff" stroke-width="1"/>
<line x1="464.62" y1="271.52" x2="464.62" y2="241.47" stroke="#1f77b4" stroke-width="1.3"/>
<line x1="459.62" y1="271.52" x2="469.62" y2="271.52" stroke="#1f77b4" stroke-width="1.3"/>
<line x1="459.62" y1="241.47" x2="469.62" y2="241.47" stroke="#1f77b4" stroke-width="1.3"/>
<circle cx="464.62" cy="256.50" r="4" fill="#1f77b4" stroke="#ffffff" stroke-width="1"/>
<line x1="514.77" y1="301.16" x2="514.77" y2="175.63" stroke="#1f77b4" stroke-width="1.3"/>
<line x1="509.77" y1="301.16" x2="519.77" y2="301.16" stroke="#1f77b4" stroke-width="1.3"/>
<line x1="509.77" y1="175.63" x2="519.77" y2="175.63" stroke="#1f77b4" stroke-width="1.3"/>
<circle cx="514.77" cy="238.39" r="4" fill="#1f77b4" stroke="#ffffff" stroke-width="1"/>
<line x1="564.92" y1="294.65" x2="564.92" y2="271.44" stroke="#1f77b4" stroke-width="1.3"/>
<line x1="559.92" y1="294.65" x2="569.92" y2="294.65" stroke="#1f77b4" stroke-width="1.3"/>
<line x1="559.92" y1="271.44" x2="569.92" y2="271.44" stroke="#1f77b4" stroke-width="1.3"/>
<circle cx="564.92" cy="283.04" r="4" fill="#1f77b4" stroke="#ffffff" stroke-width="1"/>
<line x1="615.08" y1="294.28" x2="615.08" y2="245.26" stroke="#1f77b4" stroke-width="1.3"/>
<line x1="610.08" y1="294.28" x2="620.08" y2="294.28" stroke="#1f77b4" stroke-width="1.3"/>
<line x1="610.08" y1="245.26" x2="620.08" y2="245.26" stroke="#1f77b4" stroke-width="1.3"/>
<circle cx="615.08" cy="269.77" r="4" fill="#1f77b4" stroke="#ffffff" stroke-width="1"/>
<line x1="665.23" y1="284.51" x2="665.23" y2="206.77" stroke="#1f77b4" stroke-width="1.3"/>
<line x1="660.23" y1="284.51" x2="670.23" y2="284.51" stroke="#1f77b4" stroke-width="1.3"/>
<line x1="660.23" y1="206.77" x2="670.23" y2="206.77" stroke="#1f77b4" stroke-width="1.3"/>
<circle cx="665.23" cy="245.64" r="4" fill="#1f77b4" stroke="#ffffff" stroke-width="1"/>
<line x1="715.38" y1="281.65" x2="715.38" y2="192.73" stroke="#1f77b4" stroke-width="1.3"/>
<line x1="710.38" y1="281.65" x2="720.38" y2="281.65" stroke="#1f77b4" stroke-width="1.3"/>
<line x1="710.38" y1="192.73" x2="720.38" y2="192.73" stroke="#1f77b4" stroke-width="1.3"/>
<circle cx="715.38" cy="237.19" r="4" fill="#1f77b4" stroke="#ffffff" stroke-width="1"/>
<line x1="765.53" y1="308.88" x2="765.53" y2="184.81" stroke="#1f77b4" stroke-width="1.3"/>
<line x1="760.53" y1="308.88" x2="770.53" y2="308.88" stroke="#1f77b4" stroke-width="1.3"/>
<line x1="760.53" y1="184.81" x2="770.53" y2="184.81" stroke="#1f77b4" stroke-width="1.3"/>
<circle cx="765.53" cy="246.84" r="4" fill="#1f77b4" stroke="#ffffff" stroke-width="1"/>
<line x1="815.69" y1="268.30" x2="815.69" y2="165.05" stroke="#1f77b4" stroke-width="1.3"/>
<line x1="810.69" y1="268.30" x2="820.69" y2="268.30" stroke="#1f77b4" stroke-width="1.3"/>
<line x1="810.69" y1="165.05" x2="820.69" y2="165.05" stroke="#1f77b4" stroke-width="1.3"/>
<circle cx="815.69" cy="216.67" r="4" fill="#1f77b4" stroke="#ffffff" stroke-width="1"/>
<line x1="865.84" y1="238.21" x2="865.84" y2="149.28" stroke="#1f77b4" stroke-width="1.3"/>
<line x1="860.84" y1="238.21" x2="870.84" y2="238.21" stroke="#1f77b4" stroke-width="1.3"/>
<line x1="860.84" y1="149.28" x2="870.84" y2="149.28" stroke="#1f77b4" stroke-width="1.3"/>
<circle cx="865.84" cy="193.74" r="4" fill="#1f77b4" stroke="#ffffff" stroke-width="1"/>
<line x1="915.99" y1="313.05" x2="915.99" y2="185.46" stroke="#1f77b4" stroke-width="1.3"/>
<line x1="910.99" y1="313.05" x2="920.99" y2="313.05" stroke="#1f77b4" stroke-width="1.3"/>
<line x1="910.99" y1="185.46" x2="920.99" y2="185.46" stroke="#1f77b4" stroke-width="1.3"/>
<circle cx="915.99" cy="249.26" r="4" fill="#1f77b4" stroke="#ffffff" stroke-width="1"/>
<line x1="966.14" y1="295.39" x2="966.14" y2="183.81" stroke="#1f77b4" stroke-width="1.3"/>
<line x1="961.14" y1="295.39" x2="971.14" y2="295.39" stroke="#1f77b4" stroke-width="1.3"/>
<line x1="961.14" y1="183.81" x2="971.14" y2="183.81" stroke="#1f77b4" stroke-width="1.3"/>
<circle cx="966.14" cy="239.60" r="4" fill="#1f77b4" stroke="#ffffff" stroke-width="1"/>
<line x1="1016.29" y1="302.52" x2="1016.29" y2="186.33" stroke="#1f77b4" stroke-width="1.3"/>
<line x1="1011.29" y1="302.52" x2="1021.29" y2="302.52" stroke="#1f77b4" stroke-width="1.3"/>
<line x1="1011.29" y1="186.33" x2="1021.29" y2="186.33" stroke="#1f77b4" stroke-width="1.3"/>
<circle cx="1016.29" cy="244.43" r="4" fill="#1f77b4" stroke="#ffffff" stroke-width="1"/>
<line x1="1066.45" y1="317.09" x2="1066.45" y2="147.63" stroke="#1f77b4" stroke-width="1.3"/>
<line x1="1061.45" y1="317.09" x2="1071.45" y2="317.09" stroke="#1f77b4" stroke-width="1.3"/>
<line x1="1061.45" y1="147.63" x2="1071.45" y2="147.63" stroke="#1f77b4" stroke-width="1.3"/>
<circle cx="1066.45" cy="232.36" r="4" fill="#1f77b4" stroke="#ffffff" stroke-width="1"/>
<polyline points="113.55,379.59 163.71,337.35 213.86,299.94 264.01,301.15 314.16,299.94 364.31,296.32 414.47,293.91 464.62,297.53 514.77,293.91 564.92,293.91 615.08,293.91 665.23,293.91 715.38,291.49 765.53,287.87 815.69,290.29 865.84,289.08 915.99,322.87 966.14,309.59 1016.29,305.97 1066.45,304.77" fill="none" stroke="#ff7f0e" stroke-width="2.5" stroke-dasharray="8 6"/>
<line x1="113.55" y1="382.28" x2="113.55" y2="376.89" stroke="#ff7f0e" stroke-width="1.3"/>
<line x1="108.55" y1="382.28" x2="118.55" y2="382.28" stroke="#ff7f0e" stroke-width="1.3"/>
<line x1="108.55" y1="376.89" x2="118.55" y2="376.89" stroke="#ff7f0e" stroke-width="1.3"/>
<circle cx="113.55" cy="379.59" r="4" fill="#ff7f0e" stroke="#ffffff" stroke-width="1"/>
<line x1="163.71" y1="345.22" x2="163.71" y2="329.48" stroke="#ff7f0e" stroke-width="1.3"/>
<line x1="158.71" y1="345.22" x2="168.71" y2="345.22" stroke="#ff7f0e" stroke-width="1.3"/>
<line x1="158.71" y1="329.48" x2="168.71" y2="329.48" stroke="#ff7f0e" stroke-width="1.3"/>
<circle cx="163.71" cy="337.35" r="4" fill="#ff7f0e" stroke="#ffffff" stroke-width="1"/>
<circle cx="213.86" cy="299.94" r="4" fill="#ff7f0e" stroke="#ffffff" stroke-width="1"/>
<line x1="264.01" y1="303.84" x2="264.01" y2="298.45" stroke="#ff7f0e" stroke-width="1.3"/>
<line x1="259.01" y1="303.84" x2="269.01" y2="303.84" stroke="#ff7f0e" stroke-width="1.3"/>
<line x1="259.01" y1="298.45" x2="269.01" y2="298.45" stroke="#ff7f0e" stroke-width="1.3"/>
<circle cx="264.01" cy="301.15" r="4" fill="#ff7f0e" stroke="#ffffff" stroke-width="1"/>
<circle cx="314.16" cy="299.94" r="4" fill="#ff7f0e" stroke="#ffffff" stroke-width="1"/>
<line x1="364.31" y1="299.62" x2="364.31" y2="293.01" stroke="#ff7f0e" stroke-width="1.3"/>
<line x1="359.31" y1="299.62" x2="369.31" y2="299.62" stroke="#ff7f0e" stroke-width="1.3"/>
<line x1="359.31" y1="293.01" x2="369.31" y2="293.01" stroke="#ff7f0e" stroke-width="1.3"/>
<circle cx="364.31" cy="296.32" r="4" fill="#ff7f0e" stroke="#ffffff" stroke-width="1"/>
<circle cx="414.47" cy="293.91" r="4" fill="#ff7f0e" stroke="#ffffff" stroke-width="1"/>
<line x1="464.62" y1="300.83" x2="464.62" y2="294.22" stroke="#ff7f0e" stroke-width="1.3"/>
<line x1="459.62" y1="300.83" x2="469.62" y2="300.83" stroke="#ff7f0e" stroke-width="1.3"/>
<line x1="459.62" y1="294.22" x2="469.62" y2="294.22" stroke="#ff7f0e" stroke-width="1.3"/>
<circle cx="464.62" cy="297.53" r="4" fill="#ff7f0e" stroke="#ffffff" stroke-width="1"/>
<circle cx="514.77" cy="293.91" r="4" fill="#ff7f0e" stroke="#ffffff" stroke-width="1"/>
<circle cx="564.92" cy="293.91" r="4" fill="#ff7f0e" stroke="#ffffff" stroke-width="1"/>
<circle cx="615.08" cy="293.91" r="4" fill="#ff7f0e" stroke="#ffffff" stroke-width="1"/>
<circle cx="665.23" cy="293.91" r="4" fill="#ff7f0e" stroke="#ffffff" stroke-width="1"/>
<line x1="715.38" y1="296.89" x2="715.38" y2="286.10" stroke="#ff7f0e" stroke-width="1.3"/>
<line x1="710.38" y1="296.89" x2="720.38" y2="296.89" stroke="#ff7f0e" stroke-width="1.3"/>
<line x1="710.38" y1="286.10" x2="720.38" y2="286.10" stroke="#ff7f0e" stroke-width="1.3"/>
<circle cx="715.38" cy="291.49" r="4" fill="#ff7f0e" stroke="#ffffff" stroke-width="1"/>
<circle cx="765.53" cy="287.87" r="4" fill="#ff7f0e" stroke="#ffffff" stroke-width="1"/>
<line x1="815.69" y1="293.59" x2="815.69" y2="286.98" stroke="#ff7f0e" stroke-width="1.3"/>
<line x1="810.69" y1="293.59" x2="820.69" y2="293.59" stroke="#ff7f0e" stroke-width="1.3"/>
<line x1="810.69" y1="286.98" x2="820.69" y2="286.98" stroke="#ff7f0e" stroke-width="1.3"/>
<circle cx="815.69" cy="290.29" r="4" fill="#ff7f0e" stroke="#ffffff" stroke-width="1"/>
<line x1="865.84" y1="291.78" x2="865.84" y2="286.38" stroke="#ff7f0e" stroke-width="1.3"/>
<line x1="860.84" y1="291.78" x2="870.84" y2="291.78" stroke="#ff7f0e" stroke-width="1.3"/>
<line x1="860.84" y1="286.38" x2="870.84" y2="286.38" stroke="#ff7f0e" stroke-width="1.3"/>
<circle cx="865.84" cy="289.08" r="4" fill="#ff7f0e" stroke="#ffffff" stroke-width="1"/>
<line x1="915.99" y1="333.66" x2="915.99" y2="312.07" stroke="#ff7f0e" stroke-width="1.3"/>
<line x1="910.99" y1="333.66" x2="920.99" y2="333.66" stroke="#ff7f0e" stroke-width="1.3"/>
<line x1="910.99" y1="312.07" x2="920.99" y2="312.07" stroke="#ff7f0e" stroke-width="1.3"/>
<circle cx="915.99" cy="322.87" r="4" fill="#ff7f0e" stroke="#ffffff" stroke-width="1"/>
<line x1="966.14" y1="318.74" x2="966.14" y2="300.44" stroke="#ff7f0e" stroke-width="1.3"/>
<line x1="961.14" y1="318.74" x2="971.14" y2="318.74" stroke="#ff7f0e" stroke-width="1.3"/>
<line x1="961.14" y1="300.44" x2="971.14" y2="300.44" stroke="#ff7f0e" stroke-width="1.3"/>
<circle cx="966.14" cy="309.59" r="4" fill="#ff7f0e" stroke="#ffffff" stroke-width="1"/>
<line x1="1016.29" y1="313.36" x2="1016.29" y2="298.58" stroke="#ff7f0e" stroke-width="1.3"/>
<line x1="1011.29" y1="313.36" x2="1021.29" y2="313.36" stroke="#ff7f0e" stroke-width="1.3"/>
<line x1="1011.29" y1="298.58" x2="1021.29" y2="298.58" stroke="#ff7f0e" stroke-width="1.3"/>
<circle cx="1016.29" cy="305.97" r="4" fill="#ff7f0e" stroke="#ffffff" stroke-width="1"/>
<line x1="1066.45" y1="309.81" x2="1066.45" y2="299.72" stroke="#ff7f0e" stroke-width="1.3"/>
<line x1="1061.45" y1="309.81" x2="1071.45" y2="309.81" stroke="#ff7f0e" stroke-width="1.3"/>
<line x1="1061.45" y1="299.72" x2="1071.45" y2="299.72" stroke="#ff7f0e" stroke-width="1.3"/>
<circle cx="1066.45" cy="304.77" r="4" fill="#ff7f0e" stroke="#ffffff" stroke-width="1"/>
</svg>
