<svg xmlns="http://www.w3.org/2000/svg" width="1120" height="680" viewBox="0 0 1120 680">
<rect width="100%" height="100%" fill="#fbfbf8"/>
<text x="560.0" y="34" text-anchor="middle" font-family="sans-serif" font-size="24" fill="#222">Loopback: perdida vs payload</text>
<rect x="96" y="62" width="988" height="532" fill="#ffffff" stroke="#c9c9c1"/>
<line x1="96" y1="62.00" x2="1084" y2="62.00" stroke="#e8e8df"/>
<text x="86" y="66.00" text-anchor="end" font-family="sans-serif" font-size="12" fill="#4a4a45">97.3</text>
<line x1="96.00" y1="62" x2="96.00" y2="594" stroke="#f0f0e8"/>
<text x="96.00" y="618" text-anchor="middle" font-family="sans-serif" font-size="12" fill="#4a4a45">161</text>
<line x1="96" y1="168.40" x2="1084" y2="168.40" stroke="#e8e8df"/>
<text x="86" y="172.40" text-anchor="end" font-family="sans-serif" font-size="12" fill="#4a4a45">76.4</text>
<line x1="293.60" y1="62" x2="293.60" y2="594" stroke="#f0f0e8"/>
<text x="293.60" y="618" text-anchor="middle" font-family="sans-serif" font-size="12" fill="#4a4a45">436</text>
<line x1="96" y1="274.80" x2="1084" y2="274.80" stroke="#e8e8df"/>
<text x="86" y="278.80" text-anchor="end" font-family="sans-serif" font-size="12" fill="#4a4a45">55.5</text>
<line x1="491.20" y1="62" x2="491.20" y2="594" stroke="#f0f0e8"/>
<text x="491.20" y="618" text-anchor="middle" font-family="sans-serif" font-size="12" fill="#4a4a45">711</text>
<line x1="96" y1="381.20" x2="1084" y2="381.20" stroke="#e8e8df"/>
<text x="86" y="385.20" text-anchor="end" font-family="sans-serif" font-size="12" fill="#4a4a45">34.6</text>
<line x1="688.80" y1="62" x2="688.80" y2="594" stroke="#f0f0e8"/>
<text x="688.80" y="618" text-anchor="middle" font-family="sans-serif" font-size="12" fill="#4a4a45">985</text>
<line x1="96" y1="487.60" x2="1084" y2="487.60" stroke="#e8e8df"/>
<text x="86" y="491.60" text-anchor="end" font-family="sans-serif" font-size="12" fill="#4a4a45">13.7</text>
<line x1="886.40" y1="62" x2="886.40" y2="594" stroke="#f0f0e8"/>
<text x="886.40" y="618" text-anchor="middle" font-family="sans-serif" font-size="12" fill="#4a4a45">1260</text>
<line x1="96" y1="594.00" x2="1084" y2="594.00" stroke="#e8e8df"/>
<text x="86" y="598.00" text-anchor="end" font-family="sans-serif" font-size="12" fill="#4a4a45">-7.2</text>
<line x1="1084.00" y1="62" x2="1084.00" y2="594" stroke="#f0f0e8"/>
<text x="1084.00" y="618" text-anchor="middle" font-family="sans-serif" font-size="12" fill="#4a4a45">1535</text>
<text x="590.0" y="656" text-anchor="middle" font-family="sans-serif" font-size="15" fill="#222">Payload size (bytes)</text>
<text transform="translate(26 328.0) rotate(-90)" text-anchor="middle" font-family="sans-serif" font-size="15" fill="#222">Perdida (%)</text>
<line x1="112" y1="82" x2="138" y2="82" stroke="#d62728" stroke-width="3"/>
<text x="146" y="86" font-family="sans-serif" font-size="13" fill="#222">Perdida</text>
<polyline points="164.14,557.29 217.37,557.28 270.60,463.73 323.84,256.76 377.07,276.70 430.30,234.51 483.53,168.47 536.77,155.61 590.00,147.18 643.23,137.26 696.47,130.58 749.70,136.72 802.93,131.22 856.16,115.71 909.40,112.55 962.63,108.98 1015.86,107.44" fill="none" stroke="#d62728" stroke-width="2.5"/>
<line x1="164.14" y1="557.31" x2="164.14" y2="557.28" stroke="#d62728" stroke-width="1.3"/>
<line x1="159.14" y1="557.31" x2="169.14" y2="557.31" stroke="#d62728" stroke-width="1.3"/>
<line x1="159.14" y1="557.28" x2="169.14" y2="557.28" stroke="#d62728" stroke-width="1.3"/>
<circle cx="164.14" cy="557.29" r="4" fill="#d62728" stroke="#ffffff" stroke-width="1"/>
<line x1="217.37" y1="557.30" x2="217.37" y2="557.26" stroke="#d62728" stroke-width="1.3"/>
<line x1="212.37" y1="557.30" x2="222.37" y2="557.30" stroke="#d62728" stroke-width="1.3"/>
<line x1="212.37" y1="557.26" x2="222.37" y2="557.26" stroke="#d62728" stroke-width="1.3"/>
<circle cx="217.37" cy="557.28" r="4" fill="#d62728" stroke="#ffffff" stroke-width="1"/>
<line x1="270.60" y1="522.21" x2="270.60" y2="405.26" stroke="#d62728" stroke-width="1.3"/>
<line x1="265.60" y1="522.21" x2="275.60" y2="522.21" stroke="#d62728" stroke-width="1.3"/>
<line x1="265.60" y1="405.26" x2="275.60" y2="405.26" stroke="#d62728" stroke-width="1.3"/>
<circle cx="270.60" cy="463.73" r="4" fill="#d62728" stroke="#ffffff" stroke-width="1"/>
<line x1="323.84" y1="311.25" x2="323.84" y2="202.27" stroke="#d62728" stroke-width="1.3"/>
<line x1="318.84" y1="311.25" x2="328.84" y2="311.25" stroke="#d62728" stroke-width="1.3"/>
<line x1="318.84" y1="202.27" x2="328.84" y2="202.27" stroke="#d62728" stroke-width="1.3"/>
<circle cx="323.84" cy="256.76" r="4" fill="#d62728" stroke="#ffffff" stroke-width="1"/>
<line x1="377.07" y1="434.04" x2="377.07" y2="119.36" stroke="#d62728" stroke-width="1.3"/>
<line x1="372.07" y1="434.04" x2="382.07" y2="434.04" stroke="#d62728" stroke-width="1.3"/>
<line x1="372.07" y1="119.36" x2="382.07" y2="119.36" stroke="#d62728" stroke-width="1.3"/>
<circle cx="377.07" cy="276.70" r="4" fill="#d62728" stroke="#ffffff" stroke-width="1"/>
<line x1="430.30" y1="333.98" x2="430.30" y2="135.04" stroke="#d62728" stroke-width="1.3"/>
<line x1="425.30" y1="333.98" x2="435.30" y2="333.98" stroke="#d62728" stroke-width="1.3"/>
<line x1="425.30" y1="135.04" x2="435.30" y2="135.04" stroke="#d62728" stroke-width="1.3"/>
<circle cx="430.30" cy="234.51" r="4" fill="#d62728" stroke="#ffffff" stroke-width="1"/>
<line x1="483.53" y1="184.10" x2="483.53" y2="152.85" stroke="#d62728" stroke-width="1.3"/>
<line x1="478.53" y1="184.10" x2="488.53" y2="184.10" stroke="#d62728" stroke-width="1.3"/>
<line x1="478.53" y1="152.85" x2="488.53" y2="152.85" stroke="#d62728" stroke-width="1.3"/>
<circle cx="483.53" cy="168.47" r="4" fill="#d62728" stroke="#ffffff" stroke-width="1"/>
<line x1="536.77" y1="168.56" x2="536.77" y2="142.67" stroke="#d62728" stroke-width="1.3"/>
<line x1="531.77" y1="168.56" x2="541.77" y2="168.56" stroke="#d62728" stroke-width="1.3"/>
<line x1="531.77" y1="142.67" x2="541.77" y2="142.67" stroke="#d62728" stroke-width="1.3"/>
<circle cx="536.77" cy="155.61" r="4" fill="#d62728" stroke="#ffffff" stroke-width="1"/>
<line x1="590.00" y1="155.23" x2="590.00" y2="139.14" stroke="#d62728" stroke-width="1.3"/>
<line x1="585.00" y1="155.23" x2="595.00" y2="155.23" stroke="#d62728" stroke-width="1.3"/>
<line x1="585.00" y1="139.14" x2="595.00" y2="139.14" stroke="#d62728" stroke-width="1.3"/>
<circle cx="590.00" cy="147.18" r="4" fill="#d62728" stroke="#ffffff" stroke-width="1"/>
<line x1="643.23" y1="148.29" x2="643.23" y2="126.24" stroke="#d62728" stroke-width="1.3"/>
<line x1="638.23" y1="148.29" x2="648.23" y2="148.29" stroke="#d62728" stroke-width="1.3"/>
<line x1="638.23" y1="126.24" x2="648.23" y2="126.24" stroke="#d62728" stroke-width="1.3"/>
<circle cx="643.23" cy="137.26" r="4" fill="#d62728" stroke="#ffffff" stroke-width="1"/>
<line x1="696.47" y1="140.03" x2="696.47" y2="121.13" stroke="#d62728" stroke-width="1.3"/>
<line x1="691.47" y1="140.03" x2="701.47" y2="140.03" stroke="#d62728" stroke-width="1.3"/>
<line x1="691.47" y1="121.13" x2="701.47" y2="121.13" stroke="#d62728" stroke-width="1.3"/>
<circle cx="696.47" cy="130.58" r="4" fill="#d62728" stroke="#ffffff" stroke-width="1"/>
<line x1="749.70" y1="148.32" x2="749.70" y2="125.12" stroke="#d62728" stroke-width="1.3"/>
<line x1="744.70" y1="148.32" x2="754.70" y2="148.32" stroke="#d62728" stroke-width="1.3"/>
<line x1="744.70" y1="125.12" x2="754.70" y2="125.12" stroke="#d62728" stroke-width="1.3"/>
<circle cx="749.70" cy="136.72" r="4" fill="#d62728" stroke="#ffffff" stroke-width="1"/>
<line x1="802.93" y1="151.50" x2="802.93" y2="110.93" stroke="#d62728" stroke-width="1.3"/>
<line x1="797.93" y1="151.50" x2="807.93" y2="151.50" stroke="#d62728" stroke-width="1.3"/>
<line x1="797.93" y1="110.93" x2="807.93" y2="110.93" stroke="#d62728" stroke-width="1.3"/>
<circle cx="802.93" cy="131.22" r="4" fill="#d62728" stroke="#ffffff" stroke-width="1"/>
<line x1="856.16" y1="124.85" x2="856.16" y2="106.56" stroke="#d62728" stroke-width="1.3"/>
<line x1="851.16" y1="124.85" x2="861.16" y2="124.85" stroke="#d62728" stroke-width="1.3"/>
<line x1="851.16" y1="106.56" x2="861.16" y2="106.56" stroke="#d62728" stroke-width="1.3"/>
<circle cx="856.16" cy="115.71" r="4" fill="#d62728" stroke="#ffffff" stroke-width="1"/>
<line x1="909.40" y1="121.57" x2="909.40" y2="103.53" stroke="#d62728" stroke-width="1.3"/>
<line x1="904.40" y1="121.57" x2="914.40" y2="121.57" stroke="#d62728" stroke-width="1.3"/>
<line x1="904.40" y1="103.53" x2="914.40" y2="103.53" stroke="#d62728" stroke-width="1.3"/>
<circle cx="909.40" cy="112.55" r="4" fill="#d62728" stroke="#ffffff" stroke-width="1"/>
<line x1="962.63" y1="113.89" x2="962.63" y2="104.08" stroke="#d62728" stroke-width="1.3"/>
<line x1="957.63" y1="113.89" x2="967.63" y2="113.89" stroke="#d62728" stroke-width="1.3"/>
<line x1="957.63" y1="104.08" x2="967.63" y2="104.08" stroke="#d62728" stroke-width="1.3"/>
<circle cx="962.63" cy="108.98" r="4" fill="#d62728" stroke="#ffffff" stroke-width="1"/>
<line x1="1015.86" y1="116.18" x2="1015.86" y2="98.69" stroke="#d62728" stroke-width="1.3"/>
<line x1="1010.86" y1="116.18" x2="1020.86" y2="116.18" stroke="#d62728" stroke-width="1.3"/>
<line x1="1010.86" y1="98.69" x2="1020.86" y2="98.69" stroke="#d62728" stroke-width="1.3"/>
<circle cx="1015.86" cy="107.44" r="4" fill="#d62728" stroke="#ffffff" stroke-width="1"/>
</svg>
