<svg xmlns="http://www.w3.org/2000/svg" width="1120" height="680" viewBox="0 0 1120 680">
<rect width="100%" height="100%" fill="#fbfbf8"/>
<text x="560.0" y="34" text-anchor="middle" font-family="sans-serif" font-size="24" fill="#222">Loopback: goodput vs payload</text>
<rect x="96" y="62" width="988" height="532" fill="#ffffff" stroke="#c9c9c1"/>
<line x1="96" y1="62.00" x2="1084" y2="62.00" stroke="#e8e8df"/>
<text x="86" y="66.00" text-anchor="end" font-family="sans-serif" font-size="12" fill="#4a4a45">7.83e+03</text>
<line x1="96.00" y1="62" x2="96.00" y2="594" stroke="#f0f0e8"/>
<text x="96.00" y="618" text-anchor="middle" font-family="sans-serif" font-size="12" fill="#4a4a45">161</text>
<line x1="96" y1="168.40" x2="1084" y2="168.40" stroke="#e8e8df"/>
<text x="86" y="172.40" text-anchor="end" font-family="sans-serif" font-size="12" fill="#4a4a45">6.25e+03</text>
<line x1="293.60" y1="62" x2="293.60" y2="594" stroke="#f0f0e8"/>
<text x="293.60" y="618" text-anchor="middle" font-family="sans-serif" font-size="12" fill="#4a4a45">436</text>
<line x1="96" y1="274.80" x2="1084" y2="274.80" stroke="#e8e8df"/>
<text x="86" y="278.80" text-anchor="end" font-family="sans-serif" font-size="12" fill="#4a4a45">4.67e+03</text>
<line x1="491.20" y1="62" x2="491.20" y2="594" stroke="#f0f0e8"/>
<text x="491.20" y="618" text-anchor="middle" font-family="sans-serif" font-size="12" fill="#4a4a45">711</text>
<line x1="96" y1="381.20" x2="1084" y2="381.20" stroke="#e8e8df"/>
<text x="86" y="385.20" text-anchor="end" font-family="sans-serif" font-size="12" fill="#4a4a45">3.08e+03</text>
<line x1="688.80" y1="62" x2="688.80" y2="594" stroke="#f0f0e8"/>
<text x="688.80" y="618" text-anchor="middle" font-family="sans-serif" font-size="12" fill="#4a4a45">985</text>
<line x1="96" y1="487.60" x2="1084" y2="487.60" stroke="#e8e8df"/>
<text x="86" y="491.60" text-anchor="end" font-family="sans-serif" font-size="12" fill="#4a4a45">1.5e+03</text>
<line x1="886.40" y1="62" x2="886.40" y2="594" stroke="#f0f0e8"/>
<text x="886.40" y="618" text-anchor="middle" font-family="sans-serif" font-size="12" fill="#4a4a45">1260</text>
<line x1="96" y1="594.00" x2="1084" y2="594.00" stroke="#e8e8df"/>
<text x="86" y="598.00" text-anchor="end" font-family="sans-serif" font-size="12" fill="#4a4a45">-84.5</text>
<line x1="1084.00" y1="62" x2="1084.00" y2="594" stroke="#f0f0e8"/>
<text x="1084.00" y="618" text-anchor="middle" font-family="sans-serif" font-size="12" fill="#4a4a45">1535</text>
<text x="590.0" y="656" text-anchor="middle" font-family="sans-serif" font-size="15" fill="#222">Payload size (bytes)</text>
<text transform="translate(26 328.0) rotate(-90)" text-anchor="middle" font-family="sans-serif" font-size="15" fill="#222">Goodput payload (Mbps)</text>
<line x1="112" y1="82" x2="138" y2="82" stroke="#2ca02c" stroke-width="3"/>
<text x="146" y="86" font-family="sans-serif" font-size="13" fill="#222">Goodput</text>
<line x1="112" y1="104" x2="138" y2="104" stroke="#111111" stroke-width="3" stroke-dasharray="8 6"/>
<text x="146" y="108" font-family="sans-serif" font-size="13" fill="#222">Teorico</text>
<polyline points="164.14,555.81 217.37,550.37 270.60,529.26 323.84,471.31 377.07,458.33 430.30,437.03 483.53,387.70 536.77,362.23 590.00,340.86 643.23,311.15 696.47,286.37 749.70,295.20 802.93,267.98 856.16,209.76 909.40,187.60 962.63,163.39 1015.86,144.48" fill="none" stroke="#2ca02c" stroke-width="2.5"/>
<line x1="164.14" y1="557.31" x2="164.14" y2="554.32" stroke="#2ca02c" stroke-width="1.3"/>
<line x1="159.14" y1="557.31" x2="169.14" y2="557.31" stroke="#2ca02c" stroke-width="1.3"/>
<line x1="159.14" y1="554.32" x2="169.14" y2="554.32" stroke="#2ca02c" stroke-width="1.3"/>
<circle cx="164.14" cy="555.81" r="4" fill="#2ca02c" stroke="#ffffff" stroke-width="1"/>
<line x1="217.37" y1="555.26" x2="217.37" y2="545.48" stroke="#2ca02c" stroke-width="1.3"/>
<line x1="212.37" y1="555.26" x2="222.37" y2="555.26" stroke="#2ca02c" stroke-width="1.3"/>
<line x1="212.37" y1="545.48" x2="222.37" y2="545.48" stroke="#2ca02c" stroke-width="1.3"/>
<circle cx="217.37" cy="550.37" r="4" fill="#2ca02c" stroke="#ffffff" stroke-width="1"/>
<line x1="270.60" y1="541.03" x2="270.60" y2="517.49" stroke="#2ca02c" stroke-width="1.3"/>
<line x1="265.60" y1="541.03" x2="275.60" y2="541.03" stroke="#2ca02c" stroke-width="1.3"/>
<line x1="265.60" y1="517.49" x2="275.60" y2="517.49" stroke="#2ca02c" stroke-width="1.3"/>
<circle cx="270.60" cy="529.26" r="4" fill="#2ca02c" stroke="#ffffff" stroke-width="1"/>
<line x1="323.84" y1="491.07" x2="323.84" y2="451.54" stroke="#2ca02c" stroke-width="1.3"/>
<line x1="318.84" y1="491.07" x2="328.84" y2="491.07" stroke="#2ca02c" stroke-width="1.3"/>
<line x1="318.84" y1="451.54" x2="328.84" y2="451.54" stroke="#2ca02c" stroke-width="1.3"/>
<circle cx="323.84" cy="471.31" r="4" fill="#2ca02c" stroke="#ffffff" stroke-width="1"/>
<line x1="377.07" y1="501.96" x2="377.07" y2="414.69" stroke="#2ca02c" stroke-width="1.3"/>
<line x1="372.07" y1="501.96" x2="382.07" y2="501.96" stroke="#2ca02c" stroke-width="1.3"/>
<line x1="372.07" y1="414.69" x2="382.07" y2="414.69" stroke="#2ca02c" stroke-width="1.3"/>
<circle cx="377.07" cy="458.33" r="4" fill="#2ca02c" stroke="#ffffff" stroke-width="1"/>
<line x1="430.30" y1="482.53" x2="430.30" y2="391.54" stroke="#2ca02c" stroke-width="1.3"/>
<line x1="425.30" y1="482.53" x2="435.30" y2="482.53" stroke="#2ca02c" stroke-width="1.3"/>
<line x1="425.30" y1="391.54" x2="435.30" y2="391.54" stroke="#2ca02c" stroke-width="1.3"/>
<circle cx="430.30" cy="437.03" r="4" fill="#2ca02c" stroke="#ffffff" stroke-width="1"/>
<line x1="483.53" y1="405.37" x2="483.53" y2="370.02" stroke="#2ca02c" stroke-width="1.3"/>
<line x1="478.53" y1="405.37" x2="488.53" y2="405.37" stroke="#2ca02c" stroke-width="1.3"/>
<line x1="478.53" y1="370.02" x2="488.53" y2="370.02" stroke="#2ca02c" stroke-width="1.3"/>
<circle cx="483.53" cy="387.70" r="4" fill="#2ca02c" stroke="#ffffff" stroke-width="1"/>
<line x1="536.77" y1="381.02" x2="536.77" y2="343.43" stroke="#2ca02c" stroke-width="1.3"/>
<line x1="531.77" y1="381.02" x2="541.77" y2="381.02" stroke="#2ca02c" stroke-width="1.3"/>
<line x1="531.77" y1="343.43" x2="541.77" y2="343.43" stroke="#2ca02c" stroke-width="1.3"/>
<circle cx="536.77" cy="362.23" r="4" fill="#2ca02c" stroke="#ffffff" stroke-width="1"/>
<line x1="590.00" y1="355.91" x2="590.00" y2="325.81" stroke="#2ca02c" stroke-width="1.3"/>
<line x1="585.00" y1="355.91" x2="595.00" y2="355.91" stroke="#2ca02c" stroke-width="1.3"/>
<line x1="585.00" y1="325.81" x2="595.00" y2="325.81" stroke="#2ca02c" stroke-width="1.3"/>
<circle cx="590.00" cy="340.86" r="4" fill="#2ca02c" stroke="#ffffff" stroke-width="1"/>
<line x1="643.23" y1="334.71" x2="643.23" y2="287.58" stroke="#2ca02c" stroke-width="1.3"/>
<line x1="638.23" y1="334.71" x2="648.23" y2="334.71" stroke="#2ca02c" stroke-width="1.3"/>
<line x1="638.23" y1="287.58" x2="648.23" y2="287.58" stroke="#2ca02c" stroke-width="1.3"/>
<circle cx="643.23" cy="311.15" r="4" fill="#2ca02c" stroke="#ffffff" stroke-width="1"/>
<line x1="696.47" y1="310.55" x2="696.47" y2="262.20" stroke="#2ca02c" stroke-width="1.3"/>
<line x1="691.47" y1="310.55" x2="701.47" y2="310.55" stroke="#2ca02c" stroke-width="1.3"/>
<line x1="691.47" y1="262.20" x2="701.47" y2="262.20" stroke="#2ca02c" stroke-width="1.3"/>
<circle cx="696.47" cy="286.37" r="4" fill="#2ca02c" stroke="#ffffff" stroke-width="1"/>
<line x1="749.70" y1="328.25" x2="749.70" y2="262.15" stroke="#2ca02c" stroke-width="1.3"/>
<line x1="744.70" y1="328.25" x2="754.70" y2="328.25" stroke="#2ca02c" stroke-width="1.3"/>
<line x1="744.70" y1="262.15" x2="754.70" y2="262.15" stroke="#2ca02c" stroke-width="1.3"/>
<circle cx="749.70" cy="295.20" r="4" fill="#2ca02c" stroke="#ffffff" stroke-width="1"/>
<line x1="802.93" y1="322.27" x2="802.93" y2="213.69" stroke="#2ca02c" stroke-width="1.3"/>
<line x1="797.93" y1="322.27" x2="807.93" y2="322.27" stroke="#2ca02c" stroke-width="1.3"/>
<line x1="797.93" y1="213.69" x2="807.93" y2="213.69" stroke="#2ca02c" stroke-width="1.3"/>
<circle cx="802.93" cy="267.98" r="4" fill="#2ca02c" stroke="#ffffff" stroke-width="1"/>
<line x1="856.16" y1="244.83" x2="856.16" y2="174.68" stroke="#2ca02c" stroke-width="1.3"/>
<line x1="851.16" y1="244.83" x2="861.16" y2="244.83" stroke="#2ca02c" stroke-width="1.3"/>
<line x1="851.16" y1="174.68" x2="861.16" y2="174.68" stroke="#2ca02c" stroke-width="1.3"/>
<circle cx="856.16" cy="209.76" r="4" fill="#2ca02c" stroke="#ffffff" stroke-width="1"/>
<line x1="909.40" y1="226.10" x2="909.40" y2="149.10" stroke="#2ca02c" stroke-width="1.3"/>
<line x1="904.40" y1="226.10" x2="914.40" y2="226.10" stroke="#2ca02c" stroke-width="1.3"/>
<line x1="904.40" y1="149.10" x2="914.40" y2="149.10" stroke="#2ca02c" stroke-width="1.3"/>
<circle cx="909.40" cy="187.60" r="4" fill="#2ca02c" stroke="#ffffff" stroke-width="1"/>
<line x1="962.63" y1="188.64" x2="962.63" y2="138.15" stroke="#2ca02c" stroke-width="1.3"/>
<line x1="957.63" y1="188.64" x2="967.63" y2="188.64" stroke="#2ca02c" stroke-width="1.3"/>
<line x1="957.63" y1="138.15" x2="967.63" y2="138.15" stroke="#2ca02c" stroke-width="1.3"/>
<circle cx="962.63" cy="163.39" r="4" fill="#2ca02c" stroke="#ffffff" stroke-width="1"/>
<line x1="1015.86" y1="190.27" x2="1015.86" y2="98.69" stroke="#2ca02c" stroke-width="1.3"/>
<line x1="1010.86" y1="190.27" x2="1020.86" y2="190.27" stroke="#2ca02c" stroke-width="1.3"/>
<line x1="1010.86" y1="98.69" x2="1020.86" y2="98.69" stroke="#2ca02c" stroke-width="1.3"/>
<circle cx="1015.86" cy="144.48" r="4" fill="#2ca02c" stroke="#ffffff" stroke-width="1"/>
<polyline points="164.14,534.91 217.37,532.33 270.60,530.57 323.84,529.29 377.07,528.31 430.30,527.54 483.53,526.93 536.77,526.42 590.00,525.99 643.23,525.62 696.47,525.31 749.70,525.04 802.93,524.80 856.16,524.59 909.40,524.40 962.63,524.23 1015.86,524.08" fill="none" stroke="#111111" stroke-width="2.5" stroke-dasharray="8 6"/>
<circle cx="164.14" cy="534.91" r="4" fill="#111111" stroke="#ffffff" stroke-width="1"/>
<circle cx="217.37" cy="532.33" r="4" fill="#111111" stroke="#ffffff" stroke-width="1"/>
<circle cx="270.60" cy="530.57" r="4" fill="#111111" stroke="#ffffff" stroke-width="1"/>
<circle cx="323.84" cy="529.29" r="4" fill="#111111" stroke="#ffffff" stroke-width="1"/>
<circle cx="377.07" cy="528.31" r="4" fill="#111111" stroke="#ffffff" stroke-width="1"/>
<circle cx="430.30" cy="527.54" r="4" fill="#111111" stroke="#ffffff" stroke-width="1"/>
<circle cx="483.53" cy="526.93" r="4" fill="#111111" stroke="#ffffff" stroke-width="1"/>
<circle cx="536.77" cy="526.42" r="4" fill="#111111" stroke="#ffffff" stroke-width="1"/>
<circle cx="590.00" cy="525.99" r="4" fill="#111111" stroke="#ffffff" stroke-width="1"/>
<circle cx="643.23" cy="525.62" r="4" fill="#111111" stroke="#ffffff" stroke-width="1"/>
<circle cx="696.47" cy="525.31" r="4" fill="#111111" stroke="#ffffff" stroke-width="1"/>
<circle cx="749.70" cy="525.04" r="4" fill="#111111" stroke="#ffffff" stroke-width="1"/>
<circle cx="802.93" cy="524.80" r="4" fill="#111111" stroke="#ffffff" stroke-width="1"/>
<circle cx="856.16" cy="524.59" r="4" fill="#111111" stroke="#ffffff" stroke-width="1"/>
<circle cx="909.40" cy="524.40" r="4" fill="#111111" stroke="#ffffff" stroke-width="1"/>
<circle cx="962.63" cy="524.23" r="4" fill="#111111" stroke="#ffffff" stroke-width="1"/>
<circle cx="1015.86" cy="524.08" r="4" fill="#111111" stroke="#ffffff" stroke-width="1"/>
</svg>
