<svg xmlns="http://www.w3.org/2000/svg" width="1120" height="680" viewBox="0 0 1120 680">
<rect width="100%" height="100%" fill="#fbfbf8"/>
<text x="560.0" y="34" text-anchor="middle" font-family="sans-serif" font-size="24" fill="#222">PPS vs payload</text>
<rect x="96" y="62" width="988" height="532" fill="#ffffff" stroke="#c9c9c1"/>
<line x1="96" y1="62.00" x2="1084" y2="62.00" stroke="#e8e8df"/>
<text x="86" y="66.00" text-anchor="end" font-family="sans-serif" font-size="12" fill="#4a4a45">6.77e+05</text>
<line x1="96.00" y1="62" x2="96.00" y2="594" stroke="#f0f0e8"/>
<text x="96.00" y="618" text-anchor="middle" font-family="sans-serif" font-size="12" fill="#4a4a45">161</text>
<line x1="96" y1="168.40" x2="1084" y2="168.40" stroke="#e8e8df"/>
<text x="86" y="172.40" text-anchor="end" font-family="sans-serif" font-size="12" fill="#4a4a45">5.49e+05</text>
<line x1="293.60" y1="62" x2="293.60" y2="594" stroke="#f0f0e8"/>
<text x="293.60" y="618" text-anchor="middle" font-family="sans-serif" font-size="12" fill="#4a4a45">436</text>
<line x1="96" y1="274.80" x2="1084" y2="274.80" stroke="#e8e8df"/>
<text x="86" y="278.80" text-anchor="end" font-family="sans-serif" font-size="12" fill="#4a4a45">4.22e+05</text>
<line x1="491.20" y1="62" x2="491.20" y2="594" stroke="#f0f0e8"/>
<text x="491.20" y="618" text-anchor="middle" font-family="sans-serif" font-size="12" fill="#4a4a45">711</text>
<line x1="96" y1="381.20" x2="1084" y2="381.20" stroke="#e8e8df"/>
<text x="86" y="385.20" text-anchor="end" font-family="sans-serif" font-size="12" fill="#4a4a45">2.94e+05</text>
<line x1="688.80" y1="62" x2="688.80" y2="594" stroke="#f0f0e8"/>
<text x="688.80" y="618" text-anchor="middle" font-family="sans-serif" font-size="12" fill="#4a4a45">985</text>
<line x1="96" y1="487.60" x2="1084" y2="487.60" stroke="#e8e8df"/>
<text x="86" y="491.60" text-anchor="end" font-family="sans-serif" font-size="12" fill="#4a4a45">1.67e+05</text>
<line x1="886.40" y1="62" x2="886.40" y2="594" stroke="#f0f0e8"/>
<text x="886.40" y="618" text-anchor="middle" font-family="sans-serif" font-size="12" fill="#4a4a45">1260</text>
<line x1="96" y1="594.00" x2="1084" y2="594.00" stroke="#e8e8df"/>
<text x="86" y="598.00" text-anchor="end" font-family="sans-serif" font-size="12" fill="#4a4a45">3.9e+04</text>
<line x1="1084.00" y1="62" x2="1084.00" y2="594" stroke="#f0f0e8"/>
<text x="1084.00" y="618" text-anchor="middle" font-family="sans-serif" font-size="12" fill="#4a4a45">1535</text>
<text x="590.0" y="656" text-anchor="middle" font-family="sans-serif" font-size="15" fill="#222">Payload size (bytes)</text>
<text transform="translate(26 328.0) rotate(-90)" text-anchor="middle" font-family="sans-serif" font-size="15" fill="#222">Paquetes por segundo</text>
<line x1="112" y1="82" x2="138" y2="82" stroke="#2ca02c" stroke-width="3"/>
<text x="146" y="86" font-family="sans-serif" font-size="13" fill="#222">Loopback PPS</text>
<line x1="112" y1="104" x2="138" y2="104" stroke="#9467bd" stroke-width="3"/>
<text x="146" y="108" font-family="sans-serif" font-size="13" fill="#222">TX PPS</text>
<line x1="112" y1="126" x2="138" y2="126" stroke="#111111" stroke-width="3" stroke-dasharray="8 6"/>
<text x="146" y="130" font-family="sans-serif" font-size="13" fill="#222">Teorico</text>
<polyline points="164.14,429.42 217.37,448.01 270.60,399.59 323.84,246.51 377.07,260.96 430.30,251.37 483.53,181.62 536.77,173.07 590.00,173.52 643.23,159.85 696.47,155.91 749.70,201.27 802.93,191.85 856.16,144.04 909.40,145.06 962.63,143.63 1015.86,148.06" fill="none" stroke="#2ca02c" stroke-width="2.5"/>
<line x1="164.14" y1="438.49" x2="164.14" y2="420.35" stroke="#2ca02c" stroke-width="1.3"/>
<line x1="159.14" y1="438.49" x2="169.14" y2="438.49" stroke="#2ca02c" stroke-width="1.3"/>
<line x1="159.14" y1="420.35" x2="169.14" y2="420.35" stroke="#2ca02c" stroke-width="1.3"/>
<circle cx="164.14" cy="429.42" r="4" fill="#2ca02c" stroke="#ffffff" stroke-width="1"/>
<line x1="217.37" y1="471.00" x2="217.37" y2="425.01" stroke="#2ca02c" stroke-width="1.3"/>
<line x1="212.37" y1="471.00" x2="222.37" y2="471.00" stroke="#2ca02c" stroke-width="1.3"/>
<line x1="212.37" y1="425.01" x2="222.37" y2="425.01" stroke="#2ca02c" stroke-width="1.3"/>
<circle cx="217.37" cy="448.01" r="4" fill="#2ca02c" stroke="#ffffff" stroke-width="1"/>
<line x1="270.60" y1="444.82" x2="270.60" y2="354.37" stroke="#2ca02c" stroke-width="1.3"/>
<line x1="265.60" y1="444.82" x2="275.60" y2="444.82" stroke="#2ca02c" stroke-width="1.3"/>
<line x1="265.60" y1="354.37" x2="275.60" y2="354.37" stroke="#2ca02c" stroke-width="1.3"/>
<circle cx="270.60" cy="399.59" r="4" fill="#2ca02c" stroke="#ffffff" stroke-width="1"/>
<line x1="323.84" y1="310.72" x2="323.84" y2="182.31" stroke="#2ca02c" stroke-width="1.3"/>
<line x1="318.84" y1="310.72" x2="328.84" y2="310.72" stroke="#2ca02c" stroke-width="1.3"/>
<line x1="318.84" y1="182.31" x2="328.84" y2="182.31" stroke="#2ca02c" stroke-width="1.3"/>
<circle cx="323.84" cy="246.51" r="4" fill="#2ca02c" stroke="#ffffff" stroke-width="1"/>
<line x1="377.07" y1="383.68" x2="377.07" y2="138.24" stroke="#2ca02c" stroke-width="1.3"/>
<line x1="372.07" y1="383.68" x2="382.07" y2="383.68" stroke="#2ca02c" stroke-width="1.3"/>
<line x1="372.07" y1="138.24" x2="382.07" y2="138.24" stroke="#2ca02c" stroke-width="1.3"/>
<circle cx="377.07" cy="260.96" r="4" fill="#2ca02c" stroke="#ffffff" stroke-width="1"/>
<line x1="430.30" y1="364.20" x2="430.30" y2="138.54" stroke="#2ca02c" stroke-width="1.3"/>
<line x1="425.30" y1="364.20" x2="435.30" y2="364.20" stroke="#2ca02c" stroke-width="1.3"/>
<line x1="425.30" y1="138.54" x2="435.30" y2="138.54" stroke="#2ca02c" stroke-width="1.3"/>
<circle cx="430.30" cy="251.37" r="4" fill="#2ca02c" stroke="#ffffff" stroke-width="1"/>
<line x1="483.53" y1="220.81" x2="483.53" y2="142.42" stroke="#2ca02c" stroke-width="1.3"/>
<line x1="478.53" y1="220.81" x2="488.53" y2="220.81" stroke="#2ca02c" stroke-width="1.3"/>
<line x1="478.53" y1="142.42" x2="488.53" y2="142.42" stroke="#2ca02c" stroke-width="1.3"/>
<circle cx="483.53" cy="181.62" r="4" fill="#2ca02c" stroke="#ffffff" stroke-width="1"/>
<line x1="536.77" y1="210.77" x2="536.77" y2="135.37" stroke="#2ca02c" stroke-width="1.3"/>
<line x1="531.77" y1="210.77" x2="541.77" y2="210.77" stroke="#2ca02c" stroke-width="1.3"/>
<line x1="531.77" y1="135.37" x2="541.77" y2="135.37" stroke="#2ca02c" stroke-width="1.3"/>
<circle cx="536.77" cy="173.07" r="4" fill="#2ca02c" stroke="#ffffff" stroke-width="1"/>
<line x1="590.00" y1="201.08" x2="590.00" y2="145.97" stroke="#2ca02c" stroke-width="1.3"/>
<line x1="585.00" y1="201.08" x2="595.00" y2="201.08" stroke="#2ca02c" stroke-width="1.3"/>
<line x1="585.00" y1="145.97" x2="595.00" y2="145.97" stroke="#2ca02c" stroke-width="1.3"/>
<circle cx="590.00" cy="173.52" r="4" fill="#2ca02c" stroke="#ffffff" stroke-width="1"/>
<line x1="643.23" y1="199.53" x2="643.23" y2="120.18" stroke="#2ca02c" stroke-width="1.3"/>
<line x1="638.23" y1="199.53" x2="648.23" y2="199.53" stroke="#2ca02c" stroke-width="1.3"/>
<line x1="638.23" y1="120.18" x2="648.23" y2="120.18" stroke="#2ca02c" stroke-width="1.3"/>
<circle cx="643.23" cy="159.85" r="4" fill="#2ca02c" stroke="#ffffff" stroke-width="1"/>
<line x1="696.47" y1="193.60" x2="696.47" y2="118.23" stroke="#2ca02c" stroke-width="1.3"/>
<line x1="691.47" y1="193.60" x2="701.47" y2="193.60" stroke="#2ca02c" stroke-width="1.3"/>
<line x1="691.47" y1="118.23" x2="701.47" y2="118.23" stroke="#2ca02c" stroke-width="1.3"/>
<circle cx="696.47" cy="155.91" r="4" fill="#2ca02c" stroke="#ffffff" stroke-width="1"/>
<line x1="749.70" y1="249.22" x2="749.70" y2="153.31" stroke="#2ca02c" stroke-width="1.3"/>
<line x1="744.70" y1="249.22" x2="754.70" y2="249.22" stroke="#2ca02c" stroke-width="1.3"/>
<line x1="744.70" y1="153.31" x2="754.70" y2="153.31" stroke="#2ca02c" stroke-width="1.3"/>
<circle cx="749.70" cy="201.27" r="4" fill="#2ca02c" stroke="#ffffff" stroke-width="1"/>
<line x1="802.93" y1="265.52" x2="802.93" y2="118.17" stroke="#2ca02c" stroke-width="1.3"/>
<line x1="797.93" y1="265.52" x2="807.93" y2="265.52" stroke="#2ca02c" stroke-width="1.3"/>
<line x1="797.93" y1="118.17" x2="807.93" y2="118.17" stroke="#2ca02c" stroke-width="1.3"/>
<circle cx="802.93" cy="191.85" r="4" fill="#2ca02c" stroke="#ffffff" stroke-width="1"/>
<line x1="856.16" y1="188.75" x2="856.16" y2="99.34" stroke="#2ca02c" stroke-width="1.3"/>
<line x1="851.16" y1="188.75" x2="861.16" y2="188.75" stroke="#2ca02c" stroke-width="1.3"/>
<line x1="851.16" y1="99.34" x2="861.16" y2="99.34" stroke="#2ca02c" stroke-width="1.3"/>
<circle cx="856.16" cy="144.04" r="4" fill="#2ca02c" stroke="#ffffff" stroke-width="1"/>
<line x1="909.40" y1="191.32" x2="909.40" y2="98.79" stroke="#2ca02c" stroke-width="1.3"/>
<line x1="904.40" y1="191.32" x2="914.40" y2="191.32" stroke="#2ca02c" stroke-width="1.3"/>
<line x1="904.40" y1="98.79" x2="914.40" y2="98.79" stroke="#2ca02c" stroke-width="1.3"/>
<circle cx="909.40" cy="145.06" r="4" fill="#2ca02c" stroke="#ffffff" stroke-width="1"/>
<line x1="962.63" y1="172.32" x2="962.63" y2="114.94" stroke="#2ca02c" stroke-width="1.3"/>
<line x1="957.63" y1="172.32" x2="967.63" y2="172.32" stroke="#2ca02c" stroke-width="1.3"/>
<line x1="957.63" y1="114.94" x2="967.63" y2="114.94" stroke="#2ca02c" stroke-width="1.3"/>
<circle cx="962.63" cy="143.63" r="4" fill="#2ca02c" stroke="#ffffff" stroke-width="1"/>
<line x1="1015.86" y1="197.43" x2="1015.86" y2="98.69" stroke="#2ca02c" stroke-width="1.3"/>
<line x1="1010.86" y1="197.43" x2="1020.86" y2="197.43" stroke="#2ca02c" stroke-width="1.3"/>
<line x1="1010.86" y1="98.69" x2="1020.86" y2="98.69" stroke="#2ca02c" stroke-width="1.3"/>
<circle cx="1015.86" cy="148.06" r="4" fill="#2ca02c" stroke="#ffffff" stroke-width="1"/>
<polyline points="164.14,301.92 217.37,362.79 270.60,404.40 323.84,434.64 377.07,457.60 430.30,475.75 483.53,490.26 536.77,502.32 590.00,512.39 643.23,520.91 696.47,528.29 749.70,534.71 802.93,540.32 856.16,545.28 909.40,549.73 962.63,553.70 1015.86,557.27" fill="none" stroke="#9467bd" stroke-width="2.5"/>
<line x1="164.14" y1="302.33" x2="164.14" y2="301.51" stroke="#9467bd" stroke-width="1.3"/>
<line x1="159.14" y1="302.33" x2="169.14" y2="302.33" stroke="#9467bd" stroke-width="1.3"/>
<line x1="159.14" y1="301.51" x2="169.14" y2="301.51" stroke="#9467bd" stroke-width="1.3"/>
<circle cx="164.14" cy="301.92" r="4" fill="#9467bd" stroke="#ffffff" stroke-width="1"/>
<line x1="217.37" y1="363.08" x2="217.37" y2="362.51" stroke="#9467bd" stroke-width="1.3"/>
<line x1="212.37" y1="363.08" x2="222.37" y2="363.08" stroke="#9467bd" stroke-width="1.3"/>
<line x1="212.37" y1="362.51" x2="222.37" y2="362.51" stroke="#9467bd" stroke-width="1.3"/>
<circle cx="217.37" cy="362.79" r="4" fill="#9467bd" stroke="#ffffff" stroke-width="1"/>
<line x1="270.60" y1="404.55" x2="270.60" y2="404.25" stroke="#9467bd" stroke-width="1.3"/>
<line x1="265.60" y1="404.55" x2="275.60" y2="404.55" stroke="#9467bd" stroke-width="1.3"/>
<line x1="265.60" y1="404.25" x2="275.60" y2="404.25" stroke="#9467bd" stroke-width="1.3"/>
<circle cx="270.60" cy="404.40" r="4" fill="#9467bd" stroke="#ffffff" stroke-width="1"/>
<line x1="323.84" y1="434.80" x2="323.84" y2="434.47" stroke="#9467bd" stroke-width="1.3"/>
<line x1="318.84" y1="434.80" x2="328.84" y2="434.80" stroke="#9467bd" stroke-width="1.3"/>
<line x1="318.84" y1="434.47" x2="328.84" y2="434.47" stroke="#9467bd" stroke-width="1.3"/>
<circle cx="323.84" cy="434.64" r="4" fill="#9467bd" stroke="#ffffff" stroke-width="1"/>
<line x1="377.07" y1="457.69" x2="377.07" y2="457.50" stroke="#9467bd" stroke-width="1.3"/>
<line x1="372.07" y1="457.69" x2="382.07" y2="457.69" stroke="#9467bd" stroke-width="1.3"/>
<line x1="372.07" y1="457.50" x2="382.07" y2="457.50" stroke="#9467bd" stroke-width="1.3"/>
<circle cx="377.07" cy="457.60" r="4" fill="#9467bd" stroke="#ffffff" stroke-width="1"/>
<line x1="430.30" y1="475.85" x2="430.30" y2="475.64" stroke="#9467bd" stroke-width="1.3"/>
<line x1="425.30" y1="475.85" x2="435.30" y2="475.85" stroke="#9467bd" stroke-width="1.3"/>
<line x1="425.30" y1="475.64" x2="435.30" y2="475.64" stroke="#9467bd" stroke-width="1.3"/>
<circle cx="430.30" cy="475.75" r="4" fill="#9467bd" stroke="#ffffff" stroke-width="1"/>
<line x1="483.53" y1="490.32" x2="483.53" y2="490.20" stroke="#9467bd" stroke-width="1.3"/>
<line x1="478.53" y1="490.32" x2="488.53" y2="490.32" stroke="#9467bd" stroke-width="1.3"/>
<line x1="478.53" y1="490.20" x2="488.53" y2="490.20" stroke="#9467bd" stroke-width="1.3"/>
<circle cx="483.53" cy="490.26" r="4" fill="#9467bd" stroke="#ffffff" stroke-width="1"/>
<line x1="536.77" y1="502.38" x2="536.77" y2="502.25" stroke="#9467bd" stroke-width="1.3"/>
<line x1="531.77" y1="502.38" x2="541.77" y2="502.38" stroke="#9467bd" stroke-width="1.3"/>
<line x1="531.77" y1="502.25" x2="541.77" y2="502.25" stroke="#9467bd" stroke-width="1.3"/>
<circle cx="536.77" cy="502.32" r="4" fill="#9467bd" stroke="#ffffff" stroke-width="1"/>
<line x1="590.00" y1="512.43" x2="590.00" y2="512.36" stroke="#9467bd" stroke-width="1.3"/>
<line x1="585.00" y1="512.43" x2="595.00" y2="512.43" stroke="#9467bd" stroke-width="1.3"/>
<line x1="585.00" y1="512.36" x2="595.00" y2="512.36" stroke="#9467bd" stroke-width="1.3"/>
<circle cx="590.00" cy="512.39" r="4" fill="#9467bd" stroke="#ffffff" stroke-width="1"/>
<line x1="643.23" y1="520.96" x2="643.23" y2="520.86" stroke="#9467bd" stroke-width="1.3"/>
<line x1="638.23" y1="520.96" x2="648.23" y2="520.96" stroke="#9467bd" stroke-width="1.3"/>
<line x1="638.23" y1="520.86" x2="648.23" y2="520.86" stroke="#9467bd" stroke-width="1.3"/>
<circle cx="643.23" cy="520.91" r="4" fill="#9467bd" stroke="#ffffff" stroke-width="1"/>
<line x1="696.47" y1="528.33" x2="696.47" y2="528.24" stroke="#9467bd" stroke-width="1.3"/>
<line x1="691.47" y1="528.33" x2="701.47" y2="528.33" stroke="#9467bd" stroke-width="1.3"/>
<line x1="691.47" y1="528.24" x2="701.47" y2="528.24" stroke="#9467bd" stroke-width="1.3"/>
<circle cx="696.47" cy="528.29" r="4" fill="#9467bd" stroke="#ffffff" stroke-width="1"/>
<line x1="749.70" y1="534.73" x2="749.70" y2="534.68" stroke="#9467bd" stroke-width="1.3"/>
<line x1="744.70" y1="534.73" x2="754.70" y2="534.73" stroke="#9467bd" stroke-width="1.3"/>
<line x1="744.70" y1="534.68" x2="754.70" y2="534.68" stroke="#9467bd" stroke-width="1.3"/>
<circle cx="749.70" cy="534.71" r="4" fill="#9467bd" stroke="#ffffff" stroke-width="1"/>
<line x1="802.93" y1="540.36" x2="802.93" y2="540.29" stroke="#9467bd" stroke-width="1.3"/>
<line x1="797.93" y1="540.36" x2="807.93" y2="540.36" stroke="#9467bd" stroke-width="1.3"/>
<line x1="797.93" y1="540.29" x2="807.93" y2="540.29" stroke="#9467bd" stroke-width="1.3"/>
<circle cx="802.93" cy="540.32" r="4" fill="#9467bd" stroke="#ffffff" stroke-width="1"/>
<line x1="856.16" y1="545.31" x2="856.16" y2="545.26" stroke="#9467bd" stroke-width="1.3"/>
<line x1="851.16" y1="545.31" x2="861.16" y2="545.31" stroke="#9467bd" stroke-width="1.3"/>
<line x1="851.16" y1="545.26" x2="861.16" y2="545.26" stroke="#9467bd" stroke-width="1.3"/>
<circle cx="856.16" cy="545.28" r="4" fill="#9467bd" stroke="#ffffff" stroke-width="1"/>
<line x1="909.40" y1="549.75" x2="909.40" y2="549.71" stroke="#9467bd" stroke-width="1.3"/>
<line x1="904.40" y1="549.75" x2="914.40" y2="549.75" stroke="#9467bd" stroke-width="1.3"/>
<line x1="904.40" y1="549.71" x2="914.40" y2="549.71" stroke="#9467bd" stroke-width="1.3"/>
<circle cx="909.40" cy="549.73" r="4" fill="#9467bd" stroke="#ffffff" stroke-width="1"/>
<line x1="962.63" y1="553.72" x2="962.63" y2="553.68" stroke="#9467bd" stroke-width="1.3"/>
<line x1="957.63" y1="553.72" x2="967.63" y2="553.72" stroke="#9467bd" stroke-width="1.3"/>
<line x1="957.63" y1="553.68" x2="967.63" y2="553.68" stroke="#9467bd" stroke-width="1.3"/>
<circle cx="962.63" cy="553.70" r="4" fill="#9467bd" stroke="#ffffff" stroke-width="1"/>
<line x1="1015.86" y1="557.27" x2="1015.86" y2="557.26" stroke="#9467bd" stroke-width="1.3"/>
<line x1="1010.86" y1="557.27" x2="1020.86" y2="557.27" stroke="#9467bd" stroke-width="1.3"/>
<line x1="1010.86" y1="557.26" x2="1020.86" y2="557.26" stroke="#9467bd" stroke-width="1.3"/>
<circle cx="1015.86" cy="557.27" r="4" fill="#9467bd" stroke="#ffffff" stroke-width="1"/>
<polyline points="164.14,302.63 217.37,363.17 270.60,404.64 323.84,434.83 377.07,457.79 430.30,475.84 483.53,490.40 536.77,502.40 590.00,512.45 643.23,521.00 696.47,528.35 749.70,534.75 802.93,540.37 856.16,545.34 909.40,549.76 962.63,553.73 1015.86,557.31" fill="none" stroke="#111111" stroke-width="2.5" stroke-dasharray="8 6"/>
<circle cx="164.14" cy="302.63" r="4" fill="#111111" stroke="#ffffff" stroke-width="1"/>
<circle cx="217.37" cy="363.17" r="4" fill="#111111" stroke="#ffffff" stroke-width="1"/>
<circle cx="270.60" cy="404.64" r="4" fill="#111111" stroke="#ffffff" stroke-width="1"/>
<circle cx="323.84" cy="434.83" r="4" fill="#111111" stroke="#ffffff" stroke-width="1"/>
<circle cx="377.07" cy="457.79" r="4" fill="#111111" stroke="#ffffff" stroke-width="1"/>
<circle cx="430.30" cy="475.84" r="4" fill="#111111" stroke="#ffffff" stroke-width="1"/>
<circle cx="483.53" cy="490.40" r="4" fill="#111111" stroke="#ffffff" stroke-width="1"/>
<circle cx="536.77" cy="502.40" r="4" fill="#111111" stroke="#ffffff" stroke-width="1"/>
<circle cx="590.00" cy="512.45" r="4" fill="#111111" stroke="#ffffff" stroke-width="1"/>
<circle cx="643.23" cy="521.00" r="4" fill="#111111" stroke="#ffffff" stroke-width="1"/>
<circle cx="696.47" cy="528.35" r="4" fill="#111111" stroke="#ffffff" stroke-width="1"/>
<circle cx="749.70" cy="534.75" r="4" fill="#111111" stroke="#ffffff" stroke-width="1"/>
<circle cx="802.93" cy="540.37" r="4" fill="#111111" stroke="#ffffff" stroke-width="1"/>
<circle cx="856.16" cy="545.34" r="4" fill="#111111" stroke="#ffffff" stroke-width="1"/>
<circle cx="909.40" cy="549.76" r="4" fill="#111111" stroke="#ffffff" stroke-width="1"/>
<circle cx="962.63" cy="553.73" r="4" fill="#111111" stroke="#ffffff" stroke-width="1"/>
<circle cx="1015.86" cy="557.31" r="4" fill="#111111" stroke="#ffffff" stroke-width="1"/>
</svg>
