<svg xmlns="http://www.w3.org/2000/svg" width="1120" height="680" viewBox="0 0 1120 680">
<rect width="100%" height="100%" fill="#fbfbf8"/>
<text x="560.0" y="34" text-anchor="middle" font-family="sans-serif" font-size="24" fill="#222">RTT vs payload</text>
<rect x="96" y="62" width="988" height="532" fill="#ffffff" stroke="#c9c9c1"/>
<line x1="96" y1="62.00" x2="1084" y2="62.00" stroke="#e8e8df"/>
<text x="86" y="66.00" text-anchor="end" font-family="sans-serif" font-size="12" fill="#4a4a45">0.172</text>
<line x1="96.00" y1="62" x2="96.00" y2="594" stroke="#f0f0e8"/>
<text x="96.00" y="618" text-anchor="middle" font-family="sans-serif" font-size="12" fill="#4a4a45">161</text>
<line x1="96" y1="168.40" x2="1084" y2="168.40" stroke="#e8e8df"/>
<text x="86" y="172.40" text-anchor="end" font-family="sans-serif" font-size="12" fill="#4a4a45">0.154</text>
<line x1="293.60" y1="62" x2="293.60" y2="594" stroke="#f0f0e8"/>
<text x="293.60" y="618" text-anchor="middle" font-family="sans-serif" font-size="12" fill="#4a4a45">436</text>
<line x1="96" y1="274.80" x2="1084" y2="274.80" stroke="#e8e8df"/>
<text x="86" y="278.80" text-anchor="end" font-family="sans-serif" font-size="12" fill="#4a4a45">0.136</text>
<line x1="491.20" y1="62" x2="491.20" y2="594" stroke="#f0f0e8"/>
<text x="491.20" y="618" text-anchor="middle" font-family="sans-serif" font-size="12" fill="#4a4a45">711</text>
<line x1="96" y1="381.20" x2="1084" y2="381.20" stroke="#e8e8df"/>
<text x="86" y="385.20" text-anchor="end" font-family="sans-serif" font-size="12" fill="#4a4a45">0.118</text>
<line x1="688.80" y1="62" x2="688.80" y2="594" stroke="#f0f0e8"/>
<text x="688.80" y="618" text-anchor="middle" font-family="sans-serif" font-size="12" fill="#4a4a45">985</text>
<line x1="96" y1="487.60" x2="1084" y2="487.60" stroke="#e8e8df"/>
<text x="86" y="491.60" text-anchor="end" font-family="sans-serif" font-size="12" fill="#4a4a45">0.101</text>
<line x1="886.40" y1="62" x2="886.40" y2="594" stroke="#f0f0e8"/>
<text x="886.40" y="618" text-anchor="middle" font-family="sans-serif" font-size="12" fill="#4a4a45">1260</text>
<line x1="96" y1="594.00" x2="1084" y2="594.00" stroke="#e8e8df"/>
<text x="86" y="598.00" text-anchor="end" font-family="sans-serif" font-size="12" fill="#4a4a45">0.0827</text>
<line x1="1084.00" y1="62" x2="1084.00" y2="594" stroke="#f0f0e8"/>
<text x="1084.00" y="618" text-anchor="middle" font-family="sans-serif" font-size="12" fill="#4a4a45">1535</text>
<text x="590.0" y="656" text-anchor="middle" font-family="sans-serif" font-size="15" fill="#222">Payload size (bytes)</text>
<text transform="translate(26 328.0) rotate(-90)" text-anchor="middle" font-family="sans-serif" font-size="15" fill="#222">RTT promedio (ms)</text>
<line x1="112" y1="82" x2="138" y2="82" stroke="#1f77b4" stroke-width="3"/>
<text x="146" y="86" font-family="sans-serif" font-size="13" fill="#222">RTT promedio</text>
<polyline points="164.14,556.77 217.37,505.96 270.60,485.16 323.84,459.03 377.07,434.32 430.30,374.69 483.53,351.39 536.77,324.91 590.00,303.02 643.23,277.05 696.47,251.77 749.70,226.17 802.93,198.14 856.16,171.45 909.40,150.35 962.63,125.12 1015.86,99.45" fill="none" stroke="#1f77b4" stroke-width="2.5"/>
<line x1="164.14" y1="557.31" x2="164.14" y2="556.23" stroke="#1f77b4" stroke-width="1.3"/>
<line x1="159.14" y1="557.31" x2="169.14" y2="557.31" stroke="#1f77b4" stroke-width="1.3"/>
<line x1="159.14" y1="556.23" x2="169.14" y2="556.23" stroke="#1f77b4" stroke-width="1.3"/>
<circle cx="164.14" cy="556.77" r="4" fill="#1f77b4" stroke="#ffffff" stroke-width="1"/>
<line x1="217.37" y1="506.92" x2="217.37" y2="505.01" stroke="#1f77b4" stroke-width="1.3"/>
<line x1="212.37" y1="506.92" x2="222.37" y2="506.92" stroke="#1f77b4" stroke-width="1.3"/>
<line x1="212.37" y1="505.01" x2="222.37" y2="505.01" stroke="#1f77b4" stroke-width="1.3"/>
<circle cx="217.37" cy="505.96" r="4" fill="#1f77b4" stroke="#ffffff" stroke-width="1"/>
<line x1="270.60" y1="486.03" x2="270.60" y2="484.29" stroke="#1f77b4" stroke-width="1.3"/>
<line x1="265.60" y1="486.03" x2="275.60" y2="486.03" stroke="#1f77b4" stroke-width="1.3"/>
<line x1="265.60" y1="484.29" x2="275.60" y2="484.29" stroke="#1f77b4" stroke-width="1.3"/>
<circle cx="270.60" cy="485.16" r="4" fill="#1f77b4" stroke="#ffffff" stroke-width="1"/>
<line x1="323.84" y1="459.71" x2="323.84" y2="458.35" stroke="#1f77b4" stroke-width="1.3"/>
<line x1="318.84" y1="459.71" x2="328.84" y2="459.71" stroke="#1f77b4" stroke-width="1.3"/>
<line x1="318.84" y1="458.35" x2="328.84" y2="458.35" stroke="#1f77b4" stroke-width="1.3"/>
<circle cx="323.84" cy="459.03" r="4" fill="#1f77b4" stroke="#ffffff" stroke-width="1"/>
<line x1="377.07" y1="435.45" x2="377.07" y2="433.20" stroke="#1f77b4" stroke-width="1.3"/>
<line x1="372.07" y1="435.45" x2="382.07" y2="435.45" stroke="#1f77b4" stroke-width="1.3"/>
<line x1="372.07" y1="433.20" x2="382.07" y2="433.20" stroke="#1f77b4" stroke-width="1.3"/>
<circle cx="377.07" cy="434.32" r="4" fill="#1f77b4" stroke="#ffffff" stroke-width="1"/>
<line x1="430.30" y1="375.55" x2="430.30" y2="373.84" stroke="#1f77b4" stroke-width="1.3"/>
<line x1="425.30" y1="375.55" x2="435.30" y2="375.55" stroke="#1f77b4" stroke-width="1.3"/>
<line x1="425.30" y1="373.84" x2="435.30" y2="373.84" stroke="#1f77b4" stroke-width="1.3"/>
<circle cx="430.30" cy="374.69" r="4" fill="#1f77b4" stroke="#ffffff" stroke-width="1"/>
<line x1="483.53" y1="352.67" x2="483.53" y2="350.11" stroke="#1f77b4" stroke-width="1.3"/>
<line x1="478.53" y1="352.67" x2="488.53" y2="352.67" stroke="#1f77b4" stroke-width="1.3"/>
<line x1="478.53" y1="350.11" x2="488.53" y2="350.11" stroke="#1f77b4" stroke-width="1.3"/>
<circle cx="483.53" cy="351.39" r="4" fill="#1f77b4" stroke="#ffffff" stroke-width="1"/>
<line x1="536.77" y1="325.97" x2="536.77" y2="323.85" stroke="#1f77b4" stroke-width="1.3"/>
<line x1="531.77" y1="325.97" x2="541.77" y2="325.97" stroke="#1f77b4" stroke-width="1.3"/>
<line x1="531.77" y1="323.85" x2="541.77" y2="323.85" stroke="#1f77b4" stroke-width="1.3"/>
<circle cx="536.77" cy="324.91" r="4" fill="#1f77b4" stroke="#ffffff" stroke-width="1"/>
<line x1="590.00" y1="304.11" x2="590.00" y2="301.92" stroke="#1f77b4" stroke-width="1.3"/>
<line x1="585.00" y1="304.11" x2="595.00" y2="304.11" stroke="#1f77b4" stroke-width="1.3"/>
<line x1="585.00" y1="301.92" x2="595.00" y2="301.92" stroke="#1f77b4" stroke-width="1.3"/>
<circle cx="590.00" cy="303.02" r="4" fill="#1f77b4" stroke="#ffffff" stroke-width="1"/>
<line x1="643.23" y1="277.60" x2="643.23" y2="276.50" stroke="#1f77b4" stroke-width="1.3"/>
<line x1="638.23" y1="277.60" x2="648.23" y2="277.60" stroke="#1f77b4" stroke-width="1.3"/>
<line x1="638.23" y1="276.50" x2="648.23" y2="276.50" stroke="#1f77b4" stroke-width="1.3"/>
<circle cx="643.23" cy="277.05" r="4" fill="#1f77b4" stroke="#ffffff" stroke-width="1"/>
<line x1="696.47" y1="252.89" x2="696.47" y2="250.66" stroke="#1f77b4" stroke-width="1.3"/>
<line x1="691.47" y1="252.89" x2="701.47" y2="252.89" stroke="#1f77b4" stroke-width="1.3"/>
<line x1="691.47" y1="250.66" x2="701.47" y2="250.66" stroke="#1f77b4" stroke-width="1.3"/>
<circle cx="696.47" cy="251.77" r="4" fill="#1f77b4" stroke="#ffffff" stroke-width="1"/>
<line x1="749.70" y1="227.07" x2="749.70" y2="225.28" stroke="#1f77b4" stroke-width="1.3"/>
<line x1="744.70" y1="227.07" x2="754.70" y2="227.07" stroke="#1f77b4" stroke-width="1.3"/>
<line x1="744.70" y1="225.28" x2="754.70" y2="225.28" stroke="#1f77b4" stroke-width="1.3"/>
<circle cx="749.70" cy="226.17" r="4" fill="#1f77b4" stroke="#ffffff" stroke-width="1"/>
<line x1="802.93" y1="199.70" x2="802.93" y2="196.58" stroke="#1f77b4" stroke-width="1.3"/>
<line x1="797.93" y1="199.70" x2="807.93" y2="199.70" stroke="#1f77b4" stroke-width="1.3"/>
<line x1="797.93" y1="196.58" x2="807.93" y2="196.58" stroke="#1f77b4" stroke-width="1.3"/>
<circle cx="802.93" cy="198.14" r="4" fill="#1f77b4" stroke="#ffffff" stroke-width="1"/>
<line x1="856.16" y1="172.07" x2="856.16" y2="170.82" stroke="#1f77b4" stroke-width="1.3"/>
<line x1="851.16" y1="172.07" x2="861.16" y2="172.07" stroke="#1f77b4" stroke-width="1.3"/>
<line x1="851.16" y1="170.82" x2="861.16" y2="170.82" stroke="#1f77b4" stroke-width="1.3"/>
<circle cx="856.16" cy="171.45" r="4" fill="#1f77b4" stroke="#ffffff" stroke-width="1"/>
<line x1="909.40" y1="151.07" x2="909.40" y2="149.62" stroke="#1f77b4" stroke-width="1.3"/>
<line x1="904.40" y1="151.07" x2="914.40" y2="151.07" stroke="#1f77b4" stroke-width="1.3"/>
<line x1="904.40" y1="149.62" x2="914.40" y2="149.62" stroke="#1f77b4" stroke-width="1.3"/>
<circle cx="909.40" cy="150.35" r="4" fill="#1f77b4" stroke="#ffffff" stroke-width="1"/>
<line x1="962.63" y1="126.12" x2="962.63" y2="124.12" stroke="#1f77b4" stroke-width="1.3"/>
<line x1="957.63" y1="126.12" x2="967.63" y2="126.12" stroke="#1f77b4" stroke-width="1.3"/>
<line x1="957.63" y1="124.12" x2="967.63" y2="124.12" stroke="#1f77b4" stroke-width="1.3"/>
<circle cx="962.63" cy="125.12" r="4" fill="#1f77b4" stroke="#ffffff" stroke-width="1"/>
<line x1="1015.86" y1="100.21" x2="1015.86" y2="98.69" stroke="#1f77b4" stroke-width="1.3"/>
<line x1="1010.86" y1="100.21" x2="1020.86" y2="100.21" stroke="#1f77b4" stroke-width="1.3"/>
<line x1="1010.86" y1="98.69" x2="1020.86" y2="98.69" stroke="#1f77b4" stroke-width="1.3"/>
<circle cx="1015.86" cy="99.45" r="4" fill="#1f77b4" stroke="#ffffff" stroke-width="1"/>
</svg>
