<svg xmlns="http://www.w3.org/2000/svg" width="1120" height="680" viewBox="0 0 1120 680">
<rect width="100%" height="100%" fill="#fbfbf8"/>
<text x="560.0" y="34" text-anchor="middle" font-family="sans-serif" font-size="24" fill="#222">Transmision FPGA: goodput vs payload</text>
<rect x="96" y="62" width="988" height="532" fill="#ffffff" stroke="#c9c9c1"/>
<line x1="96" y1="62.00" x2="1084" y2="62.00" stroke="#e8e8df"/>
<text x="86" y="66.00" text-anchor="end" font-family="sans-serif" font-size="12" fill="#4a4a45">970</text>
<line x1="96.00" y1="62" x2="96.00" y2="594" stroke="#f0f0e8"/>
<text x="96.00" y="618" text-anchor="middle" font-family="sans-serif" font-size="12" fill="#4a4a45">161</text>
<line x1="96" y1="168.40" x2="1084" y2="168.40" stroke="#e8e8df"/>
<text x="86" y="172.40" text-anchor="end" font-family="sans-serif" font-size="12" fill="#4a4a45">932</text>
<line x1="293.60" y1="62" x2="293.60" y2="594" stroke="#f0f0e8"/>
<text x="293.60" y="618" text-anchor="middle" font-family="sans-serif" font-size="12" fill="#4a4a45">436</text>
<line x1="96" y1="274.80" x2="1084" y2="274.80" stroke="#e8e8df"/>
<text x="86" y="278.80" text-anchor="end" font-family="sans-serif" font-size="12" fill="#4a4a45">895</text>
<line x1="491.20" y1="62" x2="491.20" y2="594" stroke="#f0f0e8"/>
<text x="491.20" y="618" text-anchor="middle" font-family="sans-serif" font-size="12" fill="#4a4a45">711</text>
<line x1="96" y1="381.20" x2="1084" y2="381.20" stroke="#e8e8df"/>
<text x="86" y="385.20" text-anchor="end" font-family="sans-serif" font-size="12" fill="#4a4a45">857</text>
<line x1="688.80" y1="62" x2="688.80" y2="594" stroke="#f0f0e8"/>
<text x="688.80" y="618" text-anchor="middle" font-family="sans-serif" font-size="12" fill="#4a4a45">985</text>
<line x1="96" y1="487.60" x2="1084" y2="487.60" stroke="#e8e8df"/>
<text x="86" y="491.60" text-anchor="end" font-family="sans-serif" font-size="12" fill="#4a4a45">820</text>
<line x1="886.40" y1="62" x2="886.40" y2="594" stroke="#f0f0e8"/>
<text x="886.40" y="618" text-anchor="middle" font-family="sans-serif" font-size="12" fill="#4a4a45">1260</text>
<line x1="96" y1="594.00" x2="1084" y2="594.00" stroke="#e8e8df"/>
<text x="86" y="598.00" text-anchor="end" font-family="sans-serif" font-size="12" fill="#4a4a45">782</text>
<line x1="1084.00" y1="62" x2="1084.00" y2="594" stroke="#f0f0e8"/>
<text x="1084.00" y="618" text-anchor="middle" font-family="sans-serif" font-size="12" fill="#4a4a45">1535</text>
<text x="590.0" y="656" text-anchor="middle" font-family="sans-serif" font-size="15" fill="#222">Payload size (bytes)</text>
<text transform="translate(26 328.0) rotate(-90)" text-anchor="middle" font-family="sans-serif" font-size="15" fill="#222">Goodput payload (Mbps)</text>
<line x1="112" y1="82" x2="138" y2="82" stroke="#9467bd" stroke-width="3"/>
<text x="146" y="86" font-family="sans-serif" font-size="13" fill="#222">Goodput</text>
<line x1="112" y1="104" x2="138" y2="104" stroke="#111111" stroke-width="3" stroke-dasharray="8 6"/>
<text x="146" y="108" font-family="sans-serif" font-size="13" fill="#222">Teorico</text>
<polyline points="164.14,552.32 217.37,445.40 270.60,371.76 323.84,317.74 377.07,276.17 430.30,245.11 483.53,217.93 536.77,197.36 590.00,179.77 643.23,163.49 696.47,150.69 749.70,139.70 802.93,129.63 856.16,120.37 909.40,112.92 962.63,105.76 1015.86,98.88" fill="none" stroke="#9467bd" stroke-width="2.5"/>
<line x1="164.14" y1="555.17" x2="164.14" y2="549.46" stroke="#9467bd" stroke-width="1.3"/>
<line x1="159.14" y1="555.17" x2="169.14" y2="555.17" stroke="#9467bd" stroke-width="1.3"/>
<line x1="159.14" y1="549.46" x2="169.14" y2="549.46" stroke="#9467bd" stroke-width="1.3"/>
<circle cx="164.14" cy="552.32" r="4" fill="#9467bd" stroke="#ffffff" stroke-width="1"/>
<line x1="217.37" y1="447.98" x2="217.37" y2="442.82" stroke="#9467bd" stroke-width="1.3"/>
<line x1="212.37" y1="447.98" x2="222.37" y2="447.98" stroke="#9467bd" stroke-width="1.3"/>
<line x1="212.37" y1="442.82" x2="222.37" y2="442.82" stroke="#9467bd" stroke-width="1.3"/>
<circle cx="217.37" cy="445.40" r="4" fill="#9467bd" stroke="#ffffff" stroke-width="1"/>
<line x1="270.60" y1="373.40" x2="270.60" y2="370.12" stroke="#9467bd" stroke-width="1.3"/>
<line x1="265.60" y1="373.40" x2="275.60" y2="373.40" stroke="#9467bd" stroke-width="1.3"/>
<line x1="265.60" y1="370.12" x2="275.60" y2="370.12" stroke="#9467bd" stroke-width="1.3"/>
<circle cx="270.60" cy="371.76" r="4" fill="#9467bd" stroke="#ffffff" stroke-width="1"/>
<line x1="323.84" y1="319.86" x2="323.84" y2="315.61" stroke="#9467bd" stroke-width="1.3"/>
<line x1="318.84" y1="319.86" x2="328.84" y2="319.86" stroke="#9467bd" stroke-width="1.3"/>
<line x1="318.84" y1="315.61" x2="328.84" y2="315.61" stroke="#9467bd" stroke-width="1.3"/>
<circle cx="323.84" cy="317.74" r="4" fill="#9467bd" stroke="#ffffff" stroke-width="1"/>
<line x1="377.07" y1="277.55" x2="377.07" y2="274.78" stroke="#9467bd" stroke-width="1.3"/>
<line x1="372.07" y1="277.55" x2="382.07" y2="277.55" stroke="#9467bd" stroke-width="1.3"/>
<line x1="372.07" y1="274.78" x2="382.07" y2="274.78" stroke="#9467bd" stroke-width="1.3"/>
<circle cx="377.07" cy="276.17" r="4" fill="#9467bd" stroke="#ffffff" stroke-width="1"/>
<line x1="430.30" y1="246.92" x2="430.30" y2="243.30" stroke="#9467bd" stroke-width="1.3"/>
<line x1="425.30" y1="246.92" x2="435.30" y2="246.92" stroke="#9467bd" stroke-width="1.3"/>
<line x1="425.30" y1="243.30" x2="435.30" y2="243.30" stroke="#9467bd" stroke-width="1.3"/>
<circle cx="430.30" cy="245.11" r="4" fill="#9467bd" stroke="#ffffff" stroke-width="1"/>
<line x1="483.53" y1="219.00" x2="483.53" y2="216.86" stroke="#9467bd" stroke-width="1.3"/>
<line x1="478.53" y1="219.00" x2="488.53" y2="219.00" stroke="#9467bd" stroke-width="1.3"/>
<line x1="478.53" y1="216.86" x2="488.53" y2="216.86" stroke="#9467bd" stroke-width="1.3"/>
<circle cx="483.53" cy="217.93" r="4" fill="#9467bd" stroke="#ffffff" stroke-width="1"/>
<line x1="536.77" y1="198.80" x2="536.77" y2="195.91" stroke="#9467bd" stroke-width="1.3"/>
<line x1="531.77" y1="198.80" x2="541.77" y2="198.80" stroke="#9467bd" stroke-width="1.3"/>
<line x1="531.77" y1="195.91" x2="541.77" y2="195.91" stroke="#9467bd" stroke-width="1.3"/>
<circle cx="536.77" cy="197.36" r="4" fill="#9467bd" stroke="#ffffff" stroke-width="1"/>
<line x1="590.00" y1="180.68" x2="590.00" y2="178.85" stroke="#9467bd" stroke-width="1.3"/>
<line x1="585.00" y1="180.68" x2="595.00" y2="180.68" stroke="#9467bd" stroke-width="1.3"/>
<line x1="585.00" y1="178.85" x2="595.00" y2="178.85" stroke="#9467bd" stroke-width="1.3"/>
<circle cx="590.00" cy="179.77" r="4" fill="#9467bd" stroke="#ffffff" stroke-width="1"/>
<line x1="643.23" y1="164.79" x2="643.23" y2="162.19" stroke="#9467bd" stroke-width="1.3"/>
<line x1="638.23" y1="164.79" x2="648.23" y2="164.79" stroke="#9467bd" stroke-width="1.3"/>
<line x1="638.23" y1="162.19" x2="648.23" y2="162.19" stroke="#9467bd" stroke-width="1.3"/>
<circle cx="643.23" cy="163.49" r="4" fill="#9467bd" stroke="#ffffff" stroke-width="1"/>
<line x1="696.47" y1="151.94" x2="696.47" y2="149.44" stroke="#9467bd" stroke-width="1.3"/>
<line x1="691.47" y1="151.94" x2="701.47" y2="151.94" stroke="#9467bd" stroke-width="1.3"/>
<line x1="691.47" y1="149.44" x2="701.47" y2="149.44" stroke="#9467bd" stroke-width="1.3"/>
<circle cx="696.47" cy="150.69" r="4" fill="#9467bd" stroke="#ffffff" stroke-width="1"/>
<line x1="749.70" y1="140.39" x2="749.70" y2="139.02" stroke="#9467bd" stroke-width="1.3"/>
<line x1="744.70" y1="140.39" x2="754.70" y2="140.39" stroke="#9467bd" stroke-width="1.3"/>
<line x1="744.70" y1="139.02" x2="754.70" y2="139.02" stroke="#9467bd" stroke-width="1.3"/>
<circle cx="749.70" cy="139.70" r="4" fill="#9467bd" stroke="#ffffff" stroke-width="1"/>
<line x1="802.93" y1="130.60" x2="802.93" y2="128.66" stroke="#9467bd" stroke-width="1.3"/>
<line x1="797.93" y1="130.60" x2="807.93" y2="130.60" stroke="#9467bd" stroke-width="1.3"/>
<line x1="797.93" y1="128.66" x2="807.93" y2="128.66" stroke="#9467bd" stroke-width="1.3"/>
<circle cx="802.93" cy="129.63" r="4" fill="#9467bd" stroke="#ffffff" stroke-width="1"/>
<line x1="856.16" y1="121.16" x2="856.16" y2="119.57" stroke="#9467bd" stroke-width="1.3"/>
<line x1="851.16" y1="121.16" x2="861.16" y2="121.16" stroke="#9467bd" stroke-width="1.3"/>
<line x1="851.16" y1="119.57" x2="861.16" y2="119.57" stroke="#9467bd" stroke-width="1.3"/>
<circle cx="856.16" cy="120.37" r="4" fill="#9467bd" stroke="#ffffff" stroke-width="1"/>
<line x1="909.40" y1="113.60" x2="909.40" y2="112.25" stroke="#9467bd" stroke-width="1.3"/>
<line x1="904.40" y1="113.60" x2="914.40" y2="113.60" stroke="#9467bd" stroke-width="1.3"/>
<line x1="904.40" y1="112.25" x2="914.40" y2="112.25" stroke="#9467bd" stroke-width="1.3"/>
<circle cx="909.40" cy="112.92" r="4" fill="#9467bd" stroke="#ffffff" stroke-width="1"/>
<line x1="962.63" y1="106.41" x2="962.63" y2="105.11" stroke="#9467bd" stroke-width="1.3"/>
<line x1="957.63" y1="106.41" x2="967.63" y2="106.41" stroke="#9467bd" stroke-width="1.3"/>
<line x1="957.63" y1="105.11" x2="967.63" y2="105.11" stroke="#9467bd" stroke-width="1.3"/>
<circle cx="962.63" cy="105.76" r="4" fill="#9467bd" stroke="#ffffff" stroke-width="1"/>
<line x1="1015.86" y1="99.07" x2="1015.86" y2="98.69" stroke="#9467bd" stroke-width="1.3"/>
<line x1="1010.86" y1="99.07" x2="1020.86" y2="99.07" stroke="#9467bd" stroke-width="1.3"/>
<line x1="1010.86" y1="98.69" x2="1020.86" y2="98.69" stroke="#9467bd" stroke-width="1.3"/>
<circle cx="1015.86" cy="98.88" r="4" fill="#9467bd" stroke="#ffffff" stroke-width="1"/>
<polyline points="164.14,557.31 217.37,448.75 270.60,374.37 323.84,320.23 377.07,279.05 430.30,246.68 483.53,220.57 536.77,199.05 590.00,181.02 643.23,165.69 696.47,152.50 749.70,141.03 802.93,130.95 856.16,122.04 909.40,114.11 962.63,106.99 1015.86,100.57" fill="none" stroke="#111111" stroke-width="2.5" stroke-dasharray="8 6"/>
<circle cx="164.14" cy="557.31" r="4" fill="#111111" stroke="#ffffff" stroke-width="1"/>
<circle cx="217.37" cy="448.75" r="4" fill="#111111" stroke="#ffffff" stroke-width="1"/>
<circle cx="270.60" cy="374.37" r="4" fill="#111111" stroke="#ffffff" stroke-width="1"/>
<circle cx="323.84" cy="320.23" r="4" fill="#111111" stroke="#ffffff" stroke-width="1"/>
<circle cx="377.07" cy="279.05" r="4" fill="#111111" stroke="#ffffff" stroke-width="1"/>
<circle cx="430.30" cy="246.68" r="4" fill="#111111" stroke="#ffffff" stroke-width="1"/>
<circle cx="483.53" cy="220.57" r="4" fill="#111111" stroke="#ffffff" stroke-width="1"/>
<circle cx="536.77" cy="199.05" r="4" fill="#111111" stroke="#ffffff" stroke-width="1"/>
<circle cx="590.00" cy="181.02" r="4" fill="#111111" stroke="#ffffff" stroke-width="1"/>
<circle cx="643.23" cy="165.69" r="4" fill="#111111" stroke="#ffffff" stroke-width="1"/>
<circle cx="696.47" cy="152.50" r="4" fill="#111111" stroke="#ffffff" stroke-width="1"/>
<circle cx="749.70" cy="141.03" r="4" fill="#111111" stroke="#ffffff" stroke-width="1"/>
<circle cx="802.93" cy="130.95" r="4" fill="#111111" stroke="#ffffff" stroke-width="1"/>
<circle cx="856.16" cy="122.04" r="4" fill="#111111" stroke="#ffffff" stroke-width="1"/>
<circle cx="909.40" cy="114.11" r="4" fill="#111111" stroke="#ffffff" stroke-width="1"/>
<circle cx="962.63" cy="106.99" r="4" fill="#111111" stroke="#ffffff" stroke-width="1"/>
<circle cx="1015.86" cy="100.57" r="4" fill="#111111" stroke="#ffffff" stroke-width="1"/>
</svg>
