<svg xmlns="http://www.w3.org/2000/svg" width="1120" height="680" viewBox="0 0 1120 680">
<rect width="100%" height="100%" fill="#fbfbf8"/>
<text x="560.0" y="34" text-anchor="middle" font-family="sans-serif" font-size="24" fill="#222">Loopback: goodput vs payload</text>
<rect x="96" y="62" width="988" height="532" fill="#ffffff" stroke="#c9c9c1"/>
<line x1="96" y1="62.00" x2="1084" y2="62.00" stroke="#e8e8df"/>
<text x="86" y="66.00" text-anchor="end" font-family="sans-serif" font-size="12" fill="#4a4a45">997</text>
<line x1="96.00" y1="62" x2="96.00" y2="594" stroke="#f0f0e8"/>
<text x="96.00" y="618" text-anchor="middle" font-family="sans-serif" font-size="12" fill="#4a4a45">161</text>
<line x1="96" y1="168.40" x2="1084" y2="168.40" stroke="#e8e8df"/>
<text x="86" y="172.40" text-anchor="end" font-family="sans-serif" font-size="12" fill="#4a4a45">878</text>
<line x1="293.60" y1="62" x2="293.60" y2="594" stroke="#f0f0e8"/>
<text x="293.60" y="618" text-anchor="middle" font-family="sans-serif" font-size="12" fill="#4a4a45">436</text>
<line x1="96" y1="274.80" x2="1084" y2="274.80" stroke="#e8e8df"/>
<text x="86" y="278.80" text-anchor="end" font-family="sans-serif" font-size="12" fill="#4a4a45">759</text>
<line x1="491.20" y1="62" x2="491.20" y2="594" stroke="#f0f0e8"/>
<text x="491.20" y="618" text-anchor="middle" font-family="sans-serif" font-size="12" fill="#4a4a45">711</text>
<line x1="96" y1="381.20" x2="1084" y2="381.20" stroke="#e8e8df"/>
<text x="86" y="385.20" text-anchor="end" font-family="sans-serif" font-size="12" fill="#4a4a45">639</text>
<line x1="688.80" y1="62" x2="688.80" y2="594" stroke="#f0f0e8"/>
<text x="688.80" y="618" text-anchor="middle" font-family="sans-serif" font-size="12" fill="#4a4a45">985</text>
<line x1="96" y1="487.60" x2="1084" y2="487.60" stroke="#e8e8df"/>
<text x="86" y="491.60" text-anchor="end" font-family="sans-serif" font-size="12" fill="#4a4a45">520</text>
<line x1="886.40" y1="62" x2="886.40" y2="594" stroke="#f0f0e8"/>
<text x="886.40" y="618" text-anchor="middle" font-family="sans-serif" font-size="12" fill="#4a4a45">1260</text>
<line x1="96" y1="594.00" x2="1084" y2="594.00" stroke="#e8e8df"/>
<text x="86" y="598.00" text-anchor="end" font-family="sans-serif" font-size="12" fill="#4a4a45">401</text>
<line x1="1084.00" y1="62" x2="1084.00" y2="594" stroke="#f0f0e8"/>
<text x="1084.00" y="618" text-anchor="middle" font-family="sans-serif" font-size="12" fill="#4a4a45">1535</text>
<text x="590.0" y="656" text-anchor="middle" font-family="sans-serif" font-size="15" fill="#222">Payload size (bytes)</text>
<text transform="translate(26 328.0) rotate(-90)" text-anchor="middle" font-family="sans-serif" font-size="15" fill="#222">Goodput payload (Mbps)</text>
<line x1="112" y1="82" x2="138" y2="82" stroke="#2ca02c" stroke-width="3"/>
<text x="146" y="86" font-family="sans-serif" font-size="13" fill="#222">Goodput</text>
<line x1="112" y1="104" x2="138" y2="104" stroke="#111111" stroke-width="3" stroke-dasharray="8 6"/>
<text x="146" y="108" font-family="sans-serif" font-size="13" fill="#222">Teorico</text>
<polyline points="164.14,481.88 217.37,373.57 270.60,219.31 323.84,167.93 377.07,154.83 430.30,144.65 483.53,136.44 536.77,129.67 590.00,124.00 643.23,119.18 696.47,115.03 749.70,111.42 802.93,108.25 856.16,105.45 909.40,102.95 962.63,100.71 1015.86,98.69" fill="none" stroke="#2ca02c" stroke-width="2.5"/>
<line x1="164.14" y1="557.31" x2="164.14" y2="406.45" stroke="#2ca02c" stroke-width="1.3"/>
<line x1="159.14" y1="557.31" x2="169.14" y2="557.31" stroke="#2ca02c" stroke-width="1.3"/>
<line x1="159.14" y1="406.45" x2="169.14" y2="406.45" stroke="#2ca02c" stroke-width="1.3"/>
<circle cx="164.14" cy="481.88" r="4" fill="#2ca02c" stroke="#ffffff" stroke-width="1"/>
<line x1="217.37" y1="463.85" x2="217.37" y2="283.28" stroke="#2ca02c" stroke-width="1.3"/>
<line x1="212.37" y1="463.85" x2="222.37" y2="463.85" stroke="#2ca02c" stroke-width="1.3"/>
<line x1="212.37" y1="283.28" x2="222.37" y2="283.28" stroke="#2ca02c" stroke-width="1.3"/>
<circle cx="217.37" cy="373.57" r="4" fill="#2ca02c" stroke="#ffffff" stroke-width="1"/>
<line x1="270.60" y1="296.44" x2="270.60" y2="142.18" stroke="#2ca02c" stroke-width="1.3"/>
<line x1="265.60" y1="296.44" x2="275.60" y2="296.44" stroke="#2ca02c" stroke-width="1.3"/>
<line x1="265.60" y1="142.18" x2="275.60" y2="142.18" stroke="#2ca02c" stroke-width="1.3"/>
<circle cx="270.60" cy="219.31" r="4" fill="#2ca02c" stroke="#ffffff" stroke-width="1"/>
<line x1="323.84" y1="168.24" x2="323.84" y2="167.61" stroke="#2ca02c" stroke-width="1.3"/>
<line x1="318.84" y1="168.24" x2="328.84" y2="168.24" stroke="#2ca02c" stroke-width="1.3"/>
<line x1="318.84" y1="167.61" x2="328.84" y2="167.61" stroke="#2ca02c" stroke-width="1.3"/>
<circle cx="323.84" cy="167.93" r="4" fill="#2ca02c" stroke="#ffffff" stroke-width="1"/>
<line x1="377.07" y1="154.83" x2="377.07" y2="154.83" stroke="#2ca02c" stroke-width="1.3"/>
<line x1="372.07" y1="154.83" x2="382.07" y2="154.83" stroke="#2ca02c" stroke-width="1.3"/>
<line x1="372.07" y1="154.83" x2="382.07" y2="154.83" stroke="#2ca02c" stroke-width="1.3"/>
<circle cx="377.07" cy="154.83" r="4" fill="#2ca02c" stroke="#ffffff" stroke-width="1"/>
<line x1="430.30" y1="144.65" x2="430.30" y2="144.65" stroke="#2ca02c" stroke-width="1.3"/>
<line x1="425.30" y1="144.65" x2="435.30" y2="144.65" stroke="#2ca02c" stroke-width="1.3"/>
<line x1="425.30" y1="144.65" x2="435.30" y2="144.65" stroke="#2ca02c" stroke-width="1.3"/>
<circle cx="430.30" cy="144.65" r="4" fill="#2ca02c" stroke="#ffffff" stroke-width="1"/>
<line x1="483.53" y1="136.44" x2="483.53" y2="136.44" stroke="#2ca02c" stroke-width="1.3"/>
<line x1="478.53" y1="136.44" x2="488.53" y2="136.44" stroke="#2ca02c" stroke-width="1.3"/>
<line x1="478.53" y1="136.44" x2="488.53" y2="136.44" stroke="#2ca02c" stroke-width="1.3"/>
<circle cx="483.53" cy="136.44" r="4" fill="#2ca02c" stroke="#ffffff" stroke-width="1"/>
<line x1="536.77" y1="129.67" x2="536.77" y2="129.67" stroke="#2ca02c" stroke-width="1.3"/>
<line x1="531.77" y1="129.67" x2="541.77" y2="129.67" stroke="#2ca02c" stroke-width="1.3"/>
<line x1="531.77" y1="129.67" x2="541.77" y2="129.67" stroke="#2ca02c" stroke-width="1.3"/>
<circle cx="536.77" cy="129.67" r="4" fill="#2ca02c" stroke="#ffffff" stroke-width="1"/>
<line x1="590.00" y1="124.00" x2="590.00" y2="124.00" stroke="#2ca02c" stroke-width="1.3"/>
<line x1="585.00" y1="124.00" x2="595.00" y2="124.00" stroke="#2ca02c" stroke-width="1.3"/>
<line x1="585.00" y1="124.00" x2="595.00" y2="124.00" stroke="#2ca02c" stroke-width="1.3"/>
<circle cx="590.00" cy="124.00" r="4" fill="#2ca02c" stroke="#ffffff" stroke-width="1"/>
<line x1="643.23" y1="119.18" x2="643.23" y2="119.18" stroke="#2ca02c" stroke-width="1.3"/>
<line x1="638.23" y1="119.18" x2="648.23" y2="119.18" stroke="#2ca02c" stroke-width="1.3"/>
<line x1="638.23" y1="119.18" x2="648.23" y2="119.18" stroke="#2ca02c" stroke-width="1.3"/>
<circle cx="643.23" cy="119.18" r="4" fill="#2ca02c" stroke="#ffffff" stroke-width="1"/>
<line x1="696.47" y1="115.03" x2="696.47" y2="115.03" stroke="#2ca02c" stroke-width="1.3"/>
<line x1="691.47" y1="115.03" x2="701.47" y2="115.03" stroke="#2ca02c" stroke-width="1.3"/>
<line x1="691.47" y1="115.03" x2="701.47" y2="115.03" stroke="#2ca02c" stroke-width="1.3"/>
<circle cx="696.47" cy="115.03" r="4" fill="#2ca02c" stroke="#ffffff" stroke-width="1"/>
<line x1="749.70" y1="111.42" x2="749.70" y2="111.42" stroke="#2ca02c" stroke-width="1.3"/>
<line x1="744.70" y1="111.42" x2="754.70" y2="111.42" stroke="#2ca02c" stroke-width="1.3"/>
<line x1="744.70" y1="111.42" x2="754.70" y2="111.42" stroke="#2ca02c" stroke-width="1.3"/>
<circle cx="749.70" cy="111.42" r="4" fill="#2ca02c" stroke="#ffffff" stroke-width="1"/>
<line x1="802.93" y1="108.25" x2="802.93" y2="108.25" stroke="#2ca02c" stroke-width="1.3"/>
<line x1="797.93" y1="108.25" x2="807.93" y2="108.25" stroke="#2ca02c" stroke-width="1.3"/>
<line x1="797.93" y1="108.25" x2="807.93" y2="108.25" stroke="#2ca02c" stroke-width="1.3"/>
<circle cx="802.93" cy="108.25" r="4" fill="#2ca02c" stroke="#ffffff" stroke-width="1"/>
<line x1="856.16" y1="105.45" x2="856.16" y2="105.45" stroke="#2ca02c" stroke-width="1.3"/>
<line x1="851.16" y1="105.45" x2="861.16" y2="105.45" stroke="#2ca02c" stroke-width="1.3"/>
<line x1="851.16" y1="105.45" x2="861.16" y2="105.45" stroke="#2ca02c" stroke-width="1.3"/>
<circle cx="856.16" cy="105.45" r="4" fill="#2ca02c" stroke="#ffffff" stroke-width="1"/>
<line x1="909.40" y1="102.95" x2="909.40" y2="102.95" stroke="#2ca02c" stroke-width="1.3"/>
<line x1="904.40" y1="102.95" x2="914.40" y2="102.95" stroke="#2ca02c" stroke-width="1.3"/>
<line x1="904.40" y1="102.95" x2="914.40" y2="102.95" stroke="#2ca02c" stroke-width="1.3"/>
<circle cx="909.40" cy="102.95" r="4" fill="#2ca02c" stroke="#ffffff" stroke-width="1"/>
<line x1="962.63" y1="100.71" x2="962.63" y2="100.71" stroke="#2ca02c" stroke-width="1.3"/>
<line x1="957.63" y1="100.71" x2="967.63" y2="100.71" stroke="#2ca02c" stroke-width="1.3"/>
<line x1="957.63" y1="100.71" x2="967.63" y2="100.71" stroke="#2ca02c" stroke-width="1.3"/>
<circle cx="962.63" cy="100.71" r="4" fill="#2ca02c" stroke="#ffffff" stroke-width="1"/>
<line x1="1015.86" y1="98.69" x2="1015.86" y2="98.69" stroke="#2ca02c" stroke-width="1.3"/>
<line x1="1010.86" y1="98.69" x2="1020.86" y2="98.69" stroke="#2ca02c" stroke-width="1.3"/>
<line x1="1010.86" y1="98.69" x2="1020.86" y2="98.69" stroke="#2ca02c" stroke-width="1.3"/>
<circle cx="1015.86" cy="98.69" r="4" fill="#2ca02c" stroke="#ffffff" stroke-width="1"/>
<polyline points="164.14,242.36 217.37,208.21 270.60,184.82 323.84,167.79 377.07,154.83 430.30,144.65 483.53,136.44 536.77,129.67 590.00,124.00 643.23,119.18 696.47,115.03 749.70,111.42 802.93,108.25 856.16,105.45 909.40,102.95 962.63,100.71 1015.86,98.69" fill="none" stroke="#111111" stroke-width="2.5" stroke-dasharray="8 6"/>
<circle cx="164.14" cy="242.36" r="4" fill="#111111" stroke="#ffffff" stroke-width="1"/>
<circle cx="217.37" cy="208.21" r="4" fill="#111111" stroke="#ffffff" stroke-width="1"/>
<circle cx="270.60" cy="184.82" r="4" fill="#111111" stroke="#ffffff" stroke-width="1"/>
<circle cx="323.84" cy="167.79" r="4" fill="#111111" stroke="#ffffff" stroke-width="1"/>
<circle cx="377.07" cy="154.83" r="4" fill="#111111" stroke="#ffffff" stroke-width="1"/>
<circle cx="430.30" cy="144.65" r="4" fill="#111111" stroke="#ffffff" stroke-width="1"/>
<circle cx="483.53" cy="136.44" r="4" fill="#111111" stroke="#ffffff" stroke-width="1"/>
<circle cx="536.77" cy="129.67" r="4" fill="#111111" stroke="#ffffff" stroke-width="1"/>
<circle cx="590.00" cy="124.00" r="4" fill="#111111" stroke="#ffffff" stroke-width="1"/>
<circle cx="643.23" cy="119.18" r="4" fill="#111111" stroke="#ffffff" stroke-width="1"/>
<circle cx="696.47" cy="115.03" r="4" fill="#111111" stroke="#ffffff" stroke-width="1"/>
<circle cx="749.70" cy="111.42" r="4" fill="#111111" stroke="#ffffff" stroke-width="1"/>
<circle cx="802.93" cy="108.25" r="4" fill="#111111" stroke="#ffffff" stroke-width="1"/>
<circle cx="856.16" cy="105.45" r="4" fill="#111111" stroke="#ffffff" stroke-width="1"/>
<circle cx="909.40" cy="102.95" r="4" fill="#111111" stroke="#ffffff" stroke-width="1"/>
<circle cx="962.63" cy="100.71" r="4" fill="#111111" stroke="#ffffff" stroke-width="1"/>
<circle cx="1015.86" cy="98.69" r="4" fill="#111111" stroke="#ffffff" stroke-width="1"/>
</svg>
