<svg xmlns="http://www.w3.org/2000/svg" width="1120" height="680" viewBox="0 0 1120 680">
<rect width="100%" height="100%" fill="#fbfbf8"/>
<text x="560.0" y="34" text-anchor="middle" font-family="sans-serif" font-size="24" fill="#222">RTT vs payload</text>
<rect x="96" y="62" width="988" height="532" fill="#ffffff" stroke="#c9c9c1"/>
<line x1="96" y1="62.00" x2="1084" y2="62.00" stroke="#e8e8df"/>
<text x="86" y="66.00" text-anchor="end" font-family="sans-serif" font-size="12" fill="#4a4a45">0.172</text>
<line x1="96.00" y1="62" x2="96.00" y2="594" stroke="#f0f0e8"/>
<text x="96.00" y="618" text-anchor="middle" font-family="sans-serif" font-size="12" fill="#4a4a45">161</text>
<line x1="96" y1="168.40" x2="1084" y2="168.40" stroke="#e8e8df"/>
<text x="86" y="172.40" text-anchor="end" font-family="sans-serif" font-size="12" fill="#4a4a45">0.154</text>
<line x1="293.60" y1="62" x2="293.60" y2="594" stroke="#f0f0e8"/>
<text x="293.60" y="618" text-anchor="middle" font-family="sans-serif" font-size="12" fill="#4a4a45">436</text>
<line x1="96" y1="274.80" x2="1084" y2="274.80" stroke="#e8e8df"/>
<text x="86" y="278.80" text-anchor="end" font-family="sans-serif" font-size="12" fill="#4a4a45">0.136</text>
<line x1="491.20" y1="62" x2="491.20" y2="594" stroke="#f0f0e8"/>
<text x="491.20" y="618" text-anchor="middle" font-family="sans-serif" font-size="12" fill="#4a4a45">711</text>
<line x1="96" y1="381.20" x2="1084" y2="381.20" stroke="#e8e8df"/>
<text x="86" y="385.20" text-anchor="end" font-family="sans-serif" font-size="12" fill="#4a4a45">0.119</text>
<line x1="688.80" y1="62" x2="688.80" y2="594" stroke="#f0f0e8"/>
<text x="688.80" y="618" text-anchor="middle" font-family="sans-serif" font-size="12" fill="#4a4a45">985</text>
<line x1="96" y1="487.60" x2="1084" y2="487.60" stroke="#e8e8df"/>
<text x="86" y="491.60" text-anchor="end" font-family="sans-serif" font-size="12" fill="#4a4a45">0.101</text>
<line x1="886.40" y1="62" x2="886.40" y2="594" stroke="#f0f0e8"/>
<text x="886.40" y="618" text-anchor="middle" font-family="sans-serif" font-size="12" fill="#4a4a45">1260</text>
<line x1="96" y1="594.00" x2="1084" y2="594.00" stroke="#e8e8df"/>
<text x="86" y="598.00" text-anchor="end" font-family="sans-serif" font-size="12" fill="#4a4a45">0.0829</text>
<line x1="1084.00" y1="62" x2="1084.00" y2="594" stroke="#f0f0e8"/>
<text x="1084.00" y="618" text-anchor="middle" font-family="sans-serif" font-size="12" fill="#4a4a45">1535</text>
<text x="590.0" y="656" text-anchor="middle" font-family="sans-serif" font-size="15" fill="#222">Payload size (bytes)</text>
<text transform="translate(26 328.0) rotate(-90)" text-anchor="middle" font-family="sans-serif" font-size="15" fill="#222">RTT promedio (ms)</text>
<line x1="112" y1="82" x2="138" y2="82" stroke="#1f77b4" stroke-width="3"/>
<text x="146" y="86" font-family="sans-serif" font-size="13" fill="#222">RTT promedio</text>
<polyline points="164.14,555.55 217.37,525.05 270.60,485.81 323.84,458.05 377.07,434.33 430.30,372.82 483.53,350.40 536.77,324.23 590.00,302.29 643.23,274.20 696.47,247.04 749.70,221.77 802.93,192.71 856.16,166.70 909.40,144.79 962.63,122.24 1015.86,99.42" fill="none" stroke="#1f77b4" stroke-width="2.5"/>
<line x1="164.14" y1="557.31" x2="164.14" y2="553.80" stroke="#1f77b4" stroke-width="1.3"/>
<line x1="159.14" y1="557.31" x2="169.14" y2="557.31" stroke="#1f77b4" stroke-width="1.3"/>
<line x1="159.14" y1="553.80" x2="169.14" y2="553.80" stroke="#1f77b4" stroke-width="1.3"/>
<circle cx="164.14" cy="555.55" r="4" fill="#1f77b4" stroke="#ffffff" stroke-width="1"/>
<line x1="217.37" y1="533.77" x2="217.37" y2="516.32" stroke="#1f77b4" stroke-width="1.3"/>
<line x1="212.37" y1="533.77" x2="222.37" y2="533.77" stroke="#1f77b4" stroke-width="1.3"/>
<line x1="212.37" y1="516.32" x2="222.37" y2="516.32" stroke="#1f77b4" stroke-width="1.3"/>
<circle cx="217.37" cy="525.05" r="4" fill="#1f77b4" stroke="#ffffff" stroke-width="1"/>
<line x1="270.60" y1="490.28" x2="270.60" y2="481.34" stroke="#1f77b4" stroke-width="1.3"/>
<line x1="265.60" y1="490.28" x2="275.60" y2="490.28" stroke="#1f77b4" stroke-width="1.3"/>
<line x1="265.60" y1="481.34" x2="275.60" y2="481.34" stroke="#1f77b4" stroke-width="1.3"/>
<circle cx="270.60" cy="485.81" r="4" fill="#1f77b4" stroke="#ffffff" stroke-width="1"/>
<line x1="323.84" y1="460.56" x2="323.84" y2="455.53" stroke="#1f77b4" stroke-width="1.3"/>
<line x1="318.84" y1="460.56" x2="328.84" y2="460.56" stroke="#1f77b4" stroke-width="1.3"/>
<line x1="318.84" y1="455.53" x2="328.84" y2="455.53" stroke="#1f77b4" stroke-width="1.3"/>
<circle cx="323.84" cy="458.05" r="4" fill="#1f77b4" stroke="#ffffff" stroke-width="1"/>
<line x1="377.07" y1="436.72" x2="377.07" y2="431.93" stroke="#1f77b4" stroke-width="1.3"/>
<line x1="372.07" y1="436.72" x2="382.07" y2="436.72" stroke="#1f77b4" stroke-width="1.3"/>
<line x1="372.07" y1="431.93" x2="382.07" y2="431.93" stroke="#1f77b4" stroke-width="1.3"/>
<circle cx="377.07" cy="434.33" r="4" fill="#1f77b4" stroke="#ffffff" stroke-width="1"/>
<line x1="430.30" y1="374.48" x2="430.30" y2="371.17" stroke="#1f77b4" stroke-width="1.3"/>
<line x1="425.30" y1="374.48" x2="435.30" y2="374.48" stroke="#1f77b4" stroke-width="1.3"/>
<line x1="425.30" y1="371.17" x2="435.30" y2="371.17" stroke="#1f77b4" stroke-width="1.3"/>
<circle cx="430.30" cy="372.82" r="4" fill="#1f77b4" stroke="#ffffff" stroke-width="1"/>
<line x1="483.53" y1="352.17" x2="483.53" y2="348.63" stroke="#1f77b4" stroke-width="1.3"/>
<line x1="478.53" y1="352.17" x2="488.53" y2="352.17" stroke="#1f77b4" stroke-width="1.3"/>
<line x1="478.53" y1="348.63" x2="488.53" y2="348.63" stroke="#1f77b4" stroke-width="1.3"/>
<circle cx="483.53" cy="350.40" r="4" fill="#1f77b4" stroke="#ffffff" stroke-width="1"/>
<line x1="536.77" y1="325.73" x2="536.77" y2="322.72" stroke="#1f77b4" stroke-width="1.3"/>
<line x1="531.77" y1="325.73" x2="541.77" y2="325.73" stroke="#1f77b4" stroke-width="1.3"/>
<line x1="531.77" y1="322.72" x2="541.77" y2="322.72" stroke="#1f77b4" stroke-width="1.3"/>
<circle cx="536.77" cy="324.23" r="4" fill="#1f77b4" stroke="#ffffff" stroke-width="1"/>
<line x1="590.00" y1="303.80" x2="590.00" y2="300.78" stroke="#1f77b4" stroke-width="1.3"/>
<line x1="585.00" y1="303.80" x2="595.00" y2="303.80" stroke="#1f77b4" stroke-width="1.3"/>
<line x1="585.00" y1="300.78" x2="595.00" y2="300.78" stroke="#1f77b4" stroke-width="1.3"/>
<circle cx="590.00" cy="302.29" r="4" fill="#1f77b4" stroke="#ffffff" stroke-width="1"/>
<line x1="643.23" y1="280.82" x2="643.23" y2="267.58" stroke="#1f77b4" stroke-width="1.3"/>
<line x1="638.23" y1="280.82" x2="648.23" y2="280.82" stroke="#1f77b4" stroke-width="1.3"/>
<line x1="638.23" y1="267.58" x2="648.23" y2="267.58" stroke="#1f77b4" stroke-width="1.3"/>
<circle cx="643.23" cy="274.20" r="4" fill="#1f77b4" stroke="#ffffff" stroke-width="1"/>
<line x1="696.47" y1="254.40" x2="696.47" y2="239.69" stroke="#1f77b4" stroke-width="1.3"/>
<line x1="691.47" y1="254.40" x2="701.47" y2="254.40" stroke="#1f77b4" stroke-width="1.3"/>
<line x1="691.47" y1="239.69" x2="701.47" y2="239.69" stroke="#1f77b4" stroke-width="1.3"/>
<circle cx="696.47" cy="247.04" r="4" fill="#1f77b4" stroke="#ffffff" stroke-width="1"/>
<line x1="749.70" y1="226.45" x2="749.70" y2="217.09" stroke="#1f77b4" stroke-width="1.3"/>
<line x1="744.70" y1="226.45" x2="754.70" y2="226.45" stroke="#1f77b4" stroke-width="1.3"/>
<line x1="744.70" y1="217.09" x2="754.70" y2="217.09" stroke="#1f77b4" stroke-width="1.3"/>
<circle cx="749.70" cy="221.77" r="4" fill="#1f77b4" stroke="#ffffff" stroke-width="1"/>
<line x1="802.93" y1="199.94" x2="802.93" y2="185.48" stroke="#1f77b4" stroke-width="1.3"/>
<line x1="797.93" y1="199.94" x2="807.93" y2="199.94" stroke="#1f77b4" stroke-width="1.3"/>
<line x1="797.93" y1="185.48" x2="807.93" y2="185.48" stroke="#1f77b4" stroke-width="1.3"/>
<circle cx="802.93" cy="192.71" r="4" fill="#1f77b4" stroke="#ffffff" stroke-width="1"/>
<line x1="856.16" y1="173.88" x2="856.16" y2="159.52" stroke="#1f77b4" stroke-width="1.3"/>
<line x1="851.16" y1="173.88" x2="861.16" y2="173.88" stroke="#1f77b4" stroke-width="1.3"/>
<line x1="851.16" y1="159.52" x2="861.16" y2="159.52" stroke="#1f77b4" stroke-width="1.3"/>
<circle cx="856.16" cy="166.70" r="4" fill="#1f77b4" stroke="#ffffff" stroke-width="1"/>
<line x1="909.40" y1="152.26" x2="909.40" y2="137.32" stroke="#1f77b4" stroke-width="1.3"/>
<line x1="904.40" y1="152.26" x2="914.40" y2="152.26" stroke="#1f77b4" stroke-width="1.3"/>
<line x1="904.40" y1="137.32" x2="914.40" y2="137.32" stroke="#1f77b4" stroke-width="1.3"/>
<circle cx="909.40" cy="144.79" r="4" fill="#1f77b4" stroke="#ffffff" stroke-width="1"/>
<line x1="962.63" y1="126.07" x2="962.63" y2="118.40" stroke="#1f77b4" stroke-width="1.3"/>
<line x1="957.63" y1="126.07" x2="967.63" y2="126.07" stroke="#1f77b4" stroke-width="1.3"/>
<line x1="957.63" y1="118.40" x2="967.63" y2="118.40" stroke="#1f77b4" stroke-width="1.3"/>
<circle cx="962.63" cy="122.24" r="4" fill="#1f77b4" stroke="#ffffff" stroke-width="1"/>
<line x1="1015.86" y1="100.15" x2="1015.86" y2="98.69" stroke="#1f77b4" stroke-width="1.3"/>
<line x1="1010.86" y1="100.15" x2="1020.86" y2="100.15" stroke="#1f77b4" stroke-width="1.3"/>
<line x1="1010.86" y1="98.69" x2="1020.86" y2="98.69" stroke="#1f77b4" stroke-width="1.3"/>
<circle cx="1015.86" cy="99.42" r="4" fill="#1f77b4" stroke="#ffffff" stroke-width="1"/>
</svg>
