<svg xmlns="http://www.w3.org/2000/svg" width="1120" height="680" viewBox="0 0 1120 680">
<rect width="100%" height="100%" fill="#fbfbf8"/>
<text x="560.0" y="34" text-anchor="middle" font-family="sans-serif" font-size="24" fill="#222">Transmision FPGA: goodput vs payload</text>
<rect x="96" y="62" width="988" height="532" fill="#ffffff" stroke="#c9c9c1"/>
<line x1="96" y1="62.00" x2="1084" y2="62.00" stroke="#e8e8df"/>
<text x="86" y="66.00" text-anchor="end" font-family="sans-serif" font-size="12" fill="#4a4a45">969</text>
<line x1="96.00" y1="62" x2="96.00" y2="594" stroke="#f0f0e8"/>
<text x="96.00" y="618" text-anchor="middle" font-family="sans-serif" font-size="12" fill="#4a4a45">161</text>
<line x1="96" y1="168.40" x2="1084" y2="168.40" stroke="#e8e8df"/>
<text x="86" y="172.40" text-anchor="end" font-family="sans-serif" font-size="12" fill="#4a4a45">932</text>
<line x1="293.60" y1="62" x2="293.60" y2="594" stroke="#f0f0e8"/>
<text x="293.60" y="618" text-anchor="middle" font-family="sans-serif" font-size="12" fill="#4a4a45">436</text>
<line x1="96" y1="274.80" x2="1084" y2="274.80" stroke="#e8e8df"/>
<text x="86" y="278.80" text-anchor="end" font-family="sans-serif" font-size="12" fill="#4a4a45">894</text>
<line x1="491.20" y1="62" x2="491.20" y2="594" stroke="#f0f0e8"/>
<text x="491.20" y="618" text-anchor="middle" font-family="sans-serif" font-size="12" fill="#4a4a45">711</text>
<line x1="96" y1="381.20" x2="1084" y2="381.20" stroke="#e8e8df"/>
<text x="86" y="385.20" text-anchor="end" font-family="sans-serif" font-size="12" fill="#4a4a45">857</text>
<line x1="688.80" y1="62" x2="688.80" y2="594" stroke="#f0f0e8"/>
<text x="688.80" y="618" text-anchor="middle" font-family="sans-serif" font-size="12" fill="#4a4a45">985</text>
<line x1="96" y1="487.60" x2="1084" y2="487.60" stroke="#e8e8df"/>
<text x="86" y="491.60" text-anchor="end" font-family="sans-serif" font-size="12" fill="#4a4a45">820</text>
<line x1="886.40" y1="62" x2="886.40" y2="594" stroke="#f0f0e8"/>
<text x="886.40" y="618" text-anchor="middle" font-family="sans-serif" font-size="12" fill="#4a4a45">1260</text>
<line x1="96" y1="594.00" x2="1084" y2="594.00" stroke="#e8e8df"/>
<text x="86" y="598.00" text-anchor="end" font-family="sans-serif" font-size="12" fill="#4a4a45">782</text>
<line x1="1084.00" y1="62" x2="1084.00" y2="594" stroke="#f0f0e8"/>
<text x="1084.00" y="618" text-anchor="middle" font-family="sans-serif" font-size="12" fill="#4a4a45">1535</text>
<text x="590.0" y="656" text-anchor="middle" font-family="sans-serif" font-size="15" fill="#222">Payload size (bytes)</text>
<text transform="translate(26 328.0) rotate(-90)" text-anchor="middle" font-family="sans-serif" font-size="15" fill="#222">Goodput payload (Mbps)</text>
<line x1="112" y1="82" x2="138" y2="82" stroke="#9467bd" stroke-width="3"/>
<text x="146" y="86" font-family="sans-serif" font-size="13" fill="#222">Goodput</text>
<line x1="112" y1="104" x2="138" y2="104" stroke="#111111" stroke-width="3" stroke-dasharray="8 6"/>
<text x="146" y="108" font-family="sans-serif" font-size="13" fill="#222">Teorico</text>
<polyline points="164.14,556.75 217.37,448.00 270.60,373.41 323.84,319.11 377.07,277.80 430.30,245.40 483.53,219.11 536.77,197.54 590.00,179.49 643.23,164.12 696.47,150.85 749.70,139.30 802.93,129.27 856.16,120.37 909.40,112.41 962.63,105.19 1015.86,98.77" fill="none" stroke="#9467bd" stroke-width="2.5"/>
<line x1="164.14" y1="557.03" x2="164.14" y2="556.47" stroke="#9467bd" stroke-width="1.3"/>
<line x1="159.14" y1="557.03" x2="169.14" y2="557.03" stroke="#9467bd" stroke-width="1.3"/>
<line x1="159.14" y1="556.47" x2="169.14" y2="556.47" stroke="#9467bd" stroke-width="1.3"/>
<circle cx="164.14" cy="556.75" r="4" fill="#9467bd" stroke="#ffffff" stroke-width="1"/>
<line x1="217.37" y1="448.22" x2="217.37" y2="447.79" stroke="#9467bd" stroke-width="1.3"/>
<line x1="212.37" y1="448.22" x2="222.37" y2="448.22" stroke="#9467bd" stroke-width="1.3"/>
<line x1="212.37" y1="447.79" x2="222.37" y2="447.79" stroke="#9467bd" stroke-width="1.3"/>
<circle cx="217.37" cy="448.00" r="4" fill="#9467bd" stroke="#ffffff" stroke-width="1"/>
<line x1="270.60" y1="373.61" x2="270.60" y2="373.20" stroke="#9467bd" stroke-width="1.3"/>
<line x1="265.60" y1="373.61" x2="275.60" y2="373.61" stroke="#9467bd" stroke-width="1.3"/>
<line x1="265.60" y1="373.20" x2="275.60" y2="373.20" stroke="#9467bd" stroke-width="1.3"/>
<circle cx="270.60" cy="373.41" r="4" fill="#9467bd" stroke="#ffffff" stroke-width="1"/>
<line x1="323.84" y1="319.19" x2="323.84" y2="319.02" stroke="#9467bd" stroke-width="1.3"/>
<line x1="318.84" y1="319.19" x2="328.84" y2="319.19" stroke="#9467bd" stroke-width="1.3"/>
<line x1="318.84" y1="319.02" x2="328.84" y2="319.02" stroke="#9467bd" stroke-width="1.3"/>
<circle cx="323.84" cy="319.11" r="4" fill="#9467bd" stroke="#ffffff" stroke-width="1"/>
<line x1="377.07" y1="277.85" x2="377.07" y2="277.75" stroke="#9467bd" stroke-width="1.3"/>
<line x1="372.07" y1="277.85" x2="382.07" y2="277.85" stroke="#9467bd" stroke-width="1.3"/>
<line x1="372.07" y1="277.75" x2="382.07" y2="277.75" stroke="#9467bd" stroke-width="1.3"/>
<circle cx="377.07" cy="277.80" r="4" fill="#9467bd" stroke="#ffffff" stroke-width="1"/>
<line x1="430.30" y1="245.51" x2="430.30" y2="245.30" stroke="#9467bd" stroke-width="1.3"/>
<line x1="425.30" y1="245.51" x2="435.30" y2="245.51" stroke="#9467bd" stroke-width="1.3"/>
<line x1="425.30" y1="245.30" x2="435.30" y2="245.30" stroke="#9467bd" stroke-width="1.3"/>
<circle cx="430.30" cy="245.40" r="4" fill="#9467bd" stroke="#ffffff" stroke-width="1"/>
<line x1="483.53" y1="219.25" x2="483.53" y2="218.98" stroke="#9467bd" stroke-width="1.3"/>
<line x1="478.53" y1="219.25" x2="488.53" y2="219.25" stroke="#9467bd" stroke-width="1.3"/>
<line x1="478.53" y1="218.98" x2="488.53" y2="218.98" stroke="#9467bd" stroke-width="1.3"/>
<circle cx="483.53" cy="219.11" r="4" fill="#9467bd" stroke="#ffffff" stroke-width="1"/>
<line x1="536.77" y1="197.66" x2="536.77" y2="197.43" stroke="#9467bd" stroke-width="1.3"/>
<line x1="531.77" y1="197.66" x2="541.77" y2="197.66" stroke="#9467bd" stroke-width="1.3"/>
<line x1="531.77" y1="197.43" x2="541.77" y2="197.43" stroke="#9467bd" stroke-width="1.3"/>
<circle cx="536.77" cy="197.54" r="4" fill="#9467bd" stroke="#ffffff" stroke-width="1"/>
<line x1="590.00" y1="179.61" x2="590.00" y2="179.37" stroke="#9467bd" stroke-width="1.3"/>
<line x1="585.00" y1="179.61" x2="595.00" y2="179.61" stroke="#9467bd" stroke-width="1.3"/>
<line x1="585.00" y1="179.37" x2="595.00" y2="179.37" stroke="#9467bd" stroke-width="1.3"/>
<circle cx="590.00" cy="179.49" r="4" fill="#9467bd" stroke="#ffffff" stroke-width="1"/>
<line x1="643.23" y1="164.25" x2="643.23" y2="163.99" stroke="#9467bd" stroke-width="1.3"/>
<line x1="638.23" y1="164.25" x2="648.23" y2="164.25" stroke="#9467bd" stroke-width="1.3"/>
<line x1="638.23" y1="163.99" x2="648.23" y2="163.99" stroke="#9467bd" stroke-width="1.3"/>
<circle cx="643.23" cy="164.12" r="4" fill="#9467bd" stroke="#ffffff" stroke-width="1"/>
<line x1="696.47" y1="150.98" x2="696.47" y2="150.72" stroke="#9467bd" stroke-width="1.3"/>
<line x1="691.47" y1="150.98" x2="701.47" y2="150.98" stroke="#9467bd" stroke-width="1.3"/>
<line x1="691.47" y1="150.72" x2="701.47" y2="150.72" stroke="#9467bd" stroke-width="1.3"/>
<circle cx="696.47" cy="150.85" r="4" fill="#9467bd" stroke="#ffffff" stroke-width="1"/>
<line x1="749.70" y1="139.40" x2="749.70" y2="139.21" stroke="#9467bd" stroke-width="1.3"/>
<line x1="744.70" y1="139.40" x2="754.70" y2="139.40" stroke="#9467bd" stroke-width="1.3"/>
<line x1="744.70" y1="139.21" x2="754.70" y2="139.21" stroke="#9467bd" stroke-width="1.3"/>
<circle cx="749.70" cy="139.30" r="4" fill="#9467bd" stroke="#ffffff" stroke-width="1"/>
<line x1="802.93" y1="129.38" x2="802.93" y2="129.15" stroke="#9467bd" stroke-width="1.3"/>
<line x1="797.93" y1="129.38" x2="807.93" y2="129.38" stroke="#9467bd" stroke-width="1.3"/>
<line x1="797.93" y1="129.15" x2="807.93" y2="129.15" stroke="#9467bd" stroke-width="1.3"/>
<circle cx="802.93" cy="129.27" r="4" fill="#9467bd" stroke="#ffffff" stroke-width="1"/>
<line x1="856.16" y1="120.45" x2="856.16" y2="120.29" stroke="#9467bd" stroke-width="1.3"/>
<line x1="851.16" y1="120.45" x2="861.16" y2="120.45" stroke="#9467bd" stroke-width="1.3"/>
<line x1="851.16" y1="120.29" x2="861.16" y2="120.29" stroke="#9467bd" stroke-width="1.3"/>
<circle cx="856.16" cy="120.37" r="4" fill="#9467bd" stroke="#ffffff" stroke-width="1"/>
<line x1="909.40" y1="112.47" x2="909.40" y2="112.35" stroke="#9467bd" stroke-width="1.3"/>
<line x1="904.40" y1="112.47" x2="914.40" y2="112.47" stroke="#9467bd" stroke-width="1.3"/>
<line x1="904.40" y1="112.35" x2="914.40" y2="112.35" stroke="#9467bd" stroke-width="1.3"/>
<circle cx="909.40" cy="112.41" r="4" fill="#9467bd" stroke="#ffffff" stroke-width="1"/>
<line x1="962.63" y1="105.26" x2="962.63" y2="105.13" stroke="#9467bd" stroke-width="1.3"/>
<line x1="957.63" y1="105.26" x2="967.63" y2="105.26" stroke="#9467bd" stroke-width="1.3"/>
<line x1="957.63" y1="105.13" x2="967.63" y2="105.13" stroke="#9467bd" stroke-width="1.3"/>
<circle cx="962.63" cy="105.19" r="4" fill="#9467bd" stroke="#ffffff" stroke-width="1"/>
<line x1="1015.86" y1="98.84" x2="1015.86" y2="98.69" stroke="#9467bd" stroke-width="1.3"/>
<line x1="1010.86" y1="98.84" x2="1020.86" y2="98.84" stroke="#9467bd" stroke-width="1.3"/>
<line x1="1010.86" y1="98.69" x2="1020.86" y2="98.69" stroke="#9467bd" stroke-width="1.3"/>
<circle cx="1015.86" cy="98.77" r="4" fill="#9467bd" stroke="#ffffff" stroke-width="1"/>
<polyline points="164.14,557.31 217.37,448.35 270.60,373.71 323.84,319.37 377.07,278.04 430.30,245.55 483.53,219.34 536.77,197.75 590.00,179.66 643.23,164.27 696.47,151.03 749.70,139.51 802.93,129.41 856.16,120.46 909.40,112.50 962.63,105.35 1015.86,98.91" fill="none" stroke="#111111" stroke-width="2.5" stroke-dasharray="8 6"/>
<circle cx="164.14" cy="557.31" r="4" fill="#111111" stroke="#ffffff" stroke-width="1"/>
<circle cx="217.37" cy="448.35" r="4" fill="#111111" stroke="#ffffff" stroke-width="1"/>
<circle cx="270.60" cy="373.71" r="4" fill="#111111" stroke="#ffffff" stroke-width="1"/>
<circle cx="323.84" cy="319.37" r="4" fill="#111111" stroke="#ffffff" stroke-width="1"/>
<circle cx="377.07" cy="278.04" r="4" fill="#111111" stroke="#ffffff" stroke-width="1"/>
<circle cx="430.30" cy="245.55" r="4" fill="#111111" stroke="#ffffff" stroke-width="1"/>
<circle cx="483.53" cy="219.34" r="4" fill="#111111" stroke="#ffffff" stroke-width="1"/>
<circle cx="536.77" cy="197.75" r="4" fill="#111111" stroke="#ffffff" stroke-width="1"/>
<circle cx="590.00" cy="179.66" r="4" fill="#111111" stroke="#ffffff" stroke-width="1"/>
<circle cx="643.23" cy="164.27" r="4" fill="#111111" stroke="#ffffff" stroke-width="1"/>
<circle cx="696.47" cy="151.03" r="4" fill="#111111" stroke="#ffffff" stroke-width="1"/>
<circle cx="749.70" cy="139.51" r="4" fill="#111111" stroke="#ffffff" stroke-width="1"/>
<circle cx="802.93" cy="129.41" r="4" fill="#111111" stroke="#ffffff" stroke-width="1"/>
<circle cx="856.16" cy="120.46" r="4" fill="#111111" stroke="#ffffff" stroke-width="1"/>
<circle cx="909.40" cy="112.50" r="4" fill="#111111" stroke="#ffffff" stroke-width="1"/>
<circle cx="962.63" cy="105.35" r="4" fill="#111111" stroke="#ffffff" stroke-width="1"/>
<circle cx="1015.86" cy="98.91" r="4" fill="#111111" stroke="#ffffff" stroke-width="1"/>
</svg>
