<svg xmlns="http://www.w3.org/2000/svg" width="1120" height="760" viewBox="0 0 1120 760">
<rect width="100%" height="100%" fill="#fbfbf8"/>
<text x="560.0" y="34" text-anchor="middle" font-family="sans-serif" font-size="24" fill="#222">Pérdida vs. payload</text>
<rect x="96" y="106" width="988" height="562" fill="#ffffff" stroke="#c9c9c1"/>
<line x1="96" y1="106.00" x2="1084" y2="106.00" stroke="#a9aba3" stroke-width="1.35"/>
<text x="86" y="110.00" text-anchor="end" font-family="sans-serif" font-size="13" font-weight="400" fill="#292925">0.0769</text>
<line x1="96" y1="199.67" x2="1084" y2="199.67" stroke="#a9aba3" stroke-width="1.35"/>
<text x="86" y="203.67" text-anchor="end" font-family="sans-serif" font-size="13" font-weight="400" fill="#292925">0.0611</text>
<line x1="96" y1="293.33" x2="1084" y2="293.33" stroke="#a9aba3" stroke-width="1.35"/>
<text x="86" y="297.33" text-anchor="end" font-family="sans-serif" font-size="13" font-weight="400" fill="#292925">0.0452</text>
<line x1="96" y1="387.00" x2="1084" y2="387.00" stroke="#a9aba3" stroke-width="1.35"/>
<text x="86" y="391.00" text-anchor="end" font-family="sans-serif" font-size="13" font-weight="400" fill="#292925">0.0293</text>
<line x1="96" y1="480.67" x2="1084" y2="480.67" stroke="#a9aba3" stroke-width="1.35"/>
<text x="86" y="484.67" text-anchor="end" font-family="sans-serif" font-size="13" font-weight="400" fill="#292925">0.0135</text>
<line x1="96" y1="574.33" x2="1084" y2="574.33" stroke="#a9aba3" stroke-width="1.35"/>
<text x="86" y="578.33" text-anchor="end" font-family="sans-serif" font-size="13" font-weight="400" fill="#292925">-0.0024</text>
<line x1="96" y1="668.00" x2="1084" y2="668.00" stroke="#a9aba3" stroke-width="1.35"/>
<text x="86" y="672.00" text-anchor="end" font-family="sans-serif" font-size="13" font-weight="400" fill="#292925">-0.0183</text>
<line x1="96" y1="560.10" x2="1084" y2="560.10" stroke="#676761" stroke-width="1.8"/>
<text x="86" y="564.10" text-anchor="end" font-family="sans-serif" font-size="12" font-weight="600" fill="#222">0</text>
<line x1="116.71" y1="106" x2="116.71" y2="668" stroke="#b4b6ae" stroke-width="1.25"/>
<text x="116.71" y="690" text-anchor="middle" font-family="sans-serif" font-size="11" font-weight="500" fill="#292925">256</text>
<line x1="175.87" y1="106" x2="175.87" y2="668" stroke="#b4b6ae" stroke-width="1.25"/>
<text x="175.87" y="690" text-anchor="middle" font-family="sans-serif" font-size="11" font-weight="500" fill="#292925">330</text>
<line x1="235.03" y1="106" x2="235.03" y2="668" stroke="#b4b6ae" stroke-width="1.25"/>
<text x="235.03" y="690" text-anchor="middle" font-family="sans-serif" font-size="11" font-weight="500" fill="#292925">404</text>
<line x1="294.19" y1="106" x2="294.19" y2="668" stroke="#b4b6ae" stroke-width="1.25"/>
<text x="294.19" y="690" text-anchor="middle" font-family="sans-serif" font-size="11" font-weight="500" fill="#292925">478</text>
<line x1="353.35" y1="106" x2="353.35" y2="668" stroke="#b4b6ae" stroke-width="1.25"/>
<text x="353.35" y="690" text-anchor="middle" font-family="sans-serif" font-size="11" font-weight="500" fill="#292925">552</text>
<line x1="412.51" y1="106" x2="412.51" y2="668" stroke="#b4b6ae" stroke-width="1.25"/>
<text x="412.51" y="690" text-anchor="middle" font-family="sans-serif" font-size="11" font-weight="500" fill="#292925">626</text>
<line x1="471.68" y1="106" x2="471.68" y2="668" stroke="#b4b6ae" stroke-width="1.25"/>
<text x="471.68" y="690" text-anchor="middle" font-family="sans-serif" font-size="11" font-weight="500" fill="#292925">700</text>
<line x1="530.84" y1="106" x2="530.84" y2="668" stroke="#b4b6ae" stroke-width="1.25"/>
<text x="530.84" y="690" text-anchor="middle" font-family="sans-serif" font-size="11" font-weight="500" fill="#292925">774</text>
<line x1="590.00" y1="106" x2="590.00" y2="668" stroke="#b4b6ae" stroke-width="1.25"/>
<text x="590.00" y="690" text-anchor="middle" font-family="sans-serif" font-size="11" font-weight="500" fill="#292925">848</text>
<line x1="649.16" y1="106" x2="649.16" y2="668" stroke="#b4b6ae" stroke-width="1.25"/>
<text x="649.16" y="690" text-anchor="middle" font-family="sans-serif" font-size="11" font-weight="500" fill="#292925">922</text>
<line x1="708.32" y1="106" x2="708.32" y2="668" stroke="#b4b6ae" stroke-width="1.25"/>
<text x="708.32" y="690" text-anchor="middle" font-family="sans-serif" font-size="11" font-weight="500" fill="#292925">996</text>
<line x1="767.49" y1="106" x2="767.49" y2="668" stroke="#b4b6ae" stroke-width="1.25"/>
<text x="767.49" y="690" text-anchor="middle" font-family="sans-serif" font-size="11" font-weight="500" fill="#292925">1070</text>
<line x1="826.65" y1="106" x2="826.65" y2="668" stroke="#b4b6ae" stroke-width="1.25"/>
<text x="826.65" y="690" text-anchor="middle" font-family="sans-serif" font-size="11" font-weight="500" fill="#292925">1144</text>
<line x1="885.81" y1="106" x2="885.81" y2="668" stroke="#b4b6ae" stroke-width="1.25"/>
<text x="885.81" y="690" text-anchor="middle" font-family="sans-serif" font-size="11" font-weight="500" fill="#292925">1218</text>
<line x1="944.97" y1="106" x2="944.97" y2="668" stroke="#b4b6ae" stroke-width="1.25"/>
<text x="944.97" y="690" text-anchor="middle" font-family="sans-serif" font-size="11" font-weight="500" fill="#292925">1292</text>
<line x1="1004.13" y1="106" x2="1004.13" y2="668" stroke="#b4b6ae" stroke-width="1.25"/>
<text x="1004.13" y="690" text-anchor="middle" font-family="sans-serif" font-size="11" font-weight="500" fill="#292925">1366</text>
<line x1="1063.29" y1="106" x2="1063.29" y2="668" stroke="#b4b6ae" stroke-width="1.25"/>
<text x="1063.29" y="690" text-anchor="middle" font-family="sans-serif" font-size="11" font-weight="500" fill="#292925">1440</text>
<text x="590.0" y="736" text-anchor="middle" font-family="sans-serif" font-size="17" font-weight="600" fill="#171715">Tamaño del payload (bytes)</text>
<text transform="translate(24 387.0) rotate(-90)" text-anchor="middle" font-family="sans-serif" font-size="17" font-weight="600" fill="#171715">Pérdida (%)</text>
<line x1="96.0" y1="64" x2="122.0" y2="64" stroke="#2ca02c" stroke-width="3"/>
<text x="130.0" y="68" font-family="sans-serif" font-size="13" fill="#222">Interfaz a FPGA</text>
<line x1="590.0" y1="64" x2="616.0" y2="64" stroke="#9467bd" stroke-width="3" stroke-dasharray="8 6"/>
<text x="624.0" y="68" font-family="sans-serif" font-size="13" fill="#222">FPGA a interfaz</text>
<polyline points="116.71,416.52 175.87,532.59 235.03,509.09 294.19,387.00 353.35,520.66 412.51,485.95 471.68,395.27 530.84,455.60 590.00,513.58 649.16,261.72 708.32,399.87 767.49,345.67 826.65,264.32 885.81,347.44 944.97,345.32 1004.13,406.01 1063.29,372.95" fill="none" stroke="#2ca02c" stroke-width="2.5"/>
<line x1="116.71" y1="434.86" x2="116.71" y2="398.18" stroke="#2ca02c" stroke-width="1.3"/>
<line x1="111.71" y1="434.86" x2="121.71" y2="434.86" stroke="#2ca02c" stroke-width="1.3"/>
<line x1="111.71" y1="398.18" x2="121.71" y2="398.18" stroke="#2ca02c" stroke-width="1.3"/>
<circle cx="116.71" cy="416.52" r="4" fill="#2ca02c" stroke="#ffffff" stroke-width="1"/>
<line x1="175.87" y1="542.64" x2="175.87" y2="522.53" stroke="#2ca02c" stroke-width="1.3"/>
<line x1="170.87" y1="542.64" x2="180.87" y2="542.64" stroke="#2ca02c" stroke-width="1.3"/>
<line x1="170.87" y1="522.53" x2="180.87" y2="522.53" stroke="#2ca02c" stroke-width="1.3"/>
<circle cx="175.87" cy="532.59" r="4" fill="#2ca02c" stroke="#ffffff" stroke-width="1"/>
<line x1="235.03" y1="512.42" x2="235.03" y2="505.76" stroke="#2ca02c" stroke-width="1.3"/>
<line x1="230.03" y1="512.42" x2="240.03" y2="512.42" stroke="#2ca02c" stroke-width="1.3"/>
<line x1="230.03" y1="505.76" x2="240.03" y2="505.76" stroke="#2ca02c" stroke-width="1.3"/>
<circle cx="235.03" cy="509.09" r="4" fill="#2ca02c" stroke="#ffffff" stroke-width="1"/>
<line x1="294.19" y1="629.24" x2="294.19" y2="144.76" stroke="#2ca02c" stroke-width="1.3"/>
<line x1="289.19" y1="629.24" x2="299.19" y2="629.24" stroke="#2ca02c" stroke-width="1.3"/>
<line x1="289.19" y1="144.76" x2="299.19" y2="144.76" stroke="#2ca02c" stroke-width="1.3"/>
<circle cx="294.19" cy="387.00" r="4" fill="#2ca02c" stroke="#ffffff" stroke-width="1"/>
<line x1="353.35" y1="523.90" x2="353.35" y2="517.42" stroke="#2ca02c" stroke-width="1.3"/>
<line x1="348.35" y1="523.90" x2="358.35" y2="523.90" stroke="#2ca02c" stroke-width="1.3"/>
<line x1="348.35" y1="517.42" x2="358.35" y2="517.42" stroke="#2ca02c" stroke-width="1.3"/>
<circle cx="353.35" cy="520.66" r="4" fill="#2ca02c" stroke="#ffffff" stroke-width="1"/>
<line x1="412.51" y1="493.90" x2="412.51" y2="478.00" stroke="#2ca02c" stroke-width="1.3"/>
<line x1="407.51" y1="493.90" x2="417.51" y2="493.90" stroke="#2ca02c" stroke-width="1.3"/>
<line x1="407.51" y1="478.00" x2="417.51" y2="478.00" stroke="#2ca02c" stroke-width="1.3"/>
<circle cx="412.51" cy="485.95" r="4" fill="#2ca02c" stroke="#ffffff" stroke-width="1"/>
<line x1="471.68" y1="490.05" x2="471.68" y2="300.48" stroke="#2ca02c" stroke-width="1.3"/>
<line x1="466.68" y1="490.05" x2="476.68" y2="490.05" stroke="#2ca02c" stroke-width="1.3"/>
<line x1="466.68" y1="300.48" x2="476.68" y2="300.48" stroke="#2ca02c" stroke-width="1.3"/>
<circle cx="471.68" cy="395.27" r="4" fill="#2ca02c" stroke="#ffffff" stroke-width="1"/>
<line x1="530.84" y1="460.96" x2="530.84" y2="450.24" stroke="#2ca02c" stroke-width="1.3"/>
<line x1="525.84" y1="460.96" x2="535.84" y2="460.96" stroke="#2ca02c" stroke-width="1.3"/>
<line x1="525.84" y1="450.24" x2="535.84" y2="450.24" stroke="#2ca02c" stroke-width="1.3"/>
<circle cx="530.84" cy="455.60" r="4" fill="#2ca02c" stroke="#ffffff" stroke-width="1"/>
<line x1="590.00" y1="519.49" x2="590.00" y2="507.67" stroke="#2ca02c" stroke-width="1.3"/>
<line x1="585.00" y1="519.49" x2="595.00" y2="519.49" stroke="#2ca02c" stroke-width="1.3"/>
<line x1="585.00" y1="507.67" x2="595.00" y2="507.67" stroke="#2ca02c" stroke-width="1.3"/>
<circle cx="590.00" cy="513.58" r="4" fill="#2ca02c" stroke="#ffffff" stroke-width="1"/>
<line x1="649.16" y1="279.81" x2="649.16" y2="243.64" stroke="#2ca02c" stroke-width="1.3"/>
<line x1="644.16" y1="279.81" x2="654.16" y2="279.81" stroke="#2ca02c" stroke-width="1.3"/>
<line x1="644.16" y1="243.64" x2="654.16" y2="243.64" stroke="#2ca02c" stroke-width="1.3"/>
<circle cx="649.16" cy="261.72" r="4" fill="#2ca02c" stroke="#ffffff" stroke-width="1"/>
<line x1="708.32" y1="434.82" x2="708.32" y2="364.92" stroke="#2ca02c" stroke-width="1.3"/>
<line x1="703.32" y1="434.82" x2="713.32" y2="434.82" stroke="#2ca02c" stroke-width="1.3"/>
<line x1="703.32" y1="364.92" x2="713.32" y2="364.92" stroke="#2ca02c" stroke-width="1.3"/>
<circle cx="708.32" cy="399.87" r="4" fill="#2ca02c" stroke="#ffffff" stroke-width="1"/>
<line x1="767.49" y1="361.12" x2="767.49" y2="330.23" stroke="#2ca02c" stroke-width="1.3"/>
<line x1="762.49" y1="361.12" x2="772.49" y2="361.12" stroke="#2ca02c" stroke-width="1.3"/>
<line x1="762.49" y1="330.23" x2="772.49" y2="330.23" stroke="#2ca02c" stroke-width="1.3"/>
<circle cx="767.49" cy="345.67" r="4" fill="#2ca02c" stroke="#ffffff" stroke-width="1"/>
<line x1="826.65" y1="276.31" x2="826.65" y2="252.33" stroke="#2ca02c" stroke-width="1.3"/>
<line x1="821.65" y1="276.31" x2="831.65" y2="276.31" stroke="#2ca02c" stroke-width="1.3"/>
<line x1="821.65" y1="252.33" x2="831.65" y2="252.33" stroke="#2ca02c" stroke-width="1.3"/>
<circle cx="826.65" cy="264.32" r="4" fill="#2ca02c" stroke="#ffffff" stroke-width="1"/>
<line x1="885.81" y1="356.76" x2="885.81" y2="338.13" stroke="#2ca02c" stroke-width="1.3"/>
<line x1="880.81" y1="356.76" x2="890.81" y2="356.76" stroke="#2ca02c" stroke-width="1.3"/>
<line x1="880.81" y1="338.13" x2="890.81" y2="338.13" stroke="#2ca02c" stroke-width="1.3"/>
<circle cx="885.81" cy="347.44" r="4" fill="#2ca02c" stroke="#ffffff" stroke-width="1"/>
<line x1="944.97" y1="355.36" x2="944.97" y2="335.28" stroke="#2ca02c" stroke-width="1.3"/>
<line x1="939.97" y1="355.36" x2="949.97" y2="355.36" stroke="#2ca02c" stroke-width="1.3"/>
<line x1="939.97" y1="335.28" x2="949.97" y2="335.28" stroke="#2ca02c" stroke-width="1.3"/>
<circle cx="944.97" cy="345.32" r="4" fill="#2ca02c" stroke="#ffffff" stroke-width="1"/>
<line x1="1004.13" y1="464.93" x2="1004.13" y2="347.09" stroke="#2ca02c" stroke-width="1.3"/>
<line x1="999.13" y1="464.93" x2="1009.13" y2="464.93" stroke="#2ca02c" stroke-width="1.3"/>
<line x1="999.13" y1="347.09" x2="1009.13" y2="347.09" stroke="#2ca02c" stroke-width="1.3"/>
<circle cx="1004.13" cy="406.01" r="4" fill="#2ca02c" stroke="#ffffff" stroke-width="1"/>
<line x1="1063.29" y1="387.63" x2="1063.29" y2="358.27" stroke="#2ca02c" stroke-width="1.3"/>
<line x1="1058.29" y1="387.63" x2="1068.29" y2="387.63" stroke="#2ca02c" stroke-width="1.3"/>
<line x1="1058.29" y1="358.27" x2="1068.29" y2="358.27" stroke="#2ca02c" stroke-width="1.3"/>
<circle cx="1063.29" cy="372.95" r="4" fill="#2ca02c" stroke="#ffffff" stroke-width="1"/>
<polyline points="116.71,560.10 175.87,560.10 235.03,560.10 294.19,560.10 353.35,560.10 412.51,560.10 471.68,560.10 530.84,560.10 590.00,560.10 649.16,560.10 708.32,560.10 767.49,560.10 826.65,560.10 885.81,560.10 944.97,560.10 1004.13,560.10 1063.29,560.10" fill="none" stroke="#9467bd" stroke-width="2.5" stroke-dasharray="8 6"/>
<circle cx="116.71" cy="560.10" r="4" fill="#9467bd" stroke="#ffffff" stroke-width="1"/>
<circle cx="175.87" cy="560.10" r="4" fill="#9467bd" stroke="#ffffff" stroke-width="1"/>
<circle cx="235.03" cy="560.10" r="4" fill="#9467bd" stroke="#ffffff" stroke-width="1"/>
<circle cx="294.19" cy="560.10" r="4" fill="#9467bd" stroke="#ffffff" stroke-width="1"/>
<circle cx="353.35" cy="560.10" r="4" fill="#9467bd" stroke="#ffffff" stroke-width="1"/>
<circle cx="412.51" cy="560.10" r="4" fill="#9467bd" stroke="#ffffff" stroke-width="1"/>
<circle cx="471.68" cy="560.10" r="4" fill="#9467bd" stroke="#ffffff" stroke-width="1"/>
<circle cx="530.84" cy="560.10" r="4" fill="#9467bd" stroke="#ffffff" stroke-width="1"/>
<circle cx="590.00" cy="560.10" r="4" fill="#9467bd" stroke="#ffffff" stroke-width="1"/>
<circle cx="649.16" cy="560.10" r="4" fill="#9467bd" stroke="#ffffff" stroke-width="1"/>
<circle cx="708.32" cy="560.10" r="4" fill="#9467bd" stroke="#ffffff" stroke-width="1"/>
<circle cx="767.49" cy="560.10" r="4" fill="#9467bd" stroke="#ffffff" stroke-width="1"/>
<circle cx="826.65" cy="560.10" r="4" fill="#9467bd" stroke="#ffffff" stroke-width="1"/>
<circle cx="885.81" cy="560.10" r="4" fill="#9467bd" stroke="#ffffff" stroke-width="1"/>
<circle cx="944.97" cy="560.10" r="4" fill="#9467bd" stroke="#ffffff" stroke-width="1"/>
<circle cx="1004.13" cy="560.10" r="4" fill="#9467bd" stroke="#ffffff" stroke-width="1"/>
<circle cx="1063.29" cy="560.10" r="4" fill="#9467bd" stroke="#ffffff" stroke-width="1"/>
</svg>
