<svg xmlns="http://www.w3.org/2000/svg" width="1120" height="760" viewBox="0 0 1120 760">
<rect width="100%" height="100%" fill="#fbfbf8"/>
<text x="560.0" y="34" text-anchor="middle" font-family="sans-serif" font-size="24" fill="#222">RTT entre interfaz y FPGA vs. payload</text>
<rect x="96" y="130" width="988" height="538" fill="#ffffff" stroke="#c9c9c1"/>
<line x1="96" y1="130.00" x2="1084" y2="130.00" stroke="#a9aba3" stroke-width="1.35"/>
<text x="86" y="134.00" text-anchor="end" font-family="sans-serif" font-size="13" font-weight="400" fill="#292925">1.55</text>
<line x1="96" y1="219.67" x2="1084" y2="219.67" stroke="#a9aba3" stroke-width="1.35"/>
<text x="86" y="223.67" text-anchor="end" font-family="sans-serif" font-size="13" font-weight="400" fill="#292925">1.29</text>
<line x1="96" y1="309.33" x2="1084" y2="309.33" stroke="#a9aba3" stroke-width="1.35"/>
<text x="86" y="313.33" text-anchor="end" font-family="sans-serif" font-size="13" font-weight="400" fill="#292925">1.03</text>
<line x1="96" y1="399.00" x2="1084" y2="399.00" stroke="#a9aba3" stroke-width="1.35"/>
<text x="86" y="403.00" text-anchor="end" font-family="sans-serif" font-size="13" font-weight="400" fill="#292925">0.7732</text>
<line x1="96" y1="488.67" x2="1084" y2="488.67" stroke="#a9aba3" stroke-width="1.35"/>
<text x="86" y="492.67" text-anchor="end" font-family="sans-serif" font-size="13" font-weight="400" fill="#292925">0.5155</text>
<line x1="96" y1="578.33" x2="1084" y2="578.33" stroke="#a9aba3" stroke-width="1.35"/>
<text x="86" y="582.33" text-anchor="end" font-family="sans-serif" font-size="13" font-weight="400" fill="#292925">0.2577</text>
<line x1="96" y1="668.00" x2="1084" y2="668.00" stroke="#4f504b" stroke-width="2.2"/>
<text x="86" y="672.00" text-anchor="end" font-family="sans-serif" font-size="13" font-weight="600" fill="#292925">0</text>
<line x1="116.71" y1="130" x2="116.71" y2="668" stroke="#b4b6ae" stroke-width="1.25"/>
<text x="116.71" y="690" text-anchor="middle" font-family="sans-serif" font-size="11" font-weight="500" fill="#292925">256</text>
<line x1="175.87" y1="130" x2="175.87" y2="668" stroke="#b4b6ae" stroke-width="1.25"/>
<text x="175.87" y="690" text-anchor="middle" font-family="sans-serif" font-size="11" font-weight="500" fill="#292925">330</text>
<line x1="235.03" y1="130" x2="235.03" y2="668" stroke="#b4b6ae" stroke-width="1.25"/>
<text x="235.03" y="690" text-anchor="middle" font-family="sans-serif" font-size="11" font-weight="500" fill="#292925">404</text>
<line x1="294.19" y1="130" x2="294.19" y2="668" stroke="#b4b6ae" stroke-width="1.25"/>
<text x="294.19" y="690" text-anchor="middle" font-family="sans-serif" font-size="11" font-weight="500" fill="#292925">478</text>
<line x1="353.35" y1="130" x2="353.35" y2="668" stroke="#b4b6ae" stroke-width="1.25"/>
<text x="353.35" y="690" text-anchor="middle" font-family="sans-serif" font-size="11" font-weight="500" fill="#292925">552</text>
<line x1="412.51" y1="130" x2="412.51" y2="668" stroke="#b4b6ae" stroke-width="1.25"/>
<text x="412.51" y="690" text-anchor="middle" font-family="sans-serif" font-size="11" font-weight="500" fill="#292925">626</text>
<line x1="471.68" y1="130" x2="471.68" y2="668" stroke="#b4b6ae" stroke-width="1.25"/>
<text x="471.68" y="690" text-anchor="middle" font-family="sans-serif" font-size="11" font-weight="500" fill="#292925">700</text>
<line x1="530.84" y1="130" x2="530.84" y2="668" stroke="#b4b6ae" stroke-width="1.25"/>
<text x="530.84" y="690" text-anchor="middle" font-family="sans-serif" font-size="11" font-weight="500" fill="#292925">774</text>
<line x1="590.00" y1="130" x2="590.00" y2="668" stroke="#b4b6ae" stroke-width="1.25"/>
<text x="590.00" y="690" text-anchor="middle" font-family="sans-serif" font-size="11" font-weight="500" fill="#292925">848</text>
<line x1="649.16" y1="130" x2="649.16" y2="668" stroke="#b4b6ae" stroke-width="1.25"/>
<text x="649.16" y="690" text-anchor="middle" font-family="sans-serif" font-size="11" font-weight="500" fill="#292925">922</text>
<line x1="708.32" y1="130" x2="708.32" y2="668" stroke="#b4b6ae" stroke-width="1.25"/>
<text x="708.32" y="690" text-anchor="middle" font-family="sans-serif" font-size="11" font-weight="500" fill="#292925">996</text>
<line x1="767.49" y1="130" x2="767.49" y2="668" stroke="#b4b6ae" stroke-width="1.25"/>
<text x="767.49" y="690" text-anchor="middle" font-family="sans-serif" font-size="11" font-weight="500" fill="#292925">1070</text>
<line x1="826.65" y1="130" x2="826.65" y2="668" stroke="#b4b6ae" stroke-width="1.25"/>
<text x="826.65" y="690" text-anchor="middle" font-family="sans-serif" font-size="11" font-weight="500" fill="#292925">1144</text>
<line x1="885.81" y1="130" x2="885.81" y2="668" stroke="#b4b6ae" stroke-width="1.25"/>
<text x="885.81" y="690" text-anchor="middle" font-family="sans-serif" font-size="11" font-weight="500" fill="#292925">1218</text>
<line x1="944.97" y1="130" x2="944.97" y2="668" stroke="#b4b6ae" stroke-width="1.25"/>
<text x="944.97" y="690" text-anchor="middle" font-family="sans-serif" font-size="11" font-weight="500" fill="#292925">1292</text>
<line x1="1004.13" y1="130" x2="1004.13" y2="668" stroke="#b4b6ae" stroke-width="1.25"/>
<text x="1004.13" y="690" text-anchor="middle" font-family="sans-serif" font-size="11" font-weight="500" fill="#292925">1366</text>
<line x1="1063.29" y1="130" x2="1063.29" y2="668" stroke="#b4b6ae" stroke-width="1.25"/>
<text x="1063.29" y="690" text-anchor="middle" font-family="sans-serif" font-size="11" font-weight="500" fill="#292925">1440</text>
<text x="590.0" y="736" text-anchor="middle" font-family="sans-serif" font-size="17" font-weight="600" fill="#171715">Tamaño del payload (bytes)</text>
<text transform="translate(24 399.0) rotate(-90)" text-anchor="middle" font-family="sans-serif" font-size="17" font-weight="600" fill="#171715">RTT promedio entre interfaz y FPGA (ms)</text>
<line x1="96.0" y1="64" x2="122.0" y2="64" stroke="#1f77b4" stroke-width="3"/>
<text x="130.0" y="68" font-family="sans-serif" font-size="13" fill="#222">USB-C to Gigabit Ethernet Adapter</text>
<line x1="425.3333333333333" y1="64" x2="451.3333333333333" y2="64" stroke="#d62728" stroke-width="3"/>
<text x="459.3333333333333" y="68" font-family="sans-serif" font-size="13" fill="#222">RJ45 Raspberry Pi 5</text>
<line x1="754.6666666666666" y1="64" x2="780.6666666666666" y2="64" stroke="#2ca02c" stroke-width="3"/>
<text x="788.6666666666666" y="68" font-family="sans-serif" font-size="13" fill="#222">RJ45 Server</text>
<line x1="96.0" y1="88" x2="122.0" y2="88" stroke="#9467bd" stroke-width="3"/>
<text x="130.0" y="92" font-family="sans-serif" font-size="13" fill="#222">SFP+ NetFPGA-SUME Server</text>
<line x1="425.3333333333333" y1="88" x2="451.3333333333333" y2="88" stroke="#ff7f0e" stroke-width="3"/>
<text x="459.3333333333333" y="92" font-family="sans-serif" font-size="13" fill="#222">SFP+ NIC Server</text>
<polyline points="116.71,210.17 175.87,209.31 235.03,208.82 294.19,207.03 353.35,202.68 412.51,199.20 471.68,193.73 530.84,198.45 590.00,192.90 649.16,187.53 708.32,190.23 767.49,189.48 826.65,182.93 885.81,181.20 944.97,177.52 1004.13,176.86 1063.29,180.34" fill="none" stroke="#1f77b4" stroke-width="2.5"/>
<line x1="116.71" y1="212.17" x2="116.71" y2="208.18" stroke="#1f77b4" stroke-width="1.3"/>
<line x1="111.71" y1="212.17" x2="121.71" y2="212.17" stroke="#1f77b4" stroke-width="1.3"/>
<line x1="111.71" y1="208.18" x2="121.71" y2="208.18" stroke="#1f77b4" stroke-width="1.3"/>
<circle cx="116.71" cy="210.17" r="4" fill="#1f77b4" stroke="#ffffff" stroke-width="1"/>
<line x1="175.87" y1="210.67" x2="175.87" y2="207.94" stroke="#1f77b4" stroke-width="1.3"/>
<line x1="170.87" y1="210.67" x2="180.87" y2="210.67" stroke="#1f77b4" stroke-width="1.3"/>
<line x1="170.87" y1="207.94" x2="180.87" y2="207.94" stroke="#1f77b4" stroke-width="1.3"/>
<circle cx="175.87" cy="209.31" r="4" fill="#1f77b4" stroke="#ffffff" stroke-width="1"/>
<line x1="235.03" y1="211.03" x2="235.03" y2="206.60" stroke="#1f77b4" stroke-width="1.3"/>
<line x1="230.03" y1="211.03" x2="240.03" y2="211.03" stroke="#1f77b4" stroke-width="1.3"/>
<line x1="230.03" y1="206.60" x2="240.03" y2="206.60" stroke="#1f77b4" stroke-width="1.3"/>
<circle cx="235.03" cy="208.82" r="4" fill="#1f77b4" stroke="#ffffff" stroke-width="1"/>
<line x1="294.19" y1="209.35" x2="294.19" y2="204.72" stroke="#1f77b4" stroke-width="1.3"/>
<line x1="289.19" y1="209.35" x2="299.19" y2="209.35" stroke="#1f77b4" stroke-width="1.3"/>
<line x1="289.19" y1="204.72" x2="299.19" y2="204.72" stroke="#1f77b4" stroke-width="1.3"/>
<circle cx="294.19" cy="207.03" r="4" fill="#1f77b4" stroke="#ffffff" stroke-width="1"/>
<line x1="353.35" y1="204.26" x2="353.35" y2="201.09" stroke="#1f77b4" stroke-width="1.3"/>
<line x1="348.35" y1="204.26" x2="358.35" y2="204.26" stroke="#1f77b4" stroke-width="1.3"/>
<line x1="348.35" y1="201.09" x2="358.35" y2="201.09" stroke="#1f77b4" stroke-width="1.3"/>
<circle cx="353.35" cy="202.68" r="4" fill="#1f77b4" stroke="#ffffff" stroke-width="1"/>
<line x1="412.51" y1="201.76" x2="412.51" y2="196.64" stroke="#1f77b4" stroke-width="1.3"/>
<line x1="407.51" y1="201.76" x2="417.51" y2="201.76" stroke="#1f77b4" stroke-width="1.3"/>
<line x1="407.51" y1="196.64" x2="417.51" y2="196.64" stroke="#1f77b4" stroke-width="1.3"/>
<circle cx="412.51" cy="199.20" r="4" fill="#1f77b4" stroke="#ffffff" stroke-width="1"/>
<line x1="471.68" y1="195.15" x2="471.68" y2="192.31" stroke="#1f77b4" stroke-width="1.3"/>
<line x1="466.68" y1="195.15" x2="476.68" y2="195.15" stroke="#1f77b4" stroke-width="1.3"/>
<line x1="466.68" y1="192.31" x2="476.68" y2="192.31" stroke="#1f77b4" stroke-width="1.3"/>
<circle cx="471.68" cy="193.73" r="4" fill="#1f77b4" stroke="#ffffff" stroke-width="1"/>
<line x1="530.84" y1="201.23" x2="530.84" y2="195.67" stroke="#1f77b4" stroke-width="1.3"/>
<line x1="525.84" y1="201.23" x2="535.84" y2="201.23" stroke="#1f77b4" stroke-width="1.3"/>
<line x1="525.84" y1="195.67" x2="535.84" y2="195.67" stroke="#1f77b4" stroke-width="1.3"/>
<circle cx="530.84" cy="198.45" r="4" fill="#1f77b4" stroke="#ffffff" stroke-width="1"/>
<line x1="590.00" y1="199.31" x2="590.00" y2="186.49" stroke="#1f77b4" stroke-width="1.3"/>
<line x1="585.00" y1="199.31" x2="595.00" y2="199.31" stroke="#1f77b4" stroke-width="1.3"/>
<line x1="585.00" y1="186.49" x2="595.00" y2="186.49" stroke="#1f77b4" stroke-width="1.3"/>
<circle cx="590.00" cy="192.90" r="4" fill="#1f77b4" stroke="#ffffff" stroke-width="1"/>
<line x1="649.16" y1="189.30" x2="649.16" y2="185.75" stroke="#1f77b4" stroke-width="1.3"/>
<line x1="644.16" y1="189.30" x2="654.16" y2="189.30" stroke="#1f77b4" stroke-width="1.3"/>
<line x1="644.16" y1="185.75" x2="654.16" y2="185.75" stroke="#1f77b4" stroke-width="1.3"/>
<circle cx="649.16" cy="187.53" r="4" fill="#1f77b4" stroke="#ffffff" stroke-width="1"/>
<line x1="708.32" y1="192.16" x2="708.32" y2="188.31" stroke="#1f77b4" stroke-width="1.3"/>
<line x1="703.32" y1="192.16" x2="713.32" y2="192.16" stroke="#1f77b4" stroke-width="1.3"/>
<line x1="703.32" y1="188.31" x2="713.32" y2="188.31" stroke="#1f77b4" stroke-width="1.3"/>
<circle cx="708.32" cy="190.23" r="4" fill="#1f77b4" stroke="#ffffff" stroke-width="1"/>
<line x1="767.49" y1="195.47" x2="767.49" y2="183.49" stroke="#1f77b4" stroke-width="1.3"/>
<line x1="762.49" y1="195.47" x2="772.49" y2="195.47" stroke="#1f77b4" stroke-width="1.3"/>
<line x1="762.49" y1="183.49" x2="772.49" y2="183.49" stroke="#1f77b4" stroke-width="1.3"/>
<circle cx="767.49" cy="189.48" r="4" fill="#1f77b4" stroke="#ffffff" stroke-width="1"/>
<line x1="826.65" y1="191.44" x2="826.65" y2="174.41" stroke="#1f77b4" stroke-width="1.3"/>
<line x1="821.65" y1="191.44" x2="831.65" y2="191.44" stroke="#1f77b4" stroke-width="1.3"/>
<line x1="821.65" y1="174.41" x2="831.65" y2="174.41" stroke="#1f77b4" stroke-width="1.3"/>
<circle cx="826.65" cy="182.93" r="4" fill="#1f77b4" stroke="#ffffff" stroke-width="1"/>
<line x1="885.81" y1="186.92" x2="885.81" y2="175.48" stroke="#1f77b4" stroke-width="1.3"/>
<line x1="880.81" y1="186.92" x2="890.81" y2="186.92" stroke="#1f77b4" stroke-width="1.3"/>
<line x1="880.81" y1="175.48" x2="890.81" y2="175.48" stroke="#1f77b4" stroke-width="1.3"/>
<circle cx="885.81" cy="181.20" r="4" fill="#1f77b4" stroke="#ffffff" stroke-width="1"/>
<line x1="944.97" y1="185.18" x2="944.97" y2="169.85" stroke="#1f77b4" stroke-width="1.3"/>
<line x1="939.97" y1="185.18" x2="949.97" y2="185.18" stroke="#1f77b4" stroke-width="1.3"/>
<line x1="939.97" y1="169.85" x2="949.97" y2="169.85" stroke="#1f77b4" stroke-width="1.3"/>
<circle cx="944.97" cy="177.52" r="4" fill="#1f77b4" stroke="#ffffff" stroke-width="1"/>
<line x1="1004.13" y1="182.79" x2="1004.13" y2="170.94" stroke="#1f77b4" stroke-width="1.3"/>
<line x1="999.13" y1="182.79" x2="1009.13" y2="182.79" stroke="#1f77b4" stroke-width="1.3"/>
<line x1="999.13" y1="170.94" x2="1009.13" y2="170.94" stroke="#1f77b4" stroke-width="1.3"/>
<circle cx="1004.13" cy="176.86" r="4" fill="#1f77b4" stroke="#ffffff" stroke-width="1"/>
<line x1="1063.29" y1="185.86" x2="1063.29" y2="174.83" stroke="#1f77b4" stroke-width="1.3"/>
<line x1="1058.29" y1="185.86" x2="1068.29" y2="185.86" stroke="#1f77b4" stroke-width="1.3"/>
<line x1="1058.29" y1="174.83" x2="1068.29" y2="174.83" stroke="#1f77b4" stroke-width="1.3"/>
<circle cx="1063.29" cy="180.34" r="4" fill="#1f77b4" stroke="#ffffff" stroke-width="1"/>
<polyline points="116.71,636.91 175.87,635.13 235.03,632.84 294.19,631.22 353.35,629.84 412.51,626.25 471.68,624.95 530.84,623.42 590.00,622.14 649.16,620.51 708.32,618.92 767.49,617.45 826.65,615.76 885.81,614.24 944.97,612.96 1004.13,611.65 1063.29,610.32" fill="none" stroke="#d62728" stroke-width="2.5"/>
<line x1="116.71" y1="637.01" x2="116.71" y2="636.80" stroke="#d62728" stroke-width="1.3"/>
<line x1="111.71" y1="637.01" x2="121.71" y2="637.01" stroke="#d62728" stroke-width="1.3"/>
<line x1="111.71" y1="636.80" x2="121.71" y2="636.80" stroke="#d62728" stroke-width="1.3"/>
<circle cx="116.71" cy="636.91" r="4" fill="#d62728" stroke="#ffffff" stroke-width="1"/>
<line x1="175.87" y1="635.64" x2="175.87" y2="634.62" stroke="#d62728" stroke-width="1.3"/>
<line x1="170.87" y1="635.64" x2="180.87" y2="635.64" stroke="#d62728" stroke-width="1.3"/>
<line x1="170.87" y1="634.62" x2="180.87" y2="634.62" stroke="#d62728" stroke-width="1.3"/>
<circle cx="175.87" cy="635.13" r="4" fill="#d62728" stroke="#ffffff" stroke-width="1"/>
<line x1="235.03" y1="633.10" x2="235.03" y2="632.58" stroke="#d62728" stroke-width="1.3"/>
<line x1="230.03" y1="633.10" x2="240.03" y2="633.10" stroke="#d62728" stroke-width="1.3"/>
<line x1="230.03" y1="632.58" x2="240.03" y2="632.58" stroke="#d62728" stroke-width="1.3"/>
<circle cx="235.03" cy="632.84" r="4" fill="#d62728" stroke="#ffffff" stroke-width="1"/>
<line x1="294.19" y1="631.37" x2="294.19" y2="631.08" stroke="#d62728" stroke-width="1.3"/>
<line x1="289.19" y1="631.37" x2="299.19" y2="631.37" stroke="#d62728" stroke-width="1.3"/>
<line x1="289.19" y1="631.08" x2="299.19" y2="631.08" stroke="#d62728" stroke-width="1.3"/>
<circle cx="294.19" cy="631.22" r="4" fill="#d62728" stroke="#ffffff" stroke-width="1"/>
<line x1="353.35" y1="629.98" x2="353.35" y2="629.70" stroke="#d62728" stroke-width="1.3"/>
<line x1="348.35" y1="629.98" x2="358.35" y2="629.98" stroke="#d62728" stroke-width="1.3"/>
<line x1="348.35" y1="629.70" x2="358.35" y2="629.70" stroke="#d62728" stroke-width="1.3"/>
<circle cx="353.35" cy="629.84" r="4" fill="#d62728" stroke="#ffffff" stroke-width="1"/>
<line x1="412.51" y1="626.35" x2="412.51" y2="626.16" stroke="#d62728" stroke-width="1.3"/>
<line x1="407.51" y1="626.35" x2="417.51" y2="626.35" stroke="#d62728" stroke-width="1.3"/>
<line x1="407.51" y1="626.16" x2="417.51" y2="626.16" stroke="#d62728" stroke-width="1.3"/>
<circle cx="412.51" cy="626.25" r="4" fill="#d62728" stroke="#ffffff" stroke-width="1"/>
<line x1="471.68" y1="625.05" x2="471.68" y2="624.84" stroke="#d62728" stroke-width="1.3"/>
<line x1="466.68" y1="625.05" x2="476.68" y2="625.05" stroke="#d62728" stroke-width="1.3"/>
<line x1="466.68" y1="624.84" x2="476.68" y2="624.84" stroke="#d62728" stroke-width="1.3"/>
<circle cx="471.68" cy="624.95" r="4" fill="#d62728" stroke="#ffffff" stroke-width="1"/>
<line x1="530.84" y1="623.51" x2="530.84" y2="623.33" stroke="#d62728" stroke-width="1.3"/>
<line x1="525.84" y1="623.51" x2="535.84" y2="623.51" stroke="#d62728" stroke-width="1.3"/>
<line x1="525.84" y1="623.33" x2="535.84" y2="623.33" stroke="#d62728" stroke-width="1.3"/>
<circle cx="530.84" cy="623.42" r="4" fill="#d62728" stroke="#ffffff" stroke-width="1"/>
<line x1="590.00" y1="622.23" x2="590.00" y2="622.06" stroke="#d62728" stroke-width="1.3"/>
<line x1="585.00" y1="622.23" x2="595.00" y2="622.23" stroke="#d62728" stroke-width="1.3"/>
<line x1="585.00" y1="622.06" x2="595.00" y2="622.06" stroke="#d62728" stroke-width="1.3"/>
<circle cx="590.00" cy="622.14" r="4" fill="#d62728" stroke="#ffffff" stroke-width="1"/>
<line x1="649.16" y1="620.89" x2="649.16" y2="620.12" stroke="#d62728" stroke-width="1.3"/>
<line x1="644.16" y1="620.89" x2="654.16" y2="620.89" stroke="#d62728" stroke-width="1.3"/>
<line x1="644.16" y1="620.12" x2="654.16" y2="620.12" stroke="#d62728" stroke-width="1.3"/>
<circle cx="649.16" cy="620.51" r="4" fill="#d62728" stroke="#ffffff" stroke-width="1"/>
<line x1="708.32" y1="619.35" x2="708.32" y2="618.49" stroke="#d62728" stroke-width="1.3"/>
<line x1="703.32" y1="619.35" x2="713.32" y2="619.35" stroke="#d62728" stroke-width="1.3"/>
<line x1="703.32" y1="618.49" x2="713.32" y2="618.49" stroke="#d62728" stroke-width="1.3"/>
<circle cx="708.32" cy="618.92" r="4" fill="#d62728" stroke="#ffffff" stroke-width="1"/>
<line x1="767.49" y1="617.72" x2="767.49" y2="617.18" stroke="#d62728" stroke-width="1.3"/>
<line x1="762.49" y1="617.72" x2="772.49" y2="617.72" stroke="#d62728" stroke-width="1.3"/>
<line x1="762.49" y1="617.18" x2="772.49" y2="617.18" stroke="#d62728" stroke-width="1.3"/>
<circle cx="767.49" cy="617.45" r="4" fill="#d62728" stroke="#ffffff" stroke-width="1"/>
<line x1="826.65" y1="616.18" x2="826.65" y2="615.33" stroke="#d62728" stroke-width="1.3"/>
<line x1="821.65" y1="616.18" x2="831.65" y2="616.18" stroke="#d62728" stroke-width="1.3"/>
<line x1="821.65" y1="615.33" x2="831.65" y2="615.33" stroke="#d62728" stroke-width="1.3"/>
<circle cx="826.65" cy="615.76" r="4" fill="#d62728" stroke="#ffffff" stroke-width="1"/>
<line x1="885.81" y1="614.66" x2="885.81" y2="613.82" stroke="#d62728" stroke-width="1.3"/>
<line x1="880.81" y1="614.66" x2="890.81" y2="614.66" stroke="#d62728" stroke-width="1.3"/>
<line x1="880.81" y1="613.82" x2="890.81" y2="613.82" stroke="#d62728" stroke-width="1.3"/>
<circle cx="885.81" cy="614.24" r="4" fill="#d62728" stroke="#ffffff" stroke-width="1"/>
<line x1="944.97" y1="613.40" x2="944.97" y2="612.53" stroke="#d62728" stroke-width="1.3"/>
<line x1="939.97" y1="613.40" x2="949.97" y2="613.40" stroke="#d62728" stroke-width="1.3"/>
<line x1="939.97" y1="612.53" x2="949.97" y2="612.53" stroke="#d62728" stroke-width="1.3"/>
<circle cx="944.97" cy="612.96" r="4" fill="#d62728" stroke="#ffffff" stroke-width="1"/>
<line x1="1004.13" y1="611.87" x2="1004.13" y2="611.42" stroke="#d62728" stroke-width="1.3"/>
<line x1="999.13" y1="611.87" x2="1009.13" y2="611.87" stroke="#d62728" stroke-width="1.3"/>
<line x1="999.13" y1="611.42" x2="1009.13" y2="611.42" stroke="#d62728" stroke-width="1.3"/>
<circle cx="1004.13" cy="611.65" r="4" fill="#d62728" stroke="#ffffff" stroke-width="1"/>
<line x1="1063.29" y1="610.36" x2="1063.29" y2="610.28" stroke="#d62728" stroke-width="1.3"/>
<line x1="1058.29" y1="610.36" x2="1068.29" y2="610.36" stroke="#d62728" stroke-width="1.3"/>
<line x1="1058.29" y1="610.28" x2="1068.29" y2="610.28" stroke="#d62728" stroke-width="1.3"/>
<circle cx="1063.29" cy="610.32" r="4" fill="#d62728" stroke="#ffffff" stroke-width="1"/>
<polyline points="116.71,651.85 175.87,650.35 235.03,648.97 294.19,647.72 353.35,645.72 412.51,645.14 471.68,644.00 530.84,642.69 590.00,641.47 649.16,640.28 708.32,639.13 767.49,638.07 826.65,636.51 885.81,635.27 944.97,634.47 1004.13,632.94 1063.29,631.75" fill="none" stroke="#2ca02c" stroke-width="2.5"/>
<line x1="116.71" y1="652.48" x2="116.71" y2="651.22" stroke="#2ca02c" stroke-width="1.3"/>
<line x1="111.71" y1="652.48" x2="121.71" y2="652.48" stroke="#2ca02c" stroke-width="1.3"/>
<line x1="111.71" y1="651.22" x2="121.71" y2="651.22" stroke="#2ca02c" stroke-width="1.3"/>
<circle cx="116.71" cy="651.85" r="4" fill="#2ca02c" stroke="#ffffff" stroke-width="1"/>
<line x1="175.87" y1="651.12" x2="175.87" y2="649.59" stroke="#2ca02c" stroke-width="1.3"/>
<line x1="170.87" y1="651.12" x2="180.87" y2="651.12" stroke="#2ca02c" stroke-width="1.3"/>
<line x1="170.87" y1="649.59" x2="180.87" y2="649.59" stroke="#2ca02c" stroke-width="1.3"/>
<circle cx="175.87" cy="650.35" r="4" fill="#2ca02c" stroke="#ffffff" stroke-width="1"/>
<line x1="235.03" y1="648.99" x2="235.03" y2="648.96" stroke="#2ca02c" stroke-width="1.3"/>
<line x1="230.03" y1="648.99" x2="240.03" y2="648.99" stroke="#2ca02c" stroke-width="1.3"/>
<line x1="230.03" y1="648.96" x2="240.03" y2="648.96" stroke="#2ca02c" stroke-width="1.3"/>
<circle cx="235.03" cy="648.97" r="4" fill="#2ca02c" stroke="#ffffff" stroke-width="1"/>
<line x1="294.19" y1="647.79" x2="294.19" y2="647.65" stroke="#2ca02c" stroke-width="1.3"/>
<line x1="289.19" y1="647.79" x2="299.19" y2="647.79" stroke="#2ca02c" stroke-width="1.3"/>
<line x1="289.19" y1="647.65" x2="299.19" y2="647.65" stroke="#2ca02c" stroke-width="1.3"/>
<circle cx="294.19" cy="647.72" r="4" fill="#2ca02c" stroke="#ffffff" stroke-width="1"/>
<line x1="353.35" y1="646.19" x2="353.35" y2="645.25" stroke="#2ca02c" stroke-width="1.3"/>
<line x1="348.35" y1="646.19" x2="358.35" y2="646.19" stroke="#2ca02c" stroke-width="1.3"/>
<line x1="348.35" y1="645.25" x2="358.35" y2="645.25" stroke="#2ca02c" stroke-width="1.3"/>
<circle cx="353.35" cy="645.72" r="4" fill="#2ca02c" stroke="#ffffff" stroke-width="1"/>
<line x1="412.51" y1="645.22" x2="412.51" y2="645.05" stroke="#2ca02c" stroke-width="1.3"/>
<line x1="407.51" y1="645.22" x2="417.51" y2="645.22" stroke="#2ca02c" stroke-width="1.3"/>
<line x1="407.51" y1="645.05" x2="417.51" y2="645.05" stroke="#2ca02c" stroke-width="1.3"/>
<circle cx="412.51" cy="645.14" r="4" fill="#2ca02c" stroke="#ffffff" stroke-width="1"/>
<line x1="471.68" y1="644.15" x2="471.68" y2="643.84" stroke="#2ca02c" stroke-width="1.3"/>
<line x1="466.68" y1="644.15" x2="476.68" y2="644.15" stroke="#2ca02c" stroke-width="1.3"/>
<line x1="466.68" y1="643.84" x2="476.68" y2="643.84" stroke="#2ca02c" stroke-width="1.3"/>
<circle cx="471.68" cy="644.00" r="4" fill="#2ca02c" stroke="#ffffff" stroke-width="1"/>
<line x1="530.84" y1="642.73" x2="530.84" y2="642.64" stroke="#2ca02c" stroke-width="1.3"/>
<line x1="525.84" y1="642.73" x2="535.84" y2="642.73" stroke="#2ca02c" stroke-width="1.3"/>
<line x1="525.84" y1="642.64" x2="535.84" y2="642.64" stroke="#2ca02c" stroke-width="1.3"/>
<circle cx="530.84" cy="642.69" r="4" fill="#2ca02c" stroke="#ffffff" stroke-width="1"/>
<line x1="590.00" y1="641.52" x2="590.00" y2="641.43" stroke="#2ca02c" stroke-width="1.3"/>
<line x1="585.00" y1="641.52" x2="595.00" y2="641.52" stroke="#2ca02c" stroke-width="1.3"/>
<line x1="585.00" y1="641.43" x2="595.00" y2="641.43" stroke="#2ca02c" stroke-width="1.3"/>
<circle cx="590.00" cy="641.47" r="4" fill="#2ca02c" stroke="#ffffff" stroke-width="1"/>
<line x1="649.16" y1="640.36" x2="649.16" y2="640.20" stroke="#2ca02c" stroke-width="1.3"/>
<line x1="644.16" y1="640.36" x2="654.16" y2="640.36" stroke="#2ca02c" stroke-width="1.3"/>
<line x1="644.16" y1="640.20" x2="654.16" y2="640.20" stroke="#2ca02c" stroke-width="1.3"/>
<circle cx="649.16" cy="640.28" r="4" fill="#2ca02c" stroke="#ffffff" stroke-width="1"/>
<line x1="708.32" y1="639.16" x2="708.32" y2="639.09" stroke="#2ca02c" stroke-width="1.3"/>
<line x1="703.32" y1="639.16" x2="713.32" y2="639.16" stroke="#2ca02c" stroke-width="1.3"/>
<line x1="703.32" y1="639.09" x2="713.32" y2="639.09" stroke="#2ca02c" stroke-width="1.3"/>
<circle cx="708.32" cy="639.13" r="4" fill="#2ca02c" stroke="#ffffff" stroke-width="1"/>
<line x1="767.49" y1="638.51" x2="767.49" y2="637.63" stroke="#2ca02c" stroke-width="1.3"/>
<line x1="762.49" y1="638.51" x2="772.49" y2="638.51" stroke="#2ca02c" stroke-width="1.3"/>
<line x1="762.49" y1="637.63" x2="772.49" y2="637.63" stroke="#2ca02c" stroke-width="1.3"/>
<circle cx="767.49" cy="638.07" r="4" fill="#2ca02c" stroke="#ffffff" stroke-width="1"/>
<line x1="826.65" y1="636.52" x2="826.65" y2="636.49" stroke="#2ca02c" stroke-width="1.3"/>
<line x1="821.65" y1="636.52" x2="831.65" y2="636.52" stroke="#2ca02c" stroke-width="1.3"/>
<line x1="821.65" y1="636.49" x2="831.65" y2="636.49" stroke="#2ca02c" stroke-width="1.3"/>
<circle cx="826.65" cy="636.51" r="4" fill="#2ca02c" stroke="#ffffff" stroke-width="1"/>
<line x1="885.81" y1="635.27" x2="885.81" y2="635.27" stroke="#2ca02c" stroke-width="1.3"/>
<line x1="880.81" y1="635.27" x2="890.81" y2="635.27" stroke="#2ca02c" stroke-width="1.3"/>
<line x1="880.81" y1="635.27" x2="890.81" y2="635.27" stroke="#2ca02c" stroke-width="1.3"/>
<circle cx="885.81" cy="635.27" r="4" fill="#2ca02c" stroke="#ffffff" stroke-width="1"/>
<line x1="944.97" y1="635.04" x2="944.97" y2="633.90" stroke="#2ca02c" stroke-width="1.3"/>
<line x1="939.97" y1="635.04" x2="949.97" y2="635.04" stroke="#2ca02c" stroke-width="1.3"/>
<line x1="939.97" y1="633.90" x2="949.97" y2="633.90" stroke="#2ca02c" stroke-width="1.3"/>
<circle cx="944.97" cy="634.47" r="4" fill="#2ca02c" stroke="#ffffff" stroke-width="1"/>
<line x1="1004.13" y1="632.95" x2="1004.13" y2="632.92" stroke="#2ca02c" stroke-width="1.3"/>
<line x1="999.13" y1="632.95" x2="1009.13" y2="632.95" stroke="#2ca02c" stroke-width="1.3"/>
<line x1="999.13" y1="632.92" x2="1009.13" y2="632.92" stroke="#2ca02c" stroke-width="1.3"/>
<circle cx="1004.13" cy="632.94" r="4" fill="#2ca02c" stroke="#ffffff" stroke-width="1"/>
<line x1="1063.29" y1="631.76" x2="1063.29" y2="631.73" stroke="#2ca02c" stroke-width="1.3"/>
<line x1="1058.29" y1="631.76" x2="1068.29" y2="631.76" stroke="#2ca02c" stroke-width="1.3"/>
<line x1="1058.29" y1="631.73" x2="1068.29" y2="631.73" stroke="#2ca02c" stroke-width="1.3"/>
<circle cx="1063.29" cy="631.75" r="4" fill="#2ca02c" stroke="#ffffff" stroke-width="1"/>
<polyline points="116.71,655.85 175.87,654.59 235.03,653.61 294.19,652.53 353.35,651.35 412.51,650.20 471.68,649.06 530.84,647.88 590.00,646.86 649.16,645.78 708.32,644.68 767.49,643.58 826.65,642.37 885.81,641.19 944.97,640.19 1004.13,639.11 1063.29,638.00" fill="none" stroke="#9467bd" stroke-width="2.5"/>
<line x1="116.71" y1="655.90" x2="116.71" y2="655.80" stroke="#9467bd" stroke-width="1.3"/>
<line x1="111.71" y1="655.90" x2="121.71" y2="655.90" stroke="#9467bd" stroke-width="1.3"/>
<line x1="111.71" y1="655.80" x2="121.71" y2="655.80" stroke="#9467bd" stroke-width="1.3"/>
<circle cx="116.71" cy="655.85" r="4" fill="#9467bd" stroke="#ffffff" stroke-width="1"/>
<line x1="175.87" y1="654.60" x2="175.87" y2="654.58" stroke="#9467bd" stroke-width="1.3"/>
<line x1="170.87" y1="654.60" x2="180.87" y2="654.60" stroke="#9467bd" stroke-width="1.3"/>
<line x1="170.87" y1="654.58" x2="180.87" y2="654.58" stroke="#9467bd" stroke-width="1.3"/>
<circle cx="175.87" cy="654.59" r="4" fill="#9467bd" stroke="#ffffff" stroke-width="1"/>
<line x1="235.03" y1="653.65" x2="235.03" y2="653.58" stroke="#9467bd" stroke-width="1.3"/>
<line x1="230.03" y1="653.65" x2="240.03" y2="653.65" stroke="#9467bd" stroke-width="1.3"/>
<line x1="230.03" y1="653.58" x2="240.03" y2="653.58" stroke="#9467bd" stroke-width="1.3"/>
<circle cx="235.03" cy="653.61" r="4" fill="#9467bd" stroke="#ffffff" stroke-width="1"/>
<line x1="294.19" y1="652.56" x2="294.19" y2="652.50" stroke="#9467bd" stroke-width="1.3"/>
<line x1="289.19" y1="652.56" x2="299.19" y2="652.56" stroke="#9467bd" stroke-width="1.3"/>
<line x1="289.19" y1="652.50" x2="299.19" y2="652.50" stroke="#9467bd" stroke-width="1.3"/>
<circle cx="294.19" cy="652.53" r="4" fill="#9467bd" stroke="#ffffff" stroke-width="1"/>
<line x1="353.35" y1="651.36" x2="353.35" y2="651.33" stroke="#9467bd" stroke-width="1.3"/>
<line x1="348.35" y1="651.36" x2="358.35" y2="651.36" stroke="#9467bd" stroke-width="1.3"/>
<line x1="348.35" y1="651.33" x2="358.35" y2="651.33" stroke="#9467bd" stroke-width="1.3"/>
<circle cx="353.35" cy="651.35" r="4" fill="#9467bd" stroke="#ffffff" stroke-width="1"/>
<line x1="412.51" y1="650.22" x2="412.51" y2="650.18" stroke="#9467bd" stroke-width="1.3"/>
<line x1="407.51" y1="650.22" x2="417.51" y2="650.22" stroke="#9467bd" stroke-width="1.3"/>
<line x1="407.51" y1="650.18" x2="417.51" y2="650.18" stroke="#9467bd" stroke-width="1.3"/>
<circle cx="412.51" cy="650.20" r="4" fill="#9467bd" stroke="#ffffff" stroke-width="1"/>
<line x1="471.68" y1="649.09" x2="471.68" y2="649.02" stroke="#9467bd" stroke-width="1.3"/>
<line x1="466.68" y1="649.09" x2="476.68" y2="649.09" stroke="#9467bd" stroke-width="1.3"/>
<line x1="466.68" y1="649.02" x2="476.68" y2="649.02" stroke="#9467bd" stroke-width="1.3"/>
<circle cx="471.68" cy="649.06" r="4" fill="#9467bd" stroke="#ffffff" stroke-width="1"/>
<line x1="530.84" y1="647.91" x2="530.84" y2="647.86" stroke="#9467bd" stroke-width="1.3"/>
<line x1="525.84" y1="647.91" x2="535.84" y2="647.91" stroke="#9467bd" stroke-width="1.3"/>
<line x1="525.84" y1="647.86" x2="535.84" y2="647.86" stroke="#9467bd" stroke-width="1.3"/>
<circle cx="530.84" cy="647.88" r="4" fill="#9467bd" stroke="#ffffff" stroke-width="1"/>
<line x1="590.00" y1="646.90" x2="590.00" y2="646.82" stroke="#9467bd" stroke-width="1.3"/>
<line x1="585.00" y1="646.90" x2="595.00" y2="646.90" stroke="#9467bd" stroke-width="1.3"/>
<line x1="585.00" y1="646.82" x2="595.00" y2="646.82" stroke="#9467bd" stroke-width="1.3"/>
<circle cx="590.00" cy="646.86" r="4" fill="#9467bd" stroke="#ffffff" stroke-width="1"/>
<line x1="649.16" y1="645.81" x2="649.16" y2="645.76" stroke="#9467bd" stroke-width="1.3"/>
<line x1="644.16" y1="645.81" x2="654.16" y2="645.81" stroke="#9467bd" stroke-width="1.3"/>
<line x1="644.16" y1="645.76" x2="654.16" y2="645.76" stroke="#9467bd" stroke-width="1.3"/>
<circle cx="649.16" cy="645.78" r="4" fill="#9467bd" stroke="#ffffff" stroke-width="1"/>
<line x1="708.32" y1="644.70" x2="708.32" y2="644.66" stroke="#9467bd" stroke-width="1.3"/>
<line x1="703.32" y1="644.70" x2="713.32" y2="644.70" stroke="#9467bd" stroke-width="1.3"/>
<line x1="703.32" y1="644.66" x2="713.32" y2="644.66" stroke="#9467bd" stroke-width="1.3"/>
<circle cx="708.32" cy="644.68" r="4" fill="#9467bd" stroke="#ffffff" stroke-width="1"/>
<line x1="767.49" y1="643.60" x2="767.49" y2="643.57" stroke="#9467bd" stroke-width="1.3"/>
<line x1="762.49" y1="643.60" x2="772.49" y2="643.60" stroke="#9467bd" stroke-width="1.3"/>
<line x1="762.49" y1="643.57" x2="772.49" y2="643.57" stroke="#9467bd" stroke-width="1.3"/>
<circle cx="767.49" cy="643.58" r="4" fill="#9467bd" stroke="#ffffff" stroke-width="1"/>
<line x1="826.65" y1="642.39" x2="826.65" y2="642.35" stroke="#9467bd" stroke-width="1.3"/>
<line x1="821.65" y1="642.39" x2="831.65" y2="642.39" stroke="#9467bd" stroke-width="1.3"/>
<line x1="821.65" y1="642.35" x2="831.65" y2="642.35" stroke="#9467bd" stroke-width="1.3"/>
<circle cx="826.65" cy="642.37" r="4" fill="#9467bd" stroke="#ffffff" stroke-width="1"/>
<line x1="885.81" y1="641.22" x2="885.81" y2="641.16" stroke="#9467bd" stroke-width="1.3"/>
<line x1="880.81" y1="641.22" x2="890.81" y2="641.22" stroke="#9467bd" stroke-width="1.3"/>
<line x1="880.81" y1="641.16" x2="890.81" y2="641.16" stroke="#9467bd" stroke-width="1.3"/>
<circle cx="885.81" cy="641.19" r="4" fill="#9467bd" stroke="#ffffff" stroke-width="1"/>
<line x1="944.97" y1="640.24" x2="944.97" y2="640.15" stroke="#9467bd" stroke-width="1.3"/>
<line x1="939.97" y1="640.24" x2="949.97" y2="640.24" stroke="#9467bd" stroke-width="1.3"/>
<line x1="939.97" y1="640.15" x2="949.97" y2="640.15" stroke="#9467bd" stroke-width="1.3"/>
<circle cx="944.97" cy="640.19" r="4" fill="#9467bd" stroke="#ffffff" stroke-width="1"/>
<line x1="1004.13" y1="639.14" x2="1004.13" y2="639.08" stroke="#9467bd" stroke-width="1.3"/>
<line x1="999.13" y1="639.14" x2="1009.13" y2="639.14" stroke="#9467bd" stroke-width="1.3"/>
<line x1="999.13" y1="639.08" x2="1009.13" y2="639.08" stroke="#9467bd" stroke-width="1.3"/>
<circle cx="1004.13" cy="639.11" r="4" fill="#9467bd" stroke="#ffffff" stroke-width="1"/>
<line x1="1063.29" y1="638.03" x2="1063.29" y2="637.97" stroke="#9467bd" stroke-width="1.3"/>
<line x1="1058.29" y1="638.03" x2="1068.29" y2="638.03" stroke="#9467bd" stroke-width="1.3"/>
<line x1="1058.29" y1="637.97" x2="1068.29" y2="637.97" stroke="#9467bd" stroke-width="1.3"/>
<circle cx="1063.29" cy="638.00" r="4" fill="#9467bd" stroke="#ffffff" stroke-width="1"/>
<polyline points="116.71,654.52 175.87,653.84 235.03,652.94 294.19,651.87 353.35,651.03 412.51,649.86 471.68,647.49 530.84,642.52 590.00,641.59 649.16,637.08 708.32,637.85 767.49,636.93 826.65,634.90 885.81,635.64 944.97,633.59 1004.13,632.95 1063.29,631.50" fill="none" stroke="#ff7f0e" stroke-width="2.5"/>
<line x1="116.71" y1="654.91" x2="116.71" y2="654.12" stroke="#ff7f0e" stroke-width="1.3"/>
<line x1="111.71" y1="654.91" x2="121.71" y2="654.91" stroke="#ff7f0e" stroke-width="1.3"/>
<line x1="111.71" y1="654.12" x2="121.71" y2="654.12" stroke="#ff7f0e" stroke-width="1.3"/>
<circle cx="116.71" cy="654.52" r="4" fill="#ff7f0e" stroke="#ffffff" stroke-width="1"/>
<line x1="175.87" y1="653.91" x2="175.87" y2="653.77" stroke="#ff7f0e" stroke-width="1.3"/>
<line x1="170.87" y1="653.91" x2="180.87" y2="653.91" stroke="#ff7f0e" stroke-width="1.3"/>
<line x1="170.87" y1="653.77" x2="180.87" y2="653.77" stroke="#ff7f0e" stroke-width="1.3"/>
<circle cx="175.87" cy="653.84" r="4" fill="#ff7f0e" stroke="#ffffff" stroke-width="1"/>
<line x1="235.03" y1="653.05" x2="235.03" y2="652.82" stroke="#ff7f0e" stroke-width="1.3"/>
<line x1="230.03" y1="653.05" x2="240.03" y2="653.05" stroke="#ff7f0e" stroke-width="1.3"/>
<line x1="230.03" y1="652.82" x2="240.03" y2="652.82" stroke="#ff7f0e" stroke-width="1.3"/>
<circle cx="235.03" cy="652.94" r="4" fill="#ff7f0e" stroke="#ffffff" stroke-width="1"/>
<line x1="294.19" y1="652.11" x2="294.19" y2="651.63" stroke="#ff7f0e" stroke-width="1.3"/>
<line x1="289.19" y1="652.11" x2="299.19" y2="652.11" stroke="#ff7f0e" stroke-width="1.3"/>
<line x1="289.19" y1="651.63" x2="299.19" y2="651.63" stroke="#ff7f0e" stroke-width="1.3"/>
<circle cx="294.19" cy="651.87" r="4" fill="#ff7f0e" stroke="#ffffff" stroke-width="1"/>
<line x1="353.35" y1="651.25" x2="353.35" y2="650.80" stroke="#ff7f0e" stroke-width="1.3"/>
<line x1="348.35" y1="651.25" x2="358.35" y2="651.25" stroke="#ff7f0e" stroke-width="1.3"/>
<line x1="348.35" y1="650.80" x2="358.35" y2="650.80" stroke="#ff7f0e" stroke-width="1.3"/>
<circle cx="353.35" cy="651.03" r="4" fill="#ff7f0e" stroke="#ffffff" stroke-width="1"/>
<line x1="412.51" y1="650.25" x2="412.51" y2="649.47" stroke="#ff7f0e" stroke-width="1.3"/>
<line x1="407.51" y1="650.25" x2="417.51" y2="650.25" stroke="#ff7f0e" stroke-width="1.3"/>
<line x1="407.51" y1="649.47" x2="417.51" y2="649.47" stroke="#ff7f0e" stroke-width="1.3"/>
<circle cx="412.51" cy="649.86" r="4" fill="#ff7f0e" stroke="#ffffff" stroke-width="1"/>
<line x1="471.68" y1="647.95" x2="471.68" y2="647.03" stroke="#ff7f0e" stroke-width="1.3"/>
<line x1="466.68" y1="647.95" x2="476.68" y2="647.95" stroke="#ff7f0e" stroke-width="1.3"/>
<line x1="466.68" y1="647.03" x2="476.68" y2="647.03" stroke="#ff7f0e" stroke-width="1.3"/>
<circle cx="471.68" cy="647.49" r="4" fill="#ff7f0e" stroke="#ffffff" stroke-width="1"/>
<line x1="530.84" y1="646.36" x2="530.84" y2="638.69" stroke="#ff7f0e" stroke-width="1.3"/>
<line x1="525.84" y1="646.36" x2="535.84" y2="646.36" stroke="#ff7f0e" stroke-width="1.3"/>
<line x1="525.84" y1="638.69" x2="535.84" y2="638.69" stroke="#ff7f0e" stroke-width="1.3"/>
<circle cx="530.84" cy="642.52" r="4" fill="#ff7f0e" stroke="#ffffff" stroke-width="1"/>
<line x1="590.00" y1="641.73" x2="590.00" y2="641.45" stroke="#ff7f0e" stroke-width="1.3"/>
<line x1="585.00" y1="641.73" x2="595.00" y2="641.73" stroke="#ff7f0e" stroke-width="1.3"/>
<line x1="585.00" y1="641.45" x2="595.00" y2="641.45" stroke="#ff7f0e" stroke-width="1.3"/>
<circle cx="590.00" cy="641.59" r="4" fill="#ff7f0e" stroke="#ffffff" stroke-width="1"/>
<line x1="649.16" y1="640.82" x2="649.16" y2="633.35" stroke="#ff7f0e" stroke-width="1.3"/>
<line x1="644.16" y1="640.82" x2="654.16" y2="640.82" stroke="#ff7f0e" stroke-width="1.3"/>
<line x1="644.16" y1="633.35" x2="654.16" y2="633.35" stroke="#ff7f0e" stroke-width="1.3"/>
<circle cx="649.16" cy="637.08" r="4" fill="#ff7f0e" stroke="#ffffff" stroke-width="1"/>
<line x1="708.32" y1="642.04" x2="708.32" y2="633.66" stroke="#ff7f0e" stroke-width="1.3"/>
<line x1="703.32" y1="642.04" x2="713.32" y2="642.04" stroke="#ff7f0e" stroke-width="1.3"/>
<line x1="703.32" y1="633.66" x2="713.32" y2="633.66" stroke="#ff7f0e" stroke-width="1.3"/>
<circle cx="708.32" cy="637.85" r="4" fill="#ff7f0e" stroke="#ffffff" stroke-width="1"/>
<line x1="767.49" y1="640.56" x2="767.49" y2="633.31" stroke="#ff7f0e" stroke-width="1.3"/>
<line x1="762.49" y1="640.56" x2="772.49" y2="640.56" stroke="#ff7f0e" stroke-width="1.3"/>
<line x1="762.49" y1="633.31" x2="772.49" y2="633.31" stroke="#ff7f0e" stroke-width="1.3"/>
<circle cx="767.49" cy="636.93" r="4" fill="#ff7f0e" stroke="#ffffff" stroke-width="1"/>
<line x1="826.65" y1="638.27" x2="826.65" y2="631.54" stroke="#ff7f0e" stroke-width="1.3"/>
<line x1="821.65" y1="638.27" x2="831.65" y2="638.27" stroke="#ff7f0e" stroke-width="1.3"/>
<line x1="821.65" y1="631.54" x2="831.65" y2="631.54" stroke="#ff7f0e" stroke-width="1.3"/>
<circle cx="826.65" cy="634.90" r="4" fill="#ff7f0e" stroke="#ffffff" stroke-width="1"/>
<line x1="885.81" y1="636.38" x2="885.81" y2="634.91" stroke="#ff7f0e" stroke-width="1.3"/>
<line x1="880.81" y1="636.38" x2="890.81" y2="636.38" stroke="#ff7f0e" stroke-width="1.3"/>
<line x1="880.81" y1="634.91" x2="890.81" y2="634.91" stroke="#ff7f0e" stroke-width="1.3"/>
<circle cx="885.81" cy="635.64" r="4" fill="#ff7f0e" stroke="#ffffff" stroke-width="1"/>
<line x1="944.97" y1="637.07" x2="944.97" y2="630.10" stroke="#ff7f0e" stroke-width="1.3"/>
<line x1="939.97" y1="637.07" x2="949.97" y2="637.07" stroke="#ff7f0e" stroke-width="1.3"/>
<line x1="939.97" y1="630.10" x2="949.97" y2="630.10" stroke="#ff7f0e" stroke-width="1.3"/>
<circle cx="944.97" cy="633.59" r="4" fill="#ff7f0e" stroke="#ffffff" stroke-width="1"/>
<line x1="1004.13" y1="635.61" x2="1004.13" y2="630.28" stroke="#ff7f0e" stroke-width="1.3"/>
<line x1="999.13" y1="635.61" x2="1009.13" y2="635.61" stroke="#ff7f0e" stroke-width="1.3"/>
<line x1="999.13" y1="630.28" x2="1009.13" y2="630.28" stroke="#ff7f0e" stroke-width="1.3"/>
<circle cx="1004.13" cy="632.95" r="4" fill="#ff7f0e" stroke="#ffffff" stroke-width="1"/>
<line x1="1063.29" y1="634.89" x2="1063.29" y2="628.11" stroke="#ff7f0e" stroke-width="1.3"/>
<line x1="1058.29" y1="634.89" x2="1068.29" y2="634.89" stroke="#ff7f0e" stroke-width="1.3"/>
<line x1="1058.29" y1="628.11" x2="1068.29" y2="628.11" stroke="#ff7f0e" stroke-width="1.3"/>
<circle cx="1063.29" cy="631.50" r="4" fill="#ff7f0e" stroke="#ffffff" stroke-width="1"/>
</svg>
