<svg xmlns="http://www.w3.org/2000/svg" width="1120" height="760" viewBox="0 0 1120 760">
<rect width="100%" height="100%" fill="#fbfbf8"/>
<text x="560.0" y="34" text-anchor="middle" font-family="sans-serif" font-size="24" fill="#222">Pérdida vs. payload</text>
<rect x="96" y="106" width="988" height="562" fill="#ffffff" stroke="#c9c9c1"/>
<line x1="96" y1="106.00" x2="1084" y2="106.00" stroke="#a9aba3" stroke-width="1.35"/>
<text x="86" y="110.00" text-anchor="end" font-family="sans-serif" font-size="13" font-weight="400" fill="#292925">32.3</text>
<line x1="96" y1="199.67" x2="1084" y2="199.67" stroke="#a9aba3" stroke-width="1.35"/>
<text x="86" y="203.67" text-anchor="end" font-family="sans-serif" font-size="13" font-weight="400" fill="#292925">25.3</text>
<line x1="96" y1="293.33" x2="1084" y2="293.33" stroke="#a9aba3" stroke-width="1.35"/>
<text x="86" y="297.33" text-anchor="end" font-family="sans-serif" font-size="13" font-weight="400" fill="#292925">18.3</text>
<line x1="96" y1="387.00" x2="1084" y2="387.00" stroke="#a9aba3" stroke-width="1.35"/>
<text x="86" y="391.00" text-anchor="end" font-family="sans-serif" font-size="13" font-weight="400" fill="#292925">11.3</text>
<line x1="96" y1="480.67" x2="1084" y2="480.67" stroke="#a9aba3" stroke-width="1.35"/>
<text x="86" y="484.67" text-anchor="end" font-family="sans-serif" font-size="13" font-weight="400" fill="#292925">4.28</text>
<line x1="96" y1="574.33" x2="1084" y2="574.33" stroke="#a9aba3" stroke-width="1.35"/>
<text x="86" y="578.33" text-anchor="end" font-family="sans-serif" font-size="13" font-weight="400" fill="#292925">-2.72</text>
<line x1="96" y1="668.00" x2="1084" y2="668.00" stroke="#a9aba3" stroke-width="1.35"/>
<text x="86" y="672.00" text-anchor="end" font-family="sans-serif" font-size="13" font-weight="400" fill="#292925">-9.72</text>
<line x1="96" y1="537.89" x2="1084" y2="537.89" stroke="#676761" stroke-width="1.8"/>
<text x="86" y="541.89" text-anchor="end" font-family="sans-serif" font-size="12" font-weight="600" fill="#222">0</text>
<line x1="116.71" y1="106" x2="116.71" y2="668" stroke="#b4b6ae" stroke-width="1.25"/>
<text x="116.71" y="690" text-anchor="middle" font-family="sans-serif" font-size="11" font-weight="500" fill="#292925">256</text>
<line x1="175.87" y1="106" x2="175.87" y2="668" stroke="#b4b6ae" stroke-width="1.25"/>
<text x="175.87" y="690" text-anchor="middle" font-family="sans-serif" font-size="11" font-weight="500" fill="#292925">330</text>
<line x1="235.03" y1="106" x2="235.03" y2="668" stroke="#b4b6ae" stroke-width="1.25"/>
<text x="235.03" y="690" text-anchor="middle" font-family="sans-serif" font-size="11" font-weight="500" fill="#292925">404</text>
<line x1="294.19" y1="106" x2="294.19" y2="668" stroke="#b4b6ae" stroke-width="1.25"/>
<text x="294.19" y="690" text-anchor="middle" font-family="sans-serif" font-size="11" font-weight="500" fill="#292925">478</text>
<line x1="353.35" y1="106" x2="353.35" y2="668" stroke="#b4b6ae" stroke-width="1.25"/>
<text x="353.35" y="690" text-anchor="middle" font-family="sans-serif" font-size="11" font-weight="500" fill="#292925">552</text>
<line x1="412.51" y1="106" x2="412.51" y2="668" stroke="#b4b6ae" stroke-width="1.25"/>
<text x="412.51" y="690" text-anchor="middle" font-family="sans-serif" font-size="11" font-weight="500" fill="#292925">626</text>
<line x1="471.68" y1="106" x2="471.68" y2="668" stroke="#b4b6ae" stroke-width="1.25"/>
<text x="471.68" y="690" text-anchor="middle" font-family="sans-serif" font-size="11" font-weight="500" fill="#292925">700</text>
<line x1="530.84" y1="106" x2="530.84" y2="668" stroke="#b4b6ae" stroke-width="1.25"/>
<text x="530.84" y="690" text-anchor="middle" font-family="sans-serif" font-size="11" font-weight="500" fill="#292925">774</text>
<line x1="590.00" y1="106" x2="590.00" y2="668" stroke="#b4b6ae" stroke-width="1.25"/>
<text x="590.00" y="690" text-anchor="middle" font-family="sans-serif" font-size="11" font-weight="500" fill="#292925">848</text>
<line x1="649.16" y1="106" x2="649.16" y2="668" stroke="#b4b6ae" stroke-width="1.25"/>
<text x="649.16" y="690" text-anchor="middle" font-family="sans-serif" font-size="11" font-weight="500" fill="#292925">922</text>
<line x1="708.32" y1="106" x2="708.32" y2="668" stroke="#b4b6ae" stroke-width="1.25"/>
<text x="708.32" y="690" text-anchor="middle" font-family="sans-serif" font-size="11" font-weight="500" fill="#292925">996</text>
<line x1="767.49" y1="106" x2="767.49" y2="668" stroke="#b4b6ae" stroke-width="1.25"/>
<text x="767.49" y="690" text-anchor="middle" font-family="sans-serif" font-size="11" font-weight="500" fill="#292925">1070</text>
<line x1="826.65" y1="106" x2="826.65" y2="668" stroke="#b4b6ae" stroke-width="1.25"/>
<text x="826.65" y="690" text-anchor="middle" font-family="sans-serif" font-size="11" font-weight="500" fill="#292925">1144</text>
<line x1="885.81" y1="106" x2="885.81" y2="668" stroke="#b4b6ae" stroke-width="1.25"/>
<text x="885.81" y="690" text-anchor="middle" font-family="sans-serif" font-size="11" font-weight="500" fill="#292925">1218</text>
<line x1="944.97" y1="106" x2="944.97" y2="668" stroke="#b4b6ae" stroke-width="1.25"/>
<text x="944.97" y="690" text-anchor="middle" font-family="sans-serif" font-size="11" font-weight="500" fill="#292925">1292</text>
<line x1="1004.13" y1="106" x2="1004.13" y2="668" stroke="#b4b6ae" stroke-width="1.25"/>
<text x="1004.13" y="690" text-anchor="middle" font-family="sans-serif" font-size="11" font-weight="500" fill="#292925">1366</text>
<line x1="1063.29" y1="106" x2="1063.29" y2="668" stroke="#b4b6ae" stroke-width="1.25"/>
<text x="1063.29" y="690" text-anchor="middle" font-family="sans-serif" font-size="11" font-weight="500" fill="#292925">1440</text>
<text x="590.0" y="736" text-anchor="middle" font-family="sans-serif" font-size="17" font-weight="600" fill="#171715">Tamaño del payload (bytes)</text>
<text transform="translate(24 387.0) rotate(-90)" text-anchor="middle" font-family="sans-serif" font-size="17" font-weight="600" fill="#171715">Pérdida (%)</text>
<line x1="96.0" y1="64" x2="122.0" y2="64" stroke="#2ca02c" stroke-width="3"/>
<text x="130.0" y="68" font-family="sans-serif" font-size="13" fill="#222">Interfaz a FPGA</text>
<line x1="590.0" y1="64" x2="616.0" y2="64" stroke="#9467bd" stroke-width="3" stroke-dasharray="8 6"/>
<text x="624.0" y="68" font-family="sans-serif" font-size="13" fill="#222">FPGA a interfaz</text>
<polyline points="116.71,537.81 175.87,537.78 235.03,537.85 294.19,537.77 353.35,537.75 412.51,537.65 471.68,537.75 530.84,537.79 590.00,537.73 649.16,537.71 708.32,537.73 767.49,537.70 826.65,537.76 885.81,537.71 944.97,537.72 1004.13,537.71 1063.29,537.70" fill="none" stroke="#2ca02c" stroke-width="2.5"/>
<line x1="116.71" y1="537.84" x2="116.71" y2="537.77" stroke="#2ca02c" stroke-width="1.3"/>
<line x1="111.71" y1="537.84" x2="121.71" y2="537.84" stroke="#2ca02c" stroke-width="1.3"/>
<line x1="111.71" y1="537.77" x2="121.71" y2="537.77" stroke="#2ca02c" stroke-width="1.3"/>
<circle cx="116.71" cy="537.81" r="4" fill="#2ca02c" stroke="#ffffff" stroke-width="1"/>
<line x1="175.87" y1="537.80" x2="175.87" y2="537.77" stroke="#2ca02c" stroke-width="1.3"/>
<line x1="170.87" y1="537.80" x2="180.87" y2="537.80" stroke="#2ca02c" stroke-width="1.3"/>
<line x1="170.87" y1="537.77" x2="180.87" y2="537.77" stroke="#2ca02c" stroke-width="1.3"/>
<circle cx="175.87" cy="537.78" r="4" fill="#2ca02c" stroke="#ffffff" stroke-width="1"/>
<line x1="235.03" y1="537.87" x2="235.03" y2="537.83" stroke="#2ca02c" stroke-width="1.3"/>
<line x1="230.03" y1="537.87" x2="240.03" y2="537.87" stroke="#2ca02c" stroke-width="1.3"/>
<line x1="230.03" y1="537.83" x2="240.03" y2="537.83" stroke="#2ca02c" stroke-width="1.3"/>
<circle cx="235.03" cy="537.85" r="4" fill="#2ca02c" stroke="#ffffff" stroke-width="1"/>
<line x1="294.19" y1="537.78" x2="294.19" y2="537.75" stroke="#2ca02c" stroke-width="1.3"/>
<line x1="289.19" y1="537.78" x2="299.19" y2="537.78" stroke="#2ca02c" stroke-width="1.3"/>
<line x1="289.19" y1="537.75" x2="299.19" y2="537.75" stroke="#2ca02c" stroke-width="1.3"/>
<circle cx="294.19" cy="537.77" r="4" fill="#2ca02c" stroke="#ffffff" stroke-width="1"/>
<line x1="353.35" y1="537.78" x2="353.35" y2="537.73" stroke="#2ca02c" stroke-width="1.3"/>
<line x1="348.35" y1="537.78" x2="358.35" y2="537.78" stroke="#2ca02c" stroke-width="1.3"/>
<line x1="348.35" y1="537.73" x2="358.35" y2="537.73" stroke="#2ca02c" stroke-width="1.3"/>
<circle cx="353.35" cy="537.75" r="4" fill="#2ca02c" stroke="#ffffff" stroke-width="1"/>
<line x1="412.51" y1="537.70" x2="412.51" y2="537.60" stroke="#2ca02c" stroke-width="1.3"/>
<line x1="407.51" y1="537.70" x2="417.51" y2="537.70" stroke="#2ca02c" stroke-width="1.3"/>
<line x1="407.51" y1="537.60" x2="417.51" y2="537.60" stroke="#2ca02c" stroke-width="1.3"/>
<circle cx="412.51" cy="537.65" r="4" fill="#2ca02c" stroke="#ffffff" stroke-width="1"/>
<line x1="471.68" y1="537.78" x2="471.68" y2="537.72" stroke="#2ca02c" stroke-width="1.3"/>
<line x1="466.68" y1="537.78" x2="476.68" y2="537.78" stroke="#2ca02c" stroke-width="1.3"/>
<line x1="466.68" y1="537.72" x2="476.68" y2="537.72" stroke="#2ca02c" stroke-width="1.3"/>
<circle cx="471.68" cy="537.75" r="4" fill="#2ca02c" stroke="#ffffff" stroke-width="1"/>
<line x1="530.84" y1="537.81" x2="530.84" y2="537.78" stroke="#2ca02c" stroke-width="1.3"/>
<line x1="525.84" y1="537.81" x2="535.84" y2="537.81" stroke="#2ca02c" stroke-width="1.3"/>
<line x1="525.84" y1="537.78" x2="535.84" y2="537.78" stroke="#2ca02c" stroke-width="1.3"/>
<circle cx="530.84" cy="537.79" r="4" fill="#2ca02c" stroke="#ffffff" stroke-width="1"/>
<line x1="590.00" y1="537.74" x2="590.00" y2="537.73" stroke="#2ca02c" stroke-width="1.3"/>
<line x1="585.00" y1="537.74" x2="595.00" y2="537.74" stroke="#2ca02c" stroke-width="1.3"/>
<line x1="585.00" y1="537.73" x2="595.00" y2="537.73" stroke="#2ca02c" stroke-width="1.3"/>
<circle cx="590.00" cy="537.73" r="4" fill="#2ca02c" stroke="#ffffff" stroke-width="1"/>
<line x1="649.16" y1="537.72" x2="649.16" y2="537.69" stroke="#2ca02c" stroke-width="1.3"/>
<line x1="644.16" y1="537.72" x2="654.16" y2="537.72" stroke="#2ca02c" stroke-width="1.3"/>
<line x1="644.16" y1="537.69" x2="654.16" y2="537.69" stroke="#2ca02c" stroke-width="1.3"/>
<circle cx="649.16" cy="537.71" r="4" fill="#2ca02c" stroke="#ffffff" stroke-width="1"/>
<line x1="708.32" y1="537.76" x2="708.32" y2="537.70" stroke="#2ca02c" stroke-width="1.3"/>
<line x1="703.32" y1="537.76" x2="713.32" y2="537.76" stroke="#2ca02c" stroke-width="1.3"/>
<line x1="703.32" y1="537.70" x2="713.32" y2="537.70" stroke="#2ca02c" stroke-width="1.3"/>
<circle cx="708.32" cy="537.73" r="4" fill="#2ca02c" stroke="#ffffff" stroke-width="1"/>
<line x1="767.49" y1="537.72" x2="767.49" y2="537.68" stroke="#2ca02c" stroke-width="1.3"/>
<line x1="762.49" y1="537.72" x2="772.49" y2="537.72" stroke="#2ca02c" stroke-width="1.3"/>
<line x1="762.49" y1="537.68" x2="772.49" y2="537.68" stroke="#2ca02c" stroke-width="1.3"/>
<circle cx="767.49" cy="537.70" r="4" fill="#2ca02c" stroke="#ffffff" stroke-width="1"/>
<line x1="826.65" y1="537.78" x2="826.65" y2="537.75" stroke="#2ca02c" stroke-width="1.3"/>
<line x1="821.65" y1="537.78" x2="831.65" y2="537.78" stroke="#2ca02c" stroke-width="1.3"/>
<line x1="821.65" y1="537.75" x2="831.65" y2="537.75" stroke="#2ca02c" stroke-width="1.3"/>
<circle cx="826.65" cy="537.76" r="4" fill="#2ca02c" stroke="#ffffff" stroke-width="1"/>
<line x1="885.81" y1="537.73" x2="885.81" y2="537.69" stroke="#2ca02c" stroke-width="1.3"/>
<line x1="880.81" y1="537.73" x2="890.81" y2="537.73" stroke="#2ca02c" stroke-width="1.3"/>
<line x1="880.81" y1="537.69" x2="890.81" y2="537.69" stroke="#2ca02c" stroke-width="1.3"/>
<circle cx="885.81" cy="537.71" r="4" fill="#2ca02c" stroke="#ffffff" stroke-width="1"/>
<line x1="944.97" y1="537.73" x2="944.97" y2="537.70" stroke="#2ca02c" stroke-width="1.3"/>
<line x1="939.97" y1="537.73" x2="949.97" y2="537.73" stroke="#2ca02c" stroke-width="1.3"/>
<line x1="939.97" y1="537.70" x2="949.97" y2="537.70" stroke="#2ca02c" stroke-width="1.3"/>
<circle cx="944.97" cy="537.72" r="4" fill="#2ca02c" stroke="#ffffff" stroke-width="1"/>
<line x1="1004.13" y1="537.72" x2="1004.13" y2="537.70" stroke="#2ca02c" stroke-width="1.3"/>
<line x1="999.13" y1="537.72" x2="1009.13" y2="537.72" stroke="#2ca02c" stroke-width="1.3"/>
<line x1="999.13" y1="537.70" x2="1009.13" y2="537.70" stroke="#2ca02c" stroke-width="1.3"/>
<circle cx="1004.13" cy="537.71" r="4" fill="#2ca02c" stroke="#ffffff" stroke-width="1"/>
<line x1="1063.29" y1="537.72" x2="1063.29" y2="537.69" stroke="#2ca02c" stroke-width="1.3"/>
<line x1="1058.29" y1="537.72" x2="1068.29" y2="537.72" stroke="#2ca02c" stroke-width="1.3"/>
<line x1="1058.29" y1="537.69" x2="1068.29" y2="537.69" stroke="#2ca02c" stroke-width="1.3"/>
<circle cx="1063.29" cy="537.70" r="4" fill="#2ca02c" stroke="#ffffff" stroke-width="1"/>
<polyline points="116.71,387.00 175.87,536.96 235.03,537.88 294.19,537.80 353.35,537.89 412.51,537.87 471.68,537.89 530.84,537.89 590.00,537.89 649.16,537.89 708.32,537.85 767.49,537.89 826.65,537.89 885.81,537.88 944.97,537.89 1004.13,537.89 1063.29,537.86" fill="none" stroke="#9467bd" stroke-width="2.5" stroke-dasharray="8 6"/>
<line x1="116.71" y1="629.24" x2="116.71" y2="144.76" stroke="#9467bd" stroke-width="1.3"/>
<line x1="111.71" y1="629.24" x2="121.71" y2="629.24" stroke="#9467bd" stroke-width="1.3"/>
<line x1="111.71" y1="144.76" x2="121.71" y2="144.76" stroke="#9467bd" stroke-width="1.3"/>
<circle cx="116.71" cy="387.00" r="4" fill="#9467bd" stroke="#ffffff" stroke-width="1"/>
<line x1="175.87" y1="538.13" x2="175.87" y2="535.80" stroke="#9467bd" stroke-width="1.3"/>
<line x1="170.87" y1="538.13" x2="180.87" y2="538.13" stroke="#9467bd" stroke-width="1.3"/>
<line x1="170.87" y1="535.80" x2="180.87" y2="535.80" stroke="#9467bd" stroke-width="1.3"/>
<circle cx="175.87" cy="536.96" r="4" fill="#9467bd" stroke="#ffffff" stroke-width="1"/>
<line x1="235.03" y1="537.89" x2="235.03" y2="537.86" stroke="#9467bd" stroke-width="1.3"/>
<line x1="230.03" y1="537.89" x2="240.03" y2="537.89" stroke="#9467bd" stroke-width="1.3"/>
<line x1="230.03" y1="537.86" x2="240.03" y2="537.86" stroke="#9467bd" stroke-width="1.3"/>
<circle cx="235.03" cy="537.88" r="4" fill="#9467bd" stroke="#ffffff" stroke-width="1"/>
<line x1="294.19" y1="537.90" x2="294.19" y2="537.70" stroke="#9467bd" stroke-width="1.3"/>
<line x1="289.19" y1="537.90" x2="299.19" y2="537.90" stroke="#9467bd" stroke-width="1.3"/>
<line x1="289.19" y1="537.70" x2="299.19" y2="537.70" stroke="#9467bd" stroke-width="1.3"/>
<circle cx="294.19" cy="537.80" r="4" fill="#9467bd" stroke="#ffffff" stroke-width="1"/>
<line x1="353.35" y1="537.89" x2="353.35" y2="537.89" stroke="#9467bd" stroke-width="1.3"/>
<line x1="348.35" y1="537.89" x2="358.35" y2="537.89" stroke="#9467bd" stroke-width="1.3"/>
<line x1="348.35" y1="537.89" x2="358.35" y2="537.89" stroke="#9467bd" stroke-width="1.3"/>
<circle cx="353.35" cy="537.89" r="4" fill="#9467bd" stroke="#ffffff" stroke-width="1"/>
<line x1="412.51" y1="537.91" x2="412.51" y2="537.83" stroke="#9467bd" stroke-width="1.3"/>
<line x1="407.51" y1="537.91" x2="417.51" y2="537.91" stroke="#9467bd" stroke-width="1.3"/>
<line x1="407.51" y1="537.83" x2="417.51" y2="537.83" stroke="#9467bd" stroke-width="1.3"/>
<circle cx="412.51" cy="537.87" r="4" fill="#9467bd" stroke="#ffffff" stroke-width="1"/>
<circle cx="471.68" cy="537.89" r="4" fill="#9467bd" stroke="#ffffff" stroke-width="1"/>
<circle cx="530.84" cy="537.89" r="4" fill="#9467bd" stroke="#ffffff" stroke-width="1"/>
<line x1="590.00" y1="537.90" x2="590.00" y2="537.88" stroke="#9467bd" stroke-width="1.3"/>
<line x1="585.00" y1="537.90" x2="595.00" y2="537.90" stroke="#9467bd" stroke-width="1.3"/>
<line x1="585.00" y1="537.88" x2="595.00" y2="537.88" stroke="#9467bd" stroke-width="1.3"/>
<circle cx="590.00" cy="537.89" r="4" fill="#9467bd" stroke="#ffffff" stroke-width="1"/>
<circle cx="649.16" cy="537.89" r="4" fill="#9467bd" stroke="#ffffff" stroke-width="1"/>
<line x1="708.32" y1="537.94" x2="708.32" y2="537.77" stroke="#9467bd" stroke-width="1.3"/>
<line x1="703.32" y1="537.94" x2="713.32" y2="537.94" stroke="#9467bd" stroke-width="1.3"/>
<line x1="703.32" y1="537.77" x2="713.32" y2="537.77" stroke="#9467bd" stroke-width="1.3"/>
<circle cx="708.32" cy="537.85" r="4" fill="#9467bd" stroke="#ffffff" stroke-width="1"/>
<circle cx="767.49" cy="537.89" r="4" fill="#9467bd" stroke="#ffffff" stroke-width="1"/>
<circle cx="826.65" cy="537.89" r="4" fill="#9467bd" stroke="#ffffff" stroke-width="1"/>
<line x1="885.81" y1="537.90" x2="885.81" y2="537.87" stroke="#9467bd" stroke-width="1.3"/>
<line x1="880.81" y1="537.90" x2="890.81" y2="537.90" stroke="#9467bd" stroke-width="1.3"/>
<line x1="880.81" y1="537.87" x2="890.81" y2="537.87" stroke="#9467bd" stroke-width="1.3"/>
<circle cx="885.81" cy="537.88" r="4" fill="#9467bd" stroke="#ffffff" stroke-width="1"/>
<circle cx="944.97" cy="537.89" r="4" fill="#9467bd" stroke="#ffffff" stroke-width="1"/>
<circle cx="1004.13" cy="537.89" r="4" fill="#9467bd" stroke="#ffffff" stroke-width="1"/>
<line x1="1063.29" y1="537.94" x2="1063.29" y2="537.78" stroke="#9467bd" stroke-width="1.3"/>
<line x1="1058.29" y1="537.94" x2="1068.29" y2="537.94" stroke="#9467bd" stroke-width="1.3"/>
<line x1="1058.29" y1="537.78" x2="1068.29" y2="537.78" stroke="#9467bd" stroke-width="1.3"/>
<circle cx="1063.29" cy="537.86" r="4" fill="#9467bd" stroke="#ffffff" stroke-width="1"/>
</svg>
