<svg xmlns="http://www.w3.org/2000/svg" width="1120" height="760" viewBox="0 0 1120 760">
<rect width="100%" height="100%" fill="#fbfbf8"/>
<text x="560.0" y="34" text-anchor="middle" font-family="sans-serif" font-size="24" fill="#222">PPS vs. payload</text>
<rect x="96" y="106" width="988" height="562" fill="#ffffff" stroke="#c9c9c1"/>
<line x1="96" y1="106.00" x2="1084" y2="106.00" stroke="#a9aba3" stroke-width="1.35"/>
<text x="86" y="110.00" text-anchor="end" font-family="sans-serif" font-size="13" font-weight="400" fill="#292925">448K</text>
<line x1="96" y1="199.67" x2="1084" y2="199.67" stroke="#a9aba3" stroke-width="1.35"/>
<text x="86" y="203.67" text-anchor="end" font-family="sans-serif" font-size="13" font-weight="400" fill="#292925">373K</text>
<line x1="96" y1="293.33" x2="1084" y2="293.33" stroke="#a9aba3" stroke-width="1.35"/>
<text x="86" y="297.33" text-anchor="end" font-family="sans-serif" font-size="13" font-weight="400" fill="#292925">299K</text>
<line x1="96" y1="387.00" x2="1084" y2="387.00" stroke="#a9aba3" stroke-width="1.35"/>
<text x="86" y="391.00" text-anchor="end" font-family="sans-serif" font-size="13" font-weight="400" fill="#292925">224K</text>
<line x1="96" y1="480.67" x2="1084" y2="480.67" stroke="#a9aba3" stroke-width="1.35"/>
<text x="86" y="484.67" text-anchor="end" font-family="sans-serif" font-size="13" font-weight="400" fill="#292925">149K</text>
<line x1="96" y1="574.33" x2="1084" y2="574.33" stroke="#a9aba3" stroke-width="1.35"/>
<text x="86" y="578.33" text-anchor="end" font-family="sans-serif" font-size="13" font-weight="400" fill="#292925">74.7K</text>
<line x1="96" y1="668.00" x2="1084" y2="668.00" stroke="#4f504b" stroke-width="2.2"/>
<text x="86" y="672.00" text-anchor="end" font-family="sans-serif" font-size="13" font-weight="600" fill="#292925">0</text>
<line x1="116.71" y1="106" x2="116.71" y2="668" stroke="#b4b6ae" stroke-width="1.25"/>
<text x="116.71" y="690" text-anchor="middle" font-family="sans-serif" font-size="11" font-weight="500" fill="#292925">256</text>
<line x1="175.87" y1="106" x2="175.87" y2="668" stroke="#b4b6ae" stroke-width="1.25"/>
<text x="175.87" y="690" text-anchor="middle" font-family="sans-serif" font-size="11" font-weight="500" fill="#292925">330</text>
<line x1="235.03" y1="106" x2="235.03" y2="668" stroke="#b4b6ae" stroke-width="1.25"/>
<text x="235.03" y="690" text-anchor="middle" font-family="sans-serif" font-size="11" font-weight="500" fill="#292925">404</text>
<line x1="294.19" y1="106" x2="294.19" y2="668" stroke="#b4b6ae" stroke-width="1.25"/>
<text x="294.19" y="690" text-anchor="middle" font-family="sans-serif" font-size="11" font-weight="500" fill="#292925">478</text>
<line x1="353.35" y1="106" x2="353.35" y2="668" stroke="#b4b6ae" stroke-width="1.25"/>
<text x="353.35" y="690" text-anchor="middle" font-family="sans-serif" font-size="11" font-weight="500" fill="#292925">552</text>
<line x1="412.51" y1="106" x2="412.51" y2="668" stroke="#b4b6ae" stroke-width="1.25"/>
<text x="412.51" y="690" text-anchor="middle" font-family="sans-serif" font-size="11" font-weight="500" fill="#292925">626</text>
<line x1="471.68" y1="106" x2="471.68" y2="668" stroke="#b4b6ae" stroke-width="1.25"/>
<text x="471.68" y="690" text-anchor="middle" font-family="sans-serif" font-size="11" font-weight="500" fill="#292925">700</text>
<line x1="530.84" y1="106" x2="530.84" y2="668" stroke="#b4b6ae" stroke-width="1.25"/>
<text x="530.84" y="690" text-anchor="middle" font-family="sans-serif" font-size="11" font-weight="500" fill="#292925">774</text>
<line x1="590.00" y1="106" x2="590.00" y2="668" stroke="#b4b6ae" stroke-width="1.25"/>
<text x="590.00" y="690" text-anchor="middle" font-family="sans-serif" font-size="11" font-weight="500" fill="#292925">848</text>
<line x1="649.16" y1="106" x2="649.16" y2="668" stroke="#b4b6ae" stroke-width="1.25"/>
<text x="649.16" y="690" text-anchor="middle" font-family="sans-serif" font-size="11" font-weight="500" fill="#292925">922</text>
<line x1="708.32" y1="106" x2="708.32" y2="668" stroke="#b4b6ae" stroke-width="1.25"/>
<text x="708.32" y="690" text-anchor="middle" font-family="sans-serif" font-size="11" font-weight="500" fill="#292925">996</text>
<line x1="767.49" y1="106" x2="767.49" y2="668" stroke="#b4b6ae" stroke-width="1.25"/>
<text x="767.49" y="690" text-anchor="middle" font-family="sans-serif" font-size="11" font-weight="500" fill="#292925">1070</text>
<line x1="826.65" y1="106" x2="826.65" y2="668" stroke="#b4b6ae" stroke-width="1.25"/>
<text x="826.65" y="690" text-anchor="middle" font-family="sans-serif" font-size="11" font-weight="500" fill="#292925">1144</text>
<line x1="885.81" y1="106" x2="885.81" y2="668" stroke="#b4b6ae" stroke-width="1.25"/>
<text x="885.81" y="690" text-anchor="middle" font-family="sans-serif" font-size="11" font-weight="500" fill="#292925">1218</text>
<line x1="944.97" y1="106" x2="944.97" y2="668" stroke="#b4b6ae" stroke-width="1.25"/>
<text x="944.97" y="690" text-anchor="middle" font-family="sans-serif" font-size="11" font-weight="500" fill="#292925">1292</text>
<line x1="1004.13" y1="106" x2="1004.13" y2="668" stroke="#b4b6ae" stroke-width="1.25"/>
<text x="1004.13" y="690" text-anchor="middle" font-family="sans-serif" font-size="11" font-weight="500" fill="#292925">1366</text>
<line x1="1063.29" y1="106" x2="1063.29" y2="668" stroke="#b4b6ae" stroke-width="1.25"/>
<text x="1063.29" y="690" text-anchor="middle" font-family="sans-serif" font-size="11" font-weight="500" fill="#292925">1440</text>
<text x="590.0" y="736" text-anchor="middle" font-family="sans-serif" font-size="17" font-weight="600" fill="#171715">Tamaño del payload (bytes)</text>
<text transform="translate(24 387.0) rotate(-90)" text-anchor="middle" font-family="sans-serif" font-size="17" font-weight="600" fill="#171715">Paquetes por segundo</text>
<line x1="96.0" y1="64" x2="122.0" y2="64" stroke="#2ca02c" stroke-width="3"/>
<text x="130.0" y="68" font-family="sans-serif" font-size="13" fill="#222">Interfaz a FPGA</text>
<line x1="425.3333333333333" y1="64" x2="451.3333333333333" y2="64" stroke="#9467bd" stroke-width="3" stroke-dasharray="8 6"/>
<text x="459.3333333333333" y="68" font-family="sans-serif" font-size="13" fill="#222">FPGA a interfaz</text>
<line x1="754.6666666666666" y1="64" x2="780.6666666666666" y2="64" stroke="#111111" stroke-width="3" stroke-dasharray="8 6"/>
<text x="788.6666666666666" y="68" font-family="sans-serif" font-size="13" fill="#222">Límite teórico</text>
<polyline points="116.71,201.84 175.87,276.12 235.03,334.34 294.19,379.91 353.35,414.24 412.51,441.38 471.68,463.27 530.84,481.31 590.00,496.42 649.16,509.27 708.32,520.33 767.49,529.95 826.65,538.39 885.81,545.86 944.97,552.52 1004.13,558.49 1063.29,563.87" fill="none" stroke="#2ca02c" stroke-width="2.5"/>
<line x1="116.71" y1="248.50" x2="116.71" y2="155.18" stroke="#2ca02c" stroke-width="1.3"/>
<line x1="111.71" y1="248.50" x2="121.71" y2="248.50" stroke="#2ca02c" stroke-width="1.3"/>
<line x1="111.71" y1="155.18" x2="121.71" y2="155.18" stroke="#2ca02c" stroke-width="1.3"/>
<circle cx="116.71" cy="201.84" r="4" fill="#2ca02c" stroke="#ffffff" stroke-width="1"/>
<line x1="175.87" y1="285.37" x2="175.87" y2="266.87" stroke="#2ca02c" stroke-width="1.3"/>
<line x1="170.87" y1="285.37" x2="180.87" y2="285.37" stroke="#2ca02c" stroke-width="1.3"/>
<line x1="170.87" y1="266.87" x2="180.87" y2="266.87" stroke="#2ca02c" stroke-width="1.3"/>
<circle cx="175.87" cy="276.12" r="4" fill="#2ca02c" stroke="#ffffff" stroke-width="1"/>
<line x1="235.03" y1="334.34" x2="235.03" y2="334.34" stroke="#2ca02c" stroke-width="1.3"/>
<line x1="230.03" y1="334.34" x2="240.03" y2="334.34" stroke="#2ca02c" stroke-width="1.3"/>
<line x1="230.03" y1="334.34" x2="240.03" y2="334.34" stroke="#2ca02c" stroke-width="1.3"/>
<circle cx="235.03" cy="334.34" r="4" fill="#2ca02c" stroke="#ffffff" stroke-width="1"/>
<line x1="294.19" y1="380.34" x2="294.19" y2="379.49" stroke="#2ca02c" stroke-width="1.3"/>
<line x1="289.19" y1="380.34" x2="299.19" y2="380.34" stroke="#2ca02c" stroke-width="1.3"/>
<line x1="289.19" y1="379.49" x2="299.19" y2="379.49" stroke="#2ca02c" stroke-width="1.3"/>
<circle cx="294.19" cy="379.91" r="4" fill="#2ca02c" stroke="#ffffff" stroke-width="1"/>
<line x1="353.35" y1="414.24" x2="353.35" y2="414.24" stroke="#2ca02c" stroke-width="1.3"/>
<line x1="348.35" y1="414.24" x2="358.35" y2="414.24" stroke="#2ca02c" stroke-width="1.3"/>
<line x1="348.35" y1="414.24" x2="358.35" y2="414.24" stroke="#2ca02c" stroke-width="1.3"/>
<circle cx="353.35" cy="414.24" r="4" fill="#2ca02c" stroke="#ffffff" stroke-width="1"/>
<line x1="412.51" y1="441.38" x2="412.51" y2="441.38" stroke="#2ca02c" stroke-width="1.3"/>
<line x1="407.51" y1="441.38" x2="417.51" y2="441.38" stroke="#2ca02c" stroke-width="1.3"/>
<line x1="407.51" y1="441.38" x2="417.51" y2="441.38" stroke="#2ca02c" stroke-width="1.3"/>
<circle cx="412.51" cy="441.38" r="4" fill="#2ca02c" stroke="#ffffff" stroke-width="1"/>
<line x1="471.68" y1="463.27" x2="471.68" y2="463.27" stroke="#2ca02c" stroke-width="1.3"/>
<line x1="466.68" y1="463.27" x2="476.68" y2="463.27" stroke="#2ca02c" stroke-width="1.3"/>
<line x1="466.68" y1="463.27" x2="476.68" y2="463.27" stroke="#2ca02c" stroke-width="1.3"/>
<circle cx="471.68" cy="463.27" r="4" fill="#2ca02c" stroke="#ffffff" stroke-width="1"/>
<circle cx="530.84" cy="481.31" r="4" fill="#2ca02c" stroke="#ffffff" stroke-width="1"/>
<circle cx="590.00" cy="496.42" r="4" fill="#2ca02c" stroke="#ffffff" stroke-width="1"/>
<circle cx="649.16" cy="509.27" r="4" fill="#2ca02c" stroke="#ffffff" stroke-width="1"/>
<line x1="708.32" y1="520.33" x2="708.32" y2="520.33" stroke="#2ca02c" stroke-width="1.3"/>
<line x1="703.32" y1="520.33" x2="713.32" y2="520.33" stroke="#2ca02c" stroke-width="1.3"/>
<line x1="703.32" y1="520.33" x2="713.32" y2="520.33" stroke="#2ca02c" stroke-width="1.3"/>
<circle cx="708.32" cy="520.33" r="4" fill="#2ca02c" stroke="#ffffff" stroke-width="1"/>
<circle cx="767.49" cy="529.95" r="4" fill="#2ca02c" stroke="#ffffff" stroke-width="1"/>
<circle cx="826.65" cy="538.39" r="4" fill="#2ca02c" stroke="#ffffff" stroke-width="1"/>
<line x1="885.81" y1="545.86" x2="885.81" y2="545.86" stroke="#2ca02c" stroke-width="1.3"/>
<line x1="880.81" y1="545.86" x2="890.81" y2="545.86" stroke="#2ca02c" stroke-width="1.3"/>
<line x1="880.81" y1="545.86" x2="890.81" y2="545.86" stroke="#2ca02c" stroke-width="1.3"/>
<circle cx="885.81" cy="545.86" r="4" fill="#2ca02c" stroke="#ffffff" stroke-width="1"/>
<circle cx="944.97" cy="552.52" r="4" fill="#2ca02c" stroke="#ffffff" stroke-width="1"/>
<line x1="1004.13" y1="558.49" x2="1004.13" y2="558.49" stroke="#2ca02c" stroke-width="1.3"/>
<line x1="999.13" y1="558.49" x2="1009.13" y2="558.49" stroke="#2ca02c" stroke-width="1.3"/>
<line x1="999.13" y1="558.49" x2="1009.13" y2="558.49" stroke="#2ca02c" stroke-width="1.3"/>
<circle cx="1004.13" cy="558.49" r="4" fill="#2ca02c" stroke="#ffffff" stroke-width="1"/>
<circle cx="1063.29" cy="563.87" r="4" fill="#2ca02c" stroke="#ffffff" stroke-width="1"/>
<polyline points="116.71,235.81 175.87,272.23 235.03,334.30 294.19,379.72 353.35,414.23 412.51,441.38 471.68,463.26 530.84,481.31 590.00,496.42 649.16,509.27 708.32,520.33 767.49,529.95 826.65,538.39 885.81,545.86 944.97,552.52 1004.13,558.48 1063.29,563.87" fill="none" stroke="#9467bd" stroke-width="2.5" stroke-dasharray="8 6"/>
<line x1="116.71" y1="324.00" x2="116.71" y2="147.63" stroke="#9467bd" stroke-width="1.3"/>
<line x1="111.71" y1="324.00" x2="121.71" y2="324.00" stroke="#9467bd" stroke-width="1.3"/>
<line x1="111.71" y1="147.63" x2="121.71" y2="147.63" stroke="#9467bd" stroke-width="1.3"/>
<circle cx="116.71" cy="235.81" r="4" fill="#9467bd" stroke="#ffffff" stroke-width="1"/>
<line x1="175.87" y1="272.61" x2="175.87" y2="271.86" stroke="#9467bd" stroke-width="1.3"/>
<line x1="170.87" y1="272.61" x2="180.87" y2="272.61" stroke="#9467bd" stroke-width="1.3"/>
<line x1="170.87" y1="271.86" x2="180.87" y2="271.86" stroke="#9467bd" stroke-width="1.3"/>
<circle cx="175.87" cy="272.23" r="4" fill="#9467bd" stroke="#ffffff" stroke-width="1"/>
<line x1="235.03" y1="334.33" x2="235.03" y2="334.28" stroke="#9467bd" stroke-width="1.3"/>
<line x1="230.03" y1="334.33" x2="240.03" y2="334.33" stroke="#9467bd" stroke-width="1.3"/>
<line x1="230.03" y1="334.28" x2="240.03" y2="334.28" stroke="#9467bd" stroke-width="1.3"/>
<circle cx="235.03" cy="334.30" r="4" fill="#9467bd" stroke="#ffffff" stroke-width="1"/>
<line x1="294.19" y1="379.75" x2="294.19" y2="379.69" stroke="#9467bd" stroke-width="1.3"/>
<line x1="289.19" y1="379.75" x2="299.19" y2="379.75" stroke="#9467bd" stroke-width="1.3"/>
<line x1="289.19" y1="379.69" x2="299.19" y2="379.69" stroke="#9467bd" stroke-width="1.3"/>
<circle cx="294.19" cy="379.72" r="4" fill="#9467bd" stroke="#ffffff" stroke-width="1"/>
<line x1="353.35" y1="414.24" x2="353.35" y2="414.22" stroke="#9467bd" stroke-width="1.3"/>
<line x1="348.35" y1="414.24" x2="358.35" y2="414.24" stroke="#9467bd" stroke-width="1.3"/>
<line x1="348.35" y1="414.22" x2="358.35" y2="414.22" stroke="#9467bd" stroke-width="1.3"/>
<circle cx="353.35" cy="414.23" r="4" fill="#9467bd" stroke="#ffffff" stroke-width="1"/>
<line x1="412.51" y1="441.38" x2="412.51" y2="441.38" stroke="#9467bd" stroke-width="1.3"/>
<line x1="407.51" y1="441.38" x2="417.51" y2="441.38" stroke="#9467bd" stroke-width="1.3"/>
<line x1="407.51" y1="441.38" x2="417.51" y2="441.38" stroke="#9467bd" stroke-width="1.3"/>
<circle cx="412.51" cy="441.38" r="4" fill="#9467bd" stroke="#ffffff" stroke-width="1"/>
<line x1="471.68" y1="463.27" x2="471.68" y2="463.25" stroke="#9467bd" stroke-width="1.3"/>
<line x1="466.68" y1="463.27" x2="476.68" y2="463.27" stroke="#9467bd" stroke-width="1.3"/>
<line x1="466.68" y1="463.25" x2="476.68" y2="463.25" stroke="#9467bd" stroke-width="1.3"/>
<circle cx="471.68" cy="463.26" r="4" fill="#9467bd" stroke="#ffffff" stroke-width="1"/>
<line x1="530.84" y1="481.32" x2="530.84" y2="481.30" stroke="#9467bd" stroke-width="1.3"/>
<line x1="525.84" y1="481.32" x2="535.84" y2="481.32" stroke="#9467bd" stroke-width="1.3"/>
<line x1="525.84" y1="481.30" x2="535.84" y2="481.30" stroke="#9467bd" stroke-width="1.3"/>
<circle cx="530.84" cy="481.31" r="4" fill="#9467bd" stroke="#ffffff" stroke-width="1"/>
<line x1="590.00" y1="496.43" x2="590.00" y2="496.41" stroke="#9467bd" stroke-width="1.3"/>
<line x1="585.00" y1="496.43" x2="595.00" y2="496.43" stroke="#9467bd" stroke-width="1.3"/>
<line x1="585.00" y1="496.41" x2="595.00" y2="496.41" stroke="#9467bd" stroke-width="1.3"/>
<circle cx="590.00" cy="496.42" r="4" fill="#9467bd" stroke="#ffffff" stroke-width="1"/>
<line x1="649.16" y1="509.27" x2="649.16" y2="509.26" stroke="#9467bd" stroke-width="1.3"/>
<line x1="644.16" y1="509.27" x2="654.16" y2="509.27" stroke="#9467bd" stroke-width="1.3"/>
<line x1="644.16" y1="509.26" x2="654.16" y2="509.26" stroke="#9467bd" stroke-width="1.3"/>
<circle cx="649.16" cy="509.27" r="4" fill="#9467bd" stroke="#ffffff" stroke-width="1"/>
<line x1="708.32" y1="520.34" x2="708.32" y2="520.32" stroke="#9467bd" stroke-width="1.3"/>
<line x1="703.32" y1="520.34" x2="713.32" y2="520.34" stroke="#9467bd" stroke-width="1.3"/>
<line x1="703.32" y1="520.32" x2="713.32" y2="520.32" stroke="#9467bd" stroke-width="1.3"/>
<circle cx="708.32" cy="520.33" r="4" fill="#9467bd" stroke="#ffffff" stroke-width="1"/>
<line x1="767.49" y1="529.96" x2="767.49" y2="529.94" stroke="#9467bd" stroke-width="1.3"/>
<line x1="762.49" y1="529.96" x2="772.49" y2="529.96" stroke="#9467bd" stroke-width="1.3"/>
<line x1="762.49" y1="529.94" x2="772.49" y2="529.94" stroke="#9467bd" stroke-width="1.3"/>
<circle cx="767.49" cy="529.95" r="4" fill="#9467bd" stroke="#ffffff" stroke-width="1"/>
<line x1="826.65" y1="538.40" x2="826.65" y2="538.39" stroke="#9467bd" stroke-width="1.3"/>
<line x1="821.65" y1="538.40" x2="831.65" y2="538.40" stroke="#9467bd" stroke-width="1.3"/>
<line x1="821.65" y1="538.39" x2="831.65" y2="538.39" stroke="#9467bd" stroke-width="1.3"/>
<circle cx="826.65" cy="538.39" r="4" fill="#9467bd" stroke="#ffffff" stroke-width="1"/>
<line x1="885.81" y1="545.87" x2="885.81" y2="545.86" stroke="#9467bd" stroke-width="1.3"/>
<line x1="880.81" y1="545.87" x2="890.81" y2="545.87" stroke="#9467bd" stroke-width="1.3"/>
<line x1="880.81" y1="545.86" x2="890.81" y2="545.86" stroke="#9467bd" stroke-width="1.3"/>
<circle cx="885.81" cy="545.86" r="4" fill="#9467bd" stroke="#ffffff" stroke-width="1"/>
<line x1="944.97" y1="552.52" x2="944.97" y2="552.51" stroke="#9467bd" stroke-width="1.3"/>
<line x1="939.97" y1="552.52" x2="949.97" y2="552.52" stroke="#9467bd" stroke-width="1.3"/>
<line x1="939.97" y1="552.51" x2="949.97" y2="552.51" stroke="#9467bd" stroke-width="1.3"/>
<circle cx="944.97" cy="552.52" r="4" fill="#9467bd" stroke="#ffffff" stroke-width="1"/>
<line x1="1004.13" y1="558.49" x2="1004.13" y2="558.48" stroke="#9467bd" stroke-width="1.3"/>
<line x1="999.13" y1="558.49" x2="1009.13" y2="558.49" stroke="#9467bd" stroke-width="1.3"/>
<line x1="999.13" y1="558.48" x2="1009.13" y2="558.48" stroke="#9467bd" stroke-width="1.3"/>
<circle cx="1004.13" cy="558.48" r="4" fill="#9467bd" stroke="#ffffff" stroke-width="1"/>
<line x1="1063.29" y1="563.88" x2="1063.29" y2="563.86" stroke="#9467bd" stroke-width="1.3"/>
<line x1="1058.29" y1="563.88" x2="1068.29" y2="563.88" stroke="#9467bd" stroke-width="1.3"/>
<line x1="1058.29" y1="563.86" x2="1068.29" y2="563.86" stroke="#9467bd" stroke-width="1.3"/>
<circle cx="1063.29" cy="563.87" r="4" fill="#9467bd" stroke="#ffffff" stroke-width="1"/>
<polyline points="116.71,180.97 175.87,271.98 235.03,334.34 294.19,379.72 353.35,414.24 412.51,441.38 471.68,463.27 530.84,481.31 590.00,496.42 649.16,509.27 708.32,520.33 767.49,529.95 826.65,538.39 885.81,545.86 944.97,552.52 1004.13,558.49 1063.29,563.87" fill="none" stroke="#111111" stroke-width="2.5" stroke-dasharray="8 6"/>
<circle cx="116.71" cy="180.97" r="4" fill="#111111" stroke="#ffffff" stroke-width="1"/>
<circle cx="175.87" cy="271.98" r="4" fill="#111111" stroke="#ffffff" stroke-width="1"/>
<circle cx="235.03" cy="334.34" r="4" fill="#111111" stroke="#ffffff" stroke-width="1"/>
<circle cx="294.19" cy="379.72" r="4" fill="#111111" stroke="#ffffff" stroke-width="1"/>
<circle cx="353.35" cy="414.24" r="4" fill="#111111" stroke="#ffffff" stroke-width="1"/>
<circle cx="412.51" cy="441.38" r="4" fill="#111111" stroke="#ffffff" stroke-width="1"/>
<circle cx="471.68" cy="463.27" r="4" fill="#111111" stroke="#ffffff" stroke-width="1"/>
<circle cx="530.84" cy="481.31" r="4" fill="#111111" stroke="#ffffff" stroke-width="1"/>
<circle cx="590.00" cy="496.42" r="4" fill="#111111" stroke="#ffffff" stroke-width="1"/>
<circle cx="649.16" cy="509.27" r="4" fill="#111111" stroke="#ffffff" stroke-width="1"/>
<circle cx="708.32" cy="520.33" r="4" fill="#111111" stroke="#ffffff" stroke-width="1"/>
<circle cx="767.49" cy="529.95" r="4" fill="#111111" stroke="#ffffff" stroke-width="1"/>
<circle cx="826.65" cy="538.39" r="4" fill="#111111" stroke="#ffffff" stroke-width="1"/>
<circle cx="885.81" cy="545.86" r="4" fill="#111111" stroke="#ffffff" stroke-width="1"/>
<circle cx="944.97" cy="552.52" r="4" fill="#111111" stroke="#ffffff" stroke-width="1"/>
<circle cx="1004.13" cy="558.49" r="4" fill="#111111" stroke="#ffffff" stroke-width="1"/>
<circle cx="1063.29" cy="563.87" r="4" fill="#111111" stroke="#ffffff" stroke-width="1"/>
</svg>
