<svg xmlns="http://www.w3.org/2000/svg" width="1120" height="680" viewBox="0 0 1120 680">
<rect width="100%" height="100%" fill="#fbfbf8"/>
<text x="560.0" y="34" text-anchor="middle" font-family="sans-serif" font-size="24" fill="#222">Loopback: perdida vs payload</text>
<rect x="96" y="62" width="988" height="532" fill="#ffffff" stroke="#c9c9c1"/>
<line x1="96" y1="62.00" x2="1084" y2="62.00" stroke="#e8e8df"/>
<text x="86" y="66.00" text-anchor="end" font-family="sans-serif" font-size="12" fill="#4a4a45">0.0112</text>
<line x1="96.00" y1="62" x2="96.00" y2="594" stroke="#f0f0e8"/>
<text x="96.00" y="618" text-anchor="middle" font-family="sans-serif" font-size="12" fill="#4a4a45">161</text>
<line x1="96" y1="168.40" x2="1084" y2="168.40" stroke="#e8e8df"/>
<text x="86" y="172.40" text-anchor="end" font-family="sans-serif" font-size="12" fill="#4a4a45">0.00873</text>
<line x1="293.60" y1="62" x2="293.60" y2="594" stroke="#f0f0e8"/>
<text x="293.60" y="618" text-anchor="middle" font-family="sans-serif" font-size="12" fill="#4a4a45">436</text>
<line x1="96" y1="274.80" x2="1084" y2="274.80" stroke="#e8e8df"/>
<text x="86" y="278.80" text-anchor="end" font-family="sans-serif" font-size="12" fill="#4a4a45">0.00622</text>
<line x1="491.20" y1="62" x2="491.20" y2="594" stroke="#f0f0e8"/>
<text x="491.20" y="618" text-anchor="middle" font-family="sans-serif" font-size="12" fill="#4a4a45">711</text>
<line x1="96" y1="381.20" x2="1084" y2="381.20" stroke="#e8e8df"/>
<text x="86" y="385.20" text-anchor="end" font-family="sans-serif" font-size="12" fill="#4a4a45">0.00371</text>
<line x1="688.80" y1="62" x2="688.80" y2="594" stroke="#f0f0e8"/>
<text x="688.80" y="618" text-anchor="middle" font-family="sans-serif" font-size="12" fill="#4a4a45">985</text>
<line x1="96" y1="487.60" x2="1084" y2="487.60" stroke="#e8e8df"/>
<text x="86" y="491.60" text-anchor="end" font-family="sans-serif" font-size="12" fill="#4a4a45">0.00121</text>
<line x1="886.40" y1="62" x2="886.40" y2="594" stroke="#f0f0e8"/>
<text x="886.40" y="618" text-anchor="middle" font-family="sans-serif" font-size="12" fill="#4a4a45">1260</text>
<line x1="96" y1="594.00" x2="1084" y2="594.00" stroke="#e8e8df"/>
<text x="86" y="598.00" text-anchor="end" font-family="sans-serif" font-size="12" fill="#4a4a45">-0.0013</text>
<line x1="1084.00" y1="62" x2="1084.00" y2="594" stroke="#f0f0e8"/>
<text x="1084.00" y="618" text-anchor="middle" font-family="sans-serif" font-size="12" fill="#4a4a45">1535</text>
<text x="590.0" y="656" text-anchor="middle" font-family="sans-serif" font-size="15" fill="#222">Payload size (bytes)</text>
<text transform="translate(26 328.0) rotate(-90)" text-anchor="middle" font-family="sans-serif" font-size="15" fill="#222">Perdida (%)</text>
<line x1="112" y1="82" x2="138" y2="82" stroke="#d62728" stroke-width="3"/>
<text x="146" y="86" font-family="sans-serif" font-size="13" fill="#222">Perdida</text>
<polyline points="164.14,394.55 217.37,360.58 270.60,437.01 323.84,335.11 377.07,360.58 430.30,335.11 483.53,275.66 536.77,403.04 590.00,258.68 643.23,292.65 696.47,241.69 749.70,250.19 802.93,335.11 856.16,190.74 909.40,335.11 962.63,207.73 1015.86,292.65" fill="none" stroke="#d62728" stroke-width="2.5"/>
<line x1="164.14" y1="492.30" x2="164.14" y2="296.80" stroke="#d62728" stroke-width="1.3"/>
<line x1="159.14" y1="492.30" x2="169.14" y2="492.30" stroke="#d62728" stroke-width="1.3"/>
<line x1="159.14" y1="296.80" x2="169.14" y2="296.80" stroke="#d62728" stroke-width="1.3"/>
<circle cx="164.14" cy="394.55" r="4" fill="#d62728" stroke="#ffffff" stroke-width="1"/>
<line x1="217.37" y1="407.10" x2="217.37" y2="314.07" stroke="#d62728" stroke-width="1.3"/>
<line x1="212.37" y1="407.10" x2="222.37" y2="407.10" stroke="#d62728" stroke-width="1.3"/>
<line x1="212.37" y1="314.07" x2="222.37" y2="314.07" stroke="#d62728" stroke-width="1.3"/>
<circle cx="217.37" cy="360.58" r="4" fill="#d62728" stroke="#ffffff" stroke-width="1"/>
<line x1="270.60" y1="530.04" x2="270.60" y2="343.99" stroke="#d62728" stroke-width="1.3"/>
<line x1="265.60" y1="530.04" x2="275.60" y2="530.04" stroke="#d62728" stroke-width="1.3"/>
<line x1="265.60" y1="343.99" x2="275.60" y2="343.99" stroke="#d62728" stroke-width="1.3"/>
<circle cx="270.60" cy="437.01" r="4" fill="#d62728" stroke="#ffffff" stroke-width="1"/>
<line x1="323.84" y1="411.06" x2="323.84" y2="259.15" stroke="#d62728" stroke-width="1.3"/>
<line x1="318.84" y1="411.06" x2="328.84" y2="411.06" stroke="#d62728" stroke-width="1.3"/>
<line x1="318.84" y1="259.15" x2="328.84" y2="259.15" stroke="#d62728" stroke-width="1.3"/>
<circle cx="323.84" cy="335.11" r="4" fill="#d62728" stroke="#ffffff" stroke-width="1"/>
<line x1="377.07" y1="430.35" x2="377.07" y2="290.81" stroke="#d62728" stroke-width="1.3"/>
<line x1="372.07" y1="430.35" x2="382.07" y2="430.35" stroke="#d62728" stroke-width="1.3"/>
<line x1="372.07" y1="290.81" x2="382.07" y2="290.81" stroke="#d62728" stroke-width="1.3"/>
<circle cx="377.07" cy="360.58" r="4" fill="#d62728" stroke="#ffffff" stroke-width="1"/>
<line x1="430.30" y1="445.01" x2="430.30" y2="225.20" stroke="#d62728" stroke-width="1.3"/>
<line x1="425.30" y1="445.01" x2="435.30" y2="445.01" stroke="#d62728" stroke-width="1.3"/>
<line x1="425.30" y1="225.20" x2="435.30" y2="225.20" stroke="#d62728" stroke-width="1.3"/>
<circle cx="430.30" cy="335.11" r="4" fill="#d62728" stroke="#ffffff" stroke-width="1"/>
<line x1="483.53" y1="338.64" x2="483.53" y2="212.68" stroke="#d62728" stroke-width="1.3"/>
<line x1="478.53" y1="338.64" x2="488.53" y2="338.64" stroke="#d62728" stroke-width="1.3"/>
<line x1="478.53" y1="212.68" x2="488.53" y2="212.68" stroke="#d62728" stroke-width="1.3"/>
<circle cx="483.53" cy="275.66" r="4" fill="#d62728" stroke="#ffffff" stroke-width="1"/>
<line x1="536.77" y1="557.31" x2="536.77" y2="248.78" stroke="#d62728" stroke-width="1.3"/>
<line x1="531.77" y1="557.31" x2="541.77" y2="557.31" stroke="#d62728" stroke-width="1.3"/>
<line x1="531.77" y1="248.78" x2="541.77" y2="248.78" stroke="#d62728" stroke-width="1.3"/>
<circle cx="536.77" cy="403.04" r="4" fill="#d62728" stroke="#ffffff" stroke-width="1"/>
<line x1="590.00" y1="360.94" x2="590.00" y2="156.42" stroke="#d62728" stroke-width="1.3"/>
<line x1="585.00" y1="360.94" x2="595.00" y2="360.94" stroke="#d62728" stroke-width="1.3"/>
<line x1="585.00" y1="156.42" x2="595.00" y2="156.42" stroke="#d62728" stroke-width="1.3"/>
<circle cx="590.00" cy="258.68" r="4" fill="#d62728" stroke="#ffffff" stroke-width="1"/>
<line x1="643.23" y1="389.47" x2="643.23" y2="195.82" stroke="#d62728" stroke-width="1.3"/>
<line x1="638.23" y1="389.47" x2="648.23" y2="389.47" stroke="#d62728" stroke-width="1.3"/>
<line x1="638.23" y1="195.82" x2="648.23" y2="195.82" stroke="#d62728" stroke-width="1.3"/>
<circle cx="643.23" cy="292.65" r="4" fill="#d62728" stroke="#ffffff" stroke-width="1"/>
<line x1="696.47" y1="379.28" x2="696.47" y2="104.11" stroke="#d62728" stroke-width="1.3"/>
<line x1="691.47" y1="379.28" x2="701.47" y2="379.28" stroke="#d62728" stroke-width="1.3"/>
<line x1="691.47" y1="104.11" x2="701.47" y2="104.11" stroke="#d62728" stroke-width="1.3"/>
<circle cx="696.47" cy="241.69" r="4" fill="#d62728" stroke="#ffffff" stroke-width="1"/>
<line x1="749.70" y1="326.14" x2="749.70" y2="174.23" stroke="#d62728" stroke-width="1.3"/>
<line x1="744.70" y1="326.14" x2="754.70" y2="326.14" stroke="#d62728" stroke-width="1.3"/>
<line x1="744.70" y1="174.23" x2="754.70" y2="174.23" stroke="#d62728" stroke-width="1.3"/>
<circle cx="749.70" cy="250.19" r="4" fill="#d62728" stroke="#ffffff" stroke-width="1"/>
<line x1="802.93" y1="440.83" x2="802.93" y2="229.38" stroke="#d62728" stroke-width="1.3"/>
<line x1="797.93" y1="440.83" x2="807.93" y2="440.83" stroke="#d62728" stroke-width="1.3"/>
<line x1="797.93" y1="229.38" x2="807.93" y2="229.38" stroke="#d62728" stroke-width="1.3"/>
<circle cx="802.93" cy="335.11" r="4" fill="#d62728" stroke="#ffffff" stroke-width="1"/>
<line x1="856.16" y1="282.79" x2="856.16" y2="98.69" stroke="#d62728" stroke-width="1.3"/>
<line x1="851.16" y1="282.79" x2="861.16" y2="282.79" stroke="#d62728" stroke-width="1.3"/>
<line x1="851.16" y1="98.69" x2="861.16" y2="98.69" stroke="#d62728" stroke-width="1.3"/>
<circle cx="856.16" cy="190.74" r="4" fill="#d62728" stroke="#ffffff" stroke-width="1"/>
<line x1="909.40" y1="427.16" x2="909.40" y2="243.06" stroke="#d62728" stroke-width="1.3"/>
<line x1="904.40" y1="427.16" x2="914.40" y2="427.16" stroke="#d62728" stroke-width="1.3"/>
<line x1="904.40" y1="243.06" x2="914.40" y2="243.06" stroke="#d62728" stroke-width="1.3"/>
<circle cx="909.40" cy="335.11" r="4" fill="#d62728" stroke="#ffffff" stroke-width="1"/>
<line x1="962.63" y1="309.10" x2="962.63" y2="106.35" stroke="#d62728" stroke-width="1.3"/>
<line x1="957.63" y1="309.10" x2="967.63" y2="309.10" stroke="#d62728" stroke-width="1.3"/>
<line x1="957.63" y1="106.35" x2="967.63" y2="106.35" stroke="#d62728" stroke-width="1.3"/>
<circle cx="962.63" cy="207.73" r="4" fill="#d62728" stroke="#ffffff" stroke-width="1"/>
<line x1="1015.86" y1="355.63" x2="1015.86" y2="229.67" stroke="#d62728" stroke-width="1.3"/>
<line x1="1010.86" y1="355.63" x2="1020.86" y2="355.63" stroke="#d62728" stroke-width="1.3"/>
<line x1="1010.86" y1="229.67" x2="1020.86" y2="229.67" stroke="#d62728" stroke-width="1.3"/>
<circle cx="1015.86" cy="292.65" r="4" fill="#d62728" stroke="#ffffff" stroke-width="1"/>
</svg>
