<svg xmlns="http://www.w3.org/2000/svg" width="1120" height="680" viewBox="0 0 1120 680">
<rect width="100%" height="100%" fill="#fbfbf8"/>
<text x="560.0" y="34" text-anchor="middle" font-family="sans-serif" font-size="24" fill="#222">Loopback: goodput vs payload</text>
<rect x="96" y="62" width="988" height="532" fill="#ffffff" stroke="#c9c9c1"/>
<line x1="96" y1="62.00" x2="1084" y2="62.00" stroke="#e8e8df"/>
<text x="86" y="66.00" text-anchor="end" font-family="sans-serif" font-size="12" fill="#4a4a45">984</text>
<line x1="96.00" y1="62" x2="96.00" y2="594" stroke="#f0f0e8"/>
<text x="96.00" y="618" text-anchor="middle" font-family="sans-serif" font-size="12" fill="#4a4a45">161</text>
<line x1="96" y1="168.40" x2="1084" y2="168.40" stroke="#e8e8df"/>
<text x="86" y="172.40" text-anchor="end" font-family="sans-serif" font-size="12" fill="#4a4a45">904</text>
<line x1="293.60" y1="62" x2="293.60" y2="594" stroke="#f0f0e8"/>
<text x="293.60" y="618" text-anchor="middle" font-family="sans-serif" font-size="12" fill="#4a4a45">436</text>
<line x1="96" y1="274.80" x2="1084" y2="274.80" stroke="#e8e8df"/>
<text x="86" y="278.80" text-anchor="end" font-family="sans-serif" font-size="12" fill="#4a4a45">824</text>
<line x1="491.20" y1="62" x2="491.20" y2="594" stroke="#f0f0e8"/>
<text x="491.20" y="618" text-anchor="middle" font-family="sans-serif" font-size="12" fill="#4a4a45">711</text>
<line x1="96" y1="381.20" x2="1084" y2="381.20" stroke="#e8e8df"/>
<text x="86" y="385.20" text-anchor="end" font-family="sans-serif" font-size="12" fill="#4a4a45">744</text>
<line x1="688.80" y1="62" x2="688.80" y2="594" stroke="#f0f0e8"/>
<text x="688.80" y="618" text-anchor="middle" font-family="sans-serif" font-size="12" fill="#4a4a45">985</text>
<line x1="96" y1="487.60" x2="1084" y2="487.60" stroke="#e8e8df"/>
<text x="86" y="491.60" text-anchor="end" font-family="sans-serif" font-size="12" fill="#4a4a45">665</text>
<line x1="886.40" y1="62" x2="886.40" y2="594" stroke="#f0f0e8"/>
<text x="886.40" y="618" text-anchor="middle" font-family="sans-serif" font-size="12" fill="#4a4a45">1260</text>
<line x1="96" y1="594.00" x2="1084" y2="594.00" stroke="#e8e8df"/>
<text x="86" y="598.00" text-anchor="end" font-family="sans-serif" font-size="12" fill="#4a4a45">585</text>
<line x1="1084.00" y1="62" x2="1084.00" y2="594" stroke="#f0f0e8"/>
<text x="1084.00" y="618" text-anchor="middle" font-family="sans-serif" font-size="12" fill="#4a4a45">1535</text>
<text x="590.0" y="656" text-anchor="middle" font-family="sans-serif" font-size="15" fill="#222">Payload size (bytes)</text>
<text transform="translate(26 328.0) rotate(-90)" text-anchor="middle" font-family="sans-serif" font-size="15" fill="#222">Goodput payload (Mbps)</text>
<line x1="112" y1="82" x2="138" y2="82" stroke="#2ca02c" stroke-width="3"/>
<text x="146" y="86" font-family="sans-serif" font-size="13" fill="#222">Goodput</text>
<line x1="112" y1="104" x2="138" y2="104" stroke="#111111" stroke-width="3" stroke-dasharray="8 6"/>
<text x="146" y="108" font-family="sans-serif" font-size="13" fill="#222">Teorico</text>
<polyline points="164.14,540.73 217.37,429.03 270.60,416.87 323.84,336.09 377.07,336.07 430.30,273.62 483.53,247.95 536.77,230.34 590.00,215.61 643.23,203.49 696.47,192.25 749.70,183.03 802.93,174.99 856.16,167.13 909.40,160.24 962.63,154.37 1015.86,148.91" fill="none" stroke="#2ca02c" stroke-width="2.5"/>
<line x1="164.14" y1="557.31" x2="164.14" y2="524.16" stroke="#2ca02c" stroke-width="1.3"/>
<line x1="159.14" y1="557.31" x2="169.14" y2="557.31" stroke="#2ca02c" stroke-width="1.3"/>
<line x1="159.14" y1="524.16" x2="169.14" y2="524.16" stroke="#2ca02c" stroke-width="1.3"/>
<circle cx="164.14" cy="540.73" r="4" fill="#2ca02c" stroke="#ffffff" stroke-width="1"/>
<line x1="217.37" y1="455.86" x2="217.37" y2="402.19" stroke="#2ca02c" stroke-width="1.3"/>
<line x1="212.37" y1="455.86" x2="222.37" y2="455.86" stroke="#2ca02c" stroke-width="1.3"/>
<line x1="212.37" y1="402.19" x2="222.37" y2="402.19" stroke="#2ca02c" stroke-width="1.3"/>
<circle cx="217.37" cy="429.03" r="4" fill="#2ca02c" stroke="#ffffff" stroke-width="1"/>
<line x1="270.60" y1="516.79" x2="270.60" y2="316.96" stroke="#2ca02c" stroke-width="1.3"/>
<line x1="265.60" y1="516.79" x2="275.60" y2="516.79" stroke="#2ca02c" stroke-width="1.3"/>
<line x1="265.60" y1="316.96" x2="275.60" y2="316.96" stroke="#2ca02c" stroke-width="1.3"/>
<circle cx="270.60" cy="416.87" r="4" fill="#2ca02c" stroke="#ffffff" stroke-width="1"/>
<line x1="323.84" y1="357.81" x2="323.84" y2="314.36" stroke="#2ca02c" stroke-width="1.3"/>
<line x1="318.84" y1="357.81" x2="328.84" y2="357.81" stroke="#2ca02c" stroke-width="1.3"/>
<line x1="318.84" y1="314.36" x2="328.84" y2="314.36" stroke="#2ca02c" stroke-width="1.3"/>
<circle cx="323.84" cy="336.09" r="4" fill="#2ca02c" stroke="#ffffff" stroke-width="1"/>
<line x1="377.07" y1="362.14" x2="377.07" y2="309.99" stroke="#2ca02c" stroke-width="1.3"/>
<line x1="372.07" y1="362.14" x2="382.07" y2="362.14" stroke="#2ca02c" stroke-width="1.3"/>
<line x1="372.07" y1="309.99" x2="382.07" y2="309.99" stroke="#2ca02c" stroke-width="1.3"/>
<circle cx="377.07" cy="336.07" r="4" fill="#2ca02c" stroke="#ffffff" stroke-width="1"/>
<line x1="430.30" y1="281.86" x2="430.30" y2="265.38" stroke="#2ca02c" stroke-width="1.3"/>
<line x1="425.30" y1="281.86" x2="435.30" y2="281.86" stroke="#2ca02c" stroke-width="1.3"/>
<line x1="425.30" y1="265.38" x2="435.30" y2="265.38" stroke="#2ca02c" stroke-width="1.3"/>
<circle cx="430.30" cy="273.62" r="4" fill="#2ca02c" stroke="#ffffff" stroke-width="1"/>
<line x1="483.53" y1="249.31" x2="483.53" y2="246.58" stroke="#2ca02c" stroke-width="1.3"/>
<line x1="478.53" y1="249.31" x2="488.53" y2="249.31" stroke="#2ca02c" stroke-width="1.3"/>
<line x1="478.53" y1="246.58" x2="488.53" y2="246.58" stroke="#2ca02c" stroke-width="1.3"/>
<circle cx="483.53" cy="247.95" r="4" fill="#2ca02c" stroke="#ffffff" stroke-width="1"/>
<line x1="536.77" y1="231.62" x2="536.77" y2="229.06" stroke="#2ca02c" stroke-width="1.3"/>
<line x1="531.77" y1="231.62" x2="541.77" y2="231.62" stroke="#2ca02c" stroke-width="1.3"/>
<line x1="531.77" y1="229.06" x2="541.77" y2="229.06" stroke="#2ca02c" stroke-width="1.3"/>
<circle cx="536.77" cy="230.34" r="4" fill="#2ca02c" stroke="#ffffff" stroke-width="1"/>
<line x1="590.00" y1="216.56" x2="590.00" y2="214.66" stroke="#2ca02c" stroke-width="1.3"/>
<line x1="585.00" y1="216.56" x2="595.00" y2="216.56" stroke="#2ca02c" stroke-width="1.3"/>
<line x1="585.00" y1="214.66" x2="595.00" y2="214.66" stroke="#2ca02c" stroke-width="1.3"/>
<circle cx="590.00" cy="215.61" r="4" fill="#2ca02c" stroke="#ffffff" stroke-width="1"/>
<line x1="643.23" y1="203.99" x2="643.23" y2="203.00" stroke="#2ca02c" stroke-width="1.3"/>
<line x1="638.23" y1="203.99" x2="648.23" y2="203.99" stroke="#2ca02c" stroke-width="1.3"/>
<line x1="638.23" y1="203.00" x2="648.23" y2="203.00" stroke="#2ca02c" stroke-width="1.3"/>
<circle cx="643.23" cy="203.49" r="4" fill="#2ca02c" stroke="#ffffff" stroke-width="1"/>
<line x1="696.47" y1="193.23" x2="696.47" y2="191.26" stroke="#2ca02c" stroke-width="1.3"/>
<line x1="691.47" y1="193.23" x2="701.47" y2="193.23" stroke="#2ca02c" stroke-width="1.3"/>
<line x1="691.47" y1="191.26" x2="701.47" y2="191.26" stroke="#2ca02c" stroke-width="1.3"/>
<circle cx="696.47" cy="192.25" r="4" fill="#2ca02c" stroke="#ffffff" stroke-width="1"/>
<line x1="749.70" y1="183.93" x2="749.70" y2="182.14" stroke="#2ca02c" stroke-width="1.3"/>
<line x1="744.70" y1="183.93" x2="754.70" y2="183.93" stroke="#2ca02c" stroke-width="1.3"/>
<line x1="744.70" y1="182.14" x2="754.70" y2="182.14" stroke="#2ca02c" stroke-width="1.3"/>
<circle cx="749.70" cy="183.03" r="4" fill="#2ca02c" stroke="#ffffff" stroke-width="1"/>
<line x1="802.93" y1="175.80" x2="802.93" y2="174.19" stroke="#2ca02c" stroke-width="1.3"/>
<line x1="797.93" y1="175.80" x2="807.93" y2="175.80" stroke="#2ca02c" stroke-width="1.3"/>
<line x1="797.93" y1="174.19" x2="807.93" y2="174.19" stroke="#2ca02c" stroke-width="1.3"/>
<circle cx="802.93" cy="174.99" r="4" fill="#2ca02c" stroke="#ffffff" stroke-width="1"/>
<line x1="856.16" y1="168.54" x2="856.16" y2="165.71" stroke="#2ca02c" stroke-width="1.3"/>
<line x1="851.16" y1="168.54" x2="861.16" y2="168.54" stroke="#2ca02c" stroke-width="1.3"/>
<line x1="851.16" y1="165.71" x2="861.16" y2="165.71" stroke="#2ca02c" stroke-width="1.3"/>
<circle cx="856.16" cy="167.13" r="4" fill="#2ca02c" stroke="#ffffff" stroke-width="1"/>
<line x1="909.40" y1="161.14" x2="909.40" y2="159.34" stroke="#2ca02c" stroke-width="1.3"/>
<line x1="904.40" y1="161.14" x2="914.40" y2="161.14" stroke="#2ca02c" stroke-width="1.3"/>
<line x1="904.40" y1="159.34" x2="914.40" y2="159.34" stroke="#2ca02c" stroke-width="1.3"/>
<circle cx="909.40" cy="160.24" r="4" fill="#2ca02c" stroke="#ffffff" stroke-width="1"/>
<line x1="962.63" y1="155.18" x2="962.63" y2="153.57" stroke="#2ca02c" stroke-width="1.3"/>
<line x1="957.63" y1="155.18" x2="967.63" y2="155.18" stroke="#2ca02c" stroke-width="1.3"/>
<line x1="957.63" y1="153.57" x2="967.63" y2="153.57" stroke="#2ca02c" stroke-width="1.3"/>
<circle cx="962.63" cy="154.37" r="4" fill="#2ca02c" stroke="#ffffff" stroke-width="1"/>
<line x1="1015.86" y1="149.54" x2="1015.86" y2="148.28" stroke="#2ca02c" stroke-width="1.3"/>
<line x1="1010.86" y1="149.54" x2="1020.86" y2="149.54" stroke="#2ca02c" stroke-width="1.3"/>
<line x1="1010.86" y1="148.28" x2="1020.86" y2="148.28" stroke="#2ca02c" stroke-width="1.3"/>
<circle cx="1015.86" cy="148.91" r="4" fill="#2ca02c" stroke="#ffffff" stroke-width="1"/>
<polyline points="164.14,313.69 217.37,262.59 270.60,227.58 323.84,202.09 377.07,182.71 430.30,167.47 483.53,155.18 536.77,145.05 590.00,136.56 643.23,129.35 696.47,123.14 749.70,117.73 802.93,112.99 856.16,108.80 909.40,105.06 962.63,101.71 1015.86,98.69" fill="none" stroke="#111111" stroke-width="2.5" stroke-dasharray="8 6"/>
<circle cx="164.14" cy="313.69" r="4" fill="#111111" stroke="#ffffff" stroke-width="1"/>
<circle cx="217.37" cy="262.59" r="4" fill="#111111" stroke="#ffffff" stroke-width="1"/>
<circle cx="270.60" cy="227.58" r="4" fill="#111111" stroke="#ffffff" stroke-width="1"/>
<circle cx="323.84" cy="202.09" r="4" fill="#111111" stroke="#ffffff" stroke-width="1"/>
<circle cx="377.07" cy="182.71" r="4" fill="#111111" stroke="#ffffff" stroke-width="1"/>
<circle cx="430.30" cy="167.47" r="4" fill="#111111" stroke="#ffffff" stroke-width="1"/>
<circle cx="483.53" cy="155.18" r="4" fill="#111111" stroke="#ffffff" stroke-width="1"/>
<circle cx="536.77" cy="145.05" r="4" fill="#111111" stroke="#ffffff" stroke-width="1"/>
<circle cx="590.00" cy="136.56" r="4" fill="#111111" stroke="#ffffff" stroke-width="1"/>
<circle cx="643.23" cy="129.35" r="4" fill="#111111" stroke="#ffffff" stroke-width="1"/>
<circle cx="696.47" cy="123.14" r="4" fill="#111111" stroke="#ffffff" stroke-width="1"/>
<circle cx="749.70" cy="117.73" r="4" fill="#111111" stroke="#ffffff" stroke-width="1"/>
<circle cx="802.93" cy="112.99" r="4" fill="#111111" stroke="#ffffff" stroke-width="1"/>
<circle cx="856.16" cy="108.80" r="4" fill="#111111" stroke="#ffffff" stroke-width="1"/>
<circle cx="909.40" cy="105.06" r="4" fill="#111111" stroke="#ffffff" stroke-width="1"/>
<circle cx="962.63" cy="101.71" r="4" fill="#111111" stroke="#ffffff" stroke-width="1"/>
<circle cx="1015.86" cy="98.69" r="4" fill="#111111" stroke="#ffffff" stroke-width="1"/>
</svg>
