<svg xmlns="http://www.w3.org/2000/svg" width="1120" height="680" viewBox="0 0 1120 680">
<rect width="100%" height="100%" fill="#fbfbf8"/>
<text x="560.0" y="34" text-anchor="middle" font-family="sans-serif" font-size="24" fill="#222">PPS vs payload</text>
<rect x="96" y="62" width="988" height="532" fill="#ffffff" stroke="#c9c9c1"/>
<line x1="96" y1="62.00" x2="1084" y2="62.00" stroke="#e8e8df"/>
<text x="86" y="66.00" text-anchor="end" font-family="sans-serif" font-size="12" fill="#4a4a45">4.14e+05</text>
<line x1="96.00" y1="62" x2="96.00" y2="594" stroke="#f0f0e8"/>
<text x="96.00" y="618" text-anchor="middle" font-family="sans-serif" font-size="12" fill="#4a4a45">161</text>
<line x1="96" y1="168.40" x2="1084" y2="168.40" stroke="#e8e8df"/>
<text x="86" y="172.40" text-anchor="end" font-family="sans-serif" font-size="12" fill="#4a4a45">3.42e+05</text>
<line x1="293.60" y1="62" x2="293.60" y2="594" stroke="#f0f0e8"/>
<text x="293.60" y="618" text-anchor="middle" font-family="sans-serif" font-size="12" fill="#4a4a45">436</text>
<line x1="96" y1="274.80" x2="1084" y2="274.80" stroke="#e8e8df"/>
<text x="86" y="278.80" text-anchor="end" font-family="sans-serif" font-size="12" fill="#4a4a45">2.7e+05</text>
<line x1="491.20" y1="62" x2="491.20" y2="594" stroke="#f0f0e8"/>
<text x="491.20" y="618" text-anchor="middle" font-family="sans-serif" font-size="12" fill="#4a4a45">711</text>
<line x1="96" y1="381.20" x2="1084" y2="381.20" stroke="#e8e8df"/>
<text x="86" y="385.20" text-anchor="end" font-family="sans-serif" font-size="12" fill="#4a4a45">1.98e+05</text>
<line x1="688.80" y1="62" x2="688.80" y2="594" stroke="#f0f0e8"/>
<text x="688.80" y="618" text-anchor="middle" font-family="sans-serif" font-size="12" fill="#4a4a45">985</text>
<line x1="96" y1="487.60" x2="1084" y2="487.60" stroke="#e8e8df"/>
<text x="86" y="491.60" text-anchor="end" font-family="sans-serif" font-size="12" fill="#4a4a45">1.27e+05</text>
<line x1="886.40" y1="62" x2="886.40" y2="594" stroke="#f0f0e8"/>
<text x="886.40" y="618" text-anchor="middle" font-family="sans-serif" font-size="12" fill="#4a4a45">1260</text>
<line x1="96" y1="594.00" x2="1084" y2="594.00" stroke="#e8e8df"/>
<text x="86" y="598.00" text-anchor="end" font-family="sans-serif" font-size="12" fill="#4a4a45">5.49e+04</text>
<line x1="1084.00" y1="62" x2="1084.00" y2="594" stroke="#f0f0e8"/>
<text x="1084.00" y="618" text-anchor="middle" font-family="sans-serif" font-size="12" fill="#4a4a45">1535</text>
<text x="590.0" y="656" text-anchor="middle" font-family="sans-serif" font-size="15" fill="#222">Payload size (bytes)</text>
<text transform="translate(26 328.0) rotate(-90)" text-anchor="middle" font-family="sans-serif" font-size="15" fill="#222">Paquetes por segundo</text>
<line x1="112" y1="82" x2="138" y2="82" stroke="#2ca02c" stroke-width="3"/>
<text x="146" y="86" font-family="sans-serif" font-size="13" fill="#222">Loopback PPS</text>
<line x1="112" y1="104" x2="138" y2="104" stroke="#9467bd" stroke-width="3"/>
<text x="146" y="108" font-family="sans-serif" font-size="13" fill="#222">TX PPS</text>
<line x1="112" y1="126" x2="138" y2="126" stroke="#111111" stroke-width="3" stroke-dasharray="8 6"/>
<text x="146" y="130" font-family="sans-serif" font-size="13" fill="#222">Teorico</text>
<polyline points="164.14,223.17 217.37,277.58 270.60,346.27 323.84,373.76 377.07,414.20 430.30,431.23 483.53,451.95 536.77,470.16 590.00,485.66 643.23,499.07 696.47,510.60 749.70,520.81 802.93,529.83 856.16,537.78 909.40,544.93 962.63,551.40 1015.86,557.25" fill="none" stroke="#2ca02c" stroke-width="2.5"/>
<line x1="164.14" y1="232.16" x2="164.14" y2="214.17" stroke="#2ca02c" stroke-width="1.3"/>
<line x1="159.14" y1="232.16" x2="169.14" y2="232.16" stroke="#2ca02c" stroke-width="1.3"/>
<line x1="159.14" y1="214.17" x2="169.14" y2="214.17" stroke="#2ca02c" stroke-width="1.3"/>
<circle cx="164.14" cy="223.17" r="4" fill="#2ca02c" stroke="#ffffff" stroke-width="1"/>
<line x1="217.37" y1="288.87" x2="217.37" y2="266.28" stroke="#2ca02c" stroke-width="1.3"/>
<line x1="212.37" y1="288.87" x2="222.37" y2="288.87" stroke="#2ca02c" stroke-width="1.3"/>
<line x1="212.37" y1="266.28" x2="222.37" y2="266.28" stroke="#2ca02c" stroke-width="1.3"/>
<circle cx="217.37" cy="277.58" r="4" fill="#2ca02c" stroke="#ffffff" stroke-width="1"/>
<line x1="270.60" y1="380.62" x2="270.60" y2="311.93" stroke="#2ca02c" stroke-width="1.3"/>
<line x1="265.60" y1="380.62" x2="275.60" y2="380.62" stroke="#2ca02c" stroke-width="1.3"/>
<line x1="265.60" y1="311.93" x2="275.60" y2="311.93" stroke="#2ca02c" stroke-width="1.3"/>
<circle cx="270.60" cy="346.27" r="4" fill="#2ca02c" stroke="#ffffff" stroke-width="1"/>
<line x1="323.84" y1="380.07" x2="323.84" y2="367.45" stroke="#2ca02c" stroke-width="1.3"/>
<line x1="318.84" y1="380.07" x2="328.84" y2="380.07" stroke="#2ca02c" stroke-width="1.3"/>
<line x1="318.84" y1="367.45" x2="328.84" y2="367.45" stroke="#2ca02c" stroke-width="1.3"/>
<circle cx="323.84" cy="373.76" r="4" fill="#2ca02c" stroke="#ffffff" stroke-width="1"/>
<line x1="377.07" y1="420.76" x2="377.07" y2="407.64" stroke="#2ca02c" stroke-width="1.3"/>
<line x1="372.07" y1="420.76" x2="382.07" y2="420.76" stroke="#2ca02c" stroke-width="1.3"/>
<line x1="372.07" y1="407.64" x2="382.07" y2="407.64" stroke="#2ca02c" stroke-width="1.3"/>
<circle cx="377.07" cy="414.20" r="4" fill="#2ca02c" stroke="#ffffff" stroke-width="1"/>
<line x1="430.30" y1="433.06" x2="430.30" y2="429.40" stroke="#2ca02c" stroke-width="1.3"/>
<line x1="425.30" y1="433.06" x2="435.30" y2="433.06" stroke="#2ca02c" stroke-width="1.3"/>
<line x1="425.30" y1="429.40" x2="435.30" y2="429.40" stroke="#2ca02c" stroke-width="1.3"/>
<circle cx="430.30" cy="431.23" r="4" fill="#2ca02c" stroke="#ffffff" stroke-width="1"/>
<line x1="483.53" y1="452.22" x2="483.53" y2="451.68" stroke="#2ca02c" stroke-width="1.3"/>
<line x1="478.53" y1="452.22" x2="488.53" y2="452.22" stroke="#2ca02c" stroke-width="1.3"/>
<line x1="478.53" y1="451.68" x2="488.53" y2="451.68" stroke="#2ca02c" stroke-width="1.3"/>
<circle cx="483.53" cy="451.95" r="4" fill="#2ca02c" stroke="#ffffff" stroke-width="1"/>
<line x1="536.77" y1="470.39" x2="536.77" y2="469.93" stroke="#2ca02c" stroke-width="1.3"/>
<line x1="531.77" y1="470.39" x2="541.77" y2="470.39" stroke="#2ca02c" stroke-width="1.3"/>
<line x1="531.77" y1="469.93" x2="541.77" y2="469.93" stroke="#2ca02c" stroke-width="1.3"/>
<circle cx="536.77" cy="470.16" r="4" fill="#2ca02c" stroke="#ffffff" stroke-width="1"/>
<line x1="590.00" y1="485.82" x2="590.00" y2="485.51" stroke="#2ca02c" stroke-width="1.3"/>
<line x1="585.00" y1="485.82" x2="595.00" y2="485.82" stroke="#2ca02c" stroke-width="1.3"/>
<line x1="585.00" y1="485.51" x2="595.00" y2="485.51" stroke="#2ca02c" stroke-width="1.3"/>
<circle cx="590.00" cy="485.66" r="4" fill="#2ca02c" stroke="#ffffff" stroke-width="1"/>
<line x1="643.23" y1="499.14" x2="643.23" y2="498.99" stroke="#2ca02c" stroke-width="1.3"/>
<line x1="638.23" y1="499.14" x2="648.23" y2="499.14" stroke="#2ca02c" stroke-width="1.3"/>
<line x1="638.23" y1="498.99" x2="648.23" y2="498.99" stroke="#2ca02c" stroke-width="1.3"/>
<circle cx="643.23" cy="499.07" r="4" fill="#2ca02c" stroke="#ffffff" stroke-width="1"/>
<line x1="696.47" y1="510.74" x2="696.47" y2="510.47" stroke="#2ca02c" stroke-width="1.3"/>
<line x1="691.47" y1="510.74" x2="701.47" y2="510.74" stroke="#2ca02c" stroke-width="1.3"/>
<line x1="691.47" y1="510.47" x2="701.47" y2="510.47" stroke="#2ca02c" stroke-width="1.3"/>
<circle cx="696.47" cy="510.60" r="4" fill="#2ca02c" stroke="#ffffff" stroke-width="1"/>
<line x1="749.70" y1="520.92" x2="749.70" y2="520.69" stroke="#2ca02c" stroke-width="1.3"/>
<line x1="744.70" y1="520.92" x2="754.70" y2="520.92" stroke="#2ca02c" stroke-width="1.3"/>
<line x1="744.70" y1="520.69" x2="754.70" y2="520.69" stroke="#2ca02c" stroke-width="1.3"/>
<circle cx="749.70" cy="520.81" r="4" fill="#2ca02c" stroke="#ffffff" stroke-width="1"/>
<line x1="802.93" y1="529.93" x2="802.93" y2="529.74" stroke="#2ca02c" stroke-width="1.3"/>
<line x1="797.93" y1="529.93" x2="807.93" y2="529.93" stroke="#2ca02c" stroke-width="1.3"/>
<line x1="797.93" y1="529.74" x2="807.93" y2="529.74" stroke="#2ca02c" stroke-width="1.3"/>
<circle cx="802.93" cy="529.83" r="4" fill="#2ca02c" stroke="#ffffff" stroke-width="1"/>
<line x1="856.16" y1="537.95" x2="856.16" y2="537.62" stroke="#2ca02c" stroke-width="1.3"/>
<line x1="851.16" y1="537.95" x2="861.16" y2="537.95" stroke="#2ca02c" stroke-width="1.3"/>
<line x1="851.16" y1="537.62" x2="861.16" y2="537.62" stroke="#2ca02c" stroke-width="1.3"/>
<circle cx="856.16" cy="537.78" r="4" fill="#2ca02c" stroke="#ffffff" stroke-width="1"/>
<line x1="909.40" y1="545.03" x2="909.40" y2="544.83" stroke="#2ca02c" stroke-width="1.3"/>
<line x1="904.40" y1="545.03" x2="914.40" y2="545.03" stroke="#2ca02c" stroke-width="1.3"/>
<line x1="904.40" y1="544.83" x2="914.40" y2="544.83" stroke="#2ca02c" stroke-width="1.3"/>
<circle cx="909.40" cy="544.93" r="4" fill="#2ca02c" stroke="#ffffff" stroke-width="1"/>
<line x1="962.63" y1="551.48" x2="962.63" y2="551.32" stroke="#2ca02c" stroke-width="1.3"/>
<line x1="957.63" y1="551.48" x2="967.63" y2="551.48" stroke="#2ca02c" stroke-width="1.3"/>
<line x1="957.63" y1="551.32" x2="967.63" y2="551.32" stroke="#2ca02c" stroke-width="1.3"/>
<circle cx="962.63" cy="551.40" r="4" fill="#2ca02c" stroke="#ffffff" stroke-width="1"/>
<line x1="1015.86" y1="557.31" x2="1015.86" y2="557.19" stroke="#2ca02c" stroke-width="1.3"/>
<line x1="1010.86" y1="557.31" x2="1020.86" y2="557.31" stroke="#2ca02c" stroke-width="1.3"/>
<line x1="1010.86" y1="557.19" x2="1020.86" y2="557.19" stroke="#2ca02c" stroke-width="1.3"/>
<circle cx="1015.86" cy="557.25" r="4" fill="#2ca02c" stroke="#ffffff" stroke-width="1"/>
<polyline points="164.14,143.59 217.37,207.41 270.60,280.80 323.84,334.56 377.07,375.47 430.30,407.51 483.53,433.43 536.77,454.73 590.00,472.62 643.23,487.83 696.47,500.93 749.70,512.24 802.93,522.23 856.16,531.06 909.40,538.96 962.63,546.02 1015.86,552.38" fill="none" stroke="#9467bd" stroke-width="2.5"/>
<line x1="164.14" y1="188.48" x2="164.14" y2="98.69" stroke="#9467bd" stroke-width="1.3"/>
<line x1="159.14" y1="188.48" x2="169.14" y2="188.48" stroke="#9467bd" stroke-width="1.3"/>
<line x1="159.14" y1="98.69" x2="169.14" y2="98.69" stroke="#9467bd" stroke-width="1.3"/>
<circle cx="164.14" cy="143.59" r="4" fill="#9467bd" stroke="#ffffff" stroke-width="1"/>
<line x1="217.37" y1="207.88" x2="217.37" y2="206.95" stroke="#9467bd" stroke-width="1.3"/>
<line x1="212.37" y1="207.88" x2="222.37" y2="207.88" stroke="#9467bd" stroke-width="1.3"/>
<line x1="212.37" y1="206.95" x2="222.37" y2="206.95" stroke="#9467bd" stroke-width="1.3"/>
<circle cx="217.37" cy="207.41" r="4" fill="#9467bd" stroke="#ffffff" stroke-width="1"/>
<line x1="270.60" y1="281.17" x2="270.60" y2="280.44" stroke="#9467bd" stroke-width="1.3"/>
<line x1="265.60" y1="281.17" x2="275.60" y2="281.17" stroke="#9467bd" stroke-width="1.3"/>
<line x1="265.60" y1="280.44" x2="275.60" y2="280.44" stroke="#9467bd" stroke-width="1.3"/>
<circle cx="270.60" cy="280.80" r="4" fill="#9467bd" stroke="#ffffff" stroke-width="1"/>
<line x1="323.84" y1="334.87" x2="323.84" y2="334.26" stroke="#9467bd" stroke-width="1.3"/>
<line x1="318.84" y1="334.87" x2="328.84" y2="334.87" stroke="#9467bd" stroke-width="1.3"/>
<line x1="318.84" y1="334.26" x2="328.84" y2="334.26" stroke="#9467bd" stroke-width="1.3"/>
<circle cx="323.84" cy="334.56" r="4" fill="#9467bd" stroke="#ffffff" stroke-width="1"/>
<line x1="377.07" y1="375.53" x2="377.07" y2="375.40" stroke="#9467bd" stroke-width="1.3"/>
<line x1="372.07" y1="375.53" x2="382.07" y2="375.53" stroke="#9467bd" stroke-width="1.3"/>
<line x1="372.07" y1="375.40" x2="382.07" y2="375.40" stroke="#9467bd" stroke-width="1.3"/>
<circle cx="377.07" cy="375.47" r="4" fill="#9467bd" stroke="#ffffff" stroke-width="1"/>
<line x1="430.30" y1="407.70" x2="430.30" y2="407.31" stroke="#9467bd" stroke-width="1.3"/>
<line x1="425.30" y1="407.70" x2="435.30" y2="407.70" stroke="#9467bd" stroke-width="1.3"/>
<line x1="425.30" y1="407.31" x2="435.30" y2="407.31" stroke="#9467bd" stroke-width="1.3"/>
<circle cx="430.30" cy="407.51" r="4" fill="#9467bd" stroke="#ffffff" stroke-width="1"/>
<line x1="483.53" y1="433.52" x2="483.53" y2="433.34" stroke="#9467bd" stroke-width="1.3"/>
<line x1="478.53" y1="433.52" x2="488.53" y2="433.52" stroke="#9467bd" stroke-width="1.3"/>
<line x1="478.53" y1="433.34" x2="488.53" y2="433.34" stroke="#9467bd" stroke-width="1.3"/>
<circle cx="483.53" cy="433.43" r="4" fill="#9467bd" stroke="#ffffff" stroke-width="1"/>
<line x1="536.77" y1="454.85" x2="536.77" y2="454.62" stroke="#9467bd" stroke-width="1.3"/>
<line x1="531.77" y1="454.85" x2="541.77" y2="454.85" stroke="#9467bd" stroke-width="1.3"/>
<line x1="531.77" y1="454.62" x2="541.77" y2="454.62" stroke="#9467bd" stroke-width="1.3"/>
<circle cx="536.77" cy="454.73" r="4" fill="#9467bd" stroke="#ffffff" stroke-width="1"/>
<line x1="590.00" y1="472.69" x2="590.00" y2="472.54" stroke="#9467bd" stroke-width="1.3"/>
<line x1="585.00" y1="472.69" x2="595.00" y2="472.69" stroke="#9467bd" stroke-width="1.3"/>
<line x1="585.00" y1="472.54" x2="595.00" y2="472.54" stroke="#9467bd" stroke-width="1.3"/>
<circle cx="590.00" cy="472.62" r="4" fill="#9467bd" stroke="#ffffff" stroke-width="1"/>
<line x1="643.23" y1="487.88" x2="643.23" y2="487.78" stroke="#9467bd" stroke-width="1.3"/>
<line x1="638.23" y1="487.88" x2="648.23" y2="487.88" stroke="#9467bd" stroke-width="1.3"/>
<line x1="638.23" y1="487.78" x2="648.23" y2="487.78" stroke="#9467bd" stroke-width="1.3"/>
<circle cx="643.23" cy="487.83" r="4" fill="#9467bd" stroke="#ffffff" stroke-width="1"/>
<line x1="696.47" y1="500.98" x2="696.47" y2="500.88" stroke="#9467bd" stroke-width="1.3"/>
<line x1="691.47" y1="500.98" x2="701.47" y2="500.98" stroke="#9467bd" stroke-width="1.3"/>
<line x1="691.47" y1="500.88" x2="701.47" y2="500.88" stroke="#9467bd" stroke-width="1.3"/>
<circle cx="696.47" cy="500.93" r="4" fill="#9467bd" stroke="#ffffff" stroke-width="1"/>
<line x1="749.70" y1="512.31" x2="749.70" y2="512.16" stroke="#9467bd" stroke-width="1.3"/>
<line x1="744.70" y1="512.31" x2="754.70" y2="512.31" stroke="#9467bd" stroke-width="1.3"/>
<line x1="744.70" y1="512.16" x2="754.70" y2="512.16" stroke="#9467bd" stroke-width="1.3"/>
<circle cx="749.70" cy="512.24" r="4" fill="#9467bd" stroke="#ffffff" stroke-width="1"/>
<line x1="802.93" y1="522.29" x2="802.93" y2="522.17" stroke="#9467bd" stroke-width="1.3"/>
<line x1="797.93" y1="522.29" x2="807.93" y2="522.29" stroke="#9467bd" stroke-width="1.3"/>
<line x1="797.93" y1="522.17" x2="807.93" y2="522.17" stroke="#9467bd" stroke-width="1.3"/>
<circle cx="802.93" cy="522.23" r="4" fill="#9467bd" stroke="#ffffff" stroke-width="1"/>
<line x1="856.16" y1="531.09" x2="856.16" y2="531.03" stroke="#9467bd" stroke-width="1.3"/>
<line x1="851.16" y1="531.09" x2="861.16" y2="531.09" stroke="#9467bd" stroke-width="1.3"/>
<line x1="851.16" y1="531.03" x2="861.16" y2="531.03" stroke="#9467bd" stroke-width="1.3"/>
<circle cx="856.16" cy="531.06" r="4" fill="#9467bd" stroke="#ffffff" stroke-width="1"/>
<line x1="909.40" y1="538.98" x2="909.40" y2="538.93" stroke="#9467bd" stroke-width="1.3"/>
<line x1="904.40" y1="538.98" x2="914.40" y2="538.98" stroke="#9467bd" stroke-width="1.3"/>
<line x1="904.40" y1="538.93" x2="914.40" y2="538.93" stroke="#9467bd" stroke-width="1.3"/>
<circle cx="909.40" cy="538.96" r="4" fill="#9467bd" stroke="#ffffff" stroke-width="1"/>
<line x1="962.63" y1="546.05" x2="962.63" y2="545.99" stroke="#9467bd" stroke-width="1.3"/>
<line x1="957.63" y1="546.05" x2="967.63" y2="546.05" stroke="#9467bd" stroke-width="1.3"/>
<line x1="957.63" y1="545.99" x2="967.63" y2="545.99" stroke="#9467bd" stroke-width="1.3"/>
<circle cx="962.63" cy="546.02" r="4" fill="#9467bd" stroke="#ffffff" stroke-width="1"/>
<line x1="1015.86" y1="552.43" x2="1015.86" y2="552.33" stroke="#9467bd" stroke-width="1.3"/>
<line x1="1010.86" y1="552.43" x2="1020.86" y2="552.43" stroke="#9467bd" stroke-width="1.3"/>
<line x1="1010.86" y1="552.33" x2="1020.86" y2="552.33" stroke="#9467bd" stroke-width="1.3"/>
<circle cx="1015.86" cy="552.38" r="4" fill="#9467bd" stroke="#ffffff" stroke-width="1"/>
<polyline points="164.14,100.00 217.37,207.53 270.60,281.20 323.84,334.83 377.07,375.62 430.30,407.68 483.53,433.55 536.77,454.86 590.00,472.72 643.23,487.90 696.47,500.97 749.70,512.33 802.93,522.31 856.16,531.13 909.40,539.00 962.63,546.05 1015.86,552.41" fill="none" stroke="#111111" stroke-width="2.5" stroke-dasharray="8 6"/>
<circle cx="164.14" cy="100.00" r="4" fill="#111111" stroke="#ffffff" stroke-width="1"/>
<circle cx="217.37" cy="207.53" r="4" fill="#111111" stroke="#ffffff" stroke-width="1"/>
<circle cx="270.60" cy="281.20" r="4" fill="#111111" stroke="#ffffff" stroke-width="1"/>
<circle cx="323.84" cy="334.83" r="4" fill="#111111" stroke="#ffffff" stroke-width="1"/>
<circle cx="377.07" cy="375.62" r="4" fill="#111111" stroke="#ffffff" stroke-width="1"/>
<circle cx="430.30" cy="407.68" r="4" fill="#111111" stroke="#ffffff" stroke-width="1"/>
<circle cx="483.53" cy="433.55" r="4" fill="#111111" stroke="#ffffff" stroke-width="1"/>
<circle cx="536.77" cy="454.86" r="4" fill="#111111" stroke="#ffffff" stroke-width="1"/>
<circle cx="590.00" cy="472.72" r="4" fill="#111111" stroke="#ffffff" stroke-width="1"/>
<circle cx="643.23" cy="487.90" r="4" fill="#111111" stroke="#ffffff" stroke-width="1"/>
<circle cx="696.47" cy="500.97" r="4" fill="#111111" stroke="#ffffff" stroke-width="1"/>
<circle cx="749.70" cy="512.33" r="4" fill="#111111" stroke="#ffffff" stroke-width="1"/>
<circle cx="802.93" cy="522.31" r="4" fill="#111111" stroke="#ffffff" stroke-width="1"/>
<circle cx="856.16" cy="531.13" r="4" fill="#111111" stroke="#ffffff" stroke-width="1"/>
<circle cx="909.40" cy="539.00" r="4" fill="#111111" stroke="#ffffff" stroke-width="1"/>
<circle cx="962.63" cy="546.05" r="4" fill="#111111" stroke="#ffffff" stroke-width="1"/>
<circle cx="1015.86" cy="552.41" r="4" fill="#111111" stroke="#ffffff" stroke-width="1"/>
</svg>
