<svg xmlns="http://www.w3.org/2000/svg" width="1120" height="680" viewBox="0 0 1120 680">
<rect width="100%" height="100%" fill="#fbfbf8"/>
<text x="560.0" y="34" text-anchor="middle" font-family="sans-serif" font-size="24" fill="#222">Transmision FPGA: goodput vs payload</text>
<rect x="96" y="62" width="988" height="532" fill="#ffffff" stroke="#c9c9c1"/>
<line x1="96" y1="62.00" x2="1084" y2="62.00" stroke="#e8e8df"/>
<text x="86" y="66.00" text-anchor="end" font-family="sans-serif" font-size="12" fill="#4a4a45">979</text>
<line x1="96.00" y1="62" x2="96.00" y2="594" stroke="#f0f0e8"/>
<text x="96.00" y="618" text-anchor="middle" font-family="sans-serif" font-size="12" fill="#4a4a45">161</text>
<line x1="96" y1="168.40" x2="1084" y2="168.40" stroke="#e8e8df"/>
<text x="86" y="172.40" text-anchor="end" font-family="sans-serif" font-size="12" fill="#4a4a45">914</text>
<line x1="293.60" y1="62" x2="293.60" y2="594" stroke="#f0f0e8"/>
<text x="293.60" y="618" text-anchor="middle" font-family="sans-serif" font-size="12" fill="#4a4a45">436</text>
<line x1="96" y1="274.80" x2="1084" y2="274.80" stroke="#e8e8df"/>
<text x="86" y="278.80" text-anchor="end" font-family="sans-serif" font-size="12" fill="#4a4a45">848</text>
<line x1="491.20" y1="62" x2="491.20" y2="594" stroke="#f0f0e8"/>
<text x="491.20" y="618" text-anchor="middle" font-family="sans-serif" font-size="12" fill="#4a4a45">711</text>
<line x1="96" y1="381.20" x2="1084" y2="381.20" stroke="#e8e8df"/>
<text x="86" y="385.20" text-anchor="end" font-family="sans-serif" font-size="12" fill="#4a4a45">782</text>
<line x1="688.80" y1="62" x2="688.80" y2="594" stroke="#f0f0e8"/>
<text x="688.80" y="618" text-anchor="middle" font-family="sans-serif" font-size="12" fill="#4a4a45">985</text>
<line x1="96" y1="487.60" x2="1084" y2="487.60" stroke="#e8e8df"/>
<text x="86" y="491.60" text-anchor="end" font-family="sans-serif" font-size="12" fill="#4a4a45">716</text>
<line x1="886.40" y1="62" x2="886.40" y2="594" stroke="#f0f0e8"/>
<text x="886.40" y="618" text-anchor="middle" font-family="sans-serif" font-size="12" fill="#4a4a45">1260</text>
<line x1="96" y1="594.00" x2="1084" y2="594.00" stroke="#e8e8df"/>
<text x="86" y="598.00" text-anchor="end" font-family="sans-serif" font-size="12" fill="#4a4a45">650</text>
<line x1="1084.00" y1="62" x2="1084.00" y2="594" stroke="#f0f0e8"/>
<text x="1084.00" y="618" text-anchor="middle" font-family="sans-serif" font-size="12" fill="#4a4a45">1535</text>
<text x="590.0" y="656" text-anchor="middle" font-family="sans-serif" font-size="15" fill="#222">Payload size (bytes)</text>
<text transform="translate(26 328.0) rotate(-90)" text-anchor="middle" font-family="sans-serif" font-size="15" fill="#222">Goodput payload (Mbps)</text>
<line x1="112" y1="82" x2="138" y2="82" stroke="#9467bd" stroke-width="3"/>
<text x="146" y="86" font-family="sans-serif" font-size="13" fill="#222">Goodput</text>
<line x1="112" y1="104" x2="138" y2="104" stroke="#111111" stroke-width="3" stroke-dasharray="8 6"/>
<text x="146" y="108" font-family="sans-serif" font-size="13" fill="#222">Teorico</text>
<polyline points="164.14,457.13 217.37,297.68 270.60,254.24 323.84,223.67 377.07,200.60 430.30,181.95 483.53,167.31 536.77,154.92 590.00,144.75 643.23,136.18 696.47,128.91 749.70,121.77 802.93,116.13 856.16,111.07 909.40,106.89 962.63,102.98 1015.86,99.28" fill="none" stroke="#9467bd" stroke-width="2.5"/>
<line x1="164.14" y1="557.31" x2="164.14" y2="356.95" stroke="#9467bd" stroke-width="1.3"/>
<line x1="159.14" y1="557.31" x2="169.14" y2="557.31" stroke="#9467bd" stroke-width="1.3"/>
<line x1="159.14" y1="356.95" x2="169.14" y2="356.95" stroke="#9467bd" stroke-width="1.3"/>
<circle cx="164.14" cy="457.13" r="4" fill="#9467bd" stroke="#ffffff" stroke-width="1"/>
<line x1="217.37" y1="299.01" x2="217.37" y2="296.34" stroke="#9467bd" stroke-width="1.3"/>
<line x1="212.37" y1="299.01" x2="222.37" y2="299.01" stroke="#9467bd" stroke-width="1.3"/>
<line x1="212.37" y1="296.34" x2="222.37" y2="296.34" stroke="#9467bd" stroke-width="1.3"/>
<circle cx="217.37" cy="297.68" r="4" fill="#9467bd" stroke="#ffffff" stroke-width="1"/>
<line x1="270.60" y1="255.52" x2="270.60" y2="252.95" stroke="#9467bd" stroke-width="1.3"/>
<line x1="265.60" y1="255.52" x2="275.60" y2="255.52" stroke="#9467bd" stroke-width="1.3"/>
<line x1="265.60" y1="252.95" x2="275.60" y2="252.95" stroke="#9467bd" stroke-width="1.3"/>
<circle cx="270.60" cy="254.24" r="4" fill="#9467bd" stroke="#ffffff" stroke-width="1"/>
<line x1="323.84" y1="224.94" x2="323.84" y2="222.40" stroke="#9467bd" stroke-width="1.3"/>
<line x1="318.84" y1="224.94" x2="328.84" y2="224.94" stroke="#9467bd" stroke-width="1.3"/>
<line x1="318.84" y1="222.40" x2="328.84" y2="222.40" stroke="#9467bd" stroke-width="1.3"/>
<circle cx="323.84" cy="223.67" r="4" fill="#9467bd" stroke="#ffffff" stroke-width="1"/>
<line x1="377.07" y1="200.93" x2="377.07" y2="200.27" stroke="#9467bd" stroke-width="1.3"/>
<line x1="372.07" y1="200.93" x2="382.07" y2="200.93" stroke="#9467bd" stroke-width="1.3"/>
<line x1="372.07" y1="200.27" x2="382.07" y2="200.27" stroke="#9467bd" stroke-width="1.3"/>
<circle cx="377.07" cy="200.60" r="4" fill="#9467bd" stroke="#ffffff" stroke-width="1"/>
<line x1="430.30" y1="183.01" x2="430.30" y2="180.89" stroke="#9467bd" stroke-width="1.3"/>
<line x1="425.30" y1="183.01" x2="435.30" y2="183.01" stroke="#9467bd" stroke-width="1.3"/>
<line x1="425.30" y1="180.89" x2="435.30" y2="180.89" stroke="#9467bd" stroke-width="1.3"/>
<circle cx="430.30" cy="181.95" r="4" fill="#9467bd" stroke="#ffffff" stroke-width="1"/>
<line x1="483.53" y1="167.85" x2="483.53" y2="166.76" stroke="#9467bd" stroke-width="1.3"/>
<line x1="478.53" y1="167.85" x2="488.53" y2="167.85" stroke="#9467bd" stroke-width="1.3"/>
<line x1="478.53" y1="166.76" x2="488.53" y2="166.76" stroke="#9467bd" stroke-width="1.3"/>
<circle cx="483.53" cy="167.31" r="4" fill="#9467bd" stroke="#ffffff" stroke-width="1"/>
<line x1="536.77" y1="155.73" x2="536.77" y2="154.12" stroke="#9467bd" stroke-width="1.3"/>
<line x1="531.77" y1="155.73" x2="541.77" y2="155.73" stroke="#9467bd" stroke-width="1.3"/>
<line x1="531.77" y1="154.12" x2="541.77" y2="154.12" stroke="#9467bd" stroke-width="1.3"/>
<circle cx="536.77" cy="154.92" r="4" fill="#9467bd" stroke="#ffffff" stroke-width="1"/>
<line x1="590.00" y1="145.31" x2="590.00" y2="144.19" stroke="#9467bd" stroke-width="1.3"/>
<line x1="585.00" y1="145.31" x2="595.00" y2="145.31" stroke="#9467bd" stroke-width="1.3"/>
<line x1="585.00" y1="144.19" x2="595.00" y2="144.19" stroke="#9467bd" stroke-width="1.3"/>
<circle cx="590.00" cy="144.75" r="4" fill="#9467bd" stroke="#ffffff" stroke-width="1"/>
<line x1="643.23" y1="136.55" x2="643.23" y2="135.80" stroke="#9467bd" stroke-width="1.3"/>
<line x1="638.23" y1="136.55" x2="648.23" y2="136.55" stroke="#9467bd" stroke-width="1.3"/>
<line x1="638.23" y1="135.80" x2="648.23" y2="135.80" stroke="#9467bd" stroke-width="1.3"/>
<circle cx="643.23" cy="136.18" r="4" fill="#9467bd" stroke="#ffffff" stroke-width="1"/>
<line x1="696.47" y1="129.37" x2="696.47" y2="128.45" stroke="#9467bd" stroke-width="1.3"/>
<line x1="691.47" y1="129.37" x2="701.47" y2="129.37" stroke="#9467bd" stroke-width="1.3"/>
<line x1="691.47" y1="128.45" x2="701.47" y2="128.45" stroke="#9467bd" stroke-width="1.3"/>
<circle cx="696.47" cy="128.91" r="4" fill="#9467bd" stroke="#ffffff" stroke-width="1"/>
<line x1="749.70" y1="122.49" x2="749.70" y2="121.05" stroke="#9467bd" stroke-width="1.3"/>
<line x1="744.70" y1="122.49" x2="754.70" y2="122.49" stroke="#9467bd" stroke-width="1.3"/>
<line x1="744.70" y1="121.05" x2="754.70" y2="121.05" stroke="#9467bd" stroke-width="1.3"/>
<circle cx="749.70" cy="121.77" r="4" fill="#9467bd" stroke="#ffffff" stroke-width="1"/>
<line x1="802.93" y1="116.73" x2="802.93" y2="115.53" stroke="#9467bd" stroke-width="1.3"/>
<line x1="797.93" y1="116.73" x2="807.93" y2="116.73" stroke="#9467bd" stroke-width="1.3"/>
<line x1="797.93" y1="115.53" x2="807.93" y2="115.53" stroke="#9467bd" stroke-width="1.3"/>
<circle cx="802.93" cy="116.13" r="4" fill="#9467bd" stroke="#ffffff" stroke-width="1"/>
<line x1="856.16" y1="111.41" x2="856.16" y2="110.73" stroke="#9467bd" stroke-width="1.3"/>
<line x1="851.16" y1="111.41" x2="861.16" y2="111.41" stroke="#9467bd" stroke-width="1.3"/>
<line x1="851.16" y1="110.73" x2="861.16" y2="110.73" stroke="#9467bd" stroke-width="1.3"/>
<circle cx="856.16" cy="111.07" r="4" fill="#9467bd" stroke="#ffffff" stroke-width="1"/>
<line x1="909.40" y1="107.18" x2="909.40" y2="106.59" stroke="#9467bd" stroke-width="1.3"/>
<line x1="904.40" y1="107.18" x2="914.40" y2="107.18" stroke="#9467bd" stroke-width="1.3"/>
<line x1="904.40" y1="106.59" x2="914.40" y2="106.59" stroke="#9467bd" stroke-width="1.3"/>
<circle cx="909.40" cy="106.89" r="4" fill="#9467bd" stroke="#ffffff" stroke-width="1"/>
<line x1="962.63" y1="103.36" x2="962.63" y2="102.61" stroke="#9467bd" stroke-width="1.3"/>
<line x1="957.63" y1="103.36" x2="967.63" y2="103.36" stroke="#9467bd" stroke-width="1.3"/>
<line x1="957.63" y1="102.61" x2="967.63" y2="102.61" stroke="#9467bd" stroke-width="1.3"/>
<circle cx="962.63" cy="102.98" r="4" fill="#9467bd" stroke="#ffffff" stroke-width="1"/>
<line x1="1015.86" y1="99.86" x2="1015.86" y2="98.69" stroke="#9467bd" stroke-width="1.3"/>
<line x1="1010.86" y1="99.86" x2="1020.86" y2="99.86" stroke="#9467bd" stroke-width="1.3"/>
<line x1="1010.86" y1="98.69" x2="1020.86" y2="98.69" stroke="#9467bd" stroke-width="1.3"/>
<circle cx="1015.86" cy="99.28" r="4" fill="#9467bd" stroke="#ffffff" stroke-width="1"/>
<polyline points="164.14,359.88 217.37,298.02 270.60,255.64 323.84,224.79 377.07,201.33 430.30,182.88 483.53,168.00 536.77,155.75 590.00,145.47 643.23,136.74 696.47,129.22 749.70,122.68 802.93,116.94 856.16,111.87 909.40,107.34 962.63,103.29 1015.86,99.63" fill="none" stroke="#111111" stroke-width="2.5" stroke-dasharray="8 6"/>
<circle cx="164.14" cy="359.88" r="4" fill="#111111" stroke="#ffffff" stroke-width="1"/>
<circle cx="217.37" cy="298.02" r="4" fill="#111111" stroke="#ffffff" stroke-width="1"/>
<circle cx="270.60" cy="255.64" r="4" fill="#111111" stroke="#ffffff" stroke-width="1"/>
<circle cx="323.84" cy="224.79" r="4" fill="#111111" stroke="#ffffff" stroke-width="1"/>
<circle cx="377.07" cy="201.33" r="4" fill="#111111" stroke="#ffffff" stroke-width="1"/>
<circle cx="430.30" cy="182.88" r="4" fill="#111111" stroke="#ffffff" stroke-width="1"/>
<circle cx="483.53" cy="168.00" r="4" fill="#111111" stroke="#ffffff" stroke-width="1"/>
<circle cx="536.77" cy="155.75" r="4" fill="#111111" stroke="#ffffff" stroke-width="1"/>
<circle cx="590.00" cy="145.47" r="4" fill="#111111" stroke="#ffffff" stroke-width="1"/>
<circle cx="643.23" cy="136.74" r="4" fill="#111111" stroke="#ffffff" stroke-width="1"/>
<circle cx="696.47" cy="129.22" r="4" fill="#111111" stroke="#ffffff" stroke-width="1"/>
<circle cx="749.70" cy="122.68" r="4" fill="#111111" stroke="#ffffff" stroke-width="1"/>
<circle cx="802.93" cy="116.94" r="4" fill="#111111" stroke="#ffffff" stroke-width="1"/>
<circle cx="856.16" cy="111.87" r="4" fill="#111111" stroke="#ffffff" stroke-width="1"/>
<circle cx="909.40" cy="107.34" r="4" fill="#111111" stroke="#ffffff" stroke-width="1"/>
<circle cx="962.63" cy="103.29" r="4" fill="#111111" stroke="#ffffff" stroke-width="1"/>
<circle cx="1015.86" cy="99.63" r="4" fill="#111111" stroke="#ffffff" stroke-width="1"/>
</svg>
