<svg xmlns="http://www.w3.org/2000/svg" width="1120" height="680" viewBox="0 0 1120 680">
<rect width="100%" height="100%" fill="#fbfbf8"/>
<text x="560.0" y="34" text-anchor="middle" font-family="sans-serif" font-size="24" fill="#222">Transmision FPGA: perdida vs payload</text>
<rect x="96" y="62" width="988" height="532" fill="#ffffff" stroke="#c9c9c1"/>
<line x1="96" y1="62.00" x2="1084" y2="62.00" stroke="#e8e8df"/>
<text x="86" y="66.00" text-anchor="end" font-family="sans-serif" font-size="12" fill="#4a4a45">16.6</text>
<line x1="96.00" y1="62" x2="96.00" y2="594" stroke="#f0f0e8"/>
<text x="96.00" y="618" text-anchor="middle" font-family="sans-serif" font-size="12" fill="#4a4a45">161</text>
<line x1="96" y1="168.40" x2="1084" y2="168.40" stroke="#e8e8df"/>
<text x="86" y="172.40" text-anchor="end" font-family="sans-serif" font-size="12" fill="#4a4a45">13</text>
<line x1="293.60" y1="62" x2="293.60" y2="594" stroke="#f0f0e8"/>
<text x="293.60" y="618" text-anchor="middle" font-family="sans-serif" font-size="12" fill="#4a4a45">436</text>
<line x1="96" y1="274.80" x2="1084" y2="274.80" stroke="#e8e8df"/>
<text x="86" y="278.80" text-anchor="end" font-family="sans-serif" font-size="12" fill="#4a4a45">9.37</text>
<line x1="491.20" y1="62" x2="491.20" y2="594" stroke="#f0f0e8"/>
<text x="491.20" y="618" text-anchor="middle" font-family="sans-serif" font-size="12" fill="#4a4a45">711</text>
<line x1="96" y1="381.20" x2="1084" y2="381.20" stroke="#e8e8df"/>
<text x="86" y="385.20" text-anchor="end" font-family="sans-serif" font-size="12" fill="#4a4a45">5.77</text>
<line x1="688.80" y1="62" x2="688.80" y2="594" stroke="#f0f0e8"/>
<text x="688.80" y="618" text-anchor="middle" font-family="sans-serif" font-size="12" fill="#4a4a45">985</text>
<line x1="96" y1="487.60" x2="1084" y2="487.60" stroke="#e8e8df"/>
<text x="86" y="491.60" text-anchor="end" font-family="sans-serif" font-size="12" fill="#4a4a45">2.17</text>
<line x1="886.40" y1="62" x2="886.40" y2="594" stroke="#f0f0e8"/>
<text x="886.40" y="618" text-anchor="middle" font-family="sans-serif" font-size="12" fill="#4a4a45">1260</text>
<line x1="96" y1="594.00" x2="1084" y2="594.00" stroke="#e8e8df"/>
<text x="86" y="598.00" text-anchor="end" font-family="sans-serif" font-size="12" fill="#4a4a45">-1.44</text>
<line x1="1084.00" y1="62" x2="1084.00" y2="594" stroke="#f0f0e8"/>
<text x="1084.00" y="618" text-anchor="middle" font-family="sans-serif" font-size="12" fill="#4a4a45">1535</text>
<text x="590.0" y="656" text-anchor="middle" font-family="sans-serif" font-size="15" fill="#222">Payload size (bytes)</text>
<text transform="translate(26 328.0) rotate(-90)" text-anchor="middle" font-family="sans-serif" font-size="15" fill="#222">Perdida (%)</text>
<line x1="112" y1="82" x2="138" y2="82" stroke="#d62728" stroke-width="3"/>
<text x="146" y="86" font-family="sans-serif" font-size="13" fill="#222">Perdida</text>
<polyline points="164.14,328.00 217.37,549.74 270.60,551.59 323.84,551.59 377.07,551.59 430.30,551.59 483.53,551.59 536.77,551.59 590.00,551.59 643.23,551.59 696.47,551.59 749.70,551.59 802.93,551.59 856.16,551.59 909.40,551.59 962.63,551.59 1015.86,551.31" fill="none" stroke="#d62728" stroke-width="2.5"/>
<line x1="164.14" y1="557.31" x2="164.14" y2="98.69" stroke="#d62728" stroke-width="1.3"/>
<line x1="159.14" y1="557.31" x2="169.14" y2="557.31" stroke="#d62728" stroke-width="1.3"/>
<line x1="159.14" y1="98.69" x2="169.14" y2="98.69" stroke="#d62728" stroke-width="1.3"/>
<circle cx="164.14" cy="328.00" r="4" fill="#d62728" stroke="#ffffff" stroke-width="1"/>
<line x1="217.37" y1="550.80" x2="217.37" y2="548.67" stroke="#d62728" stroke-width="1.3"/>
<line x1="212.37" y1="550.80" x2="222.37" y2="550.80" stroke="#d62728" stroke-width="1.3"/>
<line x1="212.37" y1="548.67" x2="222.37" y2="548.67" stroke="#d62728" stroke-width="1.3"/>
<circle cx="217.37" cy="549.74" r="4" fill="#d62728" stroke="#ffffff" stroke-width="1"/>
<circle cx="270.60" cy="551.59" r="4" fill="#d62728" stroke="#ffffff" stroke-width="1"/>
<circle cx="323.84" cy="551.59" r="4" fill="#d62728" stroke="#ffffff" stroke-width="1"/>
<circle cx="377.07" cy="551.59" r="4" fill="#d62728" stroke="#ffffff" stroke-width="1"/>
<circle cx="430.30" cy="551.59" r="4" fill="#d62728" stroke="#ffffff" stroke-width="1"/>
<circle cx="483.53" cy="551.59" r="4" fill="#d62728" stroke="#ffffff" stroke-width="1"/>
<circle cx="536.77" cy="551.59" r="4" fill="#d62728" stroke="#ffffff" stroke-width="1"/>
<circle cx="590.00" cy="551.59" r="4" fill="#d62728" stroke="#ffffff" stroke-width="1"/>
<circle cx="643.23" cy="551.59" r="4" fill="#d62728" stroke="#ffffff" stroke-width="1"/>
<circle cx="696.47" cy="551.59" r="4" fill="#d62728" stroke="#ffffff" stroke-width="1"/>
<circle cx="749.70" cy="551.59" r="4" fill="#d62728" stroke="#ffffff" stroke-width="1"/>
<circle cx="802.93" cy="551.59" r="4" fill="#d62728" stroke="#ffffff" stroke-width="1"/>
<circle cx="856.16" cy="551.59" r="4" fill="#d62728" stroke="#ffffff" stroke-width="1"/>
<circle cx="909.40" cy="551.59" r="4" fill="#d62728" stroke="#ffffff" stroke-width="1"/>
<circle cx="962.63" cy="551.59" r="4" fill="#d62728" stroke="#ffffff" stroke-width="1"/>
<line x1="1015.86" y1="551.94" x2="1015.86" y2="550.67" stroke="#d62728" stroke-width="1.3"/>
<line x1="1010.86" y1="551.94" x2="1020.86" y2="551.94" stroke="#d62728" stroke-width="1.3"/>
<line x1="1010.86" y1="550.67" x2="1020.86" y2="550.67" stroke="#d62728" stroke-width="1.3"/>
<circle cx="1015.86" cy="551.31" r="4" fill="#d62728" stroke="#ffffff" stroke-width="1"/>
</svg>
