<svg xmlns="http://www.w3.org/2000/svg" width="1120" height="760" viewBox="0 0 1120 760">
<rect width="100%" height="100%" fill="#fbfbf8"/>
<text x="560.0" y="34" text-anchor="middle" font-family="sans-serif" font-size="24" fill="#222">Pérdida vs. payload</text>
<rect x="96" y="106" width="988" height="562" fill="#ffffff" stroke="#c9c9c1"/>
<line x1="96" y1="106.00" x2="1084" y2="106.00" stroke="#a9aba3" stroke-width="1.35"/>
<text x="86" y="110.00" text-anchor="end" font-family="sans-serif" font-size="13" font-weight="400" fill="#292925">0.0176</text>
<line x1="96" y1="199.67" x2="1084" y2="199.67" stroke="#a9aba3" stroke-width="1.35"/>
<text x="86" y="203.67" text-anchor="end" font-family="sans-serif" font-size="13" font-weight="400" fill="#292925">0.0147</text>
<line x1="96" y1="293.33" x2="1084" y2="293.33" stroke="#a9aba3" stroke-width="1.35"/>
<text x="86" y="297.33" text-anchor="end" font-family="sans-serif" font-size="13" font-weight="400" fill="#292925">0.0118</text>
<line x1="96" y1="387.00" x2="1084" y2="387.00" stroke="#a9aba3" stroke-width="1.35"/>
<text x="86" y="391.00" text-anchor="end" font-family="sans-serif" font-size="13" font-weight="400" fill="#292925">0.0088</text>
<line x1="96" y1="480.67" x2="1084" y2="480.67" stroke="#a9aba3" stroke-width="1.35"/>
<text x="86" y="484.67" text-anchor="end" font-family="sans-serif" font-size="13" font-weight="400" fill="#292925">0.0059</text>
<line x1="96" y1="574.33" x2="1084" y2="574.33" stroke="#a9aba3" stroke-width="1.35"/>
<text x="86" y="578.33" text-anchor="end" font-family="sans-serif" font-size="13" font-weight="400" fill="#292925">0.0029</text>
<line x1="96" y1="668.00" x2="1084" y2="668.00" stroke="#4f504b" stroke-width="2.2"/>
<text x="86" y="672.00" text-anchor="end" font-family="sans-serif" font-size="13" font-weight="600" fill="#292925">0</text>
<line x1="116.71" y1="106" x2="116.71" y2="668" stroke="#b4b6ae" stroke-width="1.25"/>
<text x="116.71" y="690" text-anchor="middle" font-family="sans-serif" font-size="11" font-weight="500" fill="#292925">256</text>
<line x1="175.87" y1="106" x2="175.87" y2="668" stroke="#b4b6ae" stroke-width="1.25"/>
<text x="175.87" y="690" text-anchor="middle" font-family="sans-serif" font-size="11" font-weight="500" fill="#292925">330</text>
<line x1="235.03" y1="106" x2="235.03" y2="668" stroke="#b4b6ae" stroke-width="1.25"/>
<text x="235.03" y="690" text-anchor="middle" font-family="sans-serif" font-size="11" font-weight="500" fill="#292925">404</text>
<line x1="294.19" y1="106" x2="294.19" y2="668" stroke="#b4b6ae" stroke-width="1.25"/>
<text x="294.19" y="690" text-anchor="middle" font-family="sans-serif" font-size="11" font-weight="500" fill="#292925">478</text>
<line x1="353.35" y1="106" x2="353.35" y2="668" stroke="#b4b6ae" stroke-width="1.25"/>
<text x="353.35" y="690" text-anchor="middle" font-family="sans-serif" font-size="11" font-weight="500" fill="#292925">552</text>
<line x1="412.51" y1="106" x2="412.51" y2="668" stroke="#b4b6ae" stroke-width="1.25"/>
<text x="412.51" y="690" text-anchor="middle" font-family="sans-serif" font-size="11" font-weight="500" fill="#292925">626</text>
<line x1="471.68" y1="106" x2="471.68" y2="668" stroke="#b4b6ae" stroke-width="1.25"/>
<text x="471.68" y="690" text-anchor="middle" font-family="sans-serif" font-size="11" font-weight="500" fill="#292925">700</text>
<line x1="530.84" y1="106" x2="530.84" y2="668" stroke="#b4b6ae" stroke-width="1.25"/>
<text x="530.84" y="690" text-anchor="middle" font-family="sans-serif" font-size="11" font-weight="500" fill="#292925">774</text>
<line x1="590.00" y1="106" x2="590.00" y2="668" stroke="#b4b6ae" stroke-width="1.25"/>
<text x="590.00" y="690" text-anchor="middle" font-family="sans-serif" font-size="11" font-weight="500" fill="#292925">848</text>
<line x1="649.16" y1="106" x2="649.16" y2="668" stroke="#b4b6ae" stroke-width="1.25"/>
<text x="649.16" y="690" text-anchor="middle" font-family="sans-serif" font-size="11" font-weight="500" fill="#292925">922</text>
<line x1="708.32" y1="106" x2="708.32" y2="668" stroke="#b4b6ae" stroke-width="1.25"/>
<text x="708.32" y="690" text-anchor="middle" font-family="sans-serif" font-size="11" font-weight="500" fill="#292925">996</text>
<line x1="767.49" y1="106" x2="767.49" y2="668" stroke="#b4b6ae" stroke-width="1.25"/>
<text x="767.49" y="690" text-anchor="middle" font-family="sans-serif" font-size="11" font-weight="500" fill="#292925">1070</text>
<line x1="826.65" y1="106" x2="826.65" y2="668" stroke="#b4b6ae" stroke-width="1.25"/>
<text x="826.65" y="690" text-anchor="middle" font-family="sans-serif" font-size="11" font-weight="500" fill="#292925">1144</text>
<line x1="885.81" y1="106" x2="885.81" y2="668" stroke="#b4b6ae" stroke-width="1.25"/>
<text x="885.81" y="690" text-anchor="middle" font-family="sans-serif" font-size="11" font-weight="500" fill="#292925">1218</text>
<line x1="944.97" y1="106" x2="944.97" y2="668" stroke="#b4b6ae" stroke-width="1.25"/>
<text x="944.97" y="690" text-anchor="middle" font-family="sans-serif" font-size="11" font-weight="500" fill="#292925">1292</text>
<line x1="1004.13" y1="106" x2="1004.13" y2="668" stroke="#b4b6ae" stroke-width="1.25"/>
<text x="1004.13" y="690" text-anchor="middle" font-family="sans-serif" font-size="11" font-weight="500" fill="#292925">1366</text>
<line x1="1063.29" y1="106" x2="1063.29" y2="668" stroke="#b4b6ae" stroke-width="1.25"/>
<text x="1063.29" y="690" text-anchor="middle" font-family="sans-serif" font-size="11" font-weight="500" fill="#292925">1440</text>
<text x="590.0" y="736" text-anchor="middle" font-family="sans-serif" font-size="17" font-weight="600" fill="#171715">Tamaño del payload (bytes)</text>
<text transform="translate(24 387.0) rotate(-90)" text-anchor="middle" font-family="sans-serif" font-size="17" font-weight="600" fill="#171715">Pérdida (%)</text>
<line x1="96.0" y1="64" x2="122.0" y2="64" stroke="#2ca02c" stroke-width="3"/>
<text x="130.0" y="68" font-family="sans-serif" font-size="13" fill="#222">Interfaz a FPGA</text>
<line x1="590.0" y1="64" x2="616.0" y2="64" stroke="#9467bd" stroke-width="3" stroke-dasharray="8 6"/>
<text x="624.0" y="68" font-family="sans-serif" font-size="13" fill="#222">FPGA a interfaz</text>
<polyline points="116.71,409.29 175.87,337.92 235.03,567.96 294.19,455.17 353.35,351.94 412.51,237.88 471.68,214.30 530.84,560.95 590.00,437.97 649.16,418.85 708.32,343.66 767.49,411.20 826.65,556.49 885.81,348.76 944.97,279.30 1004.13,401.65 1063.29,217.49" fill="none" stroke="#2ca02c" stroke-width="2.5"/>
<line x1="116.71" y1="475.11" x2="116.71" y2="343.48" stroke="#2ca02c" stroke-width="1.3"/>
<line x1="111.71" y1="475.11" x2="121.71" y2="475.11" stroke="#2ca02c" stroke-width="1.3"/>
<line x1="111.71" y1="343.48" x2="121.71" y2="343.48" stroke="#2ca02c" stroke-width="1.3"/>
<circle cx="116.71" cy="409.29" r="4" fill="#2ca02c" stroke="#ffffff" stroke-width="1"/>
<line x1="175.87" y1="375.46" x2="175.87" y2="300.39" stroke="#2ca02c" stroke-width="1.3"/>
<line x1="170.87" y1="375.46" x2="180.87" y2="375.46" stroke="#2ca02c" stroke-width="1.3"/>
<line x1="170.87" y1="300.39" x2="180.87" y2="300.39" stroke="#2ca02c" stroke-width="1.3"/>
<circle cx="175.87" cy="337.92" r="4" fill="#2ca02c" stroke="#ffffff" stroke-width="1"/>
<line x1="235.03" y1="609.60" x2="235.03" y2="526.32" stroke="#2ca02c" stroke-width="1.3"/>
<line x1="230.03" y1="609.60" x2="240.03" y2="609.60" stroke="#2ca02c" stroke-width="1.3"/>
<line x1="230.03" y1="526.32" x2="240.03" y2="526.32" stroke="#2ca02c" stroke-width="1.3"/>
<circle cx="235.03" cy="567.96" r="4" fill="#2ca02c" stroke="#ffffff" stroke-width="1"/>
<line x1="294.19" y1="486.74" x2="294.19" y2="423.60" stroke="#2ca02c" stroke-width="1.3"/>
<line x1="289.19" y1="486.74" x2="299.19" y2="486.74" stroke="#2ca02c" stroke-width="1.3"/>
<line x1="289.19" y1="423.60" x2="299.19" y2="423.60" stroke="#2ca02c" stroke-width="1.3"/>
<circle cx="294.19" cy="455.17" r="4" fill="#2ca02c" stroke="#ffffff" stroke-width="1"/>
<line x1="353.35" y1="455.24" x2="353.35" y2="248.64" stroke="#2ca02c" stroke-width="1.3"/>
<line x1="348.35" y1="455.24" x2="358.35" y2="455.24" stroke="#2ca02c" stroke-width="1.3"/>
<line x1="348.35" y1="248.64" x2="358.35" y2="248.64" stroke="#2ca02c" stroke-width="1.3"/>
<circle cx="353.35" cy="351.94" r="4" fill="#2ca02c" stroke="#ffffff" stroke-width="1"/>
<line x1="412.51" y1="317.95" x2="412.51" y2="157.82" stroke="#2ca02c" stroke-width="1.3"/>
<line x1="407.51" y1="317.95" x2="417.51" y2="317.95" stroke="#2ca02c" stroke-width="1.3"/>
<line x1="407.51" y1="157.82" x2="417.51" y2="157.82" stroke="#2ca02c" stroke-width="1.3"/>
<circle cx="412.51" cy="237.88" r="4" fill="#2ca02c" stroke="#ffffff" stroke-width="1"/>
<line x1="471.68" y1="256.55" x2="471.68" y2="172.06" stroke="#2ca02c" stroke-width="1.3"/>
<line x1="466.68" y1="256.55" x2="476.68" y2="256.55" stroke="#2ca02c" stroke-width="1.3"/>
<line x1="466.68" y1="172.06" x2="476.68" y2="172.06" stroke="#2ca02c" stroke-width="1.3"/>
<circle cx="471.68" cy="214.30" r="4" fill="#2ca02c" stroke="#ffffff" stroke-width="1"/>
<line x1="530.84" y1="610.39" x2="530.84" y2="511.51" stroke="#2ca02c" stroke-width="1.3"/>
<line x1="525.84" y1="610.39" x2="535.84" y2="610.39" stroke="#2ca02c" stroke-width="1.3"/>
<line x1="525.84" y1="511.51" x2="535.84" y2="511.51" stroke="#2ca02c" stroke-width="1.3"/>
<circle cx="530.84" cy="560.95" r="4" fill="#2ca02c" stroke="#ffffff" stroke-width="1"/>
<line x1="590.00" y1="453.48" x2="590.00" y2="422.46" stroke="#2ca02c" stroke-width="1.3"/>
<line x1="585.00" y1="453.48" x2="595.00" y2="453.48" stroke="#2ca02c" stroke-width="1.3"/>
<line x1="585.00" y1="422.46" x2="595.00" y2="422.46" stroke="#2ca02c" stroke-width="1.3"/>
<circle cx="590.00" cy="437.97" r="4" fill="#2ca02c" stroke="#ffffff" stroke-width="1"/>
<line x1="649.16" y1="516.20" x2="649.16" y2="321.50" stroke="#2ca02c" stroke-width="1.3"/>
<line x1="644.16" y1="516.20" x2="654.16" y2="516.20" stroke="#2ca02c" stroke-width="1.3"/>
<line x1="644.16" y1="321.50" x2="654.16" y2="321.50" stroke="#2ca02c" stroke-width="1.3"/>
<circle cx="649.16" cy="418.85" r="4" fill="#2ca02c" stroke="#ffffff" stroke-width="1"/>
<line x1="708.32" y1="417.09" x2="708.32" y2="270.23" stroke="#2ca02c" stroke-width="1.3"/>
<line x1="703.32" y1="417.09" x2="713.32" y2="417.09" stroke="#2ca02c" stroke-width="1.3"/>
<line x1="703.32" y1="270.23" x2="713.32" y2="270.23" stroke="#2ca02c" stroke-width="1.3"/>
<circle cx="708.32" cy="343.66" r="4" fill="#2ca02c" stroke="#ffffff" stroke-width="1"/>
<line x1="767.49" y1="436.15" x2="767.49" y2="386.26" stroke="#2ca02c" stroke-width="1.3"/>
<line x1="762.49" y1="436.15" x2="772.49" y2="436.15" stroke="#2ca02c" stroke-width="1.3"/>
<line x1="762.49" y1="386.26" x2="772.49" y2="386.26" stroke="#2ca02c" stroke-width="1.3"/>
<circle cx="767.49" cy="411.20" r="4" fill="#2ca02c" stroke="#ffffff" stroke-width="1"/>
<line x1="826.65" y1="607.61" x2="826.65" y2="505.36" stroke="#2ca02c" stroke-width="1.3"/>
<line x1="821.65" y1="607.61" x2="831.65" y2="607.61" stroke="#2ca02c" stroke-width="1.3"/>
<line x1="821.65" y1="505.36" x2="831.65" y2="505.36" stroke="#2ca02c" stroke-width="1.3"/>
<circle cx="826.65" cy="556.49" r="4" fill="#2ca02c" stroke="#ffffff" stroke-width="1"/>
<line x1="885.81" y1="369.82" x2="885.81" y2="327.69" stroke="#2ca02c" stroke-width="1.3"/>
<line x1="880.81" y1="369.82" x2="890.81" y2="369.82" stroke="#2ca02c" stroke-width="1.3"/>
<line x1="880.81" y1="327.69" x2="890.81" y2="327.69" stroke="#2ca02c" stroke-width="1.3"/>
<circle cx="885.81" cy="348.76" r="4" fill="#2ca02c" stroke="#ffffff" stroke-width="1"/>
<line x1="944.97" y1="330.53" x2="944.97" y2="228.08" stroke="#2ca02c" stroke-width="1.3"/>
<line x1="939.97" y1="330.53" x2="949.97" y2="330.53" stroke="#2ca02c" stroke-width="1.3"/>
<line x1="939.97" y1="228.08" x2="949.97" y2="228.08" stroke="#2ca02c" stroke-width="1.3"/>
<circle cx="944.97" cy="279.30" r="4" fill="#2ca02c" stroke="#ffffff" stroke-width="1"/>
<line x1="1004.13" y1="434.73" x2="1004.13" y2="368.57" stroke="#2ca02c" stroke-width="1.3"/>
<line x1="999.13" y1="434.73" x2="1009.13" y2="434.73" stroke="#2ca02c" stroke-width="1.3"/>
<line x1="999.13" y1="368.57" x2="1009.13" y2="368.57" stroke="#2ca02c" stroke-width="1.3"/>
<circle cx="1004.13" cy="401.65" r="4" fill="#2ca02c" stroke="#ffffff" stroke-width="1"/>
<line x1="1063.29" y1="287.35" x2="1063.29" y2="147.63" stroke="#2ca02c" stroke-width="1.3"/>
<line x1="1058.29" y1="287.35" x2="1068.29" y2="287.35" stroke="#2ca02c" stroke-width="1.3"/>
<line x1="1058.29" y1="147.63" x2="1068.29" y2="147.63" stroke="#2ca02c" stroke-width="1.3"/>
<circle cx="1063.29" cy="217.49" r="4" fill="#2ca02c" stroke="#ffffff" stroke-width="1"/>
<polyline points="116.71,668.00 175.87,668.00 235.03,668.00 294.19,668.00 353.35,668.00 412.51,668.00 471.68,668.00 530.84,668.00 590.00,668.00 649.16,668.00 708.32,668.00 767.49,668.00 826.65,668.00 885.81,668.00 944.97,668.00 1004.13,668.00 1063.29,668.00" fill="none" stroke="#9467bd" stroke-width="2.5" stroke-dasharray="8 6"/>
<circle cx="116.71" cy="668.00" r="4" fill="#9467bd" stroke="#ffffff" stroke-width="1"/>
<circle cx="175.87" cy="668.00" r="4" fill="#9467bd" stroke="#ffffff" stroke-width="1"/>
<circle cx="235.03" cy="668.00" r="4" fill="#9467bd" stroke="#ffffff" stroke-width="1"/>
<circle cx="294.19" cy="668.00" r="4" fill="#9467bd" stroke="#ffffff" stroke-width="1"/>
<circle cx="353.35" cy="668.00" r="4" fill="#9467bd" stroke="#ffffff" stroke-width="1"/>
<circle cx="412.51" cy="668.00" r="4" fill="#9467bd" stroke="#ffffff" stroke-width="1"/>
<circle cx="471.68" cy="668.00" r="4" fill="#9467bd" stroke="#ffffff" stroke-width="1"/>
<circle cx="530.84" cy="668.00" r="4" fill="#9467bd" stroke="#ffffff" stroke-width="1"/>
<circle cx="590.00" cy="668.00" r="4" fill="#9467bd" stroke="#ffffff" stroke-width="1"/>
<circle cx="649.16" cy="668.00" r="4" fill="#9467bd" stroke="#ffffff" stroke-width="1"/>
<circle cx="708.32" cy="668.00" r="4" fill="#9467bd" stroke="#ffffff" stroke-width="1"/>
<circle cx="767.49" cy="668.00" r="4" fill="#9467bd" stroke="#ffffff" stroke-width="1"/>
<circle cx="826.65" cy="668.00" r="4" fill="#9467bd" stroke="#ffffff" stroke-width="1"/>
<circle cx="885.81" cy="668.00" r="4" fill="#9467bd" stroke="#ffffff" stroke-width="1"/>
<circle cx="944.97" cy="668.00" r="4" fill="#9467bd" stroke="#ffffff" stroke-width="1"/>
<circle cx="1004.13" cy="668.00" r="4" fill="#9467bd" stroke="#ffffff" stroke-width="1"/>
<circle cx="1063.29" cy="668.00" r="4" fill="#9467bd" stroke="#ffffff" stroke-width="1"/>
</svg>
