<svg xmlns="http://www.w3.org/2000/svg" width="1120" height="760" viewBox="0 0 1120 760">
<rect width="100%" height="100%" fill="#fbfbf8"/>
<text x="560.0" y="34" text-anchor="middle" font-family="sans-serif" font-size="24" fill="#222">RTT entre interfaz y FPGA vs. payload</text>
<rect x="96" y="106" width="988" height="562" fill="#ffffff" stroke="#c9c9c1"/>
<line x1="96" y1="106.00" x2="1084" y2="106.00" stroke="#a9aba3" stroke-width="1.35"/>
<text x="86" y="110.00" text-anchor="end" font-family="sans-serif" font-size="13" font-weight="400" fill="#292925">0.1238</text>
<line x1="96" y1="199.67" x2="1084" y2="199.67" stroke="#a9aba3" stroke-width="1.35"/>
<text x="86" y="203.67" text-anchor="end" font-family="sans-serif" font-size="13" font-weight="400" fill="#292925">0.1032</text>
<line x1="96" y1="293.33" x2="1084" y2="293.33" stroke="#a9aba3" stroke-width="1.35"/>
<text x="86" y="297.33" text-anchor="end" font-family="sans-serif" font-size="13" font-weight="400" fill="#292925">0.0825</text>
<line x1="96" y1="387.00" x2="1084" y2="387.00" stroke="#a9aba3" stroke-width="1.35"/>
<text x="86" y="391.00" text-anchor="end" font-family="sans-serif" font-size="13" font-weight="400" fill="#292925">0.0619</text>
<line x1="96" y1="480.67" x2="1084" y2="480.67" stroke="#a9aba3" stroke-width="1.35"/>
<text x="86" y="484.67" text-anchor="end" font-family="sans-serif" font-size="13" font-weight="400" fill="#292925">0.0413</text>
<line x1="96" y1="574.33" x2="1084" y2="574.33" stroke="#a9aba3" stroke-width="1.35"/>
<text x="86" y="578.33" text-anchor="end" font-family="sans-serif" font-size="13" font-weight="400" fill="#292925">0.0206</text>
<line x1="96" y1="668.00" x2="1084" y2="668.00" stroke="#4f504b" stroke-width="2.2"/>
<text x="86" y="672.00" text-anchor="end" font-family="sans-serif" font-size="13" font-weight="600" fill="#292925">0</text>
<line x1="116.71" y1="106" x2="116.71" y2="668" stroke="#b4b6ae" stroke-width="1.25"/>
<text x="116.71" y="690" text-anchor="middle" font-family="sans-serif" font-size="11" font-weight="500" fill="#292925">256</text>
<line x1="175.87" y1="106" x2="175.87" y2="668" stroke="#b4b6ae" stroke-width="1.25"/>
<text x="175.87" y="690" text-anchor="middle" font-family="sans-serif" font-size="11" font-weight="500" fill="#292925">330</text>
<line x1="235.03" y1="106" x2="235.03" y2="668" stroke="#b4b6ae" stroke-width="1.25"/>
<text x="235.03" y="690" text-anchor="middle" font-family="sans-serif" font-size="11" font-weight="500" fill="#292925">404</text>
<line x1="294.19" y1="106" x2="294.19" y2="668" stroke="#b4b6ae" stroke-width="1.25"/>
<text x="294.19" y="690" text-anchor="middle" font-family="sans-serif" font-size="11" font-weight="500" fill="#292925">478</text>
<line x1="353.35" y1="106" x2="353.35" y2="668" stroke="#b4b6ae" stroke-width="1.25"/>
<text x="353.35" y="690" text-anchor="middle" font-family="sans-serif" font-size="11" font-weight="500" fill="#292925">552</text>
<line x1="412.51" y1="106" x2="412.51" y2="668" stroke="#b4b6ae" stroke-width="1.25"/>
<text x="412.51" y="690" text-anchor="middle" font-family="sans-serif" font-size="11" font-weight="500" fill="#292925">626</text>
<line x1="471.68" y1="106" x2="471.68" y2="668" stroke="#b4b6ae" stroke-width="1.25"/>
<text x="471.68" y="690" text-anchor="middle" font-family="sans-serif" font-size="11" font-weight="500" fill="#292925">700</text>
<line x1="530.84" y1="106" x2="530.84" y2="668" stroke="#b4b6ae" stroke-width="1.25"/>
<text x="530.84" y="690" text-anchor="middle" font-family="sans-serif" font-size="11" font-weight="500" fill="#292925">774</text>
<line x1="590.00" y1="106" x2="590.00" y2="668" stroke="#b4b6ae" stroke-width="1.25"/>
<text x="590.00" y="690" text-anchor="middle" font-family="sans-serif" font-size="11" font-weight="500" fill="#292925">848</text>
<line x1="649.16" y1="106" x2="649.16" y2="668" stroke="#b4b6ae" stroke-width="1.25"/>
<text x="649.16" y="690" text-anchor="middle" font-family="sans-serif" font-size="11" font-weight="500" fill="#292925">922</text>
<line x1="708.32" y1="106" x2="708.32" y2="668" stroke="#b4b6ae" stroke-width="1.25"/>
<text x="708.32" y="690" text-anchor="middle" font-family="sans-serif" font-size="11" font-weight="500" fill="#292925">996</text>
<line x1="767.49" y1="106" x2="767.49" y2="668" stroke="#b4b6ae" stroke-width="1.25"/>
<text x="767.49" y="690" text-anchor="middle" font-family="sans-serif" font-size="11" font-weight="500" fill="#292925">1070</text>
<line x1="826.65" y1="106" x2="826.65" y2="668" stroke="#b4b6ae" stroke-width="1.25"/>
<text x="826.65" y="690" text-anchor="middle" font-family="sans-serif" font-size="11" font-weight="500" fill="#292925">1144</text>
<line x1="885.81" y1="106" x2="885.81" y2="668" stroke="#b4b6ae" stroke-width="1.25"/>
<text x="885.81" y="690" text-anchor="middle" font-family="sans-serif" font-size="11" font-weight="500" fill="#292925">1218</text>
<line x1="944.97" y1="106" x2="944.97" y2="668" stroke="#b4b6ae" stroke-width="1.25"/>
<text x="944.97" y="690" text-anchor="middle" font-family="sans-serif" font-size="11" font-weight="500" fill="#292925">1292</text>
<line x1="1004.13" y1="106" x2="1004.13" y2="668" stroke="#b4b6ae" stroke-width="1.25"/>
<text x="1004.13" y="690" text-anchor="middle" font-family="sans-serif" font-size="11" font-weight="500" fill="#292925">1366</text>
<line x1="1063.29" y1="106" x2="1063.29" y2="668" stroke="#b4b6ae" stroke-width="1.25"/>
<text x="1063.29" y="690" text-anchor="middle" font-family="sans-serif" font-size="11" font-weight="500" fill="#292925">1440</text>
<text x="590.0" y="736" text-anchor="middle" font-family="sans-serif" font-size="17" font-weight="600" fill="#171715">Tamaño del payload (bytes)</text>
<text transform="translate(24 387.0) rotate(-90)" text-anchor="middle" font-family="sans-serif" font-size="17" font-weight="600" fill="#171715">RTT promedio entre interfaz y FPGA (ms)</text>
<line x1="96.0" y1="64" x2="122.0" y2="64" stroke="#1f77b4" stroke-width="3"/>
<text x="130.0" y="68" font-family="sans-serif" font-size="13" fill="#222">RTT interfaz-FPGA</text>
<polyline points="116.71,492.09 175.87,483.27 235.03,471.47 294.19,457.54 353.35,446.57 412.51,431.38 471.68,400.38 530.84,335.63 590.00,323.49 649.16,264.69 708.32,274.66 767.49,262.72 826.65,236.25 885.81,245.89 944.97,219.05 1004.13,210.69 1063.29,191.83" fill="none" stroke="#1f77b4" stroke-width="2.5"/>
<line x1="116.71" y1="497.29" x2="116.71" y2="486.90" stroke="#1f77b4" stroke-width="1.3"/>
<line x1="111.71" y1="497.29" x2="121.71" y2="497.29" stroke="#1f77b4" stroke-width="1.3"/>
<line x1="111.71" y1="486.90" x2="121.71" y2="486.90" stroke="#1f77b4" stroke-width="1.3"/>
<circle cx="116.71" cy="492.09" r="4" fill="#1f77b4" stroke="#ffffff" stroke-width="1"/>
<line x1="175.87" y1="484.24" x2="175.87" y2="482.30" stroke="#1f77b4" stroke-width="1.3"/>
<line x1="170.87" y1="484.24" x2="180.87" y2="484.24" stroke="#1f77b4" stroke-width="1.3"/>
<line x1="170.87" y1="482.30" x2="180.87" y2="482.30" stroke="#1f77b4" stroke-width="1.3"/>
<circle cx="175.87" cy="483.27" r="4" fill="#1f77b4" stroke="#ffffff" stroke-width="1"/>
<line x1="235.03" y1="472.96" x2="235.03" y2="469.99" stroke="#1f77b4" stroke-width="1.3"/>
<line x1="230.03" y1="472.96" x2="240.03" y2="472.96" stroke="#1f77b4" stroke-width="1.3"/>
<line x1="230.03" y1="469.99" x2="240.03" y2="469.99" stroke="#1f77b4" stroke-width="1.3"/>
<circle cx="235.03" cy="471.47" r="4" fill="#1f77b4" stroke="#ffffff" stroke-width="1"/>
<line x1="294.19" y1="460.65" x2="294.19" y2="454.43" stroke="#1f77b4" stroke-width="1.3"/>
<line x1="289.19" y1="460.65" x2="299.19" y2="460.65" stroke="#1f77b4" stroke-width="1.3"/>
<line x1="289.19" y1="454.43" x2="299.19" y2="454.43" stroke="#1f77b4" stroke-width="1.3"/>
<circle cx="294.19" cy="457.54" r="4" fill="#1f77b4" stroke="#ffffff" stroke-width="1"/>
<line x1="353.35" y1="449.53" x2="353.35" y2="443.61" stroke="#1f77b4" stroke-width="1.3"/>
<line x1="348.35" y1="449.53" x2="358.35" y2="449.53" stroke="#1f77b4" stroke-width="1.3"/>
<line x1="348.35" y1="443.61" x2="358.35" y2="443.61" stroke="#1f77b4" stroke-width="1.3"/>
<circle cx="353.35" cy="446.57" r="4" fill="#1f77b4" stroke="#ffffff" stroke-width="1"/>
<line x1="412.51" y1="436.45" x2="412.51" y2="426.31" stroke="#1f77b4" stroke-width="1.3"/>
<line x1="407.51" y1="436.45" x2="417.51" y2="436.45" stroke="#1f77b4" stroke-width="1.3"/>
<line x1="407.51" y1="426.31" x2="417.51" y2="426.31" stroke="#1f77b4" stroke-width="1.3"/>
<circle cx="412.51" cy="431.38" r="4" fill="#1f77b4" stroke="#ffffff" stroke-width="1"/>
<line x1="471.68" y1="406.38" x2="471.68" y2="394.39" stroke="#1f77b4" stroke-width="1.3"/>
<line x1="466.68" y1="406.38" x2="476.68" y2="406.38" stroke="#1f77b4" stroke-width="1.3"/>
<line x1="466.68" y1="394.39" x2="476.68" y2="394.39" stroke="#1f77b4" stroke-width="1.3"/>
<circle cx="471.68" cy="400.38" r="4" fill="#1f77b4" stroke="#ffffff" stroke-width="1"/>
<line x1="530.84" y1="385.68" x2="530.84" y2="285.58" stroke="#1f77b4" stroke-width="1.3"/>
<line x1="525.84" y1="385.68" x2="535.84" y2="385.68" stroke="#1f77b4" stroke-width="1.3"/>
<line x1="525.84" y1="285.58" x2="535.84" y2="285.58" stroke="#1f77b4" stroke-width="1.3"/>
<circle cx="530.84" cy="335.63" r="4" fill="#1f77b4" stroke="#ffffff" stroke-width="1"/>
<line x1="590.00" y1="325.31" x2="590.00" y2="321.68" stroke="#1f77b4" stroke-width="1.3"/>
<line x1="585.00" y1="325.31" x2="595.00" y2="325.31" stroke="#1f77b4" stroke-width="1.3"/>
<line x1="585.00" y1="321.68" x2="595.00" y2="321.68" stroke="#1f77b4" stroke-width="1.3"/>
<circle cx="590.00" cy="323.49" r="4" fill="#1f77b4" stroke="#ffffff" stroke-width="1"/>
<line x1="649.16" y1="313.42" x2="649.16" y2="215.97" stroke="#1f77b4" stroke-width="1.3"/>
<line x1="644.16" y1="313.42" x2="654.16" y2="313.42" stroke="#1f77b4" stroke-width="1.3"/>
<line x1="644.16" y1="215.97" x2="654.16" y2="215.97" stroke="#1f77b4" stroke-width="1.3"/>
<circle cx="649.16" cy="264.69" r="4" fill="#1f77b4" stroke="#ffffff" stroke-width="1"/>
<line x1="708.32" y1="329.34" x2="708.32" y2="219.99" stroke="#1f77b4" stroke-width="1.3"/>
<line x1="703.32" y1="329.34" x2="713.32" y2="329.34" stroke="#1f77b4" stroke-width="1.3"/>
<line x1="703.32" y1="219.99" x2="713.32" y2="219.99" stroke="#1f77b4" stroke-width="1.3"/>
<circle cx="708.32" cy="274.66" r="4" fill="#1f77b4" stroke="#ffffff" stroke-width="1"/>
<line x1="767.49" y1="310.06" x2="767.49" y2="215.39" stroke="#1f77b4" stroke-width="1.3"/>
<line x1="762.49" y1="310.06" x2="772.49" y2="310.06" stroke="#1f77b4" stroke-width="1.3"/>
<line x1="762.49" y1="215.39" x2="772.49" y2="215.39" stroke="#1f77b4" stroke-width="1.3"/>
<circle cx="767.49" cy="262.72" r="4" fill="#1f77b4" stroke="#ffffff" stroke-width="1"/>
<line x1="826.65" y1="280.18" x2="826.65" y2="192.31" stroke="#1f77b4" stroke-width="1.3"/>
<line x1="821.65" y1="280.18" x2="831.65" y2="280.18" stroke="#1f77b4" stroke-width="1.3"/>
<line x1="821.65" y1="192.31" x2="831.65" y2="192.31" stroke="#1f77b4" stroke-width="1.3"/>
<circle cx="826.65" cy="236.25" r="4" fill="#1f77b4" stroke="#ffffff" stroke-width="1"/>
<line x1="885.81" y1="255.51" x2="885.81" y2="236.28" stroke="#1f77b4" stroke-width="1.3"/>
<line x1="880.81" y1="255.51" x2="890.81" y2="255.51" stroke="#1f77b4" stroke-width="1.3"/>
<line x1="880.81" y1="236.28" x2="890.81" y2="236.28" stroke="#1f77b4" stroke-width="1.3"/>
<circle cx="885.81" cy="245.89" r="4" fill="#1f77b4" stroke="#ffffff" stroke-width="1"/>
<line x1="944.97" y1="264.46" x2="944.97" y2="173.63" stroke="#1f77b4" stroke-width="1.3"/>
<line x1="939.97" y1="264.46" x2="949.97" y2="264.46" stroke="#1f77b4" stroke-width="1.3"/>
<line x1="939.97" y1="173.63" x2="949.97" y2="173.63" stroke="#1f77b4" stroke-width="1.3"/>
<circle cx="944.97" cy="219.05" r="4" fill="#1f77b4" stroke="#ffffff" stroke-width="1"/>
<line x1="1004.13" y1="245.46" x2="1004.13" y2="175.92" stroke="#1f77b4" stroke-width="1.3"/>
<line x1="999.13" y1="245.46" x2="1009.13" y2="245.46" stroke="#1f77b4" stroke-width="1.3"/>
<line x1="999.13" y1="175.92" x2="1009.13" y2="175.92" stroke="#1f77b4" stroke-width="1.3"/>
<circle cx="1004.13" cy="210.69" r="4" fill="#1f77b4" stroke="#ffffff" stroke-width="1"/>
<line x1="1063.29" y1="236.03" x2="1063.29" y2="147.63" stroke="#1f77b4" stroke-width="1.3"/>
<line x1="1058.29" y1="236.03" x2="1068.29" y2="236.03" stroke="#1f77b4" stroke-width="1.3"/>
<line x1="1058.29" y1="147.63" x2="1068.29" y2="147.63" stroke="#1f77b4" stroke-width="1.3"/>
<circle cx="1063.29" cy="191.83" r="4" fill="#1f77b4" stroke="#ffffff" stroke-width="1"/>
</svg>
