<svg xmlns="http://www.w3.org/2000/svg" width="1120" height="760" viewBox="0 0 1120 760">
<rect width="100%" height="100%" fill="#fbfbf8"/>
<text x="560.0" y="34" text-anchor="middle" font-family="sans-serif" font-size="24" fill="#222">Goodput bidireccional vs. payload</text>
<rect x="96" y="106" width="988" height="562" fill="#ffffff" stroke="#c9c9c1"/>
<line x1="96" y1="106.00" x2="1084" y2="106.00" stroke="#a9aba3" stroke-width="1.35"/>
<text x="86" y="110.00" text-anchor="end" font-family="sans-serif" font-size="13" font-weight="400" fill="#292925">10.3K</text>
<line x1="96" y1="199.67" x2="1084" y2="199.67" stroke="#a9aba3" stroke-width="1.35"/>
<text x="86" y="203.67" text-anchor="end" font-family="sans-serif" font-size="13" font-weight="400" fill="#292925">8.61K</text>
<line x1="96" y1="293.33" x2="1084" y2="293.33" stroke="#a9aba3" stroke-width="1.35"/>
<text x="86" y="297.33" text-anchor="end" font-family="sans-serif" font-size="13" font-weight="400" fill="#292925">6.89K</text>
<line x1="96" y1="387.00" x2="1084" y2="387.00" stroke="#a9aba3" stroke-width="1.35"/>
<text x="86" y="391.00" text-anchor="end" font-family="sans-serif" font-size="13" font-weight="400" fill="#292925">5.17K</text>
<line x1="96" y1="480.67" x2="1084" y2="480.67" stroke="#a9aba3" stroke-width="1.35"/>
<text x="86" y="484.67" text-anchor="end" font-family="sans-serif" font-size="13" font-weight="400" fill="#292925">3.45K</text>
<line x1="96" y1="574.33" x2="1084" y2="574.33" stroke="#a9aba3" stroke-width="1.35"/>
<text x="86" y="578.33" text-anchor="end" font-family="sans-serif" font-size="13" font-weight="400" fill="#292925">1.72K</text>
<line x1="96" y1="668.00" x2="1084" y2="668.00" stroke="#4f504b" stroke-width="2.2"/>
<text x="86" y="672.00" text-anchor="end" font-family="sans-serif" font-size="13" font-weight="600" fill="#292925">0</text>
<line x1="113.55" y1="106" x2="113.55" y2="668" stroke="#b4b6ae" stroke-width="1.25"/>
<text transform="translate(113.55 688) rotate(-45)" text-anchor="end" font-family="sans-serif" font-size="11" font-weight="500" fill="#292925">256</text>
<line x1="163.71" y1="106" x2="163.71" y2="668" stroke="#b4b6ae" stroke-width="1.25"/>
<text transform="translate(163.71 688) rotate(-45)" text-anchor="end" font-family="sans-serif" font-size="11" font-weight="500" fill="#292925">320</text>
<line x1="213.86" y1="106" x2="213.86" y2="668" stroke="#b4b6ae" stroke-width="1.25"/>
<text transform="translate(213.86 688) rotate(-45)" text-anchor="end" font-family="sans-serif" font-size="11" font-weight="500" fill="#292925">384</text>
<line x1="264.01" y1="106" x2="264.01" y2="668" stroke="#b4b6ae" stroke-width="1.25"/>
<text transform="translate(264.01 688) rotate(-45)" text-anchor="end" font-family="sans-serif" font-size="11" font-weight="500" fill="#292925">448</text>
<line x1="314.16" y1="106" x2="314.16" y2="668" stroke="#b4b6ae" stroke-width="1.25"/>
<text transform="translate(314.16 688) rotate(-45)" text-anchor="end" font-family="sans-serif" font-size="11" font-weight="500" fill="#292925">512</text>
<line x1="364.31" y1="106" x2="364.31" y2="668" stroke="#b4b6ae" stroke-width="1.25"/>
<text transform="translate(364.31 688) rotate(-45)" text-anchor="end" font-family="sans-serif" font-size="11" font-weight="500" fill="#292925">576</text>
<line x1="414.47" y1="106" x2="414.47" y2="668" stroke="#b4b6ae" stroke-width="1.25"/>
<text transform="translate(414.47 688) rotate(-45)" text-anchor="end" font-family="sans-serif" font-size="11" font-weight="500" fill="#292925">640</text>
<line x1="464.62" y1="106" x2="464.62" y2="668" stroke="#b4b6ae" stroke-width="1.25"/>
<text transform="translate(464.62 688) rotate(-45)" text-anchor="end" font-family="sans-serif" font-size="11" font-weight="500" fill="#292925">704</text>
<line x1="514.77" y1="106" x2="514.77" y2="668" stroke="#b4b6ae" stroke-width="1.25"/>
<text transform="translate(514.77 688) rotate(-45)" text-anchor="end" font-family="sans-serif" font-size="11" font-weight="500" fill="#292925">768</text>
<line x1="564.92" y1="106" x2="564.92" y2="668" stroke="#b4b6ae" stroke-width="1.25"/>
<text transform="translate(564.92 688) rotate(-45)" text-anchor="end" font-family="sans-serif" font-size="11" font-weight="500" fill="#292925">832</text>
<line x1="615.08" y1="106" x2="615.08" y2="668" stroke="#b4b6ae" stroke-width="1.25"/>
<text transform="translate(615.08 688) rotate(-45)" text-anchor="end" font-family="sans-serif" font-size="11" font-weight="500" fill="#292925">896</text>
<line x1="665.23" y1="106" x2="665.23" y2="668" stroke="#b4b6ae" stroke-width="1.25"/>
<text transform="translate(665.23 688) rotate(-45)" text-anchor="end" font-family="sans-serif" font-size="11" font-weight="500" fill="#292925">960</text>
<line x1="715.38" y1="106" x2="715.38" y2="668" stroke="#b4b6ae" stroke-width="1.25"/>
<text transform="translate(715.38 688) rotate(-45)" text-anchor="end" font-family="sans-serif" font-size="11" font-weight="500" fill="#292925">1024</text>
<line x1="765.53" y1="106" x2="765.53" y2="668" stroke="#b4b6ae" stroke-width="1.25"/>
<text transform="translate(765.53 688) rotate(-45)" text-anchor="end" font-family="sans-serif" font-size="11" font-weight="500" fill="#292925">1088</text>
<line x1="815.69" y1="106" x2="815.69" y2="668" stroke="#b4b6ae" stroke-width="1.25"/>
<text transform="translate(815.69 688) rotate(-45)" text-anchor="end" font-family="sans-serif" font-size="11" font-weight="500" fill="#292925">1152</text>
<line x1="865.84" y1="106" x2="865.84" y2="668" stroke="#b4b6ae" stroke-width="1.25"/>
<text transform="translate(865.84 688) rotate(-45)" text-anchor="end" font-family="sans-serif" font-size="11" font-weight="500" fill="#292925">1216</text>
<line x1="915.99" y1="106" x2="915.99" y2="668" stroke="#b4b6ae" stroke-width="1.25"/>
<text transform="translate(915.99 688) rotate(-45)" text-anchor="end" font-family="sans-serif" font-size="11" font-weight="500" fill="#292925">1280</text>
<line x1="966.14" y1="106" x2="966.14" y2="668" stroke="#b4b6ae" stroke-width="1.25"/>
<text transform="translate(966.14 688) rotate(-45)" text-anchor="end" font-family="sans-serif" font-size="11" font-weight="500" fill="#292925">1344</text>
<line x1="1016.29" y1="106" x2="1016.29" y2="668" stroke="#b4b6ae" stroke-width="1.25"/>
<text transform="translate(1016.29 688) rotate(-45)" text-anchor="end" font-family="sans-serif" font-size="11" font-weight="500" fill="#292925">1408</text>
<line x1="1066.45" y1="106" x2="1066.45" y2="668" stroke="#b4b6ae" stroke-width="1.25"/>
<text transform="translate(1066.45 688) rotate(-45)" text-anchor="end" font-family="sans-serif" font-size="11" font-weight="500" fill="#292925">1472</text>
<text x="590.0" y="736" text-anchor="middle" font-family="sans-serif" font-size="17" font-weight="600" fill="#171715">Tamaño del payload (bytes)</text>
<text transform="translate(24 387.0) rotate(-90)" text-anchor="middle" font-family="sans-serif" font-size="17" font-weight="600" fill="#171715">Goodput de payload (Mbps)</text>
<line x1="96.0" y1="64" x2="122.0" y2="64" stroke="#2ca02c" stroke-width="3"/>
<text x="130.0" y="68" font-family="sans-serif" font-size="13" fill="#222">NIC a Corundum</text>
<line x1="425.3333333333333" y1="64" x2="451.3333333333333" y2="64" stroke="#ff7f0e" stroke-width="3" stroke-dasharray="8 6"/>
<text x="459.3333333333333" y="68" font-family="sans-serif" font-size="13" fill="#222">Corundum a NIC</text>
<line x1="754.6666666666666" y1="64" x2="780.6666666666666" y2="64" stroke="#111111" stroke-width="3" stroke-dasharray="8 6"/>
<text x="788.6666666666666" y="68" font-family="sans-serif" font-size="13" fill="#222">Límite teórico 10GbE</text>
<polyline points="113.55,411.98 163.71,377.59 213.86,327.80 264.01,253.37 314.16,238.08 364.31,208.43 414.47,199.78 464.62,213.47 514.77,192.37 564.92,189.46 615.08,186.93 665.23,184.72 715.38,182.77 765.53,181.04 815.69,179.49 865.84,178.09 915.99,176.82 966.14,175.67 1016.29,174.63 1066.45,173.66" fill="none" stroke="#2ca02c" stroke-width="2.5"/>
<line x1="113.55" y1="424.14" x2="113.55" y2="399.82" stroke="#2ca02c" stroke-width="1.3"/>
<line x1="108.55" y1="424.14" x2="118.55" y2="424.14" stroke="#2ca02c" stroke-width="1.3"/>
<line x1="108.55" y1="399.82" x2="118.55" y2="399.82" stroke="#2ca02c" stroke-width="1.3"/>
<circle cx="113.55" cy="411.98" r="4" fill="#2ca02c" stroke="#ffffff" stroke-width="1"/>
<line x1="163.71" y1="401.69" x2="163.71" y2="353.49" stroke="#2ca02c" stroke-width="1.3"/>
<line x1="158.71" y1="401.69" x2="168.71" y2="401.69" stroke="#2ca02c" stroke-width="1.3"/>
<line x1="158.71" y1="353.49" x2="168.71" y2="353.49" stroke="#2ca02c" stroke-width="1.3"/>
<circle cx="163.71" cy="377.59" r="4" fill="#2ca02c" stroke="#ffffff" stroke-width="1"/>
<line x1="213.86" y1="386.23" x2="213.86" y2="269.36" stroke="#2ca02c" stroke-width="1.3"/>
<line x1="208.86" y1="386.23" x2="218.86" y2="386.23" stroke="#2ca02c" stroke-width="1.3"/>
<line x1="208.86" y1="269.36" x2="218.86" y2="269.36" stroke="#2ca02c" stroke-width="1.3"/>
<circle cx="213.86" cy="327.80" r="4" fill="#2ca02c" stroke="#ffffff" stroke-width="1"/>
<line x1="264.01" y1="266.64" x2="264.01" y2="240.10" stroke="#2ca02c" stroke-width="1.3"/>
<line x1="259.01" y1="266.64" x2="269.01" y2="266.64" stroke="#2ca02c" stroke-width="1.3"/>
<line x1="259.01" y1="240.10" x2="269.01" y2="240.10" stroke="#2ca02c" stroke-width="1.3"/>
<circle cx="264.01" cy="253.37" r="4" fill="#2ca02c" stroke="#ffffff" stroke-width="1"/>
<line x1="314.16" y1="256.32" x2="314.16" y2="219.84" stroke="#2ca02c" stroke-width="1.3"/>
<line x1="309.16" y1="256.32" x2="319.16" y2="256.32" stroke="#2ca02c" stroke-width="1.3"/>
<line x1="309.16" y1="219.84" x2="319.16" y2="219.84" stroke="#2ca02c" stroke-width="1.3"/>
<circle cx="314.16" cy="238.08" r="4" fill="#2ca02c" stroke="#ffffff" stroke-width="1"/>
<line x1="364.31" y1="214.49" x2="364.31" y2="202.37" stroke="#2ca02c" stroke-width="1.3"/>
<line x1="359.31" y1="214.49" x2="369.31" y2="214.49" stroke="#2ca02c" stroke-width="1.3"/>
<line x1="359.31" y1="202.37" x2="369.31" y2="202.37" stroke="#2ca02c" stroke-width="1.3"/>
<circle cx="364.31" cy="208.43" r="4" fill="#2ca02c" stroke="#ffffff" stroke-width="1"/>
<line x1="414.47" y1="199.78" x2="414.47" y2="199.78" stroke="#2ca02c" stroke-width="1.3"/>
<line x1="409.47" y1="199.78" x2="419.47" y2="199.78" stroke="#2ca02c" stroke-width="1.3"/>
<line x1="409.47" y1="199.78" x2="419.47" y2="199.78" stroke="#2ca02c" stroke-width="1.3"/>
<circle cx="414.47" cy="199.78" r="4" fill="#2ca02c" stroke="#ffffff" stroke-width="1"/>
<line x1="464.62" y1="244.12" x2="464.62" y2="182.82" stroke="#2ca02c" stroke-width="1.3"/>
<line x1="459.62" y1="244.12" x2="469.62" y2="244.12" stroke="#2ca02c" stroke-width="1.3"/>
<line x1="459.62" y1="182.82" x2="469.62" y2="182.82" stroke="#2ca02c" stroke-width="1.3"/>
<circle cx="464.62" cy="213.47" r="4" fill="#2ca02c" stroke="#ffffff" stroke-width="1"/>
<line x1="514.77" y1="192.37" x2="514.77" y2="192.37" stroke="#2ca02c" stroke-width="1.3"/>
<line x1="509.77" y1="192.37" x2="519.77" y2="192.37" stroke="#2ca02c" stroke-width="1.3"/>
<line x1="509.77" y1="192.37" x2="519.77" y2="192.37" stroke="#2ca02c" stroke-width="1.3"/>
<circle cx="514.77" cy="192.37" r="4" fill="#2ca02c" stroke="#ffffff" stroke-width="1"/>
<line x1="564.92" y1="189.46" x2="564.92" y2="189.45" stroke="#2ca02c" stroke-width="1.3"/>
<line x1="559.92" y1="189.46" x2="569.92" y2="189.46" stroke="#2ca02c" stroke-width="1.3"/>
<line x1="559.92" y1="189.45" x2="569.92" y2="189.45" stroke="#2ca02c" stroke-width="1.3"/>
<circle cx="564.92" cy="189.46" r="4" fill="#2ca02c" stroke="#ffffff" stroke-width="1"/>
<line x1="615.08" y1="186.94" x2="615.08" y2="186.93" stroke="#2ca02c" stroke-width="1.3"/>
<line x1="610.08" y1="186.94" x2="620.08" y2="186.94" stroke="#2ca02c" stroke-width="1.3"/>
<line x1="610.08" y1="186.93" x2="620.08" y2="186.93" stroke="#2ca02c" stroke-width="1.3"/>
<circle cx="615.08" cy="186.93" r="4" fill="#2ca02c" stroke="#ffffff" stroke-width="1"/>
<line x1="665.23" y1="184.73" x2="665.23" y2="184.72" stroke="#2ca02c" stroke-width="1.3"/>
<line x1="660.23" y1="184.73" x2="670.23" y2="184.73" stroke="#2ca02c" stroke-width="1.3"/>
<line x1="660.23" y1="184.72" x2="670.23" y2="184.72" stroke="#2ca02c" stroke-width="1.3"/>
<circle cx="665.23" cy="184.72" r="4" fill="#2ca02c" stroke="#ffffff" stroke-width="1"/>
<line x1="715.38" y1="182.78" x2="715.38" y2="182.77" stroke="#2ca02c" stroke-width="1.3"/>
<line x1="710.38" y1="182.78" x2="720.38" y2="182.78" stroke="#2ca02c" stroke-width="1.3"/>
<line x1="710.38" y1="182.77" x2="720.38" y2="182.77" stroke="#2ca02c" stroke-width="1.3"/>
<circle cx="715.38" cy="182.77" r="4" fill="#2ca02c" stroke="#ffffff" stroke-width="1"/>
<line x1="765.53" y1="181.04" x2="765.53" y2="181.04" stroke="#2ca02c" stroke-width="1.3"/>
<line x1="760.53" y1="181.04" x2="770.53" y2="181.04" stroke="#2ca02c" stroke-width="1.3"/>
<line x1="760.53" y1="181.04" x2="770.53" y2="181.04" stroke="#2ca02c" stroke-width="1.3"/>
<circle cx="765.53" cy="181.04" r="4" fill="#2ca02c" stroke="#ffffff" stroke-width="1"/>
<line x1="815.69" y1="179.49" x2="815.69" y2="179.48" stroke="#2ca02c" stroke-width="1.3"/>
<line x1="810.69" y1="179.49" x2="820.69" y2="179.49" stroke="#2ca02c" stroke-width="1.3"/>
<line x1="810.69" y1="179.48" x2="820.69" y2="179.48" stroke="#2ca02c" stroke-width="1.3"/>
<circle cx="815.69" cy="179.49" r="4" fill="#2ca02c" stroke="#ffffff" stroke-width="1"/>
<line x1="865.84" y1="178.09" x2="865.84" y2="178.08" stroke="#2ca02c" stroke-width="1.3"/>
<line x1="860.84" y1="178.09" x2="870.84" y2="178.09" stroke="#2ca02c" stroke-width="1.3"/>
<line x1="860.84" y1="178.08" x2="870.84" y2="178.08" stroke="#2ca02c" stroke-width="1.3"/>
<circle cx="865.84" cy="178.09" r="4" fill="#2ca02c" stroke="#ffffff" stroke-width="1"/>
<line x1="915.99" y1="176.83" x2="915.99" y2="176.82" stroke="#2ca02c" stroke-width="1.3"/>
<line x1="910.99" y1="176.83" x2="920.99" y2="176.83" stroke="#2ca02c" stroke-width="1.3"/>
<line x1="910.99" y1="176.82" x2="920.99" y2="176.82" stroke="#2ca02c" stroke-width="1.3"/>
<circle cx="915.99" cy="176.82" r="4" fill="#2ca02c" stroke="#ffffff" stroke-width="1"/>
<line x1="966.14" y1="175.68" x2="966.14" y2="175.67" stroke="#2ca02c" stroke-width="1.3"/>
<line x1="961.14" y1="175.68" x2="971.14" y2="175.68" stroke="#2ca02c" stroke-width="1.3"/>
<line x1="961.14" y1="175.67" x2="971.14" y2="175.67" stroke="#2ca02c" stroke-width="1.3"/>
<circle cx="966.14" cy="175.67" r="4" fill="#2ca02c" stroke="#ffffff" stroke-width="1"/>
<line x1="1016.29" y1="174.63" x2="1016.29" y2="174.63" stroke="#2ca02c" stroke-width="1.3"/>
<line x1="1011.29" y1="174.63" x2="1021.29" y2="174.63" stroke="#2ca02c" stroke-width="1.3"/>
<line x1="1011.29" y1="174.63" x2="1021.29" y2="174.63" stroke="#2ca02c" stroke-width="1.3"/>
<circle cx="1016.29" cy="174.63" r="4" fill="#2ca02c" stroke="#ffffff" stroke-width="1"/>
<line x1="1066.45" y1="173.66" x2="1066.45" y2="173.66" stroke="#2ca02c" stroke-width="1.3"/>
<line x1="1061.45" y1="173.66" x2="1071.45" y2="173.66" stroke="#2ca02c" stroke-width="1.3"/>
<line x1="1061.45" y1="173.66" x2="1071.45" y2="173.66" stroke="#2ca02c" stroke-width="1.3"/>
<circle cx="1066.45" cy="173.66" r="4" fill="#2ca02c" stroke="#ffffff" stroke-width="1"/>
<polyline points="113.55,478.57 163.71,408.24 213.86,351.35 264.01,307.68 314.16,257.22 364.31,210.08 414.47,199.78 464.62,195.76 514.77,192.37 564.92,189.46 615.08,186.93 665.23,184.72 715.38,182.77 765.53,181.04 815.69,179.48 865.84,178.09 915.99,176.82 966.14,175.67 1016.29,174.62 1066.45,173.66" fill="none" stroke="#ff7f0e" stroke-width="2.5" stroke-dasharray="8 6"/>
<line x1="113.55" y1="494.47" x2="113.55" y2="462.67" stroke="#ff7f0e" stroke-width="1.3"/>
<line x1="108.55" y1="494.47" x2="118.55" y2="494.47" stroke="#ff7f0e" stroke-width="1.3"/>
<line x1="108.55" y1="462.67" x2="118.55" y2="462.67" stroke="#ff7f0e" stroke-width="1.3"/>
<circle cx="113.55" cy="478.57" r="4" fill="#ff7f0e" stroke="#ffffff" stroke-width="1"/>
<line x1="163.71" y1="414.86" x2="163.71" y2="401.61" stroke="#ff7f0e" stroke-width="1.3"/>
<line x1="158.71" y1="414.86" x2="168.71" y2="414.86" stroke="#ff7f0e" stroke-width="1.3"/>
<line x1="158.71" y1="401.61" x2="168.71" y2="401.61" stroke="#ff7f0e" stroke-width="1.3"/>
<circle cx="163.71" cy="408.24" r="4" fill="#ff7f0e" stroke="#ffffff" stroke-width="1"/>
<line x1="213.86" y1="362.11" x2="213.86" y2="340.59" stroke="#ff7f0e" stroke-width="1.3"/>
<line x1="208.86" y1="362.11" x2="218.86" y2="362.11" stroke="#ff7f0e" stroke-width="1.3"/>
<line x1="208.86" y1="340.59" x2="218.86" y2="340.59" stroke="#ff7f0e" stroke-width="1.3"/>
<circle cx="213.86" cy="351.35" r="4" fill="#ff7f0e" stroke="#ffffff" stroke-width="1"/>
<line x1="264.01" y1="343.92" x2="264.01" y2="271.44" stroke="#ff7f0e" stroke-width="1.3"/>
<line x1="259.01" y1="343.92" x2="269.01" y2="343.92" stroke="#ff7f0e" stroke-width="1.3"/>
<line x1="259.01" y1="271.44" x2="269.01" y2="271.44" stroke="#ff7f0e" stroke-width="1.3"/>
<circle cx="264.01" cy="307.68" r="4" fill="#ff7f0e" stroke="#ffffff" stroke-width="1"/>
<line x1="314.16" y1="261.83" x2="314.16" y2="252.61" stroke="#ff7f0e" stroke-width="1.3"/>
<line x1="309.16" y1="261.83" x2="319.16" y2="261.83" stroke="#ff7f0e" stroke-width="1.3"/>
<line x1="309.16" y1="252.61" x2="319.16" y2="252.61" stroke="#ff7f0e" stroke-width="1.3"/>
<circle cx="314.16" cy="257.22" r="4" fill="#ff7f0e" stroke="#ffffff" stroke-width="1"/>
<line x1="364.31" y1="216.47" x2="364.31" y2="203.69" stroke="#ff7f0e" stroke-width="1.3"/>
<line x1="359.31" y1="216.47" x2="369.31" y2="216.47" stroke="#ff7f0e" stroke-width="1.3"/>
<line x1="359.31" y1="203.69" x2="369.31" y2="203.69" stroke="#ff7f0e" stroke-width="1.3"/>
<circle cx="364.31" cy="210.08" r="4" fill="#ff7f0e" stroke="#ffffff" stroke-width="1"/>
<line x1="414.47" y1="199.78" x2="414.47" y2="199.78" stroke="#ff7f0e" stroke-width="1.3"/>
<line x1="409.47" y1="199.78" x2="419.47" y2="199.78" stroke="#ff7f0e" stroke-width="1.3"/>
<line x1="409.47" y1="199.78" x2="419.47" y2="199.78" stroke="#ff7f0e" stroke-width="1.3"/>
<circle cx="414.47" cy="199.78" r="4" fill="#ff7f0e" stroke="#ffffff" stroke-width="1"/>
<line x1="464.62" y1="195.77" x2="464.62" y2="195.76" stroke="#ff7f0e" stroke-width="1.3"/>
<line x1="459.62" y1="195.77" x2="469.62" y2="195.77" stroke="#ff7f0e" stroke-width="1.3"/>
<line x1="459.62" y1="195.76" x2="469.62" y2="195.76" stroke="#ff7f0e" stroke-width="1.3"/>
<circle cx="464.62" cy="195.76" r="4" fill="#ff7f0e" stroke="#ffffff" stroke-width="1"/>
<line x1="514.77" y1="192.37" x2="514.77" y2="192.37" stroke="#ff7f0e" stroke-width="1.3"/>
<line x1="509.77" y1="192.37" x2="519.77" y2="192.37" stroke="#ff7f0e" stroke-width="1.3"/>
<line x1="509.77" y1="192.37" x2="519.77" y2="192.37" stroke="#ff7f0e" stroke-width="1.3"/>
<circle cx="514.77" cy="192.37" r="4" fill="#ff7f0e" stroke="#ffffff" stroke-width="1"/>
<line x1="564.92" y1="189.46" x2="564.92" y2="189.46" stroke="#ff7f0e" stroke-width="1.3"/>
<line x1="559.92" y1="189.46" x2="569.92" y2="189.46" stroke="#ff7f0e" stroke-width="1.3"/>
<line x1="559.92" y1="189.46" x2="569.92" y2="189.46" stroke="#ff7f0e" stroke-width="1.3"/>
<circle cx="564.92" cy="189.46" r="4" fill="#ff7f0e" stroke="#ffffff" stroke-width="1"/>
<line x1="615.08" y1="186.93" x2="615.08" y2="186.93" stroke="#ff7f0e" stroke-width="1.3"/>
<line x1="610.08" y1="186.93" x2="620.08" y2="186.93" stroke="#ff7f0e" stroke-width="1.3"/>
<line x1="610.08" y1="186.93" x2="620.08" y2="186.93" stroke="#ff7f0e" stroke-width="1.3"/>
<circle cx="615.08" cy="186.93" r="4" fill="#ff7f0e" stroke="#ffffff" stroke-width="1"/>
<line x1="665.23" y1="184.72" x2="665.23" y2="184.71" stroke="#ff7f0e" stroke-width="1.3"/>
<line x1="660.23" y1="184.72" x2="670.23" y2="184.72" stroke="#ff7f0e" stroke-width="1.3"/>
<line x1="660.23" y1="184.71" x2="670.23" y2="184.71" stroke="#ff7f0e" stroke-width="1.3"/>
<circle cx="665.23" cy="184.72" r="4" fill="#ff7f0e" stroke="#ffffff" stroke-width="1"/>
<line x1="715.38" y1="182.77" x2="715.38" y2="182.77" stroke="#ff7f0e" stroke-width="1.3"/>
<line x1="710.38" y1="182.77" x2="720.38" y2="182.77" stroke="#ff7f0e" stroke-width="1.3"/>
<line x1="710.38" y1="182.77" x2="720.38" y2="182.77" stroke="#ff7f0e" stroke-width="1.3"/>
<circle cx="715.38" cy="182.77" r="4" fill="#ff7f0e" stroke="#ffffff" stroke-width="1"/>
<line x1="765.53" y1="181.04" x2="765.53" y2="181.03" stroke="#ff7f0e" stroke-width="1.3"/>
<line x1="760.53" y1="181.04" x2="770.53" y2="181.04" stroke="#ff7f0e" stroke-width="1.3"/>
<line x1="760.53" y1="181.03" x2="770.53" y2="181.03" stroke="#ff7f0e" stroke-width="1.3"/>
<circle cx="765.53" cy="181.04" r="4" fill="#ff7f0e" stroke="#ffffff" stroke-width="1"/>
<line x1="815.69" y1="179.48" x2="815.69" y2="179.48" stroke="#ff7f0e" stroke-width="1.3"/>
<line x1="810.69" y1="179.48" x2="820.69" y2="179.48" stroke="#ff7f0e" stroke-width="1.3"/>
<line x1="810.69" y1="179.48" x2="820.69" y2="179.48" stroke="#ff7f0e" stroke-width="1.3"/>
<circle cx="815.69" cy="179.48" r="4" fill="#ff7f0e" stroke="#ffffff" stroke-width="1"/>
<line x1="865.84" y1="178.09" x2="865.84" y2="178.08" stroke="#ff7f0e" stroke-width="1.3"/>
<line x1="860.84" y1="178.09" x2="870.84" y2="178.09" stroke="#ff7f0e" stroke-width="1.3"/>
<line x1="860.84" y1="178.08" x2="870.84" y2="178.08" stroke="#ff7f0e" stroke-width="1.3"/>
<circle cx="865.84" cy="178.09" r="4" fill="#ff7f0e" stroke="#ffffff" stroke-width="1"/>
<line x1="915.99" y1="176.82" x2="915.99" y2="176.82" stroke="#ff7f0e" stroke-width="1.3"/>
<line x1="910.99" y1="176.82" x2="920.99" y2="176.82" stroke="#ff7f0e" stroke-width="1.3"/>
<line x1="910.99" y1="176.82" x2="920.99" y2="176.82" stroke="#ff7f0e" stroke-width="1.3"/>
<circle cx="915.99" cy="176.82" r="4" fill="#ff7f0e" stroke="#ffffff" stroke-width="1"/>
<line x1="966.14" y1="175.68" x2="966.14" y2="175.67" stroke="#ff7f0e" stroke-width="1.3"/>
<line x1="961.14" y1="175.68" x2="971.14" y2="175.68" stroke="#ff7f0e" stroke-width="1.3"/>
<line x1="961.14" y1="175.67" x2="971.14" y2="175.67" stroke="#ff7f0e" stroke-width="1.3"/>
<circle cx="966.14" cy="175.67" r="4" fill="#ff7f0e" stroke="#ffffff" stroke-width="1"/>
<line x1="1016.29" y1="174.62" x2="1016.29" y2="174.62" stroke="#ff7f0e" stroke-width="1.3"/>
<line x1="1011.29" y1="174.62" x2="1021.29" y2="174.62" stroke="#ff7f0e" stroke-width="1.3"/>
<line x1="1011.29" y1="174.62" x2="1021.29" y2="174.62" stroke="#ff7f0e" stroke-width="1.3"/>
<circle cx="1016.29" cy="174.62" r="4" fill="#ff7f0e" stroke="#ffffff" stroke-width="1"/>
<line x1="1066.45" y1="173.66" x2="1066.45" y2="173.65" stroke="#ff7f0e" stroke-width="1.3"/>
<line x1="1061.45" y1="173.66" x2="1071.45" y2="173.66" stroke="#ff7f0e" stroke-width="1.3"/>
<line x1="1061.45" y1="173.65" x2="1071.45" y2="173.65" stroke="#ff7f0e" stroke-width="1.3"/>
<circle cx="1066.45" cy="173.66" r="4" fill="#ff7f0e" stroke="#ffffff" stroke-width="1"/>
<polyline points="113.55,235.74 163.71,217.26 213.86,204.04 264.01,194.11 314.16,186.38 364.31,180.19 414.47,175.13 464.62,170.90 514.77,167.32 564.92,164.26 615.08,161.60 665.23,159.27 715.38,157.22 765.53,155.39 815.69,153.76 865.84,152.29 915.99,150.96 966.14,149.75 1016.29,148.64 1066.45,147.63" fill="none" stroke="#111111" stroke-width="2.5" stroke-dasharray="8 6"/>
<circle cx="113.55" cy="235.74" r="4" fill="#111111" stroke="#ffffff" stroke-width="1"/>
<circle cx="163.71" cy="217.26" r="4" fill="#111111" stroke="#ffffff" stroke-width="1"/>
<circle cx="213.86" cy="204.04" r="4" fill="#111111" stroke="#ffffff" stroke-width="1"/>
<circle cx="264.01" cy="194.11" r="4" fill="#111111" stroke="#ffffff" stroke-width="1"/>
<circle cx="314.16" cy="186.38" r="4" fill="#111111" stroke="#ffffff" stroke-width="1"/>
<circle cx="364.31" cy="180.19" r="4" fill="#111111" stroke="#ffffff" stroke-width="1"/>
<circle cx="414.47" cy="175.13" r="4" fill="#111111" stroke="#ffffff" stroke-width="1"/>
<circle cx="464.62" cy="170.90" r="4" fill="#111111" stroke="#ffffff" stroke-width="1"/>
<circle cx="514.77" cy="167.32" r="4" fill="#111111" stroke="#ffffff" stroke-width="1"/>
<circle cx="564.92" cy="164.26" r="4" fill="#111111" stroke="#ffffff" stroke-width="1"/>
<circle cx="615.08" cy="161.60" r="4" fill="#111111" stroke="#ffffff" stroke-width="1"/>
<circle cx="665.23" cy="159.27" r="4" fill="#111111" stroke="#ffffff" stroke-width="1"/>
<circle cx="715.38" cy="157.22" r="4" fill="#111111" stroke="#ffffff" stroke-width="1"/>
<circle cx="765.53" cy="155.39" r="4" fill="#111111" stroke="#ffffff" stroke-width="1"/>
<circle cx="815.69" cy="153.76" r="4" fill="#111111" stroke="#ffffff" stroke-width="1"/>
<circle cx="865.84" cy="152.29" r="4" fill="#111111" stroke="#ffffff" stroke-width="1"/>
<circle cx="915.99" cy="150.96" r="4" fill="#111111" stroke="#ffffff" stroke-width="1"/>
<circle cx="966.14" cy="149.75" r="4" fill="#111111" stroke="#ffffff" stroke-width="1"/>
<circle cx="1016.29" cy="148.64" r="4" fill="#111111" stroke="#ffffff" stroke-width="1"/>
<circle cx="1066.45" cy="147.63" r="4" fill="#111111" stroke="#ffffff" stroke-width="1"/>
</svg>
