<svg xmlns="http://www.w3.org/2000/svg" width="1120" height="760" viewBox="0 0 1120 760">
<rect width="100%" height="100%" fill="#fbfbf8"/>
<text x="560.0" y="34" text-anchor="middle" font-family="sans-serif" font-size="24" fill="#222">Pérdidas UDP bidireccionales vs. payload</text>
<rect x="96" y="106" width="988" height="562" fill="#ffffff" stroke="#c9c9c1"/>
<line x1="96" y1="106.00" x2="1084" y2="106.00" stroke="#a9aba3" stroke-width="1.35"/>
<text x="86" y="110.00" text-anchor="end" font-family="sans-serif" font-size="13" font-weight="400" fill="#292925">60.8</text>
<line x1="96" y1="199.67" x2="1084" y2="199.67" stroke="#a9aba3" stroke-width="1.35"/>
<text x="86" y="203.67" text-anchor="end" font-family="sans-serif" font-size="13" font-weight="400" fill="#292925">49.4</text>
<line x1="96" y1="293.33" x2="1084" y2="293.33" stroke="#a9aba3" stroke-width="1.35"/>
<text x="86" y="297.33" text-anchor="end" font-family="sans-serif" font-size="13" font-weight="400" fill="#292925">38</text>
<line x1="96" y1="387.00" x2="1084" y2="387.00" stroke="#a9aba3" stroke-width="1.35"/>
<text x="86" y="391.00" text-anchor="end" font-family="sans-serif" font-size="13" font-weight="400" fill="#292925">26.7</text>
<line x1="96" y1="480.67" x2="1084" y2="480.67" stroke="#a9aba3" stroke-width="1.35"/>
<text x="86" y="484.67" text-anchor="end" font-family="sans-serif" font-size="13" font-weight="400" fill="#292925">15.3</text>
<line x1="96" y1="574.33" x2="1084" y2="574.33" stroke="#a9aba3" stroke-width="1.35"/>
<text x="86" y="578.33" text-anchor="end" font-family="sans-serif" font-size="13" font-weight="400" fill="#292925">3.94</text>
<line x1="96" y1="668.00" x2="1084" y2="668.00" stroke="#a9aba3" stroke-width="1.35"/>
<text x="86" y="672.00" text-anchor="end" font-family="sans-serif" font-size="13" font-weight="400" fill="#292925">-7.43</text>
<line x1="96" y1="606.79" x2="1084" y2="606.79" stroke="#676761" stroke-width="1.8"/>
<text x="86" y="610.79" text-anchor="end" font-family="sans-serif" font-size="12" font-weight="600" fill="#222">0</text>
<line x1="113.55" y1="106" x2="113.55" y2="668" stroke="#b4b6ae" stroke-width="1.25"/>
<text transform="translate(113.55 688) rotate(-45)" text-anchor="end" font-family="sans-serif" font-size="11" font-weight="500" fill="#292925">256</text>
<line x1="163.71" y1="106" x2="163.71" y2="668" stroke="#b4b6ae" stroke-width="1.25"/>
<text transform="translate(163.71 688) rotate(-45)" text-anchor="end" font-family="sans-serif" font-size="11" font-weight="500" fill="#292925">320</text>
<line x1="213.86" y1="106" x2="213.86" y2="668" stroke="#b4b6ae" stroke-width="1.25"/>
<text transform="translate(213.86 688) rotate(-45)" text-anchor="end" font-family="sans-serif" font-size="11" font-weight="500" fill="#292925">384</text>
<line x1="264.01" y1="106" x2="264.01" y2="668" stroke="#b4b6ae" stroke-width="1.25"/>
<text transform="translate(264.01 688) rotate(-45)" text-anchor="end" font-family="sans-serif" font-size="11" font-weight="500" fill="#292925">448</text>
<line x1="314.16" y1="106" x2="314.16" y2="668" stroke="#b4b6ae" stroke-width="1.25"/>
<text transform="translate(314.16 688) rotate(-45)" text-anchor="end" font-family="sans-serif" font-size="11" font-weight="500" fill="#292925">512</text>
<line x1="364.31" y1="106" x2="364.31" y2="668" stroke="#b4b6ae" stroke-width="1.25"/>
<text transform="translate(364.31 688) rotate(-45)" text-anchor="end" font-family="sans-serif" font-size="11" font-weight="500" fill="#292925">576</text>
<line x1="414.47" y1="106" x2="414.47" y2="668" stroke="#b4b6ae" stroke-width="1.25"/>
<text transform="translate(414.47 688) rotate(-45)" text-anchor="end" font-family="sans-serif" font-size="11" font-weight="500" fill="#292925">640</text>
<line x1="464.62" y1="106" x2="464.62" y2="668" stroke="#b4b6ae" stroke-width="1.25"/>
<text transform="translate(464.62 688) rotate(-45)" text-anchor="end" font-family="sans-serif" font-size="11" font-weight="500" fill="#292925">704</text>
<line x1="514.77" y1="106" x2="514.77" y2="668" stroke="#b4b6ae" stroke-width="1.25"/>
<text transform="translate(514.77 688) rotate(-45)" text-anchor="end" font-family="sans-serif" font-size="11" font-weight="500" fill="#292925">768</text>
<line x1="564.92" y1="106" x2="564.92" y2="668" stroke="#b4b6ae" stroke-width="1.25"/>
<text transform="translate(564.92 688) rotate(-45)" text-anchor="end" font-family="sans-serif" font-size="11" font-weight="500" fill="#292925">832</text>
<line x1="615.08" y1="106" x2="615.08" y2="668" stroke="#b4b6ae" stroke-width="1.25"/>
<text transform="translate(615.08 688) rotate(-45)" text-anchor="end" font-family="sans-serif" font-size="11" font-weight="500" fill="#292925">896</text>
<line x1="665.23" y1="106" x2="665.23" y2="668" stroke="#b4b6ae" stroke-width="1.25"/>
<text transform="translate(665.23 688) rotate(-45)" text-anchor="end" font-family="sans-serif" font-size="11" font-weight="500" fill="#292925">960</text>
<line x1="715.38" y1="106" x2="715.38" y2="668" stroke="#b4b6ae" stroke-width="1.25"/>
<text transform="translate(715.38 688) rotate(-45)" text-anchor="end" font-family="sans-serif" font-size="11" font-weight="500" fill="#292925">1024</text>
<line x1="765.53" y1="106" x2="765.53" y2="668" stroke="#b4b6ae" stroke-width="1.25"/>
<text transform="translate(765.53 688) rotate(-45)" text-anchor="end" font-family="sans-serif" font-size="11" font-weight="500" fill="#292925">1088</text>
<line x1="815.69" y1="106" x2="815.69" y2="668" stroke="#b4b6ae" stroke-width="1.25"/>
<text transform="translate(815.69 688) rotate(-45)" text-anchor="end" font-family="sans-serif" font-size="11" font-weight="500" fill="#292925">1152</text>
<line x1="865.84" y1="106" x2="865.84" y2="668" stroke="#b4b6ae" stroke-width="1.25"/>
<text transform="translate(865.84 688) rotate(-45)" text-anchor="end" font-family="sans-serif" font-size="11" font-weight="500" fill="#292925">1216</text>
<line x1="915.99" y1="106" x2="915.99" y2="668" stroke="#b4b6ae" stroke-width="1.25"/>
<text transform="translate(915.99 688) rotate(-45)" text-anchor="end" font-family="sans-serif" font-size="11" font-weight="500" fill="#292925">1280</text>
<line x1="966.14" y1="106" x2="966.14" y2="668" stroke="#b4b6ae" stroke-width="1.25"/>
<text transform="translate(966.14 688) rotate(-45)" text-anchor="end" font-family="sans-serif" font-size="11" font-weight="500" fill="#292925">1344</text>
<line x1="1016.29" y1="106" x2="1016.29" y2="668" stroke="#b4b6ae" stroke-width="1.25"/>
<text transform="translate(1016.29 688) rotate(-45)" text-anchor="end" font-family="sans-serif" font-size="11" font-weight="500" fill="#292925">1408</text>
<line x1="1066.45" y1="106" x2="1066.45" y2="668" stroke="#b4b6ae" stroke-width="1.25"/>
<text transform="translate(1066.45 688) rotate(-45)" text-anchor="end" font-family="sans-serif" font-size="11" font-weight="500" fill="#292925">1472</text>
<text x="590.0" y="736" text-anchor="middle" font-family="sans-serif" font-size="17" font-weight="600" fill="#171715">Tamaño del payload (bytes)</text>
<text transform="translate(24 387.0) rotate(-90)" text-anchor="middle" font-family="sans-serif" font-size="17" font-weight="600" fill="#171715">Pérdida (%)</text>
<line x1="96.0" y1="64" x2="122.0" y2="64" stroke="#d62728" stroke-width="3"/>
<text x="130.0" y="68" font-family="sans-serif" font-size="13" fill="#222">NIC a Corundum</text>
<line x1="590.0" y1="64" x2="616.0" y2="64" stroke="#9467bd" stroke-width="3" stroke-dasharray="8 6"/>
<text x="624.0" y="68" font-family="sans-serif" font-size="13" fill="#222">Corundum a NIC</text>
<polyline points="113.55,357.84 163.71,365.07 213.86,445.76 264.01,553.71 314.16,549.56 364.31,600.62 414.47,606.79 464.62,576.12 514.77,606.79 564.92,606.79 615.08,606.79 665.23,606.79 715.38,606.79 765.53,606.79 815.69,606.79 865.84,606.79 915.99,606.79 966.14,606.79 1016.29,606.79 1066.45,606.79" fill="none" stroke="#d62728" stroke-width="2.5"/>
<line x1="113.55" y1="436.42" x2="113.55" y2="279.26" stroke="#d62728" stroke-width="1.3"/>
<line x1="108.55" y1="436.42" x2="118.55" y2="436.42" stroke="#d62728" stroke-width="1.3"/>
<line x1="108.55" y1="279.26" x2="118.55" y2="279.26" stroke="#d62728" stroke-width="1.3"/>
<circle cx="113.55" cy="357.84" r="4" fill="#d62728" stroke="#ffffff" stroke-width="1"/>
<line x1="163.71" y1="421.03" x2="163.71" y2="309.12" stroke="#d62728" stroke-width="1.3"/>
<line x1="158.71" y1="421.03" x2="168.71" y2="421.03" stroke="#d62728" stroke-width="1.3"/>
<line x1="158.71" y1="309.12" x2="168.71" y2="309.12" stroke="#d62728" stroke-width="1.3"/>
<circle cx="163.71" cy="365.07" r="4" fill="#d62728" stroke="#ffffff" stroke-width="1"/>
<line x1="213.86" y1="562.70" x2="213.86" y2="328.83" stroke="#d62728" stroke-width="1.3"/>
<line x1="208.86" y1="562.70" x2="218.86" y2="562.70" stroke="#d62728" stroke-width="1.3"/>
<line x1="208.86" y1="328.83" x2="218.86" y2="328.83" stroke="#d62728" stroke-width="1.3"/>
<circle cx="213.86" cy="445.76" r="4" fill="#d62728" stroke="#ffffff" stroke-width="1"/>
<line x1="264.01" y1="574.02" x2="264.01" y2="533.40" stroke="#d62728" stroke-width="1.3"/>
<line x1="259.01" y1="574.02" x2="269.01" y2="574.02" stroke="#d62728" stroke-width="1.3"/>
<line x1="259.01" y1="533.40" x2="269.01" y2="533.40" stroke="#d62728" stroke-width="1.3"/>
<circle cx="264.01" cy="553.71" r="4" fill="#d62728" stroke="#ffffff" stroke-width="1"/>
<line x1="314.16" y1="595.00" x2="314.16" y2="504.12" stroke="#d62728" stroke-width="1.3"/>
<line x1="309.16" y1="595.00" x2="319.16" y2="595.00" stroke="#d62728" stroke-width="1.3"/>
<line x1="309.16" y1="504.12" x2="319.16" y2="504.12" stroke="#d62728" stroke-width="1.3"/>
<circle cx="314.16" cy="549.56" r="4" fill="#d62728" stroke="#ffffff" stroke-width="1"/>
<line x1="364.31" y1="611.09" x2="364.31" y2="590.14" stroke="#d62728" stroke-width="1.3"/>
<line x1="359.31" y1="611.09" x2="369.31" y2="611.09" stroke="#d62728" stroke-width="1.3"/>
<line x1="359.31" y1="590.14" x2="369.31" y2="590.14" stroke="#d62728" stroke-width="1.3"/>
<circle cx="364.31" cy="600.62" r="4" fill="#d62728" stroke="#ffffff" stroke-width="1"/>
<circle cx="414.47" cy="606.79" r="4" fill="#d62728" stroke="#ffffff" stroke-width="1"/>
<line x1="464.62" y1="629.24" x2="464.62" y2="522.99" stroke="#d62728" stroke-width="1.3"/>
<line x1="459.62" y1="629.24" x2="469.62" y2="629.24" stroke="#d62728" stroke-width="1.3"/>
<line x1="459.62" y1="522.99" x2="469.62" y2="522.99" stroke="#d62728" stroke-width="1.3"/>
<circle cx="464.62" cy="576.12" r="4" fill="#d62728" stroke="#ffffff" stroke-width="1"/>
<circle cx="514.77" cy="606.79" r="4" fill="#d62728" stroke="#ffffff" stroke-width="1"/>
<circle cx="564.92" cy="606.79" r="4" fill="#d62728" stroke="#ffffff" stroke-width="1"/>
<circle cx="615.08" cy="606.79" r="4" fill="#d62728" stroke="#ffffff" stroke-width="1"/>
<circle cx="665.23" cy="606.79" r="4" fill="#d62728" stroke="#ffffff" stroke-width="1"/>
<circle cx="715.38" cy="606.79" r="4" fill="#d62728" stroke="#ffffff" stroke-width="1"/>
<circle cx="765.53" cy="606.79" r="4" fill="#d62728" stroke="#ffffff" stroke-width="1"/>
<circle cx="815.69" cy="606.79" r="4" fill="#d62728" stroke="#ffffff" stroke-width="1"/>
<circle cx="865.84" cy="606.79" r="4" fill="#d62728" stroke="#ffffff" stroke-width="1"/>
<circle cx="915.99" cy="606.79" r="4" fill="#d62728" stroke="#ffffff" stroke-width="1"/>
<circle cx="966.14" cy="606.79" r="4" fill="#d62728" stroke="#ffffff" stroke-width="1"/>
<circle cx="1016.29" cy="606.79" r="4" fill="#d62728" stroke="#ffffff" stroke-width="1"/>
<circle cx="1066.45" cy="606.79" r="4" fill="#d62728" stroke="#ffffff" stroke-width="1"/>
<polyline points="113.55,178.39 163.71,289.18 213.86,382.81 264.01,451.98 314.16,522.54 364.31,596.99 414.47,606.79 464.62,606.79 514.77,606.79 564.92,606.79 615.08,606.79 665.23,606.79 715.38,606.79 765.53,606.79 815.69,606.79 865.84,606.79 915.99,606.79 966.14,606.79 1016.29,606.79 1066.45,606.79" fill="none" stroke="#9467bd" stroke-width="2.5" stroke-dasharray="8 6"/>
<line x1="113.55" y1="212.02" x2="113.55" y2="144.76" stroke="#9467bd" stroke-width="1.3"/>
<line x1="108.55" y1="212.02" x2="118.55" y2="212.02" stroke="#9467bd" stroke-width="1.3"/>
<line x1="108.55" y1="144.76" x2="118.55" y2="144.76" stroke="#9467bd" stroke-width="1.3"/>
<circle cx="113.55" cy="178.39" r="4" fill="#9467bd" stroke="#ffffff" stroke-width="1"/>
<line x1="163.71" y1="308.79" x2="163.71" y2="269.57" stroke="#9467bd" stroke-width="1.3"/>
<line x1="158.71" y1="308.79" x2="168.71" y2="308.79" stroke="#9467bd" stroke-width="1.3"/>
<line x1="158.71" y1="269.57" x2="168.71" y2="269.57" stroke="#9467bd" stroke-width="1.3"/>
<circle cx="163.71" cy="289.18" r="4" fill="#9467bd" stroke="#ffffff" stroke-width="1"/>
<line x1="213.86" y1="414.28" x2="213.86" y2="351.35" stroke="#9467bd" stroke-width="1.3"/>
<line x1="208.86" y1="414.28" x2="218.86" y2="414.28" stroke="#9467bd" stroke-width="1.3"/>
<line x1="208.86" y1="351.35" x2="218.86" y2="351.35" stroke="#9467bd" stroke-width="1.3"/>
<circle cx="213.86" cy="382.81" r="4" fill="#9467bd" stroke="#ffffff" stroke-width="1"/>
<line x1="264.01" y1="532.68" x2="264.01" y2="371.28" stroke="#9467bd" stroke-width="1.3"/>
<line x1="259.01" y1="532.68" x2="269.01" y2="532.68" stroke="#9467bd" stroke-width="1.3"/>
<line x1="259.01" y1="371.28" x2="269.01" y2="371.28" stroke="#9467bd" stroke-width="1.3"/>
<circle cx="264.01" cy="451.98" r="4" fill="#9467bd" stroke="#ffffff" stroke-width="1"/>
<line x1="314.16" y1="530.83" x2="314.16" y2="514.25" stroke="#9467bd" stroke-width="1.3"/>
<line x1="309.16" y1="530.83" x2="319.16" y2="530.83" stroke="#9467bd" stroke-width="1.3"/>
<line x1="309.16" y1="514.25" x2="319.16" y2="514.25" stroke="#9467bd" stroke-width="1.3"/>
<circle cx="314.16" cy="522.54" r="4" fill="#9467bd" stroke="#ffffff" stroke-width="1"/>
<line x1="364.31" y1="608.30" x2="364.31" y2="585.68" stroke="#9467bd" stroke-width="1.3"/>
<line x1="359.31" y1="608.30" x2="369.31" y2="608.30" stroke="#9467bd" stroke-width="1.3"/>
<line x1="359.31" y1="585.68" x2="369.31" y2="585.68" stroke="#9467bd" stroke-width="1.3"/>
<circle cx="364.31" cy="596.99" r="4" fill="#9467bd" stroke="#ffffff" stroke-width="1"/>
<circle cx="414.47" cy="606.79" r="4" fill="#9467bd" stroke="#ffffff" stroke-width="1"/>
<circle cx="464.62" cy="606.79" r="4" fill="#9467bd" stroke="#ffffff" stroke-width="1"/>
<circle cx="514.77" cy="606.79" r="4" fill="#9467bd" stroke="#ffffff" stroke-width="1"/>
<circle cx="564.92" cy="606.79" r="4" fill="#9467bd" stroke="#ffffff" stroke-width="1"/>
<circle cx="615.08" cy="606.79" r="4" fill="#9467bd" stroke="#ffffff" stroke-width="1"/>
<circle cx="665.23" cy="606.79" r="4" fill="#9467bd" stroke="#ffffff" stroke-width="1"/>
<circle cx="715.38" cy="606.79" r="4" fill="#9467bd" stroke="#ffffff" stroke-width="1"/>
<circle cx="765.53" cy="606.79" r="4" fill="#9467bd" stroke="#ffffff" stroke-width="1"/>
<circle cx="815.69" cy="606.79" r="4" fill="#9467bd" stroke="#ffffff" stroke-width="1"/>
<circle cx="865.84" cy="606.79" r="4" fill="#9467bd" stroke="#ffffff" stroke-width="1"/>
<circle cx="915.99" cy="606.79" r="4" fill="#9467bd" stroke="#ffffff" stroke-width="1"/>
<circle cx="966.14" cy="606.79" r="4" fill="#9467bd" stroke="#ffffff" stroke-width="1"/>
<circle cx="1016.29" cy="606.79" r="4" fill="#9467bd" stroke="#ffffff" stroke-width="1"/>
<circle cx="1066.45" cy="606.79" r="4" fill="#9467bd" stroke="#ffffff" stroke-width="1"/>
</svg>
