<svg xmlns="http://www.w3.org/2000/svg" width="1120" height="760" viewBox="0 0 1120 760">
<rect width="100%" height="100%" fill="#fbfbf8"/>
<text x="560.0" y="34" text-anchor="middle" font-family="sans-serif" font-size="24" fill="#222">RTT entre interfaz y FPGA vs. payload</text>
<rect x="96" y="106" width="988" height="562" fill="#ffffff" stroke="#c9c9c1"/>
<line x1="96" y1="106.00" x2="1084" y2="106.00" stroke="#a9aba3" stroke-width="1.35"/>
<text x="86" y="110.00" text-anchor="end" font-family="sans-serif" font-size="13" font-weight="400" fill="#292925">1.54</text>
<line x1="96" y1="199.67" x2="1084" y2="199.67" stroke="#a9aba3" stroke-width="1.35"/>
<text x="86" y="203.67" text-anchor="end" font-family="sans-serif" font-size="13" font-weight="400" fill="#292925">1.28</text>
<line x1="96" y1="293.33" x2="1084" y2="293.33" stroke="#a9aba3" stroke-width="1.35"/>
<text x="86" y="297.33" text-anchor="end" font-family="sans-serif" font-size="13" font-weight="400" fill="#292925">1.03</text>
<line x1="96" y1="387.00" x2="1084" y2="387.00" stroke="#a9aba3" stroke-width="1.35"/>
<text x="86" y="391.00" text-anchor="end" font-family="sans-serif" font-size="13" font-weight="400" fill="#292925">0.7693</text>
<line x1="96" y1="480.67" x2="1084" y2="480.67" stroke="#a9aba3" stroke-width="1.35"/>
<text x="86" y="484.67" text-anchor="end" font-family="sans-serif" font-size="13" font-weight="400" fill="#292925">0.5129</text>
<line x1="96" y1="574.33" x2="1084" y2="574.33" stroke="#a9aba3" stroke-width="1.35"/>
<text x="86" y="578.33" text-anchor="end" font-family="sans-serif" font-size="13" font-weight="400" fill="#292925">0.2564</text>
<line x1="96" y1="668.00" x2="1084" y2="668.00" stroke="#4f504b" stroke-width="2.2"/>
<text x="86" y="672.00" text-anchor="end" font-family="sans-serif" font-size="13" font-weight="600" fill="#292925">0</text>
<line x1="113.55" y1="106" x2="113.55" y2="668" stroke="#b4b6ae" stroke-width="1.25"/>
<text transform="translate(113.55 688) rotate(-45)" text-anchor="end" font-family="sans-serif" font-size="11" font-weight="500" fill="#292925">256</text>
<line x1="163.71" y1="106" x2="163.71" y2="668" stroke="#b4b6ae" stroke-width="1.25"/>
<text transform="translate(163.71 688) rotate(-45)" text-anchor="end" font-family="sans-serif" font-size="11" font-weight="500" fill="#292925">320</text>
<line x1="213.86" y1="106" x2="213.86" y2="668" stroke="#b4b6ae" stroke-width="1.25"/>
<text transform="translate(213.86 688) rotate(-45)" text-anchor="end" font-family="sans-serif" font-size="11" font-weight="500" fill="#292925">384</text>
<line x1="264.01" y1="106" x2="264.01" y2="668" stroke="#b4b6ae" stroke-width="1.25"/>
<text transform="translate(264.01 688) rotate(-45)" text-anchor="end" font-family="sans-serif" font-size="11" font-weight="500" fill="#292925">448</text>
<line x1="314.16" y1="106" x2="314.16" y2="668" stroke="#b4b6ae" stroke-width="1.25"/>
<text transform="translate(314.16 688) rotate(-45)" text-anchor="end" font-family="sans-serif" font-size="11" font-weight="500" fill="#292925">512</text>
<line x1="364.31" y1="106" x2="364.31" y2="668" stroke="#b4b6ae" stroke-width="1.25"/>
<text transform="translate(364.31 688) rotate(-45)" text-anchor="end" font-family="sans-serif" font-size="11" font-weight="500" fill="#292925">576</text>
<line x1="414.47" y1="106" x2="414.47" y2="668" stroke="#b4b6ae" stroke-width="1.25"/>
<text transform="translate(414.47 688) rotate(-45)" text-anchor="end" font-family="sans-serif" font-size="11" font-weight="500" fill="#292925">640</text>
<line x1="464.62" y1="106" x2="464.62" y2="668" stroke="#b4b6ae" stroke-width="1.25"/>
<text transform="translate(464.62 688) rotate(-45)" text-anchor="end" font-family="sans-serif" font-size="11" font-weight="500" fill="#292925">704</text>
<line x1="514.77" y1="106" x2="514.77" y2="668" stroke="#b4b6ae" stroke-width="1.25"/>
<text transform="translate(514.77 688) rotate(-45)" text-anchor="end" font-family="sans-serif" font-size="11" font-weight="500" fill="#292925">768</text>
<line x1="564.92" y1="106" x2="564.92" y2="668" stroke="#b4b6ae" stroke-width="1.25"/>
<text transform="translate(564.92 688) rotate(-45)" text-anchor="end" font-family="sans-serif" font-size="11" font-weight="500" fill="#292925">832</text>
<line x1="615.08" y1="106" x2="615.08" y2="668" stroke="#b4b6ae" stroke-width="1.25"/>
<text transform="translate(615.08 688) rotate(-45)" text-anchor="end" font-family="sans-serif" font-size="11" font-weight="500" fill="#292925">896</text>
<line x1="665.23" y1="106" x2="665.23" y2="668" stroke="#b4b6ae" stroke-width="1.25"/>
<text transform="translate(665.23 688) rotate(-45)" text-anchor="end" font-family="sans-serif" font-size="11" font-weight="500" fill="#292925">960</text>
<line x1="715.38" y1="106" x2="715.38" y2="668" stroke="#b4b6ae" stroke-width="1.25"/>
<text transform="translate(715.38 688) rotate(-45)" text-anchor="end" font-family="sans-serif" font-size="11" font-weight="500" fill="#292925">1024</text>
<line x1="765.53" y1="106" x2="765.53" y2="668" stroke="#b4b6ae" stroke-width="1.25"/>
<text transform="translate(765.53 688) rotate(-45)" text-anchor="end" font-family="sans-serif" font-size="11" font-weight="500" fill="#292925">1088</text>
<line x1="815.69" y1="106" x2="815.69" y2="668" stroke="#b4b6ae" stroke-width="1.25"/>
<text transform="translate(815.69 688) rotate(-45)" text-anchor="end" font-family="sans-serif" font-size="11" font-weight="500" fill="#292925">1152</text>
<line x1="865.84" y1="106" x2="865.84" y2="668" stroke="#b4b6ae" stroke-width="1.25"/>
<text transform="translate(865.84 688) rotate(-45)" text-anchor="end" font-family="sans-serif" font-size="11" font-weight="500" fill="#292925">1216</text>
<line x1="915.99" y1="106" x2="915.99" y2="668" stroke="#b4b6ae" stroke-width="1.25"/>
<text transform="translate(915.99 688) rotate(-45)" text-anchor="end" font-family="sans-serif" font-size="11" font-weight="500" fill="#292925">1280</text>
<line x1="966.14" y1="106" x2="966.14" y2="668" stroke="#b4b6ae" stroke-width="1.25"/>
<text transform="translate(966.14 688) rotate(-45)" text-anchor="end" font-family="sans-serif" font-size="11" font-weight="500" fill="#292925">1344</text>
<line x1="1016.29" y1="106" x2="1016.29" y2="668" stroke="#b4b6ae" stroke-width="1.25"/>
<text transform="translate(1016.29 688) rotate(-45)" text-anchor="end" font-family="sans-serif" font-size="11" font-weight="500" fill="#292925">1408</text>
<line x1="1066.45" y1="106" x2="1066.45" y2="668" stroke="#b4b6ae" stroke-width="1.25"/>
<text transform="translate(1066.45 688) rotate(-45)" text-anchor="end" font-family="sans-serif" font-size="11" font-weight="500" fill="#292925">1472</text>
<text x="590.0" y="736" text-anchor="middle" font-family="sans-serif" font-size="17" font-weight="600" fill="#171715">Tamaño del payload (bytes)</text>
<text transform="translate(24 387.0) rotate(-90)" text-anchor="middle" font-family="sans-serif" font-size="17" font-weight="600" fill="#171715">RTT promedio entre interfaz y FPGA (ms)</text>
<line x1="96.0" y1="64" x2="122.0" y2="64" stroke="#1f77b4" stroke-width="3"/>
<text x="130.0" y="68" font-family="sans-serif" font-size="13" fill="#222">RTT interfaz-FPGA</text>
<polyline points="113.55,186.74 163.71,188.64 213.86,185.75 264.01,183.93 314.16,182.57 364.31,180.74 414.47,178.42 464.62,173.62 514.77,173.12 564.92,171.67 615.08,172.54 665.23,168.02 715.38,166.20 765.53,161.00 815.69,159.72 865.84,157.82 915.99,158.40 966.14,153.62 1016.29,153.31 1066.45,154.15" fill="none" stroke="#1f77b4" stroke-width="2.5"/>
<line x1="113.55" y1="188.80" x2="113.55" y2="184.68" stroke="#1f77b4" stroke-width="1.3"/>
<line x1="108.55" y1="188.80" x2="118.55" y2="188.80" stroke="#1f77b4" stroke-width="1.3"/>
<line x1="108.55" y1="184.68" x2="118.55" y2="184.68" stroke="#1f77b4" stroke-width="1.3"/>
<circle cx="113.55" cy="186.74" r="4" fill="#1f77b4" stroke="#ffffff" stroke-width="1"/>
<line x1="163.71" y1="190.10" x2="163.71" y2="187.17" stroke="#1f77b4" stroke-width="1.3"/>
<line x1="158.71" y1="190.10" x2="168.71" y2="190.10" stroke="#1f77b4" stroke-width="1.3"/>
<line x1="158.71" y1="187.17" x2="168.71" y2="187.17" stroke="#1f77b4" stroke-width="1.3"/>
<circle cx="163.71" cy="188.64" r="4" fill="#1f77b4" stroke="#ffffff" stroke-width="1"/>
<line x1="213.86" y1="187.32" x2="213.86" y2="184.19" stroke="#1f77b4" stroke-width="1.3"/>
<line x1="208.86" y1="187.32" x2="218.86" y2="187.32" stroke="#1f77b4" stroke-width="1.3"/>
<line x1="208.86" y1="184.19" x2="218.86" y2="184.19" stroke="#1f77b4" stroke-width="1.3"/>
<circle cx="213.86" cy="185.75" r="4" fill="#1f77b4" stroke="#ffffff" stroke-width="1"/>
<line x1="264.01" y1="185.48" x2="264.01" y2="182.37" stroke="#1f77b4" stroke-width="1.3"/>
<line x1="259.01" y1="185.48" x2="269.01" y2="185.48" stroke="#1f77b4" stroke-width="1.3"/>
<line x1="259.01" y1="182.37" x2="269.01" y2="182.37" stroke="#1f77b4" stroke-width="1.3"/>
<circle cx="264.01" cy="183.93" r="4" fill="#1f77b4" stroke="#ffffff" stroke-width="1"/>
<line x1="314.16" y1="183.77" x2="314.16" y2="181.36" stroke="#1f77b4" stroke-width="1.3"/>
<line x1="309.16" y1="183.77" x2="319.16" y2="183.77" stroke="#1f77b4" stroke-width="1.3"/>
<line x1="309.16" y1="181.36" x2="319.16" y2="181.36" stroke="#1f77b4" stroke-width="1.3"/>
<circle cx="314.16" cy="182.57" r="4" fill="#1f77b4" stroke="#ffffff" stroke-width="1"/>
<line x1="364.31" y1="181.86" x2="364.31" y2="179.61" stroke="#1f77b4" stroke-width="1.3"/>
<line x1="359.31" y1="181.86" x2="369.31" y2="181.86" stroke="#1f77b4" stroke-width="1.3"/>
<line x1="359.31" y1="179.61" x2="369.31" y2="179.61" stroke="#1f77b4" stroke-width="1.3"/>
<circle cx="364.31" cy="180.74" r="4" fill="#1f77b4" stroke="#ffffff" stroke-width="1"/>
<line x1="414.47" y1="182.31" x2="414.47" y2="174.53" stroke="#1f77b4" stroke-width="1.3"/>
<line x1="409.47" y1="182.31" x2="419.47" y2="182.31" stroke="#1f77b4" stroke-width="1.3"/>
<line x1="409.47" y1="174.53" x2="419.47" y2="174.53" stroke="#1f77b4" stroke-width="1.3"/>
<circle cx="414.47" cy="178.42" r="4" fill="#1f77b4" stroke="#ffffff" stroke-width="1"/>
<line x1="464.62" y1="176.65" x2="464.62" y2="170.60" stroke="#1f77b4" stroke-width="1.3"/>
<line x1="459.62" y1="176.65" x2="469.62" y2="176.65" stroke="#1f77b4" stroke-width="1.3"/>
<line x1="459.62" y1="170.60" x2="469.62" y2="170.60" stroke="#1f77b4" stroke-width="1.3"/>
<circle cx="464.62" cy="173.62" r="4" fill="#1f77b4" stroke="#ffffff" stroke-width="1"/>
<line x1="514.77" y1="176.88" x2="514.77" y2="169.37" stroke="#1f77b4" stroke-width="1.3"/>
<line x1="509.77" y1="176.88" x2="519.77" y2="176.88" stroke="#1f77b4" stroke-width="1.3"/>
<line x1="509.77" y1="169.37" x2="519.77" y2="169.37" stroke="#1f77b4" stroke-width="1.3"/>
<circle cx="514.77" cy="173.12" r="4" fill="#1f77b4" stroke="#ffffff" stroke-width="1"/>
<line x1="564.92" y1="175.34" x2="564.92" y2="168.00" stroke="#1f77b4" stroke-width="1.3"/>
<line x1="559.92" y1="175.34" x2="569.92" y2="175.34" stroke="#1f77b4" stroke-width="1.3"/>
<line x1="559.92" y1="168.00" x2="569.92" y2="168.00" stroke="#1f77b4" stroke-width="1.3"/>
<circle cx="564.92" cy="171.67" r="4" fill="#1f77b4" stroke="#ffffff" stroke-width="1"/>
<line x1="615.08" y1="176.24" x2="615.08" y2="168.85" stroke="#1f77b4" stroke-width="1.3"/>
<line x1="610.08" y1="176.24" x2="620.08" y2="176.24" stroke="#1f77b4" stroke-width="1.3"/>
<line x1="610.08" y1="168.85" x2="620.08" y2="168.85" stroke="#1f77b4" stroke-width="1.3"/>
<circle cx="615.08" cy="172.54" r="4" fill="#1f77b4" stroke="#ffffff" stroke-width="1"/>
<line x1="665.23" y1="173.78" x2="665.23" y2="162.26" stroke="#1f77b4" stroke-width="1.3"/>
<line x1="660.23" y1="173.78" x2="670.23" y2="173.78" stroke="#1f77b4" stroke-width="1.3"/>
<line x1="660.23" y1="162.26" x2="670.23" y2="162.26" stroke="#1f77b4" stroke-width="1.3"/>
<circle cx="665.23" cy="168.02" r="4" fill="#1f77b4" stroke="#ffffff" stroke-width="1"/>
<line x1="715.38" y1="171.03" x2="715.38" y2="161.38" stroke="#1f77b4" stroke-width="1.3"/>
<line x1="710.38" y1="171.03" x2="720.38" y2="171.03" stroke="#1f77b4" stroke-width="1.3"/>
<line x1="710.38" y1="161.38" x2="720.38" y2="161.38" stroke="#1f77b4" stroke-width="1.3"/>
<circle cx="715.38" cy="166.20" r="4" fill="#1f77b4" stroke="#ffffff" stroke-width="1"/>
<line x1="765.53" y1="169.57" x2="765.53" y2="152.42" stroke="#1f77b4" stroke-width="1.3"/>
<line x1="760.53" y1="169.57" x2="770.53" y2="169.57" stroke="#1f77b4" stroke-width="1.3"/>
<line x1="760.53" y1="152.42" x2="770.53" y2="152.42" stroke="#1f77b4" stroke-width="1.3"/>
<circle cx="765.53" cy="161.00" r="4" fill="#1f77b4" stroke="#ffffff" stroke-width="1"/>
<line x1="815.69" y1="166.04" x2="815.69" y2="153.40" stroke="#1f77b4" stroke-width="1.3"/>
<line x1="810.69" y1="166.04" x2="820.69" y2="166.04" stroke="#1f77b4" stroke-width="1.3"/>
<line x1="810.69" y1="153.40" x2="820.69" y2="153.40" stroke="#1f77b4" stroke-width="1.3"/>
<circle cx="815.69" cy="159.72" r="4" fill="#1f77b4" stroke="#ffffff" stroke-width="1"/>
<line x1="865.84" y1="163.38" x2="865.84" y2="152.27" stroke="#1f77b4" stroke-width="1.3"/>
<line x1="860.84" y1="163.38" x2="870.84" y2="163.38" stroke="#1f77b4" stroke-width="1.3"/>
<line x1="860.84" y1="152.27" x2="870.84" y2="152.27" stroke="#1f77b4" stroke-width="1.3"/>
<circle cx="865.84" cy="157.82" r="4" fill="#1f77b4" stroke="#ffffff" stroke-width="1"/>
<line x1="915.99" y1="162.88" x2="915.99" y2="153.91" stroke="#1f77b4" stroke-width="1.3"/>
<line x1="910.99" y1="162.88" x2="920.99" y2="162.88" stroke="#1f77b4" stroke-width="1.3"/>
<line x1="910.99" y1="153.91" x2="920.99" y2="153.91" stroke="#1f77b4" stroke-width="1.3"/>
<circle cx="915.99" cy="158.40" r="4" fill="#1f77b4" stroke="#ffffff" stroke-width="1"/>
<line x1="966.14" y1="158.64" x2="966.14" y2="148.60" stroke="#1f77b4" stroke-width="1.3"/>
<line x1="961.14" y1="158.64" x2="971.14" y2="158.64" stroke="#1f77b4" stroke-width="1.3"/>
<line x1="961.14" y1="148.60" x2="971.14" y2="148.60" stroke="#1f77b4" stroke-width="1.3"/>
<circle cx="966.14" cy="153.62" r="4" fill="#1f77b4" stroke="#ffffff" stroke-width="1"/>
<line x1="1016.29" y1="158.49" x2="1016.29" y2="148.14" stroke="#1f77b4" stroke-width="1.3"/>
<line x1="1011.29" y1="158.49" x2="1021.29" y2="158.49" stroke="#1f77b4" stroke-width="1.3"/>
<line x1="1011.29" y1="148.14" x2="1021.29" y2="148.14" stroke="#1f77b4" stroke-width="1.3"/>
<circle cx="1016.29" cy="153.31" r="4" fill="#1f77b4" stroke="#ffffff" stroke-width="1"/>
<line x1="1066.45" y1="160.68" x2="1066.45" y2="147.63" stroke="#1f77b4" stroke-width="1.3"/>
<line x1="1061.45" y1="160.68" x2="1071.45" y2="160.68" stroke="#1f77b4" stroke-width="1.3"/>
<line x1="1061.45" y1="147.63" x2="1071.45" y2="147.63" stroke="#1f77b4" stroke-width="1.3"/>
<circle cx="1066.45" cy="154.15" r="4" fill="#1f77b4" stroke="#ffffff" stroke-width="1"/>
</svg>
