<svg xmlns="http://www.w3.org/2000/svg" width="1120" height="760" viewBox="0 0 1120 760">
<rect width="100%" height="100%" fill="#fbfbf8"/>
<text x="560.0" y="34" text-anchor="middle" font-family="sans-serif" font-size="24" fill="#222">Goodput bidireccional vs. payload</text>
<rect x="96" y="106" width="988" height="562" fill="#ffffff" stroke="#c9c9c1"/>
<line x1="96" y1="106.00" x2="1084" y2="106.00" stroke="#a9aba3" stroke-width="1.35"/>
<text x="86" y="110.00" text-anchor="end" font-family="sans-serif" font-size="13" font-weight="400" fill="#292925">10.3K</text>
<line x1="96" y1="199.67" x2="1084" y2="199.67" stroke="#a9aba3" stroke-width="1.35"/>
<text x="86" y="203.67" text-anchor="end" font-family="sans-serif" font-size="13" font-weight="400" fill="#292925">8.61K</text>
<line x1="96" y1="293.33" x2="1084" y2="293.33" stroke="#a9aba3" stroke-width="1.35"/>
<text x="86" y="297.33" text-anchor="end" font-family="sans-serif" font-size="13" font-weight="400" fill="#292925">6.89K</text>
<line x1="96" y1="387.00" x2="1084" y2="387.00" stroke="#a9aba3" stroke-width="1.35"/>
<text x="86" y="391.00" text-anchor="end" font-family="sans-serif" font-size="13" font-weight="400" fill="#292925">5.17K</text>
<line x1="96" y1="480.67" x2="1084" y2="480.67" stroke="#a9aba3" stroke-width="1.35"/>
<text x="86" y="484.67" text-anchor="end" font-family="sans-serif" font-size="13" font-weight="400" fill="#292925">3.45K</text>
<line x1="96" y1="574.33" x2="1084" y2="574.33" stroke="#a9aba3" stroke-width="1.35"/>
<text x="86" y="578.33" text-anchor="end" font-family="sans-serif" font-size="13" font-weight="400" fill="#292925">1.72K</text>
<line x1="96" y1="668.00" x2="1084" y2="668.00" stroke="#4f504b" stroke-width="2.2"/>
<text x="86" y="672.00" text-anchor="end" font-family="sans-serif" font-size="13" font-weight="600" fill="#292925">0</text>
<line x1="113.55" y1="106" x2="113.55" y2="668" stroke="#b4b6ae" stroke-width="1.25"/>
<text transform="translate(113.55 688) rotate(-45)" text-anchor="end" font-family="sans-serif" font-size="11" font-weight="500" fill="#292925">256</text>
<line x1="163.71" y1="106" x2="163.71" y2="668" stroke="#b4b6ae" stroke-width="1.25"/>
<text transform="translate(163.71 688) rotate(-45)" text-anchor="end" font-family="sans-serif" font-size="11" font-weight="500" fill="#292925">320</text>
<line x1="213.86" y1="106" x2="213.86" y2="668" stroke="#b4b6ae" stroke-width="1.25"/>
<text transform="translate(213.86 688) rotate(-45)" text-anchor="end" font-family="sans-serif" font-size="11" font-weight="500" fill="#292925">384</text>
<line x1="264.01" y1="106" x2="264.01" y2="668" stroke="#b4b6ae" stroke-width="1.25"/>
<text transform="translate(264.01 688) rotate(-45)" text-anchor="end" font-family="sans-serif" font-size="11" font-weight="500" fill="#292925">448</text>
<line x1="314.16" y1="106" x2="314.16" y2="668" stroke="#b4b6ae" stroke-width="1.25"/>
<text transform="translate(314.16 688) rotate(-45)" text-anchor="end" font-family="sans-serif" font-size="11" font-weight="500" fill="#292925">512</text>
<line x1="364.31" y1="106" x2="364.31" y2="668" stroke="#b4b6ae" stroke-width="1.25"/>
<text transform="translate(364.31 688) rotate(-45)" text-anchor="end" font-family="sans-serif" font-size="11" font-weight="500" fill="#292925">576</text>
<line x1="414.47" y1="106" x2="414.47" y2="668" stroke="#b4b6ae" stroke-width="1.25"/>
<text transform="translate(414.47 688) rotate(-45)" text-anchor="end" font-family="sans-serif" font-size="11" font-weight="500" fill="#292925">640</text>
<line x1="464.62" y1="106" x2="464.62" y2="668" stroke="#b4b6ae" stroke-width="1.25"/>
<text transform="translate(464.62 688) rotate(-45)" text-anchor="end" font-family="sans-serif" font-size="11" font-weight="500" fill="#292925">704</text>
<line x1="514.77" y1="106" x2="514.77" y2="668" stroke="#b4b6ae" stroke-width="1.25"/>
<text transform="translate(514.77 688) rotate(-45)" text-anchor="end" font-family="sans-serif" font-size="11" font-weight="500" fill="#292925">768</text>
<line x1="564.92" y1="106" x2="564.92" y2="668" stroke="#b4b6ae" stroke-width="1.25"/>
<text transform="translate(564.92 688) rotate(-45)" text-anchor="end" font-family="sans-serif" font-size="11" font-weight="500" fill="#292925">832</text>
<line x1="615.08" y1="106" x2="615.08" y2="668" stroke="#b4b6ae" stroke-width="1.25"/>
<text transform="translate(615.08 688) rotate(-45)" text-anchor="end" font-family="sans-serif" font-size="11" font-weight="500" fill="#292925">896</text>
<line x1="665.23" y1="106" x2="665.23" y2="668" stroke="#b4b6ae" stroke-width="1.25"/>
<text transform="translate(665.23 688) rotate(-45)" text-anchor="end" font-family="sans-serif" font-size="11" font-weight="500" fill="#292925">960</text>
<line x1="715.38" y1="106" x2="715.38" y2="668" stroke="#b4b6ae" stroke-width="1.25"/>
<text transform="translate(715.38 688) rotate(-45)" text-anchor="end" font-family="sans-serif" font-size="11" font-weight="500" fill="#292925">1024</text>
<line x1="765.53" y1="106" x2="765.53" y2="668" stroke="#b4b6ae" stroke-width="1.25"/>
<text transform="translate(765.53 688) rotate(-45)" text-anchor="end" font-family="sans-serif" font-size="11" font-weight="500" fill="#292925">1088</text>
<line x1="815.69" y1="106" x2="815.69" y2="668" stroke="#b4b6ae" stroke-width="1.25"/>
<text transform="translate(815.69 688) rotate(-45)" text-anchor="end" font-family="sans-serif" font-size="11" font-weight="500" fill="#292925">1152</text>
<line x1="865.84" y1="106" x2="865.84" y2="668" stroke="#b4b6ae" stroke-width="1.25"/>
<text transform="translate(865.84 688) rotate(-45)" text-anchor="end" font-family="sans-serif" font-size="11" font-weight="500" fill="#292925">1216</text>
<line x1="915.99" y1="106" x2="915.99" y2="668" stroke="#b4b6ae" stroke-width="1.25"/>
<text transform="translate(915.99 688) rotate(-45)" text-anchor="end" font-family="sans-serif" font-size="11" font-weight="500" fill="#292925">1280</text>
<line x1="966.14" y1="106" x2="966.14" y2="668" stroke="#b4b6ae" stroke-width="1.25"/>
<text transform="translate(966.14 688) rotate(-45)" text-anchor="end" font-family="sans-serif" font-size="11" font-weight="500" fill="#292925">1344</text>
<line x1="1016.29" y1="106" x2="1016.29" y2="668" stroke="#b4b6ae" stroke-width="1.25"/>
<text transform="translate(1016.29 688) rotate(-45)" text-anchor="end" font-family="sans-serif" font-size="11" font-weight="500" fill="#292925">1408</text>
<line x1="1066.45" y1="106" x2="1066.45" y2="668" stroke="#b4b6ae" stroke-width="1.25"/>
<text transform="translate(1066.45 688) rotate(-45)" text-anchor="end" font-family="sans-serif" font-size="11" font-weight="500" fill="#292925">1472</text>
<text x="590.0" y="736" text-anchor="middle" font-family="sans-serif" font-size="17" font-weight="600" fill="#171715">Tamaño del payload (bytes)</text>
<text transform="translate(24 387.0) rotate(-90)" text-anchor="middle" font-family="sans-serif" font-size="17" font-weight="600" fill="#171715">Goodput de payload (Mbps)</text>
<line x1="96.0" y1="64" x2="122.0" y2="64" stroke="#2ca02c" stroke-width="3"/>
<text x="130.0" y="68" font-family="sans-serif" font-size="13" fill="#222">NIC a Corundum</text>
<line x1="425.3333333333333" y1="64" x2="451.3333333333333" y2="64" stroke="#ff7f0e" stroke-width="3" stroke-dasharray="8 6"/>
<text x="459.3333333333333" y="68" font-family="sans-serif" font-size="13" fill="#222">Corundum a NIC</text>
<line x1="754.6666666666666" y1="64" x2="780.6666666666666" y2="64" stroke="#111111" stroke-width="3" stroke-dasharray="8 6"/>
<text x="788.6666666666666" y="68" font-family="sans-serif" font-size="13" fill="#222">Límite teórico 10GbE</text>
<polyline points="113.55,427.84 163.71,373.89 213.86,320.50 264.01,226.38 314.16,209.64 364.31,180.28 414.47,177.11 464.62,171.09 514.77,167.69 564.92,164.28 615.08,161.65 665.23,159.59 715.38,157.33 765.53,155.40 815.69,153.96 865.84,152.43 915.99,151.25 966.14,149.82 1016.29,148.64 1066.45,147.94" fill="none" stroke="#2ca02c" stroke-width="2.5"/>
<circle cx="113.55" cy="427.84" r="4" fill="#2ca02c" stroke="#ffffff" stroke-width="1"/>
<circle cx="163.71" cy="373.89" r="4" fill="#2ca02c" stroke="#ffffff" stroke-width="1"/>
<circle cx="213.86" cy="320.50" r="4" fill="#2ca02c" stroke="#ffffff" stroke-width="1"/>
<circle cx="264.01" cy="226.38" r="4" fill="#2ca02c" stroke="#ffffff" stroke-width="1"/>
<circle cx="314.16" cy="209.64" r="4" fill="#2ca02c" stroke="#ffffff" stroke-width="1"/>
<circle cx="364.31" cy="180.28" r="4" fill="#2ca02c" stroke="#ffffff" stroke-width="1"/>
<circle cx="414.47" cy="177.11" r="4" fill="#2ca02c" stroke="#ffffff" stroke-width="1"/>
<circle cx="464.62" cy="171.09" r="4" fill="#2ca02c" stroke="#ffffff" stroke-width="1"/>
<circle cx="514.77" cy="167.69" r="4" fill="#2ca02c" stroke="#ffffff" stroke-width="1"/>
<circle cx="564.92" cy="164.28" r="4" fill="#2ca02c" stroke="#ffffff" stroke-width="1"/>
<circle cx="615.08" cy="161.65" r="4" fill="#2ca02c" stroke="#ffffff" stroke-width="1"/>
<circle cx="665.23" cy="159.59" r="4" fill="#2ca02c" stroke="#ffffff" stroke-width="1"/>
<circle cx="715.38" cy="157.33" r="4" fill="#2ca02c" stroke="#ffffff" stroke-width="1"/>
<circle cx="765.53" cy="155.40" r="4" fill="#2ca02c" stroke="#ffffff" stroke-width="1"/>
<circle cx="815.69" cy="153.96" r="4" fill="#2ca02c" stroke="#ffffff" stroke-width="1"/>
<circle cx="865.84" cy="152.43" r="4" fill="#2ca02c" stroke="#ffffff" stroke-width="1"/>
<circle cx="915.99" cy="151.25" r="4" fill="#2ca02c" stroke="#ffffff" stroke-width="1"/>
<circle cx="966.14" cy="149.82" r="4" fill="#2ca02c" stroke="#ffffff" stroke-width="1"/>
<circle cx="1016.29" cy="148.64" r="4" fill="#2ca02c" stroke="#ffffff" stroke-width="1"/>
<circle cx="1066.45" cy="147.94" r="4" fill="#2ca02c" stroke="#ffffff" stroke-width="1"/>
<polyline points="113.55,556.52 163.71,518.90 213.86,483.85 264.01,473.08 314.16,484.73 364.31,393.68 414.47,388.34 464.62,341.85 514.77,329.75 564.92,320.23 615.08,276.77 665.23,243.79 715.38,202.73 765.53,179.43 815.69,180.30 865.84,160.99 915.99,159.27 966.14,157.75 1016.29,156.29 1066.45,154.97" fill="none" stroke="#ff7f0e" stroke-width="2.5" stroke-dasharray="8 6"/>
<circle cx="113.55" cy="556.52" r="4" fill="#ff7f0e" stroke="#ffffff" stroke-width="1"/>
<circle cx="163.71" cy="518.90" r="4" fill="#ff7f0e" stroke="#ffffff" stroke-width="1"/>
<circle cx="213.86" cy="483.85" r="4" fill="#ff7f0e" stroke="#ffffff" stroke-width="1"/>
<circle cx="264.01" cy="473.08" r="4" fill="#ff7f0e" stroke="#ffffff" stroke-width="1"/>
<circle cx="314.16" cy="484.73" r="4" fill="#ff7f0e" stroke="#ffffff" stroke-width="1"/>
<circle cx="364.31" cy="393.68" r="4" fill="#ff7f0e" stroke="#ffffff" stroke-width="1"/>
<circle cx="414.47" cy="388.34" r="4" fill="#ff7f0e" stroke="#ffffff" stroke-width="1"/>
<circle cx="464.62" cy="341.85" r="4" fill="#ff7f0e" stroke="#ffffff" stroke-width="1"/>
<circle cx="514.77" cy="329.75" r="4" fill="#ff7f0e" stroke="#ffffff" stroke-width="1"/>
<circle cx="564.92" cy="320.23" r="4" fill="#ff7f0e" stroke="#ffffff" stroke-width="1"/>
<circle cx="615.08" cy="276.77" r="4" fill="#ff7f0e" stroke="#ffffff" stroke-width="1"/>
<circle cx="665.23" cy="243.79" r="4" fill="#ff7f0e" stroke="#ffffff" stroke-width="1"/>
<circle cx="715.38" cy="202.73" r="4" fill="#ff7f0e" stroke="#ffffff" stroke-width="1"/>
<circle cx="765.53" cy="179.43" r="4" fill="#ff7f0e" stroke="#ffffff" stroke-width="1"/>
<circle cx="815.69" cy="180.30" r="4" fill="#ff7f0e" stroke="#ffffff" stroke-width="1"/>
<circle cx="865.84" cy="160.99" r="4" fill="#ff7f0e" stroke="#ffffff" stroke-width="1"/>
<circle cx="915.99" cy="159.27" r="4" fill="#ff7f0e" stroke="#ffffff" stroke-width="1"/>
<circle cx="966.14" cy="157.75" r="4" fill="#ff7f0e" stroke="#ffffff" stroke-width="1"/>
<circle cx="1016.29" cy="156.29" r="4" fill="#ff7f0e" stroke="#ffffff" stroke-width="1"/>
<circle cx="1066.45" cy="154.97" r="4" fill="#ff7f0e" stroke="#ffffff" stroke-width="1"/>
<polyline points="113.55,235.74 163.71,217.26 213.86,204.04 264.01,194.11 314.16,186.38 364.31,180.19 414.47,175.13 464.62,170.90 514.77,167.32 564.92,164.26 615.08,161.60 665.23,159.27 715.38,157.22 765.53,155.39 815.69,153.76 865.84,152.29 915.99,150.96 966.14,149.75 1016.29,148.64 1066.45,147.63" fill="none" stroke="#111111" stroke-width="2.5" stroke-dasharray="8 6"/>
<circle cx="113.55" cy="235.74" r="4" fill="#111111" stroke="#ffffff" stroke-width="1"/>
<circle cx="163.71" cy="217.26" r="4" fill="#111111" stroke="#ffffff" stroke-width="1"/>
<circle cx="213.86" cy="204.04" r="4" fill="#111111" stroke="#ffffff" stroke-width="1"/>
<circle cx="264.01" cy="194.11" r="4" fill="#111111" stroke="#ffffff" stroke-width="1"/>
<circle cx="314.16" cy="186.38" r="4" fill="#111111" stroke="#ffffff" stroke-width="1"/>
<circle cx="364.31" cy="180.19" r="4" fill="#111111" stroke="#ffffff" stroke-width="1"/>
<circle cx="414.47" cy="175.13" r="4" fill="#111111" stroke="#ffffff" stroke-width="1"/>
<circle cx="464.62" cy="170.90" r="4" fill="#111111" stroke="#ffffff" stroke-width="1"/>
<circle cx="514.77" cy="167.32" r="4" fill="#111111" stroke="#ffffff" stroke-width="1"/>
<circle cx="564.92" cy="164.26" r="4" fill="#111111" stroke="#ffffff" stroke-width="1"/>
<circle cx="615.08" cy="161.60" r="4" fill="#111111" stroke="#ffffff" stroke-width="1"/>
<circle cx="665.23" cy="159.27" r="4" fill="#111111" stroke="#ffffff" stroke-width="1"/>
<circle cx="715.38" cy="157.22" r="4" fill="#111111" stroke="#ffffff" stroke-width="1"/>
<circle cx="765.53" cy="155.39" r="4" fill="#111111" stroke="#ffffff" stroke-width="1"/>
<circle cx="815.69" cy="153.76" r="4" fill="#111111" stroke="#ffffff" stroke-width="1"/>
<circle cx="865.84" cy="152.29" r="4" fill="#111111" stroke="#ffffff" stroke-width="1"/>
<circle cx="915.99" cy="150.96" r="4" fill="#111111" stroke="#ffffff" stroke-width="1"/>
<circle cx="966.14" cy="149.75" r="4" fill="#111111" stroke="#ffffff" stroke-width="1"/>
<circle cx="1016.29" cy="148.64" r="4" fill="#111111" stroke="#ffffff" stroke-width="1"/>
<circle cx="1066.45" cy="147.63" r="4" fill="#111111" stroke="#ffffff" stroke-width="1"/>
</svg>
