<svg xmlns="http://www.w3.org/2000/svg" width="1120" height="760" viewBox="0 0 1120 760">
<rect width="100%" height="100%" fill="#fbfbf8"/>
<text x="560.0" y="34" text-anchor="middle" font-family="sans-serif" font-size="24" fill="#222">PPS bidireccionales vs. payload</text>
<rect x="96" y="106" width="988" height="562" fill="#ffffff" stroke="#c9c9c1"/>
<line x1="96" y1="106.00" x2="1084" y2="106.00" stroke="#a9aba3" stroke-width="1.35"/>
<text x="86" y="110.00" text-anchor="end" font-family="sans-serif" font-size="13" font-weight="400" fill="#292925">4.19M</text>
<line x1="96" y1="199.67" x2="1084" y2="199.67" stroke="#a9aba3" stroke-width="1.35"/>
<text x="86" y="203.67" text-anchor="end" font-family="sans-serif" font-size="13" font-weight="400" fill="#292925">3.49M</text>
<line x1="96" y1="293.33" x2="1084" y2="293.33" stroke="#a9aba3" stroke-width="1.35"/>
<text x="86" y="297.33" text-anchor="end" font-family="sans-serif" font-size="13" font-weight="400" fill="#292925">2.8M</text>
<line x1="96" y1="387.00" x2="1084" y2="387.00" stroke="#a9aba3" stroke-width="1.35"/>
<text x="86" y="391.00" text-anchor="end" font-family="sans-serif" font-size="13" font-weight="400" fill="#292925">2.1M</text>
<line x1="96" y1="480.67" x2="1084" y2="480.67" stroke="#a9aba3" stroke-width="1.35"/>
<text x="86" y="484.67" text-anchor="end" font-family="sans-serif" font-size="13" font-weight="400" fill="#292925">1.4M</text>
<line x1="96" y1="574.33" x2="1084" y2="574.33" stroke="#a9aba3" stroke-width="1.35"/>
<text x="86" y="578.33" text-anchor="end" font-family="sans-serif" font-size="13" font-weight="400" fill="#292925">699K</text>
<line x1="96" y1="668.00" x2="1084" y2="668.00" stroke="#4f504b" stroke-width="2.2"/>
<text x="86" y="672.00" text-anchor="end" font-family="sans-serif" font-size="13" font-weight="600" fill="#292925">0</text>
<line x1="113.55" y1="106" x2="113.55" y2="668" stroke="#b4b6ae" stroke-width="1.25"/>
<text transform="translate(113.55 688) rotate(-45)" text-anchor="end" font-family="sans-serif" font-size="11" font-weight="500" fill="#292925">256</text>
<line x1="163.71" y1="106" x2="163.71" y2="668" stroke="#b4b6ae" stroke-width="1.25"/>
<text transform="translate(163.71 688) rotate(-45)" text-anchor="end" font-family="sans-serif" font-size="11" font-weight="500" fill="#292925">320</text>
<line x1="213.86" y1="106" x2="213.86" y2="668" stroke="#b4b6ae" stroke-width="1.25"/>
<text transform="translate(213.86 688) rotate(-45)" text-anchor="end" font-family="sans-serif" font-size="11" font-weight="500" fill="#292925">384</text>
<line x1="264.01" y1="106" x2="264.01" y2="668" stroke="#b4b6ae" stroke-width="1.25"/>
<text transform="translate(264.01 688) rotate(-45)" text-anchor="end" font-family="sans-serif" font-size="11" font-weight="500" fill="#292925">448</text>
<line x1="314.16" y1="106" x2="314.16" y2="668" stroke="#b4b6ae" stroke-width="1.25"/>
<text transform="translate(314.16 688) rotate(-45)" text-anchor="end" font-family="sans-serif" font-size="11" font-weight="500" fill="#292925">512</text>
<line x1="364.31" y1="106" x2="364.31" y2="668" stroke="#b4b6ae" stroke-width="1.25"/>
<text transform="translate(364.31 688) rotate(-45)" text-anchor="end" font-family="sans-serif" font-size="11" font-weight="500" fill="#292925">576</text>
<line x1="414.47" y1="106" x2="414.47" y2="668" stroke="#b4b6ae" stroke-width="1.25"/>
<text transform="translate(414.47 688) rotate(-45)" text-anchor="end" font-family="sans-serif" font-size="11" font-weight="500" fill="#292925">640</text>
<line x1="464.62" y1="106" x2="464.62" y2="668" stroke="#b4b6ae" stroke-width="1.25"/>
<text transform="translate(464.62 688) rotate(-45)" text-anchor="end" font-family="sans-serif" font-size="11" font-weight="500" fill="#292925">704</text>
<line x1="514.77" y1="106" x2="514.77" y2="668" stroke="#b4b6ae" stroke-width="1.25"/>
<text transform="translate(514.77 688) rotate(-45)" text-anchor="end" font-family="sans-serif" font-size="11" font-weight="500" fill="#292925">768</text>
<line x1="564.92" y1="106" x2="564.92" y2="668" stroke="#b4b6ae" stroke-width="1.25"/>
<text transform="translate(564.92 688) rotate(-45)" text-anchor="end" font-family="sans-serif" font-size="11" font-weight="500" fill="#292925">832</text>
<line x1="615.08" y1="106" x2="615.08" y2="668" stroke="#b4b6ae" stroke-width="1.25"/>
<text transform="translate(615.08 688) rotate(-45)" text-anchor="end" font-family="sans-serif" font-size="11" font-weight="500" fill="#292925">896</text>
<line x1="665.23" y1="106" x2="665.23" y2="668" stroke="#b4b6ae" stroke-width="1.25"/>
<text transform="translate(665.23 688) rotate(-45)" text-anchor="end" font-family="sans-serif" font-size="11" font-weight="500" fill="#292925">960</text>
<line x1="715.38" y1="106" x2="715.38" y2="668" stroke="#b4b6ae" stroke-width="1.25"/>
<text transform="translate(715.38 688) rotate(-45)" text-anchor="end" font-family="sans-serif" font-size="11" font-weight="500" fill="#292925">1024</text>
<line x1="765.53" y1="106" x2="765.53" y2="668" stroke="#b4b6ae" stroke-width="1.25"/>
<text transform="translate(765.53 688) rotate(-45)" text-anchor="end" font-family="sans-serif" font-size="11" font-weight="500" fill="#292925">1088</text>
<line x1="815.69" y1="106" x2="815.69" y2="668" stroke="#b4b6ae" stroke-width="1.25"/>
<text transform="translate(815.69 688) rotate(-45)" text-anchor="end" font-family="sans-serif" font-size="11" font-weight="500" fill="#292925">1152</text>
<line x1="865.84" y1="106" x2="865.84" y2="668" stroke="#b4b6ae" stroke-width="1.25"/>
<text transform="translate(865.84 688) rotate(-45)" text-anchor="end" font-family="sans-serif" font-size="11" font-weight="500" fill="#292925">1216</text>
<line x1="915.99" y1="106" x2="915.99" y2="668" stroke="#b4b6ae" stroke-width="1.25"/>
<text transform="translate(915.99 688) rotate(-45)" text-anchor="end" font-family="sans-serif" font-size="11" font-weight="500" fill="#292925">1280</text>
<line x1="966.14" y1="106" x2="966.14" y2="668" stroke="#b4b6ae" stroke-width="1.25"/>
<text transform="translate(966.14 688) rotate(-45)" text-anchor="end" font-family="sans-serif" font-size="11" font-weight="500" fill="#292925">1344</text>
<line x1="1016.29" y1="106" x2="1016.29" y2="668" stroke="#b4b6ae" stroke-width="1.25"/>
<text transform="translate(1016.29 688) rotate(-45)" text-anchor="end" font-family="sans-serif" font-size="11" font-weight="500" fill="#292925">1408</text>
<line x1="1066.45" y1="106" x2="1066.45" y2="668" stroke="#b4b6ae" stroke-width="1.25"/>
<text transform="translate(1066.45 688) rotate(-45)" text-anchor="end" font-family="sans-serif" font-size="11" font-weight="500" fill="#292925">1472</text>
<text x="590.0" y="736" text-anchor="middle" font-family="sans-serif" font-size="17" font-weight="600" fill="#171715">Tamaño del payload (bytes)</text>
<text transform="translate(24 387.0) rotate(-90)" text-anchor="middle" font-family="sans-serif" font-size="17" font-weight="600" fill="#171715">Paquetes por segundo</text>
<line x1="96.0" y1="64" x2="122.0" y2="64" stroke="#9467bd" stroke-width="3"/>
<text x="130.0" y="68" font-family="sans-serif" font-size="13" fill="#222">NIC a Corundum</text>
<line x1="425.3333333333333" y1="64" x2="451.3333333333333" y2="64" stroke="#17becf" stroke-width="3" stroke-dasharray="8 6"/>
<text x="459.3333333333333" y="68" font-family="sans-serif" font-size="13" fill="#222">Corundum a NIC</text>
<line x1="754.6666666666666" y1="64" x2="780.6666666666666" y2="64" stroke="#111111" stroke-width="3" stroke-dasharray="8 6"/>
<text x="788.6666666666666" y="68" font-family="sans-serif" font-size="13" fill="#222">Límite teórico 10GbE</text>
<polyline points="113.55,150.74 163.71,237.82 213.86,298.34 264.01,342.17 314.16,378.16 364.31,407.05 414.47,431.42 464.62,450.47 514.77,467.23 564.92,481.42 615.08,493.82 665.23,504.79 715.38,514.31 765.53,522.80 815.69,530.49 865.84,537.34 915.99,543.58 966.14,549.18 1016.29,554.32 1066.45,559.12" fill="none" stroke="#9467bd" stroke-width="2.5"/>
<circle cx="113.55" cy="150.74" r="4" fill="#9467bd" stroke="#ffffff" stroke-width="1"/>
<circle cx="163.71" cy="237.82" r="4" fill="#9467bd" stroke="#ffffff" stroke-width="1"/>
<circle cx="213.86" cy="298.34" r="4" fill="#9467bd" stroke="#ffffff" stroke-width="1"/>
<circle cx="264.01" cy="342.17" r="4" fill="#9467bd" stroke="#ffffff" stroke-width="1"/>
<circle cx="314.16" cy="378.16" r="4" fill="#9467bd" stroke="#ffffff" stroke-width="1"/>
<circle cx="364.31" cy="407.05" r="4" fill="#9467bd" stroke="#ffffff" stroke-width="1"/>
<circle cx="414.47" cy="431.42" r="4" fill="#9467bd" stroke="#ffffff" stroke-width="1"/>
<circle cx="464.62" cy="450.47" r="4" fill="#9467bd" stroke="#ffffff" stroke-width="1"/>
<circle cx="514.77" cy="467.23" r="4" fill="#9467bd" stroke="#ffffff" stroke-width="1"/>
<circle cx="564.92" cy="481.42" r="4" fill="#9467bd" stroke="#ffffff" stroke-width="1"/>
<circle cx="615.08" cy="493.82" r="4" fill="#9467bd" stroke="#ffffff" stroke-width="1"/>
<circle cx="665.23" cy="504.79" r="4" fill="#9467bd" stroke="#ffffff" stroke-width="1"/>
<circle cx="715.38" cy="514.31" r="4" fill="#9467bd" stroke="#ffffff" stroke-width="1"/>
<circle cx="765.53" cy="522.80" r="4" fill="#9467bd" stroke="#ffffff" stroke-width="1"/>
<circle cx="815.69" cy="530.49" r="4" fill="#9467bd" stroke="#ffffff" stroke-width="1"/>
<circle cx="865.84" cy="537.34" r="4" fill="#9467bd" stroke="#ffffff" stroke-width="1"/>
<circle cx="915.99" cy="543.58" r="4" fill="#9467bd" stroke="#ffffff" stroke-width="1"/>
<circle cx="966.14" cy="549.18" r="4" fill="#9467bd" stroke="#ffffff" stroke-width="1"/>
<circle cx="1016.29" cy="554.32" r="4" fill="#9467bd" stroke="#ffffff" stroke-width="1"/>
<circle cx="1066.45" cy="559.12" r="4" fill="#9467bd" stroke="#ffffff" stroke-width="1"/>
<polyline points="113.55,165.30 163.71,248.37 213.86,295.59 264.01,342.19 314.16,378.83 364.31,408.11 414.47,438.56 464.62,458.78 514.77,468.88 564.92,483.39 615.08,495.89 665.23,506.87 715.38,516.52 765.53,525.11 815.69,532.66 865.84,539.30 915.99,545.32 966.14,550.81 1016.29,555.81 1066.45,560.41" fill="none" stroke="#17becf" stroke-width="2.5" stroke-dasharray="8 6"/>
<circle cx="113.55" cy="165.30" r="4" fill="#17becf" stroke="#ffffff" stroke-width="1"/>
<circle cx="163.71" cy="248.37" r="4" fill="#17becf" stroke="#ffffff" stroke-width="1"/>
<circle cx="213.86" cy="295.59" r="4" fill="#17becf" stroke="#ffffff" stroke-width="1"/>
<circle cx="264.01" cy="342.19" r="4" fill="#17becf" stroke="#ffffff" stroke-width="1"/>
<circle cx="314.16" cy="378.83" r="4" fill="#17becf" stroke="#ffffff" stroke-width="1"/>
<circle cx="364.31" cy="408.11" r="4" fill="#17becf" stroke="#ffffff" stroke-width="1"/>
<circle cx="414.47" cy="438.56" r="4" fill="#17becf" stroke="#ffffff" stroke-width="1"/>
<circle cx="464.62" cy="458.78" r="4" fill="#17becf" stroke="#ffffff" stroke-width="1"/>
<circle cx="514.77" cy="468.88" r="4" fill="#17becf" stroke="#ffffff" stroke-width="1"/>
<circle cx="564.92" cy="483.39" r="4" fill="#17becf" stroke="#ffffff" stroke-width="1"/>
<circle cx="615.08" cy="495.89" r="4" fill="#17becf" stroke="#ffffff" stroke-width="1"/>
<circle cx="665.23" cy="506.87" r="4" fill="#17becf" stroke="#ffffff" stroke-width="1"/>
<circle cx="715.38" cy="516.52" r="4" fill="#17becf" stroke="#ffffff" stroke-width="1"/>
<circle cx="765.53" cy="525.11" r="4" fill="#17becf" stroke="#ffffff" stroke-width="1"/>
<circle cx="815.69" cy="532.66" r="4" fill="#17becf" stroke="#ffffff" stroke-width="1"/>
<circle cx="865.84" cy="539.30" r="4" fill="#17becf" stroke="#ffffff" stroke-width="1"/>
<circle cx="915.99" cy="545.32" r="4" fill="#17becf" stroke="#ffffff" stroke-width="1"/>
<circle cx="966.14" cy="550.81" r="4" fill="#17becf" stroke="#ffffff" stroke-width="1"/>
<circle cx="1016.29" cy="555.81" r="4" fill="#17becf" stroke="#ffffff" stroke-width="1"/>
<circle cx="1066.45" cy="560.41" r="4" fill="#17becf" stroke="#ffffff" stroke-width="1"/>
<polyline points="113.55,147.63 163.71,233.91 213.86,295.65 264.01,342.01 314.16,378.11 364.31,407.00 414.47,430.66 464.62,450.39 514.77,467.09 564.92,481.41 615.08,493.82 665.23,504.69 715.38,514.28 765.53,522.80 815.69,530.43 865.84,537.30 915.99,543.51 966.14,549.16 1016.29,554.32 1066.45,559.05" fill="none" stroke="#111111" stroke-width="2.5" stroke-dasharray="8 6"/>
<circle cx="113.55" cy="147.63" r="4" fill="#111111" stroke="#ffffff" stroke-width="1"/>
<circle cx="163.71" cy="233.91" r="4" fill="#111111" stroke="#ffffff" stroke-width="1"/>
<circle cx="213.86" cy="295.65" r="4" fill="#111111" stroke="#ffffff" stroke-width="1"/>
<circle cx="264.01" cy="342.01" r="4" fill="#111111" stroke="#ffffff" stroke-width="1"/>
<circle cx="314.16" cy="378.11" r="4" fill="#111111" stroke="#ffffff" stroke-width="1"/>
<circle cx="364.31" cy="407.00" r="4" fill="#111111" stroke="#ffffff" stroke-width="1"/>
<circle cx="414.47" cy="430.66" r="4" fill="#111111" stroke="#ffffff" stroke-width="1"/>
<circle cx="464.62" cy="450.39" r="4" fill="#111111" stroke="#ffffff" stroke-width="1"/>
<circle cx="514.77" cy="467.09" r="4" fill="#111111" stroke="#ffffff" stroke-width="1"/>
<circle cx="564.92" cy="481.41" r="4" fill="#111111" stroke="#ffffff" stroke-width="1"/>
<circle cx="615.08" cy="493.82" r="4" fill="#111111" stroke="#ffffff" stroke-width="1"/>
<circle cx="665.23" cy="504.69" r="4" fill="#111111" stroke="#ffffff" stroke-width="1"/>
<circle cx="715.38" cy="514.28" r="4" fill="#111111" stroke="#ffffff" stroke-width="1"/>
<circle cx="765.53" cy="522.80" r="4" fill="#111111" stroke="#ffffff" stroke-width="1"/>
<circle cx="815.69" cy="530.43" r="4" fill="#111111" stroke="#ffffff" stroke-width="1"/>
<circle cx="865.84" cy="537.30" r="4" fill="#111111" stroke="#ffffff" stroke-width="1"/>
<circle cx="915.99" cy="543.51" r="4" fill="#111111" stroke="#ffffff" stroke-width="1"/>
<circle cx="966.14" cy="549.16" r="4" fill="#111111" stroke="#ffffff" stroke-width="1"/>
<circle cx="1016.29" cy="554.32" r="4" fill="#111111" stroke="#ffffff" stroke-width="1"/>
<circle cx="1066.45" cy="559.05" r="4" fill="#111111" stroke="#ffffff" stroke-width="1"/>
</svg>
