<svg xmlns="http://www.w3.org/2000/svg" width="1120" height="760" viewBox="0 0 1120 760">
<rect width="100%" height="100%" fill="#fbfbf8"/>
<text x="560.0" y="34" text-anchor="middle" font-family="sans-serif" font-size="24" fill="#222">Pérdidas UDP bidireccionales vs. payload</text>
<rect x="96" y="106" width="988" height="562" fill="#ffffff" stroke="#c9c9c1"/>
<line x1="96" y1="106.00" x2="1084" y2="106.00" stroke="#a9aba3" stroke-width="1.35"/>
<text x="86" y="110.00" text-anchor="end" font-family="sans-serif" font-size="13" font-weight="400" fill="#292925">71.3</text>
<line x1="96" y1="199.67" x2="1084" y2="199.67" stroke="#a9aba3" stroke-width="1.35"/>
<text x="86" y="203.67" text-anchor="end" font-family="sans-serif" font-size="13" font-weight="400" fill="#292925">55.9</text>
<line x1="96" y1="293.33" x2="1084" y2="293.33" stroke="#a9aba3" stroke-width="1.35"/>
<text x="86" y="297.33" text-anchor="end" font-family="sans-serif" font-size="13" font-weight="400" fill="#292925">40.5</text>
<line x1="96" y1="387.00" x2="1084" y2="387.00" stroke="#a9aba3" stroke-width="1.35"/>
<text x="86" y="391.00" text-anchor="end" font-family="sans-serif" font-size="13" font-weight="400" fill="#292925">25</text>
<line x1="96" y1="480.67" x2="1084" y2="480.67" stroke="#a9aba3" stroke-width="1.35"/>
<text x="86" y="484.67" text-anchor="end" font-family="sans-serif" font-size="13" font-weight="400" fill="#292925">9.58</text>
<line x1="96" y1="574.33" x2="1084" y2="574.33" stroke="#a9aba3" stroke-width="1.35"/>
<text x="86" y="578.33" text-anchor="end" font-family="sans-serif" font-size="13" font-weight="400" fill="#292925">-5.86</text>
<line x1="96" y1="668.00" x2="1084" y2="668.00" stroke="#a9aba3" stroke-width="1.35"/>
<text x="86" y="672.00" text-anchor="end" font-family="sans-serif" font-size="13" font-weight="400" fill="#292925">-21.3</text>
<line x1="96" y1="538.79" x2="1084" y2="538.79" stroke="#676761" stroke-width="1.8"/>
<text x="86" y="542.79" text-anchor="end" font-family="sans-serif" font-size="12" font-weight="600" fill="#222">0</text>
<line x1="113.55" y1="106" x2="113.55" y2="668" stroke="#b4b6ae" stroke-width="1.25"/>
<text transform="translate(113.55 688) rotate(-45)" text-anchor="end" font-family="sans-serif" font-size="11" font-weight="500" fill="#292925">256</text>
<line x1="163.71" y1="106" x2="163.71" y2="668" stroke="#b4b6ae" stroke-width="1.25"/>
<text transform="translate(163.71 688) rotate(-45)" text-anchor="end" font-family="sans-serif" font-size="11" font-weight="500" fill="#292925">320</text>
<line x1="213.86" y1="106" x2="213.86" y2="668" stroke="#b4b6ae" stroke-width="1.25"/>
<text transform="translate(213.86 688) rotate(-45)" text-anchor="end" font-family="sans-serif" font-size="11" font-weight="500" fill="#292925">384</text>
<line x1="264.01" y1="106" x2="264.01" y2="668" stroke="#b4b6ae" stroke-width="1.25"/>
<text transform="translate(264.01 688) rotate(-45)" text-anchor="end" font-family="sans-serif" font-size="11" font-weight="500" fill="#292925">448</text>
<line x1="314.16" y1="106" x2="314.16" y2="668" stroke="#b4b6ae" stroke-width="1.25"/>
<text transform="translate(314.16 688) rotate(-45)" text-anchor="end" font-family="sans-serif" font-size="11" font-weight="500" fill="#292925">512</text>
<line x1="364.31" y1="106" x2="364.31" y2="668" stroke="#b4b6ae" stroke-width="1.25"/>
<text transform="translate(364.31 688) rotate(-45)" text-anchor="end" font-family="sans-serif" font-size="11" font-weight="500" fill="#292925">576</text>
<line x1="414.47" y1="106" x2="414.47" y2="668" stroke="#b4b6ae" stroke-width="1.25"/>
<text transform="translate(414.47 688) rotate(-45)" text-anchor="end" font-family="sans-serif" font-size="11" font-weight="500" fill="#292925">640</text>
<line x1="464.62" y1="106" x2="464.62" y2="668" stroke="#b4b6ae" stroke-width="1.25"/>
<text transform="translate(464.62 688) rotate(-45)" text-anchor="end" font-family="sans-serif" font-size="11" font-weight="500" fill="#292925">704</text>
<line x1="514.77" y1="106" x2="514.77" y2="668" stroke="#b4b6ae" stroke-width="1.25"/>
<text transform="translate(514.77 688) rotate(-45)" text-anchor="end" font-family="sans-serif" font-size="11" font-weight="500" fill="#292925">768</text>
<line x1="564.92" y1="106" x2="564.92" y2="668" stroke="#b4b6ae" stroke-width="1.25"/>
<text transform="translate(564.92 688) rotate(-45)" text-anchor="end" font-family="sans-serif" font-size="11" font-weight="500" fill="#292925">832</text>
<line x1="615.08" y1="106" x2="615.08" y2="668" stroke="#b4b6ae" stroke-width="1.25"/>
<text transform="translate(615.08 688) rotate(-45)" text-anchor="end" font-family="sans-serif" font-size="11" font-weight="500" fill="#292925">896</text>
<line x1="665.23" y1="106" x2="665.23" y2="668" stroke="#b4b6ae" stroke-width="1.25"/>
<text transform="translate(665.23 688) rotate(-45)" text-anchor="end" font-family="sans-serif" font-size="11" font-weight="500" fill="#292925">960</text>
<line x1="715.38" y1="106" x2="715.38" y2="668" stroke="#b4b6ae" stroke-width="1.25"/>
<text transform="translate(715.38 688) rotate(-45)" text-anchor="end" font-family="sans-serif" font-size="11" font-weight="500" fill="#292925">1024</text>
<line x1="765.53" y1="106" x2="765.53" y2="668" stroke="#b4b6ae" stroke-width="1.25"/>
<text transform="translate(765.53 688) rotate(-45)" text-anchor="end" font-family="sans-serif" font-size="11" font-weight="500" fill="#292925">1088</text>
<line x1="815.69" y1="106" x2="815.69" y2="668" stroke="#b4b6ae" stroke-width="1.25"/>
<text transform="translate(815.69 688) rotate(-45)" text-anchor="end" font-family="sans-serif" font-size="11" font-weight="500" fill="#292925">1152</text>
<line x1="865.84" y1="106" x2="865.84" y2="668" stroke="#b4b6ae" stroke-width="1.25"/>
<text transform="translate(865.84 688) rotate(-45)" text-anchor="end" font-family="sans-serif" font-size="11" font-weight="500" fill="#292925">1216</text>
<line x1="915.99" y1="106" x2="915.99" y2="668" stroke="#b4b6ae" stroke-width="1.25"/>
<text transform="translate(915.99 688) rotate(-45)" text-anchor="end" font-family="sans-serif" font-size="11" font-weight="500" fill="#292925">1280</text>
<line x1="966.14" y1="106" x2="966.14" y2="668" stroke="#b4b6ae" stroke-width="1.25"/>
<text transform="translate(966.14 688) rotate(-45)" text-anchor="end" font-family="sans-serif" font-size="11" font-weight="500" fill="#292925">1344</text>
<line x1="1016.29" y1="106" x2="1016.29" y2="668" stroke="#b4b6ae" stroke-width="1.25"/>
<text transform="translate(1016.29 688) rotate(-45)" text-anchor="end" font-family="sans-serif" font-size="11" font-weight="500" fill="#292925">1408</text>
<line x1="1066.45" y1="106" x2="1066.45" y2="668" stroke="#b4b6ae" stroke-width="1.25"/>
<text transform="translate(1066.45 688) rotate(-45)" text-anchor="end" font-family="sans-serif" font-size="11" font-weight="500" fill="#292925">1472</text>
<text x="590.0" y="736" text-anchor="middle" font-family="sans-serif" font-size="17" font-weight="600" fill="#171715">Tamaño del payload (bytes)</text>
<text transform="translate(24 387.0) rotate(-90)" text-anchor="middle" font-family="sans-serif" font-size="17" font-weight="600" fill="#171715">Pérdida (%)</text>
<line x1="96.0" y1="64" x2="122.0" y2="64" stroke="#d62728" stroke-width="3"/>
<text x="130.0" y="68" font-family="sans-serif" font-size="13" fill="#222">NIC a Corundum</text>
<line x1="590.0" y1="64" x2="616.0" y2="64" stroke="#9467bd" stroke-width="3" stroke-dasharray="8 6"/>
<text x="624.0" y="68" font-family="sans-serif" font-size="13" fill="#222">Corundum a NIC</text>
<polyline points="113.55,377.69 163.71,394.14 213.86,379.41 264.01,456.34 314.16,480.84 364.31,398.02 414.47,429.65 464.62,466.31 514.77,467.38 564.92,526.83 615.08,494.07 665.23,347.67 715.38,468.34 765.53,455.54 815.69,409.24 865.84,437.48 915.99,418.92 966.14,397.64 1016.29,379.59 1066.45,358.59" fill="none" stroke="#d62728" stroke-width="2.5"/>
<line x1="113.55" y1="547.84" x2="113.55" y2="207.53" stroke="#d62728" stroke-width="1.3"/>
<line x1="108.55" y1="547.84" x2="118.55" y2="547.84" stroke="#d62728" stroke-width="1.3"/>
<line x1="108.55" y1="207.53" x2="118.55" y2="207.53" stroke="#d62728" stroke-width="1.3"/>
<circle cx="113.55" cy="377.69" r="4" fill="#d62728" stroke="#ffffff" stroke-width="1"/>
<line x1="163.71" y1="588.29" x2="163.71" y2="199.99" stroke="#d62728" stroke-width="1.3"/>
<line x1="158.71" y1="588.29" x2="168.71" y2="588.29" stroke="#d62728" stroke-width="1.3"/>
<line x1="158.71" y1="199.99" x2="168.71" y2="199.99" stroke="#d62728" stroke-width="1.3"/>
<circle cx="163.71" cy="394.14" r="4" fill="#d62728" stroke="#ffffff" stroke-width="1"/>
<line x1="213.86" y1="562.13" x2="213.86" y2="196.69" stroke="#d62728" stroke-width="1.3"/>
<line x1="208.86" y1="562.13" x2="218.86" y2="562.13" stroke="#d62728" stroke-width="1.3"/>
<line x1="208.86" y1="196.69" x2="218.86" y2="196.69" stroke="#d62728" stroke-width="1.3"/>
<circle cx="213.86" cy="379.41" r="4" fill="#d62728" stroke="#ffffff" stroke-width="1"/>
<line x1="264.01" y1="629.24" x2="264.01" y2="283.44" stroke="#d62728" stroke-width="1.3"/>
<line x1="259.01" y1="629.24" x2="269.01" y2="629.24" stroke="#d62728" stroke-width="1.3"/>
<line x1="259.01" y1="283.44" x2="269.01" y2="283.44" stroke="#d62728" stroke-width="1.3"/>
<circle cx="264.01" cy="456.34" r="4" fill="#d62728" stroke="#ffffff" stroke-width="1"/>
<line x1="314.16" y1="619.76" x2="314.16" y2="341.91" stroke="#d62728" stroke-width="1.3"/>
<line x1="309.16" y1="619.76" x2="319.16" y2="619.76" stroke="#d62728" stroke-width="1.3"/>
<line x1="309.16" y1="341.91" x2="319.16" y2="341.91" stroke="#d62728" stroke-width="1.3"/>
<circle cx="314.16" cy="480.84" r="4" fill="#d62728" stroke="#ffffff" stroke-width="1"/>
<line x1="364.31" y1="582.12" x2="364.31" y2="213.92" stroke="#d62728" stroke-width="1.3"/>
<line x1="359.31" y1="582.12" x2="369.31" y2="582.12" stroke="#d62728" stroke-width="1.3"/>
<line x1="359.31" y1="213.92" x2="369.31" y2="213.92" stroke="#d62728" stroke-width="1.3"/>
<circle cx="364.31" cy="398.02" r="4" fill="#d62728" stroke="#ffffff" stroke-width="1"/>
<line x1="414.47" y1="601.62" x2="414.47" y2="257.68" stroke="#d62728" stroke-width="1.3"/>
<line x1="409.47" y1="601.62" x2="419.47" y2="601.62" stroke="#d62728" stroke-width="1.3"/>
<line x1="409.47" y1="257.68" x2="419.47" y2="257.68" stroke="#d62728" stroke-width="1.3"/>
<circle cx="414.47" cy="429.65" r="4" fill="#d62728" stroke="#ffffff" stroke-width="1"/>
<line x1="464.62" y1="610.34" x2="464.62" y2="322.29" stroke="#d62728" stroke-width="1.3"/>
<line x1="459.62" y1="610.34" x2="469.62" y2="610.34" stroke="#d62728" stroke-width="1.3"/>
<line x1="459.62" y1="322.29" x2="469.62" y2="322.29" stroke="#d62728" stroke-width="1.3"/>
<circle cx="464.62" cy="466.31" r="4" fill="#d62728" stroke="#ffffff" stroke-width="1"/>
<line x1="514.77" y1="614.58" x2="514.77" y2="320.18" stroke="#d62728" stroke-width="1.3"/>
<line x1="509.77" y1="614.58" x2="519.77" y2="614.58" stroke="#d62728" stroke-width="1.3"/>
<line x1="509.77" y1="320.18" x2="519.77" y2="320.18" stroke="#d62728" stroke-width="1.3"/>
<circle cx="514.77" cy="467.38" r="4" fill="#d62728" stroke="#ffffff" stroke-width="1"/>
<line x1="564.92" y1="556.11" x2="564.92" y2="497.56" stroke="#d62728" stroke-width="1.3"/>
<line x1="559.92" y1="556.11" x2="569.92" y2="556.11" stroke="#d62728" stroke-width="1.3"/>
<line x1="559.92" y1="497.56" x2="569.92" y2="497.56" stroke="#d62728" stroke-width="1.3"/>
<circle cx="564.92" cy="526.83" r="4" fill="#d62728" stroke="#ffffff" stroke-width="1"/>
<line x1="615.08" y1="621.94" x2="615.08" y2="366.19" stroke="#d62728" stroke-width="1.3"/>
<line x1="610.08" y1="621.94" x2="620.08" y2="621.94" stroke="#d62728" stroke-width="1.3"/>
<line x1="610.08" y1="366.19" x2="620.08" y2="366.19" stroke="#d62728" stroke-width="1.3"/>
<circle cx="615.08" cy="494.07" r="4" fill="#d62728" stroke="#ffffff" stroke-width="1"/>
<line x1="665.23" y1="550.59" x2="665.23" y2="144.76" stroke="#d62728" stroke-width="1.3"/>
<line x1="660.23" y1="550.59" x2="670.23" y2="550.59" stroke="#d62728" stroke-width="1.3"/>
<line x1="660.23" y1="144.76" x2="670.23" y2="144.76" stroke="#d62728" stroke-width="1.3"/>
<circle cx="665.23" cy="347.67" r="4" fill="#d62728" stroke="#ffffff" stroke-width="1"/>
<line x1="715.38" y1="590.38" x2="715.38" y2="346.29" stroke="#d62728" stroke-width="1.3"/>
<line x1="710.38" y1="590.38" x2="720.38" y2="590.38" stroke="#d62728" stroke-width="1.3"/>
<line x1="710.38" y1="346.29" x2="720.38" y2="346.29" stroke="#d62728" stroke-width="1.3"/>
<circle cx="715.38" cy="468.34" r="4" fill="#d62728" stroke="#ffffff" stroke-width="1"/>
<line x1="765.53" y1="536.96" x2="765.53" y2="374.13" stroke="#d62728" stroke-width="1.3"/>
<line x1="760.53" y1="536.96" x2="770.53" y2="536.96" stroke="#d62728" stroke-width="1.3"/>
<line x1="760.53" y1="374.13" x2="770.53" y2="374.13" stroke="#d62728" stroke-width="1.3"/>
<circle cx="765.53" cy="455.54" r="4" fill="#d62728" stroke="#ffffff" stroke-width="1"/>
<line x1="815.69" y1="498.13" x2="815.69" y2="320.35" stroke="#d62728" stroke-width="1.3"/>
<line x1="810.69" y1="498.13" x2="820.69" y2="498.13" stroke="#d62728" stroke-width="1.3"/>
<line x1="810.69" y1="320.35" x2="820.69" y2="320.35" stroke="#d62728" stroke-width="1.3"/>
<circle cx="815.69" cy="409.24" r="4" fill="#d62728" stroke="#ffffff" stroke-width="1"/>
<line x1="865.84" y1="469.55" x2="865.84" y2="405.41" stroke="#d62728" stroke-width="1.3"/>
<line x1="860.84" y1="469.55" x2="870.84" y2="469.55" stroke="#d62728" stroke-width="1.3"/>
<line x1="860.84" y1="405.41" x2="870.84" y2="405.41" stroke="#d62728" stroke-width="1.3"/>
<circle cx="865.84" cy="437.48" r="4" fill="#d62728" stroke="#ffffff" stroke-width="1"/>
<line x1="915.99" y1="442.53" x2="915.99" y2="395.30" stroke="#d62728" stroke-width="1.3"/>
<line x1="910.99" y1="442.53" x2="920.99" y2="442.53" stroke="#d62728" stroke-width="1.3"/>
<line x1="910.99" y1="395.30" x2="920.99" y2="395.30" stroke="#d62728" stroke-width="1.3"/>
<circle cx="915.99" cy="418.92" r="4" fill="#d62728" stroke="#ffffff" stroke-width="1"/>
<line x1="966.14" y1="421.56" x2="966.14" y2="373.73" stroke="#d62728" stroke-width="1.3"/>
<line x1="961.14" y1="421.56" x2="971.14" y2="421.56" stroke="#d62728" stroke-width="1.3"/>
<line x1="961.14" y1="373.73" x2="971.14" y2="373.73" stroke="#d62728" stroke-width="1.3"/>
<circle cx="966.14" cy="397.64" r="4" fill="#d62728" stroke="#ffffff" stroke-width="1"/>
<line x1="1016.29" y1="431.28" x2="1016.29" y2="327.90" stroke="#d62728" stroke-width="1.3"/>
<line x1="1011.29" y1="431.28" x2="1021.29" y2="431.28" stroke="#d62728" stroke-width="1.3"/>
<line x1="1011.29" y1="327.90" x2="1021.29" y2="327.90" stroke="#d62728" stroke-width="1.3"/>
<circle cx="1016.29" cy="379.59" r="4" fill="#d62728" stroke="#ffffff" stroke-width="1"/>
<line x1="1066.45" y1="379.66" x2="1066.45" y2="337.52" stroke="#d62728" stroke-width="1.3"/>
<line x1="1061.45" y1="379.66" x2="1071.45" y2="379.66" stroke="#d62728" stroke-width="1.3"/>
<line x1="1061.45" y1="337.52" x2="1071.45" y2="337.52" stroke="#d62728" stroke-width="1.3"/>
<circle cx="1066.45" cy="358.59" r="4" fill="#d62728" stroke="#ffffff" stroke-width="1"/>
<polyline points="113.55,538.79 163.71,538.79 213.86,538.79 264.01,538.79 314.16,538.79 364.31,538.79 414.47,538.79 464.62,538.79 514.77,538.79 564.92,538.79 615.08,495.61 665.23,478.55 715.38,438.48 765.53,402.82 815.69,400.65 865.84,373.54 915.99,352.83 966.14,337.50 1016.29,326.93 1066.45,292.09" fill="none" stroke="#9467bd" stroke-width="2.5" stroke-dasharray="8 6"/>
<circle cx="113.55" cy="538.79" r="4" fill="#9467bd" stroke="#ffffff" stroke-width="1"/>
<circle cx="163.71" cy="538.79" r="4" fill="#9467bd" stroke="#ffffff" stroke-width="1"/>
<circle cx="213.86" cy="538.79" r="4" fill="#9467bd" stroke="#ffffff" stroke-width="1"/>
<circle cx="264.01" cy="538.79" r="4" fill="#9467bd" stroke="#ffffff" stroke-width="1"/>
<circle cx="314.16" cy="538.79" r="4" fill="#9467bd" stroke="#ffffff" stroke-width="1"/>
<circle cx="364.31" cy="538.79" r="4" fill="#9467bd" stroke="#ffffff" stroke-width="1"/>
<circle cx="414.47" cy="538.79" r="4" fill="#9467bd" stroke="#ffffff" stroke-width="1"/>
<circle cx="464.62" cy="538.79" r="4" fill="#9467bd" stroke="#ffffff" stroke-width="1"/>
<circle cx="514.77" cy="538.79" r="4" fill="#9467bd" stroke="#ffffff" stroke-width="1"/>
<circle cx="564.92" cy="538.79" r="4" fill="#9467bd" stroke="#ffffff" stroke-width="1"/>
<line x1="615.08" y1="504.17" x2="615.08" y2="487.05" stroke="#9467bd" stroke-width="1.3"/>
<line x1="610.08" y1="504.17" x2="620.08" y2="504.17" stroke="#9467bd" stroke-width="1.3"/>
<line x1="610.08" y1="487.05" x2="620.08" y2="487.05" stroke="#9467bd" stroke-width="1.3"/>
<circle cx="615.08" cy="495.61" r="4" fill="#9467bd" stroke="#ffffff" stroke-width="1"/>
<line x1="665.23" y1="512.38" x2="665.23" y2="444.72" stroke="#9467bd" stroke-width="1.3"/>
<line x1="660.23" y1="512.38" x2="670.23" y2="512.38" stroke="#9467bd" stroke-width="1.3"/>
<line x1="660.23" y1="444.72" x2="670.23" y2="444.72" stroke="#9467bd" stroke-width="1.3"/>
<circle cx="665.23" cy="478.55" r="4" fill="#9467bd" stroke="#ffffff" stroke-width="1"/>
<line x1="715.38" y1="451.49" x2="715.38" y2="425.47" stroke="#9467bd" stroke-width="1.3"/>
<line x1="710.38" y1="451.49" x2="720.38" y2="451.49" stroke="#9467bd" stroke-width="1.3"/>
<line x1="710.38" y1="425.47" x2="720.38" y2="425.47" stroke="#9467bd" stroke-width="1.3"/>
<circle cx="715.38" cy="438.48" r="4" fill="#9467bd" stroke="#ffffff" stroke-width="1"/>
<line x1="765.53" y1="409.25" x2="765.53" y2="396.39" stroke="#9467bd" stroke-width="1.3"/>
<line x1="760.53" y1="409.25" x2="770.53" y2="409.25" stroke="#9467bd" stroke-width="1.3"/>
<line x1="760.53" y1="396.39" x2="770.53" y2="396.39" stroke="#9467bd" stroke-width="1.3"/>
<circle cx="765.53" cy="402.82" r="4" fill="#9467bd" stroke="#ffffff" stroke-width="1"/>
<line x1="815.69" y1="448.40" x2="815.69" y2="352.90" stroke="#9467bd" stroke-width="1.3"/>
<line x1="810.69" y1="448.40" x2="820.69" y2="448.40" stroke="#9467bd" stroke-width="1.3"/>
<line x1="810.69" y1="352.90" x2="820.69" y2="352.90" stroke="#9467bd" stroke-width="1.3"/>
<circle cx="815.69" cy="400.65" r="4" fill="#9467bd" stroke="#ffffff" stroke-width="1"/>
<line x1="865.84" y1="408.35" x2="865.84" y2="338.72" stroke="#9467bd" stroke-width="1.3"/>
<line x1="860.84" y1="408.35" x2="870.84" y2="408.35" stroke="#9467bd" stroke-width="1.3"/>
<line x1="860.84" y1="338.72" x2="870.84" y2="338.72" stroke="#9467bd" stroke-width="1.3"/>
<circle cx="865.84" cy="373.54" r="4" fill="#9467bd" stroke="#ffffff" stroke-width="1"/>
<line x1="915.99" y1="389.48" x2="915.99" y2="316.17" stroke="#9467bd" stroke-width="1.3"/>
<line x1="910.99" y1="389.48" x2="920.99" y2="389.48" stroke="#9467bd" stroke-width="1.3"/>
<line x1="910.99" y1="316.17" x2="920.99" y2="316.17" stroke="#9467bd" stroke-width="1.3"/>
<circle cx="915.99" cy="352.83" r="4" fill="#9467bd" stroke="#ffffff" stroke-width="1"/>
<line x1="966.14" y1="363.00" x2="966.14" y2="312.01" stroke="#9467bd" stroke-width="1.3"/>
<line x1="961.14" y1="363.00" x2="971.14" y2="363.00" stroke="#9467bd" stroke-width="1.3"/>
<line x1="961.14" y1="312.01" x2="971.14" y2="312.01" stroke="#9467bd" stroke-width="1.3"/>
<circle cx="966.14" cy="337.50" r="4" fill="#9467bd" stroke="#ffffff" stroke-width="1"/>
<line x1="1016.29" y1="375.86" x2="1016.29" y2="278.00" stroke="#9467bd" stroke-width="1.3"/>
<line x1="1011.29" y1="375.86" x2="1021.29" y2="375.86" stroke="#9467bd" stroke-width="1.3"/>
<line x1="1011.29" y1="278.00" x2="1021.29" y2="278.00" stroke="#9467bd" stroke-width="1.3"/>
<circle cx="1016.29" cy="326.93" r="4" fill="#9467bd" stroke="#ffffff" stroke-width="1"/>
<line x1="1066.45" y1="296.36" x2="1066.45" y2="287.81" stroke="#9467bd" stroke-width="1.3"/>
<line x1="1061.45" y1="296.36" x2="1071.45" y2="296.36" stroke="#9467bd" stroke-width="1.3"/>
<line x1="1061.45" y1="287.81" x2="1071.45" y2="287.81" stroke="#9467bd" stroke-width="1.3"/>
<circle cx="1066.45" cy="292.09" r="4" fill="#9467bd" stroke="#ffffff" stroke-width="1"/>
</svg>
