<svg xmlns="http://www.w3.org/2000/svg" width="1120" height="680" viewBox="0 0 1120 680">
<rect width="100%" height="100%" fill="#fbfbf8"/>
<text x="560.0" y="34" text-anchor="middle" font-family="sans-serif" font-size="24" fill="#222">Loopback: goodput vs payload</text>
<rect x="96" y="62" width="988" height="532" fill="#ffffff" stroke="#c9c9c1"/>
<line x1="96" y1="62.00" x2="1084" y2="62.00" stroke="#e8e8df"/>
<text x="86" y="66.00" text-anchor="end" font-family="sans-serif" font-size="12" fill="#4a4a45">969</text>
<line x1="96.00" y1="62" x2="96.00" y2="594" stroke="#f0f0e8"/>
<text x="96.00" y="618" text-anchor="middle" font-family="sans-serif" font-size="12" fill="#4a4a45">161</text>
<line x1="96" y1="168.40" x2="1084" y2="168.40" stroke="#e8e8df"/>
<text x="86" y="172.40" text-anchor="end" font-family="sans-serif" font-size="12" fill="#4a4a45">932</text>
<line x1="293.60" y1="62" x2="293.60" y2="594" stroke="#f0f0e8"/>
<text x="293.60" y="618" text-anchor="middle" font-family="sans-serif" font-size="12" fill="#4a4a45">436</text>
<line x1="96" y1="274.80" x2="1084" y2="274.80" stroke="#e8e8df"/>
<text x="86" y="278.80" text-anchor="end" font-family="sans-serif" font-size="12" fill="#4a4a45">894</text>
<line x1="491.20" y1="62" x2="491.20" y2="594" stroke="#f0f0e8"/>
<text x="491.20" y="618" text-anchor="middle" font-family="sans-serif" font-size="12" fill="#4a4a45">711</text>
<line x1="96" y1="381.20" x2="1084" y2="381.20" stroke="#e8e8df"/>
<text x="86" y="385.20" text-anchor="end" font-family="sans-serif" font-size="12" fill="#4a4a45">857</text>
<line x1="688.80" y1="62" x2="688.80" y2="594" stroke="#f0f0e8"/>
<text x="688.80" y="618" text-anchor="middle" font-family="sans-serif" font-size="12" fill="#4a4a45">985</text>
<line x1="96" y1="487.60" x2="1084" y2="487.60" stroke="#e8e8df"/>
<text x="86" y="491.60" text-anchor="end" font-family="sans-serif" font-size="12" fill="#4a4a45">820</text>
<line x1="886.40" y1="62" x2="886.40" y2="594" stroke="#f0f0e8"/>
<text x="886.40" y="618" text-anchor="middle" font-family="sans-serif" font-size="12" fill="#4a4a45">1260</text>
<line x1="96" y1="594.00" x2="1084" y2="594.00" stroke="#e8e8df"/>
<text x="86" y="598.00" text-anchor="end" font-family="sans-serif" font-size="12" fill="#4a4a45">782</text>
<line x1="1084.00" y1="62" x2="1084.00" y2="594" stroke="#f0f0e8"/>
<text x="1084.00" y="618" text-anchor="middle" font-family="sans-serif" font-size="12" fill="#4a4a45">1535</text>
<text x="590.0" y="656" text-anchor="middle" font-family="sans-serif" font-size="15" fill="#222">Payload size (bytes)</text>
<text transform="translate(26 328.0) rotate(-90)" text-anchor="middle" font-family="sans-serif" font-size="15" fill="#222">Goodput payload (Mbps)</text>
<line x1="112" y1="82" x2="138" y2="82" stroke="#2ca02c" stroke-width="3"/>
<text x="146" y="86" font-family="sans-serif" font-size="13" fill="#222">Goodput</text>
<line x1="112" y1="104" x2="138" y2="104" stroke="#111111" stroke-width="3" stroke-dasharray="8 6"/>
<text x="146" y="108" font-family="sans-serif" font-size="13" fill="#222">Teorico</text>
<polyline points="164.14,557.31 217.37,448.30 270.60,373.62 323.84,319.25 377.07,277.91 430.30,245.41 483.53,219.18 536.77,197.58 590.00,179.48 643.23,164.08 696.47,150.84 749.70,139.31 802.93,129.20 856.16,120.25 909.40,112.28 962.63,105.14 1015.86,98.69" fill="none" stroke="#2ca02c" stroke-width="2.5"/>
<line x1="164.14" y1="557.31" x2="164.14" y2="557.31" stroke="#2ca02c" stroke-width="1.3"/>
<line x1="159.14" y1="557.31" x2="169.14" y2="557.31" stroke="#2ca02c" stroke-width="1.3"/>
<line x1="159.14" y1="557.31" x2="169.14" y2="557.31" stroke="#2ca02c" stroke-width="1.3"/>
<circle cx="164.14" cy="557.31" r="4" fill="#2ca02c" stroke="#ffffff" stroke-width="1"/>
<line x1="217.37" y1="448.30" x2="217.37" y2="448.30" stroke="#2ca02c" stroke-width="1.3"/>
<line x1="212.37" y1="448.30" x2="222.37" y2="448.30" stroke="#2ca02c" stroke-width="1.3"/>
<line x1="212.37" y1="448.30" x2="222.37" y2="448.30" stroke="#2ca02c" stroke-width="1.3"/>
<circle cx="217.37" cy="448.30" r="4" fill="#2ca02c" stroke="#ffffff" stroke-width="1"/>
<line x1="270.60" y1="373.62" x2="270.60" y2="373.62" stroke="#2ca02c" stroke-width="1.3"/>
<line x1="265.60" y1="373.62" x2="275.60" y2="373.62" stroke="#2ca02c" stroke-width="1.3"/>
<line x1="265.60" y1="373.62" x2="275.60" y2="373.62" stroke="#2ca02c" stroke-width="1.3"/>
<circle cx="270.60" cy="373.62" r="4" fill="#2ca02c" stroke="#ffffff" stroke-width="1"/>
<line x1="323.84" y1="319.25" x2="323.84" y2="319.25" stroke="#2ca02c" stroke-width="1.3"/>
<line x1="318.84" y1="319.25" x2="328.84" y2="319.25" stroke="#2ca02c" stroke-width="1.3"/>
<line x1="318.84" y1="319.25" x2="328.84" y2="319.25" stroke="#2ca02c" stroke-width="1.3"/>
<circle cx="323.84" cy="319.25" r="4" fill="#2ca02c" stroke="#ffffff" stroke-width="1"/>
<line x1="377.07" y1="277.91" x2="377.07" y2="277.91" stroke="#2ca02c" stroke-width="1.3"/>
<line x1="372.07" y1="277.91" x2="382.07" y2="277.91" stroke="#2ca02c" stroke-width="1.3"/>
<line x1="372.07" y1="277.91" x2="382.07" y2="277.91" stroke="#2ca02c" stroke-width="1.3"/>
<circle cx="377.07" cy="277.91" r="4" fill="#2ca02c" stroke="#ffffff" stroke-width="1"/>
<line x1="430.30" y1="245.41" x2="430.30" y2="245.41" stroke="#2ca02c" stroke-width="1.3"/>
<line x1="425.30" y1="245.41" x2="435.30" y2="245.41" stroke="#2ca02c" stroke-width="1.3"/>
<line x1="425.30" y1="245.41" x2="435.30" y2="245.41" stroke="#2ca02c" stroke-width="1.3"/>
<circle cx="430.30" cy="245.41" r="4" fill="#2ca02c" stroke="#ffffff" stroke-width="1"/>
<line x1="483.53" y1="219.18" x2="483.53" y2="219.18" stroke="#2ca02c" stroke-width="1.3"/>
<line x1="478.53" y1="219.18" x2="488.53" y2="219.18" stroke="#2ca02c" stroke-width="1.3"/>
<line x1="478.53" y1="219.18" x2="488.53" y2="219.18" stroke="#2ca02c" stroke-width="1.3"/>
<circle cx="483.53" cy="219.18" r="4" fill="#2ca02c" stroke="#ffffff" stroke-width="1"/>
<line x1="536.77" y1="197.58" x2="536.77" y2="197.58" stroke="#2ca02c" stroke-width="1.3"/>
<line x1="531.77" y1="197.58" x2="541.77" y2="197.58" stroke="#2ca02c" stroke-width="1.3"/>
<line x1="531.77" y1="197.58" x2="541.77" y2="197.58" stroke="#2ca02c" stroke-width="1.3"/>
<circle cx="536.77" cy="197.58" r="4" fill="#2ca02c" stroke="#ffffff" stroke-width="1"/>
<line x1="590.00" y1="179.48" x2="590.00" y2="179.48" stroke="#2ca02c" stroke-width="1.3"/>
<line x1="585.00" y1="179.48" x2="595.00" y2="179.48" stroke="#2ca02c" stroke-width="1.3"/>
<line x1="585.00" y1="179.48" x2="595.00" y2="179.48" stroke="#2ca02c" stroke-width="1.3"/>
<circle cx="590.00" cy="179.48" r="4" fill="#2ca02c" stroke="#ffffff" stroke-width="1"/>
<circle cx="643.23" cy="164.08" r="4" fill="#2ca02c" stroke="#ffffff" stroke-width="1"/>
<line x1="696.47" y1="150.84" x2="696.47" y2="150.84" stroke="#2ca02c" stroke-width="1.3"/>
<line x1="691.47" y1="150.84" x2="701.47" y2="150.84" stroke="#2ca02c" stroke-width="1.3"/>
<line x1="691.47" y1="150.84" x2="701.47" y2="150.84" stroke="#2ca02c" stroke-width="1.3"/>
<circle cx="696.47" cy="150.84" r="4" fill="#2ca02c" stroke="#ffffff" stroke-width="1"/>
<line x1="749.70" y1="139.31" x2="749.70" y2="139.31" stroke="#2ca02c" stroke-width="1.3"/>
<line x1="744.70" y1="139.31" x2="754.70" y2="139.31" stroke="#2ca02c" stroke-width="1.3"/>
<line x1="744.70" y1="139.31" x2="754.70" y2="139.31" stroke="#2ca02c" stroke-width="1.3"/>
<circle cx="749.70" cy="139.31" r="4" fill="#2ca02c" stroke="#ffffff" stroke-width="1"/>
<line x1="802.93" y1="129.20" x2="802.93" y2="129.20" stroke="#2ca02c" stroke-width="1.3"/>
<line x1="797.93" y1="129.20" x2="807.93" y2="129.20" stroke="#2ca02c" stroke-width="1.3"/>
<line x1="797.93" y1="129.20" x2="807.93" y2="129.20" stroke="#2ca02c" stroke-width="1.3"/>
<circle cx="802.93" cy="129.20" r="4" fill="#2ca02c" stroke="#ffffff" stroke-width="1"/>
<line x1="856.16" y1="120.25" x2="856.16" y2="120.25" stroke="#2ca02c" stroke-width="1.3"/>
<line x1="851.16" y1="120.25" x2="861.16" y2="120.25" stroke="#2ca02c" stroke-width="1.3"/>
<line x1="851.16" y1="120.25" x2="861.16" y2="120.25" stroke="#2ca02c" stroke-width="1.3"/>
<circle cx="856.16" cy="120.25" r="4" fill="#2ca02c" stroke="#ffffff" stroke-width="1"/>
<line x1="909.40" y1="112.28" x2="909.40" y2="112.28" stroke="#2ca02c" stroke-width="1.3"/>
<line x1="904.40" y1="112.28" x2="914.40" y2="112.28" stroke="#2ca02c" stroke-width="1.3"/>
<line x1="904.40" y1="112.28" x2="914.40" y2="112.28" stroke="#2ca02c" stroke-width="1.3"/>
<circle cx="909.40" cy="112.28" r="4" fill="#2ca02c" stroke="#ffffff" stroke-width="1"/>
<line x1="962.63" y1="105.14" x2="962.63" y2="105.14" stroke="#2ca02c" stroke-width="1.3"/>
<line x1="957.63" y1="105.14" x2="967.63" y2="105.14" stroke="#2ca02c" stroke-width="1.3"/>
<line x1="957.63" y1="105.14" x2="967.63" y2="105.14" stroke="#2ca02c" stroke-width="1.3"/>
<circle cx="962.63" cy="105.14" r="4" fill="#2ca02c" stroke="#ffffff" stroke-width="1"/>
<circle cx="1015.86" cy="98.69" r="4" fill="#2ca02c" stroke="#ffffff" stroke-width="1"/>
<polyline points="164.14,557.31 217.37,448.30 270.60,373.62 323.84,319.25 377.07,277.91 430.30,245.41 483.53,219.18 536.77,197.58 590.00,179.48 643.23,164.08 696.47,150.84 749.70,139.31 802.93,129.20 856.16,120.25 909.40,112.28 962.63,105.14 1015.86,98.69" fill="none" stroke="#111111" stroke-width="2.5" stroke-dasharray="8 6"/>
<circle cx="164.14" cy="557.31" r="4" fill="#111111" stroke="#ffffff" stroke-width="1"/>
<circle cx="217.37" cy="448.30" r="4" fill="#111111" stroke="#ffffff" stroke-width="1"/>
<circle cx="270.60" cy="373.62" r="4" fill="#111111" stroke="#ffffff" stroke-width="1"/>
<circle cx="323.84" cy="319.25" r="4" fill="#111111" stroke="#ffffff" stroke-width="1"/>
<circle cx="377.07" cy="277.91" r="4" fill="#111111" stroke="#ffffff" stroke-width="1"/>
<circle cx="430.30" cy="245.41" r="4" fill="#111111" stroke="#ffffff" stroke-width="1"/>
<circle cx="483.53" cy="219.18" r="4" fill="#111111" stroke="#ffffff" stroke-width="1"/>
<circle cx="536.77" cy="197.58" r="4" fill="#111111" stroke="#ffffff" stroke-width="1"/>
<circle cx="590.00" cy="179.48" r="4" fill="#111111" stroke="#ffffff" stroke-width="1"/>
<circle cx="643.23" cy="164.08" r="4" fill="#111111" stroke="#ffffff" stroke-width="1"/>
<circle cx="696.47" cy="150.84" r="4" fill="#111111" stroke="#ffffff" stroke-width="1"/>
<circle cx="749.70" cy="139.31" r="4" fill="#111111" stroke="#ffffff" stroke-width="1"/>
<circle cx="802.93" cy="129.20" r="4" fill="#111111" stroke="#ffffff" stroke-width="1"/>
<circle cx="856.16" cy="120.25" r="4" fill="#111111" stroke="#ffffff" stroke-width="1"/>
<circle cx="909.40" cy="112.28" r="4" fill="#111111" stroke="#ffffff" stroke-width="1"/>
<circle cx="962.63" cy="105.14" r="4" fill="#111111" stroke="#ffffff" stroke-width="1"/>
<circle cx="1015.86" cy="98.69" r="4" fill="#111111" stroke="#ffffff" stroke-width="1"/>
</svg>
