<svg xmlns="http://www.w3.org/2000/svg" width="1120" height="680" viewBox="0 0 1120 680">
<rect width="100%" height="100%" fill="#fbfbf8"/>
<text x="560.0" y="34" text-anchor="middle" font-family="sans-serif" font-size="24" fill="#222">Loopback: perdida vs payload</text>
<rect x="96" y="62" width="988" height="532" fill="#ffffff" stroke="#c9c9c1"/>
<line x1="96" y1="62.00" x2="1084" y2="62.00" stroke="#e8e8df"/>
<text x="86" y="66.00" text-anchor="end" font-family="sans-serif" font-size="12" fill="#4a4a45">0.0129</text>
<line x1="96.00" y1="62" x2="96.00" y2="594" stroke="#f0f0e8"/>
<text x="96.00" y="618" text-anchor="middle" font-family="sans-serif" font-size="12" fill="#4a4a45">161</text>
<line x1="96" y1="168.40" x2="1084" y2="168.40" stroke="#e8e8df"/>
<text x="86" y="172.40" text-anchor="end" font-family="sans-serif" font-size="12" fill="#4a4a45">0.0101</text>
<line x1="293.60" y1="62" x2="293.60" y2="594" stroke="#f0f0e8"/>
<text x="293.60" y="618" text-anchor="middle" font-family="sans-serif" font-size="12" fill="#4a4a45">436</text>
<line x1="96" y1="274.80" x2="1084" y2="274.80" stroke="#e8e8df"/>
<text x="86" y="278.80" text-anchor="end" font-family="sans-serif" font-size="12" fill="#4a4a45">0.00735</text>
<line x1="491.20" y1="62" x2="491.20" y2="594" stroke="#f0f0e8"/>
<text x="491.20" y="618" text-anchor="middle" font-family="sans-serif" font-size="12" fill="#4a4a45">711</text>
<line x1="96" y1="381.20" x2="1084" y2="381.20" stroke="#e8e8df"/>
<text x="86" y="385.20" text-anchor="end" font-family="sans-serif" font-size="12" fill="#4a4a45">0.00458</text>
<line x1="688.80" y1="62" x2="688.80" y2="594" stroke="#f0f0e8"/>
<text x="688.80" y="618" text-anchor="middle" font-family="sans-serif" font-size="12" fill="#4a4a45">985</text>
<line x1="96" y1="487.60" x2="1084" y2="487.60" stroke="#e8e8df"/>
<text x="86" y="491.60" text-anchor="end" font-family="sans-serif" font-size="12" fill="#4a4a45">0.00181</text>
<line x1="886.40" y1="62" x2="886.40" y2="594" stroke="#f0f0e8"/>
<text x="886.40" y="618" text-anchor="middle" font-family="sans-serif" font-size="12" fill="#4a4a45">1260</text>
<line x1="96" y1="594.00" x2="1084" y2="594.00" stroke="#e8e8df"/>
<text x="86" y="598.00" text-anchor="end" font-family="sans-serif" font-size="12" fill="#4a4a45">-0.000966</text>
<line x1="1084.00" y1="62" x2="1084.00" y2="594" stroke="#f0f0e8"/>
<text x="1084.00" y="618" text-anchor="middle" font-family="sans-serif" font-size="12" fill="#4a4a45">1535</text>
<text x="590.0" y="656" text-anchor="middle" font-family="sans-serif" font-size="15" fill="#222">Payload size (bytes)</text>
<text transform="translate(26 328.0) rotate(-90)" text-anchor="middle" font-family="sans-serif" font-size="15" fill="#222">Perdida (%)</text>
<line x1="112" y1="82" x2="138" y2="82" stroke="#d62728" stroke-width="3"/>
<text x="146" y="86" font-family="sans-serif" font-size="13" fill="#222">Perdida</text>
<polyline points="164.14,455.59 217.37,454.05 270.60,542.34 323.84,303.57 377.07,219.12 430.30,224.49 483.53,338.12 536.77,472.48 590.00,341.96 643.23,208.37 696.47,179.19 749.70,297.43 802.93,391.86 856.16,348.10 909.40,292.82 962.63,186.87 1015.86,364.22" fill="none" stroke="#d62728" stroke-width="2.5"/>
<line x1="164.14" y1="487.43" x2="164.14" y2="423.75" stroke="#d62728" stroke-width="1.3"/>
<line x1="159.14" y1="487.43" x2="169.14" y2="487.43" stroke="#d62728" stroke-width="1.3"/>
<line x1="159.14" y1="423.75" x2="169.14" y2="423.75" stroke="#d62728" stroke-width="1.3"/>
<circle cx="164.14" cy="455.59" r="4" fill="#d62728" stroke="#ffffff" stroke-width="1"/>
<line x1="217.37" y1="496.75" x2="217.37" y2="411.36" stroke="#d62728" stroke-width="1.3"/>
<line x1="212.37" y1="496.75" x2="222.37" y2="496.75" stroke="#d62728" stroke-width="1.3"/>
<line x1="212.37" y1="411.36" x2="222.37" y2="411.36" stroke="#d62728" stroke-width="1.3"/>
<circle cx="217.37" cy="454.05" r="4" fill="#d62728" stroke="#ffffff" stroke-width="1"/>
<line x1="270.60" y1="557.31" x2="270.60" y2="527.38" stroke="#d62728" stroke-width="1.3"/>
<line x1="265.60" y1="557.31" x2="275.60" y2="557.31" stroke="#d62728" stroke-width="1.3"/>
<line x1="265.60" y1="527.38" x2="275.60" y2="527.38" stroke="#d62728" stroke-width="1.3"/>
<circle cx="270.60" cy="542.34" r="4" fill="#d62728" stroke="#ffffff" stroke-width="1"/>
<line x1="323.84" y1="328.60" x2="323.84" y2="278.55" stroke="#d62728" stroke-width="1.3"/>
<line x1="318.84" y1="328.60" x2="328.84" y2="328.60" stroke="#d62728" stroke-width="1.3"/>
<line x1="318.84" y1="278.55" x2="328.84" y2="278.55" stroke="#d62728" stroke-width="1.3"/>
<circle cx="323.84" cy="303.57" r="4" fill="#d62728" stroke="#ffffff" stroke-width="1"/>
<line x1="377.07" y1="235.63" x2="377.07" y2="202.61" stroke="#d62728" stroke-width="1.3"/>
<line x1="372.07" y1="235.63" x2="382.07" y2="235.63" stroke="#d62728" stroke-width="1.3"/>
<line x1="372.07" y1="202.61" x2="382.07" y2="202.61" stroke="#d62728" stroke-width="1.3"/>
<circle cx="377.07" cy="219.12" r="4" fill="#d62728" stroke="#ffffff" stroke-width="1"/>
<line x1="430.30" y1="254.30" x2="430.30" y2="194.68" stroke="#d62728" stroke-width="1.3"/>
<line x1="425.30" y1="254.30" x2="435.30" y2="254.30" stroke="#d62728" stroke-width="1.3"/>
<line x1="425.30" y1="194.68" x2="435.30" y2="194.68" stroke="#d62728" stroke-width="1.3"/>
<circle cx="430.30" cy="224.49" r="4" fill="#d62728" stroke="#ffffff" stroke-width="1"/>
<line x1="483.53" y1="361.94" x2="483.53" y2="314.30" stroke="#d62728" stroke-width="1.3"/>
<line x1="478.53" y1="361.94" x2="488.53" y2="361.94" stroke="#d62728" stroke-width="1.3"/>
<line x1="478.53" y1="314.30" x2="488.53" y2="314.30" stroke="#d62728" stroke-width="1.3"/>
<circle cx="483.53" cy="338.12" r="4" fill="#d62728" stroke="#ffffff" stroke-width="1"/>
<line x1="536.77" y1="502.34" x2="536.77" y2="442.62" stroke="#d62728" stroke-width="1.3"/>
<line x1="531.77" y1="502.34" x2="541.77" y2="502.34" stroke="#d62728" stroke-width="1.3"/>
<line x1="531.77" y1="442.62" x2="541.77" y2="442.62" stroke="#d62728" stroke-width="1.3"/>
<circle cx="536.77" cy="472.48" r="4" fill="#d62728" stroke="#ffffff" stroke-width="1"/>
<line x1="590.00" y1="373.73" x2="590.00" y2="310.19" stroke="#d62728" stroke-width="1.3"/>
<line x1="585.00" y1="373.73" x2="595.00" y2="373.73" stroke="#d62728" stroke-width="1.3"/>
<line x1="585.00" y1="310.19" x2="595.00" y2="310.19" stroke="#d62728" stroke-width="1.3"/>
<circle cx="590.00" cy="341.96" r="4" fill="#d62728" stroke="#ffffff" stroke-width="1"/>
<line x1="643.23" y1="282.23" x2="643.23" y2="134.51" stroke="#d62728" stroke-width="1.3"/>
<line x1="638.23" y1="282.23" x2="648.23" y2="282.23" stroke="#d62728" stroke-width="1.3"/>
<line x1="638.23" y1="134.51" x2="648.23" y2="134.51" stroke="#d62728" stroke-width="1.3"/>
<circle cx="643.23" cy="208.37" r="4" fill="#d62728" stroke="#ffffff" stroke-width="1"/>
<line x1="696.47" y1="259.70" x2="696.47" y2="98.69" stroke="#d62728" stroke-width="1.3"/>
<line x1="691.47" y1="259.70" x2="701.47" y2="259.70" stroke="#d62728" stroke-width="1.3"/>
<line x1="691.47" y1="98.69" x2="701.47" y2="98.69" stroke="#d62728" stroke-width="1.3"/>
<circle cx="696.47" cy="179.19" r="4" fill="#d62728" stroke="#ffffff" stroke-width="1"/>
<line x1="749.70" y1="328.33" x2="749.70" y2="266.53" stroke="#d62728" stroke-width="1.3"/>
<line x1="744.70" y1="328.33" x2="754.70" y2="328.33" stroke="#d62728" stroke-width="1.3"/>
<line x1="744.70" y1="266.53" x2="754.70" y2="266.53" stroke="#d62728" stroke-width="1.3"/>
<circle cx="749.70" cy="297.43" r="4" fill="#d62728" stroke="#ffffff" stroke-width="1"/>
<line x1="802.93" y1="418.60" x2="802.93" y2="365.13" stroke="#d62728" stroke-width="1.3"/>
<line x1="797.93" y1="418.60" x2="807.93" y2="418.60" stroke="#d62728" stroke-width="1.3"/>
<line x1="797.93" y1="365.13" x2="807.93" y2="365.13" stroke="#d62728" stroke-width="1.3"/>
<circle cx="802.93" cy="391.86" r="4" fill="#d62728" stroke="#ffffff" stroke-width="1"/>
<line x1="856.16" y1="361.29" x2="856.16" y2="334.91" stroke="#d62728" stroke-width="1.3"/>
<line x1="851.16" y1="361.29" x2="861.16" y2="361.29" stroke="#d62728" stroke-width="1.3"/>
<line x1="851.16" y1="334.91" x2="861.16" y2="334.91" stroke="#d62728" stroke-width="1.3"/>
<circle cx="856.16" cy="348.10" r="4" fill="#d62728" stroke="#ffffff" stroke-width="1"/>
<line x1="909.40" y1="313.39" x2="909.40" y2="272.26" stroke="#d62728" stroke-width="1.3"/>
<line x1="904.40" y1="313.39" x2="914.40" y2="313.39" stroke="#d62728" stroke-width="1.3"/>
<line x1="904.40" y1="272.26" x2="914.40" y2="272.26" stroke="#d62728" stroke-width="1.3"/>
<circle cx="909.40" cy="292.82" r="4" fill="#d62728" stroke="#ffffff" stroke-width="1"/>
<line x1="962.63" y1="255.36" x2="962.63" y2="118.38" stroke="#d62728" stroke-width="1.3"/>
<line x1="957.63" y1="255.36" x2="967.63" y2="255.36" stroke="#d62728" stroke-width="1.3"/>
<line x1="957.63" y1="118.38" x2="967.63" y2="118.38" stroke="#d62728" stroke-width="1.3"/>
<circle cx="962.63" cy="186.87" r="4" fill="#d62728" stroke="#ffffff" stroke-width="1"/>
<line x1="1015.86" y1="423.16" x2="1015.86" y2="305.29" stroke="#d62728" stroke-width="1.3"/>
<line x1="1010.86" y1="423.16" x2="1020.86" y2="423.16" stroke="#d62728" stroke-width="1.3"/>
<line x1="1010.86" y1="305.29" x2="1020.86" y2="305.29" stroke="#d62728" stroke-width="1.3"/>
<circle cx="1015.86" cy="364.22" r="4" fill="#d62728" stroke="#ffffff" stroke-width="1"/>
</svg>
