<svg xmlns="http://www.w3.org/2000/svg" width="1120" height="680" viewBox="0 0 1120 680">
<rect width="100%" height="100%" fill="#fbfbf8"/>
<text x="560.0" y="34" text-anchor="middle" font-family="sans-serif" font-size="24" fill="#222">RTT vs payload</text>
<rect x="96" y="62" width="988" height="532" fill="#ffffff" stroke="#c9c9c1"/>
<line x1="96" y1="62.00" x2="1084" y2="62.00" stroke="#e8e8df"/>
<text x="86" y="66.00" text-anchor="end" font-family="sans-serif" font-size="12" fill="#4a4a45">0.109</text>
<line x1="96.00" y1="62" x2="96.00" y2="594" stroke="#f0f0e8"/>
<text x="96.00" y="618" text-anchor="middle" font-family="sans-serif" font-size="12" fill="#4a4a45">161</text>
<line x1="96" y1="168.40" x2="1084" y2="168.40" stroke="#e8e8df"/>
<text x="86" y="172.40" text-anchor="end" font-family="sans-serif" font-size="12" fill="#4a4a45">0.0952</text>
<line x1="293.60" y1="62" x2="293.60" y2="594" stroke="#f0f0e8"/>
<text x="293.60" y="618" text-anchor="middle" font-family="sans-serif" font-size="12" fill="#4a4a45">436</text>
<line x1="96" y1="274.80" x2="1084" y2="274.80" stroke="#e8e8df"/>
<text x="86" y="278.80" text-anchor="end" font-family="sans-serif" font-size="12" fill="#4a4a45">0.0813</text>
<line x1="491.20" y1="62" x2="491.20" y2="594" stroke="#f0f0e8"/>
<text x="491.20" y="618" text-anchor="middle" font-family="sans-serif" font-size="12" fill="#4a4a45">711</text>
<line x1="96" y1="381.20" x2="1084" y2="381.20" stroke="#e8e8df"/>
<text x="86" y="385.20" text-anchor="end" font-family="sans-serif" font-size="12" fill="#4a4a45">0.0675</text>
<line x1="688.80" y1="62" x2="688.80" y2="594" stroke="#f0f0e8"/>
<text x="688.80" y="618" text-anchor="middle" font-family="sans-serif" font-size="12" fill="#4a4a45">985</text>
<line x1="96" y1="487.60" x2="1084" y2="487.60" stroke="#e8e8df"/>
<text x="86" y="491.60" text-anchor="end" font-family="sans-serif" font-size="12" fill="#4a4a45">0.0537</text>
<line x1="886.40" y1="62" x2="886.40" y2="594" stroke="#f0f0e8"/>
<text x="886.40" y="618" text-anchor="middle" font-family="sans-serif" font-size="12" fill="#4a4a45">1260</text>
<line x1="96" y1="594.00" x2="1084" y2="594.00" stroke="#e8e8df"/>
<text x="86" y="598.00" text-anchor="end" font-family="sans-serif" font-size="12" fill="#4a4a45">0.0398</text>
<line x1="1084.00" y1="62" x2="1084.00" y2="594" stroke="#f0f0e8"/>
<text x="1084.00" y="618" text-anchor="middle" font-family="sans-serif" font-size="12" fill="#4a4a45">1535</text>
<text x="590.0" y="656" text-anchor="middle" font-family="sans-serif" font-size="15" fill="#222">Payload size (bytes)</text>
<text transform="translate(26 328.0) rotate(-90)" text-anchor="middle" font-family="sans-serif" font-size="15" fill="#222">RTT promedio (ms)</text>
<line x1="112" y1="82" x2="138" y2="82" stroke="#1f77b4" stroke-width="3"/>
<text x="146" y="86" font-family="sans-serif" font-size="13" fill="#222">RTT promedio</text>
<polyline points="164.14,543.37 217.37,510.29 270.60,479.80 323.84,452.09 377.07,407.90 430.30,395.06 483.53,369.83 536.77,340.89 590.00,314.04 643.23,287.66 696.47,262.15 749.70,238.83 802.93,204.26 856.16,176.94 909.40,159.21 962.63,125.40 1015.86,99.06" fill="none" stroke="#1f77b4" stroke-width="2.5"/>
<line x1="164.14" y1="557.31" x2="164.14" y2="529.44" stroke="#1f77b4" stroke-width="1.3"/>
<line x1="159.14" y1="557.31" x2="169.14" y2="557.31" stroke="#1f77b4" stroke-width="1.3"/>
<line x1="159.14" y1="529.44" x2="169.14" y2="529.44" stroke="#1f77b4" stroke-width="1.3"/>
<circle cx="164.14" cy="543.37" r="4" fill="#1f77b4" stroke="#ffffff" stroke-width="1"/>
<line x1="217.37" y1="527.24" x2="217.37" y2="493.33" stroke="#1f77b4" stroke-width="1.3"/>
<line x1="212.37" y1="527.24" x2="222.37" y2="527.24" stroke="#1f77b4" stroke-width="1.3"/>
<line x1="212.37" y1="493.33" x2="222.37" y2="493.33" stroke="#1f77b4" stroke-width="1.3"/>
<circle cx="217.37" cy="510.29" r="4" fill="#1f77b4" stroke="#ffffff" stroke-width="1"/>
<line x1="270.60" y1="480.15" x2="270.60" y2="479.45" stroke="#1f77b4" stroke-width="1.3"/>
<line x1="265.60" y1="480.15" x2="275.60" y2="480.15" stroke="#1f77b4" stroke-width="1.3"/>
<line x1="265.60" y1="479.45" x2="275.60" y2="479.45" stroke="#1f77b4" stroke-width="1.3"/>
<circle cx="270.60" cy="479.80" r="4" fill="#1f77b4" stroke="#ffffff" stroke-width="1"/>
<line x1="323.84" y1="453.73" x2="323.84" y2="450.45" stroke="#1f77b4" stroke-width="1.3"/>
<line x1="318.84" y1="453.73" x2="328.84" y2="453.73" stroke="#1f77b4" stroke-width="1.3"/>
<line x1="318.84" y1="450.45" x2="328.84" y2="450.45" stroke="#1f77b4" stroke-width="1.3"/>
<circle cx="323.84" cy="452.09" r="4" fill="#1f77b4" stroke="#ffffff" stroke-width="1"/>
<line x1="377.07" y1="418.25" x2="377.07" y2="397.56" stroke="#1f77b4" stroke-width="1.3"/>
<line x1="372.07" y1="418.25" x2="382.07" y2="418.25" stroke="#1f77b4" stroke-width="1.3"/>
<line x1="372.07" y1="397.56" x2="382.07" y2="397.56" stroke="#1f77b4" stroke-width="1.3"/>
<circle cx="377.07" cy="407.90" r="4" fill="#1f77b4" stroke="#ffffff" stroke-width="1"/>
<line x1="430.30" y1="396.96" x2="430.30" y2="393.15" stroke="#1f77b4" stroke-width="1.3"/>
<line x1="425.30" y1="396.96" x2="435.30" y2="396.96" stroke="#1f77b4" stroke-width="1.3"/>
<line x1="425.30" y1="393.15" x2="435.30" y2="393.15" stroke="#1f77b4" stroke-width="1.3"/>
<circle cx="430.30" cy="395.06" r="4" fill="#1f77b4" stroke="#ffffff" stroke-width="1"/>
<line x1="483.53" y1="373.26" x2="483.53" y2="366.39" stroke="#1f77b4" stroke-width="1.3"/>
<line x1="478.53" y1="373.26" x2="488.53" y2="373.26" stroke="#1f77b4" stroke-width="1.3"/>
<line x1="478.53" y1="366.39" x2="488.53" y2="366.39" stroke="#1f77b4" stroke-width="1.3"/>
<circle cx="483.53" cy="369.83" r="4" fill="#1f77b4" stroke="#ffffff" stroke-width="1"/>
<line x1="536.77" y1="341.89" x2="536.77" y2="339.89" stroke="#1f77b4" stroke-width="1.3"/>
<line x1="531.77" y1="341.89" x2="541.77" y2="341.89" stroke="#1f77b4" stroke-width="1.3"/>
<line x1="531.77" y1="339.89" x2="541.77" y2="339.89" stroke="#1f77b4" stroke-width="1.3"/>
<circle cx="536.77" cy="340.89" r="4" fill="#1f77b4" stroke="#ffffff" stroke-width="1"/>
<line x1="590.00" y1="314.99" x2="590.00" y2="313.09" stroke="#1f77b4" stroke-width="1.3"/>
<line x1="585.00" y1="314.99" x2="595.00" y2="314.99" stroke="#1f77b4" stroke-width="1.3"/>
<line x1="585.00" y1="313.09" x2="595.00" y2="313.09" stroke="#1f77b4" stroke-width="1.3"/>
<circle cx="590.00" cy="314.04" r="4" fill="#1f77b4" stroke="#ffffff" stroke-width="1"/>
<line x1="643.23" y1="289.35" x2="643.23" y2="285.98" stroke="#1f77b4" stroke-width="1.3"/>
<line x1="638.23" y1="289.35" x2="648.23" y2="289.35" stroke="#1f77b4" stroke-width="1.3"/>
<line x1="638.23" y1="285.98" x2="648.23" y2="285.98" stroke="#1f77b4" stroke-width="1.3"/>
<circle cx="643.23" cy="287.66" r="4" fill="#1f77b4" stroke="#ffffff" stroke-width="1"/>
<line x1="696.47" y1="262.97" x2="696.47" y2="261.33" stroke="#1f77b4" stroke-width="1.3"/>
<line x1="691.47" y1="262.97" x2="701.47" y2="262.97" stroke="#1f77b4" stroke-width="1.3"/>
<line x1="691.47" y1="261.33" x2="701.47" y2="261.33" stroke="#1f77b4" stroke-width="1.3"/>
<circle cx="696.47" cy="262.15" r="4" fill="#1f77b4" stroke="#ffffff" stroke-width="1"/>
<line x1="749.70" y1="248.59" x2="749.70" y2="229.08" stroke="#1f77b4" stroke-width="1.3"/>
<line x1="744.70" y1="248.59" x2="754.70" y2="248.59" stroke="#1f77b4" stroke-width="1.3"/>
<line x1="744.70" y1="229.08" x2="754.70" y2="229.08" stroke="#1f77b4" stroke-width="1.3"/>
<circle cx="749.70" cy="238.83" r="4" fill="#1f77b4" stroke="#ffffff" stroke-width="1"/>
<line x1="802.93" y1="204.63" x2="802.93" y2="203.88" stroke="#1f77b4" stroke-width="1.3"/>
<line x1="797.93" y1="204.63" x2="807.93" y2="204.63" stroke="#1f77b4" stroke-width="1.3"/>
<line x1="797.93" y1="203.88" x2="807.93" y2="203.88" stroke="#1f77b4" stroke-width="1.3"/>
<circle cx="802.93" cy="204.26" r="4" fill="#1f77b4" stroke="#ffffff" stroke-width="1"/>
<line x1="856.16" y1="177.01" x2="856.16" y2="176.86" stroke="#1f77b4" stroke-width="1.3"/>
<line x1="851.16" y1="177.01" x2="861.16" y2="177.01" stroke="#1f77b4" stroke-width="1.3"/>
<line x1="851.16" y1="176.86" x2="861.16" y2="176.86" stroke="#1f77b4" stroke-width="1.3"/>
<circle cx="856.16" cy="176.94" r="4" fill="#1f77b4" stroke="#ffffff" stroke-width="1"/>
<line x1="909.40" y1="171.81" x2="909.40" y2="146.62" stroke="#1f77b4" stroke-width="1.3"/>
<line x1="904.40" y1="171.81" x2="914.40" y2="171.81" stroke="#1f77b4" stroke-width="1.3"/>
<line x1="904.40" y1="146.62" x2="914.40" y2="146.62" stroke="#1f77b4" stroke-width="1.3"/>
<circle cx="909.40" cy="159.21" r="4" fill="#1f77b4" stroke="#ffffff" stroke-width="1"/>
<line x1="962.63" y1="125.73" x2="962.63" y2="125.07" stroke="#1f77b4" stroke-width="1.3"/>
<line x1="957.63" y1="125.73" x2="967.63" y2="125.73" stroke="#1f77b4" stroke-width="1.3"/>
<line x1="957.63" y1="125.07" x2="967.63" y2="125.07" stroke="#1f77b4" stroke-width="1.3"/>
<circle cx="962.63" cy="125.40" r="4" fill="#1f77b4" stroke="#ffffff" stroke-width="1"/>
<line x1="1015.86" y1="99.43" x2="1015.86" y2="98.69" stroke="#1f77b4" stroke-width="1.3"/>
<line x1="1010.86" y1="99.43" x2="1020.86" y2="99.43" stroke="#1f77b4" stroke-width="1.3"/>
<line x1="1010.86" y1="98.69" x2="1020.86" y2="98.69" stroke="#1f77b4" stroke-width="1.3"/>
<circle cx="1015.86" cy="99.06" r="4" fill="#1f77b4" stroke="#ffffff" stroke-width="1"/>
</svg>
